<svg xmlns="http://www.w3.org/2000/svg" width="410.15" height="448.139" viewBox="0, 0, 410.15, 448.139"><path d="M410.15 421.404c0 14.765-91.815 26.735-205.075 26.735C91.815 448.139 0 436.169 0 421.404c0-14.77 91.815-26.741 205.075-26.741 113.26 0 205.075 11.971 205.075 26.741" fill="#D6D5D0"/><path d="M359.919 379.911c0 16.568-13.431 30-30 30H95.789c-16.569 0-30-13.432-30-30V226.389c0-16.568 13.431-30 30-30h234.13c16.569 0 30 13.432 30 30v153.522" fill="#FFFFFE"/><path d="M329.919 424.911H95.789c-24.814 0-45-20.187-45-45V226.389c0-24.813 20.186-45 45-45h234.13c24.814 0 45 20.187 45 45v153.522c0 24.813-20.186 45-45 45zM95.789 211.389c-8.272 0-15 6.729-15 15v153.522c0 8.271 6.728 15 15 15h234.13c8.272 0 15-6.729 15-15V226.389c0-8.271-6.728-15-15-15H95.789" fill="#3B3C3A"/><path d="M107.015 141h211.676v55.389H107.015z" fill="#70B7D3"/><path d="M318.691 211.389H107.015c-8.284 0-15-6.716-15-15V141c0-8.284 6.716-15 15-15h211.676c8.284 0 15 6.716 15 15v55.389c0 8.284-6.716 15-15 15zm-196.676-30h181.676V156H122.015z" fill="#3B3C3A"/><path d="M262.502 98.24C245.664 94 246.818 82.196 250.716 64c6.428-30 2.557-49-37.863-49-40.418 0-44.289 19-37.861 49 3.898 18.196 5.052 30-11.787 34.24-16.838 4.238-38.932 27.759-38.932 42.76h177.162c0-15.001-22.094-38.522-38.933-42.76" fill="#FFFFFE"/><path d="M301.435 156H124.273c-8.284 0-15-6.715-15-15 0-14.778 10.724-28.633 17.116-35.576 10.195-11.072 22.279-18.994 33.154-21.731 1.524-.383 2.375-.759 2.79-.98.43-2.105-.244-7.335-2.008-15.57-3.407-15.901-5.811-36.018 5.941-50.554C175.291 5.427 190.529 0 212.853 0c22.325 0 37.565 5.427 46.589 16.589 11.752 14.537 9.349 34.653 5.941 50.554-1.764 8.236-2.438 13.466-2.007 15.571.415.221 1.265.596 2.788.98 10.875 2.736 22.96 10.657 33.154 21.73 6.392 6.943 17.117 20.797 17.117 35.576 0 8.285-6.716 15-15 15zm-153.21-30h129.258l-.234-.256c-6.893-7.485-14.212-11.902-18.409-12.958-16.935-4.264-22.737-14.892-24.623-23.058-2.086-9.032-.323-18.81 1.832-28.87 2.865-13.368 2.885-21.917.063-25.408-1.324-1.639-6.242-5.45-23.259-5.45-17.015 0-21.933 3.811-23.257 5.449-2.823 3.492-2.802 12.041.063 25.409 2.155 10.06 3.918 19.838 1.832 28.87-1.886 8.166-7.689 18.794-24.624 23.058-4.196 1.056-11.515 5.472-18.407 12.958l-.235.256m-23.952 117.601h-60.27c-5.522 0-10-4.477-10-10s4.478-10 10-10h60.27c5.522 0 10 4.477 10 10s-4.478 10-10 10m-20 46.365h-40.27c-5.522 0-10-4.477-10-10s4.478-10 10-10h40.27c5.523 0 10 4.477 10 10s-4.477 10-10 10m20 46.366h-60.27c-5.522 0-10-4.477-10-10s4.478-10 10-10h60.27c5.522 0 10 4.477 10 10s-4.478 10-10 10m-20 46.366h-40.27c-5.522 0-10-4.477-10-10s4.478-10 10-10h40.27c5.523 0 10 4.477 10 10s-4.477 10-10 10M259.708 244.09c0 6.436-5.215 11.652-11.651 11.652-6.433 0-11.652-5.216-11.652-11.652 0-6.436 5.219-11.65 11.652-11.65 6.436 0 11.651 5.214 11.651 11.65m-71.005 0c0 6.436-5.215 11.652-11.653 11.652-6.433 0-11.65-5.216-11.65-11.652 0-6.436 5.217-11.65 11.65-11.65 6.438 0 11.653 5.214 11.653 11.65m22.826 29.972h-51.404s3.597 33.431 51.404 33.431c47.805 0 51.404-33.431 51.404-33.431h-51.404" fill="#3B3C3A"/></svg>