<svg xmlns="http://www.w3.org/2000/svg" width="423.337" height="345.322" viewBox="0, 0, 423.337, 345.322"><path d="M419.069 318.587c0 14.765-91.816 26.735-205.075 26.735-113.26 0-205.076-11.97-205.076-26.735 0-14.77 91.816-26.741 205.076-26.741 113.259 0 205.075 11.971 205.075 26.741" fill="#D6D5D0"/><path d="M71.058 97.912v93.506S15 191.418 15 140.752c0-49.315 56.058-42.84 56.058-42.84" fill="#FFFFFE"/><path d="M71.058 206.418c-1.766 0-17.723-.215-34.206-7.664C13.087 188.014 0 167.415 0 140.752c0-35.85 24.827-58.12 64.792-58.12 4.479 0 7.44.315 7.988.379 7.568.874 13.278 7.283 13.278 14.901v93.506c0 8.284-6.716 15-15 15zm-15-93.196c-4.618.638-9.838 1.923-14.365 4.437C36.673 120.447 30 125.874 30 140.752c0 14.743 5.886 24.386 18.525 30.349 2.524 1.191 5.086 2.116 7.533 2.833v-60.712" fill="#3B3C3A"/><path d="M350.558 97.912v93.506s57.779 0 57.779-50.666c0-49.315-57.779-42.84-57.779-42.84" fill="#FFFFFE"/><path d="M350.558 206.418c-8.284 0-15-6.716-15-15V97.912a15 15 0 0 1 13.329-14.907c.556-.062 3.563-.373 8.129-.373 40.908 0 66.321 22.27 66.321 58.12 0 26.741-13.448 47.364-37.866 58.07-16.838 7.382-33.113 7.596-34.913 7.596zm15-93.336v61.014c2.754-.749 5.666-1.738 8.534-3.048 13.13-5.994 19.245-15.621 19.245-30.296 0-16.309-9.335-25.591-27.779-27.67" fill="#3B3C3A"/><path d="M212.318 15C125.621 15 61.464 60.488 61.464 143.739c0 83.252 69.358 126.167 150.854 126.167 81.494 0 150.853-42.915 150.853-126.167C363.171 60.488 299.015 15 212.318 15" fill="#FFFFFE"/><path d="M212.318 284.906c-44.871 0-85.756-12.418-115.123-34.966-33.189-25.483-50.731-62.206-50.731-106.201 0-44.462 16.761-81.547 48.472-107.243C124.401 12.62 164.991 0 212.318 0S300.235 12.62 329.7 36.496c31.711 25.696 48.471 62.781 48.471 107.243 0 43.995-17.543 80.718-50.731 106.201-29.366 22.548-70.252 34.966-115.122 34.966zm0-254.906C146.642 30 76.464 59.88 76.464 143.739c0 82.053 73.184 111.167 135.854 111.167 62.67 0 135.853-29.114 135.853-111.167C348.171 59.88 277.994 30 212.318 30" fill="#3B3C3A"/><path d="M272.148 102.634c0 6.434-5.215 11.652-11.65 11.652-6.434 0-11.653-5.218-11.653-11.652 0-6.437 5.219-11.651 11.653-11.651 6.435 0 11.65 5.214 11.65 11.651m-97.656 0c0 6.434-5.215 11.652-11.653 11.652-6.433 0-11.65-5.218-11.65-11.652 0-6.437 5.217-11.651 11.65-11.651 6.438 0 11.653 5.214 11.653 11.651m102.474 47.587c0 17.396-29.234 45.578-65.295 45.578-36.065 0-65.298-28.182-65.298-45.578 0-17.394 29.233-17.414 65.298-17.414 36.061 0 65.295.02 65.295 17.414M173.862 56.48a9.96 9.96 0 0 1-6.784-2.656c-4.056-3.748-4.306-10.075-.558-14.131l22.128-23.945c3.749-4.055 10.073-4.307 14.132-.557 4.055 3.748 4.305 10.075.557 14.131l-22.128 23.945a9.973 9.973 0 0 1-7.347 3.213m32.5 0a9.96 9.96 0 0 1-6.784-2.656c-4.056-3.748-4.306-10.075-.558-14.131l22.128-23.945c3.749-4.055 10.073-4.307 14.132-.557 4.055 3.748 4.305 10.075.557 14.131l-22.128 23.945a9.973 9.973 0 0 1-7.347 3.213m32.5 0a9.96 9.96 0 0 1-6.784-2.656c-4.056-3.748-4.306-10.075-.558-14.131l22.128-23.945c3.749-4.055 10.074-4.307 14.132-.557 4.055 3.748 4.305 10.075.557 14.131l-22.128 23.945a9.973 9.973 0 0 1-7.347 3.213" fill="#3B3C3A"/></svg>