<svg xmlns="http://www.w3.org/2000/svg" width="430.765" height="404.708" viewBox="0, 0, 430.765, 404.708"><path d="M410.15 377.973c0 14.765-91.815 26.736-205.075 26.736C91.815 404.709 0 392.738 0 377.973c0-14.769 91.815-26.74 205.075-26.74 113.26 0 205.075 11.971 205.075 26.74" fill="#D6D5D0"/><path d="M31.868 125.208c17.281 35.968 54.597 50.8 99.488 29.229 44.889-21.569 54.201-61.462 37.957-95.27-16.246-33.809-57.135-57.462-102.027-35.892-44.889 21.569-52.701 65.966-35.418 101.933" fill="#F6D729"/><path d="M91.302 179.464h-.006c-31.778-.002-58.367-17.41-72.949-47.76-10.501-21.854-12.8-45.689-6.47-67.112 7.058-23.89 23.971-42.854 48.912-54.838C74.258 3.282 88.077 0 101.858 0c33.816 0 65.601 20.675 80.976 52.671 10.021 20.858 11.65 43.47 4.585 63.673-7.645 21.858-24.785 39.705-49.567 51.613-15.888 7.635-31.55 11.507-46.55 11.507zM101.858 30c-9.248 0-18.694 2.286-28.076 6.795-38.026 18.272-41.66 54.308-28.394 81.917 9.527 19.829 25.831 30.75 45.91 30.752h.004c10.466 0 21.755-2.875 33.558-8.547 40.187-19.311 42.329-51.535 30.933-75.254C145.383 43.999 124.212 30 101.858 30" fill="#3B3C3A"/><path d="M78.993 94.223c5.422 11.288 16.627 16.184 29.789 9.86 13.162-6.325 15.607-18.614 10.51-29.223-5.098-10.608-16.221-16.377-29.381-10.055-13.162 6.324-16.342 18.133-10.918 29.418" fill="#FFFFFE"/><path d="M97.521 121.876h-.002c-13.703-.002-25.683-7.91-32.047-21.158-4.42-9.194-5.195-19.11-2.183-27.918 3.171-9.273 10.13-16.713 20.126-21.515 5.671-2.726 11.457-4.108 17.193-4.108 13.791 0 25.829 7.921 32.204 21.186 4.251 8.849 5.101 18.502 2.391 27.184-2.955 9.469-10.032 17.302-19.925 22.055-5.9 2.835-11.875 4.274-17.757 4.274zm3.087-44.699c-1.186 0-2.639.398-4.201 1.149-2.548 1.223-4.229 2.709-4.732 4.181-.604 1.768.265 4.029.837 5.218 1.993 4.151 4.184 4.151 5.008 4.151 1.33 0 2.978-.454 4.765-1.314 1.635-.785 3.705-2.109 4.28-3.952.434-1.388.144-3.303-.794-5.253-.916-1.906-2.556-4.18-5.163-4.18" fill="#3B3C3A"/><path d="M407.272 128.208c-17.283 35.968-54.6 50.8-99.49 29.229-44.889-21.569-54.201-61.462-37.955-95.27 16.246-33.809 57.133-57.462 102.025-35.892 44.889 21.569 52.701 65.966 35.42 101.933" fill="#F6D729"/><path d="M347.84 182.464c-15.003 0-30.667-3.872-46.554-11.507-24.783-11.908-41.922-29.755-49.567-51.614-7.064-20.202-5.435-42.815 4.587-63.673C271.681 23.675 303.464 3 337.28 3c13.782 0 27.599 3.282 41.068 9.754 24.941 11.984 41.855 30.948 48.913 54.838 6.329 21.423 4.033 45.257-6.468 67.112-14.584 30.352-41.175 47.76-72.953 47.76zM337.28 33c-22.354 0-43.524 13.999-53.933 35.663-6.557 13.646-7.732 28.128-3.309 40.778 4.957 14.172 16.797 26.095 34.24 34.476 11.802 5.672 23.094 8.547 33.562 8.547 20.079 0 36.383-10.922 45.912-30.752 13.265-27.609 9.628-63.645-28.397-81.917C355.974 35.286 346.528 33 337.28 33" fill="#3B3C3A"/><path d="M360.145 97.223c-5.422 11.288-16.627 16.184-29.787 9.86-13.164-6.325-15.609-18.614-10.512-29.223 5.098-10.608 16.221-16.377 29.383-10.055 13.162 6.324 16.34 18.133 10.916 29.418" fill="#FFFFFE"/><path d="M341.619 124.876c-5.884 0-11.859-1.439-17.758-4.275-9.893-4.752-16.97-12.585-19.926-22.054-2.71-8.682-1.86-18.335 2.391-27.184 6.375-13.265 18.414-21.186 32.205-21.186 5.736 0 11.52 1.381 17.193 4.108 9.997 4.802 16.956 12.243 20.126 21.516 3.011 8.807 2.235 18.723-2.185 27.92-6.363 13.245-18.343 21.155-32.046 21.155zm-3.088-44.699c-2.609 0-4.248 2.274-5.164 4.18-.938 1.95-1.227 3.865-.794 5.252.575 1.843 2.645 3.167 4.28 3.952 1.789.861 3.437 1.315 4.766 1.315.824 0 3.013 0 5.006-4.148.573-1.192 1.443-3.454.838-5.222-.502-1.472-2.183-2.957-4.73-4.18-1.563-.751-3.017-1.149-4.202-1.149" fill="#3B3C3A"/><path d="M216.286 75.275c-106.323 0-185 53-185 150s85.058 147 185 147c99.943 0 185-50 185-147s-78.678-150-185-150" fill="#F6D729"/><path d="M216.286 387.275c-54.153 0-103.452-14.208-138.819-40.008-40.025-29.197-61.181-71.382-61.181-121.992 0-100.235 78.505-165 200-165s200 64.765 200 165c0 50.61-21.157 92.795-61.182 121.992-35.365 25.8-84.666 40.008-138.818 40.008zm0-297c-82.184 0-170 35.463-170 135 0 97.428 91.578 132 170 132s170-34.572 170-132c0-99.537-87.817-135-170-135" fill="#3B3C3A"/><path d="M312.786 256.698c0 36.727-43.205 66.5-96.5 66.5s-96.5-29.773-96.5-66.5c0-36.726 14-66.5 96.5-66.5s96.5 29.774 96.5 66.5" fill="#FFFFFE"/><path d="M216.286 338.198c-28.786 0-56.042-7.857-76.747-22.126-22.411-15.442-34.753-36.529-34.753-59.374 0-16.641 2.328-40.793 22.459-58.331 17.893-15.59 47.018-23.169 89.041-23.169 42.022 0 71.147 7.579 89.041 23.169 20.131 17.538 22.459 41.69 22.459 58.331 0 22.845-12.342 43.932-34.753 59.374-20.705 14.269-47.961 22.126-76.747 22.126zm0-133c-81.5 0-81.5 29.766-81.5 51.5 0 27.916 37.322 51.5 81.5 51.5 44.177 0 81.5-23.584 81.5-51.5 0-21.734 0-51.5-81.5-51.5m-42.75-46.5c0 5.8-4.701 10.5-10.5 10.5s-10.5-4.7-10.5-10.5c0-5.798 4.701-10.5 10.5-10.5s10.5 4.702 10.5 10.5m106.5 0c0 5.8-4.701 10.5-10.5 10.5s-10.5-4.7-10.5-10.5c0-5.798 4.701-10.5 10.5-10.5s10.5 4.702 10.5 10.5" fill="#3B3C3A"/><path d="M216.286 237.698h-50s3.5 41 50 41 50-41 50-41h-50" fill="#3B3C3A"/><path d="M216.286 288.698c-28.497 0-43.362-13.613-50.813-25.036-7.836-12.009-9.04-23.807-9.151-25.113a10 10 0 0 1 9.964-10.851h100a10.001 10.001 0 0 1 9.964 10.851c-.112 1.306-1.316 13.104-9.152 25.113-7.451 11.423-22.315 25.036-50.812 25.036zm-36.97-41c4.208 9.286 14.059 21 36.97 21 22.891 0 32.747-11.761 36.956-21h-73.926m34.97-58h-35s14.5 30.5 35 30.5c22 0 35-30.5 35-30.5h-35" fill="#3B3C3A"/><path d="M214.286 256.198c-5.523 0-10-4.475-10-10v-36.974c0-5.522 4.477-10 10-10 5.522 0 10 4.478 10 10v36.974c0 5.525-4.478 10-10 10" fill="#3B3C3A"/></svg>