<svg xmlns="http://www.w3.org/2000/svg" width="410.15" height="381.462" viewBox="0, 0, 410.15, 381.462"><path d="M410.15 354.727c0 14.766-91.814 26.735-205.074 26.735C91.816 381.462 0 369.493 0 354.727c0-14.77 91.816-26.74 205.076-26.74 113.26 0 205.074 11.97 205.074 26.74" fill="#D6D5D0"/><path d="M217.439 147.066h174v122.706h-174z" fill="#F6D729"/><path d="M391.439 284.772h-174c-8.284 0-15-6.716-15-15V147.066c0-8.284 6.716-15 15-15h174c8.284 0 15 6.716 15 15v122.706c0 8.284-6.716 15-15 15zm-159-30h144v-92.706h-144z" fill="#3B3C3A"/><path d="M162.969 269.772c0 36.501-29.589 66.091-66.09 66.091-36.502 0-66.092-29.59-66.092-66.091 0-36.501 29.59-66.091 66.092-66.091 36.501 0 66.09 29.59 66.09 66.091" fill="#FFFFFE"/><path d="M96.879 350.863c-44.714 0-81.092-36.377-81.092-81.091 0-44.714 36.378-81.091 81.092-81.091 44.713 0 81.09 36.377 81.09 81.091 0 44.714-36.377 81.091-81.09 81.091zm0-132.182c-28.172 0-51.092 22.92-51.092 51.091s22.92 51.091 51.092 51.091c28.171 0 51.09-22.92 51.09-51.091s-22.919-51.091-51.09-51.091" fill="#3B3C3A"/><path d="M380.535 269.772c0 36.501-29.59 66.091-66.091 66.091-36.501 0-66.091-29.59-66.091-66.091 0-36.501 29.59-66.091 66.091-66.091 36.501 0 66.091 29.59 66.091 66.091" fill="#FFFFFE"/><path d="M314.444 350.863c-44.714 0-81.091-36.377-81.091-81.091 0-44.714 36.377-81.091 81.091-81.091 44.714 0 81.091 36.377 81.091 81.091 0 44.714-36.377 81.091-81.091 81.091zm0-132.182c-28.172 0-51.091 22.92-51.091 51.091s22.919 51.091 51.091 51.091 51.091-22.92 51.091-51.091-22.919-51.091-51.091-51.091" fill="#3B3C3A"/><path d="M341.535 269.772c0 14.962-12.129 27.091-27.091 27.091-14.962 0-27.091-12.129-27.091-27.091 0-14.962 12.129-27.091 27.091-27.091 14.962 0 27.091 12.129 27.091 27.091" fill="#FFFFFE"/><path d="M314.444 306.863c-20.452 0-37.091-16.639-37.091-37.091s16.639-37.091 37.091-37.091 37.091 16.639 37.091 37.091-16.639 37.091-37.091 37.091zm0-54.182c-9.424 0-17.091 7.667-17.091 17.091 0 9.424 7.667 17.091 17.091 17.091 9.424 0 17.091-7.667 17.091-17.091 0-9.424-7.667-17.091-17.091-17.091" fill="#3B3C3A"/><path d="M157.616 52.001c-33.852 0-39.737 19-39.737 46.881v104.799h-38.44V98.968c0-33 5-80 77-80 19 0 19 33.033 1.177 33.033" fill="#FFFFFE"/><path d="M117.879 218.681h-38.44c-8.284 0-15-6.716-15-15V98.968c0-23.496 0-95 92-95 9.225 0 17.323 4.01 22.804 11.289 4.254 5.651 6.596 12.975 6.596 20.623 0 17.742-12.133 31.121-28.223 31.121-15.713 0-19.113 4.911-20.232 6.524-4.039 5.833-4.505 17.266-4.505 25.357v104.799c0 8.284-6.716 15-15 15zm-23.44-30h8.44V98.882c0-16.731-.004-60.859 52.88-61.864.15-.968.086-2.203-.172-3.045-56.413.336-61.148 32.28-61.148 64.995v89.713" fill="#3B3C3A"/><path d="M207.73 55.001h-45.114c-11.046 0-20-8.955-20-20 0-11.046 8.954-20.001 20-20.001h45.114c11.046 0 20 8.955 20 20.001 0 11.045-8.954 20-20 20" fill="#FFFFFE"/><path d="M207.73 70.001h-45.114c-19.299 0-35-15.701-35-35 0-19.3 15.701-35.001 35-35.001h45.114c19.299 0 35 15.701 35 35.001 0 19.299-15.701 35-35 35zM162.616 30c-2.757 0-5 2.244-5 5.001 0 2.756 2.243 5 5 5h45.114c2.757 0 5-2.244 5-5a5.007 5.007 0 0 0-5-5.001h-45.114m228.823 132.066h-273c-8.284 0-15-6.716-15-15 0-8.284 6.716-15 15-15h273c8.284 0 15 6.716 15 15 0 8.284-6.716 15-15 15M96.879 284.772a14.953 14.953 0 0 1-10.607-4.393c-5.858-5.858-5.858-15.356 0-21.214l47.754-47.754c5.857-5.859 15.355-5.858 21.213-.001 5.858 5.858 5.858 15.356 0 21.214l-47.754 47.754a14.95 14.95 0 0 1-10.606 4.394" fill="#3B3C3A"/><path d="M166.173 237.451h-45.114c-11.046 0-20-8.954-20-20s8.954-20 20-20h45.114c11.046 0 20 8.954 20 20s-8.954 20-20 20" fill="#FFFFFE"/><path d="M166.173 252.451h-45.114c-19.299 0-35-15.701-35-35 0-19.3 15.701-35 35-35h45.114c19.299 0 35 15.7 35 35 0 19.299-15.701 35-35 35zm-45.114-40c-2.757 0-5 2.243-5 5s2.243 5 5 5h45.114c2.757 0 5-2.243 5-5s-2.243-5-5-5h-45.114" fill="#3B3C3A"/><path d="M329.439 147.066h-107c-24 0-19.768-30.311 0-41.184 20-11 65.749-25 107-15 33 8 28 56.184 0 56.184" fill="#F6D729"/><path d="M329.439 162.066h-107c-15.292 0-26.952-8.409-30.429-21.946-4.369-17.011 5.822-37.822 23.201-47.381 17.011-9.357 49.23-20.283 84.043-20.283 11.84 0 23.185 1.295 33.719 3.849 26.701 6.473 36.363 30.352 34.038 49.8-2.529 21.173-17.979 35.961-37.572 35.961zm-108.474-30.1c.346.054.829.1 1.474.1h107c6.326 0 7.595-7.931 7.784-9.52.279-2.328 1.04-14.09-11.318-17.086-8.222-1.993-17.189-3.004-26.651-3.004-27.112 0-55.077 8.589-69.586 16.569-6.507 3.58-8.786 10.273-8.703 12.941" fill="#3B3C3A"/></svg>