<svg xmlns="http://www.w3.org/2000/svg" width="414.194" height="445.528" viewBox="0, 0, 414.194, 445.528"><path d="M410.15 418.793c0 14.765-91.814 26.735-205.074 26.735C91.816 445.528 0 433.558 0 418.793c0-14.77 91.816-26.741 205.076-26.741 113.26 0 205.074 11.971 205.074 26.741" fill="#D6D5D0"/><path d="M138.444 388.144a14.95 14.95 0 0 1-10.606-4.393c-5.859-5.858-5.859-15.355 0-21.213l76.537-76.537c5.857-5.859 15.355-5.859 21.213 0 5.858 5.858 5.858 15.355 0 21.213l-76.538 76.537a14.95 14.95 0 0 1-10.606 4.393" fill="#3B3C3A"/><path d="M287.422 388.144a14.953 14.953 0 0 1-10.607-4.393l-76.537-76.537c-5.858-5.858-5.858-15.355 0-21.213 5.857-5.859 15.355-5.859 21.213 0l76.537 76.537c5.858 5.858 5.858 15.355 0 21.213a14.953 14.953 0 0 1-10.606 4.393" fill="#3B3C3A"/><path d="M219.979 55.315c32 0 52.647 11.028 74.323 29.695-14.537 14.537-74.323 76.282-74.323 76.282V55.315" fill="#E46C79"/><path d="M219.976 176.292a15 15 0 0 1-14.997-15V55.315c0-8.284 6.716-15 15-15 39.907 0 64.01 16.019 84.111 33.329a15.003 15.003 0 0 1 .819 21.973c-14.286 14.285-73.557 75.493-74.154 76.109a14.995 14.995 0 0 1-10.779 4.566zm15.003-104.944v52.928c12.235-12.601 26.421-27.186 36.878-37.864-10.942-7.67-22.397-12.948-36.878-15.064" fill="#3B3C3A"/><path d="M200.312 35.649c-10.861 0-19.666 8.805-19.666 19.666v141.558c0 10.861 8.805 19.666 19.666 19.666 10.862 0 19.667-8.805 19.667-19.666V55.315c0-10.861-8.805-19.666-19.667-19.666" fill="#FFFFFE"/><path d="M200.312 231.539c-19.115 0-34.666-15.551-34.666-34.666V55.315c0-19.115 15.551-34.666 34.666-34.666 19.115 0 34.667 15.551 34.667 34.666v141.558c0 19.115-15.552 34.666-34.667 34.666zm0-180.89a4.671 4.671 0 0 0-4.666 4.666v141.558a4.671 4.671 0 0 0 4.666 4.666 4.672 4.672 0 0 0 4.667-4.666V55.315a4.672 4.672 0 0 0-4.667-4.666" fill="#3B3C3A"/><path d="M233.222 296.052h-120.14l159.027-159.027v122.993c0 22.284-13.854 36.034-38.887 36.034" fill="#E46C79"/><path d="M233.222 311.052h-120.14a15 15 0 0 1-10.607-25.606l159.028-159.027a15.001 15.001 0 0 1 25.606 10.606v122.993c0 31.002-21.151 51.034-53.887 51.034zm-83.928-30h83.928c21.41 0 23.887-12.004 23.887-21.034v-86.779L149.294 281.052" fill="#3B3C3A"/><path d="M313.168 123.725L50.396 386.498l-27.363-27.367L285.803 96.36l27.365 27.365" fill="#FFFFFE"/><path d="M50.396 401.498h-.001a15.001 15.001 0 0 1-10.606-4.394l-27.364-27.367c-5.857-5.858-5.856-15.355.001-21.213l262.771-262.77a14.998 14.998 0 0 1 21.213 0l27.364 27.365c5.858 5.858 5.858 15.355 0 21.213L61.003 397.104a15 15 0 0 1-10.607 4.394zm-6.15-42.366l6.151 6.152 241.558-241.559-6.152-6.151L44.246 359.132" fill="#3B3C3A"/><path d="M367.047 83.179l-47.214 47.213-40.698-40.697 47.214-47.216 40.698 40.7" fill="#3B3C3A"/><path d="M319.833 145.392a14.953 14.953 0 0 1-10.607-4.393l-40.697-40.697c-5.858-5.858-5.858-15.355 0-21.213l47.214-47.216a14.998 14.998 0 0 1 21.213 0l40.697 40.699c5.858 5.858 5.858 15.355 0 21.213l-47.214 47.214a14.95 14.95 0 0 1-10.606 4.393zm-19.485-55.697l19.485 19.484 26.001-26.001-19.485-19.485-26.001 26.002" fill="#3B3C3A"/><path d="M378.515 123.225L286.301 31.01 302.312 15s38.954 16.247 64.295 41.587c25.341 25.34 32.587 45.961 32.587 45.961l-20.679 20.677" fill="#3B3C3A"/><path d="M378.515 138.225a14.95 14.95 0 0 1-10.606-4.393l-92.214-92.215c-5.858-5.858-5.858-15.355 0-21.213l16.011-16.011a15 15 0 0 1 16.381-3.237c1.702.71 42.002 17.7 69.127 44.824 27.439 27.438 35.79 50.621 36.131 51.595a14.999 14.999 0 0 1-3.545 15.58l-20.678 20.677a14.959 14.959 0 0 1-10.607 4.393zM313.783 37.278l64.732 64.734 2.554-2.553c-4.143-7.385-11.897-19.095-25.068-32.265-12.759-12.759-29.686-23.175-42.218-29.916" fill="#3B3C3A"/><path d="M175.99 373.144c0 20.737-16.812 37.546-37.546 37.546-20.736 0-37.546-16.809-37.546-37.546 0-20.735 16.81-37.546 37.546-37.546 20.734 0 37.546 16.811 37.546 37.546" fill="#FFFFFE"/><path d="M138.444 425.69c-28.974 0-52.546-23.572-52.546-52.546s23.572-52.546 52.546-52.546 52.546 23.572 52.546 52.546-23.572 52.546-52.546 52.546zm0-75.092c-12.432 0-22.546 10.115-22.546 22.546 0 12.432 10.114 22.546 22.546 22.546 12.432 0 22.546-10.114 22.546-22.546 0-12.431-10.114-22.546-22.546-22.546" fill="#3B3C3A"/><path d="M324.967 373.144c0 20.737-16.81 37.546-37.545 37.546-20.736 0-37.546-16.809-37.546-37.546 0-20.735 16.81-37.546 37.546-37.546 20.735 0 37.545 16.811 37.545 37.546" fill="#FFFFFE"/><path d="M287.422 425.69c-28.974 0-52.546-23.572-52.546-52.546s23.572-52.546 52.546-52.546c28.973 0 52.545 23.572 52.545 52.546s-23.572 52.546-52.545 52.546zm0-75.092c-12.432 0-22.546 10.115-22.546 22.546 0 12.432 10.114 22.546 22.546 22.546 12.431 0 22.545-10.114 22.545-22.546 0-12.431-10.114-22.546-22.545-22.546" fill="#3B3C3A"/></svg>