<svg xmlns="http://www.w3.org/2000/svg" width="420.308" height="403.273" viewBox="0, 0, 420.308, 403.273"><path d="M410.15 376.54c0 14.766-91.816 26.734-205.075 26.734C91.815 403.274 0 391.306 0 376.54c0-14.77 91.815-26.74 205.075-26.74 113.259 0 205.075 11.97 205.075 26.74" fill="#D6D5D0"/><path d="M339.093 102.636C315.662 81.788 297.019 15 211.96 15c-85.06 0-105.435 66.788-128.867 87.636-20.992 18.674-64.48 1.152-64.48 96.003 0 94.854 109.334 97.149 193.347 97.149 84.014 0 193.348-2.295 193.348-97.149 0-94.851-45.223-77.329-66.215-96.003" fill="#FFFFFE"/><path d="M211.96 310.788c-47.954 0-94.2-1.054-132.861-13.754-50.089-16.457-75.486-49.561-75.486-98.395 0-35.221 5.563-59.258 17.509-75.648C32.5 107.379 46.989 102.299 58.63 98.22c6.073-2.127 11.317-3.966 14.493-6.791 4.386-3.904 9.368-10.915 15.135-19.033C108.742 43.566 139.696 0 211.96 0c72.051 0 102.13 43.402 122.034 72.122 5.72 8.255 10.661 15.382 15.07 19.307 3.164 2.814 8.555 4.659 14.797 6.798 11.873 4.064 26.648 9.125 38.318 24.654 12.368 16.459 18.129 40.532 18.129 75.758 0 48.834-25.397 81.938-75.486 98.395-38.661 12.7-84.907 13.754-132.862 13.754zm0-280.788c-56.778 0-80.326 33.143-99.247 59.771-6.825 9.608-12.719 17.906-19.649 24.069-7.604 6.765-16.586 9.914-24.511 12.692-18.748 6.57-34.94 12.245-34.94 72.107 0 75.865 84.362 82.149 178.347 82.149 93.986 0 178.348-6.284 178.348-82.149 0-27.616-4.075-47.04-12.112-57.737-6.13-8.155-14.436-11-24.054-14.295-8.13-2.782-17.345-5.939-25.019-12.764-7.085-6.305-12.971-14.798-19.786-24.632C291.054 62.831 268.301 30 211.96 30" fill="#3B3C3A"/><path d="M18.794 204.838c4.708 88.739 111.028 90.95 193.166 90.95 81.325 0 186.368-2.154 193.012-88.32-101.332 14.678-302.752 15.76-386.178-2.63" fill="#F6D729"/><path d="M211.96 310.788c-46.735 0-91.851-.984-130.075-12.875-49.37-15.357-75.636-46.404-78.069-92.279a15.004 15.004 0 0 1 18.208-15.445c38.547 8.496 107.184 13.371 188.312 13.371 73.247 0 145.205-4.088 192.486-10.938a14.992 14.992 0 0 1 12.396 3.891 14.997 14.997 0 0 1 4.71 12.107c-3.44 44.615-30.053 74.785-79.1 89.673-38.013 11.539-82.648 12.495-128.868 12.495zm-174.744-87.32c16.991 52.571 92.19 57.32 174.744 57.32 81.789 0 156.39-4.622 174.276-55.795-47.518 5.416-111.32 8.567-175.9 8.567-69.94 0-131.251-3.625-173.12-10.092" fill="#3B3C3A"/><path d="M211.96 64.954c-39.043 0-65.91 21.111-65.91 44.111 0 23 131.821 23 131.821 0s-26.87-44.111-65.911-44.111" fill="#70B7D3"/><path d="M211.96 141.315c-18.377 0-35.676-1.67-48.711-4.703-21.366-4.97-32.199-14.238-32.199-27.547 0-33.146 35.54-59.111 80.91-59.111 45.371 0 80.911 25.965 80.911 59.111 0 13.309-10.833 22.577-32.199 27.547-13.035 3.033-30.335 4.703-48.712 4.703zm-50.314-36.455c6.556 2.69 23.235 6.455 50.314 6.455 27.08 0 43.759-3.765 50.315-6.455-3.568-12.695-22.888-24.906-50.315-24.906-27.426 0-46.746 12.211-50.314 24.906" fill="#3B3C3A"/><path d="M184.396 282.597c0 27.613-22.385 50-50 50-27.613 0-50-22.387-50-50 0-27.616 22.387-50.001 50-50.001 27.615 0 50 22.385 50 50.001" fill="#FFFFFE"/><path d="M134.396 347.597c-35.841 0-65-29.161-65-65 0-35.842 29.159-65.001 65-65.001s65 29.159 65 65.001c0 35.839-29.159 65-65 65zm0-100.001c-19.299 0-35 15.702-35 35.001 0 19.298 15.701 35 35 35s35-15.702 35-35c0-19.299-15.701-35.001-35-35.001" fill="#3B3C3A"/><path d="M149.466 282.597c0 8.322-6.746 15.068-15.07 15.068-8.322 0-15.068-6.746-15.068-15.068 0-8.323 6.746-15.071 15.068-15.071 8.324 0 15.07 6.748 15.07 15.071" fill="#3B3C3A"/><path d="M339.525 282.597c0 27.613-22.387 50-50 50-27.615 0-50-22.387-50-50 0-27.616 22.385-50.001 50-50.001 27.613 0 50 22.385 50 50.001" fill="#FFFFFE"/><path d="M289.525 347.597c-35.841 0-65-29.161-65-65 0-35.842 29.159-65.001 65-65.001s65 29.159 65 65.001c0 35.839-29.159 65-65 65zm0-100.001c-19.299 0-35 15.702-35 35.001 0 19.298 15.701 35 35 35s35-15.702 35-35c0-19.299-15.701-35.001-35-35.001" fill="#3B3C3A"/><path d="M304.593 282.597c0 8.322-6.746 15.068-15.068 15.068-8.324 0-15.07-6.746-15.07-15.068 0-8.323 6.746-15.071 15.07-15.071 8.322 0 15.068 6.748 15.068 15.071M73.89 170.181c-1.853 10.328-9.711 17.56-17.549 16.151-7.84-1.405-12.689-10.919-10.836-21.247 1.854-10.328 9.711-17.561 17.551-16.155 7.838 1.409 12.69 10.922 10.834 21.251" fill="#3B3C3A"/></svg>