<svg xmlns="http://www.w3.org/2000/svg" width="414.322" height="385.354" viewBox="0, 0, 414.322, 385.354"><path d="M410.151 358.619c0 14.766-91.816 26.734-205.075 26.734C91.816 385.353 0 373.385 0 358.619c0-14.769 91.816-26.74 205.076-26.74 113.259 0 205.075 11.971 205.075 26.74" fill="#D6D5D0"/><path d="M339.365 15v56.743H76.871V15H16.914v284.86h382.408V15h-59.957" fill="#F6D729"/><path d="M399.322 314.86H16.914c-8.285 0-15-6.717-15-15V15c0-8.285 6.715-15 15-15h59.957c8.285 0 15 6.715 15 15v41.743h232.494V15c0-8.285 6.716-15 15-15h59.957c8.284 0 15 6.715 15 15v284.86c0 8.283-6.716 15-15 15zm-367.408-30h352.408V30h-29.957v41.743c0 8.283-6.716 15-15 15H76.871c-8.285 0-15-6.717-15-15V30H31.914v254.86" fill="#3B3C3A"/><path d="M83.033 109.166h26.17v153.27h-26.17zm56 0h26.17v153.27h-26.17zm56 0h26.17v153.27h-26.17zm56 0h26.17v153.27h-26.17zm56 0h26.17v153.27h-26.17z" fill="#3B3C3A"/><path d="M287.47 122.379c-.125 9.789 4.856 20.022 11.518 23.662 7.698 4.205 17.931 5.934 26.361 2.762 5.449-2.051 10.199-.602 9.242 4.697-2.023 11.18-22.006 29.821-48.679 15.782-25.799-13.579-14.374-39.377-10.791-45.014 4.69-7.379 12.453-10.145 12.349-1.889" fill="#70B7D3"/><path d="M284.142 117.332c1.978 0 3.373 1.516 3.328 5.047-.125 9.789 4.856 20.022 11.518 23.662 4.967 2.713 10.99 4.395 16.902 4.395 3.252 0 6.469-.508 9.459-1.633 1.574-.592 3.09-.893 4.426-.893 3.291 0 5.497 1.821 4.816 5.59-1.508 8.332-12.996 20.811-29.793 20.811-5.738 0-12.094-1.455-18.886-5.029-25.799-13.579-14.374-39.377-10.791-45.014 2.683-4.223 6.375-6.936 9.021-6.936zm0-20h-.002c-9.766 0-19.448 6.059-25.898 16.207-1.341 2.11-12.936 21.239-7.151 42.979 2.405 9.037 8.782 21.66 25.506 30.461 9.243 4.865 18.733 7.332 28.201 7.332 26.395 0 46.231-19.334 49.473-37.248 1.373-7.598-.441-14.85-5.104-20.43-4.632-5.543-11.701-8.723-19.392-8.723-3.777 0-7.637.731-11.471 2.174-.602.227-1.461.352-2.414.352-2.102 0-4.516-.584-6.599-1.582-.76-1.061-1.855-3.672-1.823-6.219.117-9.348-3.731-15.232-6.98-18.521-4.319-4.374-10.123-6.782-16.346-6.782" fill="#3B3C3A"/><path d="M100.617 179.02s5.172 15.633 10.33 15.633c5.159 0 10.331-15.633 10.331-15.633s19.498-.254 19.089-5.053c-.41-4.803-12.145-14.654-12.145-14.654s4.793-18.192 0-20.719c-4.792-2.527-17.275 11.201-17.275 11.201s-12.483-13.728-17.276-11.201c-4.793 2.527 0 20.719 0 20.719s-11.733 9.851-12.143 14.654c-.409 4.799 19.089 5.053 19.089 5.053" fill="#E46C79"/><path d="M126.859 138.284c.5 0 .959.097 1.363.31 4.793 2.527 0 20.719 0 20.719s11.735 9.851 12.145 14.654c.409 4.799-19.089 5.053-19.089 5.053s-5.172 15.633-10.331 15.633c-5.158 0-10.33-15.633-10.33-15.633s-19.498-.254-19.089-5.053c.41-4.803 12.143-14.654 12.143-14.654s-4.793-18.192 0-20.719c.405-.213.864-.31 1.364-.31 5.445 0 15.912 11.511 15.912 11.511s10.468-11.514 15.912-11.511zm.006-20.001h-.006c-5.303 0-10.406 1.629-15.912 5.167-5.506-3.538-10.61-5.167-15.912-5.167-3.744 0-7.442.905-10.692 2.62-4.127 2.175-11.248 7.644-12.576 19.826-.371 3.402-.287 7.203.257 11.617l.001.006c-4.737 5.082-9.727 11.746-10.424 19.912-.519 6.092 1.484 11.971 5.643 16.559 1.923 2.121 6.351 7.005 19.865 9.156 6.098 11.066 14.107 16.674 23.838 16.674 9.73 0 17.742-5.608 23.838-16.674 13.514-2.151 17.942-7.035 19.866-9.156 4.158-4.588 6.163-10.467 5.643-16.555-.697-8.17-5.687-14.836-10.425-19.916l.001-.006c.544-4.414.628-8.215.256-11.617-1.328-12.182-8.449-17.651-12.576-19.826-3.246-1.713-6.942-2.62-10.685-2.62" fill="#3B3C3A"/><path d="M248.19 194.53c0 16.916-13.714 30.627-30.63 30.627-16.916 0-30.63-13.711-30.63-30.627 0-16.918 13.714-30.631 30.63-30.631 16.916 0 30.63 13.713 30.63 30.631" fill="#F6D729"/><path d="M217.56 235.157c-22.403 0-40.63-18.227-40.63-40.627 0-22.405 18.227-40.631 40.63-40.631 22.403 0 40.63 18.226 40.63 40.631 0 22.4-18.227 40.627-40.63 40.627zm0-61.258c-11.375 0-20.63 9.254-20.63 20.631 0 11.373 9.255 20.626 20.63 20.626 11.375 0 20.63-9.253 20.63-20.626 0-11.377-9.255-20.631-20.63-20.631M42.153 339.578c-8.284 0-15-6.716-15-15V299.86c0-8.286 6.716-15 15-15 8.284 0 15 6.714 15 15v24.718c0 8.284-6.716 15-15 15m52 0c-8.284 0-15-6.716-15-15V299.86c0-8.286 6.716-15 15-15 8.284 0 15 6.714 15 15v24.718c0 8.284-6.716 15-15 15m226.824 0c-8.284 0-15-6.716-15-15V299.86c0-8.286 6.716-15 15-15 8.284 0 15 6.714 15 15v24.718c0 8.284-6.716 15-15 15m52 0c-8.284 0-15-6.716-15-15V299.86c0-8.286 6.716-15 15-15 8.284 0 15 6.714 15 15v24.718c0 8.284-6.716 15-15 15" fill="#3B3C3A"/></svg>