<svg xmlns="http://www.w3.org/2000/svg" width="420.601" height="374.774" viewBox="0, 0, 420.601, 374.774"><path d="M410.15 348.04c0 14.765-91.814 26.734-205.074 26.734C91.816 374.774 0 362.805 0 348.04c0-14.77 91.816-26.741 205.076-26.741 113.26 0 205.074 11.971 205.074 26.741" fill="#D6D5D0"/><path d="M211.113 15C53.871 15 16.625 30.176 16.625 60.335v111.292c0 21.305 17.038 32.324 45.007 39.376 36.906 9.306 76.852 38.287 85.825 65.86 8.972 27.574 34.969 25.648 63.656 25.648 28.686 0 54.684 1.926 63.656-25.648 8.973-27.573 48.919-56.554 85.825-65.86 27.969-7.052 45.007-18.071 45.007-39.376V60.335C405.601 30.176 368.355 15 211.113 15" fill="#FFFFFE"/><path d="M221.513 317.54c-1.712 0-3.44-.007-5.182-.015-3.453-.014-6.983-.014-10.436 0-1.741.008-3.47.015-5.182.015-12.747 0-26.178-.362-37.98-4.68-14.564-5.329-24.504-15.878-29.54-31.355-6.985-21.465-42.139-47.614-75.228-55.957-13.935-3.513-56.34-14.205-56.34-53.921V60.335c0-35.567 37.248-45.294 49.488-48.491C82.059 3.764 132.901 0 211.113 0s129.054 3.764 160 11.844c12.24 3.197 49.488 12.924 49.488 48.491v111.292c0 39.716-42.405 50.408-56.34 53.921-33.089 8.343-68.243 34.492-75.228 55.957-11.726 36.035-45.302 36.035-67.52 36.035zm-10.4-30.029c1.793 0 3.575.007 5.343.014 1.7.008 3.386.015 5.057.015 27.333 0 34.986-3.007 38.993-15.318 11.417-35.085 57.99-66.073 96.421-75.764 33.674-8.49 33.674-19.12 33.674-24.831V60.335c0-4.332 0-12.396-27.068-19.464C335.13 33.455 286.697 30 211.113 30c-75.584 0-124.017 3.455-152.42 10.871-27.068 7.068-27.068 15.132-27.068 19.464v111.292c0 5.711 0 16.341 33.674 24.831 38.431 9.691 85.004 40.679 96.421 75.764 4.007 12.311 11.66 15.318 38.993 15.318 1.671 0 3.357-.007 5.057-.015 1.768-.007 3.55-.014 5.343-.014" fill="#3B3C3A"/><path d="M16.625 88.001h43.07v58.945h-43.07z" fill="#C2D54A"/><path d="M59.695 161.946h-43.07c-8.285 0-15-6.715-15-15V88.001c0-8.284 6.715-15 15-15h43.07c8.284 0 15 6.716 15 15v58.945c0 8.285-6.716 15-15 15zm-28.07-30h13.07v-28.945h-13.07z" fill="#3B3C3A"/><path d="M361.87 88.001h43.732v58.945H361.87z" fill="#C2D54A"/><path d="M405.601 161.946H361.87c-8.284 0-15-6.715-15-15V88.001c0-8.284 6.716-15 15-15h43.731c8.284 0 15 6.716 15 15v58.945c0 8.285-6.716 15-15 15zm-28.731-30h13.732v-28.945H376.87zM54.077 216.338a9.947 9.947 0 0 1-3.821-.763c-5.103-2.112-7.528-7.962-5.415-13.064l11.229-27.12c2.112-5.103 7.961-7.527 13.064-5.414 5.103 2.113 7.528 7.962 5.415 13.064l-11.229 27.12a10 10 0 0 1-9.243 6.177m36.124 12.631a9.947 9.947 0 0 1-3.821-.763c-5.103-2.112-7.528-7.962-5.415-13.064l11.229-27.12c2.112-5.103 7.963-7.528 13.064-5.415 5.103 2.114 7.528 7.962 5.415 13.065l-11.229 27.12a10 10 0 0 1-9.243 6.177m28.034 18.01a9.955 9.955 0 0 1-5.869-1.909c-4.468-3.246-5.46-9.5-2.214-13.967l16.308-22.454c3.244-4.469 9.497-5.459 13.967-2.215 4.468 3.246 5.46 9.5 2.214 13.968l-16.307 22.453a9.985 9.985 0 0 1-8.099 4.124m24.307 28.692a9.977 9.977 0 0 1-7.628-3.528c-3.574-4.209-3.06-10.52 1.15-14.095l19.723-16.746c4.211-3.574 10.519-3.06 14.095 1.151 3.575 4.209 3.06 10.521-1.15 14.095l-19.723 16.746a9.957 9.957 0 0 1-6.467 2.377m219.332-59.333a10 10 0 0 1-9.243-6.177l-11.229-27.12c-2.113-5.102.312-10.951 5.414-13.064a10 10 0 0 1 13.065 5.414l11.228 27.12c2.113 5.102-.311 10.952-5.414 13.064a9.95 9.95 0 0 1-3.821.763m-36.124 12.631a10 10 0 0 1-9.243-6.177l-11.229-27.12c-2.113-5.103.312-10.951 5.414-13.065 5.105-2.113 10.952.312 13.065 5.415l11.228 27.12c2.113 5.102-.311 10.952-5.414 13.064a9.95 9.95 0 0 1-3.821.763m-28.035 18.01a9.984 9.984 0 0 1-8.098-4.124l-16.308-22.453c-3.246-4.468-2.254-10.722 2.214-13.968 4.467-3.244 10.722-2.255 13.968 2.215l16.308 22.454c3.246 4.467 2.253 10.721-2.214 13.967a9.956 9.956 0 0 1-5.87 1.909m-24.306 28.692a9.96 9.96 0 0 1-6.468-2.377l-19.723-16.746c-4.21-3.574-4.724-9.886-1.15-14.095 3.573-4.211 9.885-4.725 14.096-1.151l19.722 16.746c4.21 3.575 4.725 9.886 1.151 14.095a9.977 9.977 0 0 1-7.628 3.528M54.081 58.149c-5.618 0-10.173-4.555-10.173-10.173V22.284c0-5.618 4.555-10.173 10.173-10.173s10.173 4.555 10.173 10.173v25.692c0 5.618-4.555 10.173-10.173 10.173m39.257-2c-5.618 0-10.172-4.555-10.172-10.173V20.284c0-5.618 4.554-10.173 10.172-10.173 5.619 0 10.173 4.555 10.173 10.173v25.692c0 5.618-4.554 10.173-10.173 10.173m39.258-2.001c-5.618 0-10.172-4.554-10.172-10.172V18.284c0-5.618 4.554-10.173 10.172-10.173 5.619 0 10.173 4.555 10.173 10.173v25.692c0 5.618-4.554 10.172-10.173 10.172m39.259-1.999c-5.618 0-10.173-4.555-10.173-10.173V16.284c0-5.618 4.555-10.173 10.173-10.173s10.173 4.555 10.173 10.173v25.692c0 5.618-4.555 10.173-10.173 10.173m39.258-2c-5.618 0-10.173-4.555-10.173-10.173V14.284c0-5.618 4.555-10.173 10.173-10.173s10.173 4.555 10.173 10.173v25.692c0 5.618-4.555 10.173-10.173 10.173m39.258 2c-5.618 0-10.173-4.555-10.173-10.173V16.284c0-5.618 4.555-10.173 10.173-10.173s10.173 4.555 10.173 10.173v25.692c0 5.618-4.555 10.173-10.173 10.173m39.259 1.999c-5.619 0-10.173-4.554-10.173-10.172V18.284c0-5.618 4.554-10.173 10.173-10.173 5.618 0 10.172 4.555 10.172 10.173v25.692c0 5.618-4.554 10.172-10.172 10.172m39.257 2.001c-5.618 0-10.172-4.555-10.172-10.173V20.284c0-5.618 4.554-10.173 10.172-10.173 5.619 0 10.173 4.555 10.173 10.173v25.692c0 5.618-4.554 10.173-10.173 10.173m39.258 2c-5.618 0-10.173-4.555-10.173-10.173V22.284c0-5.618 4.555-10.173 10.173-10.173s10.173 4.555 10.173 10.173v25.692c0 5.618-4.555 10.173-10.173 10.173M256.006 99.533c0 6.436-5.215 11.653-11.65 11.653-6.434 0-11.653-5.217-11.653-11.653 0-6.435 5.219-11.65 11.653-11.65 6.435 0 11.65 5.215 11.65 11.65m-71.005 0c0 6.436-5.215 11.653-11.652 11.653-6.434 0-11.651-5.217-11.651-11.653 0-6.435 5.217-11.65 11.651-11.65 6.437 0 11.652 5.215 11.652 11.65m22.826 29.973h-51.404s3.598 33.43 51.404 33.43c47.805 0 51.405-33.43 51.405-33.43h-51.405" fill="#3B3C3A"/></svg>