<svg xmlns="http://www.w3.org/2000/svg" width="419.46" height="447.346" viewBox="0, 0, 419.46, 447.346"><path d="M410.15 420.611c0 14.765-91.815 26.735-205.075 26.735C91.815 447.346 0 435.376 0 420.611c0-14.77 91.815-26.74 205.075-26.74 113.26 0 205.075 11.97 205.075 26.74" fill="#D6D5D0"/><path d="M300.586 307.289c7.885-18.944-16.677-46.494-16.677-46.494l-62.254-17.714s-30.117 9.499-38.656 30.746c-7.496 18.652 19.216 35.378 35.418 20.049 2.478 8.804 6.935 19.419 16.158 22.044 10.951 3.116 18.767-.267 25.344-10.235 5.703 21.562 32.945 20.161 40.667 1.604" fill="#C2D54A"/><path d="M279.562 336.532h-.004c-8.608-.001-16.39-2.924-22.47-8.072-7.731 3.974-16.774 4.689-26.619 1.888-8.144-2.318-14.76-7.736-19.78-16.171a35.964 35.964 0 0 1-7.066.699c-12.444 0-24.427-6.293-31.274-16.424-6.142-9.089-7.334-20.103-3.268-30.219 10.869-27.045 44.287-38.267 48.062-39.458a15.006 15.006 0 0 1 8.617-.121l62.254 17.715a14.985 14.985 0 0 1 7.091 4.445c.741.831 7.41 8.424 13.204 18.826 9.189 16.497 11.249 31.104 6.126 43.413-5.935 14.261-19.624 23.479-34.873 23.479zm-19.646-45.847a15 15 0 0 1 14.504 11.164c.856 3.238 2.442 4.683 5.141 4.683h.001c2.35 0 5.638-1.311 7.176-5.007 2.158-5.185-3.913-17.956-11.399-27.572l-53.058-15.098c-7.874 3.307-21.4 10.702-25.364 20.566-.267.663-.402 1.211.288 2.232 1.083 1.601 3.634 3.223 6.418 3.223 1.692 0 3.117-.603 4.484-1.896a15.003 15.003 0 0 1 24.748 6.832c2.888 10.255 5.8 11.674 5.826 11.682 1.256.357 2.378.546 3.244.546.849 0 2.428 0 5.473-4.615a15.001 15.001 0 0 1 12.518-6.74" fill="#3B3C3A"/><path d="M318.967 21.535C276.6 9.48 205.223 4.124 178.407 98.367c-26.819 94.244 41.789 165.172 69.457 173.044 27.668 7.874 123.338-16.307 150.158-110.551 26.816-94.245-36.687-127.268-79.055-139.325" fill="#C2D54A"/><path d="M259.903 287.798h-.004c-6.145-.001-11.573-.659-16.141-1.96-20.697-5.888-47.06-31.044-64.11-61.171-16.02-28.31-31.743-73.915-15.669-130.404C186.148 16.354 236.994 0 275.744 0c14.83 0 30.754 2.392 47.329 7.108 31.91 9.081 56.445 23.787 72.924 43.709 24.159 29.206 29.694 67.612 16.453 114.148-14.397 50.585-46.25 79.972-70.438 95.717-30.713 19.992-62.552 27.116-82.109 27.116zM275.744 30c-41.913 0-69.033 23.707-82.909 72.473-13.238 46.517-.279 84.09 12.922 107.418 15.62 27.601 36.809 44.418 46.212 47.093 1.069.305 3.518.814 7.929.814 30.976.003 101.969-24.692 123.697-101.044 17.682-62.141-5.443-102.781-68.733-120.791C300.958 32.007 287.796 30 275.744 30" fill="#3B3C3A"/><path d="M246.518 323.888c-2.178-20.4-36.951-32.775-36.951-32.775l-63.115 14.349s-21.858 22.793-19.147 45.531c2.379 19.961 33.842 21.807 40.694.581 6.402 6.534 15.408 13.706 24.757 11.58 11.104-2.524 16.336-9.246 17.319-21.146 15.355 16.176 38.578 1.868 36.443-18.12" fill="#F6D729"/><path d="M146.772 381.742c-17.908 0-32.36-12.185-34.361-28.973-3.45-28.942 20.474-54.832 23.215-57.688a14.993 14.993 0 0 1 7.501-4.246l63.115-14.349a15 15 0 0 1 8.354.495c1.05.373 10.545 3.832 20.621 10.176 15.981 10.06 24.801 21.883 26.216 35.14 1.153 10.784-2.306 21.552-9.487 29.541-6.952 7.733-16.681 12.168-26.692 12.168h-.001a33.72 33.72 0 0 1-6.723-.677c-5.901 8.726-14.729 12.697-22.448 14.452a30.402 30.402 0 0 1-6.737.755c-6.164 0-12.251-1.782-18.375-5.401-6.514 5.474-14.947 8.607-24.198 8.607zm7.803-62.743c-5.32 6.681-13.634 19.663-12.375 30.219.286 2.403 3.859 2.524 4.572 2.524 1.627 0 5.561-.465 6.952-4.775a14.997 14.997 0 0 1 24.988-5.89c7.226 7.374 10.498 7.459 10.633 7.459 3.73-.836 5.238-1.179 5.781-7.763a15 15 0 0 1 25.828-9.092c1.465 1.543 2.911 2.325 4.299 2.325 1.492 0 3.129-.831 4.381-2.223.882-.982 2.31-3.105 1.969-6.302-.596-5.583-12.053-13.87-23.236-18.712l-53.792 12.23" fill="#3B3C3A"/><path d="M125.448 64.4c-42.953 9.767-108.137 39.337-86.412 134.884 21.722 95.547 115.959 124.825 144.009 118.447 28.051-6.377 100.364-73.522 78.641-169.068-21.725-95.547-93.285-94.028-136.238-84.263" fill="#F6D729"/><path d="M174.401 333.567c-18.347-.001-50.836-7.758-82.02-29.62-24.384-17.094-55.971-48.552-67.972-101.339-10.728-47.179-3.141-85.232 22.55-113.101 17.523-19.009 42.812-32.378 75.164-39.734 13.903-3.16 27.332-4.764 39.913-4.764 26.242 0 48.89 6.873 67.317 20.426 22.942 16.874 38.741 43.756 46.96 79.902 13.021 57.27-5.127 101.965-22.643 129.375-18.64 29.171-46.315 52.875-67.298 57.646-3.527.802-7.554 1.209-11.971 1.209zM162.036 75.009c-10.347 0-21.538 1.353-33.263 4.019-26.32 5.983-46.425 16.35-59.757 30.813-18.594 20.171-23.76 49.146-15.353 86.117 18.666 82.105 95.032 107.608 120.738 107.609 2.861 0 4.56-.289 5.319-.462 9.533-2.167 31.594-17.825 48.671-44.547 14.435-22.588 29.39-59.41 18.668-106.57-11.777-51.799-39.589-76.979-85.023-76.979" fill="#3B3C3A"/><path d="M192.756 363.154c-.666 16 27.317 47.148 109.317 47.148l-109.317-47.148" fill="#FFFFFE"/><path d="M302.073 425.302c-68.943 0-99.318-20.932-111.287-33.411-8.8-9.174-13.422-19.601-13.017-29.361a14.98 14.98 0 0 1 15.611-14.363c8.254.343 14.672 7.295 14.366 15.542.376 4.993 19.128 31.593 94.327 31.593 8.284 0 15 6.717 15 15 0 8.285-6.716 15-15 15" fill="#3B3C3A"/></svg>