<svg xmlns="http://www.w3.org/2000/svg" width="157.682" height="188.274" viewBox="0, 0, 157.682, 188.274"><path d="M66.249 174.877l2.619-28.546h-6.849l-.584 27.947c-2.429.723-9.605 3.06-10.652 5.656-.232.575-.194 1.132.113 1.659.34.578.956.87 1.834.87 2.038 0 5.401-1.646 7.511-2.803-.712 2.212-1.538 5.661-.518 7.435.382.661.966 1.051 1.742 1.163.065.008.133.016.2.016 2.025 0 2.857-4.387 3.196-8.274 2.028 2.149 5.405 5.348 7.547 5.348.537 0 .988-.181 1.332-.537.355-.365.512-.825.466-1.368-.232-2.642-6.021-7.134-7.957-8.566m40.649 5.057c-1.045-2.594-8.225-4.933-10.654-5.656l-.58-27.947h-6.853l2.62 28.546c-1.937 1.432-7.726 5.923-7.954 8.566-.048.544.108 1.004.461 1.368.348.356.797.537 1.335.537 2.143 0 5.519-3.199 7.547-5.348.339 3.887 1.172 8.274 3.195 8.274.067 0 .133-.007.202-.016.773-.11 1.356-.502 1.739-1.163 1.022-1.774.195-5.223-.517-7.432 2.111 1.154 5.475 2.8 7.515 2.8.875 0 1.492-.292 1.832-.87.306-.526.345-1.084.112-1.659" fill="#E0642A"/><path d="M78.841 64.091c-8.702 0-66.395-1.219-66.395 49.395 0 50.615 57.693 49.396 66.395 49.396 8.701 0 66.395 1.219 66.395-49.396 0-50.614-57.694-49.395-66.395-49.395" fill="#B9D03A"/><path d="M45.208 120.421a7.41 7.41 0 0 1-6.63-4.062l1.977-1.005c.909 1.785 2.648 2.85 4.653 2.85 2.002 0 3.74-1.065 4.649-2.85l1.976 1.005a7.408 7.408 0 0 1-6.625 4.062m22.42 0a7.4 7.4 0 0 1-6.625-4.062l1.973-1.005c.913 1.785 2.648 2.85 4.652 2.85s3.744-1.065 4.652-2.85l1.976 1.005a7.404 7.404 0 0 1-6.628 4.062m22.426 0a7.409 7.409 0 0 1-6.629-4.062l1.974-1.005c.91 1.785 2.651 2.85 4.655 2.85 2.003 0 3.743-1.065 4.651-2.85l1.976 1.005a7.405 7.405 0 0 1-6.627 4.062m22.423 0a7.407 7.407 0 0 1-6.627-4.062l1.974-1.005c.909 1.785 2.648 2.85 4.651 2.85 2.004 0 3.746-1.065 4.653-2.85l1.976 1.005a7.408 7.408 0 0 1-6.627 4.062m-67.269 15.626a7.404 7.404 0 0 1-6.63-4.059l1.977-1.006c.909 1.785 2.648 2.851 4.653 2.85 2.002 0 3.74-1.065 4.649-2.85l1.976 1.006a7.406 7.406 0 0 1-6.625 4.059m22.42 0a7.397 7.397 0 0 1-6.625-4.059l1.973-1.006c.913 1.785 2.648 2.85 4.652 2.85s3.744-1.065 4.652-2.85l1.976 1.006a7.401 7.401 0 0 1-6.628 4.059m22.426 0a7.402 7.402 0 0 1-6.629-4.059l1.974-1.006c.91 1.785 2.651 2.851 4.655 2.85 2.003 0 3.743-1.065 4.651-2.85l1.976 1.006a7.402 7.402 0 0 1-6.627 4.059m22.423 0a7.404 7.404 0 0 1-6.627-4.059l1.974-1.006c.909 1.785 2.648 2.85 4.651 2.85 2.004 0 3.746-1.065 4.653-2.85l1.976 1.006a7.405 7.405 0 0 1-6.627 4.059" fill="#FFFFFE"/><path d="M78.841 3.667c-9.497 0-72.463-1.21-72.463 49.006s62.966 49.007 72.463 49.007c9.495 0 72.462 1.209 72.462-49.007S88.336 3.667 78.841 3.667" fill="#B9D03A"/><path d="M36.22 13.153A186.736 186.736 0 0 1 14.073 0a595.508 595.508 0 0 0 2.686 27.208A189.657 189.657 0 0 0 36.22 13.153m85.241 0A186.589 186.589 0 0 0 143.609 0a592.696 592.696 0 0 1-2.687 27.208 189.767 189.767 0 0 1-19.461-14.055" fill="#B9D03A"/><path d="M90.8 70.302l-11.959-8.797-11.96 8.797 11.96 13.159L90.8 70.302" fill="#E0642A"/><path d="M156.54 137.268c.121.318-15.132-9.369-24.334-21.261-9.573-11.724-13.103-25.653 1.893-30.079 18.566-7.216 26.797 35.084 22.441 51.34m-155.397 0c-.121.318 15.129-9.369 24.334-21.261 9.574-11.724 13.101-25.653-1.896-30.079-18.565-7.216-26.794 35.084-22.438 51.34" fill="#38B39C"/><path d="M61.745 51.79c0 11.671-9.458 21.133-21.132 21.133-11.675 0-21.137-9.462-21.137-21.133 0-11.674 9.462-21.138 21.137-21.138 11.674 0 21.132 9.464 21.132 21.138" fill="#FFFFFE"/><path d="M53.631 54.029a16.37 16.37 0 0 0-5.091-5.291c-2.42-1.553-5.17-2.37-7.927-2.383-2.759-.021-5.521.788-7.942 2.35a16.05 16.05 0 0 0-5.086 5.294v1.677c2.119-1.441 4.172-2.609 6.29-3.379 2.215-.811 4.472-1.229 6.738-1.242a19.197 19.197 0 0 1 6.75 1.207c2.116.768 4.172 1.935 6.268 3.413v-1.646" fill="#1A1919"/><path d="M65.634 60.061c-1.098-.396-1.693-1.536-1.444-2.577.26-1.034 1.322-1.759 2.484-1.597 1.156.162 1.951 1.347 1.631 2.616-.313 1.274-1.569 1.955-2.671 1.558m-4.094 7.663c-.912-.733-1.111-2.011-.528-2.904.584-.901 1.825-1.236 2.869-.706 1.044.535 1.396 1.911.682 3.007-.709 1.105-2.115 1.335-3.023.603m-6.361 5.923c-.624-.991-.404-2.261.437-2.922.844-.659 2.13-.579 2.947.259.81.843.7 2.262-.323 3.068-1.03.81-2.438.582-3.061-.405m-7.935 3.537c-.272-1.147.357-2.271 1.364-2.622 1.01-.353 2.195.141 2.695 1.207.493 1.05-.065 2.365-1.301 2.797-1.239.431-2.492-.246-2.758-1.382m-8.663.759c.113-1.17 1.07-2.038 2.14-2.041 1.077-.006 2.037.854 2.162 2.019.123 1.16-.833 2.214-2.145 2.219-1.307.007-2.272-1.04-2.157-2.197m-8.439-2.085c.493-1.069 1.671-1.574 2.681-1.23 1.016.338 1.653 1.468 1.391 2.609-.254 1.139-1.5 1.825-2.745 1.405-1.24-.425-1.815-1.722-1.327-2.784m-7.302-4.716c.81-.848 2.097-.945 2.946-.29.842.653 1.081 1.919.463 2.915-.618.993-2.023 1.238-3.056.434-1.038-.793-1.156-2.213-.353-3.059m-5.372-6.827c1.037-.545 2.279-.219 2.872.675.584.897.404 2.169-.503 2.908-.908.749-2.311.525-3.034-.57-.721-1.096-.375-2.478.665-3.013m-2.863-8.21c1.157-.167 2.229.544 2.488 1.58.272 1.041-.32 2.185-1.42 2.591-1.099.407-2.352-.269-2.682-1.533-.326-1.271.455-2.466 1.614-2.638m-.049-8.687c1.147.202 1.933 1.229 1.853 2.297-.079 1.063-1.016 1.958-2.189 1.988-1.169.024-2.135-1.013-2.038-2.317.106-1.307 1.223-2.181 2.374-1.968m2.775-8.239c1.021.578 1.427 1.795 1.003 2.781-.43.977-1.598 1.514-2.714 1.163-1.115-.353-1.695-1.654-1.178-2.854.522-1.207 1.875-1.667 2.889-1.09m5.303-6.885c.78.874.771 2.166.049 2.951-.722.793-2.007.922-2.947.229-.936-.7-1.069-2.117-.185-3.081.888-.97 2.309-.971 3.083-.099m7.249-4.795c.455 1.08.021 2.295-.914 2.806-.936.516-2.194.227-2.857-.739-.668-.965-.331-2.355.818-2.976 1.154-.628 2.5-.173 2.953.909m8.415-2.178c.08 1.173-.73 2.175-1.787 2.367-1.049.166-2.139-.514-2.455-1.644-.31-1.125.458-2.327 1.748-2.542 1.293-.222 2.415.656 2.494 1.819m8.671.673c-.31 1.129-1.396 1.819-2.451 1.654-1.052-.176-1.864-1.171-1.797-2.343.063-1.161 1.177-2.052 2.473-1.841 1.293.21 2.073 1.399 1.775 2.53m7.971 3.446c-.651.97-1.909 1.274-2.85.773-.946-.51-1.383-1.719-.938-2.807.443-1.083 1.79-1.55 2.942-.93 1.156.616 1.505 1.998.846 2.964m6.428 5.85c-.937.712-2.222.586-2.954-.195-.724-.788-.751-2.076.023-2.955.772-.878 2.196-.889 3.088.073.892.953.771 2.377-.157 3.077m4.181 7.622c-1.121.364-2.293-.165-2.727-1.147-.432-.976-.033-2.201.978-2.786 1.015-.583 2.364-.126 2.894 1.066.537 1.199-.036 2.506-1.145 2.867m1.469 8.565c-1.175-.015-2.108-.902-2.205-1.964-.091-1.072.681-2.101 1.832-2.32 1.142-.219 2.278.651 2.389 1.952.117 1.305-.857 2.35-2.016 2.332m28.916.313c0 11.671 9.462 21.133 21.136 21.133 11.669 0 21.136-9.462 21.136-21.133 0-11.674-9.467-21.138-21.136-21.138-11.674 0-21.136 9.464-21.136 21.138" fill="#FFFFFE"/><path d="M104.048 54.029a16.368 16.368 0 0 1 5.094-5.291c2.419-1.553 5.167-2.37 7.928-2.383 2.757-.021 5.517.788 7.938 2.35a16.013 16.013 0 0 1 5.083 5.294v1.677c-2.116-1.441-4.166-2.609-6.286-3.379-2.216-.811-4.471-1.229-6.735-1.242a19.199 19.199 0 0 0-6.751 1.207c-2.118.768-4.173 1.935-6.271 3.413v-1.646" fill="#1A1919"/><path d="M92.044 60.061c1.102-.396 1.697-1.536 1.445-2.577-.26-1.034-1.321-1.759-2.486-1.597-1.152.162-1.948 1.347-1.63 2.616.312 1.274 1.569 1.955 2.671 1.558m4.093 7.663c.916-.733 1.112-2.011.53-2.904-.581-.901-1.823-1.236-2.867-.706-1.044.535-1.396 1.911-.684 3.007.71 1.105 2.115 1.335 3.021.603m6.366 5.923c.621-.991.405-2.261-.44-2.922-.843-.659-2.13-.579-2.944.259-.813.843-.698 2.262.32 3.068 1.03.81 2.44.582 3.064-.405m7.933 3.537c.269-1.147-.354-2.271-1.361-2.622-1.017-.353-2.197.141-2.698 1.207-.492 1.05.065 2.365 1.301 2.797 1.242.431 2.495-.246 2.758-1.382m8.664.759c-.118-1.17-1.074-2.038-2.142-2.041-1.075-.006-2.039.854-2.158 2.019-.127 1.16.833 2.214 2.142 2.219 1.31.007 2.272-1.04 2.158-2.197m8.441-2.085c-.494-1.069-1.673-1.574-2.687-1.23-1.01.338-1.65 1.468-1.387 2.609.252 1.139 1.499 1.825 2.746 1.405 1.239-.425 1.814-1.722 1.328-2.784m7.3-4.716c-.812-.848-2.095-.945-2.944-.29-.847.653-1.083 1.919-.463 2.915.612.993 2.02 1.238 3.056.434 1.037-.793 1.153-2.213.351-3.059m5.371-6.827c-1.037-.545-2.28-.219-2.871.675-.586.897-.403 2.169.503 2.908.904.749 2.309.525 3.037-.57.717-1.096.368-2.478-.669-3.013m2.863-8.21c-1.154-.167-2.227.544-2.489 1.58-.271 1.041.32 2.185 1.42 2.591 1.1.407 2.355-.269 2.683-1.533.324-1.271-.454-2.466-1.614-2.638m.052-8.687c-1.152.202-1.935 1.229-1.856 2.297.08 1.063 1.014 1.958 2.188 1.988 1.169.024 2.136-1.013 2.042-2.317-.109-1.307-1.225-2.181-2.374-1.968m-2.78-8.239c-1.018.578-1.422 1.795-1.003 2.781.434.977 1.599 1.514 2.715 1.163 1.118-.353 1.699-1.654 1.178-2.854-.52-1.207-1.87-1.667-2.89-1.09m-5.301-6.885c-.781.874-.77 2.166-.048 2.951.721.793 2.006.922 2.948.229.939-.7 1.064-2.117.182-3.081-.887-.97-2.304-.971-3.082-.099m-7.249-4.795c-.453 1.08-.023 2.295.917 2.806.936.516 2.194.227 2.854-.739.668-.965.332-2.355-.817-2.976-1.152-.628-2.499-.173-2.954.909m-8.414-2.178c-.081 1.173.726 2.175 1.786 2.367 1.05.166 2.14-.514 2.456-1.644.309-1.125-.457-2.327-1.747-2.542-1.296-.222-2.417.656-2.495 1.819m-8.673.673c.311 1.129 1.396 1.819 2.447 1.654 1.06-.176 1.872-1.171 1.804-2.343-.065-1.161-1.181-2.052-2.474-1.841-1.291.21-2.075 1.399-1.777 2.53m-7.97 3.446c.652.97 1.912 1.274 2.851.773.944-.51 1.383-1.719.94-2.807-.445-1.083-1.79-1.55-2.942-.93-1.161.616-1.506 1.998-.849 2.964m-6.427 5.85c.936.712 2.222.586 2.951-.195.723-.788.754-2.076-.022-2.955-.77-.878-2.196-.889-3.087.073-.894.953-.774 2.377.158 3.077m-4.18 7.622c1.118.364 2.29-.165 2.728-1.147.429-.976.029-2.201-.984-2.786-1.011-.583-2.358-.126-2.892 1.066-.534 1.199.035 2.506 1.148 2.867m-1.471 8.565c1.176-.015 2.106-.902 2.206-1.964.091-1.072-.683-2.101-1.833-2.32-1.145-.219-2.279.651-2.392 1.952-.114 1.305.859 2.35 2.019 2.332" fill="#FFFFFE"/><path d="M96.33 89.624c-5.049.45-10.29 2.801-14.741 5.471a4.861 4.861 0 0 0-5.498 0c-4.448-2.67-9.688-5.021-14.739-5.471-2.091 5.456-2.4 9.8-.583 17.108 5.145 0 10.371-1.469 14.836-3.964a4.852 4.852 0 0 0 3.233 1.234 4.854 4.854 0 0 0 3.239-1.234c4.467 2.495 9.69 3.964 14.832 3.964 1.822-7.308 1.514-11.652-.579-17.108" fill="#38B39C"/></svg>