<svg xmlns="http://www.w3.org/2000/svg" width="151.292" height="202.187" viewBox="0, 0, 151.292, 202.187"><path d="M62.328 188.014l2.77-30.195h-7.246l-.617 29.563c-2.569.765-10.162 3.237-11.269 5.982-.247.61-.206 1.197.121 1.756.357.611 1.007.921 1.938.921 2.154 0 5.716-1.744 7.947-2.966-.753 2.341-1.631 5.986-.547 7.864.404.7 1.02 1.112 1.839 1.229.071.012.144.019.215.019 2.142 0 3.021-4.642 3.38-8.753 2.145 2.274 5.718 5.66 7.982 5.66.57 0 1.044-.193 1.413-.572.373-.385.539-.873.49-1.446-.243-2.793-6.366-7.546-8.416-9.062m42.998 5.35c-1.106-2.743-8.7-5.217-11.27-5.982l-.605-29.116-.01-.447h-7.246l2.77 30.195c-2.051 1.516-8.173 6.267-8.415 9.062-.05.575.116 1.063.488 1.446.369.379.843.572 1.413.572 2.264 0 5.837-3.386 7.983-5.66.359 4.111 1.237 8.753 3.38 8.753.071 0 .142-.007.218-.019.813-.117 1.43-.529 1.836-1.229 1.083-1.878.206-5.523-.55-7.864 2.232 1.222 5.794 2.966 7.949 2.966.93 0 1.581-.31 1.94-.921.324-.557.364-1.146.119-1.756" fill="#E0642A"/><path d="M75.646 79.678c-8.35 0-63.706-1.168-63.706 47.394 0 48.563 55.356 47.391 63.706 47.391 8.349 0 63.706 1.172 63.706-47.391 0-48.562-55.357-47.394-63.706-47.394" fill="#6E2B6E"/><path d="M44.019 139.992a6.97 6.97 0 0 1-6.231-3.821l1.856-.948c.856 1.681 2.492 2.682 4.375 2.682 1.884 0 3.521-1.001 4.375-2.682l1.856.948a6.962 6.962 0 0 1-6.231 3.821m21.085 0a6.967 6.967 0 0 1-6.232-3.821l1.858-.948c.854 1.681 2.489 2.682 4.374 2.682 1.885 0 3.518-1.001 4.375-2.682l1.857.948a6.967 6.967 0 0 1-6.232 3.821m21.084 0a6.97 6.97 0 0 1-6.232-3.821l1.858-.948c.855 1.681 2.489 2.682 4.374 2.682 1.884 0 3.52-1.001 4.375-2.682l1.855.948a6.96 6.96 0 0 1-6.23 3.821m21.084 0a6.962 6.962 0 0 1-6.229-3.821l1.854-.948c.857 1.681 2.49 2.682 4.374 2.682 1.885 0 3.522-1.001 4.377-2.682l1.856.948a6.967 6.967 0 0 1-6.232 3.821m-63.253 14.692a6.966 6.966 0 0 1-6.231-3.818l1.856-.944c.856 1.675 2.492 2.678 4.375 2.678 1.884 0 3.521-1.003 4.375-2.678l1.856.944a6.958 6.958 0 0 1-6.231 3.818m21.085 0a6.963 6.963 0 0 1-6.232-3.818l1.858-.944c.854 1.675 2.489 2.678 4.374 2.678 1.885 0 3.518-1.003 4.375-2.678l1.857.944a6.963 6.963 0 0 1-6.232 3.818m21.084 0a6.966 6.966 0 0 1-6.232-3.818l1.858-.944c.855 1.675 2.489 2.678 4.374 2.678 1.884 0 3.52-1.003 4.375-2.678l1.855.944a6.956 6.956 0 0 1-6.23 3.818m21.084 0a6.957 6.957 0 0 1-6.229-3.818l1.854-.944c.857 1.675 2.49 2.678 4.374 2.678 1.885 0 3.522-1.003 4.377-2.678l1.856.944a6.963 6.963 0 0 1-6.232 3.818" fill="#FFFFFE"/><path d="M150.197 149.887c.113.306-14.519-8.987-23.351-20.393-9.186-11.253-12.57-24.617 1.82-28.865 17.812-6.921 25.707 33.664 21.531 49.258m-149.102 0c-.116.306 14.518-8.987 23.349-20.393 9.186-11.253 12.571-24.617-1.82-28.865-17.811-6.921-25.706 33.664-21.529 49.258" fill="#A88EB4"/><path d="M136.493 0l-8.856 16.637c-50.405-3.984-53.544-3.984-103.98 0L14.796 0c-33.787 83.785-3.799 107.814 60.85 107.814 64.639 0 94.641-24.021 60.847-107.814" fill="#6E2B6E"/><path d="M75.643 96.062c35.664 0 67.29-4.096 67.29-39.172 0-18.16-15.783-32.884-35.268-32.884-14.201 0-26.435 7.831-32.022 19.114-5.583-11.283-17.822-19.114-32.02-19.114-19.484 0-35.265 14.724-35.265 32.884 0 35.06 31.594 39.172 67.285 39.172" fill="#A88EB4"/><path d="M75.648 72.344c-5.957 0-8.596 2.216-8.639 4.358-.192 9.458 8.639 14.496 8.639 14.496s8.824-5.038 8.636-14.496c-.047-2.142-2.681-4.358-8.636-4.358" fill="#E0642A"/><path d="M65.278 65.762c-1.079-.389-1.664-1.509-1.419-2.532.256-1.016 1.298-1.73 2.441-1.571 1.135.161 1.914 1.326 1.604 2.575-.31 1.25-1.543 1.919-2.626 1.528m-4.024 7.529c-.896-.718-1.091-1.974-.516-2.856.57-.883 1.791-1.21 2.819-.69 1.022.527 1.369 1.878.668 2.953-.697 1.085-2.074 1.314-2.971.593m-6.25 5.822c-.613-.974-.397-2.222.43-2.872.828-.65 2.092-.57 2.895.253.797.829.689 2.224-.317 3.014-1.011.798-2.395.573-3.008-.395m-7.795 3.473c-.268-1.127.349-2.229 1.339-2.576.994-.349 2.157.138 2.648 1.186.484 1.031-.065 2.322-1.279 2.749-1.215.422-2.45-.245-2.708-1.359m-8.514.747c.113-1.151 1.054-2.003 2.101-2.007 1.06-.004 2.006.838 2.127 1.984.119 1.14-.818 2.174-2.108 2.18-1.281.005-2.23-1.022-2.12-2.157m-8.289-2.05c.483-1.049 1.642-1.546 2.636-1.208.995.333 1.622 1.441 1.365 2.564-.25 1.117-1.476 1.792-2.696 1.381-1.221-.42-1.787-1.694-1.305-2.737m-7.175-4.634c.797-.832 2.061-.929 2.894-.287.829.641 1.061 1.89.454 2.866-.605.975-1.987 1.218-3.003.427-1.02-.782-1.134-2.178-.345-3.006m-5.279-6.706c1.018-.537 2.241-.214 2.823.663.573.88.396 2.132-.496 2.856-.89.735-2.271.517-2.982-.559-.705-1.081-.368-2.435.655-2.96m-2.814-8.068c1.136-.163 2.192.535 2.446 1.552.268 1.022-.316 2.147-1.398 2.547-1.078.399-2.308-.265-2.632-1.507-.317-1.249.448-2.423 1.584-2.592m-.047-8.535c1.127.199 1.9 1.208 1.822 2.256-.078 1.046-1 1.926-2.154 1.955-1.146.022-2.097-.996-2.001-2.277.103-1.286 1.204-2.146 2.333-1.934m2.726-8.097c1.006.566 1.402 1.767.984 2.734-.419.961-1.569 1.49-2.665 1.142-1.092-.346-1.668-1.623-1.158-2.803.515-1.185 1.842-1.638 2.839-1.073m5.212-6.761c.765.855.757 2.127.05 2.898-.711.777-1.976.905-2.899.226-.92-.691-1.048-2.083-.181-3.028.873-.954 2.269-.955 3.03-.096m7.123-4.713c.444 1.058.02 2.257-.901 2.757-.918.504-2.154.221-2.805-.727-.656-.946-.325-2.312.802-2.925 1.135-.617 2.458-.168 2.904.895m8.266-2.141c.077 1.155-.716 2.139-1.754 2.326-1.03.164-2.103-.504-2.414-1.617-.304-1.104.449-2.283 1.718-2.495 1.272-.217 2.373.644 2.45 1.786m8.52.662c-.304 1.111-1.371 1.788-2.406 1.627-1.037-.176-1.836-1.151-1.768-2.305.062-1.141 1.158-2.017 2.431-1.805 1.27.204 2.036 1.369 1.743 2.483m7.831 3.386c-.64.952-1.876 1.251-2.8.757-.928-.501-1.357-1.687-.922-2.755.436-1.064 1.759-1.525 2.891-.914 1.137.607 1.481 1.959.831 2.912m6.315 5.748c-.92.699-2.182.575-2.903-.191-.709-.777-.736-2.04.026-2.902.757-.865 2.158-.878 3.031.069.878.937.762 2.334-.154 3.024m4.108 7.487c-1.1.358-2.249-.161-2.68-1.13-.423-.956-.031-2.159.963-2.735 1-.57 2.323-.122 2.845 1.047.526 1.179-.034 2.464-1.128 2.818m1.442 8.415c-1.151-.013-2.069-.884-2.162-1.926-.089-1.058.671-2.066 1.802-2.281 1.122-.215 2.235.638 2.346 1.918.111 1.281-.841 2.308-1.986 2.289" fill="#6E2B6E"/><path d="M61.144 57.633c0 11.296-9.158 20.455-20.451 20.455-11.301 0-20.456-9.159-20.456-20.455 0-11.298 9.155-20.457 20.456-20.457 11.293 0 20.451 9.159 20.451 20.457" fill="#FFFFFE"/><path d="M50.869 57.633c0 5.621-4.557 10.178-10.176 10.178-5.624 0-10.178-4.557-10.178-10.178a10.176 10.176 0 0 1 10.178-10.178c5.619 0 10.176 4.556 10.176 10.178" fill="#1A1919"/><path d="M47.842 54.578a2.476 2.476 0 0 1-4.954 0 2.477 2.477 0 0 1 4.954 0" fill="#FFFFFE"/><path d="M135.19 65.762c-1.081-.389-1.664-1.509-1.42-2.532.257-1.016 1.3-1.73 2.443-1.571 1.136.161 1.914 1.326 1.603 2.575-.31 1.25-1.542 1.919-2.626 1.528m-4.021 7.529c-.897-.718-1.094-1.974-.519-2.856.571-.883 1.791-1.21 2.818-.69 1.025.527 1.373 1.878.669 2.953-.697 1.085-2.075 1.314-2.968.593m-6.251 5.822c-.614-.974-.398-2.222.428-2.872.828-.65 2.092-.57 2.895.253.797.829.688 2.224-.317 3.014-1.011.798-2.395.573-3.006-.395m-7.798 3.473c-.267-1.127.351-2.229 1.341-2.576.993-.349 2.157.138 2.649 1.186.483 1.031-.064 2.322-1.28 2.749-1.214.422-2.451-.245-2.71-1.359m-8.514.747c.115-1.151 1.054-2.003 2.106-2.007 1.058-.004 2.002.838 2.125 1.984.119 1.14-.819 2.174-2.108 2.18-1.285.005-2.233-1.022-2.123-2.157m-8.288-2.05c.485-1.049 1.641-1.546 2.635-1.208.998.333 1.623 1.441 1.367 2.564-.252 1.117-1.477 1.792-2.698 1.381-1.219-.42-1.787-1.694-1.304-2.737m-7.176-4.634c.798-.832 2.064-.929 2.895-.287.828.641 1.061 1.89.456 2.866-.608.975-1.989 1.218-3.003.427-1.022-.782-1.135-2.178-.348-3.006m-5.278-6.706c1.017-.537 2.24-.214 2.823.663.574.88.395 2.132-.495 2.856-.891.735-2.271.517-2.981-.559-.707-1.081-.369-2.435.653-2.96m-2.812-8.068c1.133-.163 2.189.535 2.445 1.552.267 1.022-.315 2.147-1.395 2.547-1.082.399-2.311-.265-2.636-1.507-.318-1.249.448-2.423 1.586-2.592m-.049-8.535c1.129.199 1.9 1.208 1.821 2.256-.078 1.046-.997 1.926-2.153 1.955-1.145.022-2.097-.996-2-2.277.102-1.286 1.204-2.146 2.332-1.934m2.725-8.097c1.006.566 1.403 1.767.986 2.734-.42.961-1.567 1.49-2.664 1.142-1.095-.346-1.667-1.623-1.159-2.803.513-1.185 1.843-1.638 2.837-1.073m5.214-6.761c.767.855.756 2.127.049 2.898-.712.777-1.975.905-2.898.226-.921-.691-1.049-2.083-.181-3.028.872-.954 2.267-.955 3.03-.096m7.121-4.713c.448 1.058.02 2.257-.899 2.757-.921.504-2.156.221-2.806-.727-.654-.946-.323-2.312.803-2.925 1.136-.617 2.458-.168 2.902.895m8.266-2.141c.078 1.155-.715 2.139-1.753 2.326-1.03.164-2.101-.504-2.412-1.617-.306-1.104.446-2.283 1.716-2.495 1.273-.217 2.375.644 2.449 1.786m8.522.662c-.303 1.111-1.371 1.788-2.407 1.627-1.035-.176-1.836-1.151-1.767-2.305.062-1.141 1.159-2.017 2.431-1.805 1.269.204 2.035 1.369 1.743 2.483m7.832 3.386c-.64.952-1.878 1.251-2.802.757-.93-.501-1.357-1.687-.922-2.755.438-1.064 1.759-1.525 2.891-.914 1.137.607 1.479 1.959.833 2.912m6.315 5.748c-.92.699-2.185.575-2.904-.191-.71-.777-.737-2.04.026-2.902.755-.865 2.158-.878 3.03.069.878.937.763 2.334-.152 3.024m4.107 7.487c-1.1.358-2.252-.161-2.68-1.13-.423-.956-.031-2.159.962-2.735.999-.57 2.324-.122 2.844 1.047.529 1.179-.031 2.464-1.126 2.818m1.445 8.415c-1.155-.013-2.071-.884-2.167-1.926-.087-1.058.671-2.066 1.802-2.281 1.123-.215 2.238.638 2.345 1.918.112 1.281-.838 2.308-1.98 2.289" fill="#6E2B6E"/><path d="M131.054 57.633c0 11.296-9.156 20.455-20.45 20.455-11.3 0-20.455-9.159-20.455-20.455 0-11.298 9.155-20.457 20.455-20.457 11.294 0 20.45 9.159 20.45 20.457" fill="#FFFFFE"/><path d="M120.781 57.633c0 5.621-4.557 10.178-10.177 10.178-5.623 0-10.178-4.557-10.178-10.178 0-5.622 4.555-10.178 10.178-10.178 5.62 0 10.177 4.556 10.177 10.178" fill="#1A1919"/><path d="M117.753 54.578a2.476 2.476 0 1 1-4.951 0 2.476 2.476 0 0 1 4.951 0" fill="#FFFFFE"/><path d="M90.295 101.239c-4.124.917-8.197 3.437-11.577 6.123a4.44 4.44 0 0 0-6.144 0c-3.38-2.686-7.452-5.206-11.574-6.123-2.292 4.25-3.013 7.774-2.3 13.958 4.23.55 8.683-.106 12.62-1.685-3.516 3.268-6.559 6.695-8.329 11.162a51.263 51.263 0 0 1 4.444-.577 58.438 58.438 0 0 1 2.348 3.428 204.164 204.164 0 0 1 5.825-12.437h.075c2.057 4.057 3.903 7.938 5.826 12.437a60.954 60.954 0 0 1 2.346-3.428c1.48.125 2.963.32 4.445.577-1.771-4.467-4.813-7.898-8.331-11.162 3.937 1.579 8.393 2.235 12.622 1.685.714-6.184-.005-9.708-2.296-13.958" fill="#A88EB4"/></svg>