<svg xmlns="http://www.w3.org/2000/svg" width="154.575" height="186.64" viewBox="0, 0, 154.575, 186.64"><path d="M64.946 173.51l2.567-27.985h-6.716l-.57 27.396c-2.382.71-9.418 3.002-10.445 5.545-.227.564-.189 1.11.113 1.626.331.567.934.855 1.795.855 1.998 0 5.296-1.616 7.366-2.748-.698 2.166-1.511 5.549-.508 7.287.374.649.945 1.031 1.705 1.141.066.006.132.013.198.013 1.985 0 2.8-4.3 3.133-8.109 1.988 2.108 5.298 5.243 7.399 5.243.527 0 .966-.177 1.306-.526.348-.359.502-.81.454-1.343-.226-2.589-5.899-6.992-7.797-8.395m39.846 4.956c-1.023-2.542-8.063-4.835-10.443-5.545l-.563-26.98-.008-.416h-6.715l2.567 27.985c-1.9 1.403-7.572 5.805-7.799 8.395-.045.535.108.986.454 1.343.341.349.781.526 1.307.526 2.1 0 5.412-3.135 7.399-5.243.332 3.809 1.15 8.109 3.133 8.109.064 0 .131-.005.2-.013.756-.108 1.328-.492 1.704-1.141 1.002-1.74.19-5.121-.509-7.286 2.069 1.131 5.369 2.747 7.367 2.747.86 0 1.464-.288 1.796-.855.301-.514.338-1.062.11-1.626" fill="#E0642A"/><path d="M77.288 62.829c-8.531 0-65.089-1.197-65.089 48.422 0 49.615 56.558 48.421 65.089 48.421 8.529 0 65.088 1.194 65.088-48.421 0-49.619-56.559-48.422-65.088-48.422" fill="#254A69"/><path d="M44.317 123.484a7.265 7.265 0 0 1-6.499-3.981l1.937-.986c.89 1.75 2.597 2.794 4.562 2.794 1.963 0 3.667-1.044 4.559-2.794l1.935.986a7.257 7.257 0 0 1-6.494 3.981m21.98 0a7.26 7.26 0 0 1-6.497-3.981l1.937-.986c.89 1.75 2.596 2.794 4.56 2.794 1.965 0 3.669-1.044 4.56-2.794l1.935.986a7.254 7.254 0 0 1-6.495 3.981m21.98 0a7.259 7.259 0 0 1-6.495-3.981l1.935-.986c.892 1.75 2.599 2.794 4.56 2.794 1.966 0 3.67-1.044 4.562-2.794l1.937.986a7.263 7.263 0 0 1-6.499 3.981m21.983 0a7.26 7.26 0 0 1-6.496-3.981l1.935-.986c.892 1.75 2.596 2.794 4.56 2.794 1.966 0 3.67-1.044 4.561-2.794l1.937.986a7.262 7.262 0 0 1-6.497 3.981m-65.943 15.32a7.264 7.264 0 0 1-6.499-3.982l1.937-.986c.89 1.751 2.597 2.797 4.562 2.795 1.963 0 3.667-1.044 4.559-2.795l1.935.986a7.256 7.256 0 0 1-6.494 3.982m21.98 0a7.259 7.259 0 0 1-6.497-3.982l1.937-.986c.89 1.751 2.596 2.795 4.56 2.795 1.965 0 3.669-1.044 4.56-2.795l1.935.986a7.253 7.253 0 0 1-6.495 3.982m21.98 0a7.258 7.258 0 0 1-6.495-3.982l1.935-.986c.892 1.751 2.599 2.797 4.56 2.795 1.966 0 3.67-1.044 4.562-2.795l1.937.986a7.262 7.262 0 0 1-6.499 3.982m21.983 0a7.258 7.258 0 0 1-6.496-3.982l1.935-.986c.892 1.751 2.596 2.795 4.56 2.795 1.966 0 3.67-1.044 4.561-2.795l1.937.986a7.26 7.26 0 0 1-6.497 3.982" fill="#FFFFFE"/><path d="M77.288 3.594c-9.31 0-71.036-1.184-71.036 48.042s61.726 48.04 71.036 48.04c9.309 0 71.035 1.186 71.035-48.04S86.597 3.594 77.288 3.594" fill="#254A69"/><path d="M35.507 12.895A182.909 182.909 0 0 1 13.797 0a576.668 576.668 0 0 0 2.634 26.672 185.601 185.601 0 0 0 19.076-13.777m83.56 0A182.856 182.856 0 0 0 140.779 0a582.242 582.242 0 0 1-2.633 26.672 185.754 185.754 0 0 1-19.079-13.777" fill="#254A69"/><path d="M88.946 69.384l-11.658-7.476-11.658 7.476L77.288 83.31l11.658-13.926" fill="#E0642A"/><path d="M153.456 134.563c.117.313-14.833-9.184-23.857-20.839-9.385-11.496-12.842-25.15 1.86-29.488 18.198-7.073 26.264 34.391 21.997 50.327m-152.337 0c-.117.313 14.833-9.184 23.857-20.839 9.384-11.496 12.842-25.15-1.86-29.488-18.198-7.073-26.265 34.391-21.997 50.327" fill="#38B39C"/><path d="M62.097 49.216c0 11.837-9.599 21.434-21.437 21.434-11.838 0-21.43-9.597-21.43-21.434 0-11.838 9.592-21.435 21.43-21.435s21.437 9.597 21.437 21.435" fill="#FFFFFE"/><path d="M56.327 48.76c0 5.85-4.737 10.593-10.586 10.593-5.852 0-10.593-4.743-10.593-10.593 0-5.851 4.741-10.593 10.593-10.593 5.849 0 10.586 4.742 10.586 10.593" fill="#1A1919"/><path d="M53.181 45.584a2.577 2.577 0 0 1-5.155 0 2.577 2.577 0 1 1 5.155 0m12.116 11.777c-1.081-.391-1.668-1.514-1.423-2.538.258-1.017 1.303-1.732 2.444-1.57 1.139.158 1.92 1.326 1.609 2.574-.31 1.254-1.546 1.925-2.63 1.534m-4.031 7.543c-.899-.722-1.096-1.978-.52-2.86.573-.886 1.797-1.215 2.826-.694 1.025.527 1.373 1.881.669 2.961-.698 1.088-2.08 1.312-2.975.593m-6.262 5.831c-.615-.976-.399-2.225.43-2.876.829-.65 2.096-.57 2.901.254.797.831.688 2.226-.316 3.02-1.016.798-2.401.574-3.015-.398m-7.812 3.481c-.267-1.129.353-2.235 1.343-2.581.994-.348 2.161.139 2.653 1.189.485 1.034-.062 2.327-1.282 2.753-1.218.423-2.454-.243-2.714-1.361m-8.527.748c.111-1.151 1.053-2.006 2.105-2.009 1.062-.007 2.008.841 2.13 1.987.12 1.142-.821 2.178-2.114 2.185-1.283.005-2.234-1.023-2.121-2.163m-8.308-2.052c.483-1.053 1.646-1.551 2.639-1.212.999.333 1.626 1.444 1.37 2.568-.25 1.122-1.478 1.797-2.702 1.384-1.221-.419-1.789-1.696-1.307-2.74m-7.189-4.644c.799-.834 2.065-.931 2.901-.284.831.643 1.062 1.889.457 2.869-.609.976-1.993 1.218-3.008.427-1.025-.781-1.139-2.179-.35-3.012m-5.289-6.719c1.021-.537 2.245-.216 2.828.663.576.883.398 2.136-.494 2.863-.893.736-2.275.517-2.986-.562-.709-1.078-.371-2.44.652-2.964m-2.816-8.082c1.137-.165 2.194.535 2.449 1.555.266 1.024-.316 2.152-1.399 2.551-1.081.399-2.315-.266-2.639-1.51-.319-1.251.448-2.427 1.589-2.596m-.049-8.552c1.129.198 1.904 1.21 1.825 2.26-.077 1.048-1 1.93-2.156 1.957-1.151.025-2.101-.996-2.004-2.281.101-1.286 1.204-2.147 2.335-1.936m2.731-8.113c1.006.57 1.405 1.769.986 2.74-.42.962-1.571 1.491-2.668 1.145-1.099-.347-1.673-1.628-1.161-2.809.513-1.188 1.845-1.641 2.843-1.076m5.221-6.775c.768.86.759 2.132.05 2.904-.712.781-1.978.908-2.905.226-.921-.689-1.048-2.084-.18-3.033.876-.954 2.273-.956 3.035-.097m7.138-4.721c.445 1.063.018 2.259-.904 2.762-.92.507-2.159.225-2.809-.727-.658-.951-.326-2.318.802-2.931 1.138-.616 2.464-.168 2.911.896m8.28-2.144c.079 1.154-.715 2.141-1.756 2.331-1.034.163-2.107-.506-2.417-1.62-.306-1.106.447-2.289 1.721-2.5 1.273-.22 2.377.644 2.452 1.789m8.538.662c-.306 1.113-1.373 1.792-2.412 1.63-1.036-.174-1.838-1.153-1.771-2.308.063-1.143 1.162-2.02 2.435-1.811 1.272.206 2.042 1.377 1.748 2.489m7.845 3.393c-.641.956-1.879 1.253-2.806.762-.929-.504-1.359-1.693-.924-2.764.437-1.066 1.765-1.527 2.898-.914 1.138.603 1.483 1.964.832 2.916m6.33 5.76c-.925.7-2.188.577-2.91-.194-.711-.775-.738-2.043.024-2.909.759-.864 2.162-.874 3.038.073.879.938.763 2.339-.152 3.03m4.113 7.502c-1.102.359-2.255-.162-2.684-1.129-.424-.96-.032-2.167.965-2.743 1-.574 2.327-.123 2.849 1.05.528 1.18-.033 2.467-1.13 2.822m1.447 8.43c-1.155-.012-2.076-.887-2.17-1.931-.088-1.056.672-2.071 1.806-2.285 1.125-.215 2.241.641 2.351 1.923.112 1.283-.841 2.312-1.987 2.293m68.691.307c0 11.837-9.598 21.434-21.436 21.434S92.48 61.053 92.48 49.216c0-11.838 9.594-21.435 21.432-21.435s21.436 9.597 21.436 21.435" fill="#FFFFFE"/><path d="M129.577 48.76c0 5.85-4.736 10.593-10.586 10.593-5.851 0-10.591-4.743-10.591-10.593 0-5.851 4.74-10.593 10.591-10.593 5.85 0 10.586 4.742 10.586 10.593" fill="#1A1919"/><path d="M126.433 45.584a2.578 2.578 0 0 1-5.156 0 2.578 2.578 0 0 1 5.156 0m12.115 11.777c-1.082-.391-1.668-1.514-1.422-2.538.257-1.017 1.302-1.732 2.444-1.57 1.139.158 1.918 1.326 1.608 2.574-.31 1.254-1.546 1.925-2.63 1.534m-4.031 7.543c-.899-.722-1.097-1.978-.52-2.86.572-.886 1.797-1.215 2.825-.694 1.025.527 1.374 1.881.67 2.961-.698 1.088-2.08 1.312-2.975.593m-6.262 5.831c-.615-.976-.4-2.225.43-2.876.829-.65 2.096-.57 2.9.254.798.831.69 2.226-.317 3.02-1.015.798-2.4.574-3.013-.398m-7.813 3.481c-.267-1.129.353-2.235 1.344-2.581.994-.348 2.161.139 2.652 1.189.486 1.034-.062 2.327-1.281 2.753-1.217.423-2.453-.243-2.715-1.361m-8.527.748c.111-1.151 1.055-2.006 2.106-2.009 1.063-.007 2.007.841 2.129 1.987.121 1.142-.82 2.178-2.113 2.185-1.285.005-2.233-1.023-2.122-2.163m-8.306-2.052c.481-1.053 1.645-1.551 2.638-1.212 1 .333 1.625 1.444 1.37 2.568-.251 1.122-1.477 1.797-2.701 1.384-1.223-.419-1.789-1.696-1.307-2.74m-7.19-4.644c.799-.834 2.065-.931 2.902-.284.829.643 1.062 1.889.454 2.869-.608.976-1.991 1.218-3.007.427-1.024-.781-1.138-2.179-.349-3.012m-5.289-6.719c1.021-.537 2.245-.216 2.829.663.575.883.398 2.136-.495 2.863-.893.736-2.276.517-2.986-.562-.709-1.078-.37-2.44.652-2.964m-2.817-8.082c1.138-.165 2.195.535 2.45 1.555.266 1.024-.317 2.152-1.399 2.551-1.081.399-2.315-.266-2.64-1.51-.319-1.251.448-2.427 1.589-2.596m-.048-8.552c1.129.198 1.904 1.21 1.826 2.26-.078 1.048-1.001 1.93-2.158 1.957-1.151.025-2.1-.996-2.003-2.281.101-1.286 1.205-2.147 2.335-1.936m2.73-8.113c1.007.57 1.406 1.769.987 2.74-.421.962-1.569 1.491-2.669 1.145-1.098-.347-1.672-1.628-1.161-2.809.514-1.188 1.845-1.641 2.843-1.076m5.223-6.775c.766.86.758 2.132.049 2.904-.711.781-1.978.908-2.905.226-.922-.689-1.049-2.084-.18-3.033.876-.954 2.272-.956 3.036-.097m7.136-4.721c.446 1.063.02 2.259-.901 2.762-.922.507-2.162.225-2.811-.727-.656-.951-.327-2.318.801-2.931 1.14-.616 2.465-.168 2.911.896m8.28-2.144c.081 1.154-.714 2.141-1.756 2.331-1.033.163-2.106-.506-2.418-1.62-.305-1.106.449-2.289 1.722-2.5 1.274-.22 2.378.644 2.452 1.789m8.539.662c-.306 1.113-1.374 1.792-2.413 1.63-1.035-.174-1.837-1.153-1.771-2.308.064-1.143 1.163-2.02 2.436-1.811 1.272.206 2.041 1.377 1.748 2.489m7.845 3.393c-.642.956-1.879 1.253-2.804.762-.932-.504-1.361-1.693-.927-2.764.438-1.066 1.765-1.527 2.898-.914 1.139.603 1.484 1.964.833 2.916m6.329 5.76c-.923.7-2.189.577-2.909-.194-.709-.775-.738-2.043.025-2.909.757-.864 2.16-.874 3.037.073.879.938.763 2.339-.153 3.03m4.115 7.502c-1.103.359-2.255-.162-2.684-1.129-.425-.96-.032-2.167.965-2.743.999-.574 2.325-.123 2.849 1.05.528 1.18-.034 2.467-1.13 2.822m1.446 8.43c-1.156-.012-2.075-.887-2.169-1.931-.089-1.056.671-2.071 1.805-2.285 1.124-.215 2.24.641 2.35 1.923.115 1.283-.84 2.312-1.986 2.293" fill="#FFFFFE"/><path d="M92.246 85.718c-4.211.937-8.371 3.51-11.821 6.25a4.546 4.546 0 0 0-6.274 0c-3.452-2.74-7.611-5.313-11.82-6.25-2.342 4.341-3.076 7.938-2.35 14.253 4.322.562 8.869-.109 12.889-1.72-3.592 3.335-6.698 6.836-8.507 11.401a50.767 50.767 0 0 1 4.54-.592 58.934 58.934 0 0 1 2.397 3.501 208.601 208.601 0 0 1 5.95-12.703 172.072 172.072 0 0 1 6.025 12.703 59.415 59.415 0 0 1 2.397-3.501c1.509.127 3.026.326 4.539.592-1.808-4.565-4.914-8.07-8.509-11.401 4.022 1.611 8.572 2.282 12.891 1.72.727-6.315-.006-9.912-2.347-14.253" fill="#DA2D5F"/></svg>