<svg xmlns="http://www.w3.org/2000/svg" width="428.681" height="418.134" viewBox="0, 0, 428.681, 418.134"><path d="M410.15 391.4c0 14.766-91.815 26.734-205.075 26.734C91.815 418.134 0 406.166 0 391.4c0-14.769 91.815-26.74 205.075-26.74 113.26 0 205.075 11.971 205.075 26.74" fill="#D6D5D0"/><path d="M413.563 237.314c-1.91-33.967-29.129-83.283-83.844-68.031 0-81-90.465-74-110.15-41.118-19.686-32.882-110.15-39.882-110.15 41.118-54.715-15.252-81.934 34.064-83.844 68.031-1.91 33.969 18.234 82.594 70.65 77.969-8.48 51 88.375 82.384 123.344 23.192 34.971 59.192 131.824 27.808 123.344-23.192 52.418 4.625 72.56-44 70.65-77.969" fill="#FFFFFE"/><path d="M277.889 385.614c-22.926 0-43.314-8.171-58.32-22.933-15.005 14.762-35.394 22.933-58.319 22.933-26.349 0-52.029-10.989-67.02-28.678-6.798-8.022-11.122-17.164-12.766-26.718-18.089-1.715-33.966-9.366-46.273-22.385-19.906-21.058-25.756-50.669-24.593-71.36 1.073-19.09 8.597-39.561 20.124-54.766 14.801-19.523 35.751-30.275 58.991-30.275 2.01 0 4.043.08 6.096.236 3.614-21.79 13.63-35.284 22.308-43.174 13.094-11.906 31.16-18.463 50.87-18.463 19.197 0 37.612 6.157 50.582 16.235 12.97-10.078 31.385-16.235 50.582-16.235 19.708 0 37.774 6.557 50.87 18.466 8.678 7.89 18.693 21.382 22.308 43.171a80.441 80.441 0 0 1 6.095-.236c23.238 0 44.187 10.752 58.99 30.275 11.528 15.207 19.052 35.678 20.126 54.766 1.163 20.693-4.686 50.308-24.591 71.364-12.306 13.016-28.185 20.666-46.275 22.382-1.644 9.554-5.967 18.697-12.765 26.718-14.99 17.689-40.67 28.677-67.02 28.677zm-58.32-62.139a14.998 14.998 0 0 1 12.914 7.369c12.733 21.551 33.914 24.77 45.406 24.77 17.506 0 34.829-7.094 44.133-18.072 5.206-6.144 7.258-12.806 6.094-19.798a15 15 0 0 1 16.115-17.403c1.872.164 3.729.247 5.52.247h.002c13.114 0 24.013-4.495 32.395-13.36 13.375-14.147 17.216-35.277 16.438-49.071-1.324-23.554-17.452-56.725-49.162-56.725-4.927 0-10.203.774-15.677 2.299a15 15 0 0 1-19.028-14.448c0-44.452-31.168-49.252-44.568-49.252-18.336 0-33.115 8.16-37.712 15.838a15.001 15.001 0 0 1-25.74 0c-4.597-7.678-19.376-15.838-37.712-15.838-13.401 0-44.568 4.8-44.568 49.252a15 15 0 0 1-19.028 14.448c-5.474-1.525-10.75-2.299-15.678-2.299-31.71 0-47.837 33.171-49.162 56.725-.775 13.791 3.065 34.919 16.441 49.067 9.527 10.078 22.313 14.492 37.915 13.117a15.002 15.002 0 0 1 16.115 17.403c-1.163 6.991.888 13.651 6.095 19.797 9.304 10.979 26.628 18.073 44.133 18.073 11.492 0 32.672-3.219 45.405-24.77a14.998 14.998 0 0 1 12.914-7.369" fill="#3B3C3A"/><path d="M237.006 181.576c10.514-2.041 22.944-.841 32.33 3.545v-.008c0-46.73 42.989-76.389 76.323-76.389V76.512c-83.934 0-107.887 68.431-108.653 105.064" fill="#E46C79"/><path d="M269.33 195.119a9.97 9.97 0 0 1-4.227-.939c-4.927-2.301-11.22-3.569-17.72-3.569-2.946 0-5.796.264-8.471.782a10.003 10.003 0 0 1-11.904-10.026c.198-9.447 2.598-42.572 25.192-72.133 14.896-19.49 43.202-42.722 93.459-42.722 5.522 0 10 4.478 10 10v32.212c0 5.525-4.478 10-10 10-27.695 0-66.323 25.257-66.323 66.389 0 3.418-1.746 6.604-4.629 8.44a10.009 10.009 0 0 1-5.377 1.566zm-21.391-24.506c4.224.035 8.427.462 12.454 1.249 3.066-19.011 12.728-36.401 27.961-49.942 13.59-12.078 30.691-20.108 47.305-22.471V86.884c-60.884 4.617-83.122 51.335-87.72 83.729" fill="#3B3C3A"/><path d="M201.651 173.768c7.08 2.898 13.215 7.741 17.055 15.028l2.179.296c3.856-3.757 9.623-6.253 16.121-7.516.766-36.633 24.719-105.064 108.653-105.064V46.7c-101.922 1.08-141.834 68.177-144.008 127.068" fill="#F6D729"/><path d="M220.886 199.092a9.9 9.9 0 0 1-1.35-.092l-2.18-.296a10.005 10.005 0 0 1-7.497-5.247c-2.464-4.674-6.499-8.186-11.995-10.434a9.998 9.998 0 0 1-6.206-9.624c1.296-35.1 14.553-67.674 37.331-91.721 27.382-28.908 67.688-44.459 116.563-44.977l.107-.001a10 10 0 0 1 10 10v29.812c0 5.523-4.478 10-10 10-76.461 0-97.966 62.32-98.655 95.273a9.998 9.998 0 0 1-8.091 9.608c-4.88.949-8.804 2.674-11.049 4.862a10 10 0 0 1-6.978 2.837zm-8.851-31.27c3.813 2.305 7.176 5.103 10.02 8.334a43.694 43.694 0 0 1 5.407-2.33c1.333-14.091 6.342-40.524 24.738-64.592 13.878-18.158 39.396-39.562 83.459-42.404v-9.785c-84.716 4.969-119.28 60.678-123.624 110.777" fill="#3B3C3A"/><path d="M165.098 173.101c10.748-3.594 24.926-4.093 36.553.667 2.174-58.891 42.086-125.989 144.008-127.069v-31.7c-146.666 0-180.561 107.509-180.561 158.102" fill="#70B7D3"/><path d="M201.65 183.768a9.99 9.99 0 0 1-3.786-.746c-4.35-1.781-9.54-2.721-15.012-2.721-5.072 0-10.116.79-14.583 2.284a10 10 0 0 1-13.171-9.484c0-58.143 39.827-168.102 190.561-168.102 5.522 0 10 4.478 10 10v31.7c0 5.482-4.413 9.942-9.894 9.999-95.833 1.016-132.144 63.899-134.121 117.438a9.996 9.996 0 0 1-4.574 8.035 9.998 9.998 0 0 1-5.42 1.597zm-18.798-23.467c3.316 0 6.591.248 9.767.731 3.611-30.338 16.293-58.158 36.37-79.355 25.512-26.931 62.242-42.273 106.67-44.661V25.173c-56.114 1.982-98.976 20.859-127.499 56.187-20.544 25.444-29.943 55.719-32.39 79.309a68.27 68.27 0 0 1 7.082-.368" fill="#3B3C3A"/><path d="M220.886 204.092c-.673 0-1.349-.044-2.025-.136l-2.18-.298a15 15 0 0 1-11.246-7.869c-4.987-9.467-17.448-10.489-22.574-10.489-4.479 0-9.098.72-13.006 2.026a14.998 14.998 0 0 1-19.757-14.224c0-13.988 2.784-63.075 38.61-107.446 16.144-19.996 36.545-35.712 60.632-46.712C276.868 6.374 309.274 0 345.659 0c8.284 0 15 6.716 15 15v93.724c0 8.284-6.716 15-15 15-25.607 0-61.323 23.355-61.323 61.389a15.005 15.005 0 0 1-21.349 13.598c-4.221-1.973-9.913-3.104-15.616-3.104-8.023 0-13.928 2.194-16.019 4.231a15 15 0 0 1-10.466 4.254zM182.861 155.3c16.214 0 30.446 5.376 40.313 14.84 7.021-2.942 15.317-4.533 24.197-4.533 3.025 0 6.048.19 9.018.559 4.02-18.228 13.847-34.831 28.643-47.983 13.139-11.677 29.435-19.767 45.627-22.951V30.405c-52.066 2.876-91.917 21.038-118.61 54.097-18.209 22.552-27.357 49.012-30.573 70.811.462-.009.923-.013 1.385-.013" fill="#3B3C3A"/><path d="M152.993 179.842c13.334-12.667 54.486-16.001 66.576 10.666 12.758-15.333 54.758-12.758 62.758 6.955l-129.334-17.621" fill="#FFFFFE"/><path d="M282.332 212.468c-5.926 0-11.538-3.535-13.905-9.365-1.022-2.522-6.284-5.734-14.355-6.989-11.202-1.741-20.695 1.253-22.973 3.989a14.998 14.998 0 0 1-25.191-3.4c-2.535-5.591-7.756-9.194-15.517-10.709-11.353-2.216-23.419 1.258-27.067 4.724-6.006 5.704-15.5 5.462-21.207-.544-5.705-6.008-5.461-15.502.545-21.207 11.752-11.162 33.738-16.268 53.475-12.416 10.856 2.118 20.078 6.775 27.074 13.527 11.467-4.766 24.999-5.235 35.469-3.607 18.489 2.873 32.173 12.115 37.546 25.352 3.115 7.676-.583 16.425-8.259 19.54a14.97 14.97 0 0 1-5.635 1.105" fill="#3B3C3A"/></svg>