<svg xmlns="http://www.w3.org/2000/svg" width="414.828" height="446.138" viewBox="0, 0, 414.828, 446.138"><path d="M410.15 419.403c0 14.765-91.816 26.735-205.075 26.735C91.815 446.138 0 434.168 0 419.403c0-14.77 91.815-26.741 205.075-26.741 113.259 0 205.075 11.971 205.075 26.741" fill="#D6D5D0"/><path d="M251.617 49.482C168.052-20.925 90.156 31.784 90.156 72.47c-46.34 8.934-70.082 34.414-65.502 78.69 5.137 49.665 72.152 63.617 72.152 63.617-19.5 26.73-32.814 79.969-32.814 110.399 0 30.431 20.216 43.657 48.799 43.657h235c31 0 52.037-8.982 52.037-62.631 0-109.394-64.647-186.314-148.211-256.72" fill="#C2D54A"/><path d="M347.791 383.833h-235c-18.49 0-33.515-4.657-44.659-13.841-8.731-7.198-19.14-20.815-19.14-44.816 0-28.024 9.771-71.079 25.19-101.718-23.496-9.01-60.186-29.54-64.449-70.755-2.685-25.956 3.098-47.456 17.185-63.9C38.339 75.471 55.055 65.859 76.705 60.15c3.434-13.746 12.466-27.11 25.917-37.938C120.415 7.888 143.619 0 167.959 0c31.539 0 63.808 13.144 93.323 38.011 75.926 63.971 153.546 145.861 153.546 268.191 0 29.767-6.004 49.514-18.895 62.147-14.004 13.725-33.084 15.484-48.142 15.484zM167.959 30c-37.754 0-62.803 25.562-62.803 42.47a15.002 15.002 0 0 1-12.16 14.729C72.966 91.06 58.4 98.166 49.701 108.321c-8.645 10.091-11.957 23.599-10.127 41.296 3.934 38.04 59.76 50.361 60.323 50.481a15.032 15.032 0 0 1 10.902 9.316 15.003 15.003 0 0 1-1.875 14.203c-17.131 23.484-29.932 72.987-29.932 101.559 0 7.837 0 28.657 33.799 28.657h235c14.084 0 22.202-2.067 27.144-6.91 6.565-6.433 9.893-20.134 9.893-40.721 0-110.035-72.225-185.723-142.876-245.249C217.917 40.703 192.332 30 167.959 30" fill="#3B3C3A"/><path d="M203.167 86.659c0 19.76-16.019 35.78-35.779 35.78-19.76 0-35.779-16.02-35.779-35.78 0-19.759 16.019-35.777 35.779-35.777 19.76 0 35.779 16.018 35.779 35.777" fill="#FFFFFE"/><path d="M167.388 132.439c-25.243 0-45.779-20.537-45.779-45.78 0-25.241 20.536-45.777 45.779-45.777 25.243 0 45.779 20.536 45.779 45.777 0 25.243-20.536 45.78-45.779 45.78zm0-71.557c-14.215 0-25.779 11.564-25.779 25.777 0 14.215 11.564 25.78 25.779 25.78s25.779-11.565 25.779-25.78c0-14.213-11.564-25.777-25.779-25.777M58.906 209.314c-3.945 0-7.671-.074-11.105-.222-5.517-.239-9.797-4.906-9.557-10.423.237-5.518 4.902-9.796 10.423-9.559 32.499 1.408 80.818-4.264 90.698-10.646 4.641-2.995 10.831-1.664 13.826 2.975 2.996 4.639 1.664 10.829-2.975 13.826-14.378 9.287-59.683 14.049-91.31 14.049" fill="#3B3C3A"/><path d="M166.648 209.658c-10.606.001-20.94-5.987-27.893-16.473-8.667-13.071-9.573-29.144-2.255-39.994 3.088-4.579 9.303-5.788 13.882-2.699 4.578 3.088 5.788 9.303 2.7 13.882-2.756 4.086-1.772 11.555 2.342 17.758 2.803 4.228 7.637 8.382 12.796 7.373 5.422-1.062 10.675 2.469 11.738 7.889 1.062 5.42-2.47 10.674-7.89 11.737a28.12 28.12 0 0 1-5.42.527m3.322-122.999c0 5.799-4.701 10.5-10.5 10.5s-10.5-4.701-10.5-10.5c0-5.798 4.701-10.5 10.5-10.5s10.5 4.702 10.5 10.5m76.164 292.174c-18.144 0-32.546-3.067-42.804-9.116-10.67-6.292-16.546-15.697-16.546-26.483 0-12.09 7.474-24.127 20.506-33.027 8.786-6.001 19.556-10.161 31.305-12.198-8.173-15.208-12.327-29.767-12.375-43.438-.056-16.059 5.66-30.719 16.531-42.394 10.784-11.581 26.16-19.788 43.296-23.109 16.666-3.232 32.75-1.284 44.121 5.344 4.773 2.78 6.387 8.903 3.607 13.675-2.781 4.771-8.903 6.387-13.675 3.605-14.557-8.48-45.774-4.075-62.712 14.114-16.939 18.193-14.726 44.172 6.401 75.131a10 10 0 0 1-8.26 15.637c-29.756 0-48.745 15.79-48.745 26.66 0 3.518 2.256 6.632 6.705 9.255 4.908 2.894 14.555 6.344 32.645 6.344 5.523 0 10 4.477 10 10s-4.477 10-10 10m-111.702-.842c-.38 0-.762-.022-1.148-.066-5.488-.628-9.427-5.584-8.8-11.072 4.751-41.548 17.371-96.573 28.133-122.661 2.104-5.105 7.952-7.539 13.057-5.431 5.106 2.106 7.538 7.952 5.431 13.058-10.002 24.246-22.252 77.966-26.75 117.307-.584 5.1-4.909 8.865-9.923 8.865" fill="#3B3C3A"/><path d="M353.162 364.932c0 23.415-18.981 42.397-42.397 42.397-23.416 0-42.398-18.982-42.398-42.397s18.982-42.398 42.398-42.398c23.416 0 42.397 18.983 42.397 42.398" fill="#FFFFFE"/><path d="M310.765 422.329c-31.649 0-57.398-25.748-57.398-57.397 0-31.649 25.749-57.398 57.398-57.398 31.649 0 57.397 25.749 57.397 57.398 0 31.649-25.748 57.397-57.397 57.397zm0-84.795c-15.107 0-27.398 12.291-27.398 27.398s12.291 27.397 27.398 27.397 27.397-12.29 27.397-27.397-12.29-27.398-27.397-27.398" fill="#3B3C3A"/><path d="M326.013 364.932c0 8.422-6.828 15.248-15.248 15.248-8.422 0-15.248-6.826-15.248-15.248s6.826-15.248 15.248-15.248c8.42 0 15.248 6.826 15.248 15.248" fill="#3B3C3A"/><path d="M185.939 364.932c0 23.415-18.981 42.397-42.396 42.397-23.417 0-42.399-18.982-42.399-42.397s18.982-42.398 42.399-42.398c23.415 0 42.396 18.983 42.396 42.398" fill="#FFFFFE"/><path d="M143.543 422.329c-31.65 0-57.399-25.748-57.399-57.397 0-31.649 25.749-57.398 57.399-57.398 31.648 0 57.396 25.749 57.396 57.398 0 31.649-25.748 57.397-57.396 57.397zm0-84.795c-15.108 0-27.399 12.291-27.399 27.398s12.291 27.397 27.399 27.397c15.106 0 27.396-12.29 27.396-27.397s-12.29-27.398-27.396-27.398" fill="#3B3C3A"/><path d="M158.791 364.932c0 8.422-6.828 15.248-15.248 15.248-8.422 0-15.249-6.826-15.249-15.248s6.827-15.248 15.249-15.248c8.42 0 15.248 6.826 15.248 15.248" fill="#3B3C3A"/></svg>