<svg xmlns="http://www.w3.org/2000/svg" width="410.543" height="398.545" viewBox="0, 0, 410.543, 398.545"><path d="M410.15 371.81c0 14.766-91.814 26.734-205.074 26.734C91.816 398.544 0 386.576 0 371.81c0-14.769 91.816-26.74 205.076-26.74 113.26 0 205.074 11.971 205.074 26.74" fill="#D6D5D0"/><path d="M72.569 238.017l-42.825 78.836h365.799v-78.836H72.569" fill="#F6D729"/><path d="M395.543 331.853H29.744a15 15 0 0 1-13.181-22.16l42.825-78.836a15 15 0 0 1 13.181-7.84h322.974c8.285 0 15 6.715 15 15v78.836c0 8.284-6.715 15-15 15zm-340.581-30h325.581v-48.836H81.491l-26.529 48.836" fill="#3B3C3A"/><path d="M261.172 309.605c0 23.416-18.981 42.399-42.397 42.399-23.416 0-42.397-18.983-42.397-42.399 0-23.414 18.981-42.396 42.397-42.396 23.416 0 42.397 18.982 42.397 42.396" fill="#FFFFFE"/><path d="M218.775 367.004c-31.649 0-57.397-25.75-57.397-57.399 0-31.648 25.748-57.396 57.397-57.396 31.649 0 57.397 25.748 57.397 57.396 0 31.649-25.748 57.399-57.397 57.399zm0-84.795c-15.107 0-27.397 12.289-27.397 27.396 0 15.108 12.29 27.399 27.397 27.399s27.397-12.291 27.397-27.399c0-15.107-12.29-27.396-27.397-27.396" fill="#3B3C3A"/><path d="M234.023 309.605c0 8.422-6.828 15.248-15.248 15.248-8.422 0-15.248-6.826-15.248-15.248 0-8.421 6.826-15.248 15.248-15.248 8.42 0 15.248 6.827 15.248 15.248" fill="#3B3C3A"/><path d="M176.378 309.605c0 23.416-18.982 42.399-42.398 42.399-23.416 0-42.397-18.983-42.397-42.399 0-23.414 18.981-42.396 42.397-42.396 23.416 0 42.398 18.982 42.398 42.396" fill="#FFFFFE"/><path d="M133.98 367.004c-31.649 0-57.397-25.75-57.397-57.399 0-31.648 25.748-57.396 57.397-57.396 31.65 0 57.398 25.748 57.398 57.396 0 31.649-25.748 57.399-57.398 57.399zm0-84.795c-15.107 0-27.397 12.289-27.397 27.396 0 15.108 12.29 27.399 27.397 27.399 15.108 0 27.398-12.291 27.398-27.399 0-15.107-12.29-27.396-27.398-27.396" fill="#3B3C3A"/><path d="M149.228 309.605c0 8.422-6.828 15.248-15.248 15.248-8.422 0-15.248-6.826-15.248-15.248 0-8.421 6.826-15.248 15.248-15.248 8.42 0 15.248 6.827 15.248 15.248" fill="#3B3C3A"/><path d="M63.569 238.017h331.974V39.42c0-35.229-143.166-29.774-143.166 0v89.916h-39.119v-47.85c0-11.322-46.649-14.908-46.649 0v47.85h-39V35.191c0-16-47-15-47 0v94.145H60.295c-41.29 0-49.371 108.681 3.274 108.681" fill="#E46C79"/><path d="M395.543 253.017H63.569c-17.054 0-31.555-8.289-40.831-23.339-7.129-11.565-11.055-27.164-11.055-43.924 0-16.824 3.792-33.09 10.678-45.797 8.953-16.523 22.424-25.621 37.934-25.621h5.314V35.191c0-15.927 15.7-26.629 39.068-26.629 22.688 0 37.932 10.702 37.932 26.629v79.145h9v-32.85c0-12.029 9.449-24.883 35.97-24.883 8.03 0 16.01 1.252 22.468 3.528 16.437 5.787 18.211 16.861 18.211 21.355v32.85h9.119V39.42c0-10.178 6.053-24.067 34.894-32.432C287.581 2.547 308.053 0 328.439 0c19.565 0 37.661 2.342 50.959 6.594 27.1 8.662 31.145 24.285 31.145 32.826v198.597c0 8.284-6.715 15-15 15zM60.295 144.336c-9.567 0-18.612 20.127-18.612 41.418 0 11.113 2.404 21.387 6.593 28.183 5.017 8.139 11.131 9.08 15.293 9.08h316.974V40.221C377.178 36.449 359.444 30 328.439 30c-32.675 0-55.615 6.992-61.062 11.473v87.863c0 8.283-6.716 15-15 15h-39.119c-8.284 0-15-6.717-15-15V87.869c-2.577-.664-6.328-1.266-10.679-1.266-2.507 0-4.493.206-5.97.461v42.272c0 8.283-6.716 15-15 15h-39c-8.284 0-15-6.717-15-15v-89.83c-1.777-.488-4.477-.944-7.932-.944-3.946 0-7.068.588-9.068 1.188v89.586c0 8.283-6.716 15-15 15H60.295" fill="#3B3C3A"/><path d="M395.543 288.605c0 35.014-28.382 63.399-63.396 63.399-35.015 0-63.398-28.385-63.398-63.399 0-35.011 28.383-63.396 63.398-63.396 35.014 0 63.396 28.385 63.396 63.396" fill="#FFFFFE"/><path d="M332.147 367.004c-43.229 0-78.398-35.17-78.398-78.399 0-43.228 35.169-78.396 78.398-78.396 43.228 0 78.396 35.168 78.396 78.396 0 43.229-35.168 78.399-78.396 78.399zm0-126.795c-26.686 0-48.398 21.711-48.398 48.396 0 26.686 21.712 48.399 48.398 48.399 26.686 0 48.396-21.713 48.396-48.399 0-26.685-21.71-48.396-48.396-48.396" fill="#3B3C3A"/><path d="M354.948 288.605c0 12.594-10.211 22.801-22.801 22.801-12.593 0-22.8-10.207-22.8-22.801 0-12.593 10.207-22.8 22.8-22.8 12.59 0 22.801 10.207 22.801 22.8" fill="#3B3C3A"/><path d="M298.609 63.853h54v68h-54z" fill="#FFFFFE"/><path d="M352.609 146.853h-54c-8.284 0-15-6.716-15-15v-68c0-8.285 6.716-15 15-15h54c8.284 0 15 6.715 15 15v68c0 8.284-6.716 15-15 15zm-39-30h24v-38h-24z" fill="#3B3C3A"/></svg>