<svg xmlns="http://www.w3.org/2000/svg" width="410.15" height="447.183" viewBox="0, 0, 410.15, 447.183"><path d="M410.15 420.448c0 14.765-91.816 26.735-205.075 26.735C91.815 447.183 0 435.213 0 420.448c0-14.77 91.815-26.741 205.075-26.741 113.259 0 205.075 11.971 205.075 26.741" fill="#D6D5D0"/><path d="M360.569 92.999c-17-49.999-77-74.999-141-74.999s-124 25-141 74.999c-17 50.001-20 152-9 232.001 11 80 94 83 150 83s139-3 150-83c11-80.001 8-182-9-232.001" fill="#C2D54A"/><path d="M219.569 423c-30.673 0-66-.961-97.069-12.428-39.36-14.528-62.167-42.631-67.792-83.529-11.747-85.434-7.594-188.126 9.66-238.872 9.317-27.404 30.201-49.83 60.394-64.851C151.483 10.026 184.266 3 219.569 3c35.303 0 68.086 7.026 94.806 20.32 30.194 15.021 51.078 37.447 60.395 64.851 17.254 50.746 21.406 153.438 9.659 238.872-5.624 40.898-28.431 69.001-67.791 83.529C285.569 422.039 250.242 423 219.569 423zm0-390C155.931 33 106.161 58.446 92.77 97.828c-15.689 46.148-19.353 145.036-8.341 225.128C93.316 387.587 158.845 393 219.569 393c60.723 0 126.253-5.413 135.139-70.044 11.013-80.092 7.349-178.98-8.34-225.128C332.977 58.446 283.207 33 219.569 33" fill="#3B3C3A"/><path d="M220.071 15c-67.049 0-116.666 35.179-116.666 99.564 0 64.385 53.638 97.574 116.666 97.574 63.027 0 116.668-33.189 116.668-97.574C336.739 50.179 287.122 15 220.071 15" fill="#FFFFFE"/><path d="M220.071 227.138c-35.447 0-67.801-9.853-91.104-27.745-26.536-20.375-40.562-49.708-40.562-84.829 0-35.447 13.398-65.041 38.746-85.581C150.55 10.022 182.682 0 220.071 0s69.521 10.022 92.922 28.983c25.347 20.54 38.746 50.134 38.746 85.581 0 35.12-14.027 64.454-40.564 84.829-23.302 17.892-55.657 27.745-91.104 27.745zm0-197.138c-49.149 0-101.666 22.215-101.666 84.564 0 60.948 54.766 82.574 101.666 82.574s101.668-21.626 101.668-82.574C321.739 52.215 269.22 30 220.071 30" fill="#3B3C3A"/><path d="M170.399 97.506c5.494 5.435 18.494 5.435 24 0h-24" fill="#FFFFFE"/><path d="M182.395 111.605c-7.16 0-14.318-2.33-19.028-6.989-3.927-3.884-3.961-10.216-.077-14.142 3.882-3.927 10.214-3.96 14.14-.078 1.677 1.591 8.275 1.586 9.945-.008 3.93-3.879 10.262-3.838 14.141.093 3.88 3.931 3.838 10.263-.093 14.142-4.715 4.654-11.872 6.982-19.028 6.982" fill="#3B3C3A"/><path d="M247.399 97.506c5.494 5.435 18.494 5.435 24 0h-24" fill="#FFFFFE"/><path d="M259.395 111.605c-7.16 0-14.318-2.33-19.028-6.989-3.927-3.884-3.961-10.216-.077-14.142 3.883-3.927 10.215-3.96 14.14-.078 1.678 1.591 8.276 1.586 9.945-.008 3.93-3.879 10.262-3.838 14.141.093 3.88 3.931 3.838 10.263-.093 14.142-4.715 4.654-11.872 6.982-19.028 6.982" fill="#3B3C3A"/><path d="M201.565 133.191c6.578 8.75 30.328 10 36.668 0h-36.668" fill="#FFFFFE"/><path d="M220.871 150.227c-9.13 0-21.142-2.837-27.299-11.027-3.304-4.395-2.403-10.584 1.971-13.916 4.374-3.331 10.656-2.457 14.014 1.897.934 1.211 6.011 3.312 12.363 3.022 5.004-.23 7.518-1.815 7.868-2.367 2.955-4.664 9.133-6.049 13.799-3.091 4.664 2.957 6.049 9.136 3.091 13.8-4.417 6.969-13.208 11.214-24.117 11.649-.551.022-1.115.033-1.69.033" fill="#3B3C3A"/><path d="M143.711 191.496C168.256 212.264 321.247 268.999 369.569 325L143.711 191.496" fill="#FFFFFE"/><path d="M369.576 340a14.967 14.967 0 0 1-11.364-5.201c-29.703-34.423-104.883-70.696-159.779-97.182-34.827-16.804-54.99-26.7-64.411-34.671-6.324-5.351-7.112-14.815-1.762-21.139 5.351-6.324 14.815-7.114 21.141-1.762 6.97 5.897 31.791 17.873 58.069 30.552 57.262 27.628 135.685 65.466 169.455 104.603 5.412 6.272 4.715 15.744-1.556 21.156a14.947 14.947 0 0 1-9.793 3.644M185.208 51.616a9.958 9.958 0 0 1-6.549-2.447c-4.172-3.619-4.62-9.935-1.001-14.106l11.906-13.724c3.621-4.172 9.936-4.618 14.106-1.001 4.172 3.62 4.621 9.935 1.001 14.107l-11.906 13.724a9.979 9.979 0 0 1-7.557 3.447m32.5 0a9.958 9.958 0 0 1-6.549-2.447c-4.172-3.619-4.62-9.935-1.001-14.106l11.906-13.724c3.621-4.172 9.936-4.618 14.106-1.001 4.172 3.62 4.621 9.935 1.001 14.107l-11.906 13.724a9.979 9.979 0 0 1-7.557 3.447m32.5 0a9.958 9.958 0 0 1-6.549-2.447c-4.172-3.619-4.62-9.935-1.001-14.106l11.906-13.724c3.621-4.172 9.936-4.618 14.106-1.001 4.172 3.62 4.621 9.935 1.001 14.107l-11.906 13.724a9.979 9.979 0 0 1-7.557 3.447" fill="#3B3C3A"/></svg>