<svg xmlns="http://www.w3.org/2000/svg" width="422.527" height="419.964" viewBox="0, 0, 422.527, 419.964"><path d="M410.3 393.228c0 14.766-91.814 26.736-205.074 26.736C91.966 419.964.15 407.994.15 393.228c0-14.769 91.816-26.74 205.076-26.74 113.26 0 205.074 11.971 205.074 26.74" fill="#D6D5D0"/><path d="M44.376 216.986s.3 53.019 16.033 101.311c15.734 48.292 89.471 62.023 153.446 62.023 63.974 0 137.712-13.731 153.445-62.023 15.733-48.292 16.033-101.311 16.033-101.311H44.376" fill="#F6D729"/><path d="M213.855 395.32c-26.713 0-65.669-2.372-99.558-13.672-36.495-12.17-59.424-31.921-68.149-58.705-16.272-49.941-16.759-103.612-16.772-105.872a15.006 15.006 0 0 1 4.363-10.662 15.003 15.003 0 0 1 10.637-4.423h338.957a15.001 15.001 0 0 1 15 15.085c-.012 2.26-.5 55.931-16.771 105.872-8.726 26.784-31.655 46.535-68.15 58.705-33.888 11.3-72.844 13.672-99.557 13.672zM60.048 231.986c1.238 18.558 4.743 51.337 14.623 81.664 10.541 32.354 62.572 51.67 139.184 51.67 76.611 0 128.642-19.316 139.183-51.67 9.88-30.327 13.384-63.104 14.623-81.664H60.048" fill="#3B3C3A"/><path d="M305.804 115.513v55.104s34.051 0 34.051-29.858c0-29.062-34.051-25.246-34.051-25.246" fill="#FFFFFE"/><path d="M305.804 179.457a8.84 8.84 0 0 1-8.84-8.84v-55.104a8.84 8.84 0 0 1 7.856-8.785c.327-.037 2.098-.22 4.79-.22 24.108 0 39.085 13.124 39.085 34.251 0 15.758-7.926 27.912-22.316 34.221-9.923 4.351-19.514 4.477-20.575 4.477zm8.84-55.005v36.06c7.315-1.966 16.371-6.98 16.371-19.753 0-9.611-5.502-15.081-16.371-16.307" fill="#3B3C3A"/><path d="M224.337 66.063c-51.091 0-88.899 29.384-88.899 83.162 0 53.779 40.873 81.501 88.899 81.501 48.027 0 88.9-27.722 88.9-81.501 0-53.778-37.808-83.162-88.9-83.162" fill="#FFFFFE"/><path d="M224.337 245.726c-28.036 0-53.648-8.561-72.118-24.107-20.792-17.499-31.781-42.532-31.781-72.394 0-30.108 10.487-55.338 30.329-72.962 18.56-16.486 44-25.2 73.57-25.2 29.57 0 55.011 8.714 73.57 25.2 19.842 17.624 30.33 42.854 30.33 72.962 0 29.862-10.99 54.895-31.782 72.394-18.469 15.546-44.082 24.107-72.118 24.107zm0-164.663c-46.273 0-73.899 25.481-73.899 68.162 0 49.085 39.809 66.501 73.899 66.501s73.9-17.416 73.9-66.501c0-42.681-27.626-68.162-73.9-68.162" fill="#3B3C3A"/><path d="M200.877 99.398a6.951 6.951 0 1 1-13.901 0 6.951 6.951 0 0 1 13.901 0m45.17.163a6.951 6.951 0 1 1-13.903.001 6.951 6.951 0 0 1 13.903-.001m-34.655 20.781h-29.538s2.067 19.21 29.538 19.21c27.47 0 29.536-19.21 29.536-19.21h-29.536" fill="#3B3C3A"/><path d="M393.662 241.762H31.441c-23.25 0-20.55-50.447 0-50.447h362.221c18.525 0 18.447 50.447 0 50.447" fill="#FFFFFE"/><path d="M393.662 256.762H31.441c-10.449 0-19.669-5.364-25.297-14.716C1.066 233.611 0 224.151 0 217.701c0-23.98 13.223-41.386 31.441-41.386h362.221c10.114 0 18.816 5.932 23.876 16.276 3.217 6.576 4.989 15.066 4.989 23.907 0 23.707-11.87 40.264-28.865 40.264zM31.956 226.761l358.867.001c.784-1.885 1.698-5.418 1.704-10.223.005-4.807-.903-8.341-1.683-10.224H32.723c-1.074 1.551-2.617 5.541-2.718 10.849-.098 5.157 1.197 8.45 1.951 9.597" fill="#3B3C3A"/><path d="M389.421 147.987c-5.928 3.237-153.467 83.808-161.547 88.219-10.369 5.663-33.342-39.27-24.177-44.275l161.546-88.218c13.853-7.566 37.997 36.729 24.178 44.274" fill="#FFFFFE"/><path d="M225.913 251.699c-21.807 0-35.681-35.861-37.947-44.738-4.587-17.969 3.383-25.378 8.541-28.195l161.548-88.219a21.883 21.883 0 0 1 10.602-2.7c19.15 0 34.266 24.273 38.453 40.678 5.589 21.904-6.624 30.511-10.5 32.628l-161.548 88.219a19.146 19.146 0 0 1-9.149 2.327zm-8.396-50.224c1.828 5.59 6.005 13.528 9.525 18.095l151.324-82.637c-1.048-5.365-5.848-14.166-9.791-17.949l-151.058 82.491" fill="#3B3C3A"/><path d="M260.627 215.471c0 25.832-20.94 46.772-46.772 46.772-25.832 0-46.773-20.94-46.773-46.772 0-25.832 20.941-46.773 46.773-46.773 25.832 0 46.772 20.941 46.772 46.773" fill="#FFFFFE"/><path d="M213.855 277.243c-34.062 0-61.773-27.711-61.773-61.772 0-34.062 27.711-61.773 61.773-61.773 34.061 0 61.772 27.711 61.772 61.773 0 34.061-27.711 61.772-61.772 61.772zm0-93.545c-17.52 0-31.773 14.253-31.773 31.773 0 17.519 14.253 31.772 31.773 31.772 17.519 0 31.772-14.253 31.772-31.772 0-17.52-14.253-31.773-31.772-31.773m-44.982-130.78c-7.253 0-13.631-5.272-14.798-12.662l-3.618-22.913c-1.292-8.184 4.294-15.865 12.477-17.157 8.181-1.293 15.863 4.294 17.156 12.477l3.618 22.913c1.292 8.183-4.294 15.864-12.476 17.156-.792.125-1.581.186-2.359.186m-33.676 19.13c-3.79 0-7.581-1.427-10.499-4.288l-16.566-16.239c-5.916-5.799-6.011-15.296-.212-21.212 5.8-5.917 15.297-6.01 21.212-.212l16.566 16.239c5.915 5.799 6.01 15.296.211 21.212a14.953 14.953 0 0 1-10.712 4.5m-21.757 32.091c-1.632 0-3.291-.268-4.919-.833l-21.914-7.604c-7.826-2.716-11.969-11.262-9.253-19.088 2.715-7.828 11.264-11.969 19.089-9.254l21.914 7.605c7.826 2.715 11.968 11.262 9.253 19.088-2.151 6.199-7.959 10.086-14.17 10.086" fill="#3B3C3A"/></svg>