<svg xmlns="http://www.w3.org/2000/svg" width="420.154" height="437.155" viewBox="0, 0, 420.154, 437.155"><path d="M416.371 410.42c0 14.766-91.816 26.735-205.075 26.735-113.26 0-205.076-11.969-205.076-26.735 0-14.77 91.816-26.74 205.076-26.74 113.259 0 205.075 11.97 205.075 26.74" fill="#D6D5D0"/><path d="M265.417 307.89L91.468 133.942l42.426-42.427 173.948 173.948-42.425 42.427" fill="#FFFFFE"/><path d="M265.417 322.89a15 15 0 0 1-10.608-4.394L80.861 144.548c-5.858-5.858-5.858-15.355 0-21.213l42.427-42.427a14.997 14.997 0 0 1 21.213 0l173.947 173.949c5.858 5.858 5.858 15.355 0 21.212l-42.426 42.427a14.997 14.997 0 0 1-10.605 4.394zM112.68 133.942l152.737 152.734 21.212-21.213-152.735-152.735-21.214 21.214" fill="#3B3C3A"/><path d="M117.16 16.769L16.721 117.208a84.482 84.482 0 0 0 17.745 36.967l119.66-119.662a84.46 84.46 0 0 0-36.966-17.744" fill="#F6D729"/><path d="M34.467 164.175a10.001 10.001 0 0 1-7.7-3.617 94.986 94.986 0 0 1-19.84-41.334 10 10 0 0 1 2.723-9.087L110.089 9.698a10.01 10.01 0 0 1 9.087-2.724 94.967 94.967 0 0 1 41.334 19.841 10 10 0 0 1 .687 14.769L41.537 161.246a10 10 0 0 1-7.07 2.929zm-6.706-43.864a75.078 75.078 0 0 0 7.985 18.441L138.704 35.793a75.09 75.09 0 0 0-18.442-7.985l-92.501 92.503" fill="#3B3C3A"/><path d="M39.848 39.896c-20.999 21-28.695 50.25-23.127 77.312L117.16 16.769C90.096 11.2 60.846 18.898 39.848 39.896" fill="#E46C79"/><path d="M16.72 127.209a10.003 10.003 0 0 1-9.793-7.986c-6.47-31.442 3.194-63.741 25.85-86.398C50.71 14.892 74.559 5.016 99.932 5.016c6.454 0 12.929.659 19.244 1.958a10 10 0 0 1 5.055 16.866L23.793 124.279a10.003 10.003 0 0 1-7.073 2.93zM94.585 25.202c-18.016 1.261-34.778 8.877-47.665 21.765C33.972 59.914 26.4 76.855 25.144 94.643l69.441-69.441" fill="#3B3C3A"/><path d="M160.056 39.896a85.45 85.45 0 0 0-5.93-5.383L34.466 154.175a86.151 86.151 0 0 0 5.382 5.93c33.195 33.194 87.014 33.194 120.208 0 33.196-33.196 33.196-87.014 0-120.209" fill="#C2D54A"/><path d="M99.952 195c-25.375 0-49.232-9.881-67.175-27.824a96.752 96.752 0 0 1-6.011-6.62 10 10 0 0 1 .628-13.452l119.66-119.662a10 10 0 0 1 13.452-.63 96.446 96.446 0 0 1 6.62 6.011c37.042 37.042 37.042 97.312.002 134.353C149.184 185.119 125.328 195 99.952 195zm-51.6-40.57c13.99 13.28 32.235 20.57 51.6 20.57 20.034 0 38.868-7.801 53.033-21.967 28.77-28.769 29.235-75.289 1.397-104.633L48.352 154.43" fill="#3B3C3A"/><path d="M99.952 200.001c-26.711 0-51.822-10.402-70.71-29.29-38.989-38.99-38.989-102.432 0-141.422C48.13 10.402 73.242 0 99.953 0s51.823 10.402 70.71 29.289c18.888 18.888 29.29 44 29.29 70.711s-10.402 51.823-29.29 70.711c-18.888 18.888-43.999 29.29-70.711 29.29zM99.953 30c-18.698 0-36.276 7.281-49.498 20.503-27.292 27.293-27.292 71.702 0 98.995 13.222 13.221 30.8 20.503 49.497 20.503 18.698 0 36.276-7.282 49.498-20.503 13.222-13.222 20.503-30.8 20.503-49.498 0-18.698-7.281-36.276-20.503-49.498C136.229 37.281 118.65 30 99.953 30" fill="#3B3C3A"/><path d="M302.995 403.48l100.438-100.44a84.475 84.475 0 0 0-17.744-36.967l-119.66 119.663a84.472 84.472 0 0 0 36.966 17.744" fill="#F6D729"/><path d="M302.995 413.48a10.06 10.06 0 0 1-2.016-.205 94.978 94.978 0 0 1-41.334-19.841 10 10 0 0 1-.687-14.768l119.66-119.663a9.994 9.994 0 0 1 14.769.688 94.963 94.963 0 0 1 19.841 41.333 10 10 0 0 1-2.723 9.087L310.066 410.55a9.998 9.998 0 0 1-7.071 2.93zm-21.544-29.024a75.059 75.059 0 0 0 18.441 7.984l92.501-92.502a75.066 75.066 0 0 0-7.984-18.442l-102.958 102.96" fill="#3B3C3A"/><path d="M380.306 380.353c20.999-21 28.696-50.249 23.127-77.313L302.995 403.48c27.063 5.568 56.313-2.129 77.311-23.127" fill="#E46C79"/><path d="M320.226 415.232h-.004a95.755 95.755 0 0 1-19.243-1.957 10 10 0 0 1-5.055-16.866l100.438-100.44a10 10 0 0 1 16.866 5.056c6.47 31.443-3.194 63.741-25.85 86.399-17.933 17.932-41.782 27.808-67.152 27.808zm74.785-89.626l-69.441 69.44c18.017-1.259 34.776-8.875 47.665-21.765 12.947-12.947 20.519-29.888 21.776-47.675" fill="#3B3C3A"/><path d="M260.098 380.353a85.95 85.95 0 0 0 5.931 5.383l119.66-119.663a85.883 85.883 0 0 0-5.383-5.928c-33.194-33.195-87.013-33.195-120.208 0-33.195 33.194-33.195 87.012 0 120.208" fill="#70B7D3"/><path d="M266.027 395.736a9.969 9.969 0 0 1-6.378-2.299 96.292 96.292 0 0 1-6.62-6.012c-17.944-17.945-27.827-41.801-27.827-67.177 0-25.375 9.883-49.231 27.825-67.175 17.943-17.943 41.8-27.824 67.175-27.824 25.376 0 49.232 9.881 67.176 27.824a96.969 96.969 0 0 1 6.008 6.617 10 10 0 0 1-.625 13.454L273.1 392.807a9.976 9.976 0 0 1-7.073 2.929zm54.175-150.487c-20.033 0-38.867 7.801-53.032 21.967-14.166 14.165-21.968 32.999-21.968 53.032 0 19.366 7.29 37.611 20.572 51.601l106.028-106.03c-13.989-13.28-32.234-20.57-51.6-20.57" fill="#3B3C3A"/><path d="M320.202 420.249c-26.711 0-51.823-10.402-70.71-29.29-18.888-18.888-29.29-44-29.29-70.711s10.402-51.823 29.29-70.71c18.888-18.887 43.999-29.289 70.711-29.289 26.711 0 51.822 10.402 70.71 29.289 38.989 38.99 38.989 102.431 0 141.421-18.888 18.888-44 29.29-70.711 29.29zm.001-170c-18.698 0-36.276 7.281-49.498 20.502-13.222 13.221-20.503 30.8-20.503 49.497 0 18.698 7.281 36.276 20.503 49.498 13.222 13.221 30.8 20.503 49.497 20.503 18.698 0 36.276-7.282 49.498-20.503 27.292-27.293 27.292-71.702 0-98.995-13.222-13.221-30.8-20.502-49.497-20.502" fill="#3B3C3A"/></svg>