<svg xmlns="http://www.w3.org/2000/svg" width="436.783" height="412.503" viewBox="0, 0, 436.783, 412.503"><path d="M417.577 385.768c0 14.765-91.815 26.736-205.075 26.736-113.26 0-205.074-11.971-205.074-26.736 0-14.769 91.814-26.74 205.074-26.74 113.26 0 205.075 11.971 205.075 26.74" fill="#D6D5D0"/><path d="M93.377 116.509c6.75-32.839 28.713-77.672 43.356-92.336 14.644-14.664 70.574-10.886 70.609 5.225.035 16.111 9.181 40.565 41.608 39.338 32.427-1.227 86.791 1.348 94.427 47.773 7.636 46.426-258.442 41.07-250 0" fill="#C2D54A"/><path d="M223.979 164.351c-29.952 0-59.508-2.302-83.224-6.484-29.507-5.201-48.022-12.845-56.603-23.369-5.04-6.181-6.982-13.643-5.467-21.009 7.099-34.542 29.709-82.166 47.434-99.916C137.913 1.763 159.048 0 170.596 0c11.177 0 21.937 1.637 30.296 4.609 18.63 6.625 21.436 18.354 21.45 24.756.015 7.341 2.415 24.415 24.288 24.415.574 0 1.158-.012 1.753-.033 4.004-.152 7.712-.226 11.338-.226 73.144 0 93.914 32.929 98.457 60.553 1.299 7.904-.999 15.81-6.475 22.258-8.67 10.212-25.774 17.486-52.292 22.236-21.125 3.783-47.209 5.783-75.432 5.783zm-115.281-47.705c3.021 2.192 12.246 7.238 36.951 11.622 22.103 3.922 49.921 6.083 78.33 6.083 27.054 0 52.648-2.012 72.068-5.667 20.992-3.95 29.803-8.917 32.278-11.215-1.79-9.938-8.791-33.948-68.604-33.948-3.245 0-6.582.068-10.204.204-.98.037-1.941.055-2.887.055-35.294 0-52.418-25.334-54.143-50.276C188.93 31.938 181.103 30 170.596 30c-13.829 0-21.756 3.278-23.248 4.771-11.751 11.768-31.752 51.863-38.65 81.875" fill="#3B3C3A"/><path d="M343.377 116.509s-76 9-125 9-125-9-125-9-11 53-11 91 0 108.861 5 139.861c5 31 80 33.861 131 33.861s126-2.861 131-33.861c5-31 5-101.861 5-139.861 0-38-11-91-11-91" fill="#FFFFFE"/><path d="M218.377 396.23c-25.288 0-57.846-.629-85.383-5.538-13.706-2.443-55.417-9.879-60.426-40.933-5.191-32.187-5.191-103.785-5.191-142.25 0-39.091 10.85-91.823 11.313-94.049 1.58-7.617 8.73-12.76 16.451-11.847.752.089 75.701 8.896 123.236 8.896 47.535 0 122.484-8.807 123.236-8.896 7.734-.913 14.869 4.231 16.45 11.847.463 2.226 11.314 54.958 11.314 94.049 0 38.465 0 110.063-5.192 142.25-5.008 31.054-46.719 38.49-60.425 40.933-27.537 4.909-60.095 5.538-85.383 5.538zM105.535 132.956c-3.161 17.786-8.158 49.824-8.158 74.553 0 37.625 0 107.659 4.808 137.472.748 4.63 10.643 11.643 36.075 16.177 25.506 4.547 57.939 5.072 80.117 5.072 22.178 0 54.611-.525 80.117-5.072 25.432-4.534 35.327-11.547 36.074-16.177 4.809-29.813 4.809-99.847 4.809-137.472 0-24.767-4.995-56.78-8.155-74.554-24.428 2.605-75.718 7.554-112.845 7.554-37.127 0-88.415-4.949-112.842-7.553" fill="#3B3C3A"/><path d="M90.783 130.202c-34.486.022-77.413 27.107-75.734 69.637C16.727 242.37 23.727 265.37 45.727 261c32.368-6.429 16-38.147 14-54.888-2-16.742 4.489-25.371 24.245-27.556 1.711-15.159 6.811-48.354 6.811-48.354" fill="#70B7D3"/><path d="M40.687 276.527h-.004c-8.706 0-24.576-3.368-33.047-25.906C3.312 239.12.977 223.641.06 200.431c-.816-20.685 6.697-39.888 21.726-55.531 17.583-18.303 44.018-29.682 68.987-29.698h.01a14.997 14.997 0 0 1 14.826 17.277c-.05.33-5.075 33.073-6.732 47.759a14.999 14.999 0 0 1-13.256 13.226c-8.693.962-10.451 3.063-10.522 3.152-.452.569-1.061 2.834-.477 7.715.291 2.438 1.168 5.986 2.097 9.741 3.202 12.948 7.587 30.684-1.628 45.184-5.408 8.508-14.304 14.045-26.441 16.456-2.721.542-5.401.815-7.963.815zm32.278-128.56c-11.122 3.36-21.751 9.603-29.545 17.717-6.445 6.708-13.998 17.976-13.383 33.563.763 19.327 2.621 32.679 5.68 40.817 2.428 6.463 4.21 6.463 4.97 6.463h.001c.603 0 1.316-.08 2.117-.239 3.57-.709 6.173-1.878 6.966-3.124 2.331-3.667-.49-15.074-2.175-21.891-1.158-4.681-2.251-9.102-2.763-13.382-1.495-12.516.719-22.303 6.768-29.924 4.446-5.603 10.66-9.575 18.835-12.005a1647.3 1647.3 0 0 1 2.529-17.995" fill="#3B3C3A"/><path d="M346 130.202c34.486.022 77.413 27.107 75.734 69.637-1.678 42.531-8.678 65.531-30.678 61.161-32.368-6.429-16-38.147-14-54.888 2-16.742-4.489-25.371-24.244-27.556-1.711-15.159-6.812-48.354-6.812-48.354" fill="#70B7D3"/><path d="M396.098 276.527c-2.563 0-5.243-.273-7.965-.815-12.137-2.411-21.033-7.948-26.441-16.456-9.214-14.5-4.83-32.236-1.628-45.184.929-3.755 1.806-7.303 2.097-9.741.584-4.881-.025-7.146-.477-7.715-.071-.089-1.829-2.19-10.522-3.152a14.999 14.999 0 0 1-13.256-13.226c-1.658-14.69-6.681-47.429-6.732-47.759A15.001 15.001 0 0 1 346 115.202h.01c24.969.016 51.404 11.395 68.987 29.698 15.029 15.643 22.542 34.846 21.726 55.531-.916 23.21-3.252 38.69-7.576 50.19-8.471 22.541-24.342 25.906-33.049 25.906zm-29.751-110.565c8.175 2.43 14.389 6.402 18.836 12.005 6.048 7.621 8.262 17.408 6.767 29.924-.512 4.28-1.605 8.701-2.763 13.382-1.685 6.817-4.505 18.224-2.175 21.891.793 1.246 3.396 2.415 6.966 3.124.801.159 1.515.239 2.12.239.759 0 2.54 0 4.968-6.461 3.059-8.139 4.917-21.492 5.68-40.819.615-15.587-6.938-26.855-13.383-33.563-7.794-8.114-18.423-14.357-29.545-17.717a1647.3 1647.3 0 0 1 2.529 17.995m-99.127 21.31c0 6.436-5.215 11.652-11.651 11.652-6.433 0-11.652-5.216-11.652-11.652 0-6.435 5.219-11.65 11.652-11.65 6.436 0 11.651 5.215 11.651 11.65m-71.005 0c0 6.436-5.215 11.652-11.652 11.652-6.434 0-11.651-5.216-11.651-11.652 0-6.435 5.217-11.65 11.651-11.65 6.437 0 11.652 5.215 11.652 11.65m22.826 29.973h-51.404s3.597 33.43 51.404 33.43c47.805 0 51.404-33.43 51.404-33.43h-51.404" fill="#3B3C3A"/></svg>