<svg xmlns="http://www.w3.org/2000/svg" width="410.15" height="431.231" viewBox="0, 0, 410.15, 431.231"><path d="M410.15 404.496c0 14.765-91.815 26.736-205.075 26.736C91.815 431.232 0 419.261 0 404.496c0-14.769 91.815-26.74 205.075-26.74 113.26 0 205.075 11.971 205.075 26.74" fill="#D6D5D0"/><path d="M90.175 210.59C68.99 226.498 31.347 267.077 45.4 286.172c11.465 15.58 24.029 8.127 36.57 7.518 10.084-.49 14.94 6.204 25.665 4.664 9.814-1.41 18.402-8.961 26.212-9.972 7.811-1.008 14.127 8.014 24.559 6.007 10.432-2.006 16.767-10.532 25.043-11.833 8.275-1.302 19.414 5.656 30.002-3.539 18.906-16.426-23.785-56.877-44.231-73.913-20.445-17.035-55.142-12.459-79.045 5.486" fill="#70B7D3"/><path d="M104.478 313.583c-6.852 0-12.102-1.967-15.935-3.404-2.854-1.071-4.271-1.584-5.845-1.507-1.962.095-4.319.506-6.815.94-3.735.652-7.968 1.389-12.564 1.389-12.124 0-22.218-5.363-30-15.94-23.424-31.827 27.991-81.556 47.85-96.467 16.197-12.16 36.544-19.134 55.824-19.134 16.279 0 30.743 4.883 41.829 14.119 7.073 5.894 20.69 17.799 32.434 31.324 14.616 16.831 21.783 30.983 21.909 43.264.09 8.813-3.325 16.48-9.876 22.173-6.514 5.656-14.265 8.522-23.04 8.522h-.002c-3.834 0-7.322-.53-10.123-.956-1.675-.256-3.408-.519-4.345-.519l-.06.001c-.989.265-3.605 1.965-5.349 3.098-4.57 2.969-10.83 7.037-19.132 8.633a31.1 31.1 0 0 1-5.862.563c-7.825 0-13.936-3.019-17.98-5.017-.779-.384-1.762-.87-2.471-1.178-1.561.544-4.202 1.875-6.061 2.813-5.136 2.591-11.527 5.814-19.097 6.901-1.77.254-3.55.382-5.289.382zm-21.455-34.919c6.918 0 12.196 1.979 16.051 3.424 2.622.982 4.053 1.495 5.404 1.495.322 0 .657-.024 1.025-.078 2.709-.389 6.339-2.22 9.851-3.991 4.831-2.436 10.307-5.199 16.568-6.008a24.736 24.736 0 0 1 3.162-.203c6.558 0 11.783 2.58 15.597 4.464 1.635.808 3.874 1.915 4.695 1.915.035 0 .093-.003.196-.023 2.542-.489 5.281-2.268 8.454-4.33 4.437-2.883 9.959-6.47 17.095-7.592a29.63 29.63 0 0 1 4.658-.35c3.208 0 6.21.457 8.858.86 2.081.317 4.046.615 5.612.615 1.331 0 2.054-.177 2.881-.78-.225-1.877-1.875-8.659-13.502-22.32-10.907-12.816-24.621-24.643-30.01-29.135-7.109-5.923-16.228-7.167-22.625-7.167-12.731 0-26.865 4.907-37.812 13.125-9.333 7.009-22.964 20.017-32.374 33.28-10.043 14.154-9.791 20.784-9.326 21.414 2.738 3.722 4.175 3.722 5.838 3.722 2.002 0 4.632-.459 7.416-.942 3.135-.547 6.689-1.166 10.509-1.352a37.03 37.03 0 0 1 1.779-.043" fill="#3B3C3A"/><path d="M155.978 102.995c21.184-15.906 59.488-51.226 47.432-71.301-12.371-20.597-26.688-12.407-39.227-11.799-10.084.49-14.939-6.203-25.664-4.663-9.814 1.409-18.402 8.963-26.213 9.971-7.81 1.009-14.129-8.013-24.558-6.007-10.434 2.007-16.77 10.533-25.043 11.834-8.278 1.301-16.651-2.602-27.238 6.593-18.911 16.426 21.021 53.822 41.466 70.858 20.446 17.036 55.143 12.46 79.045-5.486" fill="#70B7D3"/><path d="M109.162 134.124h-.001c-16.28-.001-30.744-4.883-41.83-14.121-34.188-28.486-51.62-52.435-51.813-71.178-.092-8.912 3.406-16.702 10.112-22.527 10.243-8.895 20.023-10.036 27.4-10.036.968 0 1.926.02 2.877.038.727.016 1.448.033 2.166.033.655 0 1.608-.013 2.303-.122.934-.207 3.624-1.955 5.404-3.111 4.571-2.97 10.832-7.038 19.135-8.635a31.099 31.099 0 0 1 5.862-.562c7.824 0 13.935 3.018 17.978 5.015.781.386 1.764.871 2.473 1.179 1.564-.543 4.204-1.874 6.064-2.813 5.135-2.59 11.526-5.814 19.095-6.901A37.361 37.361 0 0 1 141.675 0c6.853 0 12.102 1.969 15.935 3.406 2.856 1.07 4.272 1.581 5.845 1.507 1.68-.083 3.835-.442 6.115-.823 3.677-.613 7.845-1.308 12.434-1.308 14.292 0 25.82 7.129 34.264 21.188 8.873 14.774 4.695 33.054-12.42 54.338-13.739 17.086-31.755 31.344-38.863 36.682-16.196 12.16-36.544 19.134-55.823 19.134zM45.499 48.778c.057 4.897 9.747 22.107 41.037 48.178 7.109 5.924 16.227 7.168 22.625 7.168 12.729 0 26.865-4.907 37.811-13.125 4.839-3.634 21.56-16.646 33.497-31.492 10.423-12.961 10.597-19.233 10.081-20.091-3.984-6.634-6.514-6.634-8.546-6.634-2.104 0-4.722.435-7.495.9-2.89.481-6.167 1.028-9.599 1.195-7.748.374-13.652-1.814-17.831-3.381-2.621-.982-4.053-1.496-5.404-1.496a7.12 7.12 0 0 0-1.024.079c-2.708.388-6.338 2.22-9.849 3.99-4.833 2.438-10.31 5.201-16.576 6.01a24.765 24.765 0 0 1-3.156.202c-6.559 0-11.783-2.579-15.598-4.464-1.635-.807-3.875-1.914-4.695-1.914-.034 0-.093.003-.195.022-2.544.489-5.285 2.269-8.457 4.331-4.436 2.883-9.957 6.47-17.09 7.592-2.77.435-5.3.485-6.962.485-.926 0-1.857-.018-2.796-.039-.742-.015-1.491-.032-2.247-.032-3.217 0-4.838.233-7.531 2.516" fill="#3B3C3A"/><path d="M208.259 153.728c2.569 39.213-15.136 72.299-77.144 76.361-54.092 3.544-83.881-26.431-86.449-65.644-2.571-39.213 19.095-72.559 77.144-76.362 59.367-3.89 83.879 26.431 86.449 65.645" fill="#70B7D3"/><path d="M122.577 245.374c-26.844 0-49.793-7.929-66.368-22.931-15.84-14.334-25.007-34.05-26.511-57.018-1.625-24.788 5.174-46.393 19.662-62.479 15.973-17.733 40.019-27.77 71.47-29.832 3.732-.244 7.425-.368 10.976-.368 28.621 0 51.264 7.857 67.299 23.353 14.255 13.775 22.596 33.363 24.122 56.648 1.674 25.547-4.379 46.463-17.988 62.167-15.456 17.834-40.065 27.976-73.144 30.143-3.209.21-6.411.317-9.518.317zm9.229-142.628c-2.899 0-5.932.103-9.015.305-23.376 1.531-40.582 8.251-51.14 19.973-11.301 12.547-12.772 28.917-12.018 40.44 2.129 32.504 25.66 51.91 62.944 51.91 2.456 0 4.998-.085 7.558-.253 59.899-3.924 64.732-36.359 63.157-60.413-2.26-34.479-22.948-51.962-61.486-51.962" fill="#3B3C3A"/><path d="M205.943 277.279c-27.293 5.85-81.23 28.022-76.23 52.496 4.08 19.967 19.39 18.394 31.654 23.355 9.861 3.988 11.547 12.535 22.484 15.802 10.01 2.99 21.561-.438 29.479 2.05 7.914 2.486 9.968 13.906 20.832 16.599 10.863 2.691 20.691-2.663 29.181-.25 8.491 2.413 16.069 13.99 30.256 9.875 25.346-7.352 2.393-64.909-9.632-90.239-12.024-25.33-47.233-36.288-78.024-29.688" fill="#E46C79"/><path d="M287.687 413.081c-11 0-19.006-5.291-24.303-8.792-1.449-.957-3.429-2.265-4.203-2.549l-.001.001c-.018 0-.299-.054-.911-.054-1.505 0-3.644.309-5.91.636-3.361.486-7.171 1.035-11.462 1.035-3.651 0-7.035-.398-10.342-1.216-10.851-2.69-16.6-9.813-20.404-14.525-.652-.808-1.488-1.843-2.067-2.467-.577-.073-1.526-.144-3.048-.144-1.342 0-2.839.053-4.423.105-1.865.065-3.794.13-5.845.13-3.745 0-9.396-.201-15.209-1.937-9.51-2.839-14.776-8.171-18.622-12.064-2.337-2.367-3.534-3.534-5.195-4.205-1.963-.794-4.422-1.449-7.026-2.143-10.734-2.861-28.701-7.648-33.7-32.114-8.205-40.159 62.403-64.727 87.783-70.166a100.88 100.88 0 0 1 21.103-2.216c33.145 0 62.041 15.756 73.615 40.139 4.149 8.739 11.892 26.098 17.131 44.17 6.485 22.366 7.096 38.887 1.869 50.508-3.709 8.248-10.188 13.919-18.739 16.399-3.363.976-6.759 1.469-10.091 1.469zm-29.418-41.394c3.299 0 6.3.398 9.175 1.215 5.014 1.425 8.98 4.046 12.48 6.359 3.597 2.377 5.915 3.82 7.763 3.82.437 0 .933-.071 1.479-.212.597-1.427 2.603-8.28-2.705-27.594-4.761-17.32-12.807-35.054-16.045-41.874-6.532-13.759-25.224-23.005-46.514-23.005-5.035 0-10.02.522-14.815 1.55-12.086 2.59-30.967 9.039-45.906 17.608-16.401 9.409-19.006 16.073-18.772 17.217 1.233 6.036 2.498 6.592 12.032 9.133 3.216.856 6.861 1.828 10.551 3.321 7.476 3.022 11.992 7.595 15.289 10.932 2.76 2.794 3.818 3.791 5.863 4.402 2.047.612 4.761.682 6.624.682 1.537 0 3.131-.055 4.818-.112 1.767-.06 3.594-.123 5.45-.123 3.487 0 8.092.19 12.789 1.665 7.904 2.483 12.392 8.043 15.67 12.103 2.186 2.708 3.32 4.01 4.274 4.246 2.565.635 6.274.193 10.306-.389 3.064-.442 6.537-.944 10.194-.944" fill="#3B3C3A"/><path d="M316.429 203.455c27.293-5.849 79.539-22.698 76.879-47.23-2.728-25.164-20.041-23.659-32.302-28.62-9.862-3.989-11.545-12.536-22.485-15.803-10.01-2.989-21.56.438-29.476-2.048-7.916-2.487-9.971-13.909-20.834-16.6-10.864-2.691-20.692 2.663-29.182.25-8.49-2.414-14.774-9.848-28.963-5.733-25.346 7.352-3.682 60.767 8.342 86.096 12.023 25.329 47.23 36.288 78.021 29.688" fill="#E46C79"/><path d="M298.473 220.338h-.002c-33.145-.001-62.04-15.756-73.614-40.139-20.001-42.134-26.087-72.516-18.088-90.301 3.752-8.343 10.363-14.094 19.118-16.633 4.146-1.202 8.235-1.812 12.155-1.812 9.2 0 15.814 3.227 20.644 5.584 1.779.868 3.318 1.618 4.445 1.939 0 0 .264.071.97.071 1.505 0 3.645-.309 5.91-.636 3.362-.485 7.172-1.034 11.463-1.034 3.653 0 7.036.398 10.344 1.217 10.85 2.688 16.599 9.81 20.403 14.522.653.809 1.49 1.845 2.069 2.469.575.073 1.524.144 3.046.144 1.34 0 2.837-.052 4.421-.106 1.867-.064 3.795-.13 5.846-.13 3.746 0 9.398.201 15.211 1.937 9.51 2.84 14.777 8.172 18.622 12.066 2.337 2.366 3.533 3.532 5.194 4.203 1.686.683 3.928 1.297 6.301 1.948 11.19 3.067 32.017 8.776 35.29 38.963 1.917 17.681-10.01 33.047-35.452 45.672-20.611 10.228-44.068 15.884-53.195 17.84a100.876 100.876 0 0 1-21.101 2.216zm-64.287-118.244c-.495 1.04-2.669 7.088 2.294 25.201 3.98 14.527 10.614 29.792 15.479 40.04 6.531 13.758 25.222 23.002 46.511 23.003h.002c5.034 0 10.018-.521 14.814-1.55 6.259-1.341 28.085-6.415 46.147-15.379 15.996-7.938 19.127-14.05 18.963-15.566-1.072-9.886-3.438-10.534-13.395-13.264-2.957-.81-6.308-1.728-9.621-3.069-7.475-3.023-11.991-7.595-15.288-10.933-2.758-2.794-3.817-3.791-5.862-4.401-2.05-.612-4.764-.683-6.627-.683-1.537 0-3.131.055-4.818.113-1.768.06-3.595.123-5.449.123-3.486 0-8.09-.189-12.788-1.665-7.903-2.483-12.392-8.043-15.669-12.103-2.187-2.709-3.322-4.011-4.276-4.247-2.565-.636-6.272-.192-10.307.39-3.064.442-6.536.943-10.193.943-3.299 0-6.3-.397-9.175-1.214-3.688-1.049-6.721-2.529-9.397-3.834-3.429-1.673-5.318-2.546-7.489-2.546-1.092 0-2.37.21-3.798.624l-.058.017" fill="#3B3C3A"/><path d="M344.011 275.084c-14.875 38.639-46.433 62.457-107.533 38.936-53.299-20.517-68.541-62.35-53.668-100.99 14.875-38.639 50.334-60.956 107.533-38.938 58.499 22.52 68.542 62.352 53.668 100.992" fill="#E46C79"/><path d="M280.349 338.361c-14.859 0-31.432-3.48-49.26-10.343-28.784-11.08-49.71-28.778-60.519-51.179-10.185-21.109-10.81-45.684-1.759-69.197 14.004-36.377 43.058-57.24 79.711-57.24 14.62 0 30.504 3.261 47.21 9.692 31.32 12.057 52.391 29.641 62.626 52.266 9.145 20.212 9.023 43.764-.348 68.111-14.58 37.873-41.434 57.89-77.661 57.89zm-31.827-157.959c-30.645 0-45.037 20.673-51.714 38.016-13.287 34.52 3.979 65.789 45.059 81.603 14.375 5.534 27.322 8.34 38.482 8.34 23.403 0 39.648-12.649 49.664-38.666 14.294-37.136-.866-64.592-45.058-81.604-13.254-5.102-25.512-7.689-36.433-7.689" fill="#3B3C3A"/></svg>