<svg xmlns="http://www.w3.org/2000/svg" width="415.759" height="439.424" viewBox="0, 0, 415.759, 439.424"><path d="M410.15 412.69c0 14.765-91.814 26.734-205.074 26.734C91.816 439.424 0 427.455 0 412.69c0-14.77 91.816-26.741 205.076-26.741 113.26 0 205.074 11.971 205.074 26.741" fill="#D6D5D0"/><path d="M80.816 234.334V391 234.334m-15 0h30V391h-30zm83 0V391 234.334m-15 0h30V391h-30z" fill="#3B3C3A"/><path d="M120.252 410.321c-7.795 0-14.264-.385-18.324-.712-16.793-1.346-57.309-6.636-70.794-26.616-4.635-6.867-2.827-16.19 4.04-20.825 6.865-4.634 16.189-2.827 20.823 4.039 2.636 3.725 20.135 11.55 50.453 13.658 30.887 2.147 59.774-3.181 68.68-12.669 5.669-6.041 15.163-6.339 21.203-.67 6.04 5.669 6.34 15.163.67 21.203-17.933 19.104-53.326 22.592-76.751 22.592m153.564-175.987V391 234.334m-15 0h30V391h-30zm83 0V391 234.334m-15 0h30V391h-30z" fill="#3B3C3A"/><path d="M313.252 410.321c-7.795 0-14.264-.385-18.324-.712-16.793-1.346-57.309-6.636-70.794-26.616-4.635-6.867-2.827-16.19 4.041-20.825 6.864-4.634 16.188-2.827 20.822 4.039 2.636 3.725 20.135 11.55 50.453 13.658 30.888 2.147 59.774-3.181 68.68-12.669 5.67-6.041 15.162-6.339 21.203-.67 6.04 5.669 6.34 15.163.67 21.203-17.933 19.104-53.326 22.592-76.751 22.592" fill="#3B3C3A"/><path d="M234.533 15c49.477 0 143.805 32.583 143.805 146.34H232.074L234.533 15" fill="#F6D729"/><path d="M378.338 176.34H232.074a15.001 15.001 0 0 1-14.998-15.252l2.459-146.341C219.673 6.563 226.346 0 234.533 0 247.401 0 292.605 2.416 334 33.519c27.069 20.339 59.338 59.025 59.338 127.821 0 8.285-6.716 15-15 15zm-131.01-30h115.396c-3.198-38.064-18.882-67.901-46.746-88.837-21.404-16.083-46.449-23.955-66.712-26.524l-1.938 115.361" fill="#3B3C3A"/><path d="M43.888 161.34h334.449V203H43.888z" fill="#FFFFFE"/><path d="M378.338 218H43.888c-8.284 0-15-6.717-15-15v-41.66c0-8.285 6.716-15 15-15h334.45c8.284 0 15 6.715 15 15V203c0 8.283-6.716 15-15 15zm-319.45-30h304.449v-11.66H58.888z" fill="#3B3C3A"/><path d="M189.01 161.34h91S277.533 15 234.533 15 189.01 161.34 189.01 161.34" fill="#F6D729"/><path d="M280.01 176.34h-91a15.004 15.004 0 0 1-14.999-15.259c.027-1.538.721-38.106 6.833-75.342 3.704-22.559 8.682-40.768 14.797-54.12C207.611 5.485 223.397 0 234.533 0c11.137 0 26.924 5.486 38.886 31.622 6.111 13.353 11.084 31.563 14.78 54.122 6.101 37.236 6.782 73.804 6.809 75.342a15.002 15.002 0 0 1-14.998 15.254zm-75.377-30h59.758c-.755-13.765-2.385-35.016-5.841-56.012C250.404 40.837 238.451 30 234.533 30c-3.92 0-15.879 10.838-24.041 60.333-3.462 20.993-5.101 42.242-5.859 56.007" fill="#3B3C3A"/><path d="M393.668 241.603c-18.614-13.186-16.289-39.604-16.289-39.604H44.201c.301 7.169-.268 28.308-16.457 37.166-15.805 8.647 1.306 28.178 18.732 28.178 16.74 0 25.073-12.753 36.379-12.753 11.309 0 12.813 13.566 29.313 13.566 16.74 0 25.072-12.753 36.379-12.753 11.308 0 12.812 13.565 29.312 13.565 16.74 0 25.072-12.753 36.381-12.753 11.307 0 12.81 13.565 29.31 13.565 16.743 0 25.073-12.753 36.381-12.753 11.307 0 12.811 13.566 29.313 13.566 16.5 0 18.004-13.566 29.31-13.566 11.309 0 19.639 12.753 36.379 12.753 19.471 0 35.582-16.242 18.735-28.177" fill="#F6D729"/><path d="M309.244 285.593c-14.759 0-22.848-7.236-27.68-11.56-.695-.622-1.579-1.412-2.197-1.898-1.484.451-4.539 2.214-6.468 3.327-6.811 3.933-16.139 9.318-29.349 9.318-14.757 0-22.845-7.236-27.678-11.559-.695-.621-1.578-1.412-2.196-1.898-1.485.45-4.541 2.213-6.469 3.328-6.812 3.931-16.141 9.317-29.348 9.317-14.757 0-22.845-7.235-27.678-11.559-.695-.622-1.579-1.413-2.198-1.899-1.483.45-4.538 2.213-6.467 3.327-6.811 3.933-16.14 9.319-29.348 9.319-14.757 0-22.845-7.236-27.678-11.56-.695-.621-1.579-1.412-2.198-1.899-1.484.451-4.538 2.214-6.467 3.328-6.813 3.932-16.141 9.318-29.349 9.318-17.69 0-35.261-12.435-39.169-27.72-2.958-11.566 2.115-22.532 13.238-28.617 8.978-4.913 8.797-20.336 8.669-23.378a15.004 15.004 0 0 1 14.987-15.629h333.178c4.244 0 8.3 1.691 11.144 4.841 2.832 3.138 4.219 7.217 3.804 11.42-.065 1.074-.899 18.374 10.012 26.102 11.285 7.996 15.838 19.626 12.182 31.111-4.483 14.084-21.133 24.307-39.588 24.307-13.207 0-22.536-5.385-29.346-9.318-1.929-1.113-4.984-2.876-6.468-3.327-.618.486-1.502 1.277-2.196 1.898-4.833 4.324-12.921 11.56-27.679 11.56zm-29.313-43.566c10.851 0 17.602 6.04 21.635 9.648 3.543 3.17 4.501 3.918 7.678 3.918 3.176 0 4.133-.748 7.675-3.917 4.034-3.609 10.784-9.649 21.635-9.649 9.122 0 16.28 4.133 22.033 7.455 5.689 3.284 9.427 5.298 14.346 5.298 3.633 0 6.626-.967 8.624-1.997-13.225-10.106-18.313-24.629-20.201-35.784H58.227c-2.44 14.05-9.132 25.599-19.169 32.747 1.935 1.364 4.636 2.597 7.418 2.597 4.92 0 8.658-2.014 14.349-5.3 5.752-3.32 12.911-7.453 22.03-7.453 10.853 0 17.604 6.039 21.637 9.649 3.543 3.168 4.5 3.917 7.676 3.917 4.92 0 8.657-2.015 14.348-5.3 5.752-3.321 12.911-7.453 22.031-7.453 10.852 0 17.603 6.039 21.636 9.648 3.543 3.169 4.5 3.917 7.676 3.917 4.92 0 8.657-2.014 14.349-5.299 5.753-3.321 12.912-7.454 22.032-7.454 10.852 0 17.602 6.039 21.635 9.648 3.543 3.169 4.5 3.917 7.675 3.917 4.921 0 8.659-2.014 14.35-5.299 5.752-3.321 12.911-7.454 22.031-7.454" fill="#3B3C3A"/></svg>