<svg xmlns="http://www.w3.org/2000/svg" width="410.15" height="447.32" viewBox="0, 0, 410.15, 447.32"><path d="M410.15 420.586c0 14.765-91.816 26.734-205.075 26.734C91.815 447.32 0 435.351 0 420.586c0-14.77 91.815-26.741 205.075-26.741 113.259 0 205.075 11.971 205.075 26.741" fill="#D6D5D0"/><path d="M204.247 360.413c0 16.568-13.432 30-30 30h-60.526c-16.568 0-30-13.432-30-30V231.965c0-16.569 13.432-30 30-30h60.526c16.568 0 30 13.431 30 30v128.448" fill="#E46C79"/><path d="M174.247 405.413h-60.526c-24.813 0-45-20.187-45-45V231.965c0-24.813 20.187-45 45-45h60.526c24.813 0 45 20.187 45 45v128.448c0 24.813-20.187 45-45 45zm-60.526-188.448c-8.271 0-15 6.728-15 15v128.448c0 8.27 6.729 15 15 15h60.526c8.271 0 15-6.73 15-15V231.965c0-8.272-6.729-15-15-15h-60.526" fill="#3B3C3A"/><path d="M365.176 41.746c-6.181-10.693-16.92-6.993-16.92 0v41.556c0 5.899-20.441 8.849-20.441 0V42.009c0-8.006-3.371-12.009-13.035-12.009-9.662 0-13.035 4.003-13.035 12.009v41.293c0 8.849-20.442 5.899-20.442 0V41.746c0-6.993-10.738-10.693-16.918 0-6.181 10.693-8.99 71.39-8.99 90.201 0 18.809 24.02 20.376 35.078 20.376v42.427h48.613v-42.427c11.061 0 35.079-1.567 35.079-20.376 0-18.811-2.807-79.508-8.989-90.201" fill="#FFFFFE"/><path d="M314.78 30c9.664 0 13.035 4.003 13.035 12.009v41.293c0 3.995 4.165 5.584 8.735 5.584 5.554 0 11.706-2.347 11.706-5.584V41.746c0-3.852 3.256-6.703 7.215-6.703 3.231 0 6.928 1.899 9.705 6.703 6.182 10.693 8.989 71.39 8.989 90.201 0 18.809-24.018 20.376-35.079 20.376v42.427h-48.613v-42.427c-11.058 0-35.078-1.567-35.078-20.376 0-18.811 2.809-79.508 8.99-90.201 2.778-4.805 6.474-6.703 9.703-6.703 3.959 0 7.215 2.852 7.215 6.703v41.556c0 3.237 6.153 5.584 11.706 5.584 4.57 0 8.736-1.589 8.736-5.584V42.009c0-8.006 3.373-12.009 13.035-12.009zm0-30c-10.444 0-19.498 2.78-26.57 7.759a37.825 37.825 0 0 0-14.12-2.716c-14.49-.001-27.828 8.108-35.679 21.691-3.618 6.26-7.733 16.17-10.747 54.73-1.49 19.046-2.269 39.812-2.269 50.483 0 20.746 12.318 37.705 32.949 45.365a64.34 64.34 0 0 0 2.129.75v16.688c0 16.568 13.432 30 30 30h48.613c16.569 0 30-13.432 30-30v-16.688a63.54 63.54 0 0 0 2.129-.75c20.632-7.66 32.95-24.619 32.95-45.365 0-10.672-.78-31.44-2.268-50.483-3.014-38.56-7.129-48.47-10.748-54.733-7.852-13.581-21.19-21.688-35.678-21.688-4.906 0-9.69.935-14.123 2.716C334.277 2.779 325.223 0 314.78 0" fill="#3B3C3A"/><path d="M375.043 360.413c0 16.568-13.431 30-30 30h-60.525c-16.568 0-30-13.432-30-30V231.965c0-16.569 13.432-30 30-30h60.525c16.569 0 30 13.431 30 30v128.448" fill="#70B7D3"/><path d="M345.043 405.413h-60.525c-24.813 0-45-20.187-45-45V231.965c0-24.813 20.187-45 45-45h60.525c24.814 0 45 20.187 45 45v128.448c0 24.813-20.186 45-45 45zm-60.525-188.448c-8.271 0-15 6.728-15 15v128.448c0 8.27 6.729 15 15 15h60.525c8.272 0 15-6.73 15-15V231.965c0-8.272-6.728-15-15-15h-60.525" fill="#3B3C3A"/><path d="M143.985 17.295c-42.615 0-79.891 30.811-79.891 74.11s46.762 62.285 46.762 62.285l.238 2.252v46.023h65.78v-46.023l.238-2.252s46.762-18.986 46.762-62.285c0-43.299-37.276-74.11-79.889-74.11" fill="#FFFFFE"/><path d="M176.874 216.965h-65.78c-8.284 0-15-6.716-15-15v-38.901c-15.934-8.953-47-31.554-47-71.659 0-24.85 10.284-47.744 28.958-64.467 17.746-15.892 41.161-24.643 65.933-24.643 24.77 0 48.184 8.751 65.931 24.644 18.673 16.722 28.958 39.616 28.958 64.466 0 40.105-31.066 62.706-47 71.659v38.901c0 8.284-6.716 15-15 15zm-50.78-30h35.78v-31.023c0-.527.027-1.054.083-1.578l.238-2.252a14.997 14.997 0 0 1 9.274-12.319c.318-.133 37.405-15.931 37.405-48.388 0-33.146-28.503-59.11-64.889-59.11-36.388 0-64.891 25.964-64.891 59.11 0 32.82 37.031 48.235 37.405 48.388a15 15 0 0 1 9.274 12.319l.238 2.252c.056.524.083 1.051.083 1.578v31.023" fill="#3B3C3A"/></svg>