<svg xmlns="http://www.w3.org/2000/svg" width="410.149" height="436.619" viewBox="0, 0, 410.149, 436.619"><path d="M410.149 409.884c0 14.766-91.815 26.735-205.075 26.735C91.814 436.619 0 424.65 0 409.884c0-14.77 91.814-26.74 205.074-26.74 113.26 0 205.075 11.97 205.075 26.74" fill="#D6D5D0"/><path d="M219.506 378.091c-13.255-36.231 117.628-68.093 133.34-26.21 15.01 40.013-121.222 59.338-133.34 26.21" fill="#C2D54A"/><path d="M266.753 409.963c-33.249 0-55.032-9.489-61.335-26.719-3.535-9.663-1.963-20.02 4.426-29.16 16.222-23.208 62.409-37.076 97.692-37.076 31.113 0 52.193 10.513 59.354 29.605 3.8 10.127 2.415 20.721-3.897 29.832-17.04 24.591-66.891 33.518-96.24 33.518zm-33.177-37.089c1.517 2.267 11.791 7.089 33.177 7.089 32.797 0 64.841-10.879 71.581-20.605.841-1.214.74-1.485.468-2.208-2.311-6.161-14.584-10.142-31.266-10.142-16.798 0-36.21 3.902-51.926 10.438-17.104 7.113-21.716 13.933-22.034 15.428" fill="#3B3C3A"/><path d="M168.362 378.091c10.168-36.231-90.227-68.093-102.279-26.21-11.514 40.013 92.984 59.338 102.279 26.21" fill="#C2D54A"/><path d="M132.126 409.963h-.006c-24.986-.002-58.824-9.231-74.075-29.491-7.37-9.791-9.635-21.418-6.377-32.739 5.619-19.527 23.541-30.725 49.171-30.725 28.599 0 60.763 13.981 74.816 32.52 7.673 10.122 10.211 21.705 7.149 32.616-4.96 17.678-23.433 27.819-50.678 27.819zm-31.287-62.955c-6.628 0-18.083 1.171-20.341 9.021-.442 1.536-.726 3.423 1.515 6.4 7.277 9.667 29.755 17.532 50.109 17.534h.004c14.228 0 21.214-3.858 21.793-5.924.179-.636.722-2.571-2.171-6.389-8.483-11.189-31.795-20.642-50.909-20.642" fill="#3B3C3A"/><path d="M188.505 404.178a19.913 19.913 0 0 1-12.497-4.395c-8.618-6.91-10.004-19.496-3.094-28.115 24.162-30.14 18.601-80.619 18.543-81.126-1.333-10.965 6.478-20.909 17.443-22.242 10.978-1.334 20.939 6.501 22.269 17.465.334 2.737 7.747 67.521-27.046 110.923-3.951 4.927-9.757 7.49-15.618 7.49" fill="#C2D54A"/><path d="M188.505 419.178a35.113 35.113 0 0 1-21.879-7.69c-15.057-12.074-17.486-34.145-5.417-49.202 19.786-24.68 15.492-68.618 15.344-70.041-1.095-9.247 1.463-18.368 7.212-25.695 5.765-7.346 14.048-12.013 23.324-13.14a35.144 35.144 0 0 1 4.247-.258c17.664 0 32.592 13.243 34.724 30.805.363 2.989 8.47 73.834-30.234 122.113-6.678 8.33-16.636 13.108-27.321 13.108zm22.831-136.026c-.206 0-.417.013-.627.039-2.736.332-4.693 2.818-4.362 5.541.279 2.411 6.267 57.394-21.729 92.319a5.006 5.006 0 0 0 .774 7.03 4.931 4.931 0 0 0 3.113 1.097c.726 0 2.559-.183 3.913-1.872 30.894-38.537 23.935-99.122 23.861-99.73-.306-2.524-2.431-4.424-4.943-4.424" fill="#3B3C3A"/><path d="M318.285 98.617c.667-14.078 9.115-38.304 12.059-51.723 5.856-26.69-34.669-39.279-42.669-9.279-9-27-41.278-25.046-46.075-1.478-11.558-27.933-44.942-28.433-53.855 0-4.797-23.568-37.075-25.522-46.075 1.478-8.001-30-48.144-15.578-41.855 10.103 3.449 14.083 10.578 36.821 11.245 50.899 1.705 35.965-40.518 57.087-38.364 124.309 2.152 67.166 71.772 87.176 141.888 87.209h.176c70.117-.033 139.737-20.043 141.889-87.209 2.154-67.222-40.069-88.344-38.364-124.309" fill="#F6D729"/><path d="M214.767 325.135h-.095c-42.371-.02-77.094-6.766-103.3-20.051-33.95-17.209-52.507-45.453-53.668-81.678-1.374-42.866 13.505-68.835 25.46-89.702 7.504-13.098 13.431-23.443 12.913-34.376-.426-8.988-4.446-23.951-7.676-35.974-1.164-4.336-2.265-8.431-3.155-12.068-2.71-11.064-.406-21.996 6.488-30.781 7.218-9.199 18.496-14.691 30.171-14.691 7.382 0 14.083 2.133 19.65 6.028 6.917-5.698 15.445-8.929 24.59-8.929 7.937 0 15.31 2.486 21.358 6.826C194.725 3.529 203.761 0 213.536 0c10.205 0 19.763 3.702 27.55 10.295 6.187-4.684 13.843-7.382 22.114-7.382 9.088 0 17.565 3.191 24.459 8.822 5.81-4.199 12.875-6.506 20.681-6.506 11.492 0 22.607 5.289 29.733 14.148 6.924 8.608 9.383 19.522 6.923 30.731-1.075 4.901-2.74 10.828-4.501 17.103-3.058 10.888-6.864 24.439-7.227 32.116-.518 10.934 5.409 21.279 12.913 34.377 11.955 20.867 26.834 46.836 25.46 89.702-1.161 36.225-19.719 64.469-53.668 81.678-26.206 13.285-60.929 20.031-103.206 20.051zM121.905 35.814c-2.386 0-5.087 1.32-6.569 3.21-1.164 1.482-1.457 3.063-.952 5.126.812 3.312 1.869 7.251 2.99 11.42 3.793 14.116 8.09 30.115 8.669 42.338.933 19.673-7.705 34.749-16.849 50.709-11.114 19.4-22.608 39.459-21.506 73.829.812 25.307 12.995 43.586 37.248 55.88 21.658 10.979 52.66 16.791 89.655 16.809l.169 15-.006-15c36.995-.018 67.998-5.83 89.655-16.809 24.253-12.294 36.436-30.573 37.248-55.88 1.101-34.37-10.392-54.429-21.506-73.829-9.145-15.96-17.782-31.036-16.85-50.71.526-11.084 4.661-25.813 8.31-38.807 1.642-5.846 3.192-11.367 4.082-15.421.658-3-.253-4.575-.996-5.498-1.42-1.766-3.975-2.952-6.357-2.952-1.347 0-4.505 0-6.172 6.251a14.998 14.998 0 0 1-14.034 11.129c-6.642.179-12.593-3.964-14.689-10.25-1.972-5.915-5.802-9.446-10.245-9.446-1.694 0-5.759.605-6.902 6.216a14.999 14.999 0 0 1-28.558 2.743C224.118 33.118 218.027 30 213.536 30c-5.178 0-9.362 3.872-11.478 10.624-2.046 6.529-8.251 10.863-15.086 10.493a14.998 14.998 0 0 1-13.925-11.988c-1.143-5.611-5.208-6.216-6.902-6.216-4.443 0-8.273 3.531-10.245 9.446a14.978 14.978 0 0 1-14.69 10.25 15 15 0 0 1-14.034-11.129c-1.511-5.666-4.051-5.666-5.271-5.666" fill="#3B3C3A"/></svg>