<svg xmlns="http://www.w3.org/2000/svg" width="418.531" height="358.066" viewBox="0, 0, 418.531, 358.066"><path d="M410.149 331.331c0 14.765-91.815 26.735-205.075 26.735C91.814 358.066 0 346.096 0 331.331c0-14.77 91.814-26.74 205.074-26.74 113.26 0 205.075 11.97 205.075 26.74" fill="#D6D5D0"/><path d="M399.922 109.575C375.427-16.396 255.287 5.107 210.963 50.598 166.638 5.107 46.5-16.396 22.005 109.575-2.489 235.547 103.652 274.04 144.478 286.869c40.824 12.831 53.654 29.16 66.485 41.991 12.832-12.831 25.662-29.16 66.486-41.991 40.824-12.829 146.967-51.322 122.473-177.294" fill="#FAD916"/><path d="M210.963 343.861h-.001c-3.978 0-7.793-1.58-10.607-4.393-1.302-1.302-2.603-2.64-3.933-4.003-11.417-11.723-23.222-23.846-56.441-34.286-25.073-7.878-61.84-21.596-91.53-49.62-17.68-16.688-30.337-36.275-37.62-58.215-8.534-25.71-9.728-54.857-3.55-86.631C14.309 70.567 29.17 42.881 51.45 24.424 70.737 8.445 95.244 0 122.321 0c31.528 0 64.831 11.678 88.642 30.483C234.773 11.678 268.076 0 299.605 0c27.074 0 51.581 8.446 70.871 24.427 22.281 18.459 37.142 46.144 44.17 82.286 6.178 31.774 4.984 60.921-3.551 86.631-7.282 21.94-19.939 41.527-37.62 58.215-29.689 28.024-66.456 41.741-91.529 49.621-33.217 10.439-45.024 22.561-56.441 34.283-1.331 1.365-2.633 2.703-3.936 4.005a15.002 15.002 0 0 1-10.606 4.393zM122.321 30c-25.98 0-71.645 10.71-85.591 82.438C21.336 191.61 58.051 243.986 148.975 272.56c33.47 10.518 50.063 23.448 61.989 34.984 11.925-11.536 28.518-24.466 61.988-34.984 90.924-28.575 127.639-80.951 112.245-160.122C371.251 40.71 325.585 30 299.605 30c-28.488 0-59.793 12.484-77.899 31.066a14.998 14.998 0 0 1-21.487 0C182.113 42.484 150.808 30 122.321 30" fill="#3B3C3A"/><path d="M259.792 125.637c0 6.436-5.215 11.652-11.651 11.652-6.433 0-11.652-5.216-11.652-11.652 0-6.436 5.219-11.65 11.652-11.65 6.436 0 11.651 5.214 11.651 11.65m-71.005 0c0 6.436-5.215 11.652-11.652 11.652-6.434 0-11.651-5.216-11.651-11.652 0-6.436 5.217-11.65 11.651-11.65 6.437 0 11.652 5.214 11.652 11.65m22.826 29.972h-51.404s3.597 33.431 51.404 33.431c47.805 0 51.404-33.431 51.404-33.431h-51.404" fill="#3B3C3A"/></svg>