<svg xmlns="http://www.w3.org/2000/svg" width="422.922" height="421.389" viewBox="0, 0, 422.922, 421.389"><path d="M410.149 394.653c0 14.766-91.815 26.736-205.075 26.736C91.814 421.389 0 409.419 0 394.653c0-14.769 91.814-26.74 205.074-26.74 113.26 0 205.075 11.971 205.075 26.74" fill="#D6D5D0"/><path d="M315.876 157.375c17.274-8.796 41.085-25.542 47.691-45.696 6.605-20.155 45.996-20.412 44.301 9.217-1.696 29.628-30.906 64.478-60.801 76.553-29.894 12.075-48.906-31.053-31.191-40.074" fill="#C2D54A"/><path d="M336.717 214.566c-21.746 0-37.346-17.595-41.516-34.975-3.705-15.44 1.739-29.406 13.868-35.583 15.569-7.927 35.45-22.374 40.244-37.001 4.811-14.678 19.539-24.541 36.649-24.541 10.682 0 20.681 4.1 27.432 11.248 4.755 5.035 10.253 13.986 9.449 28.038-1.978 34.582-33.452 74.779-70.158 89.605-5.271 2.129-10.643 3.209-15.968 3.209zm-12.678-44.524c-.015 1.757.743 5.375 3.368 8.954 1.525 2.08 4.763 5.57 9.31 5.57 1.456 0 3.048-.345 4.732-1.025 25.614-10.346 50.134-40.614 51.443-63.502.107-1.867-.033-4.376-1.308-5.726-1.076-1.139-3.23-1.847-5.622-1.847-3.788 0-7.439 1.743-8.141 3.885-9.043 27.591-39.616 46.3-53.782 53.691" fill="#3B3C3A"/><path d="M227.627 126.146c-72.454 0-130.889 37.716-130.921 129.845-.005 14.165 71.115 17.172 72.466 5.815 4.226-35.507 24.408-60.822 58.455-60.822 34.048 0 54.23 25.315 58.456 60.822 1.351 11.357 72.471 8.35 72.466-5.815-.032-92.129-58.466-129.845-130.922-129.845" fill="#FFFFFE"/><path d="M313.694 283.753h-.003c-6.048 0-14.84-.362-22.377-2.086-15.271-3.494-19.374-11.765-20.126-18.089-1.703-14.31-9.357-47.594-43.561-47.594-34.203 0-41.857 33.284-43.56 47.594-.752 6.324-4.855 14.595-20.125 18.089-7.536 1.724-16.329 2.086-22.379 2.086-11.95 0-24.245-1.354-33.732-3.715-21.598-5.375-26.128-16.046-26.125-24.052.016-48.009 14.605-85.253 43.362-110.699 25.24-22.336 60.705-34.141 102.559-34.141 41.855 0 77.32 11.805 102.56 34.141 28.757 25.446 43.346 62.69 43.362 110.699.003 8.006-4.527 18.678-26.124 24.053-9.486 2.36-21.781 3.714-33.731 3.714zm-13.793-30.962c2.924.494 7.461.962 13.791.962 12.979 0 24.145-1.894 29.767-3.722-2.875-94.557-73.43-108.885-115.832-108.885-42.401 0-112.956 14.327-115.831 108.885 5.623 1.828 16.79 3.722 29.767 3.722 6.33 0 10.867-.468 13.791-.962 7.427-41.414 34.613-66.807 72.273-66.807 37.661 0 64.847 25.393 72.274 66.807" fill="#3B3C3A"/><path d="M199.635 313.839c0 38.291-31.042 69.333-69.334 69.333-38.291 0-69.333-31.042-69.333-69.333 0-38.292 31.042-69.334 69.333-69.334 38.292 0 69.334 31.042 69.334 69.334" fill="#70B7D3"/><path d="M130.301 398.172c-46.501 0-84.333-37.832-84.333-84.333 0-46.502 37.832-84.334 84.333-84.334 46.502 0 84.334 37.832 84.334 84.334 0 46.501-37.832 84.333-84.334 84.333zm0-138.667c-29.959 0-54.333 24.374-54.333 54.334 0 29.959 24.374 54.333 54.333 54.333 29.96 0 54.334-24.374 54.334-54.333 0-29.96-24.374-54.334-54.334-54.334" fill="#3B3C3A"/><path d="M391.743 313.839c0 38.291-31.042 69.333-69.334 69.333-38.291 0-69.333-31.042-69.333-69.333 0-38.292 31.042-69.334 69.333-69.334 38.292 0 69.334 31.042 69.334 69.334" fill="#70B7D3"/><path d="M322.409 398.172c-46.501 0-84.333-37.832-84.333-84.333 0-46.502 37.832-84.334 84.333-84.334 46.502 0 84.334 37.832 84.334 84.334 0 46.501-37.832 84.333-84.334 84.333zm0-138.667c-29.959 0-54.333 24.374-54.333 54.334 0 29.959 24.374 54.333 54.333 54.333 29.96 0 54.334-24.374 54.334-54.333 0-29.96-24.374-54.334-54.334-54.334" fill="#3B3C3A"/><path d="M160.502 19.724C121.501 24.767 20.31 76.395 47.948 137.288c16.555 36.475 53.281 33.728 71.89 26.535 29.997-11.594 61.998-31.612 83.998-46.936 22-15.324-3.334-102.335-43.334-97.163" fill="#C2D54A"/><path d="M95.717 183.252h-.002c-27.974-.001-49.789-14.123-61.426-39.765-9.073-19.989-7.907-41.262 3.373-61.519 24.565-44.115 90.761-73.221 120.917-77.12a41.642 41.642 0 0 1 5.34-.346c29.32 0 49.042 29.546 57.722 57.197 7.606 24.223 9.174 54.676-9.232 67.496-17.984 12.527-53.221 35.5-87.163 48.619-9.073 3.507-19.559 5.438-29.529 5.438zm68.202-148.75c-.496 0-.986.032-1.493.098-24.333 3.146-80.233 29.061-98.553 61.963-6.65 11.941-7.391 23.234-2.266 34.526 6.675 14.705 18.15 22.162 34.108 22.163h.002c6.269 0 13.089-1.247 18.712-3.42 30.888-11.938 63.691-33.325 80.628-45.111 2.784-3.573 3.961-22.834-6.333-45.221-6.983-15.186-16.719-24.998-24.805-24.998" fill="#3B3C3A"/><path d="M227.594 71.073c12.452 36.787 7.284 71.776-11.544 78.149-18.829 6.374-44.186-18.283-56.639-55.069-12.451-36.788-7.284-71.776 11.546-78.149 18.827-6.373 44.184 18.282 56.637 55.069" fill="#C2D54A"/><path d="M209.858 165.225c-25.256 0-51.238-26.628-64.655-66.262-15.595-46.075-6.59-87.848 20.945-97.167a34.212 34.212 0 0 1 11-1.796c25.255 0 51.237 26.63 64.654 66.264 15.596 46.073 6.592 87.845-20.942 97.166a34.246 34.246 0 0 1-11.002 1.795zM177.148 30c-.51 0-.962.07-1.382.212-7.01 2.372-13.149 26.625-2.147 59.132 10.001 29.542 27.775 45.881 36.239 45.881.51 0 .962-.069 1.383-.211 7.01-2.373 13.148-26.625 2.145-59.131C203.385 46.34 185.611 30 177.148 30M48.687 152.852c0 9.577-7.764 17.34-17.341 17.34-9.576 0-17.34-7.763-17.34-17.34 0-9.578 7.764-17.34 17.34-17.34 9.577 0 17.341 7.762 17.341 17.34m73.468-73.003c0 5.689-4.611 10.302-10.302 10.302-5.688 0-10.302-4.613-10.302-10.302 0-5.691 4.614-10.301 10.302-10.301 5.691 0 10.302 4.61 10.302 10.301" fill="#3B3C3A"/></svg>