<svg xmlns="http://www.w3.org/2000/svg" width="418.936" height="431.054" viewBox="0, 0, 418.936, 431.054"><path d="M410.15 404.32c0 14.766-91.814 26.734-205.074 26.734C91.816 431.054 0 419.086 0 404.32c0-14.77 91.816-26.74 205.076-26.74 113.26 0 205.074 11.97 205.074 26.74" fill="#D6D5D0"/><path d="M174.897 330.336s-15.334 24 1.333 36.666c18.825 14.308 39.999-5.332 39.999-5.332s6.181 18.517 28 21.331c20.667 2.669 26-17.333 26-17.333s12 20.667 32 20.667 26.667-22.667 26.667-22.667 25.307 17.162 40.001 3.334c11.335-10.667 12.665-25.334 0-38.001-12.665-12.664 39.888-47.257 34.668-104.667-5.333-58.666-58.001-98.666-125.334-98.666s-120.667 36.666-130.666 90.666c-9.999 54 42.833 86.668 27.332 114.002" fill="#FFFFFE"/><path d="M302.229 401.335c-12.246 0-22.64-5.189-30.561-11.609-5.808 4.9-13.623 8.52-23.74 8.52-1.835 0-3.725-.123-5.62-.368-13.885-1.79-23.857-8.343-30.52-15.54-5.699 2.691-12.707 4.884-20.422 4.884h-.003c-8.838-.002-16.983-2.787-24.21-8.279-11.525-8.758-16.065-22.754-12.455-38.399 2.02-8.755 6.02-15.767 7.244-17.779 2.702-5.142-1.926-14.279-9.829-28.631-10.804-19.619-25.601-46.49-19.297-80.533 5.554-29.994 23.327-56.695 50.046-75.185 26.232-18.153 59.21-27.748 95.369-27.748 36.102 0 69.888 10.832 95.135 30.499 26.165 20.383 42.194 49.436 45.138 81.807 3.543 38.973-15.508 68.104-28.114 87.381-2.49 3.807-5.66 8.654-7.371 11.902 6.624 8.036 10.024 17.11 9.881 26.504-.162 10.631-5.036 20.989-13.724 29.164-6.578 6.19-15.124 9.463-24.713 9.463-6.857 0-13.484-1.685-19.047-3.76-6.783 9.313-17.611 17.707-33.187 17.707zm-19.06-43.257c.503.797 8.57 13.257 19.06 13.257 8.078 0 11.972-11.009 12.297-11.974 1.288-4.639 4.686-8.235 9.204-9.906 4.543-1.684 9.575-.92 13.585 1.797 2.354 1.564 10.689 6.136 17.148 6.136 2.762 0 3.703-.884 4.155-1.31 1.929-1.817 4.237-4.637 4.285-7.772.051-3.326-2.481-6.566-4.613-8.699-3.961-3.961-9.732-12.73-3.861-26.949 2.387-5.778 6.31-11.776 10.853-18.723 11.558-17.674 25.942-39.67 23.344-68.244-4.55-50.061-49.947-85.023-110.395-85.023-60.65 0-107.234 31.505-115.917 78.396-4.351 23.5 6.034 42.361 16.078 60.6 10.29 18.685 20.93 38.008 9.553 58.07a9.885 9.885 0 0 1-.407.678c.001 0-2.682 4.379-3.716 9.369-1.101 5.312.455 6.496 1.484 7.277 1.968 1.496 3.837 2.164 6.059 2.164 6.25 0 13.262-5.25 14.662-6.549 3.816-3.541 9.105-5.138 14.12-3.748 4.975 1.381 8.799 4.936 10.275 9.872.621 1.533 4.5 9.878 15.726 11.328.626.08 1.225.121 1.78.121 5.111 0 7.156-4.463 7.832-6.551 1.403-6.002 6.216-10.363 12.325-11.25 6.116-.893 12.039 2.248 15.084 7.633" fill="#3B3C3A"/><path d="M46.897 219.669s-15.334 23.999 1.333 36.667c18.825 14.306 39.999-5.335 39.999-5.335s6.181 18.518 28 21.334c20.667 2.666 26-17.333 26-17.333s12 20.666 32 20.666 26.667-22.666 26.667-22.666 25.307 17.16 40.001 3.334c11.335-10.667 12.665-25.336 0-38.001s39.888-47.259 34.668-104.667C270.232 55 217.564 15 150.231 15S29.564 51.668 19.565 105.668c-9.999 54 42.833 86.668 27.332 114.001" fill="#FFFFFE"/><path d="M174.229 290.668c-12.244 0-22.64-5.192-30.56-11.608-5.809 4.9-13.623 8.52-23.743 8.52a43.92 43.92 0 0 1-5.616-.368c-13.888-1.793-23.859-8.343-30.523-15.542-5.698 2.691-12.708 4.884-20.424 4.884h-.001c-8.837 0-16.982-2.785-24.208-8.277-11.526-8.76-16.067-22.756-12.456-38.399 2.02-8.755 6.02-15.765 7.244-17.779 2.702-5.142-1.926-14.279-9.829-28.631-10.804-19.619-25.601-46.49-19.297-80.533C10.37 72.941 28.143 46.24 54.862 27.75 81.094 9.595 114.072 0 150.231 0c36.102 0 69.888 10.832 95.136 30.5 26.164 20.382 42.194 49.435 45.137 81.81 3.543 38.969-15.507 68.1-28.114 87.375-2.489 3.809-5.66 8.658-7.371 11.906 6.623 8.032 10.024 17.106 9.881 26.502-.162 10.633-5.035 20.991-13.724 29.166-6.578 6.19-15.124 9.461-24.712 9.461-6.858 0-13.486-1.683-19.048-3.759-6.783 9.312-17.611 17.707-33.187 17.707zm-19.06-43.256c.503.797 8.57 13.256 19.06 13.256 8.079 0 11.972-11.01 12.297-11.973 1.288-4.639 4.686-8.235 9.204-9.906 4.543-1.684 9.575-.92 13.584 1.797 2.355 1.564 10.689 6.134 17.15 6.134 2.762 0 3.703-.884 4.154-1.31 1.929-1.815 4.238-4.635 4.285-7.772.051-3.324-2.481-6.564-4.612-8.695-3.963-3.965-9.733-12.735-3.861-26.951 2.386-5.778 6.31-11.778 10.853-18.725 11.557-17.674 25.941-39.67 23.344-68.242C256.076 64.963 210.679 30 150.231 30c-60.65 0-107.233 31.505-115.917 78.398-4.352 23.5 6.034 42.361 16.078 60.6 10.29 18.685 20.93 38.008 9.553 58.07a9.885 9.885 0 0 1-.407.678c.001 0-2.682 4.379-3.716 9.369-1.101 5.312.455 6.496 1.485 7.277 1.967 1.496 3.834 2.162 6.056 2.162 5.961 0 12.717-4.824 14.699-6.584 3.788-3.605 9.007-5.181 14.058-3.826 5.025 1.352 8.815 5.008 10.302 9.985.621 1.533 4.5 9.88 15.727 11.329a13.9 13.9 0 0 0 1.777.122c5.113 0 7.158-4.463 7.834-6.551 1.402-6.002 6.215-10.363 12.324-11.25 6.12-.901 12.038 2.248 15.085 7.633" fill="#3B3C3A"/><path d="M197.177 84.791c0 6.435-5.214 11.652-11.65 11.652-6.434 0-11.652-5.217-11.652-11.652 0-6.436 5.218-11.651 11.652-11.651 6.436 0 11.65 5.215 11.65 11.651m-71.005 0c0 6.435-5.214 11.652-11.652 11.652-6.434 0-11.65-5.217-11.65-11.652 0-6.436 5.216-11.651 11.65-11.651 6.438 0 11.652 5.215 11.652 11.651m22.827 29.971H97.594s3.598 33.432 51.405 33.432c47.804 0 51.404-33.432 51.404-33.432h-51.404" fill="#3B3C3A"/></svg>