<svg xmlns="http://www.w3.org/2000/svg" width="419.242" height="412.665" viewBox="0, 0, 419.242, 412.665"><path d="M415.342 385.929c0 14.765-91.814 26.736-205.074 26.736-113.26 0-205.076-11.971-205.076-26.736 0-14.769 91.816-26.74 205.076-26.74 113.26 0 205.074 11.971 205.074 26.74" fill="none"/><path d="M166.483 121.511c-.627 49.328 24.477 100.901 58.047 119.241 38.799 21.197 90.365 29.906 132.851 13.919 27.465-10.334 49.678-3.283 46.572 23.677-7.696 66.824-118.648 149.183-245.318 79.524-128.739-70.797-72.44-198.439-54.383-226.843 23.639-37.183 62.761-51.125 62.231-9.518" fill="#F6D729"/><path d="M255.738 399.347c-35.042 0-70.145-9.531-104.331-28.332-45.585-25.068-74.238-59.392-85.161-102.019-7.093-27.681-6.463-57.853 1.872-89.676 6.376-24.34 16.307-45.063 23.476-56.338 16.182-25.454 38.996-41.9 58.122-41.9 8.361 0 15.736 2.994 21.33 8.66 7.104 7.195 10.614 17.947 10.436 31.959-.556 43.682 21.512 90.193 50.239 105.887 23.983 13.103 51.68 20.319 77.986 20.319 15.301 0 29.564-2.448 42.391-7.275 9.707-3.652 18.937-5.504 27.436-5.504 12.833 0 23.405 4.251 30.575 12.294 5.052 5.668 10.671 15.932 8.746 32.642-3.333 28.939-22.003 58.617-51.223 81.426-31.278 24.412-71.015 37.857-111.894 37.857zM149.716 111.082c-6.053 0-20.664 8.897-32.806 27.994-.377.595-37.58 60.124-21.603 122.472 8.784 34.278 32.522 62.265 70.556 83.181 29.707 16.336 59.945 24.618 89.875 24.618 34.222 0 67.404-11.189 93.435-31.507 22.587-17.629 37.495-40.512 39.879-61.209.502-4.359.015-7.73-1.338-9.246-1.26-1.414-4.317-2.257-8.18-2.257-4.809 0-10.642 1.239-16.871 3.582-16.216 6.102-34.033 9.197-52.956 9.197-31.246 0-64.05-8.521-92.369-23.992-18.944-10.349-36.042-29.739-48.142-54.597-11.754-24.146-18.044-51.847-17.712-77.999.085-6.67-1.143-9.429-1.613-10.234a3.578 3.578 0 0 0-.155-.003" fill="#3B3C3A"/><path d="M48.972 31.198c27.331-17.539 97.889-24.481 120.333-2.037 22.444 22.445 25.998 61.37 18.666 88.867H82.399c21.508-34.593 24.602-68.375-27.432-56.527-43.256 9.85-25.104-18.042-5.995-30.303" fill="#E46C79"/><path d="M187.971 133.028H82.399a15 15 0 0 1-12.739-22.919c12.382-19.916 13.367-31.796 11.903-34.43-.236-.426-2.561-1.594-7.953-1.594-4.21 0-9.363.688-15.313 2.043-7.214 1.642-13.262 2.44-18.493 2.44-18.883 0-24.177-11.098-25.575-15.87-5.267-17.956 14.269-36.185 26.643-44.124C58.453 7.291 89.031 0 118.771 0c19.428 0 45.806 3.219 61.14 18.555 27.18 27.18 30.745 72.62 22.553 103.338a14.997 14.997 0 0 1-14.493 11.135zm-81.126-30h68.797c2.81-21.865-1.702-48.018-16.943-63.26C153.976 35.046 141.007 30 118.771 30c-23.27 0-49.217 5.814-61.697 13.823a47.285 47.285 0 0 0-3.759 2.682c7.473-1.606 14.293-2.42 20.295-2.42 20.428 0 29.86 9.256 34.175 17.021 6.869 12.357 4.624 27.606-.94 41.922" fill="#3B3C3A"/><path d="M64.634 47.831c0 9.564-7.753 17.318-17.316 17.318C37.754 65.149 30 57.395 30 47.831c0-9.564 7.754-17.317 17.318-17.317 9.563 0 17.316 7.753 17.316 17.317" fill="#FFFFFE"/><path d="M47.318 30.514c9.563 0 17.316 7.753 17.316 17.317s-7.753 17.318-17.316 17.318C37.754 65.149 30 57.395 30 47.831c0-9.564 7.754-17.317 17.318-17.317zm0-30C21.227.514 0 21.741 0 47.831c0 26.091 21.227 47.318 47.318 47.318 26.091 0 47.316-21.227 47.316-47.318 0-26.09-21.225-47.317-47.316-47.317" fill="#3B3C3A"/><path d="M191.303 116.695H72.638c-11.783 0-21.334 9.552-21.334 21.334 0 11.783 9.551 21.333 21.334 21.333h118.665c11.783 0 21.334-9.55 21.334-21.333 0-11.782-9.551-21.334-21.334-21.334" fill="#FFFFFE"/><path d="M191.303 174.362H72.638c-20.034 0-36.334-16.298-36.334-36.333 0-20.034 16.3-36.334 36.334-36.334h118.665c20.034 0 36.334 16.3 36.334 36.334 0 20.035-16.3 36.333-36.334 36.333zM72.638 131.695a6.342 6.342 0 0 0-6.334 6.334 6.34 6.34 0 0 0 6.334 6.333h118.665a6.34 6.34 0 0 0 6.334-6.333 6.342 6.342 0 0 0-6.334-6.334H72.638m87.177 89.981c0 6.436-5.215 11.653-11.653 11.653-6.433 0-11.65-5.217-11.65-11.653 0-6.435 5.217-11.65 11.65-11.65 6.438 0 11.653 5.215 11.653 11.65m45.824 81.336c-1.419 0-2.851-.026-4.298-.083-8.278-.326-14.725-7.3-14.4-15.578.324-8.276 7.287-14.719 15.576-14.4 25.493 1.001 46.372-10.793 61.611-19.403 2.349-1.327 4.569-2.582 6.685-3.723 7.293-3.93 16.391-1.203 20.321 6.089 3.93 7.293 1.204 16.391-6.089 20.32-1.851.998-3.944 2.18-6.158 3.432-16.596 9.378-41.316 23.346-73.248 23.346" fill="#3B3C3A"/></svg>