<svg xmlns="http://www.w3.org/2000/svg" width="410.151" height="438.447" viewBox="0, 0, 410.151, 438.447"><path d="M410.151 411.713c0 14.766-91.816 26.734-205.075 26.734C91.816 438.447 0 426.479 0 411.713c0-14.77 91.816-26.74 205.076-26.74 113.259 0 205.075 11.97 205.075 26.74" fill="#D6D5D0"/><path d="M246.137 130.455c-17.408-4.855-16.214-38.48-12.185-59.322C240.598 36.766 236.596 15 194.807 15c-41.787 0-45.789 21.766-39.144 56.133 4.031 20.842 5.224 54.467-12.186 59.322-17.408 4.856-40.25 11.697-40.25 28.883h183.162c0-17.186-22.841-24.027-40.252-28.883" fill="#FFFFFE"/><path d="M286.389 174.338H103.227c-8.284 0-15-6.717-15-15 0-28.986 33.187-38.303 51.112-43.303 2.96-2.517 6.07-18.926 1.597-42.055-3.754-19.416-5.851-41.371 7.061-57.017C157.416 5.549 172.727 0 194.807 0c22.081 0 37.394 5.549 46.813 16.963 12.911 15.646 10.813 37.603 7.059 57.017-4.471 23.127-1.362 39.538 1.597 42.057 17.926 4.998 51.113 14.313 51.113 43.301 0 8.283-6.716 15-15 15zm-137.069-30h90.974c-9.414-3.26-20.396-12.209-23.184-35.787-1.943-16.42.832-33.629 2.114-40.266 3.303-17.078 3.06-27.619-.744-32.228C215.21 32.094 207.025 30 194.807 30c-12.217 0-20.401 2.094-23.671 6.057-3.804 4.609-4.048 15.15-.746 32.228 1.283 6.635 4.059 23.842 2.116 40.266-2.788 23.578-13.771 32.527-23.186 35.787" fill="#3B3C3A"/><path d="M362.755 201.082c0 16.568-13.432 30-30 30H56.865c-16.569 0-30-13.432-30-30v-11.744c0-16.568 13.431-30 30-30h275.89c16.568 0 30 13.432 30 30v11.744" fill="#E46C79"/><path d="M332.755 246.082H56.865c-24.815 0-45-20.187-45-45v-11.744c0-24.814 20.185-45 45-45h275.89c24.814 0 45 20.186 45 45v11.744c0 24.813-20.186 45-45 45zm-275.89-71.744c-8.273 0-15 6.728-15 15v11.744c0 8.272 6.727 15 15 15h275.89c8.272 0 15-6.728 15-15v-11.744c0-8.272-6.728-15-15-15H56.865" fill="#3B3C3A"/><path d="M194.809 231.082H125.95c1.5 42.49 23.999 79.004 68.859 79.004s67.359-36.514 68.859-79.004h-68.859" fill="#E46C79"/><path d="M194.809 325.086c-25.718 0-47.314-10.119-62.455-29.264-13.099-16.562-20.497-38.765-21.395-64.211a15 15 0 0 1 14.991-15.529h137.718a14.998 14.998 0 0 1 14.991 15.529c-.898 25.446-8.296 47.649-21.395 64.211-15.14 19.145-36.737 29.264-62.455 29.264zm-52.153-79.004c4.91 25.803 20.421 49.004 52.153 49.004s47.243-23.201 52.153-49.004H142.656" fill="#3B3C3A"/><path d="M263.668 231.082c-3.68 13.443-11.081 44.539-11.081 44.539 10.401 2.904 20.819 12.177 20.819 36.727 0 31.177-30.461 40.732-78.597 40.732-48.136 0-78.597-9.555-78.597-40.732 0-24.55 10.418-33.823 20.819-36.727 0 0-7.401-31.096-11.081-44.539-31.681 8.554-54.421 27.716-54.421 83.629 0 66.814 62.101 81.266 123.28 81.266 64.821 0 123.28-14.452 123.28-81.266 0-55.913-22.74-75.075-54.421-83.629" fill="#FFFFFE"/><path d="M194.809 410.977c-39.065 0-68.984-5.643-91.464-17.25-30.628-15.813-46.816-43.137-46.816-79.016 0-29.713 5.997-52.145 18.334-68.578 10.638-14.174 26.07-23.834 47.177-29.533 7.977-2.157 16.195 2.55 18.377 10.521 3.705 13.529 10.902 43.746 11.207 45.028 1.865 7.839-2.797 15.751-10.559 17.919-6.538 1.827-9.853 9.321-9.853 22.28 0 7.699 0 25.732 63.597 25.732s63.597-18.033 63.597-25.732c0-12.959-3.315-20.453-9.853-22.28-7.762-2.168-12.424-10.08-10.558-17.919.304-1.282 7.502-31.499 11.206-45.028 2.181-7.971 10.395-12.678 18.378-10.521 21.106 5.699 36.538 15.359 47.176 29.533 12.337 16.433 18.334 38.865 18.334 68.578 0 36.547-15.255 63.113-45.341 78.959-22.111 11.644-52.511 17.307-92.939 17.307zm-79.296-160.309c-15.694 7.592-28.984 23.18-28.984 64.043 0 28.447 11.224 66.266 108.28 66.266 35.437 0 61.264-4.532 78.958-13.85 20.005-10.535 29.322-27.191 29.322-52.416 0-40.863-13.29-56.451-28.984-64.043a2563.035 2563.035 0 0 0-4.158 16.926c9.488 6.949 18.459 20.05 18.459 44.754 0 20.843-10.363 36.638-29.967 45.679-14.874 6.858-35.093 10.053-63.63 10.053s-48.756-3.195-63.63-10.053c-19.604-9.041-29.967-24.836-29.967-45.679 0-24.704 8.971-37.805 18.459-44.754a2563.035 2563.035 0 0 0-4.158-16.926" fill="#3B3C3A"/></svg>