<svg xmlns="http://www.w3.org/2000/svg" width="163.861" height="206.184" viewBox="0, 0, 163.861, 206.184"><path d="M67.586 190.111l3.037-33.092.03-.342h-8.638l-.677 32.647c-4.5 1.361-14.63 4.855-12.243 8.919.452.774 1.262 1.169 2.405 1.169 2.184 0 5.559-1.523 8.229-2.942-.833 2.8-1.462 6.252-.345 8.176.581 1.024 1.612 1.538 2.532 1.538 2.023 0 3.36-3.111 3.974-9.245 2.673 2.775 6.166 5.833 8.546 5.834.713 0 1.31-.24 1.779-.72.482-.498.694-1.119.628-1.837-.271-3.092-6.451-8.017-9.257-10.105m34.936-.787l-.664-31.843-.014-.804h-8.636l3.068 33.434c-2.808 2.088-8.988 7.013-9.255 10.105-.063.728.146 1.346.627 1.839.465.478 1.063.718 1.776.718 2.379-.001 5.874-3.062 8.552-5.834.309 3.121 1.127 9.555 4.251 9.221 1.002-.137 1.758-.645 2.248-1.511 1.123-1.938.49-5.383-.346-8.176 2.675 1.418 6.052 2.939 8.233 2.939 1.141 0 1.95-.392 2.405-1.169 2.389-4.062-7.739-7.558-12.245-8.919" fill="#DF4E66"/><path d="M127.674 85.469l-45.74-7.309-45.744 7.309s-16.089 15.847-14.141 46.799c1.952 30.955 30.066 46.068 59.885 46.068 29.814 0 57.926-15.113 59.878-46.068 1.951-30.952-14.138-46.799-14.138-46.799" fill="#EFA67F"/><path d="M43.222 134.192c1.167.704 2.206 1.261 3.256 1.611a9.533 9.533 0 0 0 6.194 0c1.054-.346 2.09-.908 3.259-1.61l.25.359c-.53 1.723-1.516 3.123-2.688 4.082-1.175.959-2.548 1.469-3.918 1.466-1.369.003-2.738-.507-3.917-1.466-1.167-.959-2.161-2.361-2.684-4.082l.248-.36m21.569 0c1.169.704 2.202 1.261 3.257 1.611a9.535 9.535 0 0 0 6.197 0c1.047-.346 2.088-.908 3.254-1.61l.248.359c-.528 1.723-1.517 3.123-2.683 4.082-1.176.959-2.551 1.469-3.92 1.466-1.366.003-2.744-.507-3.915-1.466-1.169-.959-2.16-2.361-2.688-4.082l.25-.36m21.567 0c1.171.704 2.21 1.261 3.255 1.611a9.552 9.552 0 0 0 3.101.518 9.465 9.465 0 0 0 3.095-.518c1.053-.346 2.088-.908 3.257-1.61l.253.359c-.528 1.723-1.52 3.123-2.686 4.082-1.178.959-2.548 1.469-3.919 1.466-1.37.003-2.741-.507-3.914-1.466-1.17-.959-2.162-2.361-2.686-4.082l.244-.36m21.571 0c1.171.704 2.205 1.261 3.255 1.611a9.54 9.54 0 0 0 6.2 0c1.048-.346 2.087-.908 3.252-1.61l.251.359c-.527 1.723-1.52 3.123-2.684 4.082-1.18.959-2.55 1.469-3.92 1.466-1.369.003-2.743-.507-3.913-1.466-1.169-.959-2.165-2.361-2.685-4.082l.244-.36m-53.924 16.587c1.17.703 2.209 1.262 3.26 1.607a9.443 9.443 0 0 0 3.097.53 9.406 9.406 0 0 0 3.099-.53c1.042-.343 2.082-.904 3.253-1.607l.251.354c-.528 1.729-1.521 3.124-2.688 4.087-1.175.96-2.545 1.467-3.915 1.465-1.371.002-2.743-.505-3.917-1.465a8.462 8.462 0 0 1-2.681-4.087l.241-.354m21.567 0c1.175.703 2.211 1.262 3.258 1.607a9.454 9.454 0 0 0 3.099.53 9.447 9.447 0 0 0 3.1-.53c1.046-.343 2.085-.904 3.257-1.607l.248.354c-.528 1.729-1.519 3.124-2.691 4.087-1.171.96-2.545 1.467-3.914 1.465-1.368.002-2.741-.505-3.914-1.465-1.17-.963-2.163-2.359-2.684-4.087l.241-.354m21.571 0c1.171.703 2.208 1.262 3.26 1.607a9.393 9.393 0 0 0 3.096.53 9.412 9.412 0 0 0 3.094-.53c1.054-.343 2.093-.904 3.261-1.607l.246.354c-.525 1.729-1.511 3.124-2.682 4.087-1.172.96-2.551 1.467-3.919 1.465-1.371.002-2.74-.505-3.92-1.465-1.162-.963-2.156-2.359-2.682-4.087l.246-.354" fill="#FFFFFE"/><path d="M135.013 25.632c6.18-.757 17.178-2.975 15.371-5.948-1.7-2.793-10.849-.849-10.849-.849s11.751-5.524 8.834-9.013c-1.759-2.108-13.205 4.482-13.205 4.482.807-.759 11.302-10.764 8.135-13.739-3.464-3.256-10.902 8.401-17.628 13.454-10.107 7.603-77.246 7.697-87.484 0C31.466 8.966 24.024-2.691 20.559.565c-3.165 2.975 7.33 12.98 8.136 13.739 0 0-11.443-6.59-13.204-4.482-2.919 3.489 8.836 9.013 8.836 9.013s-9.151-1.944-10.848.849c-1.808 2.973 9.187 5.191 15.369 5.948 0 0-29.482 34.119-9.194 66.276 13.4 21.235 45.768 24.15 62.275 24.15 16.512 0 48.877-2.915 62.275-24.15 20.291-32.157-9.191-66.276-9.191-66.276" fill="#EFA67F"/><path d="M139.908 62.984c0 11.822-9.587 21.406-21.404 21.406-11.82 0-21.403-9.584-21.403-21.406 0-11.821 9.583-21.406 21.403-21.406 11.817 0 21.404 9.585 21.404 21.406" fill="#FFFFFE"/><path d="M131.376 62.53c0 5.353-4.337 9.697-9.692 9.697-5.352 0-9.694-4.344-9.694-9.697 0-5.358 4.342-9.699 9.694-9.699 5.355 0 9.692 4.341 9.692 9.699" fill="#1A1919"/><path d="M128.5 59.62a2.362 2.362 0 0 1-4.723 0 2.363 2.363 0 0 1 2.358-2.358 2.36 2.36 0 0 1 2.365 2.358m14.606 11.499c-1.082-.393-1.666-1.512-1.421-2.535.255-1.013 1.3-1.729 2.441-1.567 1.137.157 1.917 1.322 1.606 2.569-.31 1.255-1.544 1.926-2.626 1.533m-4.029 7.531c-.896-.719-1.092-1.976-.517-2.855.575-.884 1.793-1.214 2.822-.691 1.022.526 1.371 1.878.669 2.954-.696 1.087-2.076 1.313-2.974.592m-6.25 5.824c-.614-.975-.4-2.219.43-2.875.827-.648 2.094-.566 2.895.257.796.83.689 2.224-.316 3.015-1.015.799-2.397.576-3.009-.397m-7.804 3.478c-.265-1.128.352-2.233 1.344-2.576.991-.351 2.156.133 2.648 1.184.484 1.032-.062 2.327-1.279 2.753-1.217.421-2.452-.246-2.713-1.361m-8.516.744c.111-1.151 1.054-2.001 2.102-2.005 1.061-.008 2.008.838 2.126 1.983.123 1.144-.814 2.176-2.107 2.184-1.283.004-2.233-1.022-2.121-2.162m-8.295-2.05c.481-1.049 1.644-1.544 2.636-1.205.996.332 1.623 1.441 1.37 2.564-.253 1.116-1.478 1.793-2.7 1.38-1.221-.419-1.788-1.694-1.306-2.739m-7.178-4.636c.798-.836 2.062-.93 2.895-.283.827.643 1.062 1.888.459 2.865-.61.974-1.99 1.213-3.008.425-1.021-.78-1.137-2.174-.346-3.007m-5.284-6.711c1.021-.535 2.243-.214 2.825.664.574.881.398 2.134-.494 2.859-.891.736-2.272.516-2.98-.562-.709-1.075-.369-2.433.649-2.961m-2.81-8.071c1.132-.164 2.188.538 2.443 1.554.266 1.022-.313 2.147-1.395 2.55-1.081.397-2.312-.268-2.638-1.508-.318-1.248.449-2.425 1.59-2.596m-.052-8.539c1.129.197 1.904 1.208 1.824 2.258-.077 1.044-.997 1.927-2.153 1.953-1.148.026-2.098-.996-2-2.276.102-1.283 1.201-2.143 2.329-1.935m2.73-8.099c1.005.567 1.403 1.762.983 2.733-.419.96-1.567 1.489-2.665 1.141-1.095-.344-1.668-1.625-1.158-2.802.511-1.188 1.841-1.641 2.84-1.072m5.211-6.768c.769.86.762 2.128.051 2.9-.71.778-1.976.905-2.897.225-.923-.688-1.052-2.081-.184-3.027.877-.956 2.271-.956 3.03-.098m7.129-4.715c.447 1.062.021 2.257-.899 2.757-.919.509-2.16.227-2.806-.727-.657-.949-.328-2.314.799-2.924 1.136-.615 2.465-.17 2.906.894m8.267-2.141c.081 1.152-.713 2.139-1.752 2.329-1.03.163-2.102-.508-2.413-1.616-.303-1.109.447-2.289 1.719-2.501 1.271-.218 2.373.643 2.446 1.788m8.53.661c-.306 1.111-1.371 1.791-2.409 1.628-1.034-.176-1.835-1.153-1.769-2.304.065-1.142 1.16-2.022 2.435-1.813 1.266.21 2.038 1.378 1.743 2.489m7.834 3.386c-.642.955-1.875 1.253-2.798.762-.934-.502-1.362-1.693-.93-2.759.439-1.066 1.763-1.523 2.897-.914 1.136.603 1.483 1.962.831 2.911m6.321 5.754c-.923.699-2.185.576-2.907-.193-.708-.777-.738-2.039.029-2.905.751-.864 2.153-.874 3.03.076.88.933.761 2.331-.152 3.022m4.107 7.491c-1.096.359-2.25-.159-2.678-1.126-.427-.958-.033-2.166.962-2.738.998-.574 2.327-.122 2.845 1.046.529 1.179-.033 2.462-1.129 2.818m1.447 8.422c-1.157-.013-2.074-.89-2.169-1.93-.087-1.054.672-2.068 1.805-2.285 1.123-.21 2.239.644 2.344 1.922.115 1.283-.836 2.308-1.98 2.293m-77.701.304c0 11.822-9.584 21.406-21.407 21.406-11.82 0-21.402-9.584-21.402-21.406 0-11.821 9.582-21.406 21.402-21.406 11.823 0 21.407 9.585 21.407 21.406" fill="#FFFFFE"/><path d="M58.233 62.53c0 5.353-4.338 9.697-9.692 9.697-5.356 0-9.695-4.344-9.695-9.697 0-5.358 4.339-9.699 9.695-9.699 5.354 0 9.692 4.341 9.692 9.699" fill="#1A1919"/><path d="M55.353 59.62a2.357 2.357 0 0 1-2.361 2.356 2.358 2.358 0 0 1-2.357-2.356 2.36 2.36 0 0 1 4.718 0M69.96 71.119c-1.08-.393-1.667-1.512-1.423-2.535.258-1.013 1.304-1.729 2.442-1.567 1.139.157 1.918 1.322 1.608 2.569-.311 1.255-1.543 1.926-2.627 1.533m-4.026 7.531c-.901-.719-1.092-1.976-.518-2.855.57-.884 1.793-1.214 2.818-.691 1.025.526 1.373 1.878.669 2.954-.694 1.087-2.075 1.313-2.969.592m-6.255 5.824c-.613-.975-.397-2.219.433-2.875.824-.648 2.093-.566 2.896.257.794.83.685 2.224-.317 3.015-1.012.799-2.399.576-3.012-.397m-7.801 3.478c-.266-1.128.353-2.233 1.344-2.576.993-.351 2.157.133 2.649 1.184.482 1.032-.064 2.327-1.282 2.753-1.213.421-2.449-.246-2.711-1.361m-8.515.744c.11-1.151 1.053-2.001 2.104-2.005 1.058-.008 2.006.838 2.125 1.983.121 1.144-.819 2.176-2.111 2.184-1.281.004-2.231-1.022-2.118-2.162m-8.297-2.05c.483-1.049 1.645-1.544 2.638-1.205.996.332 1.623 1.441 1.366 2.564-.248 1.116-1.474 1.793-2.697 1.38-1.221-.419-1.788-1.694-1.307-2.739m-7.177-4.636c.796-.836 2.063-.93 2.898-.283.824.643 1.059 1.888.452 2.865-.605.974-1.988 1.213-3.005.425-1.019-.78-1.137-2.174-.345-3.007m-5.283-6.711c1.019-.535 2.241-.214 2.824.664.578.881.398 2.134-.494 2.859-.891.736-2.275.516-2.981-.562-.707-1.075-.37-2.433.651-2.961m-2.812-8.071c1.135-.164 2.189.538 2.446 1.554.266 1.022-.315 2.147-1.397 2.55-1.082.397-2.312-.268-2.638-1.508-.318-1.248.447-2.425 1.589-2.596m-.05-8.539c1.128.197 1.902 1.208 1.823 2.258-.079 1.044-.998 1.927-2.154 1.953-1.147.026-2.097-.996-1.999-2.276.101-1.283 1.2-2.143 2.33-1.935m2.728-8.099c1.005.567 1.403 1.762.986 2.733-.422.96-1.568 1.489-2.667 1.141-1.097-.344-1.671-1.625-1.157-2.802.51-1.188 1.843-1.641 2.838-1.072m5.216-6.768c.766.86.758 2.128.047 2.9-.71.778-1.975.905-2.898.225-.922-.688-1.05-2.081-.181-3.027.873-.956 2.271-.956 3.032-.098m7.123-4.715c.448 1.062.021 2.257-.899 2.757-.919.509-2.158.227-2.803-.727-.66-.949-.329-2.314.799-2.924 1.138-.615 2.46-.17 2.903.894m8.273-2.141c.079 1.152-.714 2.139-1.757 2.329-1.029.163-2.102-.508-2.413-1.616-.305-1.109.446-2.289 1.72-2.501 1.271-.218 2.374.643 2.45 1.788m8.526.661c-.306 1.111-1.372 1.791-2.411 1.628-1.034-.176-1.835-1.153-1.766-2.304.063-1.142 1.158-2.022 2.431-1.813 1.271.21 2.04 1.378 1.746 2.489m7.833 3.386c-.64.955-1.876 1.253-2.801.762-.927-.502-1.356-1.693-.921-2.759.432-1.066 1.758-1.523 2.891-.914 1.137.603 1.484 1.962.831 2.911m6.322 5.754c-.923.699-2.187.576-2.906-.193-.71-.777-.736-2.039.026-2.905.753-.864 2.156-.874 3.033.076.876.933.761 2.331-.153 3.022m4.108 7.491c-1.1.359-2.253-.159-2.68-1.126-.426-.958-.033-2.166.963-2.738.998-.574 2.325-.122 2.844 1.046.531 1.179-.031 2.462-1.127 2.818m1.442 8.422c-1.15-.013-2.067-.89-2.162-1.93-.092-1.054.671-2.068 1.8-2.285 1.124-.21 2.24.644 2.347 1.922.116 1.283-.838 2.308-1.985 2.293" fill="#FFFFFE"/><path d="M92.579 81.695l-10.648-7.834-10.65 7.834 10.65 11.719 10.648-11.719m-60.293 24.228s-39.247 13.279-31.198 24.168c4.134 5.591 15.325-3.285 15.325-3.285s-9.82 15.145-1.218 16.593c8.064 1.36 11.375-13.846 11.375-13.846s1.835 18.302 7.696 14.639c6.367-3.978 3.607-23.211-1.98-38.269m99.289 0s39.248 13.279 31.198 24.168c-4.136 5.591-15.323-3.285-15.323-3.285s9.819 15.145 1.215 16.593c-8.065 1.36-11.373-13.846-11.373-13.846s-1.835 18.302-7.696 14.639c-6.365-3.978-3.608-23.211 1.979-38.269m-34.7-6.158c-4.208.938-8.362 3.507-11.811 6.242a4.539 4.539 0 0 0-3.133-1.253 4.539 4.539 0 0 0-3.133 1.253c-3.448-2.735-7.603-5.304-11.807-6.242-2.339 4.335-3.073 7.93-2.346 14.238 4.315.561 8.86-.108 12.872-1.718-3.586 3.332-6.689 6.828-8.495 11.39a48.786 48.786 0 0 1 4.534-.591 59.543 59.543 0 0 1 2.393 3.496 210.668 210.668 0 0 1 5.944-12.692h.075c2.098 4.139 3.977 8.1 5.944 12.692a61.027 61.027 0 0 1 2.392-3.496c1.508.125 3.024.322 4.534.591-1.806-4.564-4.907-8.064-8.498-11.39 4.015 1.61 8.561 2.279 12.877 1.718.726-6.308-.006-9.903-2.342-14.238" fill="#DF4E66"/></svg>