<svg xmlns="http://www.w3.org/2000/svg" width="197.239" height="201.457" viewBox="0, 0, 197.239, 201.457"><path d="M38.025 79.745S5.93 65.748 1.573 76.835c-3.265 8.312 12.151 9.858 12.151 9.858S.067 87.274.001 92.804c-.063 5.023 5.121 5.905 17.105 5.39 0 0-16.656 2.126-13.616 9.923C7.657 118.813 38.923 99.8 38.923 99.8l-.898-20.055m121.192 0s32.094-13.997 36.451-2.91c3.262 8.312-12.148 9.858-12.148 9.858s13.656.581 13.719 6.111c.061 5.023-5.123 5.905-17.104 5.39 0 0 16.654 2.126 13.616 9.923-4.168 10.696-35.431-8.317-35.431-8.317l.897-20.055m-73.81 107.653l2.749-29.96h-7.189l-.612 29.331c-2.551.76-10.083 3.212-11.181 5.937-.243.603-.204 1.188.12 1.74.355.607 1.002.914 1.922.914 2.14 0 5.673-1.728 7.885-2.941-.747 2.32-1.617 5.941-.544 7.802.402.694 1.015 1.105 1.827 1.22.07.009.141.016.212.016 2.124 0 2.998-4.603 3.355-8.683 2.128 2.257 5.671 5.613 7.921 5.613.562 0 1.033-.189 1.396-.563.373-.383.538-.866.487-1.437-.241-2.772-6.316-7.486-8.348-8.989m42.659 5.308c-1.098-2.724-8.631-5.177-11.181-5.937l-.601-28.885-.008-.446h-7.189l2.748 29.96c-2.035 1.503-8.109 6.216-8.349 8.989-.051.572.113 1.055.484 1.437.37.374.837.563 1.401.563 2.247 0 5.79-3.356 7.921-5.613.355 4.08 1.228 8.683 3.354 8.683.069 0 .139-.005.213-.016.808-.115 1.421-.526 1.823-1.22 1.074-1.861.204-5.482-.543-7.8 2.214 1.211 5.747 2.939 7.884 2.939.921 0 1.569-.307 1.924-.914.321-.551.362-1.137.119-1.74" fill="#E0642A"/><path d="M98.621 24.577c-25.511 0-48.524-9.44-64.896-24.577L28.22 152.403c20.469 11.222 44.58 17.701 70.401 17.701 25.819 0 49.93-6.479 70.399-17.701L163.515 0c-16.372 15.137-39.386 24.577-64.894 24.577" fill="#F5BD2A"/><path d="M98.619 170.104c23.448 0 45.478-5.359 64.66-14.745-3.735-30.117-31.25-53.506-64.66-53.506-33.408 0-60.923 23.389-64.657 53.506 19.181 9.386 41.209 14.745 64.657 14.745" fill="#ECA333"/><path d="M85.438 94.139c-.382-1.044.09-2.18 1.032-2.596.944-.41 2.1.011 2.606 1 .507.991.075 2.225-.989 2.688-1.066.47-2.263-.051-2.649-1.092m-6.722 1.816c-.183-1.1.494-2.129 1.503-2.354 1.006-.232 2.061.406 2.372 1.477.306 1.064-.349 2.189-1.482 2.451-1.134.253-2.211-.479-2.393-1.574m-6.944.536c.021-1.111.876-1.997 1.91-2.039 1.033-.035 1.954.784 2.059 1.888a1.96 1.96 0 0 1-1.906 2.135 1.96 1.96 0 0 1-2.063-1.984m-6.922-.742c.223-1.088 1.229-1.804 2.251-1.651 1.02.15 1.776 1.124 1.676 2.234-.098 1.104-1.117 1.916-2.266 1.749-1.151-.172-1.891-1.244-1.661-2.332m-6.665-2.026c.428-1.025 1.547-1.539 2.522-1.199.975.339 1.532 1.437 1.227 2.51-.302 1.068-1.456 1.675-2.553 1.293-1.098-.385-1.625-1.576-1.196-2.604m-6.155-3.256c.616-.927 1.812-1.211 2.703-.694.89.518 1.229 1.7.727 2.695-.501.991-1.749 1.369-2.755.784-1.008-.586-1.293-1.862-.675-2.785m-5.411-4.384c.787-.788 2.015-.837 2.788-.156.768.683.872 1.907.189 2.784-.683.876-1.985 1.007-2.854.232-.877-.77-.907-2.076-.123-2.86m-4.429-5.376c.928-.609 2.145-.413 2.76.409.618.818.474 2.041-.37 2.764-.845.726-2.143.59-2.847-.341-.7-.936-.473-2.221.457-2.832m-3.221-6.172c1.039-.4 2.176.049 2.613.977.429.926.039 2.09-.94 2.626-.972.533-2.219.134-2.711-.929-.499-1.06.001-2.274 1.038-2.674M37.14 67.82c1.105-.168 2.123.517 2.342 1.514.217.999-.41 2.047-1.479 2.362-1.065.313-2.2-.344-2.45-1.487-.255-1.15.493-2.225 1.587-2.389m-.324-6.954c1.111.075 1.961.962 1.956 1.986.005 1.023-.845 1.911-1.956 1.986-1.11.074-2.065-.814-2.069-1.986.004-1.173.959-2.061 2.069-1.986m1.187-6.857c1.069.314 1.696 1.362 1.479 2.362-.219.997-1.237 1.68-2.342 1.513-1.094-.164-1.842-1.24-1.587-2.385.25-1.148 1.385-1.804 2.45-1.49m2.639-6.443c.979.536 1.369 1.699.94 2.628-.436.925-1.574 1.375-2.613.973-1.037-.399-1.535-1.613-1.038-2.671.492-1.065 1.74-1.462 2.711-.93m3.938-5.743c.843.723.989 1.947.37 2.764-.615.822-1.832 1.018-2.761.409-.929-.612-1.154-1.894-.457-2.831.705-.931 2.003-1.066 2.848-.342m5.016-4.83c.683.876.58 2.1-.19 2.784-.771.68-2 .631-2.787-.155-.784-.785-.753-2.091.122-2.862.872-.775 2.172-.644 2.855.233m5.864-3.759c.502.996.165 2.179-.728 2.699-.89.514-2.086.231-2.702-.698-.618-.922-.332-2.197.675-2.782 1.007-.586 2.254-.209 2.755.781m6.474-2.565c.305 1.074-.252 2.17-1.228 2.509-.973.342-2.093-.173-2.521-1.199-.429-1.026.098-2.217 1.195-2.601 1.098-.382 2.252.224 2.554 1.291m6.843-1.297c.1 1.11-.655 2.084-1.677 2.235-1.021.151-2.025-.565-2.25-1.651-.228-1.09.51-2.163 1.66-2.333 1.15-.168 2.169.646 2.267 1.749m6.964-.009c-.105 1.105-1.024 1.925-2.059 1.89-1.032-.043-1.889-.93-1.91-2.04a1.962 1.962 0 0 1 2.062-1.985 1.961 1.961 0 0 1 1.907 2.135m6.85 1.265c-.311 1.07-1.366 1.706-2.373 1.475-1.008-.226-1.685-1.254-1.502-2.355.182-1.093 1.259-1.825 2.392-1.574 1.134.264 1.789 1.388 1.483 2.454m6.485 2.533c-.506.988-1.661 1.411-2.607 1-.941-.416-1.413-1.552-1.031-2.596.386-1.041 1.583-1.562 2.647-1.093 1.067.465 1.498 1.698.991 2.689m5.879 3.732c-.69.873-1.904 1.061-2.75.475-.844-.588-1.088-1.794-.509-2.744.575-.948 1.853-1.226 2.808-.56.959.663 1.141 1.958.451 2.829m10.591-2.269c.578.95.338 2.156-.509 2.745-.847.585-2.061.397-2.75-.476-.69-.871-.509-2.166.448-2.828.958-.669 2.234-.39 2.811.559m6.258-3.06c.384 1.045-.092 2.181-1.034 2.597-.943.41-2.099-.012-2.608-1a1.962 1.962 0 0 1 .992-2.689c1.066-.469 2.264.052 2.65 1.092m6.721-1.816c.184 1.101-.494 2.129-1.503 2.355-1.006.231-2.06-.405-2.37-1.477-.307-1.064.348-2.188 1.48-2.452 1.134-.251 2.212.481 2.393 1.574m6.944-.535c-.02 1.11-.876 1.997-1.912 2.04-1.031.035-1.952-.785-2.056-1.89-.108-1.109.746-2.094 1.905-2.135 1.159-.046 2.085.872 2.063 1.985m6.922.743c-.224 1.086-1.228 1.802-2.251 1.651-1.02-.151-1.774-1.125-1.676-2.235.1-1.103 1.118-1.917 2.266-1.749 1.153.17 1.892 1.243 1.661 2.333m6.665 2.023c-.428 1.026-1.546 1.541-2.521 1.199-.974-.339-1.534-1.435-1.229-2.509.303-1.067 1.457-1.673 2.553-1.291 1.103.384 1.624 1.575 1.197 2.601m6.157 3.257c-.618.928-1.813 1.211-2.706.696-.888-.519-1.227-1.702-.727-2.698.501-.99 1.752-1.367 2.755-.781 1.007.585 1.295 1.86.678 2.783m5.408 4.386c-.786.786-2.014.835-2.788.155-.767-.683-.87-1.908-.188-2.784.683-.877 1.984-1.007 2.855-.233.877.771.906 2.077.121 2.862m4.43 5.374c-.928.609-2.145.413-2.758-.41-.619-.816-.477-2.04.369-2.763.843-.724 2.142-.589 2.846.341.7.938.473 2.22-.457 2.832m3.219 6.171c-1.038.402-2.175-.048-2.611-.974-.43-.927-.038-2.091.939-2.627.971-.532 2.218-.134 2.711.927.5 1.062-.001 2.275-1.039 2.674m1.83 6.717c-1.104.167-2.123-.516-2.342-1.514-.218-.999.409-2.047 1.478-2.361 1.066-.314 2.203.343 2.452 1.489.252 1.146-.494 2.222-1.588 2.386m.324 6.954c-1.109-.075-1.961-.963-1.955-1.986-.006-1.022.846-1.911 1.954-1.986 1.113-.075 2.067.813 2.072 1.985-.005 1.174-.959 2.061-2.071 1.987m-1.188 6.858c-1.069-.315-1.696-1.363-1.476-2.363.217-.996 1.236-1.681 2.34-1.513 1.095.164 1.84 1.24 1.588 2.385-.249 1.147-1.386 1.804-2.452 1.491m-2.638 6.442c-.977-.536-1.369-1.698-.939-2.629.436-.925 1.574-1.374 2.611-.974 1.038.4 1.539 1.614 1.04 2.673-.494 1.064-1.74 1.463-2.712.93m-3.936 5.742c-.845-.723-.988-1.946-.367-2.764.611-.822 1.828-1.018 2.757-.409.929.611 1.156 1.896.456 2.832-.704.931-2.003 1.067-2.846.341m-5.017 4.831c-.682-.877-.579-2.101.19-2.785.772-.679 2-.631 2.786.156.787.785.756 2.091-.121 2.859-.871.777-2.172.646-2.855-.23m-5.865 3.757c-.5-.995-.161-2.177.728-2.697.891-.515 2.087-.231 2.706.696.616.923.328 2.199-.678 2.784-1.004.586-2.253.208-2.756-.783m-6.474 2.566c-.305-1.073.255-2.171 1.229-2.51.975-.34 2.093.174 2.521 1.199.428 1.028-.096 2.219-1.194 2.604-1.099.382-2.253-.225-2.556-1.293m-6.842 1.298c-.098-1.11.656-2.084 1.677-2.234 1.022-.153 2.026.563 2.251 1.651.23 1.088-.511 2.161-1.66 2.331-1.15.168-2.168-.644-2.268-1.748m-6.963.008c.105-1.104 1.025-1.923 2.057-1.888 1.035.042 1.891.929 1.911 2.039.022 1.113-.904 2.031-2.062 1.984-1.16-.04-2.014-1.025-1.906-2.135m-6.849-1.262c.31-1.071 1.364-1.709 2.37-1.477 1.008.225 1.687 1.254 1.503 2.354-.181 1.095-1.259 1.827-2.39 1.574-1.135-.262-1.79-1.387-1.483-2.451m-6.488-2.535c.509-.988 1.663-1.41 2.606-1 .942.416 1.418 1.552 1.034 2.596a1.96 1.96 0 0 1-2.646 1.092 1.958 1.958 0 0 1-.994-2.688" fill="#E0642A"/><path d="M124.146 34.5c-10.746 0-20.169 5.265-25.525 13.19-5.358-7.925-14.783-13.19-25.526-13.19-16.686 0-30.213 12.692-30.213 28.351 0 15.658 13.527 28.352 30.213 28.352 10.743 0 20.168-5.266 25.526-13.19 5.356 7.924 14.779 13.19 25.525 13.19 16.685 0 30.212-12.694 30.212-28.352 0-15.659-13.527-28.351-30.212-28.351" fill="#FFFFFE"/><path d="M86.093 63.74c0 9.036-7.326 16.361-16.361 16.361-9.037 0-16.363-7.325-16.363-16.361 0-9.038 7.326-16.364 16.363-16.364 9.035 0 16.361 7.326 16.361 16.364m57.78 0c0 9.036-7.326 16.361-16.363 16.361-9.035 0-16.362-7.325-16.362-16.361 0-9.038 7.327-16.364 16.362-16.364 9.037 0 16.363 7.326 16.363 16.364" fill="#72B843"/><path d="M83.127 63.739c0 5.64-4.578 10.217-10.22 10.217-5.64 0-10.217-4.577-10.217-10.217 0-5.644 4.577-10.217 10.217-10.217 5.642 0 10.22 4.573 10.22 10.217" fill="#1A1919"/><path d="M80.71 60.55a2.59 2.59 0 0 1-5.179 0 2.59 2.59 0 1 1 5.179 0" fill="#FFFFFE"/><path d="M140.904 63.739c0 5.64-4.574 10.217-10.218 10.217-5.641 0-10.216-4.577-10.216-10.217 0-5.644 4.575-10.217 10.216-10.217 5.644 0 10.218 4.573 10.218 10.217" fill="#1A1919"/><path d="M138.489 60.55a2.59 2.59 0 1 1-5.18-.002 2.59 2.59 0 0 1 5.18.002" fill="#FFFFFE"/><path d="M111.014 83.427l-12.396-8.488-12.392 8.488 12.395 13.638 12.393-13.638" fill="#E0642A"/><path d="M58.958 125.34c1.2.725 2.263 1.29 3.338 1.647a9.698 9.698 0 0 0 3.174.542 9.714 9.714 0 0 0 3.173-.542c1.075-.355 2.139-.925 3.336-1.645l.254.364c-.54 1.77-1.552 3.2-2.75 4.187-1.204.981-2.609 1.503-4.013 1.499-1.404.004-2.809-.518-4.012-1.499-1.2-.986-2.216-2.42-2.752-4.184l.252-.369m22.1 0c1.201.725 2.263 1.29 3.338 1.647 1.067.368 2.12.54 3.174.542a9.702 9.702 0 0 0 3.174-.542c1.074-.355 2.139-.925 3.337-1.645l.254.364c-.539 1.77-1.556 3.2-2.752 4.187-1.206.981-2.608 1.503-4.013 1.499-1.403.004-2.811-.518-4.013-1.499-1.197-.986-2.213-2.42-2.75-4.184l.251-.369m22.1 0c1.202.725 2.263 1.29 3.339 1.647a9.696 9.696 0 0 0 3.173.542 9.712 9.712 0 0 0 3.175-.542c1.075-.355 2.138-.925 3.338-1.645l.252.364c-.539 1.77-1.553 3.2-2.752 4.187-1.203.981-2.61 1.503-4.013 1.499-1.404.004-2.807-.518-4.011-1.499-1.198-.986-2.216-2.42-2.751-4.184l.25-.369m22.101 0c1.2.725 2.26 1.29 3.337 1.647a9.72 9.72 0 0 0 3.174.542 9.717 9.717 0 0 0 3.175-.542c1.073-.355 2.139-.925 3.335-1.645l.254.364c-.538 1.77-1.553 3.2-2.751 4.187-1.203.981-2.608 1.503-4.013 1.499-1.404.004-2.809-.518-4.012-1.499-1.197-.986-2.216-2.42-2.751-4.184l.252-.369m-55.251 16.994c1.201.727 2.262 1.292 3.337 1.65a9.69 9.69 0 0 0 3.173.541c1.056 0 2.11-.174 3.177-.541 1.074-.356 2.138-.926 3.335-1.646l.254.363c-.54 1.771-1.555 3.201-2.751 4.187-1.205.982-2.61 1.504-4.015 1.501-1.404.003-2.806-.519-4.012-1.501-1.197-.986-2.211-2.419-2.749-4.184l.251-.37m22.1 0c1.199.727 2.261 1.292 3.338 1.65a9.682 9.682 0 0 0 3.173.541 9.68 9.68 0 0 0 3.175-.541c1.076-.356 2.142-.926 3.336-1.646l.254.363c-.539 1.771-1.553 3.201-2.752 4.187-1.203.982-2.608 1.504-4.013 1.501-1.402.003-2.809-.519-4.011-1.501-1.199-.986-2.216-2.419-2.753-4.184l.253-.37m22.101 0c1.2.727 2.261 1.292 3.339 1.65a9.667 9.667 0 0 0 3.172.541 9.693 9.693 0 0 0 3.175-.541c1.075-.356 2.139-.926 3.334-1.646l.255.363c-.54 1.771-1.552 3.201-2.75 4.187-1.203.982-2.607 1.504-4.014 1.501-1.404.003-2.808-.519-4.013-1.501-1.195-.986-2.213-2.419-2.75-4.184l.252-.37" fill="#FFFFFE"/></svg>