<svg xmlns="http://www.w3.org/2000/svg" width="171.954" height="198.134" viewBox="0, 0, 171.954, 198.134"><path d="M74.812 167.836l-8.463-.484-1.594 15.64c-2.838.948-12.152 4.212-11.01 6.87 1.033 2.412 7.431.408 9.938-.434-.778 2.962-1.827 8.06-.012 8.626 2.664.833 4.551-5.096 5.258-7.782 1.578 1.711 5.514 5.716 7.365 4.299 2.601-1.995-2.73-7.872-5.036-10.176l3.554-16.559m32.385 15.156l-1.595-15.64-8.461.484 3.552 16.559c-2.313 2.312-7.635 8.182-5.033 10.177 1.847 1.415 5.784-2.586 7.365-4.3.709 2.7 2.595 8.615 5.258 7.782 1.812-.566.763-5.664-.014-8.626 2.516.846 8.903 2.844 9.939.434 1.141-2.663-8.157-5.917-11.011-6.87m9.849-88.836s21.38-5.784 29.959 20.197c8.575 25.984 21.216 22.414 24.949 16.713 0 0-4.487 32.587-42.246 18.754l-12.662-55.664m-62.14 0s-21.381-5.784-29.96 20.197C16.373 140.337 3.73 136.767 0 131.066c0 0 4.486 32.587 42.244 18.754l12.662-55.664" fill="#ECA333"/><path d="M132.663 79.399H39.29c-2.283 10.527-11.783 70.662-1.713 81.499 10.398 11.196 38.815 12.692 48.399 12.692 9.584 0 38.002-1.496 48.403-12.692 10.064-10.837.567-70.972-1.716-81.499" fill="#E0642A"/><path d="M64.984 130.416c0 2.421-2.249 4.386-2.249 4.386s-2.248-1.965-2.248-4.386c0-2.424 2.248-4.388 2.248-4.388s2.249 1.964 2.249 4.388m11.623 0c0 2.421-2.251 4.386-2.251 4.386s-2.25-1.965-2.25-4.386c0-2.424 2.25-4.388 2.25-4.388s2.251 1.964 2.251 4.388m11.619 0c0 2.421-2.25 4.386-2.25 4.386s-2.249-1.965-2.249-4.386c0-2.424 2.249-4.388 2.249-4.388s2.25 1.964 2.25 4.388m11.621 0c0 2.421-2.251 4.386-2.251 4.386s-2.251-1.965-2.251-4.386c0-2.424 2.251-4.388 2.251-4.388s2.251 1.964 2.251 4.388m11.617 0c0 2.421-2.248 4.386-2.248 4.386s-2.248-1.965-2.248-4.386c0-2.424 2.248-4.388 2.248-4.388s2.248 1.964 2.248 4.388m-46.48 15.642c0 2.421-2.249 4.385-2.249 4.385s-2.248-1.964-2.248-4.385c0-2.424 2.248-4.388 2.248-4.388s2.249 1.964 2.249 4.388m11.623 0c0 2.421-2.251 4.385-2.251 4.385s-2.25-1.964-2.25-4.385c0-2.424 2.25-4.388 2.25-4.388s2.251 1.964 2.251 4.388m11.619 0c0 2.421-2.25 4.385-2.25 4.385s-2.249-1.964-2.249-4.385c0-2.424 2.249-4.388 2.249-4.388s2.25 1.964 2.25 4.388m11.621 0c0 2.421-2.251 4.385-2.251 4.385s-2.251-1.964-2.251-4.385c0-2.424 2.251-4.388 2.251-4.388s2.251 1.964 2.251 4.388m11.617 0c0 2.421-2.248 4.385-2.248 4.385s-2.248-1.964-2.248-4.385c0-2.424 2.248-4.388 2.248-4.388s2.248 1.964 2.248 4.388" fill="#FFFFFE"/><path d="M32.424.116l-3.417 24.688 21.909-11.427L32.424.116M139.472 0l3.473 24.682-21.932-11.379L139.472 0" fill="#ECA333"/><path d="M10.429 56.681c.029 25.216 19.152 44.198 42.719 44.173 13.226-.014 25.042-6.467 32.857-16.585 7.838 10.101 19.667 16.528 32.894 16.514 23.564-.026 42.651-19.048 42.623-44.265-.07-66.857-151.164-66.689-151.093.163" fill="#ECA333"/><path d="M98.362 82.894l-12.367 16.32L73.59 82.931l12.387-8.991 12.385 8.954" fill="#D3232E"/><path d="M76.735 63.491c-1.024-.299-1.629-1.302-1.439-2.26.195-.956 1.142-1.645 2.202-1.523 1.055.12 1.805 1.152 1.576 2.286-.226 1.135-1.32 1.795-2.339 1.497m-2.908 6.711c-.904-.566-1.22-1.696-.773-2.565.448-.867 1.546-1.273 2.533-.869.983.402 1.425 1.601.895 2.628-.528 1.03-1.757 1.369-2.655.806m-4.617 5.675c-.715-.785-.714-1.96-.053-2.678.669-.714 1.836-.808 2.677-.153.837.653.939 1.924.152 2.771-.786.849-2.058.848-2.776.06m-5.966 4.23c-.481-.953-.159-2.077.669-2.593.831-.513 1.986-.285 2.616.57.635.856.387 2.102-.596 2.712-.983.609-2.213.259-2.689-.689m-6.889 2.457c-.203-1.047.408-2.045 1.348-2.314.937-.265 1.982.26 2.364 1.257.377.993-.195 2.134-1.31 2.45-1.115.317-2.201-.352-2.402-1.393m-7.298.502c.083-1.064.942-1.859 1.921-1.867.978-.002 1.844.788 1.939 1.85.093 1.057-.767 1.999-1.922 2.004-1.156.008-2.022-.929-1.938-1.987m-7.165-1.474c.37-1 1.411-1.535 2.354-1.281.94.258 1.561 1.258 1.369 2.303-.195 1.049-1.273 1.718-2.39 1.414-1.119-.304-1.701-1.44-1.333-2.436m-6.496-3.362c.627-.864 1.773-1.095 2.612-.594.834.504 1.163 1.631.692 2.587-.467.953-1.691 1.308-2.682.713-.994-.595-1.244-1.848-.622-2.706m-5.351-4.988c.832-.661 2.006-.582 2.677.129.667.712.684 1.882-.027 2.678-.709.79-1.985.809-2.776-.034-.794-.843-.709-2.11.126-2.773m-3.81-6.243c.981-.413 2.085-.019 2.54.845.453.863.148 1.999-.747 2.571-.898.574-2.125.244-2.664-.779-.54-1.025-.11-2.225.871-2.637m-1.98-7.042c1.059-.131 2.013.549 2.219 1.504.2.954-.399 1.963-1.42 2.271-1.016.309-2.111-.341-2.351-1.473-.242-1.133.501-2.171 1.552-2.302m-.007-7.315c1.053.157 1.796 1.067 1.736 2.042-.064.975-.916 1.787-1.978 1.809-1.065.023-1.94-.896-1.869-2.05.071-1.154 1.059-1.958 2.111-1.801m1.962-7.045c.971.436 1.439 1.512 1.117 2.435-.323.919-1.36 1.471-2.392 1.206-1.03-.264-1.629-1.388-1.245-2.48.382-1.094 1.55-1.598 2.52-1.161m3.799-6.251c.82.683.971 1.842.415 2.646-.558.8-1.709 1.048-2.629.514-.921-.535-1.19-1.777-.528-2.724.661-.95 1.928-1.117 2.742-.436m5.339-5c.604.876.446 2.039-.309 2.66-.757.616-1.925.555-2.672-.21-.74-.759-.672-2.035.223-2.766.895-.735 2.156-.56 2.758.316m6.488-3.377c.346 1.006-.123 2.084-1.015 2.478-.895.391-2.004.012-2.516-.922-.509-.933-.099-2.139.961-2.604 1.062-.467 2.228.042 2.57 1.048m7.162-1.489c.059 1.061-.685 1.972-1.653 2.11-.963.134-1.929-.535-2.169-1.571-.236-1.038.488-2.084 1.632-2.246 1.148-.16 2.131.643 2.19 1.707m7.298.486c-.228 1.041-1.186 1.718-2.156 1.591-.966-.131-1.719-1.028-1.671-2.092.051-1.061 1.031-1.882 2.175-1.728 1.148.151 1.881 1.192 1.652 2.229m6.895 2.443c-.499.936-1.608 1.331-2.504.945-.897-.389-1.377-1.455-1.042-2.467.333-1.008 1.498-1.534 2.561-1.074 1.064.459 1.487 1.656.985 2.596m5.978 4.216c-.736.769-1.906.846-2.667.234-.761-.613-.932-1.775-.336-2.657.596-.882 1.853-1.067 2.753-.342.903.725.985 1.997.25 2.765m4.627 5.665c-.919.545-2.063.304-2.634-.49-.567-.794-.421-1.959.39-2.649.811-.689 2.075-.532 2.746.408.673.942.41 2.191-.502 2.731m2.921 6.706c-1.026.273-2.07-.267-2.399-1.185-.328-.919.122-1.999 1.091-2.445.965-.444 2.142.047 2.533 1.137.39 1.09-.194 2.218-1.225 2.493m1 7.246c-1.067-.012-1.923-.816-1.995-1.791-.064-.975.661-1.892 1.714-2.057 1.051-.167 2.051.626 2.131 1.78.083 1.154-.789 2.08-1.85 2.068m-5.178.12c.011 11.977-9.687 21.697-21.662 21.709-11.979.012-21.698-9.685-21.71-21.663-.012-11.975 9.685-21.696 21.664-21.708 11.975-.013 21.694 9.686 21.708 21.662" fill="#FFFFFE"/><path d="M66.515 57.392c.008 6.024-4.871 10.908-10.891 10.916-6.021.005-10.908-4.868-10.913-10.892-.005-6.02 4.871-10.908 10.889-10.914 6.021-.006 10.91 4.869 10.915 10.89" fill="#1A1919"/><path d="M64.082 54.877a2.715 2.715 0 0 1-2.71 2.716 2.714 2.714 0 0 1-.006-5.426 2.713 2.713 0 0 1 2.716 2.71m82.901 8.614c-1.024-.299-1.629-1.302-1.438-2.26.194-.956 1.14-1.645 2.202-1.523 1.054.12 1.804 1.152 1.574 2.286-.225 1.135-1.319 1.795-2.338 1.497m-2.909 6.711c-.904-.566-1.217-1.696-.772-2.565.449-.867 1.545-1.273 2.533-.869.981.402 1.425 1.601.895 2.628-.528 1.03-1.757 1.369-2.656.806m-4.615 5.675c-.717-.785-.715-1.96-.053-2.678.665-.714 1.833-.808 2.676-.153.837.653.939 1.924.152 2.771-.786.849-2.057.848-2.775.06m-5.966 4.23c-.482-.953-.162-2.077.668-2.593.83-.513 1.986-.285 2.617.57.633.856.387 2.102-.595 2.712-.984.609-2.214.259-2.69-.689m-6.891 2.457c-.203-1.047.409-2.045 1.348-2.314.937-.265 1.984.26 2.365 1.257.375.993-.195 2.134-1.31 2.45-1.115.317-2.2-.352-2.403-1.393m-7.297.502c.084-1.064.941-1.859 1.92-1.867.977-.002 1.844.788 1.938 1.85.093 1.057-.766 1.999-1.919 2.004-1.156.008-2.024-.929-1.939-1.987m-7.165-1.474c.37-1 1.412-1.535 2.353-1.281.941.258 1.559 1.258 1.368 2.303-.194 1.049-1.273 1.718-2.39 1.414-1.116-.304-1.697-1.44-1.331-2.436m-6.496-3.362c.627-.864 1.774-1.095 2.613-.594.832.504 1.162 1.631.692 2.587-.469.953-1.692 1.308-2.681.713-.994-.595-1.246-1.848-.624-2.706m-5.35-4.988c.831-.661 2.005-.582 2.675.129.668.712.684 1.882-.027 2.678-.707.79-1.984.809-2.775-.034-.792-.843-.707-2.11.127-2.773m-3.811-6.243c.981-.413 2.085-.019 2.54.845.454.863.148 1.999-.747 2.571-.897.574-2.126.244-2.663-.779-.541-1.025-.11-2.225.87-2.637m-1.979-7.042c1.059-.131 2.011.549 2.216 1.504.202.954-.398 1.963-1.417 2.271-1.018.309-2.112-.341-2.351-1.473-.244-1.133.5-2.171 1.552-2.302m-.007-7.315c1.051.157 1.795 1.067 1.734 2.042-.062.975-.913 1.787-1.977 1.809-1.065.023-1.94-.896-1.869-2.05.074-1.154 1.06-1.958 2.112-1.801m1.963-7.045c.97.436 1.436 1.512 1.116 2.435-.324.919-1.361 1.471-2.392 1.206-1.031-.264-1.63-1.388-1.245-2.48.383-1.094 1.549-1.598 2.521-1.161m3.798-6.251c.818.683.972 1.842.414 2.646-.558.8-1.709 1.048-2.628.514-.922-.535-1.189-1.777-.529-2.724.661-.95 1.929-1.117 2.743-.436m5.337-5c.605.876.447 2.039-.309 2.66-.757.616-1.925.555-2.67-.21-.741-.759-.673-2.035.222-2.766.895-.735 2.156-.56 2.757.316m6.488-3.377c.346 1.006-.123 2.084-1.016 2.478-.895.391-2.003.012-2.513-.922-.51-.933-.099-2.139.959-2.604 1.062-.467 2.228.042 2.57 1.048m7.162-1.489c.06 1.061-.684 1.972-1.652 2.11-.964.134-1.93-.535-2.168-1.571-.237-1.038.486-2.084 1.63-2.246 1.147-.16 2.133.643 2.19 1.707m7.299.486c-.227 1.041-1.186 1.718-2.155 1.591-.968-.131-1.72-1.028-1.67-2.092.049-1.061 1.028-1.882 2.173-1.728 1.148.151 1.88 1.192 1.652 2.229m6.894 2.443c-.5.936-1.606 1.331-2.505.945-.893-.389-1.374-1.455-1.04-2.467.334-1.008 1.499-1.534 2.56-1.074 1.063.459 1.489 1.656.985 2.596m5.98 4.216c-.739.769-1.908.846-2.67.234-.758-.613-.931-1.775-.335-2.657.596-.882 1.854-1.067 2.755-.342.902.725.982 1.997.25 2.765m4.626 5.665c-.919.545-2.063.304-2.634-.49-.568-.794-.421-1.959.389-2.649.81-.689 2.074-.532 2.747.408.672.942.41 2.191-.502 2.731m2.921 6.706c-1.025.273-2.07-.267-2.399-1.185-.327-.919.122-1.999 1.091-2.445.964-.444 2.143.047 2.534 1.137s-.195 2.218-1.226 2.493m.998 7.246c-1.066-.012-1.919-.816-1.993-1.791-.064-.975.66-1.892 1.715-2.057 1.048-.167 2.048.626 2.128 1.78.085 1.154-.787 2.08-1.85 2.068m-5.177.12c.01 11.977-9.684 21.697-21.663 21.709-11.977.012-21.696-9.685-21.708-21.663-.013-11.975 9.686-21.696 21.662-21.708 11.978-.013 21.696 9.686 21.709 21.662" fill="#FFFFFE"/><path d="M136.762 57.392c.008 6.024-4.87 10.908-10.89 10.916-6.019.005-10.908-4.868-10.915-10.892-.005-6.02 4.871-10.908 10.89-10.914 6.023-.006 10.911 4.869 10.915 10.89" fill="#1A1919"/><path d="M134.329 54.877a2.714 2.714 0 0 1-5.426.006 2.713 2.713 0 1 1 5.426-.006" fill="#FFFFFE"/></svg>