<svg xmlns="http://www.w3.org/2000/svg" width="143.839" height="197.618" viewBox="0, 0, 143.839, 197.618"><path d="M37.511 14.232S21.234-2.396 17.863.295C15.282 2.355 20.182 24.3 20.182 24.3l17.329-10.068m68.815 0S122.604-2.396 125.975.295c2.58 2.06-2.32 24.005-2.32 24.005l-17.329-10.068" fill="#BF2534"/><path d="M92.66 168.563l.328 14.903s12.36 5.649 10.901 8.249c-2.447 4.355-9.959-2.612-9.959-2.612s3.21 8.082-.433 8.502c-3.294.38-3.703-7.676-3.703-7.676s-4.292 7.784-7.764 5.524c-2.724-1.779 6.743-11.611 6.743-11.611l-1.296-15.279h5.183m-41.479 0l-.333 14.903s-12.355 5.649-10.899 8.249c2.45 4.355 9.96-2.612 9.96-2.612s-3.211 8.082.432 8.502c3.296.38 3.706-7.676 3.706-7.676s4.292 7.784 7.762 5.524c2.726-1.779-6.742-11.611-6.742-11.611l1.296-15.279h-5.182" fill="#E0642A"/><path d="M140.738 61.333c0-52.935-54.167-55.67-68.818-55.67-14.652 0-68.819 2.735-68.819 55.67 0 24.147 23.542 34.412 23.542 34.412s-52.062 79.066 45.277 79.066c97.34 0 45.277-79.066 45.277-79.066s23.541-10.265 23.541-34.412" fill="#BF2534"/><path d="M112.613 167.318c5.447-18.858 5.024-45.45-40.693-45.45-45.712 0-46.14 26.592-40.693 45.45 9.091 4.629 22.184 7.493 40.693 7.493 18.509 0 31.606-2.864 40.693-7.493" fill="#DF5161"/><path d="M125.505 35.055c-13.063-18.691-44.664-8.492-53.586-3.715-8.924-4.777-40.52-14.976-53.586 3.715C9.239 48.07.099 87.085 71.919 87.085c71.821 0 62.68-39.015 53.586-52.03" fill="#FFFFFE"/><path d="M71.919 56.785l-9.929 5.406 9.929 13.345 9.928-13.345-9.928-5.406" fill="#E0642A"/><path d="M3.355 148.74s42.181-28.853 32.856-46.212c-9.323-17.356-47.64 2.365-32.856 46.212m137.13 0s-42.184-28.853-32.859-46.212c9.326-17.356 47.641 2.365 32.859 46.212" fill="#DF5161"/><path d="M87.363 134.105c0 .933 2.492 4.149 5.5 4.149 3.006 0 5.391-3.216 5.391-4.149 0-.925-2.385 2.357-5.391 2.357-3.008 0-5.5-3.282-5.5-2.357m-20.884 0c0 .933 2.489 4.149 5.493 4.149 3.011 0 5.389-3.216 5.389-4.149 0-.925-2.378 2.357-5.389 2.357-3.004 0-5.493-3.282-5.493-2.357m-20.894 0c0 .933 2.496 4.149 5.504 4.149 3.005 0 5.393-3.216 5.393-4.149 0-.925-2.388 2.357-5.393 2.357-3.008 0-5.504-3.282-5.504-2.357m41.778 10.205c0 .929 2.492 4.15 5.5 4.15 3.006 0 5.391-3.221 5.391-4.15 0-.924-2.385 2.359-5.391 2.359-3.008 0-5.5-3.283-5.5-2.359m-20.884 0c0 .929 2.489 4.15 5.493 4.15 3.011 0 5.389-3.221 5.389-4.15 0-.924-2.378 2.359-5.389 2.359-3.004 0-5.493-3.283-5.493-2.359m-20.894 0c0 .929 2.496 4.15 5.504 4.15 3.005 0 5.393-3.221 5.393-4.15 0-.924-2.388 2.359-5.393 2.359-3.008 0-5.504-3.283-5.504-2.359m41.778 10.21c0 .924 2.492 4.144 5.5 4.144 3.006 0 5.391-3.22 5.391-4.144 0-.932-2.385 2.349-5.391 2.349-3.008 0-5.5-3.281-5.5-2.349m-20.884 0c0 .924 2.489 4.144 5.493 4.144 3.011 0 5.389-3.22 5.389-4.144 0-.932-2.378 2.349-5.389 2.349-3.004 0-5.493-3.281-5.493-2.349m-20.894 0c0 .924 2.496 4.144 5.504 4.144 3.005 0 5.393-3.22 5.393-4.144 0-.932-2.388 2.349-5.393 2.349-3.008 0-5.504-3.281-5.504-2.349" fill="#FFFFFE"/><path d="M51.942 50.273c-3.768-3.353-7.579-5.051-11.329-5.051-4.178 0-7.875 2.114-10.815 5.054l.082 1.966c3.087-1.516 6.434-2.392 10.632-2.392 3.924 0 7.788.768 11.543 2.077l-.075-1.619-.038-.035m51.28-5.051c-4.283 0-8.197 2.235-11.367 5.086l-.073 1.619c3.736-1.302 7.601-2.077 11.541-2.077 4.18 0 7.557.873 10.63 2.392l.087-1.966c-2.94-2.94-6.641-5.054-10.818-5.054" fill="#1A1919"/><path d="M85.636 94.952c-3.862.861-7.675 3.22-10.842 5.731a4.162 4.162 0 0 0-5.75 0c-3.166-2.511-6.978-4.87-10.838-5.731-2.145 3.979-2.82 7.281-2.153 13.069 3.96.516 8.132-.096 11.816-1.574-3.293 3.057-6.14 6.266-7.798 10.452a46.537 46.537 0 0 1 4.161-.543 55.271 55.271 0 0 1 2.198 3.211 189.79 189.79 0 0 1 5.455-11.647h.07a190.982 190.982 0 0 1 5.454 11.647 55.29 55.29 0 0 1 2.199-3.211 46.85 46.85 0 0 1 4.16.543c-1.656-4.188-4.505-7.401-7.801-10.452 3.687 1.478 7.86 2.09 11.818 1.574.668-5.788-.006-9.09-2.149-13.069" fill="#FFFFFE"/></svg>