<svg xmlns="http://www.w3.org/2000/svg" width="415.29" height="440.014" viewBox="0, 0, 415.29, 440.014"><path d="M410.15 413.28c0 14.765-91.815 26.734-205.075 26.734C91.815 440.014 0 428.045 0 413.28c0-14.77 91.815-26.741 205.075-26.741 113.26 0 205.075 11.971 205.075 26.741" fill="#D6D5D0"/><path d="M66.627 314.964l182.882-182.883-25.455-25.456L41.171 289.508l25.456 25.456" fill="#FFFFFE"/><path d="M66.627 329.964a15 15 0 0 1-10.607-4.394l-25.455-25.456c-5.858-5.858-5.858-15.355 0-21.213L213.448 96.018a14.997 14.997 0 0 1 21.213 0l25.455 25.456c5.858 5.858 5.858 15.356 0 21.213L77.233 325.57a15 15 0 0 1-10.606 4.394zm-4.243-40.456l4.243 4.243 161.669-161.67-4.242-4.242-161.67 161.669" fill="#3B3C3A"/><path d="M125.761 289.508c-23.359-23.36-61.23-23.359-84.59 0-23.359 23.359-23.359 61.231 0 84.59 23.36 23.36 61.233 23.359 84.59 0 23.36-23.358 23.36-61.231 0-84.59zm-58.957 58.958c-9.203-9.204-9.201-24.123 0-33.325 9.201-9.203 24.121-9.204 33.324 0 9.204 9.203 9.204 24.123 0 33.325-9.201 9.202-24.121 9.203-33.324 0" fill="#FFFFFE"/><path d="M83.472 406.617h-.007c-19.984-.001-38.771-7.783-52.9-21.912-29.171-29.17-29.171-76.634 0-105.804 14.131-14.131 32.919-21.913 52.902-21.913 19.983 0 38.771 7.782 52.901 21.913 14.131 14.13 21.913 32.919 21.913 52.902 0 19.984-7.782 38.772-21.913 52.902-14.13 14.131-32.915 21.912-52.896 21.912zm-.005-119.629c-11.97 0-23.224 4.662-31.689 13.127-17.473 17.473-17.473 45.903 0 63.377 8.464 8.463 19.718 13.125 31.69 13.125h.004c11.968.001 23.218-4.66 31.683-13.125s13.126-19.719 13.126-31.689c0-11.97-4.661-23.224-13.126-31.689-8.465-8.464-19.718-13.126-31.688-13.126zm-.001 83.379c-10.3 0-19.984-4.011-27.268-11.295-15.035-15.035-15.036-39.501-.001-54.537 7.284-7.284 16.968-11.297 27.269-11.297 10.301 0 19.985 4.012 27.269 11.296 7.284 7.284 11.296 16.969 11.296 27.269 0 10.302-4.012 19.986-11.296 27.269-7.283 7.283-16.967 11.295-27.269 11.295zm0-47.129a8.503 8.503 0 0 0-6.054 2.509c-3.34 3.339-3.34 8.772-.001 12.112a8.51 8.51 0 0 0 6.055 2.508 8.508 8.508 0 0 0 6.055-2.508 8.504 8.504 0 0 0 2.51-6.056 8.507 8.507 0 0 0-2.509-6.056 8.51 8.51 0 0 0-6.056-2.509" fill="#3B3C3A"/><path d="M125.761 374.098l182.883-182.882-25.455-25.456-182.883 182.882 25.455 25.456" fill="#FFFFFE"/><path d="M125.761 389.098a14.947 14.947 0 0 1-10.606-4.393c-5.859-5.857-5.859-15.356 0-21.213l172.276-172.276-4.242-4.243-172.276 172.276c-5.858 5.858-15.356 5.858-21.213 0-5.859-5.858-5.859-15.355 0-21.213l182.883-182.883a14.997 14.997 0 0 1 21.212 0l25.456 25.456c5.858 5.859 5.858 15.356 0 21.213L136.368 384.705a14.949 14.949 0 0 1-10.607 4.393" fill="#3B3C3A"/><path d="M399.5 144.476c4.773-21.971-13.125-60.576-40.627-88.079-27.504-27.503-66.108-45.4-88.08-40.629-21.973 4.773-43.598 28.012-52.629 44.001-8.75 15.491-9.293 31.671 1.06 42.025a1601097.765 1601097.765 0 0 0 94.252 94.252c10.354 10.353 26.533 9.81 42.024 1.059 15.99-9.031 39.228-30.656 44-52.629" fill="#F6D729"/><path d="M332.86 218.741h-.004c-11.71-.001-22.079-4.181-29.986-12.089l-94.253-94.253c-14.745-14.745-16.092-37.739-3.514-60.007 9.758-17.276 34.457-45.189 62.506-51.282C271.003.373 274.67 0 278.507 0c27.023 0 63.581 18.401 90.972 45.791 27.274 27.275 51.38 71.025 44.679 101.87-6.091 28.049-34.005 52.748-51.281 62.505-9.93 5.61-20.31 8.575-30.017 8.575zM278.507 30c-1.7 0-3.225.142-4.532.427-15.496 3.366-34.257 21.68-42.751 36.719-2.154 3.814-8.619 16.815-1.393 24.041l94.252 94.252c2.221 2.221 5.091 3.301 8.775 3.302h.002c4.547 0 9.823-1.624 15.262-4.696 15.04-8.494 33.354-27.254 36.719-42.752 3.251-14.963-10.67-48.383-36.575-74.289C324.23 42.969 294.385 30 278.507 30" fill="#3B3C3A"/></svg>