<svg xmlns="http://www.w3.org/2000/svg" width="419.569" height="443.091" viewBox="0, 0, 419.569, 443.091"><path d="M410.15 416.357c0 14.765-91.815 26.734-205.075 26.734C91.815 443.091 0 431.122 0 416.357c0-14.77 91.815-26.741 205.075-26.741 113.26 0 205.075 11.971 205.075 26.741" fill="#D6D5D0"/><path d="M196.37 139.431v-86.28c0-16.522-7.084-38.151-47.942-38.151-40.855 0-58.531 16.869-58.531 55.331v80.814l106.473-11.714" fill="#FFFFFE"/><path d="M89.896 166.145a14.998 14.998 0 0 1-10.009-3.83 14.994 14.994 0 0 1-4.99-11.17V70.331c0-23.773 6.094-41.102 18.628-52.977C105.85 5.676 123.809 0 148.428 0c56.809 0 62.942 37.17 62.942 53.151v86.28c0 7.65-5.756 14.073-13.36 14.91L91.538 166.055a15.34 15.34 0 0 1-1.642.09zM148.428 30c-32.547 0-43.531 10.176-43.531 40.331v64.071l76.473-8.411v-72.84c0-8.09 0-23.151-32.942-23.151" fill="#3B3C3A"/><path d="M126.725 132.834v-56c0-22.875 36.906-21.875 36.906 0v56h-36.906" fill="#E46C77"/><path d="M163.631 142.834h-36.906c-5.522 0-10-4.477-10-10v-56c0-15.519 11.836-26.783 28.144-26.783 16.397 0 28.762 11.515 28.762 26.783v56c0 5.523-4.476 10-10 10zm-26.906-20h16.906v-46c0-6.593-7.865-6.783-8.762-6.783-2.449 0-8.144.661-8.144 6.783v46" fill="#3B3C3A"/><path d="M242.77 139.431v-86.28c0-16.522 7.084-38.151 47.94-38.151 40.857 0 58.531 16.869 58.531 55.331v80.814L242.77 139.431" fill="#FFFFFE"/><path d="M349.242 166.145a15.34 15.34 0 0 1-1.642-.09l-106.471-11.714c-7.603-.837-13.359-7.26-13.359-14.91v-86.28C227.77 37.17 233.903 0 290.71 0c24.62 0 42.579 5.676 54.904 17.354 12.534 11.875 18.627 29.204 18.627 52.977v80.814a15 15 0 0 1-14.999 15zm-91.472-40.154l76.471 8.411V70.331C334.241 40.176 323.256 30 290.71 30c-32.94 0-32.94 15.061-32.94 23.151v72.84" fill="#3B3C3A"/><path d="M312.413 132.834v-56c0-22.875-36.907-21.875-36.907 0v56h36.907" fill="#E46C77"/><path d="M312.413 142.834h-36.907c-5.522 0-10-4.477-10-10v-56c0-15.268 12.366-26.783 28.763-26.783 16.308 0 28.144 11.264 28.144 26.783v56c0 5.523-4.478 10-10 10zm-26.907-20h16.907v-46c0-6.122-5.696-6.783-8.144-6.783-.897 0-8.763.19-8.763 6.783v46" fill="#3B3C3A"/><path d="M219.569 108.963c-106.322 0-185 53-185 150.001 0 97 85.059 147 185 147 99.943 0 185-50 185-147 0-97.001-78.678-150.001-185-150.001" fill="#FFFFFE"/><path d="M219.569 420.964c-54.152 0-103.452-14.208-138.818-40.007-40.026-29.197-61.182-71.382-61.182-121.993 0-100.234 78.505-165.001 200-165.001s200 64.767 200 165.001c0 50.611-21.156 92.796-61.182 121.993-35.365 25.799-84.666 40.007-138.818 40.007zm0-297.001c-82.184 0-170 35.465-170 135.001 0 97.43 91.578 132 170 132s170-34.57 170-132c0-99.536-87.816-135.001-170-135.001" fill="#3B3C3A"/><path d="M176.819 189.038c0 5.798-4.701 10.5-10.5 10.5s-10.5-4.702-10.5-10.5c0-5.799 4.701-10.5 10.5-10.5s10.5 4.701 10.5 10.5m106.5 0c0 5.798-4.701 10.5-10.5 10.5s-10.5-4.702-10.5-10.5c0-5.799 4.701-10.5 10.5-10.5s10.5 4.701 10.5 10.5m-63.75 77h-50s3.5 41 50 41 50-41 50-41h-50" fill="#3B3C3A"/><path d="M219.569 317.038c-28.497 0-43.361-13.614-50.813-25.036-7.836-12.01-9.04-23.808-9.151-25.114a9.997 9.997 0 0 1 9.964-10.85h100a9.997 9.997 0 0 1 9.964 10.85c-.112 1.306-1.316 13.104-9.152 25.114-7.451 11.422-22.315 25.036-50.812 25.036zm-36.97-41c4.208 9.285 14.059 21 36.97 21 22.892 0 32.747-11.761 36.956-21h-73.926" fill="#3B3C3A"/><path d="M217.569 257.233c-18.799 0-30.955-16.901-32.28-18.828-3.128-4.552-1.974-10.778 2.577-13.906 4.539-3.118 10.743-1.979 13.879 2.54 2.004 2.842 8.738 10.194 15.824 10.194 9.204 0 15.503-9.703 15.565-9.802 2.897-4.702 9.037-6.133 13.739-3.236 4.703 2.897 6.146 9.089 3.249 13.791-.484.786-12.092 19.247-32.553 19.247" fill="#3B3C3A"/><path d="M217.569 298.538c-5.523 0-10-4.476-10-10v-36.974c0-5.523 4.477-10 10-10 5.522 0 10 4.477 10 10v36.974c0 5.524-4.478 10-10 10" fill="#3B3C3A"/><path d="M217.569 266.038h-21.295v15.295c0 4.75 10 7.205 21.295 7.205 11.295 0 21.295-2.455 21.295-7.205v-15.295h-21.295" fill="#FFFFFE"/></svg>