<svg xmlns="http://www.w3.org/2000/svg" width="426.315" height="408.961" viewBox="0, 0, 426.315, 408.961"><path d="M412.344 382.227c0 14.765-91.815 26.734-205.075 26.734-113.26 0-205.074-11.969-205.074-26.734 0-14.77 91.814-26.741 205.074-26.741 113.26 0 205.075 11.971 205.075 26.741" fill="#D6D5D0"/><path d="M177.355 18.915c-34.28 9.115-162.658 98.757-162.352 134.434.307 35.678 74.457 63.384 172.891 63.384 118.476 0 162.461-15.41 163.162-69.119.562-42.957-27.932-121.013-35.803-127.093-7.873-6.081-114.31-7.878-137.898-1.606" fill="#FFFFFE"/><path d="M187.894 231.733c-49.174 0-94.785-6.833-128.433-19.239C10.583 194.471.15 170.453.004 153.478c-.108-12.617 7.644-26.942 24.398-45.081 12.246-13.258 29.415-28.511 49.65-44.106C106.958 38.929 151.684 10.22 173.5 4.419 187.963.573 221.234 0 239.779 0c18.083 0 35.885.533 50.128 1.501 25.658 1.745 30.653 4.165 34.515 7.149 3.659 2.826 7.375 7.712 13.624 22.372 4.141 9.716 8.61 22.051 12.584 34.731 5.915 18.871 15.784 54.626 15.425 82.057-.436 33.363-15.727 55.735-46.747 68.393-26.677 10.885-65.979 15.53-131.414 15.53zM239.779 30c-33.758 0-52.65 1.838-58.57 3.412-13.149 3.496-50.8 25.338-88.699 54.529-51.008 39.289-62.502 60.831-62.508 65.28.088 10.17 15.353 22.097 39.838 31.125 30.407 11.212 72.333 17.387 118.054 17.387 124.649 0 147.693-18.291 148.163-54.315.212-16.151-4.501-41.319-12.929-69.05-6.929-22.798-13.806-38.913-17.129-45.078-8.803-1.536-33.419-3.29-66.22-3.29" fill="#3B3C3A"/><path d="M254.238 67.112h-.083c-32.901-.021-73.574-13.787-85.128-43.966-2.963-7.735.907-16.409 8.643-19.371 7.738-2.962 16.41.906 19.372 8.645 5.296 13.829 30.391 24.675 57.131 24.692h.056c18.661 0 40.796-5.771 47.022-21.972 2.972-7.734 11.649-11.592 19.383-8.621 7.734 2.973 11.593 11.65 8.621 19.383-9.919 25.807-37.962 41.21-75.017 41.21m-62.573 114.87c-3.098 0-6.207-.01-9.342-.031-67.879-.455-131.595-5.662-170.443-13.93-8.102-1.724-13.272-9.691-11.549-17.794 1.725-8.102 9.68-13.273 17.795-11.55 76.472 16.277 253.237 19.319 329.228.129 8.034-2.029 16.187 2.838 18.217 10.871 2.027 8.032-2.84 16.188-10.871 18.215-35.678 9.01-94.73 14.09-163.035 14.09" fill="#3B3C3A"/><path d="M134.361 16.281c-16.414 7.616-64.875 45.084-82.875 62.955-18 17.871 7.334 41.206 20 29.872.498 22.665 39.998 27.165 46 2.985 16.875 14.03 50.498.18 42-24.319 18-.667 17.537-42.892-2.498-44.077 11.83-12.59-2.854-36.59-22.627-27.416" fill="#E46C79"/><path d="M94.969 138.279c-13.478 0-24.714-6.45-30.086-16.221-.421.024-.845.035-1.271.035-10.931 0-21.727-7.672-26.254-18.658-4.444-10.782-1.796-22.481 7.082-31.295 18.785-18.65 68.03-56.725 85.712-64.931 4.248-1.97 8.593-2.969 12.918-2.969 11.092 0 21.212 6.822 25.779 17.382 2.448 5.661 2.989 11.607 1.739 17.092 7.446 5.885 12.069 16.428 11.931 28.989-.132 11.886-4.615 21.461-11.71 26.408.28 6.592-1.565 12.908-5.46 18.383-6.675 9.38-18.694 15.207-31.367 15.207h-.001c-4.212 0-8.306-.672-12.11-1.954-5.939 7.855-15.584 12.532-26.902 12.532zM71.488 99.108a10 10 0 0 1 9.996 9.78c.149 6.842 8.351 9.391 13.485 9.391 2.505 0 10.832-.619 12.812-8.595a10 10 0 0 1 16.097-5.28c3.279 2.725 7.304 3.297 10.104 3.297 6.119 0 12.175-2.734 15.071-6.803 1.991-2.797 2.312-6.018.985-9.847a9.998 9.998 0 0 1 9.077-13.27c.956-.035 3.332-3.688 3.405-10.299.07-6.352-2.428-13.584-6.123-13.803a9.996 9.996 0 0 1-8.7-6.285 9.995 9.995 0 0 1 2.004-10.545c2.437-2.594 1.366-5.96.791-7.287-1.113-2.572-3.647-5.322-7.422-5.322-1.396 0-2.911.375-4.5 1.112-14.373 6.669-61.499 42.573-80.039 60.98-3.146 3.125-4.024 6.226-2.681 9.482 1.524 3.701 5.314 6.279 7.762 6.279.599 0 .896-.16 1.206-.437a10 10 0 0 1 6.67-2.548" fill="#3B3C3A"/><path d="M110.066 31.671c8.541-5.904 30.252 23.488 5.586 40.821-24.668 17.333-49.369-6.988-39.338-15.005 10.031-8.018 23.992-19.07 33.752-25.816" fill="#FFFFFE"/><path d="M97.528 88.587c-16.461 0-28.99-10.402-32.42-20.189-2.492-7.11-.591-14.284 4.963-18.723 10.84-8.665 24.538-19.476 34.309-26.23 2.408-1.666 5.256-2.545 8.236-2.545 10.594 0 19.492 10.606 22.804 21.084 4.672 14.774-.568 29.238-14.019 38.689-7.368 5.178-15.623 7.914-23.873 7.914zM85.001 63.348c1.907 2.164 6.299 5.24 12.527 5.24 4.171 0 8.335-1.44 12.375-4.278 5.252-3.691 7.577-7.969 7.107-13.077-.388-4.217-2.503-7.578-4.131-9.313-8.257 5.91-18.829 14.215-27.878 21.428" fill="#3B3C3A"/><path d="M237.603 147.612c-34.277 9.115-162.656 98.758-162.35 134.434.307 35.678 74.457 63.384 172.891 63.384 118.474 0 162.461-15.41 163.162-69.119.561-42.957-27.932-121.013-35.805-127.093-7.871-6.081-114.308-7.878-137.898-1.606" fill="#FFFFFE"/><path d="M248.144 360.43c-49.174 0-94.785-6.832-128.433-19.239-48.878-18.023-59.311-42.041-59.457-59.016-.108-12.617 7.644-26.943 24.398-45.081 12.246-13.258 29.415-28.509 49.65-44.106 32.905-25.361 77.63-54.071 99.446-59.872 14.464-3.846 47.735-4.419 66.281-4.419 18.083 0 35.884.533 50.127 1.501 25.659 1.745 30.653 4.166 34.516 7.15 3.656 2.823 7.374 7.71 13.623 22.371 4.141 9.716 8.611 22.05 12.584 34.731 5.915 18.87 15.783 54.624 15.426 82.057-.436 33.363-15.728 55.735-46.748 68.393-26.677 10.886-65.978 15.53-131.413 15.53zm51.885-201.733c-33.759 0-52.652 1.838-58.573 3.412-13.148 3.496-50.798 25.339-88.696 54.53-51.008 39.288-62.502 60.831-62.508 65.279.088 10.171 15.353 22.097 39.838 31.125 30.407 11.212 72.333 17.387 118.054 17.387 124.649 0 147.693-18.291 148.163-54.315.211-16.151-4.502-41.319-12.93-69.049-6.929-22.801-13.806-38.914-17.129-45.079-8.803-1.535-33.419-3.29-66.219-3.29" fill="#3B3C3A"/><path d="M314.487 195.809h-.079c-32.901-.019-73.576-13.785-85.133-43.965-2.963-7.736.907-16.409 8.643-19.372 7.737-2.961 16.409.907 19.372 8.644 5.297 13.831 30.394 24.678 57.136 24.693h.053c18.66 0 40.795-5.769 47.02-21.971 2.972-7.734 11.65-11.594 19.383-8.622 7.732 2.973 11.593 11.651 8.621 19.383-9.918 25.807-37.96 41.21-75.016 41.21m-62.572 114.87c-3.098 0-6.207-.009-9.343-.031-67.878-.454-131.594-5.662-170.442-13.93-8.102-1.724-13.272-9.691-11.549-17.795 1.725-8.101 9.682-13.273 17.795-11.548 76.472 16.277 253.237 19.318 329.228.128 8.033-2.03 16.187 2.839 18.217 10.871 2.027 8.032-2.84 16.188-10.872 18.215-35.677 9.01-94.729 14.09-163.034 14.09" fill="#3B3C3A"/><path d="M194.611 144.978c-16.416 7.616-64.877 45.084-82.877 62.955-18 17.871 7.334 41.206 20 29.872.5 22.665 40 27.165 46 2.986 16.877 14.029 50.5.179 42-24.32 18-.667 17.539-42.891-2.498-44.077 11.832-12.59-2.854-36.59-22.625-27.416" fill="#E46C79"/><path d="M155.219 266.976c-13.48 0-24.715-6.449-30.088-16.221-.421.024-.845.036-1.271.036-10.931 0-21.727-7.672-26.254-18.659-4.444-10.782-1.796-22.481 7.082-31.294 18.786-18.653 68.032-56.727 85.714-64.931 4.247-1.97 8.592-2.97 12.917-2.97 11.093 0 21.212 6.823 25.779 17.383 2.448 5.661 2.988 11.607 1.739 17.092 7.446 5.884 12.069 16.427 11.93 28.988-.131 11.887-4.614 21.461-11.709 26.408.28 6.592-1.564 12.908-5.46 18.383-6.674 9.38-18.693 15.207-31.366 15.207h-.001c-4.213 0-8.307-.671-12.111-1.954-5.939 7.856-15.583 12.532-26.901 12.532zm-23.483-39.171a10 10 0 0 1 9.995 9.78c.151 6.841 8.353 9.391 13.488 9.391 2.504 0 10.83-.619 12.809-8.594a9.998 9.998 0 0 1 6.588-7.092 9.99 9.99 0 0 1 9.51 1.811c3.279 2.725 7.305 3.297 10.105 3.297 6.12 0 12.177-2.733 15.071-6.803 1.991-2.797 2.312-6.017.984-9.845a9.999 9.999 0 0 1 9.078-13.272c.955-.035 3.332-3.688 3.405-10.299.069-6.352-2.428-13.584-6.124-13.803a9.998 9.998 0 0 1-6.697-16.829c2.439-2.595 1.368-5.961.793-7.288-1.113-2.572-3.647-5.322-7.422-5.322-1.396 0-2.91.374-4.499 1.112-14.374 6.669-61.5 42.574-80.04 60.98-3.147 3.125-4.025 6.226-2.682 9.482 1.524 3.702 5.314 6.28 7.762 6.28.599 0 .896-.161 1.206-.438a10 10 0 0 1 6.67-2.548" fill="#3B3C3A"/><path d="M170.316 160.368c8.539-5.904 30.252 23.488 5.584 40.821-24.666 17.333-49.369-6.987-39.338-15.005 10.031-8.017 23.994-19.07 33.754-25.816" fill="#FFFFFE"/><path d="M157.777 217.285c-16.461 0-28.991-10.403-32.421-20.19-2.492-7.11-.591-14.284 4.963-18.722 10.835-8.66 24.527-19.469 34.311-26.231 2.407-1.665 5.255-2.545 8.234-2.545 10.595 0 19.493 10.607 22.805 21.084 4.672 14.776-.569 29.238-14.02 38.69-7.368 5.177-15.622 7.914-23.872 7.914zm-12.528-25.241c1.907 2.165 6.299 5.241 12.528 5.241 4.17 0 8.334-1.44 12.374-4.278 5.253-3.691 7.578-7.968 7.108-13.076-.388-4.217-2.503-7.578-4.131-9.314-8.264 5.916-18.834 14.219-27.879 21.427" fill="#3B3C3A"/></svg>