<svg xmlns="http://www.w3.org/2000/svg" width="419.434" height="429.727" viewBox="0, 0, 419.434, 429.727"><path d="M410.15 402.993c0 14.765-91.815 26.734-205.075 26.734C91.815 429.727 0 417.758 0 402.993c0-14.77 91.815-26.741 205.075-26.741 113.26 0 205.075 11.971 205.075 26.741" fill="#D6D5D0"/><path d="M282.861 118.182C266.537 38.698 233.746 15 211.96 15c-21.785 0-54.576 23.698-70.898 103.182-80.639-9.037-113.31 14.826-120.043 35.545-6.73 20.719 5.674 59.228 76.225 99.314C63.73 326.94 76.33 365.386 93.955 378.192c17.623 12.805 58.082 12.906 118.007-41.804 59.926 54.709 100.383 54.607 118.01 41.802 17.623-12.804 30.223-51.251-3.293-125.15 70.549-40.085 82.955-78.595 76.223-99.316-6.731-20.718-39.402-44.58-120.041-35.542" fill="#F6D729"/><path d="M118.44 400.205c-12.892 0-24.407-3.416-33.303-9.878-11.254-8.177-43.677-41.146-6.891-131.113-82.641-51.161-75.79-96.891-71.493-110.122 4.459-13.721 15.734-25.818 31.749-34.064 22.068-11.363 52.664-15.793 90.817-13C152.437 7.603 198.048 0 211.96 0c13.913 0 59.523 7.603 82.644 102.028 38.15-2.795 68.745 1.634 90.814 12.999 16.018 8.247 27.293 20.344 31.75 34.062 4.298 13.23 11.152 58.961-71.491 110.124 36.789 89.968 4.366 122.936-6.888 131.112-8.896 6.463-20.414 9.879-33.305 9.879-19.418 0-50.929-7.881-93.522-43.849-42.592 35.969-74.104 43.85-93.522 43.85zm-10.422-268.991c-47.174 0-68.664 14.624-72.733 27.149-4.3 13.237 5.47 45.329 69.369 81.638 6.744 3.83 9.454 12.171 6.251 19.236-30.355 66.931-19.395 98.637-8.133 106.82 3.683 2.676 9.246 4.148 15.668 4.148 12.785 0 40.622-5.831 83.409-44.894 5.729-5.23 14.498-5.23 20.227 0 42.786 39.061 70.623 44.893 83.408 44.893 8.231 0 13.065-2.256 15.672-4.15 11.261-8.18 22.219-39.886-8.138-106.817-3.203-7.065-.493-15.407 6.251-19.239 63.899-36.307 73.668-68.4 69.367-81.638-4.068-12.524-25.556-27.147-72.727-27.147-9.722 0-20.279.631-31.377 1.875-7.708.865-14.804-4.291-16.364-11.888C253.382 49.207 225.88 30 211.96 30c-13.919 0-41.42 19.207-56.205 91.2a14.99 14.99 0 0 1-16.364 11.888c-11.097-1.243-21.652-1.874-31.373-1.874" fill="#3B3C3A"/><path d="M261.675 170.04c0 6.436-5.215 11.653-11.65 11.653-6.434 0-11.652-5.217-11.652-11.653 0-6.435 5.218-11.65 11.652-11.65 6.435 0 11.65 5.215 11.65 11.65m-71.005 0c0 6.436-5.214 11.653-11.652 11.653-6.433 0-11.65-5.217-11.65-11.653 0-6.435 5.217-11.65 11.65-11.65 6.438 0 11.652 5.215 11.652 11.65m22.827 29.972h-51.405s3.598 33.432 51.405 33.432c47.804 0 51.404-33.432 51.404-33.432h-51.404" fill="#3B3C3A"/></svg>