<svg xmlns="http://www.w3.org/2000/svg" width="426.353" height="427.954" viewBox="0, 0, 426.353, 427.954"><path d="M410.15 401.22c0 14.765-91.816 26.734-205.075 26.734C91.815 427.954 0 415.985 0 401.22c0-14.77 91.815-26.741 205.075-26.741 113.259 0 205.075 11.971 205.075 26.741" fill="#D6D5D0"/><path d="M277.526 132.22L160.858 248.887l-95.453-95.453c-11.715-11.715-11.715-30.711 0-42.426l74.242-74.241c11.715-11.716 30.709-11.716 42.426 0l95.453 95.453" fill="#FFFFFE"/><path d="M160.858 263.887a14.957 14.957 0 0 1-10.607-4.393L54.798 164.04c-17.546-17.545-17.546-46.092 0-63.638l74.243-74.241c8.498-8.5 19.798-13.18 31.818-13.18 12.019 0 23.32 4.68 31.82 13.179l95.453 95.454a14.996 14.996 0 0 1 0 21.213L171.464 259.494a14.955 14.955 0 0 1-10.606 4.393zm.001-220.906a14.896 14.896 0 0 0-10.605 4.392l-74.243 74.242c-5.848 5.848-5.848 15.364 0 21.212l84.847 84.847 95.455-95.454-84.847-84.847a14.901 14.901 0 0 0-10.607-4.392" fill="#3B3C3A"/><path d="M332.147 118.962c11.422 11.422 11.422 29.942-.002 41.365L188.963 303.509c-11.422 11.421-29.941 11.422-41.363 0-11.422-11.423-11.422-29.942 0-41.364l143.182-143.182c11.424-11.423 29.941-11.424 41.365-.001" fill="#E46C79"/><path d="M168.281 327.075c-11.819 0-22.931-4.602-31.287-12.959-17.252-17.254-17.252-45.326 0-62.577l143.181-143.182c8.359-8.359 19.471-12.961 31.29-12.961 11.819 0 22.93 4.602 31.288 12.96 8.358 8.357 12.96 19.469 12.96 31.289-.001 11.819-4.603 22.931-12.962 31.289L199.57 314.116c-8.358 8.357-19.47 12.959-31.289 12.959zm143.184-201.679a14.156 14.156 0 0 0-10.077 4.175l-143.181 143.18c-5.556 5.556-5.555 14.596.001 20.153a14.153 14.153 0 0 0 10.073 4.171 14.16 14.16 0 0 0 10.076-4.172L321.539 149.72a14.154 14.154 0 0 0 4.174-10.077c0-3.805-1.482-7.383-4.172-10.074a14.159 14.159 0 0 0-10.076-4.173" fill="#3B3C3A"/><path d="M404.704 232.396c8.89 8.892 8.89 23.309-.002 32.202L293.235 376.065c-8.891 8.892-23.309 8.892-32.201 0-8.893-8.893-8.893-23.31 0-32.202L372.5 232.396c8.893-8.892 23.309-8.893 32.204 0" fill="#FFFFFE"/><path d="M277.135 397.734c-10.089 0-19.573-3.929-26.708-11.062-14.726-14.727-14.726-38.689 0-53.416l111.467-111.467c7.136-7.134 16.619-11.062 26.708-11.062 10.088 0 19.572 3.928 26.707 11.061 14.727 14.73 14.725 38.691-.001 53.417L303.841 386.671c-7.133 7.134-16.617 11.063-26.706 11.063zm111.467-157.007a7.72 7.72 0 0 0-5.495 2.276L271.64 354.469c-3.029 3.03-3.029 7.959 0 10.989a7.723 7.723 0 0 0 5.495 2.276 7.714 7.714 0 0 0 5.492-2.275l111.468-111.467c3.03-3.031 3.03-7.96.001-10.991a7.723 7.723 0 0 0-5.494-2.274" fill="#3B3C3A"/><path d="M347.875 257.021l-62.216 62.217-56.213-56.212 62.219-62.218 56.21 56.213" fill="#FFFFFE"/><path d="M285.659 334.238a14.955 14.955 0 0 1-10.607-4.393l-56.213-56.212a15.001 15.001 0 0 1 0-21.214l62.219-62.217a15 15 0 0 1 21.213 0l56.211 56.213c5.858 5.857 5.858 15.355 0 21.212l-62.217 62.217a14.948 14.948 0 0 1-10.606 4.394zm-35-71.212l35 34.999 41.004-41.004-34.998-34.999-41.006 41.004" fill="#3B3C3A"/><path d="M68.932 15l-41.164 6.704 63.471 63.47 23.933-23.932L68.932 15" fill="#FFFFFE"/><path d="M91.239 100.174a14.957 14.957 0 0 1-10.607-4.393L17.162 32.31a14.995 14.995 0 0 1-3.669-15.211 14.997 14.997 0 0 1 11.864-10.2L66.521.196a14.993 14.993 0 0 1 13.018 4.198l46.241 46.241a15.004 15.004 0 0 1 0 21.214l-23.935 23.933a14.958 14.958 0 0 1-10.606 4.392zM59.08 31.802l32.159 32.159 2.72-2.72-30.2-30.201-4.679.762m15.094 140.402a9.972 9.972 0 0 1-7.071-2.929c-3.905-3.906-3.905-10.237 0-14.143l42.617-42.617c3.906-3.905 10.237-3.905 14.144 0 3.904 3.905 3.904 10.237 0 14.143l-42.618 42.617a9.975 9.975 0 0 1-7.072 2.929m19.672 19.67a9.967 9.967 0 0 1-7.071-2.928c-3.905-3.906-3.905-10.238 0-14.143l28.475-28.475c3.906-3.905 10.236-3.905 14.142 0 3.905 3.906 3.905 10.238 0 14.143l-28.475 28.475a9.965 9.965 0 0 1-7.071 2.928m19.67 19.672a9.967 9.967 0 0 1-7.071-2.928c-3.905-3.906-3.905-10.238 0-14.143l42.617-42.617c3.906-3.905 10.236-3.905 14.143 0 3.905 3.905 3.905 10.237 0 14.142l-42.618 42.618a9.965 9.965 0 0 1-7.071 2.928m19.672 19.671a9.97 9.97 0 0 1-7.071-2.928c-3.906-3.906-3.906-10.238 0-14.143l28.474-28.475c3.907-3.905 10.237-3.905 14.143 0 3.905 3.906 3.905 10.238 0 14.143l-28.475 28.475a9.97 9.97 0 0 1-7.071 2.928" fill="#3B3C3A"/></svg>