<?xml version="1.0" encoding="UTF-8"?>
<!DOCTYPE svg PUBLIC "-//W3C//DTD SVG 1.1//EN" "http://www.w3.org/Graphics/SVG/1.1/DTD/svg11.dtd">
<svg version="1.1" xmlns="http://www.w3.org/2000/svg" xmlns:xlink="http://www.w3.org/1999/xlink" x="0" y="0" width="410.15" height="434.565" viewBox="0, 0, 410.15, 434.565">
  <g id="Layer_1" transform="translate(-1170.179, -3060.581)">

    <g id="toy-rabbit">
      <path d="M1580.329,3468.411 C1580.329,3483.177 1488.513,3495.146 1375.254,3495.146 C1261.994,3495.146 1170.179,3483.177 1170.179,3468.411 C1170.179,3453.641 1261.994,3441.671 1375.254,3441.671 C1488.513,3441.671 1580.329,3453.641 1580.329,3468.411" fill="#D6D5D0"/>
      <path d="M1358.257,3140.155 C1358.257,3140.155 1358.257,3114.027 1358.257,3097.566 C1358.257,3064.105 1295.718,3071.027 1295.718,3103.566 C1295.718,3130.105 1295.718,3153.465 1295.718,3153.465 L1358.257,3140.155" fill="#E46C79"/>
      <path d="M1295.718,3168.465 C1292.312,3168.465 1288.975,3167.305 1286.279,3165.123 C1282.762,3162.275 1280.718,3157.991 1280.718,3153.465 L1280.718,3103.566 C1280.718,3076.66 1306.546,3060.581 1331.515,3060.581 C1356.092,3060.581 1373.257,3075.79 1373.257,3097.566 L1373.257,3140.155 C1373.257,3147.236 1368.304,3153.352 1361.379,3154.827 L1298.84,3168.136 C1297.805,3168.356 1296.758,3168.465 1295.718,3168.465 z M1331.515,3090.581 C1323.015,3090.581 1310.718,3095.205 1310.718,3103.566 L1310.718,3134.936 L1343.257,3128.012 L1343.257,3097.566 C1343.257,3091.793 1336.872,3090.581 1331.515,3090.581" fill="#3B3C3A"/>
      <path d="M1403.43,3140.155 C1403.43,3140.155 1403.43,3114.027 1403.43,3097.566 C1403.43,3064.105 1465.97,3071.027 1465.97,3103.566 C1465.97,3130.105 1465.97,3153.465 1465.97,3153.465 L1403.43,3140.155" fill="#E46C79"/>
      <path d="M1465.97,3168.465 C1464.929,3168.465 1463.884,3168.357 1462.847,3168.136 L1400.308,3154.827 C1393.383,3153.352 1388.43,3147.236 1388.43,3140.155 L1388.43,3097.566 C1388.43,3075.79 1405.596,3060.581 1430.172,3060.581 C1455.141,3060.581 1480.97,3076.66 1480.97,3103.566 L1480.97,3153.465 C1480.97,3157.991 1478.926,3162.275 1475.408,3165.123 C1472.714,3167.305 1469.374,3168.465 1465.97,3168.465 z M1418.43,3128.012 L1450.97,3134.936 L1450.97,3103.566 C1450.97,3095.205 1438.672,3090.581 1430.172,3090.581 C1424.815,3090.581 1418.43,3091.793 1418.43,3097.566 L1418.43,3128.012" fill="#3B3C3A"/>
      <path d="M1476.212,3303.603 C1499.294,3293.657 1529.011,3273.34 1529.011,3229.223 C1529.011,3185.105 1490.212,3139.352 1382.139,3139.352 C1274.069,3139.352 1235.27,3185.105 1235.27,3229.223 C1235.27,3273.34 1264.987,3293.657 1288.069,3303.603 C1288.069,3303.603 1245.069,3320.6 1245.069,3378.105 C1245.069,3400.035 1250.927,3460.65 1382.139,3460.65 C1513.354,3460.65 1519.212,3400.035 1519.212,3378.105 C1519.212,3320.6 1476.212,3303.603 1476.212,3303.603 z M1438.126,3409.069 C1425.212,3409.069 1418.055,3393.105 1410.634,3393.105 C1403.212,3393.105 1393.143,3412.803 1382.139,3412.803 C1371.137,3412.803 1361.069,3393.105 1353.647,3393.105 C1346.225,3393.105 1339.069,3409.069 1326.155,3409.069 C1313.239,3409.069 1311.555,3398.555 1311.555,3371.67 C1311.555,3344.785 1347.534,3340.486 1382.139,3340.486 C1416.745,3340.486 1452.725,3344.785 1452.725,3371.67 C1452.725,3398.555 1451.042,3409.069 1438.126,3409.069" fill="#FFFFFE"/>
      <path d="M1382.139,3475.65 C1321.779,3475.65 1278.595,3463.05 1253.784,3438.2 C1238.048,3422.437 1230.069,3402.219 1230.069,3378.105 C1230.069,3341.062 1245.487,3318.19 1259.621,3305.004 C1233.775,3287 1220.27,3261.187 1220.27,3229.223 C1220.27,3178.525 1262.794,3124.352 1382.139,3124.352 C1501.487,3124.352 1544.011,3178.525 1544.011,3229.223 C1544.011,3261.187 1530.506,3287 1504.66,3305.004 C1518.794,3318.19 1534.212,3341.062 1534.212,3378.105 C1534.212,3402.219 1526.232,3422.438 1510.496,3438.2 C1485.685,3463.05 1442.501,3475.65 1382.139,3475.65 z M1293.642,3317.531 C1291.448,3318.473 1260.069,3332.758 1260.069,3378.105 C1260.069,3422.925 1301.139,3445.65 1382.139,3445.65 C1463.14,3445.65 1504.212,3422.925 1504.212,3378.105 C1504.212,3331.341 1471.033,3317.686 1470.698,3317.553 C1465.051,3315.321 1461.305,3309.904 1461.214,3303.832 C1461.121,3297.76 1464.699,3292.231 1470.276,3289.828 C1499.705,3277.147 1514.011,3257.323 1514.011,3229.223 C1514.011,3215.618 1509.369,3196.01 1487.255,3179.856 C1464.413,3163.171 1428.064,3154.352 1382.139,3154.352 C1336.216,3154.352 1299.868,3163.171 1277.026,3179.856 C1254.912,3196.01 1250.27,3215.618 1250.27,3229.223 C1250.27,3257.323 1264.576,3277.147 1294.005,3289.828 C1299.632,3292.252 1303.356,3297.802 1303.203,3303.927 C1303.05,3310.031 1299.349,3315.377 1293.642,3317.531 z M1382.139,3427.803 C1369.751,3427.803 1360.866,3418.642 1354.378,3411.953 C1354.073,3411.639 1353.739,3411.294 1353.391,3410.938 C1347.601,3416.379 1338.998,3424.069 1326.155,3424.069 C1313.284,3424.069 1303.928,3417.395 1299.809,3405.278 C1297.088,3397.269 1296.555,3386.891 1296.555,3371.67 C1296.555,3360.817 1300.788,3341.202 1329.132,3331.765 C1341.995,3327.481 1358.839,3325.486 1382.139,3325.486 C1405.44,3325.486 1422.284,3327.481 1435.148,3331.765 C1463.493,3341.202 1467.725,3360.817 1467.725,3371.67 C1467.725,3386.891 1467.193,3397.269 1464.472,3405.278 C1460.353,3417.395 1450.997,3424.069 1438.126,3424.069 C1425.283,3424.069 1416.68,3416.379 1410.889,3410.938 C1410.542,3411.294 1410.208,3411.638 1409.903,3411.952 C1403.415,3418.642 1394.529,3427.803 1382.139,3427.803 z M1353.647,3378.105 C1363.342,3378.105 1370.02,3384.991 1375.913,3391.066 C1377.638,3392.845 1380.249,3395.537 1382.14,3397.04 C1384.032,3395.537 1386.643,3392.845 1388.369,3391.065 C1394.261,3384.991 1400.939,3378.105 1410.634,3378.105 C1419.787,3378.105 1425.924,3383.887 1430.854,3388.532 C1432.281,3389.875 1434.859,3392.304 1436.652,3393.445 C1437.725,3387.639 1437.725,3375.981 1437.725,3371.67 C1437.725,3369.074 1437.725,3364.242 1425.671,3360.228 C1416.088,3357.038 1401.848,3355.486 1382.139,3355.486 C1362.43,3355.486 1348.192,3357.038 1338.609,3360.228 C1326.555,3364.242 1326.555,3369.074 1326.555,3371.67 C1326.555,3375.981 1326.555,3387.639 1327.629,3393.445 C1329.422,3392.304 1332,3389.875 1333.427,3388.532 C1338.357,3383.887 1344.494,3378.105 1353.647,3378.105" fill="#3B3C3A"/>
      <path d="M1295.718,3307.084 C1232.718,3282.019 1217.718,3330.084 1274.161,3348.931 L1295.718,3307.084" fill="#FFFFFE"/>
      <path d="M1274.163,3363.934 C1272.588,3363.935 1270.987,3363.685 1269.41,3363.159 C1244.149,3354.723 1227.831,3339.972 1224.64,3322.684 C1222.623,3311.754 1226.541,3301.023 1235.121,3293.98 C1249.279,3282.359 1273.386,3282.055 1301.262,3293.146 C1308.96,3296.209 1312.718,3304.932 1309.655,3312.629 C1306.593,3320.326 1297.874,3324.083 1290.173,3321.021 C1266.409,3311.567 1255.814,3315.658 1254.115,3317.189 C1254.358,3319.897 1260.42,3328.528 1278.912,3334.702 C1286.769,3337.327 1291.012,3345.824 1288.389,3353.681 C1286.292,3359.963 1280.44,3363.934 1274.163,3363.934" fill="#3B3C3A"/>
      <path d="M1468.108,3307.084 C1531.108,3282.019 1546.108,3330.084 1489.665,3348.931 L1468.108,3307.084" fill="#FFFFFE"/>
      <path d="M1489.663,3363.934 C1483.386,3363.935 1477.535,3359.963 1475.437,3353.681 C1472.813,3345.824 1477.056,3337.327 1484.914,3334.702 C1503.406,3328.528 1509.468,3319.897 1509.711,3317.189 C1508.012,3315.657 1497.416,3311.566 1473.653,3321.021 C1465.955,3324.083 1457.233,3320.326 1454.171,3312.629 C1451.108,3304.932 1454.866,3296.209 1462.563,3293.146 C1490.438,3282.054 1514.547,3282.358 1528.705,3293.98 C1537.285,3301.023 1541.203,3311.754 1539.185,3322.684 C1535.995,3339.972 1519.677,3354.723 1494.416,3363.159 C1492.84,3363.685 1491.238,3363.934 1489.663,3363.934" fill="#3B3C3A"/>
      <path d="M1341.409,3206.56 C1341.409,3212.358 1336.708,3217.06 1330.909,3217.06 C1325.11,3217.06 1320.409,3212.358 1320.409,3206.56 C1320.409,3200.761 1325.11,3196.06 1330.909,3196.06 C1336.708,3196.06 1341.409,3200.761 1341.409,3206.56" fill="#3B3C3A"/>
      <path d="M1447.909,3206.56 C1447.909,3212.358 1443.208,3217.06 1437.409,3217.06 C1431.61,3217.06 1426.909,3212.358 1426.909,3206.56 C1426.909,3200.761 1431.61,3196.06 1437.409,3196.06 C1443.208,3196.06 1447.909,3200.761 1447.909,3206.56" fill="#3B3C3A"/>
      <path d="M1382.159,3259.333 C1363.36,3259.333 1351.203,3242.433 1349.879,3240.506 C1346.751,3235.954 1347.904,3229.728 1352.456,3226.6 C1356.995,3223.481 1363.197,3224.619 1366.335,3229.14 C1368.339,3231.981 1375.072,3239.333 1382.159,3239.333 C1391.275,3239.333 1397.625,3229.693 1397.684,3229.596 C1400.582,3224.894 1406.742,3223.432 1411.444,3226.328 C1416.146,3229.225 1417.609,3235.386 1414.712,3240.088 C1414.227,3240.873 1402.617,3259.333 1382.159,3259.333" fill="#3B3C3A"/>
      <path d="M1382.159,3288.672 C1341.277,3288.672 1332.984,3264.547 1332.651,3263.52 L1350.194,3257.831 C1350.194,3257.831 1350.17,3257.734 1350.099,3257.559 C1350.306,3258.076 1355.486,3270.23 1382.159,3270.23 C1410.561,3270.23 1413.819,3259.029 1413.848,3258.916 C1413.773,3259.204 1413.767,3259.369 1413.767,3259.369 L1432.023,3261.982 C1431.633,3264.714 1426.911,3288.672 1382.159,3288.672" fill="#3B3C3A"/>
      <path d="M1382.159,3288.672 C1377.066,3288.672 1372.938,3284.544 1372.938,3279.451 L1372.938,3249.333 C1372.938,3244.24 1377.066,3240.112 1382.159,3240.112 C1387.253,3240.112 1391.38,3244.24 1391.38,3249.333 L1391.38,3279.451 C1391.38,3284.544 1387.253,3288.672 1382.159,3288.672" fill="#3B3C3A"/>
    </g>
  </g>
</svg>
