<svg xmlns="http://www.w3.org/2000/svg" width="410.15" height="434.565" viewBox="0, 0, 410.15, 434.565"><path d="M410.15 407.83c0 14.766-91.816 26.735-205.075 26.735C91.815 434.565 0 422.596 0 407.83c0-14.77 91.815-26.74 205.075-26.74 113.259 0 205.075 11.97 205.075 26.74" fill="#D6D5D0"/><path d="M188.078 79.574V36.985c0-33.461-62.539-26.539-62.539 6v49.899l62.539-13.31" fill="#E46C79"/><path d="M125.539 107.884a15 15 0 0 1-15-15V42.985C110.539 16.079 136.367 0 161.336 0c24.577 0 41.742 15.209 41.742 36.985v42.589A15.003 15.003 0 0 1 191.2 94.246l-62.539 13.309a15.02 15.02 0 0 1-3.122.329zM161.336 30c-8.5 0-20.797 4.624-20.797 12.985v31.37l32.539-6.924V36.985c0-5.773-6.385-6.985-11.742-6.985" fill="#3B3C3A"/><path d="M233.251 79.574V36.985c0-33.461 62.54-26.539 62.54 6v49.899l-62.54-13.31" fill="#E46C79"/><path d="M295.791 107.884c-1.041 0-2.086-.108-3.123-.329l-62.539-13.309a15.003 15.003 0 0 1-11.878-14.672V36.985C218.251 15.209 235.417 0 259.993 0c24.969 0 50.798 16.079 50.798 42.985v49.899a15 15 0 0 1-15 15zm-47.54-40.453l32.54 6.924v-31.37c0-8.361-12.298-12.985-20.798-12.985-5.357 0-11.742 1.212-11.742 6.985v30.446" fill="#3B3C3A"/><path d="M306.033 243.022c23.082-9.946 52.799-30.263 52.799-74.38 0-44.118-38.799-89.871-146.872-89.871-108.07 0-146.869 45.753-146.869 89.871 0 44.117 29.717 64.434 52.799 74.38 0 0-43 16.997-43 74.502 0 21.93 5.858 82.545 137.07 82.545 131.215 0 137.073-60.615 137.073-82.545 0-57.505-43-74.502-43-74.502zm-38.086 105.466c-12.914 0-20.071-15.964-27.492-15.964-7.422 0-17.491 19.698-28.495 19.698-11.002 0-21.07-19.698-28.492-19.698-7.422 0-14.578 15.964-27.492 15.964-12.916 0-14.6-10.514-14.6-37.399s35.979-31.184 70.584-31.184c34.606 0 70.586 4.299 70.586 31.184s-1.683 37.399-14.599 37.399" fill="#FFFFFE"/><path d="M211.96 415.069c-60.36 0-103.544-12.6-128.355-37.45-15.736-15.763-23.715-35.981-23.715-60.095 0-37.043 15.418-59.915 29.552-73.101-25.846-18.004-39.351-43.817-39.351-75.781 0-50.698 42.524-104.871 161.869-104.871 119.348 0 161.872 54.173 161.872 104.871 0 31.964-13.505 57.777-39.351 75.781 14.134 13.186 29.552 36.058 29.552 73.101 0 24.114-7.98 44.333-23.716 60.095-24.811 24.85-67.995 37.45-128.357 37.45zM123.463 256.95c-2.194.942-33.573 15.227-33.573 60.574 0 44.82 41.07 67.545 122.07 67.545 81.001 0 122.073-22.725 122.073-67.545 0-46.764-33.179-60.419-33.514-60.552a14.999 14.999 0 1 1-.422-27.725c29.429-12.681 43.735-32.505 43.735-60.605 0-13.605-4.642-33.213-26.756-49.367-22.842-16.685-59.191-25.504-105.116-25.504-45.923 0-82.271 8.819-105.113 25.504-22.114 16.154-26.756 35.762-26.756 49.367 0 28.1 14.306 47.924 43.735 60.605 5.627 2.424 9.351 7.974 9.198 14.099-.153 6.104-3.854 11.45-9.561 13.604zm88.497 110.272c-12.388 0-21.273-9.161-27.761-15.85-.305-.314-.639-.659-.987-1.015-5.79 5.441-14.393 13.131-27.236 13.131-12.871 0-22.227-6.674-26.346-18.791-2.721-8.009-3.254-18.387-3.254-33.608 0-10.853 4.233-30.468 32.577-39.905 12.863-4.284 29.707-6.279 53.007-6.279 23.301 0 40.145 1.995 53.009 6.279 28.345 9.437 32.577 29.052 32.577 39.905 0 15.221-.532 25.599-3.253 33.608-4.119 12.117-13.475 18.791-26.346 18.791-12.843 0-21.446-7.69-27.237-13.131l-.986 1.014c-6.488 6.69-15.374 15.851-27.764 15.851zm-28.492-49.698c9.695 0 16.373 6.886 22.266 12.961 1.725 1.779 4.336 4.471 6.227 5.974 1.892-1.503 4.503-4.195 6.229-5.975 5.892-6.074 12.57-12.96 22.265-12.96 9.153 0 15.29 5.782 20.22 10.427 1.427 1.343 4.005 3.772 5.798 4.913 1.073-5.806 1.073-17.464 1.073-21.775 0-2.596 0-7.428-12.054-11.442-9.583-3.19-23.823-4.742-43.532-4.742-19.709 0-33.947 1.552-43.53 4.742-12.054 4.014-12.054 8.846-12.054 11.442 0 4.311 0 15.969 1.074 21.775 1.793-1.141 4.371-3.57 5.798-4.913 4.93-4.645 11.067-10.427 20.22-10.427" fill="#3B3C3A"/><path d="M125.539 246.503c-63-25.065-78 23-21.557 41.847l21.557-41.847" fill="#FFFFFE"/><path d="M103.984 303.353a14.967 14.967 0 0 1-4.753-.775c-25.261-8.436-41.579-23.187-44.77-40.475-2.017-10.93 1.901-21.661 10.481-28.704 14.158-11.621 38.265-11.925 66.141-.834 7.698 3.063 11.456 11.786 8.393 19.483-3.062 7.697-11.781 11.454-19.482 8.392-23.764-9.454-34.359-5.363-36.058-3.832.243 2.708 6.305 11.339 24.797 17.513 7.857 2.625 12.1 11.122 9.477 18.979-2.097 6.282-7.949 10.253-14.226 10.253" fill="#3B3C3A"/><path d="M297.929 246.503c63-25.065 78 23 21.557 41.847l-21.557-41.847" fill="#FFFFFE"/><path d="M319.484 303.353c-6.277.001-12.128-3.971-14.226-10.253-2.624-7.857 1.619-16.354 9.477-18.979 18.492-6.174 24.554-14.805 24.797-17.513-1.699-1.532-12.295-5.623-36.058 3.832-7.698 3.062-16.42-.695-19.482-8.392-3.063-7.697.695-16.42 8.392-19.483 27.875-11.092 51.984-10.788 66.142.834 8.58 7.043 12.498 17.774 10.48 28.704-3.19 17.288-19.508 32.039-44.769 40.475a14.99 14.99 0 0 1-4.753.775M171.23 145.979c0 5.798-4.701 10.5-10.5 10.5s-10.5-4.702-10.5-10.5c0-5.799 4.701-10.5 10.5-10.5s10.5 4.701 10.5 10.5m106.5 0c0 5.798-4.701 10.5-10.5 10.5s-10.5-4.702-10.5-10.5c0-5.799 4.701-10.5 10.5-10.5s10.5 4.701 10.5 10.5m-65.75 52.773c-18.799 0-30.956-16.9-32.28-18.827-3.128-4.552-1.975-10.778 2.577-13.906 4.539-3.119 10.741-1.981 13.879 2.54 2.004 2.841 8.737 10.193 15.824 10.193 9.116 0 15.466-9.64 15.525-9.737 2.898-4.702 9.058-6.164 13.76-3.268 4.702 2.897 6.165 9.058 3.268 13.76-.485.785-12.095 19.245-32.553 19.245" fill="#3B3C3A"/><path d="M211.98 228.091c-40.882 0-49.175-24.125-49.508-25.152l17.543-5.689s-.024-.097-.095-.272c.207.517 5.387 12.671 32.06 12.671 28.402 0 31.66-11.201 31.689-11.314-.075.288-.081.453-.081.453l18.256 2.613c-.39 2.732-5.112 26.69-49.864 26.69" fill="#3B3C3A"/><path d="M211.98 228.091a9.22 9.22 0 0 1-9.221-9.221v-30.118a9.22 9.22 0 0 1 9.221-9.221 9.22 9.22 0 0 1 9.221 9.221v30.118a9.22 9.22 0 0 1-9.221 9.221" fill="#3B3C3A"/></svg>