<svg xmlns="http://www.w3.org/2000/svg" width="420.287" height="412.727" viewBox="0, 0, 420.287, 412.727"><path d="M416.831 385.992c0 14.766-91.815 26.734-205.075 26.734-113.26 0-205.074-11.968-205.074-26.734 0-14.769 91.814-26.74 205.074-26.74 113.26 0 205.075 11.971 205.075 26.74" fill="#D6D5D0"/><path d="M210.248 373.981c-110.246 0-172.661-37.598-175.264-39.197l15.713-25.557c.566.347 57.7 34.754 159.551 34.754 85.288 0 148.512-27.616 164.259-40.213l18.74 23.426c-9.694 7.755-31.802 19.615-64.773 29.638-25.734 7.823-67.134 17.149-118.226 17.149" fill="#3B3C3A"/><path d="M135.983 262.041l-33.518 83.238c13.871 3.725 29.783 7.106 47.527 9.581l30.207-75.014-44.216-17.805" fill="#F6D729"/><path d="M150 369.86c-.689 0-1.383-.047-2.08-.145-16.97-2.367-33.573-5.715-49.345-9.949a15.001 15.001 0 0 1-10.024-20.09l33.518-83.238c3.094-7.684 11.833-11.41 19.517-8.311l44.216 17.805a14.996 14.996 0 0 1 8.311 19.517l-30.207 75.014A15.003 15.003 0 0 1 150 369.86zm-27.146-35.059a385.324 385.324 0 0 0 17.667 3.42l20.161-50.065-16.387-6.597-21.441 53.242" fill="#3B3C3A"/><path d="M293.82 259.541l-44.216 17.805 30.441 75.594c17.374-3.049 33.094-7.008 46.83-11.313l-33.055-82.086" fill="#F6D729"/><path d="M280.037 367.94c-6.03 0-11.59-3.647-13.906-9.397l-30.441-75.594a14.999 14.999 0 0 1 8.312-19.517l44.216-17.805c7.682-3.093 16.422.625 19.516 8.311l33.055 82.086a14.997 14.997 0 0 1-9.429 19.916c-15.509 4.861-31.902 8.822-48.722 11.773-.871.153-1.742.227-2.601.227zm-10.915-82.283l20.224 50.224a363.793 363.793 0 0 0 17.401-4.082l-21.238-52.74-16.387 6.598" fill="#3B3C3A"/><path d="M76.447 75.533l-7.57-46.552s57.181-25.713 98.181-7.5c41.001 18.215 59.466 80.5 66.819 134.601-33.695 12-156.5-79.199-156.5-79.199l-.93-1.35" fill="#70B7D3"/><path d="M226.626 172.24c-15.23 0-41.057-7.711-91.447-38.453-35.092-21.41-65.469-43.914-66.745-44.863A14.918 14.918 0 0 1 64.57 84.7a14.964 14.964 0 0 1-2.929-6.76l-7.57-46.553a15 15 0 0 1 8.655-16.088c2.583-1.162 63.829-28.225 110.422-7.527 49.004 21.771 68.156 91.57 75.592 146.291a15 15 0 0 1-9.831 16.15c-3.252 1.158-7.171 2.026-12.283 2.027zM90.389 67.811c9.405 6.806 33.893 24.195 60.578 40.467 34.302 20.914 54.185 29.091 65.265 32.172-10.111-56.034-29.884-93.987-55.263-105.262-23.305-10.352-56.246-3.117-75.337 3.373l4.757 29.25" fill="#3B3C3A"/><path d="M137.267 60.784c-43.038 5.941-125.89 24.894-122.14 89.546 3.75 64.651 86.404 57.395 86.404 57.395 2.067 33.396 13.393 86.572 106.369 86.572 92.977 0 123.244-41.933 123.244-75.521 0-56.164-55.575-71-92.276-65-31.143 5.091-46.299-4.387-52.602-27.313-6-21.826-17.298-70.056-48.999-65.679" fill="#FFFFFE"/><path d="M207.9 309.297c-45.35 0-78.575-12.146-98.749-36.1-13.571-16.115-18.908-34.703-21.175-50.363-11.912-.509-29.735-2.691-46.095-10.277C16.22 200.658 1.79 179.442.152 151.198-3.063 95.78 44.904 58.391 135.217 45.924a44.162 44.162 0 0 1 6.027-.42c12.179 0 29.562 5.36 43.216 30.899 7.682 14.367 12.286 31.38 15.333 42.638.327 1.209.639 2.36.937 3.446 3.623 13.179 9.464 17.629 23.147 17.629 3.698 0 7.928-.385 12.571-1.145 5.832-.953 11.934-1.436 18.135-1.436 22.696 0 44.034 6.276 60.083 17.674 20.593 14.625 31.478 36.606 31.478 63.567 0 41.758-36.206 90.521-138.244 90.521zm-106.403-116.57c3.592 0 7.093 1.289 9.829 3.654a15.02 15.02 0 0 1 5.177 10.416c2.218 35.852 14.811 72.5 91.397 72.5 79.895 0 108.244-32.603 108.244-60.521 0-48.77-51.281-51.241-61.561-51.241-4.585 0-9.058.35-13.295 1.043-6.238 1.02-12.097 1.538-17.411 1.538-27.316 0-44.836-13.35-52.074-39.676-.308-1.123-.63-2.313-.968-3.561-4.16-15.373-13.903-51.375-29.591-51.375-.613 0-1.261.047-1.925.139-42.051 5.805-112.158 23.113-109.218 73.818 1 17.223 8.752 28.623 24.399 35.879 14.315 6.637 31.014 7.629 39.693 7.629 3.736 0 6.038-.187 6.061-.189.415-.036.829-.053 1.243-.053" fill="#3B3C3A"/><path d="M115.053 77.7c-15.687-46.577 37.746-37.135 59.443 12.509L115.053 77.7" fill="#FFFFFE"/><path d="M174.504 105.213c-5.781 0-11.289-3.361-13.752-8.998-10.361-23.705-27.236-32.988-33.523-33.791-.061 1.738.209 5.055 2.039 10.486 2.644 7.852-1.577 16.36-9.427 19.004-7.852 2.641-16.359-1.576-19.004-9.427-9.365-27.809 1.159-43.069 14.131-48.077 23.898-9.23 57.446 13.578 73.272 49.791 3.319 7.592-.146 16.434-7.737 19.752a14.922 14.922 0 0 1-5.999 1.26m-66.189 12.969c0 6.434-5.214 11.652-11.65 11.652-6.434 0-11.652-5.218-11.652-11.652 0-6.438 5.218-11.65 11.652-11.65 6.436 0 11.65 5.212 11.65 11.65m-83.553 67.062h-2.565c-5.522 0-10-4.478-10-10 0-5.523 4.478-10 10-10h1.194c12.362.026 33.175.016 40.999-6.654 4.204-3.582 10.513-3.078 14.097 1.123 3.583 4.203 3.08 10.516-1.123 14.098-13.076 11.146-35.63 11.433-52.602 11.433m307.263 4.739c.001-.001 29.762-18.526 51.762-4.514s21.645 34.512 17.645 47.012 11.855 24 18.855 24.5c-2.5 14-24.328 22.666-47.658 12.972-23.33-9.693-19.924-33.111-19.883-44.402.041-11.289-8.258-24.898-16.383-22.807-8.125 2.092-4.338-12.761-4.338-12.761" fill="#3B3C3A"/><path d="M241.877 218.303c39.064 3.627 55.889-20.769 59.65-53.764-18.902-11.312-43.382-13.914-62.659-10.763-14.976 2.449-26.245 1.519-34.62-2.647-5.371 23.852-7.371 62.996 37.629 67.174" fill="#F6D729"/><path d="M249.35 233.66h-.001c-2.865 0-5.845-.142-8.859-.421-19.363-1.799-33.909-9.217-43.236-22.053-10.941-15.057-13.582-36.963-7.64-63.352l4.199-18.648 17.116 8.513c5.429 2.698 14.129 3.135 25.518 1.272 5.829-.951 11.927-1.436 18.124-1.436 20.021 0 39.432 5.02 54.659 14.133l8.295 4.965-1.094 9.606c-4.884 42.845-29.337 67.421-67.081 67.421zm-32.741-63.882c-.605 10.255 1.051 18.455 4.914 23.773 4.089 5.627 11.201 8.838 21.741 9.816 2.095.194 4.143.293 6.086.293 12.578 0 29.267-3.416 35.557-30.623-9.016-3.58-19.475-5.502-30.336-5.502-4.582 0-9.05.352-13.284 1.043-6.225 1.02-12.075 1.535-17.385 1.535a76.5 76.5 0 0 1-7.293-.335" fill="#3B3C3A"/><path d="M44.816 92.076c13.561 21.405 42.561 65.094 40.197 114.135L44.816 92.076" fill="#FFFFFE"/><path d="M95.001 206.692l-19.977-.963c2.128-44.139-23.425-84.338-37.153-105.936l-1.502-2.365 16.895-10.703 1.486 2.34c14.917 23.469 42.685 67.15 40.251 117.627" fill="#3B3C3A"/></svg>