<?xml version="1.0" encoding="UTF-8"?>
<!DOCTYPE svg PUBLIC "-//W3C//DTD SVG 1.1//EN" "http://www.w3.org/Graphics/SVG/1.1/DTD/svg11.dtd">
<svg version="1.1" xmlns="http://www.w3.org/2000/svg" xmlns:xlink="http://www.w3.org/1999/xlink" x="0" y="0" width="421.613" height="413.728" viewBox="0, 0, 421.613, 413.728">
  <g id="Layer_1" transform="translate(-8.171, -4926.588)">

    <g id="toys">
      <path d="M418.321,5313.581 C418.321,5328.346 326.507,5340.316 213.247,5340.316 C99.987,5340.316 8.171,5328.346 8.171,5313.581 C8.171,5298.811 99.987,5286.841 213.247,5286.841 C326.507,5286.841 418.321,5298.811 418.321,5313.581" fill="#D6D5D0"/>
      <path d="M225.784,5164.189 C225.784,5186.97 207.317,5205.436 184.537,5205.436 C161.756,5205.436 143.289,5186.97 143.289,5164.189 C143.289,5141.408 161.756,5122.941 184.537,5122.941 C207.317,5122.941 225.784,5141.408 225.784,5164.189" fill="#FFFFFE"/>
      <path d="M184.537,5220.436 C153.521,5220.436 128.289,5195.203 128.289,5164.189 C128.289,5133.174 153.521,5107.941 184.537,5107.941 C215.552,5107.941 240.784,5133.174 240.784,5164.189 C240.784,5195.203 215.552,5220.436 184.537,5220.436 z M184.537,5137.941 C170.063,5137.941 158.289,5149.716 158.289,5164.189 C158.289,5178.661 170.063,5190.436 184.537,5190.436 C199.01,5190.436 210.784,5178.661 210.784,5164.189 C210.784,5149.716 199.01,5137.941 184.537,5137.941" fill="#3B3C3A"/>
      <path d="M307.784,5164.189 C307.784,5186.97 289.317,5205.436 266.537,5205.436 C243.756,5205.436 225.289,5186.97 225.289,5164.189 C225.289,5141.408 243.756,5122.941 266.537,5122.941 C289.317,5122.941 307.784,5141.408 307.784,5164.189" fill="#70B7D3"/>
      <path d="M266.537,5220.436 C235.521,5220.436 210.289,5195.203 210.289,5164.189 C210.289,5133.174 235.521,5107.941 266.537,5107.941 C297.552,5107.941 322.784,5133.174 322.784,5164.189 C322.784,5195.203 297.552,5220.436 266.537,5220.436 z M266.537,5137.941 C252.063,5137.941 240.289,5149.716 240.289,5164.189 C240.289,5178.661 252.063,5190.436 266.537,5190.436 C281.01,5190.436 292.784,5178.661 292.784,5164.189 C292.784,5149.716 281.01,5137.941 266.537,5137.941" fill="#3B3C3A"/>
      <path d="M218.789,5301.941 C161.181,5301.941 98.741,5298.271 59.517,5294.839 C40.653,5293.187 26.299,5284.034 18.007,5268.37 C12.317,5257.62 9.551,5244.027 9.551,5226.811 C9.551,5223.87 9.442,5219.653 9.305,5214.312 C8.382,5178.461 6.22,5094.499 29.23,5026.759 C42.242,4988.451 68.553,4960.814 107.431,4944.616 C136.547,4932.485 172.973,4926.588 218.789,4926.588 C264.606,4926.588 301.032,4932.485 330.148,4944.616 C369.026,4960.814 395.337,4988.451 408.349,5026.759 C431.427,5094.699 429.223,5178.447 428.282,5214.208 C428.14,5219.595 428.028,5223.848 428.028,5226.811 C428.028,5244.027 425.262,5257.62 419.572,5268.37 C411.28,5284.034 396.926,5293.187 378.061,5294.839 C338.838,5298.271 276.398,5301.941 218.789,5301.941 z M218.789,4956.588 C127.341,4956.588 76.134,4981.951 57.637,5036.408 C36.348,5099.078 38.413,5179.29 39.295,5213.541 C39.437,5219.097 39.551,5223.485 39.551,5226.811 C39.551,5262.976 54.241,5264.262 62.133,5264.952 C100.726,5268.331 162.146,5271.941 218.789,5271.941 C275.431,5271.941 336.852,5268.331 375.446,5264.952 C383.338,5264.262 398.028,5262.976 398.028,5226.811 C398.028,5223.454 398.144,5219.026 398.292,5213.419 C399.191,5179.262 401.296,5099.271 379.943,5036.408 C361.445,4981.951 310.237,4956.588 218.789,4956.588" fill="#3B3C3A"/>
      <path d="M215.039,5255.183 C183.363,5255.183 157.258,5252.731 137.446,5247.894 C123.197,5244.415 112.137,5239.775 103.632,5233.707 C89.32,5223.495 85.387,5211.124 84.606,5202.543 C81.592,5169.37 89.537,5108.797 96.733,5063.822 C97.897,5056.545 104.176,5051.192 111.545,5051.192 L318.533,5051.192 C325.902,5051.192 332.181,5056.545 333.345,5063.822 C340.541,5108.797 348.486,5169.37 345.472,5202.543 C344.691,5211.124 340.758,5223.495 326.446,5233.707 C317.941,5239.775 306.881,5244.415 292.632,5247.894 C272.82,5252.731 246.715,5255.183 215.039,5255.183 z M124.386,5081.192 C118.837,5117.695 111.922,5171.64 114.483,5199.827 C115.546,5211.524 142.519,5225.183 215.039,5225.183 C287.558,5225.183 314.532,5211.524 315.595,5199.827 C318.156,5171.64 311.241,5117.695 305.692,5081.192 L124.386,5081.192" fill="#3B3C3A"/>
      <path d="M174.042,5196.435 C174.042,5219.216 155.575,5237.682 132.795,5237.682 C110.014,5237.682 91.547,5219.216 91.547,5196.435 C91.547,5173.655 110.014,5155.188 132.795,5155.188 C155.575,5155.188 174.042,5173.655 174.042,5196.435" fill="#E46C79"/>
      <path d="M132.795,5252.682 C101.779,5252.682 76.547,5227.45 76.547,5196.435 C76.547,5165.42 101.779,5140.188 132.795,5140.188 C163.809,5140.188 189.042,5165.42 189.042,5196.435 C189.042,5227.45 163.809,5252.682 132.795,5252.682 z M132.795,5170.188 C118.321,5170.188 106.547,5181.963 106.547,5196.435 C106.547,5210.908 118.321,5222.682 132.795,5222.682 C147.267,5222.682 159.042,5210.908 159.042,5196.435 C159.042,5181.963 147.267,5170.188 132.795,5170.188" fill="#3B3C3A"/>
      <path d="M260.289,5217.189 C260.289,5239.97 241.822,5258.436 219.042,5258.436 C196.261,5258.436 177.794,5239.97 177.794,5217.189 C177.794,5194.408 196.261,5175.941 219.042,5175.941 C241.822,5175.941 260.289,5194.408 260.289,5217.189" fill="#F1D12B"/>
      <path d="M219.042,5273.436 C188.026,5273.436 162.794,5248.203 162.794,5217.189 C162.794,5186.174 188.026,5160.941 219.042,5160.941 C250.056,5160.941 275.289,5186.174 275.289,5217.189 C275.289,5248.203 250.056,5273.436 219.042,5273.436 z M219.042,5190.941 C204.568,5190.941 192.794,5202.716 192.794,5217.189 C192.794,5231.661 204.568,5243.436 219.042,5243.436 C233.514,5243.436 245.289,5231.661 245.289,5217.189 C245.289,5202.716 233.514,5190.941 219.042,5190.941" fill="#3B3C3A"/>
      <path d="M341.784,5200.94 C341.784,5223.722 323.317,5242.188 300.537,5242.188 C277.756,5242.188 259.289,5223.722 259.289,5200.94 C259.289,5178.16 277.756,5159.693 300.537,5159.693 C323.317,5159.693 341.784,5178.16 341.784,5200.94" fill="#FFFFFE"/>
      <path d="M300.537,5257.188 C269.521,5257.188 244.289,5231.956 244.289,5200.94 C244.289,5169.925 269.521,5144.693 300.537,5144.693 C331.552,5144.693 356.784,5169.925 356.784,5200.94 C356.784,5231.956 331.552,5257.188 300.537,5257.188 z M300.537,5174.693 C286.063,5174.693 274.289,5186.468 274.289,5200.94 C274.289,5215.413 286.063,5227.188 300.537,5227.188 C315.01,5227.188 326.784,5215.413 326.784,5200.94 C326.784,5186.468 315.01,5174.693 300.537,5174.693" fill="#3B3C3A"/>
      <path d="M394.146,5031.583 C368.672,4956.587 292.027,4941.588 218.789,4941.588 C145.553,4941.588 68.907,4956.587 43.433,5031.583 C17.959,5106.579 24.551,5202.812 24.551,5226.811 C24.551,5250.81 30.362,5277.229 60.825,5279.896 C100.284,5283.349 162.542,5286.941 218.789,5286.941 C275.036,5286.941 337.295,5283.349 376.754,5279.896 C407.217,5277.229 413.028,5250.81 413.028,5226.811 C413.028,5202.791 419.725,5106.889 394.146,5031.583 z M330.533,5201.185 C327.471,5234.886 261.536,5240.183 215.039,5240.183 C168.542,5240.183 102.607,5234.886 99.545,5201.185 C96.546,5168.187 105.545,5103.69 111.545,5066.192 L318.533,5066.192 C324.533,5103.69 333.532,5168.187 330.533,5201.185" fill="#C2D54A"/>
      <path d="M218.789,5301.941 C161.181,5301.941 98.741,5298.271 59.517,5294.839 C40.653,5293.187 26.299,5284.034 18.007,5268.37 C12.317,5257.62 9.551,5244.027 9.551,5226.811 C9.551,5223.87 9.442,5219.653 9.305,5214.312 C8.382,5178.461 6.22,5094.499 29.23,5026.759 C42.242,4988.451 68.553,4960.814 107.431,4944.616 C136.547,4932.485 172.973,4926.588 218.789,4926.588 C264.606,4926.588 301.032,4932.485 330.148,4944.616 C369.026,4960.814 395.337,4988.451 408.349,5026.759 C431.427,5094.699 429.223,5178.447 428.282,5214.208 C428.14,5219.595 428.028,5223.848 428.028,5226.811 C428.028,5244.027 425.262,5257.62 419.572,5268.37 C411.28,5284.034 396.926,5293.187 378.061,5294.839 C338.838,5298.271 276.398,5301.941 218.789,5301.941 z M218.789,4956.588 C127.341,4956.588 76.134,4981.951 57.637,5036.408 C36.348,5099.078 38.413,5179.29 39.295,5213.541 C39.437,5219.097 39.551,5223.485 39.551,5226.811 C39.551,5262.976 54.241,5264.262 62.133,5264.952 C100.726,5268.331 162.146,5271.941 218.789,5271.941 C275.431,5271.941 336.852,5268.331 375.446,5264.952 C383.338,5264.262 398.028,5262.976 398.028,5226.811 C398.028,5223.454 398.144,5219.026 398.292,5213.419 C399.191,5179.262 401.296,5099.271 379.943,5036.408 C361.445,4981.951 310.237,4956.588 218.789,4956.588 z M215.039,5255.183 C183.363,5255.183 157.257,5252.731 137.446,5247.894 C123.197,5244.415 112.137,5239.775 103.632,5233.707 C89.32,5223.495 85.387,5211.124 84.606,5202.543 C81.592,5169.37 89.537,5108.797 96.733,5063.822 C97.897,5056.545 104.176,5051.192 111.545,5051.192 L318.533,5051.192 C325.902,5051.192 332.181,5056.545 333.345,5063.822 C340.541,5108.797 348.486,5169.37 345.472,5202.543 C344.691,5211.124 340.758,5223.495 326.446,5233.707 C317.941,5239.775 306.881,5244.415 292.632,5247.894 C272.82,5252.731 246.715,5255.183 215.039,5255.183 z M124.386,5081.192 C118.837,5117.695 111.922,5171.64 114.483,5199.827 C115.546,5211.524 142.519,5225.183 215.039,5225.183 C287.558,5225.183 314.532,5211.524 315.595,5199.827 C318.156,5171.64 311.241,5117.695 305.692,5081.192 L124.386,5081.192" fill="#3B3C3A"/>
      <path d="M94.945,5026.764 L345.533,5026.764 L345.533,5066.192 L94.945,5066.192 z" fill="#FFFFFE"/>
      <path d="M345.533,5081.192 L94.945,5081.192 C86.661,5081.192 79.945,5074.476 79.945,5066.192 L79.945,5026.764 C79.945,5018.48 86.661,5011.764 94.945,5011.764 L345.533,5011.764 C353.817,5011.764 360.533,5018.48 360.533,5026.764 L360.533,5066.192 C360.533,5074.476 353.817,5081.192 345.533,5081.192 z M109.945,5051.192 L330.533,5051.192 L330.533,5041.764 L109.945,5041.764 z" fill="#3B3C3A"/>
      <path d="M414.784,5259.189 C414.784,5281.97 396.317,5300.436 373.537,5300.436 C350.756,5300.436 332.289,5281.97 332.289,5259.189 C332.289,5236.408 350.756,5217.941 373.537,5217.941 C396.317,5217.941 414.784,5236.408 414.784,5259.189" fill="#F6D729"/>
      <path d="M373.537,5315.436 C342.521,5315.436 317.289,5290.203 317.289,5259.189 C317.289,5228.174 342.521,5202.941 373.537,5202.941 C404.552,5202.941 429.784,5228.174 429.784,5259.189 C429.784,5290.203 404.552,5315.436 373.537,5315.436 z M373.537,5232.941 C359.063,5232.941 347.289,5244.716 347.289,5259.189 C347.289,5273.661 359.063,5285.436 373.537,5285.436 C388.01,5285.436 399.784,5273.661 399.784,5259.189 C399.784,5244.716 388.01,5232.941 373.537,5232.941" fill="#3B3C3A"/>
    </g>
  </g>
</svg>
