<svg xmlns="http://www.w3.org/2000/svg" width="421.613" height="413.728" viewBox="0, 0, 421.613, 413.728"><path d="M410.15 386.993c0 14.765-91.814 26.735-205.074 26.735C91.816 413.728 0 401.758 0 386.993c0-14.77 91.816-26.74 205.076-26.74 113.26 0 205.074 11.97 205.074 26.74" fill="#D6D5D0"/><path d="M217.613 237.601c0 22.781-18.467 41.247-41.247 41.247-22.781 0-41.248-18.466-41.248-41.247s18.467-41.248 41.248-41.248c22.78 0 41.247 18.467 41.247 41.248" fill="#FFFFFE"/><path d="M176.366 293.848c-31.016 0-56.248-25.233-56.248-56.247 0-31.015 25.232-56.248 56.248-56.248 31.015 0 56.247 25.233 56.247 56.248 0 31.014-25.232 56.247-56.247 56.247zm0-82.495c-14.474 0-26.248 11.775-26.248 26.248 0 14.472 11.774 26.247 26.248 26.247 14.473 0 26.247-11.775 26.247-26.247 0-14.473-11.774-26.248-26.247-26.248" fill="#3B3C3A"/><path d="M299.613 237.601c0 22.781-18.467 41.247-41.247 41.247-22.781 0-41.248-18.466-41.248-41.247s18.467-41.248 41.248-41.248c22.78 0 41.247 18.467 41.247 41.248" fill="#70B7D3"/><path d="M258.366 293.848c-31.016 0-56.248-25.233-56.248-56.247 0-31.015 25.232-56.248 56.248-56.248 31.015 0 56.247 25.233 56.247 56.248 0 31.014-25.232 56.247-56.247 56.247zm0-82.495c-14.474 0-26.248 11.775-26.248 26.248 0 14.472 11.774 26.247 26.248 26.247 14.473 0 26.247-11.775 26.247-26.247 0-14.473-11.774-26.248-26.247-26.248" fill="#3B3C3A"/><path d="M210.618 375.353c-57.608 0-120.048-3.67-159.272-7.102-18.864-1.652-33.218-10.805-41.51-26.469-5.69-10.75-8.456-24.343-8.456-41.559 0-2.941-.109-7.158-.246-12.499-.923-35.851-3.085-119.813 19.925-187.553C34.071 61.863 60.382 34.226 99.26 18.028 128.376 5.897 164.802 0 210.618 0c45.817 0 82.243 5.897 111.359 18.028 38.878 16.198 65.189 43.835 78.201 82.143 23.078 67.94 20.874 151.688 19.933 187.449-.142 5.387-.254 9.64-.254 12.603 0 17.216-2.766 30.809-8.456 41.559-8.292 15.664-22.646 24.817-41.511 26.469-39.223 3.432-101.663 7.102-159.272 7.102zm0-345.353C119.17 30 67.963 55.363 49.466 109.82c-21.289 62.67-19.224 142.882-18.342 177.133.142 5.556.256 9.944.256 13.27 0 36.165 14.69 37.451 22.582 38.141 38.593 3.379 100.013 6.989 156.656 6.989 56.642 0 118.063-3.61 156.657-6.989 7.892-.69 22.582-1.976 22.582-38.141 0-3.357.116-7.785.264-13.392.899-34.157 3.004-114.148-18.349-177.011C353.274 55.363 302.066 30 210.618 30" fill="#3B3C3A"/><path d="M206.868 328.595c-31.676 0-57.781-2.452-77.593-7.289-14.249-3.479-25.309-8.119-33.814-14.187-14.312-10.212-18.245-22.583-19.026-31.164-3.014-33.173 4.931-93.746 12.127-138.721a15 15 0 0 1 14.812-12.63h206.988a15 15 0 0 1 14.812 12.63c7.196 44.975 15.141 105.548 12.127 138.721-.781 8.581-4.714 20.952-19.026 31.164-8.505 6.068-19.565 10.708-33.814 14.187-19.812 4.837-45.917 7.289-77.593 7.289zm-90.653-173.991c-5.549 36.503-12.464 90.448-9.903 118.635 1.063 11.697 28.036 25.356 100.556 25.356 72.519 0 99.493-13.659 100.556-25.356 2.561-28.187-4.354-82.132-9.903-118.635H116.215" fill="#3B3C3A"/><path d="M165.871 269.847c0 22.781-18.467 41.247-41.247 41.247-22.781 0-41.248-18.466-41.248-41.247 0-22.78 18.467-41.247 41.248-41.247 22.78 0 41.247 18.467 41.247 41.247" fill="#E46C79"/><path d="M124.624 326.094c-31.016 0-56.248-25.232-56.248-56.247S93.608 213.6 124.624 213.6c31.014 0 56.247 25.232 56.247 56.247s-25.233 56.247-56.247 56.247zm0-82.494c-14.474 0-26.248 11.775-26.248 26.247 0 14.473 11.774 26.247 26.248 26.247 14.472 0 26.247-11.774 26.247-26.247 0-14.472-11.775-26.247-26.247-26.247" fill="#3B3C3A"/><path d="M252.118 290.601c0 22.781-18.467 41.247-41.247 41.247-22.781 0-41.248-18.466-41.248-41.247s18.467-41.248 41.248-41.248c22.78 0 41.247 18.467 41.247 41.248" fill="#F1D12B"/><path d="M210.871 346.848c-31.016 0-56.248-25.233-56.248-56.247 0-31.015 25.232-56.248 56.248-56.248 31.014 0 56.247 25.233 56.247 56.248 0 31.014-25.233 56.247-56.247 56.247zm0-82.495c-14.474 0-26.248 11.775-26.248 26.248 0 14.472 11.774 26.247 26.248 26.247 14.472 0 26.247-11.775 26.247-26.247 0-14.473-11.775-26.248-26.247-26.248" fill="#3B3C3A"/><path d="M333.613 274.352c0 22.782-18.467 41.248-41.247 41.248-22.781 0-41.248-18.466-41.248-41.248 0-22.78 18.467-41.247 41.248-41.247 22.78 0 41.247 18.467 41.247 41.247" fill="#FFFFFE"/><path d="M292.366 330.6c-31.016 0-56.248-25.232-56.248-56.248 0-31.015 25.232-56.247 56.248-56.247 31.015 0 56.247 25.232 56.247 56.247 0 31.016-25.232 56.248-56.247 56.248zm0-82.495c-14.474 0-26.248 11.775-26.248 26.247 0 14.473 11.774 26.248 26.248 26.248 14.473 0 26.247-11.775 26.247-26.248 0-14.472-11.774-26.247-26.247-26.247" fill="#3B3C3A"/><path d="M385.975 104.995C360.501 29.999 283.856 15 210.618 15c-73.236 0-149.882 14.999-175.356 89.995C9.788 179.991 16.38 276.224 16.38 300.223c0 23.999 5.811 50.418 36.274 53.085 39.459 3.453 101.717 7.045 157.964 7.045s118.506-3.592 157.965-7.045c30.463-2.667 36.274-29.086 36.274-53.085 0-24.02 6.697-119.922-18.882-195.228zm-63.613 169.602c-3.062 33.701-68.997 38.998-115.494 38.998s-112.432-5.297-115.494-38.998c-2.999-32.998 6-97.495 12-134.993h206.988c6 37.498 14.999 101.995 12 134.993" fill="#C2D54A"/><path d="M210.618 375.353c-57.608 0-120.048-3.67-159.272-7.102-18.864-1.652-33.218-10.805-41.51-26.469-5.69-10.75-8.456-24.343-8.456-41.559 0-2.941-.109-7.158-.246-12.499-.923-35.851-3.085-119.813 19.925-187.553C34.071 61.863 60.382 34.226 99.26 18.028 128.376 5.897 164.802 0 210.618 0c45.817 0 82.243 5.897 111.359 18.028 38.878 16.198 65.189 43.835 78.201 82.143 23.078 67.94 20.874 151.688 19.933 187.449-.142 5.387-.254 9.64-.254 12.603 0 17.216-2.766 30.809-8.456 41.559-8.292 15.664-22.646 24.817-41.511 26.469-39.223 3.432-101.663 7.102-159.272 7.102zm0-345.353C119.17 30 67.963 55.363 49.466 109.82c-21.289 62.67-19.224 142.882-18.342 177.133.142 5.556.256 9.944.256 13.27 0 36.165 14.69 37.451 22.582 38.141 38.593 3.379 100.013 6.989 156.656 6.989 56.642 0 118.063-3.61 156.657-6.989 7.892-.69 22.582-1.976 22.582-38.141 0-3.357.116-7.785.264-13.392.899-34.157 3.004-114.148-18.349-177.011C353.274 55.363 302.066 30 210.618 30zm-3.75 298.595c-31.676 0-57.782-2.452-77.593-7.289-14.249-3.479-25.309-8.119-33.814-14.187-14.312-10.212-18.245-22.583-19.026-31.164-3.014-33.173 4.931-93.746 12.127-138.721a15 15 0 0 1 14.812-12.63h206.988a15 15 0 0 1 14.812 12.63c7.196 44.975 15.141 105.548 12.127 138.721-.781 8.581-4.714 20.952-19.026 31.164-8.505 6.068-19.565 10.708-33.814 14.187-19.812 4.837-45.917 7.289-77.593 7.289zm-90.653-173.991c-5.549 36.503-12.464 90.448-9.903 118.635 1.063 11.697 28.036 25.356 100.556 25.356 72.519 0 99.493-13.659 100.556-25.356 2.561-28.187-4.354-82.132-9.903-118.635H116.215" fill="#3B3C3A"/><path d="M86.774 100.176h250.588v39.428H86.774z" fill="#FFFFFE"/><path d="M337.362 154.604H86.774c-8.284 0-15-6.716-15-15v-39.428c0-8.284 6.716-15 15-15h250.588c8.284 0 15 6.716 15 15v39.428c0 8.284-6.716 15-15 15zm-235.588-30h220.588v-9.428H101.774z" fill="#3B3C3A"/><path d="M406.613 332.601c0 22.781-18.467 41.247-41.247 41.247-22.781 0-41.248-18.466-41.248-41.247s18.467-41.248 41.248-41.248c22.78 0 41.247 18.467 41.247 41.248" fill="#F6D729"/><path d="M365.366 388.848c-31.016 0-56.248-25.233-56.248-56.247 0-31.015 25.232-56.248 56.248-56.248 31.015 0 56.247 25.233 56.247 56.248 0 31.014-25.232 56.247-56.247 56.247zm0-82.495c-14.474 0-26.248 11.775-26.248 26.248 0 14.472 11.774 26.247 26.248 26.247 14.473 0 26.247-11.775 26.247-26.247 0-14.473-11.774-26.248-26.247-26.248" fill="#3B3C3A"/></svg>