<?xml version="1.0" encoding="UTF-8"?>
<!DOCTYPE svg PUBLIC "-//W3C//DTD SVG 1.1//EN" "http://www.w3.org/Graphics/SVG/1.1/DTD/svg11.dtd">
<svg version="1.1" xmlns="http://www.w3.org/2000/svg" xmlns:xlink="http://www.w3.org/1999/xlink" x="0" y="0" width="410.543" height="398.545" viewBox="0, 0, 410.543, 398.545">
  <g id="Layer_1" transform="translate(-12.259, -3711.5)">

    <g id="train">
      <path d="M422.409,4083.31 C422.409,4098.076 330.595,4110.044 217.335,4110.044 C104.075,4110.044 12.259,4098.076 12.259,4083.31 C12.259,4068.541 104.075,4056.57 217.335,4056.57 C330.595,4056.57 422.409,4068.541 422.409,4083.31" fill="#D6D5D0"/>
      <path d="M84.828,3949.517 L42.003,4028.353 L407.802,4028.353 L407.802,3949.517 L84.828,3949.517" fill="#F6D729"/>
      <path d="M407.802,4043.353 L42.003,4043.353 C36.714,4043.353 31.815,4040.566 29.111,4036.021 C26.407,4031.475 26.297,4025.842 28.822,4021.193 L71.647,3942.357 C74.271,3937.525 79.33,3934.517 84.828,3934.517 L407.802,3934.517 C416.087,3934.517 422.802,3941.232 422.802,3949.517 L422.802,4028.353 C422.802,4036.637 416.087,4043.353 407.802,4043.353 z M67.221,4013.353 L392.802,4013.353 L392.802,3964.517 L93.75,3964.517 L67.221,4013.353" fill="#3B3C3A"/>
      <path d="M273.431,4021.105 C273.431,4044.521 254.45,4063.504 231.034,4063.504 C207.618,4063.504 188.637,4044.521 188.637,4021.105 C188.637,3997.691 207.618,3978.709 231.034,3978.709 C254.45,3978.709 273.431,3997.691 273.431,4021.105" fill="#FFFFFE"/>
      <path d="M231.034,4078.504 C199.385,4078.504 173.637,4052.754 173.637,4021.105 C173.637,3989.457 199.385,3963.709 231.034,3963.709 C262.683,3963.709 288.431,3989.457 288.431,4021.105 C288.431,4052.754 262.683,4078.504 231.034,4078.504 z M231.034,3993.709 C215.927,3993.709 203.637,4005.998 203.637,4021.105 C203.637,4036.213 215.927,4048.504 231.034,4048.504 C246.141,4048.504 258.431,4036.213 258.431,4021.105 C258.431,4005.998 246.141,3993.709 231.034,3993.709" fill="#3B3C3A"/>
      <path d="M246.282,4021.105 C246.282,4029.527 239.454,4036.353 231.034,4036.353 C222.612,4036.353 215.786,4029.527 215.786,4021.105 C215.786,4012.684 222.612,4005.857 231.034,4005.857 C239.454,4005.857 246.282,4012.684 246.282,4021.105" fill="#3B3C3A"/>
      <path d="M188.637,4021.105 C188.637,4044.521 169.655,4063.504 146.239,4063.504 C122.823,4063.504 103.842,4044.521 103.842,4021.105 C103.842,3997.691 122.823,3978.709 146.239,3978.709 C169.655,3978.709 188.637,3997.691 188.637,4021.105" fill="#FFFFFE"/>
      <path d="M146.239,4078.504 C114.59,4078.504 88.842,4052.754 88.842,4021.105 C88.842,3989.457 114.59,3963.709 146.239,3963.709 C177.889,3963.709 203.637,3989.457 203.637,4021.105 C203.637,4052.754 177.889,4078.504 146.239,4078.504 z M146.239,3993.709 C131.132,3993.709 118.842,4005.998 118.842,4021.105 C118.842,4036.213 131.132,4048.504 146.239,4048.504 C161.347,4048.504 173.637,4036.213 173.637,4021.105 C173.637,4005.998 161.347,3993.709 146.239,3993.709" fill="#3B3C3A"/>
      <path d="M161.487,4021.105 C161.487,4029.527 154.659,4036.353 146.239,4036.353 C137.817,4036.353 130.991,4029.527 130.991,4021.105 C130.991,4012.684 137.817,4005.857 146.239,4005.857 C154.659,4005.857 161.487,4012.684 161.487,4021.105" fill="#3B3C3A"/>
      <path d="M75.828,3949.517 C97.958,3949.517 407.802,3949.517 407.802,3949.517 C407.802,3949.517 407.802,3786.146 407.802,3750.92 C407.802,3715.691 264.636,3721.146 264.636,3750.92 C264.636,3780.691 264.636,3825.316 264.636,3840.836 C255.098,3840.836 225.517,3840.836 225.517,3840.836 C225.517,3840.836 225.517,3804.31 225.517,3792.986 C225.517,3781.664 178.868,3778.078 178.868,3792.986 C178.868,3807.896 178.868,3840.836 178.868,3840.836 L139.868,3840.836 C139.868,3840.836 139.868,3762.691 139.868,3746.691 C139.868,3730.691 92.868,3731.691 92.868,3746.691 C92.868,3761.691 92.868,3840.836 92.868,3840.836 L72.554,3840.836 C31.264,3840.836 23.183,3949.517 75.828,3949.517" fill="#E46C79"/>
      <path d="M407.802,3964.517 L75.828,3964.517 C58.774,3964.517 44.273,3956.228 34.997,3941.178 C27.868,3929.613 23.942,3914.014 23.942,3897.254 C23.942,3880.43 27.734,3864.164 34.62,3851.457 C43.573,3834.934 57.044,3825.836 72.554,3825.836 L77.868,3825.836 L77.868,3746.691 C77.868,3730.764 93.568,3720.062 116.936,3720.062 C139.624,3720.062 154.868,3730.764 154.868,3746.691 L154.868,3825.836 L163.868,3825.836 L163.868,3792.986 C163.868,3780.957 173.317,3768.103 199.838,3768.103 C207.868,3768.103 215.848,3769.355 222.306,3771.631 C238.743,3777.418 240.517,3788.492 240.517,3792.986 L240.517,3825.836 L249.636,3825.836 L249.636,3750.92 C249.636,3740.742 255.689,3726.853 284.53,3718.488 C299.84,3714.047 320.312,3711.5 340.698,3711.5 C360.263,3711.5 378.359,3713.842 391.657,3718.094 C418.757,3726.756 422.802,3742.379 422.802,3750.92 L422.802,3949.517 C422.802,3957.801 416.087,3964.517 407.802,3964.517 z M72.554,3855.836 C62.987,3855.836 53.942,3875.963 53.942,3897.254 C53.942,3908.367 56.346,3918.641 60.535,3925.437 C65.552,3933.576 71.666,3934.517 75.828,3934.517 L392.802,3934.517 L392.802,3751.721 C389.437,3747.949 371.703,3741.5 340.698,3741.5 C308.023,3741.5 285.083,3748.492 279.636,3752.973 L279.636,3840.836 C279.636,3849.119 272.92,3855.836 264.636,3855.836 L225.517,3855.836 C217.233,3855.836 210.517,3849.119 210.517,3840.836 L210.517,3799.369 C207.94,3798.705 204.189,3798.103 199.838,3798.103 C197.331,3798.103 195.345,3798.309 193.868,3798.564 L193.868,3840.836 C193.868,3849.119 187.152,3855.836 178.868,3855.836 L139.868,3855.836 C131.584,3855.836 124.868,3849.119 124.868,3840.836 L124.868,3751.006 C123.091,3750.518 120.391,3750.062 116.936,3750.062 C112.99,3750.062 109.868,3750.65 107.868,3751.25 L107.868,3840.836 C107.868,3849.119 101.152,3855.836 92.868,3855.836 L72.554,3855.836" fill="#3B3C3A"/>
      <path d="M407.802,4000.105 C407.802,4035.119 379.42,4063.504 344.406,4063.504 C309.391,4063.504 281.008,4035.119 281.008,4000.105 C281.008,3965.094 309.391,3936.709 344.406,3936.709 C379.42,3936.709 407.802,3965.094 407.802,4000.105" fill="#FFFFFE"/>
      <path d="M344.406,4078.504 C301.177,4078.504 266.008,4043.334 266.008,4000.105 C266.008,3956.877 301.177,3921.709 344.406,3921.709 C387.634,3921.709 422.802,3956.877 422.802,4000.105 C422.802,4043.334 387.634,4078.504 344.406,4078.504 z M344.406,3951.709 C317.72,3951.709 296.008,3973.42 296.008,4000.105 C296.008,4026.791 317.72,4048.504 344.406,4048.504 C371.092,4048.504 392.802,4026.791 392.802,4000.105 C392.802,3973.42 371.092,3951.709 344.406,3951.709" fill="#3B3C3A"/>
      <path d="M367.207,4000.105 C367.207,4012.699 356.996,4022.906 344.406,4022.906 C331.813,4022.906 321.606,4012.699 321.606,4000.105 C321.606,3987.512 331.813,3977.305 344.406,3977.305 C356.996,3977.305 367.207,3987.512 367.207,4000.105" fill="#3B3C3A"/>
      <path d="M310.868,3775.353 L364.868,3775.353 L364.868,3843.353 L310.868,3843.353 z" fill="#FFFFFE"/>
      <path d="M364.868,3858.353 L310.868,3858.353 C302.584,3858.353 295.868,3851.637 295.868,3843.353 L295.868,3775.353 C295.868,3767.068 302.584,3760.353 310.868,3760.353 L364.868,3760.353 C373.152,3760.353 379.868,3767.068 379.868,3775.353 L379.868,3843.353 C379.868,3851.637 373.152,3858.353 364.868,3858.353 z M325.868,3828.353 L349.868,3828.353 L349.868,3790.353 L325.868,3790.353 z" fill="#3B3C3A"/>
    </g>
  </g>
</svg>
