<svg xmlns="http://www.w3.org/2000/svg" width="423.63" height="352.197" viewBox="0, 0, 423.63, 352.197"><path d="M410.15 325.462c0 14.766-91.816 26.734-205.075 26.734C91.815 352.196 0 340.228 0 325.462c0-14.769 91.815-26.74 205.075-26.74 113.259 0 205.075 11.971 205.075 26.74" fill="#D6D5D0"/><path d="M71.351 97.912v93.506s-56.058 0-56.058-50.666c0-49.315 56.058-42.84 56.058-42.84" fill="#FFFFFE"/><path d="M71.351 206.418c-1.765 0-17.723-.215-34.206-7.665C13.38 188.013.293 167.416.293 140.752c0-35.85 24.827-58.122 64.793-58.122 4.478 0 7.439.317 7.987.381 7.568.873 13.278 7.282 13.278 14.901v93.506c0 8.283-6.716 15-15 15zm-15-93.196c-4.618.637-9.838 1.922-14.365 4.436-5.02 2.789-11.693 8.215-11.693 23.094 0 14.742 5.886 24.386 18.525 30.349 2.524 1.19 5.086 2.115 7.533 2.832v-60.711" fill="#3B3C3A"/><path d="M350.851 97.912v93.506s57.779 0 57.779-50.666c0-49.315-57.779-42.84-57.779-42.84" fill="#FFFFFE"/><path d="M350.851 206.418c-8.284 0-15-6.717-15-15V97.912c0-7.639 5.739-14.057 13.329-14.907.556-.062 3.563-.375 8.129-.375 40.908 0 66.321 22.272 66.321 58.122 0 26.74-13.448 47.363-37.866 58.07-16.838 7.383-33.113 7.596-34.913 7.596zm15-93.336v61.013c2.754-.748 5.666-1.738 8.534-3.047 13.13-5.994 19.245-15.621 19.245-30.296 0-16.309-9.334-25.59-27.779-27.67" fill="#3B3C3A"/><path d="M212.611 15C125.914 15 61.757 60.488 61.757 143.74c0 83.252 69.358 126.166 150.854 126.166 81.494 0 150.853-42.914 150.853-126.166S299.308 15 212.611 15" fill="#FFFFFE"/><path d="M212.611 284.906c-44.871 0-85.756-12.418-115.123-34.967-33.189-25.482-50.731-62.205-50.731-106.199 0-44.465 16.761-81.549 48.472-107.244C124.694 12.619 165.284 0 212.611 0s87.917 12.619 117.382 36.496c31.711 25.695 48.471 62.779 48.471 107.244 0 43.994-17.543 80.717-50.731 106.199-29.367 22.549-70.252 34.967-115.122 34.967zm0-254.906C146.935 30 76.757 59.879 76.757 143.74c0 82.051 73.184 111.166 135.854 111.166 62.67 0 135.853-29.115 135.853-111.166C348.464 59.879 278.287 30 212.611 30" fill="#3B3C3A"/><path d="M196.285 22.535L174.158 46.48l22.127-23.945" fill="#FFFFFE"/><path d="M174.155 56.48a9.967 9.967 0 0 1-6.784-2.656c-4.056-3.748-4.306-10.075-.558-14.131l22.127-23.945c3.747-4.055 10.073-4.307 14.132-.559 4.055 3.748 4.305 10.076.557 14.133l-22.127 23.945a9.971 9.971 0 0 1-7.347 3.213" fill="#3B3C3A"/><path d="M228.785 22.535L206.658 46.48l22.127-23.945" fill="#FFFFFE"/><path d="M206.655 56.48a9.965 9.965 0 0 1-6.784-2.656c-4.056-3.748-4.306-10.075-.558-14.131l22.127-23.945c3.747-4.055 10.073-4.307 14.132-.559 4.055 3.748 4.305 10.076.557 14.133l-22.127 23.945a9.971 9.971 0 0 1-7.347 3.213" fill="#3B3C3A"/><path d="M261.285 22.535L239.158 46.48l22.127-23.945" fill="#FFFFFE"/><path d="M239.155 56.48a9.965 9.965 0 0 1-6.784-2.656c-4.056-3.748-4.306-10.075-.558-14.131l22.127-23.945c3.747-4.055 10.073-4.307 14.132-.559 4.055 3.748 4.305 10.076.557 14.133l-22.127 23.945a9.971 9.971 0 0 1-7.347 3.213m-6.132 106.156c0 7.27-9.43 13.162-21.063 13.162-11.632 0-21.062-5.892-21.062-13.162 0-7.269 9.43-13.162 21.062-13.162 11.633 0 21.063 5.893 21.063 13.162" fill="#3B3C3A"/><path d="M151.46 98.312c5.495 5.434 18.495 5.434 24 0h-24" fill="#FFFFFE"/><path d="M163.457 112.41c-7.161 0-14.318-2.33-19.029-6.989-3.926-3.882-3.962-10.214-.078-14.142 3.886-3.926 10.217-3.959 14.142-.078 1.675 1.59 8.274 1.586 9.945-.008 3.93-3.877 10.261-3.838 14.142.094 3.879 3.931 3.837 10.263-.094 14.142-4.715 4.653-11.873 6.981-19.028 6.981" fill="#3B3C3A"/><path d="M248.461 98.312c5.494 5.434 18.494 5.434 24 0h-24" fill="#FFFFFE"/><path d="M260.457 112.41c-7.161 0-14.318-2.33-19.029-6.989-3.927-3.882-3.962-10.214-.078-14.142 3.886-3.926 10.216-3.959 14.142-.078 1.674 1.59 8.273 1.586 9.945-.008 3.93-3.877 10.261-3.838 14.142.094 3.879 3.931 3.837 10.263-.094 14.142-4.715 4.653-11.873 6.981-19.028 6.981" fill="#3B3C3A"/></svg>