<svg xmlns="http://www.w3.org/2000/svg" width="431.238" height="368.636" viewBox="0, 0, 431.238, 368.636"><path d="M410.15 341.9c0 14.766-91.816 26.736-205.075 26.736C91.815 368.636 0 356.666 0 341.9c0-14.769 91.815-26.74 205.075-26.74 113.259 0 205.075 11.971 205.075 26.74" fill="#D6D5D0"/><path d="M78.958 143.893v93.505s-56.057 0-56.057-50.666c0-49.314 56.057-42.839 56.057-42.839" fill="#FFFFFE"/><path d="M78.958 252.398c-1.765 0-17.722-.214-34.206-7.664-23.763-10.739-36.851-31.338-36.851-58.002 0-35.849 24.827-58.12 64.792-58.12 4.478 0 7.439.316 7.987.38 7.569.874 13.278 7.282 13.278 14.901v93.505c0 8.285-6.715 15-15 15zm-15-93.195c-4.617.638-9.837 1.923-14.364 4.437-5.019 2.787-11.693 8.214-11.693 23.092 0 14.999 6.102 24.743 19.206 30.664a52.509 52.509 0 0 0 6.851 2.514v-60.707" fill="#3B3C3A"/><path d="M358.459 143.893v93.505s57.779 0 57.779-50.666c0-49.314-57.779-42.839-57.779-42.839" fill="#FFFFFE"/><path d="M358.459 252.398c-8.284 0-15-6.715-15-15v-93.505c0-7.638 5.74-14.056 13.33-14.907.555-.062 3.562-.374 8.128-.374 40.909 0 66.321 22.271 66.321 58.12 0 26.742-13.447 47.365-37.866 58.071-16.838 7.382-33.113 7.595-34.913 7.595zm15-93.336v61.015c2.754-.749 5.666-1.739 8.535-3.048 13.129-5.994 19.244-15.621 19.244-30.297 0-16.308-9.335-25.59-27.779-27.67" fill="#3B3C3A"/><path d="M220.218 60.98c-86.697 0-150.853 45.489-150.853 128.741 0 83.251 69.358 126.166 150.853 126.166s150.854-42.915 150.854-126.166c0-83.252-64.156-128.741-150.854-128.741" fill="#FFFFFE"/><path d="M220.218 330.887c-44.871 0-85.755-12.418-115.122-34.967-33.188-25.482-50.731-62.206-50.731-106.199 0-44.464 16.76-81.548 48.471-107.244 29.465-23.876 70.055-36.497 117.382-36.497S308.135 58.601 337.6 82.477c31.711 25.696 48.472 62.78 48.472 107.244 0 43.993-17.542 80.717-50.732 106.199-29.367 22.549-70.251 34.967-115.122 34.967zm0-254.907c-65.676 0-135.853 29.88-135.853 113.741 0 82.051 73.183 111.166 135.853 111.166s135.854-29.115 135.854-111.166c0-83.861-70.178-113.741-135.854-113.741" fill="#3B3C3A"/><path d="M248.12 37.04c-8.64-13.08-27.237-31.52-36.079-26.053-8.843 5.467-10.545 18.901-8.874 27.493 1.672 8.592.988 15.353-4.145 20.146-5.13 4.796-12.6 20.002-6.982 28.39 5.615 8.388 37.894 1.224 45.77-7.349 7.876-8.573 16.158-33.771 10.31-42.627" fill="#E46C79"/><path d="M203.673 100.755h-.001c-9.601 0-16.311-2.751-19.943-8.177-9.143-13.653.498-33.81 8.464-41.257.834-.78 2.78-2.597 1.159-10.93-2.477-12.729.67-30.021 13.43-37.91C209.445.835 212.457 0 215.733 0c19.679 0 40.522 31.213 40.73 31.529 9.459 14.323-1.82 44.595-11.289 54.903-7.871 8.568-27.812 14.323-41.501 14.323zm-3.657-20.294c.72.144 1.892.294 3.657.294 10.416.001 24.055-4.894 26.773-7.853 6.104-6.645 11.353-25.827 9.275-30.433-7.741-11.685-18.837-21.027-23.279-22.323-3.367 3.088-4.554 10.795-3.458 16.425.924 4.75 3.737 19.208-7.137 29.363-3.178 2.972-6.306 11.153-5.831 14.527" fill="#3B3C3A"/><path d="M289.624 47.767c13.896-7.257 39.099-14.378 44.184-5.312 5.088 9.067.067 21.644-5.556 28.351-5.627 6.706-8.301 12.952-6.134 19.631 2.164 6.681 1.329 23.602-7.648 28.218-8.975 4.617-33.743-17.289-36.48-28.604-2.737-11.317 2.228-37.37 11.634-42.284" fill="#E46C79"/><path d="M311.583 129.285c-15.613 0-39.871-22.654-43.313-36.883-3.289-13.605 1.511-45.55 16.723-53.499 10.213-5.333 25.943-10.713 38.066-10.713 11.748 0 17.072 5.097 19.471 9.373 7.339 13.079 1.716 29.731-6.614 39.667-5.459 6.506-4.636 9.039-4.287 10.121 3.363 10.378 2.03 32.681-12.586 40.197-2.24 1.153-4.75 1.737-7.46 1.737zm-17.242-72.701c-4.05 3.024-8.752 22.348-6.632 31.117.373 1.538 3.402 6.754 10.387 13.051 5.742 5.177 10.402 7.61 12.566 8.313 2.054-2.715 3.286-11.4 1.942-15.546-4.591-14.151 4.877-25.434 7.988-29.141 3.67-4.378 6.36-11.66 4.944-15.998-.505-.095-1.303-.19-2.477-.19-8.181 0-20.875 4.316-28.718 8.394" fill="#3B3C3A"/><path d="M269.106 37.976c-2.765-8.467-17.527-14.322-22.85-4.681-5.321 9.641-15.283 41.342-13.012 51.722 2.272 10.379 17.458 11.854 21.692 6.42 2.863 8.085 16.497 12.831 21.46 5.955 4.961-6.879 15.544-43.723 15.065-52.824-.478-9.099-16.067-13.128-22.355-6.592" fill="#E46C79"/><path d="M269.193 110.701h-.001c-6.32 0-12.601-2.585-17.25-6.684a24.797 24.797 0 0 1-5.08.514c-11.53 0-21.148-7.145-23.387-17.376-3.136-14.335 8.478-48.638 14.026-58.692 3.564-6.456 9.896-10.158 17.373-10.158 6.459 0 12.824 2.721 17.472 7.03a25.144 25.144 0 0 1 5.418-.578c11.144 0 23.049 7.214 23.684 19.286.589 11.198-10.653 50.478-16.942 59.198-3.422 4.742-9.003 7.46-15.313 7.46zm-14.258-29.264a10.006 10.006 0 0 1 9.429 6.662c.345.89 2.572 2.386 4.437 2.581 3.947-7.305 12.422-37.215 12.677-44.885-.628-.431-2.012-1.038-3.714-1.038-.844 0-1.367.165-1.546.249A10 10 0 0 1 259.6 41.08c-.366-1.009-2.809-2.75-4.686-2.775-5.24 9.665-13.307 38.149-11.902 44.575.207.944 2.203 1.651 3.85 1.651.392 0 .703-.038.918-.079a10.002 10.002 0 0 1 7.155-3.015m45.132 133.01c6.174-23.811-23.762-33.47-40.397-29.543-17.792 4.2-19.738 5.602-39.452 5.602s-21.66-1.402-39.452-5.602c-16.635-3.927-41.956 1.398-40.318 25.943 2.286 34.265 48.778 14.932 79.77 14.932 30.992 0 70.515 24.668 79.849-11.332m-139.828-44.153a9.98 9.98 0 0 1-7.989-3.976c-3.328-4.408-2.452-10.679 1.957-14.006l8.171-6.168-9.753-7.362c-4.408-3.327-5.284-9.597-1.957-14.006 3.328-4.406 9.598-5.284 14.006-1.957l20.328 15.344a10 10 0 0 1 0 15.963l-18.747 14.15a9.955 9.955 0 0 1-6.016 2.018m118.255 0a9.952 9.952 0 0 1-6.017-2.018l-18.747-14.15a9.997 9.997 0 0 1 0-15.963l20.328-15.344c4.409-3.328 10.68-2.451 14.006 1.957 3.327 4.409 2.451 10.679-1.957 14.006l-9.753 7.362 8.172 6.168c4.408 3.327 5.284 9.598 1.957 14.006a9.983 9.983 0 0 1-7.989 3.976M130.733 18.779c0 6.627-5.373 12-12 12s-12-5.373-12-12 5.373-12 12-12 12 5.373 12 12m-54 58c0 6.627-5.373 12-12 12s-12-5.373-12-12 5.373-12 12-12 12 5.373 12 12m-24-61c0 6.627-5.373 12-12 12s-12-5.373-12-12 5.373-12 12-12 12 5.373 12 12m356 8c0 6.627-5.373 12-12 12s-12-5.373-12-12 5.373-12 12-12 12 5.373 12 12m-26 50c0 6.627-5.373 12-12 12s-12-5.373-12-12 5.373-12 12-12 12 5.373 12 12m-24-61c0 6.627-5.373 12-12 12s-12-5.373-12-12 5.373-12 12-12 12 5.373 12 12" fill="#3B3C3A"/></svg>