<svg xmlns="http://www.w3.org/2000/svg" width="415.273" height="398.258" viewBox="0, 0, 415.273, 398.258"><path d="M410.149 371.523c0 14.765-91.815 26.735-205.075 26.735C91.814 398.258 0 386.288 0 371.523c0-14.77 91.814-26.741 205.074-26.741 113.26 0 205.075 11.971 205.075 26.741" fill="#D6D5D0"/><path d="M80.074 145.069c-28.857 0-58.42-8.035-58.42-40.368 0-30.064 34.364-40.366 58.42-40.366 24.053 0 28.854 80.734 0 80.734" fill="#FFFFFE"/><path d="M80.074 160.069c-19.4 0-35.301-3.337-47.261-9.916-17.113-9.415-26.159-25.132-26.159-45.452 0-38.04 38.059-55.366 73.42-55.366 23.966 0 34.881 30.115 34.881 58.095 0 8.688-1.07 21.351-6.166 32.342-5.981 12.899-16.448 20.297-28.715 20.297zm-1.564-80.71c-13.006.373-41.856 5.378-41.856 25.342 0 6.921.002 25.278 43.104 25.367 1.603-1.471 4.76-8.004 5.158-20.215.496-15.231-3.622-27.149-6.406-30.494" fill="#3B3C3A"/><path d="M363.772 230.041l29.632-33.697-44.37-10.979 32.688-44.316s-32.636 15.488-70.782 15.488c-28.402 0-35.114-31.009-35.114-60.49 0-42.746-25.443-81.047-90.873-81.047-70.324 0-120.907 44.495-120.907 142.987 0 98.492 55.672 171.271 164.486 179.277 113.997 8.388 154.455-44.48 171.741-89.845-14.611-3.6-36.501-17.378-36.501-17.378" fill="#F6D729"/><path d="M251.829 353.149h-.011c-7.841 0-16.046-.312-24.387-.926-56.029-4.122-102.104-25.146-133.244-60.798-29.531-33.81-45.141-79.952-45.141-133.438 0-51.089 12.791-90.976 38.014-118.552C110.658 13.636 144.508 0 184.953 0c78.06 0 105.873 49.615 105.873 96.047 0 30.185 6.767 45.49 20.114 45.49 34.091 0 64.077-13.91 64.376-14.051 6.213-2.92 13.631-1.256 17.987 4.052 4.358 5.307 4.567 12.89.491 18.415l-19.359 26.245 22.572 5.585a15 15 0 0 1 7.662 24.466l-17.415 19.803c5.768 2.922 11.91 5.645 16.608 6.803a15 15 0 0 1 10.428 19.906c-25.382 66.611-80.045 100.388-162.461 100.388zM184.953 30C116.658 30 79.046 75.453 79.046 157.987c0 97.385 54.887 157.276 150.586 164.318 7.613.56 15.078.844 22.187.844 63.496 0 105.646-22.019 128.356-67.215-11.926-5.437-22.718-12.144-24.393-13.198a15 15 0 0 1-3.275-22.6l13.332-15.161-20.409-5.049a14.998 14.998 0 0 1-8.467-23.466l5.864-7.95c-9.774 1.797-20.591 3.027-31.887 3.027-18.716 0-50.114-9.807-50.114-75.49 0-24.666-9.858-66.047-75.873-66.047" fill="#3B3C3A"/><path d="M141.295 92.268c0 5.689-4.612 10.303-10.302 10.303-5.689 0-10.302-4.614-10.302-10.303 0-5.691 4.613-10.301 10.302-10.301 5.69 0 10.302 4.61 10.302 10.301" fill="#3B3C3A"/><path d="M217.826 184.301s53.828 9.999 66.495 13.333c12.667 3.334-28.426 86-92.213 40.667l25.718-54" fill="#F6D729"/><path d="M229.554 266.838c-13.295 0-28.959-4.102-46.135-16.31-6.753-4.799-8.336-14.164-3.537-20.916 4.798-6.753 14.162-8.337 20.915-3.538 15.728 11.177 30.521 13.642 43.971 7.322 11.629-5.465 19.922-16.199 23.997-23.894-16.289-3.41-42.427-8.363-53.679-10.453-8.145-1.513-13.521-9.343-12.008-17.488 1.513-8.145 9.35-13.522 17.487-12.007 2.221.412 54.523 10.139 67.574 13.574 7.033 1.851 12.101 7.741 13.223 15.369 2.275 15.466-12.992 43.67-36.829 58.268-7.733 4.736-19.815 10.073-34.979 10.073" fill="#3B3C3A"/></svg>