<svg xmlns="http://www.w3.org/2000/svg" width="410.552" height="388.729" viewBox="0, 0, 410.552, 388.729"><path d="M410.149 361.995c0 14.765-91.815 26.734-205.075 26.734C91.814 388.729 0 376.76 0 361.995c0-14.77 91.814-26.741 205.074-26.741 113.26 0 205.075 11.971 205.075 26.741" fill="#D6D5D0"/><path d="M37.413 111.676c22.231-49.327 66.05-78.084 172.315-23.697 0 0-3.806-46.271-39.592-70.023-63.089 9.461-111.881 41.543-132.723 93.72" fill="#FFFFFE"/><path d="M37.408 121.678a9.95 9.95 0 0 1-3.906-.799 9.998 9.998 0 0 1-5.375-12.912c21.598-54.07 71.505-89.549 140.526-99.9a9.993 9.993 0 0 1 7.014 1.556c39.372 26.133 43.856 75.45 44.028 77.536a10.006 10.006 0 0 1-4.404 9.131 10.002 10.002 0 0 1-10.119.591c-36.715-18.791-67.722-28.32-92.158-28.32-30.838 0-51.964 15.006-66.484 47.224a10.004 10.004 0 0 1-9.122 5.893zm75.606-73.117c23.541 0 50.684 7.045 82.547 21.471-4.174-12.954-12.304-29.882-27.869-41.565-22.807 3.811-43.163 10.659-60.639 20.248 1.957-.101 3.944-.154 5.961-.154" fill="#3B3C3A"/><path d="M37.413 111.676c-7.169 17.944-11.038 38.26-11.038 60.855 0 42.941 15.081 77.111 39.997 102.275-7.568-18.818-11.015-40.474-11.015-64.216 0-97.395 89.903-122.611 154.371-122.611-106.265-54.387-150.084-25.63-172.315 23.697" fill="#70B7D3"/><path d="M66.375 284.806a9.99 9.99 0 0 1-7.11-2.964c-28.059-28.339-42.89-66.138-42.89-109.311 0-23.324 3.954-45.046 11.752-64.565.053-.134.11-.266.169-.399 17.895-39.704 45.606-59.006 84.718-59.006 28.024 0 61.15 9.982 101.27 30.516a10 10 0 0 1-4.556 18.902c-21.519 0-62.63 3.031-96.183 23.338-31.975 19.35-48.188 49.386-48.188 89.273 0 23.151 3.463 43.501 10.293 60.485a10.001 10.001 0 0 1-9.275 13.731zm-19.756-169.22c-6.798 17.098-10.244 36.255-10.244 56.945 0 19.297 3.163 36.997 9.446 52.993-.31-4.863-.464-9.842-.464-14.934 0-81.47 58.953-119.243 124.585-129.575-21.69-8.276-40.749-12.454-56.928-12.454-30.774 0-51.878 14.946-66.395 47.025" fill="#82837F"/><path d="M55.357 210.59c0 23.742 3.447 45.398 11.015 64.216 18.503 18.689 42.43 32.409 69.635 41.065-34.278-72.632-3.037-199.854 73.721-199.854V87.979c-64.468 0-154.371 25.216-154.371 122.611" fill="#F6D729"/><path d="M136.007 325.872a10 10 0 0 1-3.032-.471c-29.627-9.427-54.427-24.082-73.71-43.559a10.012 10.012 0 0 1-2.172-3.306c-7.787-19.366-11.736-42.227-11.736-67.946 0-97.774 84.909-132.611 164.371-132.611 5.523 0 10 4.477 10 10v28.038c0 5.522-4.477 10-10 10-27.123 0-44.686 18.728-54.644 34.439-26.153 41.261-30.56 107.653-10.033 151.148a9.999 9.999 0 0 1-9.044 14.268zM74.915 269.2c12.227 11.982 26.988 21.863 44.067 29.517-5.677-19.842-7.895-42.334-6.303-65.326 2.176-31.416 11.237-61.12 25.512-83.642 15.738-24.831 37.316-39.84 61.537-43.071v-8.486c-22.766.959-57.278 5.633-86.183 23.125-31.975 19.35-48.188 49.386-48.188 89.273 0 22.305 3.215 42.01 9.558 58.61" fill="#3B3C3A"/><path d="M136.007 315.871c22.706 7.226 47.698 10.916 73.721 11.031V116.017c-76.758 0-107.999 127.222-73.721 199.854" fill="#E46C79"/><path d="M209.728 336.902h-.044c-27.295-.12-53.103-3.989-76.709-11.501a10.005 10.005 0 0 1-6.012-5.262c-11.411-24.18-16.484-54.988-14.284-86.748 2.176-31.416 11.237-61.12 25.512-83.642 17.874-28.202 43.28-43.732 71.537-43.732 5.523 0 10 4.477 10 10v210.885a10.002 10.002 0 0 1-10 10zm-66.453-29.263c17.592 5.182 36.522 8.21 56.453 9.034V126.901c-21.518 3.885-35.968 19.865-44.644 33.555-25.37 40.027-30.278 103.703-11.809 147.183" fill="#3B3C3A"/><path d="M382.044 111.676c-22.232-49.327-66.05-78.084-172.316-23.697 0 0 3.806-46.271 39.592-70.023 63.089 9.461 111.881 41.543 132.724 93.72" fill="#FFFFFE"/><path d="M382.048 121.678a10.001 10.001 0 0 1-9.122-5.893c-14.52-32.218-35.646-47.224-66.484-47.224-24.436 0-55.442 9.529-92.158 28.32a10 10 0 0 1-14.523-9.722c.172-2.086 4.657-51.403 44.029-77.536a10 10 0 0 1 7.013-1.556c69.021 10.351 118.928 45.83 140.527 99.9a9.999 9.999 0 0 1-5.376 12.912 9.947 9.947 0 0 1-3.906.799zM251.761 28.467c-15.672 11.746-23.792 28.662-27.933 41.595 31.893-14.446 59.056-21.501 82.614-21.501 2.018 0 4.004.053 5.961.154-17.476-9.589-37.834-16.437-60.642-20.248" fill="#3B3C3A"/><path d="M37.413 111.676c22.231-49.327 66.05-78.084 172.315-23.697 0 0-3.806-46.271-39.592-70.023-63.089 9.461-111.881 41.543-132.723 93.72" fill="#FFFFFE"/><path d="M37.408 121.678a9.95 9.95 0 0 1-3.906-.799 9.998 9.998 0 0 1-5.375-12.912c21.598-54.07 71.505-89.549 140.526-99.9a9.993 9.993 0 0 1 7.014 1.556c39.372 26.133 43.856 75.45 44.028 77.536a10.006 10.006 0 0 1-4.404 9.131 10.002 10.002 0 0 1-10.119.591c-36.715-18.791-67.722-28.32-92.158-28.32-30.838 0-51.964 15.006-66.484 47.224a10.004 10.004 0 0 1-9.122 5.893zm75.606-73.117c23.541 0 50.684 7.045 82.547 21.471-4.174-12.954-12.304-29.882-27.869-41.565-22.807 3.811-43.163 10.659-60.639 20.248 1.957-.101 3.944-.154 5.961-.154" fill="#3B3C3A"/><path d="M382.044 111.676c-22.232-49.327-66.05-78.084-172.316-23.697 0 0 3.806-46.271 39.592-70.023 63.089 9.461 111.881 41.543 132.724 93.72" fill="#FFFFFE"/><path d="M382.048 121.678a10.001 10.001 0 0 1-9.122-5.893c-14.52-32.218-35.646-47.224-66.484-47.224-24.436 0-55.442 9.529-92.158 28.32a10 10 0 0 1-14.523-9.722c.172-2.086 4.657-51.403 44.029-77.536a10 10 0 0 1 7.013-1.556c69.021 10.351 118.928 45.83 140.527 99.9a9.999 9.999 0 0 1-5.376 12.912 9.947 9.947 0 0 1-3.906.799zM251.761 28.467c-15.672 11.746-23.792 28.662-27.933 41.595 31.893-14.446 59.056-21.501 82.614-21.501 2.018 0 4.004.053 5.961.154-17.476-9.589-37.834-16.437-60.642-20.248" fill="#3B3C3A"/><path d="M170.023 17.972c23.921 27.867 35.919 51.395 39.705 70.007 0 0 15.867-42.4 39.994-70.333-12.412-1.755-25.365-2.645-38.759-2.645-14.182 0-27.865 1.004-40.94 2.971" fill="#FFFFFE"/><path d="M209.733 97.979a10 10 0 0 1-9.804-8.007c-2.652-13.038-11.31-34.983-37.494-65.487a10 10 0 0 1 6.101-16.402C182.135 6.038 196.41 5 210.963 5c13.77 0 27.281.924 40.16 2.745a9.999 9.999 0 1 1 6.168 16.437c-22.695 26.275-38.045 66.895-38.198 67.302a10 10 0 0 1-9.36 6.495zm-20.489-72.136c9.142 12.068 16.348 23.683 21.582 34.779 5.105-10.459 11.925-23.034 20.121-34.914-13.682-.983-28.044-.94-41.703.135" fill="#82837F"/><path d="M37.413 111.676c22.231-49.327 66.05-78.084 172.315-23.697 0 0-3.806-46.271-39.592-70.023-63.089 9.461-111.881 41.543-132.723 93.72" fill="#E46C79"/><path d="M37.408 121.678a9.95 9.95 0 0 1-3.906-.799 9.998 9.998 0 0 1-5.375-12.912c21.598-54.07 71.505-89.549 140.526-99.9a9.993 9.993 0 0 1 7.014 1.556c39.372 26.133 43.856 75.45 44.028 77.536a10.006 10.006 0 0 1-4.404 9.131 10.002 10.002 0 0 1-10.119.591c-36.715-18.791-67.722-28.32-92.158-28.32-30.838 0-51.964 15.006-66.484 47.224a10.004 10.004 0 0 1-9.122 5.893zm75.606-73.117c23.541 0 50.684 7.045 82.547 21.471-4.174-12.954-12.304-29.882-27.869-41.565-22.807 3.811-43.163 10.659-60.639 20.248 1.957-.101 3.944-.154 5.961-.154" fill="#3B3C3A"/><path d="M382.044 111.676c-22.232-49.327-66.05-78.084-172.316-23.697 0 0 3.806-46.271 39.592-70.023 63.089 9.461 111.881 41.543 132.724 93.72" fill="#F6D729"/><path d="M382.048 121.678a10.001 10.001 0 0 1-9.122-5.893c-14.52-32.218-35.646-47.224-66.484-47.224-24.436 0-55.442 9.529-92.158 28.32a10 10 0 0 1-14.523-9.722c.172-2.086 4.657-51.403 44.029-77.536a10 10 0 0 1 7.013-1.556c69.021 10.351 118.928 45.83 140.527 99.9a9.999 9.999 0 0 1-5.376 12.912 9.947 9.947 0 0 1-3.906.799zM251.761 28.467c-15.672 11.746-23.792 28.662-27.933 41.595 31.893-14.446 59.056-21.501 82.614-21.501 2.018 0 4.004.053 5.961.154-17.476-9.589-37.834-16.437-60.642-20.248" fill="#3B3C3A"/><path d="M382.044 111.676c7.168 17.944 11.038 38.26 11.038 60.855 0 42.941-15.081 77.111-39.997 102.275 7.567-18.818 11.014-40.474 11.014-64.216 0-97.395-89.903-122.611-154.371-122.611 106.266-54.387 150.084-25.63 172.316 23.697" fill="#70B7D3"/><path d="M353.082 284.806a10.001 10.001 0 0 1-9.276-13.731c6.83-16.984 10.293-37.334 10.293-60.485 0-39.887-16.213-69.923-48.187-89.273-33.554-20.307-74.664-23.338-96.184-23.338a10 10 0 0 1-4.556-18.902c40.121-20.534 73.247-30.516 101.27-30.516 39.112 0 66.823 19.302 84.719 59.006.058.133.115.265.169.399 7.798 19.519 11.752 41.241 11.752 64.565 0 43.173-14.831 80.972-42.891 109.311a9.992 9.992 0 0 1-7.109 2.964zM249.514 81.015c65.632 10.332 124.585 48.105 124.585 129.575 0 5.092-.154 10.071-.464 14.934 6.284-15.996 9.447-33.696 9.447-52.993 0-20.69-3.447-39.847-10.245-56.945-14.517-32.079-35.621-47.025-66.395-47.025-16.179 0-35.237 4.178-56.928 12.454" fill="#3B3C3A"/><path d="M364.099 210.59c0 23.742-3.447 45.398-11.014 64.216-18.503 18.689-42.431 32.409-69.636 41.065 34.278-72.632 3.037-199.854-73.721-199.854V87.979c64.468 0 154.371 25.216 154.371 122.611" fill="#E46C79"/><path d="M283.45 325.872a10 10 0 0 1-9.045-14.268c20.527-43.495 16.12-109.887-10.032-151.148-9.958-15.711-27.522-34.439-54.645-34.439-5.522 0-10-4.478-10-10V87.979c0-5.523 4.478-10 10-10 79.462 0 164.371 34.837 164.371 132.611 0 25.719-3.949 48.58-11.736 67.946a10.012 10.012 0 0 1-2.172 3.306c-19.283 19.477-44.083 34.132-73.71 43.559-.997.317-2.02.471-3.031.471zm-63.722-219.194c24.221 3.231 45.799 18.24 61.537 43.071 14.276 22.522 23.336 52.226 25.512 83.642 1.593 22.992-.626 45.484-6.303 65.326 17.079-7.654 31.84-17.535 44.068-29.517 6.342-16.6 9.557-36.305 9.557-58.61 0-39.887-16.213-69.923-48.187-89.273-28.905-17.492-63.418-22.166-86.184-23.125v8.486" fill="#3B3C3A"/><path d="M283.449 315.871c-22.706 7.226-47.697 10.916-73.721 11.031V116.017c76.758 0 107.999 127.222 73.721 199.854" fill="#70B7D3"/><path d="M209.728 336.902a10.007 10.007 0 0 1-7.056-2.913 10.006 10.006 0 0 1-2.944-7.087V116.017c0-5.523 4.478-10 10-10 28.257 0 53.663 15.53 71.537 43.732 14.276 22.522 23.336 52.226 25.512 83.642 2.2 31.76-2.873 62.568-14.284 86.748a10.005 10.005 0 0 1-6.012 5.262c-23.605 7.512-49.414 11.381-76.709 11.501h-.044zm10-210.001v189.772c19.931-.824 38.861-3.852 56.453-9.034 18.469-43.48 13.562-107.156-11.808-147.183-8.677-13.69-23.126-29.67-44.645-33.555" fill="#3B3C3A"/><path d="M212.463 55.267c-38.622 0-67.203 13.378-67.203 37.861 0 24.484 30.898 37.105 67.203 37.105 36.304 0 67.204-12.621 67.204-37.105 0-24.483-28.582-37.861-67.204-37.861" fill="#C2D54A"/><path d="M212.463 140.233c-46.899 0-77.203-18.49-77.203-47.105 0-15.397 8.666-28.512 24.402-36.929 13.369-7.152 31.628-10.932 52.801-10.932 21.174 0 39.433 3.78 52.802 10.932 15.736 8.418 24.402 21.532 24.402 36.929 0 28.615-30.304 47.105-77.204 47.105zm0-74.966c-28.472 0-57.203 8.614-57.203 27.861 0 18.623 29.653 27.105 57.203 27.105 27.551 0 57.204-8.482 57.204-27.105 0-19.247-28.731-27.861-57.204-27.861" fill="#3B3C3A"/><path d="M210.963 341.912c-54.17 0-103.473-14.949-138.825-42.092-39.752-30.523-60.763-74.538-60.763-127.289 0-53.361 20.08-97.837 58.069-128.62C104.894 15.184 153.831 0 210.963 0c57.133 0 106.07 15.184 141.52 43.911 37.989 30.783 58.069 75.259 58.069 128.62 0 52.751-21.011 96.766-60.764 127.289-35.353 27.143-84.655 42.092-138.825 42.092zm0-311.911c-104.606 0-169.588 54.614-169.588 142.53 0 102.878 91.356 139.381 169.588 139.381 78.233 0 169.589-36.503 169.589-139.381 0-87.916-64.982-142.53-169.589-142.53" fill="#3B3C3A"/></svg>