<svg xmlns="http://www.w3.org/2000/svg" width="410.15" height="411.791" viewBox="0, 0, 410.15, 411.791"><path d="M410.15 385.055c0 14.766-91.815 26.736-205.075 26.736C91.815 411.791 0 399.821 0 385.055c0-14.769 91.815-26.74 205.075-26.74 113.26 0 205.075 11.971 205.075 26.74" fill="#D6D5D0"/><path d="M379.817 119.655v202.744c0 24.796-10.467 41.577-46.525 41.577H44.105V77.896a702096865790677200 702096865790677200 0 0 0 335.712 41.759" fill="#8F8F8F"/><path d="M333.292 378.976H44.105c-8.284 0-15-6.716-15-15V77.896c0-8.284 6.716-15 15-15h293.618c34.15 0 57.094 22.81 57.094 56.759v202.744c0 37.013-21.275 56.577-61.525 56.577zm-274.187-30h274.187c29.204 0 31.525-11.518 31.525-26.577V119.655c0-9.994-3.519-26.759-27.094-26.759H59.105v256.08" fill="#3B3C3A"/><path d="M333.292 341.118H44.105c-5.522 0-10-4.477-10-10s4.478-10 10-10h289.187c30.415 0 36.525-12.083 36.525-31.577 0-5.523 4.477-10 10-10 5.522 0 10 4.477 10 10 0 34.224-19.018 51.577-56.525 51.577" fill="#3B3C3A"/><path d="M333.292 314.451H44.105c-5.522 0-10-4.477-10-10s4.478-10 10-10h289.187c30.415 0 36.525-12.083 36.525-31.577 0-5.523 4.477-10 10-10 5.522 0 10 4.477 10 10 0 34.224-19.018 51.577-56.525 51.577" fill="#3B3C3A"/><path d="M379.817 56.758v173.595c0 24.797-10.467 41.577-46.525 41.577H44.105V15h293.618c29.028 0 42.094 19.623 42.094 41.758" fill="#C2D54A"/><path d="M333.292 286.93H44.105c-8.284 0-15-6.715-15-15V15c0-8.285 6.716-15 15-15h293.618c34.15 0 57.094 22.809 57.094 56.758v173.595c0 37.013-21.275 56.577-61.525 56.577zm-274.187-30h274.187c29.204 0 31.525-11.518 31.525-26.577V56.758c0-9.993-3.519-26.758-27.094-26.758H59.105v226.93" fill="#3B3C3A"/><path d="M110.768 146.091c-2.573 3.521-5.691 5.4-9.358 5.648-3.575.426-6.901-.487-9.981-2.738-3.079-2.251-5.012-5.072-5.8-8.457-.951-3.624-.167-7.157 2.351-10.603l37.143-50.815c-3.474-.178-6.53-1.229-9.169-3.159-3.448-2.519-5.411-5.527-5.887-9.028-.556-3.554.268-6.832 2.466-9.84 3.644-4.987 8.569-6.955 14.778-5.905l19.574 3.002c4.004.676 7.584 2.167 10.739 4.474 7.404 5.411 8.265 12.005 2.586 19.778l-49.442 67.643" fill="#F6D729"/><path d="M124.187 50.92c1.003 0 2.044.091 3.124.274l19.574 3.002c4.004.676 7.584 2.167 10.739 4.474 7.404 5.411 8.265 12.005 2.586 19.778l-49.442 67.643c-2.573 3.521-5.691 5.4-9.358 5.648a14.2 14.2 0 0 1-1.687.101c-2.94 0-5.704-.946-8.294-2.839-3.079-2.251-5.012-5.072-5.8-8.457-.951-3.624-.167-7.157 2.351-10.603l37.143-50.815c-3.474-.178-6.53-1.229-9.169-3.159-3.448-2.519-5.411-5.527-5.887-9.028-.556-3.554.268-6.832 2.466-9.84 3.011-4.119 6.894-6.179 11.654-6.179zm0-28.211c-13.842 0-26.07 6.302-34.432 17.745-6.525 8.928-9.22 19.778-7.601 30.579a39.727 39.727 0 0 0 4.33 13.147l-21.279 29.114c-7.458 10.204-9.924 22.269-6.964 34.016 2.38 9.838 8.093 18.29 16.539 24.465 7.41 5.416 16.034 8.277 24.943 8.277 1.434 0 2.886-.075 4.327-.223 11.708-1.007 22.159-7.055 29.494-17.09l49.442-67.644c9.025-12.351 9.772-23.717 8.81-31.078-1.009-7.725-4.87-18.875-17.527-28.124-6.703-4.903-14.34-8.106-22.688-9.515-.14-.023-.279-.046-.419-.067l-19.407-2.976a46.932 46.932 0 0 0-7.568-.626" fill="#3B3C3A"/><path d="M242.196 230.944c0 3.271-1.045 6.04-3.133 8.312-2.271 2.453-5.313 3.677-9.129 3.677h-64.169c-12.988 0-19.481-5.449-19.481-16.35 0-4.358 1.634-8.446 4.905-12.26 2.269-2.542 5.947-5.538 11.035-8.992l38.283-25.749c6.813-4.722 10.217-9.4 10.217-14.033 0-2.634-1.317-4.769-3.95-6.403-2.635-1.543-6.086-2.316-10.354-2.316-8.902 0-17.486 4.588-25.75 13.76-3.453 3.726-6.996 5.586-10.627 5.586-3.815 0-7.175-1.134-10.081-3.407-2.817-2.179-4.221-4.993-4.221-8.446 0-4.449 1.222-8.311 3.677-11.58 9.536-13.078 24.794-19.617 45.776-19.617 11.807 0 21.752 2.77 29.836 8.308 8.9 6.268 13.353 14.67 13.353 25.205 0 6.995-2.134 13.399-6.406 19.209-3.725 4.998-9.446 10.037-17.165 15.124-9.266 6.178-17.349 11.355-24.252 15.531-.636.364-.951.817-.951 1.363 0 .907.544 1.362 1.635 1.362h38.69c3.816 0 6.813 1.181 8.993 3.543 2.179 2.362 3.269 5.087 3.269 8.173" fill="#E46C79"/><path d="M195.194 133.126c11.807 0 21.752 2.77 29.836 8.308 8.9 6.268 13.353 14.67 13.353 25.205 0 6.995-2.134 13.399-6.406 19.209-3.725 4.998-9.446 10.037-17.165 15.124-9.266 6.178-17.349 11.355-24.252 15.531-.636.364-.951.817-.951 1.363 0 .907.544 1.362 1.635 1.362h38.69c3.816 0 6.813 1.181 8.993 3.543 2.179 2.362 3.269 5.087 3.269 8.173 0 3.271-1.045 6.04-3.133 8.312-2.271 2.453-5.313 3.677-9.129 3.677h-64.169c-12.988 0-19.481-5.449-19.481-16.35 0-4.358 1.634-8.446 4.905-12.26 2.269-2.542 5.947-5.538 11.035-8.992l38.283-25.749c6.813-4.722 10.217-9.4 10.217-14.033 0-2.634-1.317-4.769-3.95-6.403-2.635-1.543-6.086-2.316-10.354-2.316-8.902 0-17.486 4.588-25.75 13.76-3.453 3.726-6.996 5.586-10.627 5.586-3.815 0-7.175-1.134-10.081-3.407-2.817-2.179-4.221-4.993-4.221-8.446 0-4.449 1.222-8.311 3.677-11.58 9.536-13.078 24.794-19.617 45.776-19.617zm0-24.361c-36.141 0-55.489 16.013-65.37 29.503-5.526 7.427-8.444 16.432-8.444 26.055 0 11.031 4.84 20.858 13.631 27.68a41.542 41.542 0 0 0 2.386 1.725 56.74 56.74 0 0 0-4.384 4.375c-.107.12-.213.241-.318.363-7.047 8.22-10.772 17.943-10.772 28.117 0 12.597 4.82 23.579 13.571 30.923 7.738 6.495 17.924 9.788 30.271 9.788h64.169c10.554 0 20.144-4.079 27.003-11.487l.061-.066c6.254-6.803 9.558-15.378 9.558-24.797 0-9.255-3.361-17.792-9.721-24.688a34.7 34.7 0 0 0-5.894-5.098c.191-.251.383-.502.569-.753l.095-.128c7.391-10.055 11.139-21.372 11.139-33.638 0-18.341-8.412-34.365-23.688-45.122-.086-.061-.172-.12-.259-.18-12.176-8.342-26.847-12.572-43.603-12.572" fill="#3B3C3A"/><path d="M356.543 111.588c4.825 9.674 4.123 19.665-2.101 29.975-5.779 9.78-14.928 17.796-27.441 24.038-8.05 4.013-16.399 6.5-25.051 7.468-9.386 1.127-17.468.185-24.247-2.828-3.897-1.711-6.941-4.76-9.128-9.15-1.461-2.926-1.419-5.993.129-9.2 1.425-3.045 3.845-5.419 7.258-7.12 3.332-1.662 7.556-1.84 12.674-.536 12.142 3.183 22.152 2.807 30.038-1.126 3.82-1.904 7.196-4.501 10.123-7.789 3.823-4.137 4.963-7.75 3.422-10.841-2.593-5.2-7.425-6.748-14.494-4.645-2.48.728-9.326 3.888-20.544 9.482-3.496 1.744-6.786 2.066-9.871.965-2.884-1.098-5.095-3.191-6.636-6.282-1.539-3.088-1.922-6.093-1.147-9.019 1.1-3.289 3.601-5.906 7.502-7.852 1.056-.527 2.968-1.377 5.73-2.551 2.765-1.176 4.794-2.087 6.095-2.737 8.535-4.257 11.324-9.351 8.363-15.285-2.632-5.282-8.828-5.493-18.581-.629-5.447 2.717-10.245 7.647-14.393 14.792a983.194 983.194 0 0 0-4.336 7.488c-1.83 2.64-3.885 4.526-6.158 5.661-3.578 1.784-7.153 2.146-10.725 1.087-3.533-.98-6.09-3.053-7.672-6.224-2.513-5.04-2.04-10.602 1.419-16.693 6.226-10.919 16.45-19.925 30.675-27.019 10.809-5.391 21.333-7.389 31.568-6 10.884 1.476 18.414 6.397 22.59 14.768 1.864 3.74 2.813 7.68 2.852 11.824-.008 4.873-1.353 8.69-4.034 11.45 5.523-.522 10.661.618 15.411 3.427 4.828 2.769 8.4 6.467 10.71 11.101" fill="#70B7D3"/><path d="M302.681 58.591c2.123 0 4.235.142 6.333.427 10.884 1.476 18.414 6.397 22.59 14.768 1.864 3.74 2.813 7.68 2.852 11.824-.008 4.873-1.353 8.69-4.034 11.45a27.342 27.342 0 0 1 2.574-.123c4.553 0 8.832 1.182 12.837 3.55 4.828 2.769 8.4 6.467 10.71 11.101 4.825 9.674 4.123 19.665-2.101 29.975-5.779 9.78-14.928 17.796-27.441 24.038-8.05 4.013-16.399 6.5-25.051 7.468-2.556.307-5.015.46-7.376.46-6.315 0-11.938-1.096-16.871-3.288-3.897-1.711-6.941-4.76-9.128-9.15-1.461-2.926-1.419-5.993.129-9.2 1.425-3.045 3.845-5.419 7.258-7.12 1.866-.931 4.014-1.396 6.44-1.396 1.905 0 3.982.287 6.234.86 5.43 1.423 10.434 2.135 15.012 2.135 5.658 0 10.666-1.087 15.026-3.261 3.82-1.904 7.196-4.501 10.123-7.789 3.823-4.137 4.963-7.75 3.422-10.841-1.846-3.702-4.829-5.553-8.944-5.554-1.664 0-3.514.303-5.55.909-2.48.728-9.326 3.888-20.544 9.482-2.142 1.069-4.209 1.604-6.197 1.604-1.256 0-2.48-.213-3.674-.639-2.884-1.098-5.095-3.191-6.636-6.282-1.539-3.088-1.922-6.093-1.147-9.019 1.1-3.289 3.601-5.906 7.502-7.852 1.056-.527 2.968-1.377 5.73-2.551 2.765-1.176 4.794-2.087 6.095-2.737 8.535-4.257 11.324-9.351 8.363-15.285-1.371-2.75-3.708-4.126-7.009-4.126-3.04 0-6.897 1.166-11.572 3.497-5.447 2.717-10.245 7.647-14.393 14.792a983.194 983.194 0 0 0-4.336 7.488c-1.83 2.64-3.885 4.526-6.158 5.661-2.245 1.119-4.489 1.679-6.731 1.679-1.332 0-2.663-.197-3.994-.592-3.533-.98-6.09-3.053-7.672-6.224-2.513-5.04-2.04-10.602 1.419-16.693 6.226-10.919 16.45-19.925 30.675-27.019 8.593-4.286 17.005-6.427 25.235-6.427zm0-24.361c-12.002 0-24.15 3.025-36.107 8.989-18.553 9.251-32.336 21.617-40.965 36.752-7.498 13.203-8.223 27.265-2.059 39.628 4.623 9.264 12.696 15.921 22.752 18.77a39.01 39.01 0 0 0 1.752.466 38.66 38.66 0 0 0-1.347 2.589c-4.791 10.012-4.766 20.855.072 30.547 4.703 9.439 11.996 16.551 21.083 20.555 8.031 3.559 17.018 5.364 26.712 5.364 3.286 0 6.711-.209 10.181-.622 11.429-1.29 22.57-4.609 33.114-9.865 16.693-8.327 29.304-19.547 37.489-33.351 10.43-17.344 11.491-36.28 2.986-53.335-4.398-8.82-11.092-15.909-19.899-21.077-.702-5.8-2.389-11.404-5.038-16.721-7.753-15.54-22.355-25.496-41.12-28.04a71.499 71.499 0 0 0-9.606-.649" fill="#3B3C3A"/></svg>