<svg xmlns="http://www.w3.org/2000/svg" width="425.976" height="341.962" viewBox="0, 0, 425.976, 341.962"><path d="M411.176 315.227c0 14.765-91.815 26.735-205.075 26.735-113.26 0-205.075-11.97-205.075-26.735 0-14.77 91.815-26.74 205.075-26.74 113.26 0 205.075 11.97 205.075 26.74" fill="#D6D5D0"/><path d="M150.414 68.726c-33.972-30.661-100-69.194-121-47.282-21 21.911-16 61.121-5 84.186 11 23.065 14 42.67 3 59.968-11 17.299-21 65.735 1 85.341 22 19.605 108-24.219 124-54.203s21-107.251-2-128.01" fill="#FFFFFE"/><path d="M44.856 270.819h-.007c-11.065-.001-19.951-2.923-26.414-8.682C-10.551 236.305.8 179.497 14.757 157.55c5.029-7.911 8.502-19.497-3.882-45.463-11.901-24.956-19.67-72.454 7.71-101.022C23.422 6.016 32.339 0 47.343 0c36.179 0 87.472 34.441 113.121 57.591 18.57 16.759 20.861 52.241 20.573 71.9-.421 28.834-6.318 57.307-15.389 74.307-16.044 30.068-82.647 67.021-120.792 67.021zm-6.462-31.078s1.524 1.077 6.458 1.078c28.934.003 84.202-32.167 94.329-51.144 6.749-12.648 11.515-37.01 11.86-60.622.394-26.969-5.079-44.139-10.677-49.191C113.684 55.782 69.939 30 47.343 30c-1.999 0-5.579.237-7.099 1.823-15.848 16.536-10.88 49.338-2.291 67.35 9.103 19.086 19.226 47.571 2.119 74.474-9.034 14.206-15.511 53.765-1.678 66.094" fill="#3B3C3A"/><path d="M91.414 104.586l60 20-60-20" fill="#FFFFFE"/><path d="M151.416 139.591c-1.572 0-3.172-.249-4.745-.773l-60-20c-7.859-2.62-12.106-11.115-9.487-18.974 2.621-7.859 11.114-12.107 18.973-9.487l60 20c7.86 2.62 12.107 11.114 9.488 18.973-2.096 6.286-7.948 10.261-14.229 10.261" fill="#3B3C3A"/><path d="M92.414 176.586l62-14-62 14" fill="#FFFFFE"/><path d="M92.401 191.59c-6.857 0-13.044-4.731-14.619-11.7-1.824-8.08 3.248-16.11 11.329-17.935l62-14c8.086-1.827 16.109 3.248 17.935 11.328 1.824 8.08-3.247 16.111-11.328 17.936l-62 14a15.058 15.058 0 0 1-3.317.371" fill="#3B3C3A"/><path d="M275.561 68.726c33.972-30.661 100-69.194 121-47.282 21 21.911 16 61.121 5 84.186-11 23.065-14 42.67-3 59.968 11 17.299 21 65.735-1 85.341-22 19.605-108-24.219-124-54.203s-21-107.251 2-128.01" fill="#FFFFFE"/><path d="M381.124 270.819c-38.145 0-104.754-36.955-120.797-67.021-9.071-17-14.968-45.473-15.389-74.307-.288-19.659 2.003-55.141 20.573-71.9C291.16 34.441 342.453 0 378.632 0c15.004 0 23.921 6.016 28.759 11.065 27.379 28.568 19.61 76.066 7.709 101.022-12.384 25.966-8.911 37.552-3.882 45.463 13.957 21.947 25.309 78.755-3.678 104.587-6.464 5.76-15.351 8.682-26.416 8.682zM378.632 30c-22.596 0-66.341 25.782-93.021 49.862-5.598 5.052-11.071 22.222-10.677 49.191.346 23.612 5.111 47.974 11.86 60.621 10.125 18.975 65.394 51.145 94.33 51.145 4.936 0 6.457-1.08 6.471-1.091 13.819-12.316 7.342-51.875-1.691-66.081-17.108-26.903-6.985-55.388 2.118-74.474 8.59-18.012 13.557-50.814-2.29-67.35-1.521-1.586-5.101-1.823-7.1-1.823" fill="#3B3C3A"/><path d="M334.561 104.586l-60 20 60-20" fill="#FFFFFE"/><path d="M274.559 139.591c-6.281 0-12.133-3.975-14.229-10.261-2.619-7.859 1.628-16.353 9.488-18.973l60-20c7.857-2.62 16.353 1.628 18.973 9.487 2.619 7.859-1.628 16.354-9.487 18.974l-60 20a14.995 14.995 0 0 1-4.745.773" fill="#3B3C3A"/><path d="M333.561 176.586l-62-14 62 14" fill="#FFFFFE"/><path d="M333.574 191.59c-1.094 0-2.205-.12-3.317-.371l-62-14c-8.081-1.825-13.152-9.855-11.328-17.936 1.824-8.081 9.857-13.153 17.936-11.328l61.999 14c8.082 1.826 13.153 9.855 11.329 17.935-1.574 6.968-7.763 11.7-14.619 11.7" fill="#3B3C3A"/><path d="M210.414 56.04c-14-21.912-60-27.677-68 3.46-8 31.138-13 128.01 1 155.688 14 27.678 58 20.759 66 2.306 14 20.758 56 24.218 65 1.153 9-23.064 12-134.928 4-160.3-8-25.372-55-25.372-68-2.307" fill="#F1D12B"/><path d="M245.887 249.55h-.005c-13.07-.001-25.792-3.964-35.747-10.719-8.85 6.194-20.712 9.852-33.513 9.852-20.711 0-38.128-9.99-46.592-26.725-16.868-33.344-10.146-135.045-2.144-166.191 5.214-20.294 22.593-32.9 45.354-32.9 13.369 0 26.656 4.416 36.895 11.752 9.395-6.746 21.725-10.599 35.126-10.599 23.119 0 41.748 11.703 47.459 29.816 6.24 19.791 5.454 70.761 5.064 85.912-.389 15.137-2.217 65.955-9.396 84.352-6.218 15.935-22.107 25.45-42.501 25.45zm-36.47-47.056c4.955 0 9.629 2.455 12.434 6.613 4.08 6.051 14.187 10.443 24.033 10.443h.003c5.837 0 12.725-1.669 14.554-6.355 2.896-7.423 6.352-35.301 7.353-74.218 1.053-40.929-1.173-68.15-3.685-76.119-1.915-6.073-11.113-8.838-18.848-8.838-9.709 0-18.665 3.86-21.779 9.386a15 15 0 0 1-12.653 7.628 14.977 14.977 0 0 1-13.054-6.918c-4.098-6.413-14.646-11.249-24.535-11.249-9.047 0-14.531 3.488-16.297 10.366-8.193 31.884-11.233 123.261-.144 145.184 4.519 8.932 14.359 10.266 19.823 10.266 10.457 0 17.948-4.658 19.03-7.155a15.002 15.002 0 0 1 13.765-9.034" fill="#3B3C3A"/></svg>