<svg xmlns="http://www.w3.org/2000/svg" width="410.15" height="434.34" viewBox="0, 0, 410.15, 434.34"><path d="M410.15 407.606c0 14.766-91.815 26.734-205.075 26.734C91.815 434.34 0 422.372 0 407.606c0-14.769 91.815-26.74 205.075-26.74 113.26 0 205.075 11.971 205.075 26.74" fill="#D6D5D0"/><path d="M214.546 119.172H38.761c0 114.37 96.667 134.295 175.785 134.295 79.119 0 175.786-19.925 175.786-134.295H214.546" fill="#F6D729"/><path d="M214.546 268.467c-52.927 0-93.798-8.571-124.951-26.204-43.684-24.727-65.834-66.141-65.834-123.091 0-8.284 6.716-15 15-15h351.571c8.284 0 15 6.716 15 15 0 56.95-22.15 98.364-65.834 123.091-31.153 17.633-72.024 26.204-124.952 26.204zM54.393 134.172c3.32 37.97 19.761 64.876 49.981 81.982 26.156 14.807 63.223 22.313 110.172 22.313 46.95 0 84.017-7.506 110.173-22.313 30.22-17.106 46.661-44.012 49.981-81.982H54.393" fill="#3B3C3A"/><path d="M181.86 329.692c0 38.291-31.042 69.333-69.334 69.333-38.291 0-69.333-31.042-69.333-69.333 0-38.292 31.042-69.334 69.333-69.334 38.292 0 69.334 31.042 69.334 69.334" fill="#FFFFFE"/><path d="M112.526 414.025c-46.501 0-84.333-37.832-84.333-84.333 0-46.502 37.832-84.334 84.333-84.334 46.502 0 84.334 37.832 84.334 84.334 0 46.501-37.832 84.333-84.334 84.333zm0-138.667c-29.959 0-54.333 24.374-54.333 54.334 0 29.959 24.374 54.333 54.333 54.333 29.96 0 54.334-24.374 54.334-54.333 0-29.96-24.374-54.334-54.334-54.334" fill="#3B3C3A"/><path d="M385.9 329.692c0 38.291-31.042 69.333-69.334 69.333-38.291 0-69.333-31.042-69.333-69.333 0-38.292 31.042-69.334 69.333-69.334 38.292 0 69.334 31.042 69.334 69.334" fill="#FFFFFE"/><path d="M316.566 414.025c-46.501 0-84.333-37.832-84.333-84.333 0-46.502 37.832-84.334 84.333-84.334 46.502 0 84.334 37.832 84.334 84.334 0 46.501-37.832 84.333-84.334 84.333zm0-138.667c-29.959 0-54.333 24.374-54.333 54.334 0 29.959 24.374 54.333 54.333 54.333 29.96 0 54.334-24.374 54.334-54.333 0-29.96-24.374-54.334-54.334-54.334m-204.052 69.336c-2.965 0-5.958-.876-8.573-2.701-6.793-4.743-8.456-14.093-3.714-20.886l102.02-146.144c4.743-6.793 14.092-8.455 20.885-3.714 6.793 4.742 8.456 14.094 3.714 20.886L124.827 338.279a14.986 14.986 0 0 1-12.313 6.415" fill="#3B3C3A"/><path d="M316.579 344.694c-4.736 0-9.396-2.237-12.313-6.415L202.247 192.135c-4.742-6.792-3.079-16.144 3.714-20.886 6.793-4.741 16.143-3.078 20.885 3.714l102.02 146.144c4.742 6.793 3.079 16.143-3.714 20.886a14.932 14.932 0 0 1-8.573 2.701" fill="#3B3C3A"/><path d="M214.56 198.55c-4.839 0-9.588-2.337-12.48-6.66L126.129 78.371c-.611-.865-9.733-13.415-24.916-13.415H33.59c-8.284 0-15-6.716-15-15 0-8.284 6.716-15 15-15h67.623c31.665 0 49.088 25.59 49.814 26.679l75.986 113.573c4.607 6.884 2.76 16.202-4.126 20.808a14.935 14.935 0 0 1-8.327 2.534" fill="#3B3C3A"/><path d="M243.552 183.549c0 16.019-12.986 29.007-29.006 29.007-16.019 0-29.005-12.988-29.005-29.007 0-16.021 12.986-29.007 29.005-29.007 16.02 0 29.006 12.986 29.006 29.007" fill="#FFFFFE"/><path d="M214.546 227.556c-24.264 0-44.005-19.742-44.005-44.007 0-24.265 19.741-44.007 44.005-44.007 24.265 0 44.006 19.742 44.006 44.007 0 24.265-19.741 44.007-44.006 44.007zm0-58.014c-7.722 0-14.005 6.283-14.005 14.007 0 7.723 6.283 14.007 14.005 14.007 7.723 0 14.006-6.284 14.006-14.007 0-7.724-6.283-14.007-14.006-14.007" fill="#3B3C3A"/><path d="M218.088 119.172H385.9l-23.531-29.771 18.844-30.777-39.167-5.834L333.284 15 218.088 119.172" fill="#FFFFFE"/><path d="M385.9 134.172H218.088a15.001 15.001 0 0 1-10.06-26.125L323.223 3.875a15 15 0 0 1 24.673 7.738l6.456 27.844 29.072 4.331a15 15 0 0 1 10.582 22.669l-13.38 21.852 17.042 21.562a14.996 14.996 0 0 1 1.732 15.838 14.997 14.997 0 0 1-13.5 8.463zm-128.86-30h97.884l-4.323-5.468a15.005 15.005 0 0 1-1.025-17.136l7.01-11.446-16.75-2.495a15.002 15.002 0 0 1-12.403-11.449l-3.002-12.949-67.391 60.943" fill="#3B3C3A"/></svg>