<svg xmlns="http://www.w3.org/2000/svg" width="410.15" height="444.196" viewBox="0, 0, 410.15, 444.196"><path d="M410.15 417.461c0 14.765-91.814 26.735-205.074 26.735C91.816 444.196 0 432.226 0 417.461c0-14.77 91.816-26.741 205.076-26.741 113.26 0 205.074 11.971 205.074 26.741" fill="#D6D5D0"/><path d="M347.798 93.651L148.999 294.618l162.025 34.72 36.774-235.687" fill="#70B7D3"/><path d="M311.024 344.338a15 15 0 0 1-3.143-.333l-162.025-34.72a15 15 0 0 1-7.522-25.216l198.8-200.967a14.998 14.998 0 0 1 17.422-2.842 14.998 14.998 0 0 1 8.063 15.704L325.844 331.65a14.992 14.992 0 0 1-6.32 10.046 14.997 14.997 0 0 1-8.5 2.642zm-132.096-58.647l119.722 25.654 27.173-174.149-146.895 148.495" fill="#3B3C3A"/><path d="M357.238 102.579l-35.93 282.26-38.388-4.889 35.929-282.259 38.389 4.888" fill="#FFFFFE"/><path d="M321.308 399.839c-.63 0-1.262-.04-1.894-.121l-38.389-4.888c-8.218-1.047-14.031-8.556-12.985-16.774l35.929-282.259a14.996 14.996 0 0 1 5.698-9.967 14.995 14.995 0 0 1 11.077-3.019l38.388 4.888c8.218 1.046 14.032 8.556 12.986 16.774l-35.93 282.26a15 15 0 0 1-14.88 13.106zm-21.614-32.874l8.629 1.099 32.141-252.5-8.629-1.098-32.141 252.499" fill="#3B3C3A"/><path d="M325.34 149.859L77.768 397.432l-27.363-27.366 247.571-247.572 27.364 27.365" fill="#FFFFFE"/><path d="M77.768 412.432c-3.978 0-7.794-1.58-10.607-4.394l-27.363-27.366c-5.858-5.858-5.857-15.355 0-21.212L287.37 111.887a14.997 14.997 0 0 1 21.213 0l27.364 27.366c5.858 5.858 5.858 15.355 0 21.213L88.375 408.039a15 15 0 0 1-10.607 4.393zm-6.15-42.365l6.151 6.151 226.359-226.359-6.152-6.152-226.358 226.36" fill="#3B3C3A"/><path d="M320.079 98.821L205.525 213.375l-37.697-149.81 152.251 35.256" fill="#70B7D3"/><path d="M205.524 228.375a15.004 15.004 0 0 1-14.546-11.34l-37.697-149.81a14.998 14.998 0 0 1 17.931-18.273l152.251 35.256a14.997 14.997 0 0 1 7.222 25.219L216.131 223.981a14.994 14.994 0 0 1-10.607 4.394zM188.367 83.718l25.251 100.351 76.734-76.735-101.985-23.616" fill="#3B3C3A"/><path d="M375.547 36.475c16.336 42.28 12.674 57.835-46.542 117.051-9.299-9.301-26.093-26.094-34.697-34.697 34.587-34.587 47.187-42.256 36.042-63.242-17.967-33.832 28.862-61.391 45.197-19.112" fill="#FFFFFE"/><path d="M329.005 168.526a15 15 0 0 1-10.607-4.394l-34.696-34.697c-5.859-5.858-5.859-15.355 0-21.213 4.477-4.477 8.632-8.549 12.297-12.141 11.26-11.038 19.396-19.012 22.345-24.451 1.116-2.059 1.789-3.301-1.242-9.008-7.768-14.63-7.755-30.455.039-43.419C324.262 7.359 336.969 0 350.3 0c17.054 0 31.722 11.614 39.24 31.069 9.247 23.933 13.046 41.897 5.096 62.892-7.718 20.387-26.02 41.168-55.024 70.172a15 15 0 0 1-10.607 4.393zm-13.42-49.635l13.344 13.345c48.29-49.825 44.535-59.533 32.626-90.354C358.638 34.331 354.536 30 350.3 30c-2.822 0-5.746 1.83-7.448 4.661-2.27 3.777-2.006 8.709.746 13.89 4.542 8.554 9.6 21.734 1.119 37.377-5.099 9.406-14.097 18.226-27.719 31.578l-1.413 1.385" fill="#3B3C3A"/><path d="M138.74 357.517c0 27.736-22.485 50.218-50.218 50.218-27.734 0-50.218-22.482-50.218-50.218 0-27.734 22.484-50.217 50.218-50.217 27.733 0 50.218 22.483 50.218 50.217" fill="#FFFFFE"/><path d="M88.522 422.735c-35.961 0-65.218-29.256-65.218-65.218 0-35.961 29.257-65.217 65.218-65.217s65.218 29.256 65.218 65.217c0 35.962-29.257 65.218-65.218 65.218zm0-100.435c-19.419 0-35.218 15.798-35.218 35.217 0 19.419 15.799 35.218 35.218 35.218 19.419 0 35.218-15.799 35.218-35.218 0-19.419-15.799-35.217-35.218-35.217" fill="#3B3C3A"/><path d="M356.909 357.517c0 27.736-22.485 50.218-50.218 50.218-27.734 0-50.218-22.482-50.218-50.218 0-27.734 22.484-50.217 50.218-50.217 27.733 0 50.218 22.483 50.218 50.217" fill="#FFFFFE"/><path d="M306.691 422.735c-35.961 0-65.218-29.256-65.218-65.218 0-35.961 29.257-65.217 65.218-65.217s65.218 29.256 65.218 65.217c0 35.962-29.257 65.218-65.218 65.218zm0-100.435c-19.419 0-35.218 15.798-35.218 35.217 0 19.419 15.799 35.218 35.218 35.218 19.419 0 35.218-15.799 35.218-35.218 0-19.419-15.799-35.217-35.218-35.217" fill="#3B3C3A"/></svg>