<svg xmlns="http://www.w3.org/2000/svg" width="416.285" height="410.527" viewBox="0, 0, 416.285, 410.527"><path d="M410.15 383.793c0 14.765-91.814 26.734-205.074 26.734C91.816 410.527 0 398.558 0 383.793c0-14.77 91.816-26.741 205.076-26.741 113.26 0 205.074 11.971 205.074 26.741" fill="#D6D5D0"/><path d="M121.197 15c83.731 0 266.339 58.602 280.088 323.433-35.18-48.86-87.756-120.343-229.802-130.673-20.482-55.328-50.761-186.262-50.761-186.262l.475-6.498" fill="#FFFFFE"/><path d="M401.288 353.434a14.999 14.999 0 0 1-12.176-6.236c-32.85-45.624-82.491-114.57-218.717-124.478a14.996 14.996 0 0 1-12.979-9.752c-20.578-55.586-50.063-182.707-51.308-188.091a14.938 14.938 0 0 1 .246-7.696 15.245 15.245 0 0 1-.157-2.181c0-8.284 6.716-15 15-15 22.544 0 101.85 4.748 175.838 65.838 33.372 27.554 60.289 62.505 80.002 103.881 22.72 47.687 35.918 104.189 39.227 167.937a15 15 0 0 1-14.976 15.778zM182.381 193.617c61.181 5.758 111.252 23.084 152.809 52.834 18.504 13.247 33.538 27.761 46.067 41.904-13.022-86.5-47.665-153.428-103.323-199.384-45.804-37.819-99.309-54.464-139.605-58.157 7.598 31.921 28.156 116.248 44.052 162.803" fill="#3B3C3A"/><path d="M158.113 68.725C149.614 27.338 132.541 15 121.197 15c-11.343 0-28.417 12.338-36.916 53.725-41.987-4.706-58.998 7.72-62.504 18.507-3.505 10.788 2.954 30.839 39.688 51.712-17.449 38.477-10.889 58.496-1.711 65.164 9.175 6.667 30.242 6.72 61.444-21.767 31.202 28.487 52.268 28.433 61.445 21.766 9.177-6.667 15.738-26.686-1.714-65.164 36.734-20.872 43.194-40.923 39.688-51.712-3.505-10.787-20.517-23.212-62.504-18.506" fill="#F6D729"/><path d="M72.503 222.759c-8.242 0-15.699-2.253-21.567-6.516-6.685-4.858-25.649-23.64-8.181-71.22C.656 116.799 4.958 90.457 7.511 82.597c2.911-8.96 10.042-16.739 20.077-21.906 10.296-5.303 23.581-7.99 39.487-7.99 1.839 0 3.722.036 5.641.109C86.549 4.05 112.932 0 121.197 0s34.647 4.05 48.48 52.81c1.921-.073 3.804-.109 5.643-.109 15.904 0 29.188 2.687 39.484 7.989 10.037 5.168 17.168 12.948 20.078 21.905 2.555 7.861 6.858 34.203-35.241 62.428 17.47 47.58-1.495 66.361-8.181 71.219-5.869 4.263-13.327 6.517-21.567 6.517-.001 0 0 0 0 0-14.867 0-31.207-6.966-48.695-20.734-17.488 13.769-33.829 20.734-48.695 20.734zM67.075 82.701c-23.292 0-30.404 7.23-31.032 9.168-.837 2.574 2.376 16.726 32.833 34.033 6.744 3.832 9.454 12.174 6.251 19.237-14.469 31.904-8.748 45.241-6.557 46.833.403.293 1.684.787 3.933.787 4.52 0 17.33-2.093 38.582-21.496 5.728-5.228 14.498-5.228 20.226 0 21.251 19.402 34.061 21.496 38.582 21.496 2.249 0 3.531-.495 3.934-.787 2.191-1.592 7.911-14.929-6.559-46.834-3.203-7.064-.493-15.405 6.251-19.236 30.457-17.307 33.669-31.459 32.832-34.035-.629-1.937-7.739-9.166-31.031-9.166-4.795 0-10.022.312-15.536.932-7.707.866-14.805-4.293-16.364-11.89C136.373 37.427 123.905 30 121.197 30c-2.708 0-15.176 7.427-22.223 41.743-1.559 7.598-8.646 12.751-16.364 11.89-5.514-.62-10.74-.932-15.535-.932" fill="#3B3C3A"/><path d="M143.885 236.671c51.35-4.177 210.769-10.732 257.4 101.762-40.252-25.476-147.069-32.8-218.21 18.848-13.582-32.061-39.19-120.61-39.19-120.61" fill="#FFFFFE"/><path d="M183.074 372.281a15 15 0 0 1-13.811-9.149c-13.773-32.511-38.731-118.642-39.787-122.294a15.002 15.002 0 0 1 13.193-19.118c15.486-1.259 30.14-1.871 44.802-1.871 47.413 0 89.112 6.464 123.937 19.213 50.787 18.594 85.688 50.094 103.733 93.627a14.999 14.999 0 0 1-21.879 18.419c-16.894-10.693-47.656-17.337-80.279-17.337-26.888 0-78.373 4.632-121.096 35.649a15.003 15.003 0 0 1-8.813 2.861zm-19.496-121.858c6.498 21.786 17.784 58.784 26.866 84.185 45.623-26.552 95.279-30.837 122.539-30.837 18.604 0 36.616 1.914 52.717 5.439-42.369-48.134-117.46-59.361-178.229-59.361-7.909 0-15.825.19-23.893.574" fill="#3B3C3A"/><path d="M167.43 270.936c-5.421-26.395-16.309-34.265-23.545-34.265-7.234 0-18.123 7.87-23.544 34.265-26.778-3.001-37.627 4.924-39.864 11.804-2.235 6.881 1.885 19.669 25.313 32.981-11.129 24.54-6.946 37.308-1.092 41.561 5.852 4.252 19.288 4.285 39.188-13.883 19.901 18.168 33.336 18.134 39.189 13.882 5.853-4.252 10.037-17.02-1.093-41.561 23.428-13.311 27.548-26.099 25.312-32.981-2.235-6.879-13.085-14.804-39.864-11.803" fill="#C2D54A"/><path d="M112.829 374.611c-6.41 0-12.271-1.796-16.948-5.193-4.862-3.534-18.413-16.657-8.486-47.72-26.289-19.297-23.041-37.877-21.184-43.593 1.734-5.334 9.93-22.684 42.763-22.821 10.229-30.96 28.903-33.613 34.911-33.613 6.01 0 24.684 2.653 34.913 33.613 32.837.137 41.03 17.489 42.762 22.821 1.857 5.714 5.108 24.295-21.183 43.592 9.927 31.066-3.624 44.187-8.487 47.721-4.675 3.396-10.536 5.192-16.946 5.192h-.001c-9.725 0-20.135-3.982-31.057-11.858-10.922 7.877-21.333 11.859-31.057 11.859zm-17.348-86.975c1.457 2.809 6.134 8.46 17.72 15.043 6.743 3.832 9.453 12.174 6.25 19.238-5.507 12.143-5.965 19.465-5.492 22.59 2.635-.419 9.183-2.48 19.814-12.185 5.729-5.231 14.498-5.231 20.227 0 10.631 9.705 17.179 11.764 19.814 12.184.473-3.125.015-10.448-5.493-22.59-3.203-7.065-.493-15.406 6.251-19.238 11.585-6.583 16.261-12.233 17.719-15.042-1.847-.945-5.935-2.353-13.888-2.353-2.856 0-5.986.188-9.302.56-7.715.871-14.803-4.291-16.364-11.889-2.688-13.093-6.635-19.284-8.852-21.521-2.215 2.237-6.162 8.428-8.85 21.521-1.562 7.597-8.651 12.753-16.364 11.889-3.316-.372-6.446-.56-9.302-.56-7.954 0-12.042 1.408-13.888 2.353" fill="#3B3C3A"/></svg>