<svg xmlns="http://www.w3.org/2000/svg" width="423.337" height="391.96" viewBox="0, 0, 423.337, 391.96"><path d="M410.854 365.227c0 14.766-91.815 26.734-205.075 26.734-113.26 0-205.074-11.968-205.074-26.734 0-14.769 91.814-26.74 205.074-26.74 113.26 0 205.075 11.971 205.075 26.74" fill="#D6D5D0"/><path d="M71.058 143.894V237.4S15 237.4 15 186.734c0-49.315 56.058-42.84 56.058-42.84" fill="#FFFFFE"/><path d="M71.058 252.4c-1.765 0-17.722-.216-34.206-7.665C13.087 233.996 0 213.397 0 186.734c0-35.85 24.827-58.12 64.793-58.12 4.478 0 7.439.316 7.987.379 7.568.875 13.278 7.283 13.278 14.9V237.4c0 8.283-6.716 15-15 15zm-15-93.196c-4.618.638-9.838 1.923-14.365 4.436C36.673 166.43 30 171.855 30 186.734c0 14.742 5.886 24.386 18.525 30.348 2.524 1.191 5.086 2.117 7.533 2.834v-60.712" fill="#3B3C3A"/><path d="M350.558 143.894V237.4s57.779 0 57.779-50.666c0-49.315-57.779-42.84-57.779-42.84" fill="#FFFFFE"/><path d="M350.558 252.4c-8.284 0-15-6.717-15-15v-93.507c0-7.637 5.739-14.054 13.329-14.905.556-.063 3.563-.374 8.129-.374 40.908 0 66.321 22.27 66.321 58.12 0 26.74-13.448 47.363-37.866 58.071-16.838 7.381-33.113 7.595-34.913 7.595zm15-93.337v61.015c2.754-.749 5.666-1.739 8.534-3.048 13.13-5.994 19.245-15.621 19.245-30.296 0-16.309-9.335-25.592-27.779-27.671" fill="#3B3C3A"/><path d="M212.318 72.359c-86.697 0-150.854 45.489-150.854 128.741 0 83.25 69.358 126.166 150.854 126.166 81.494 0 150.854-42.916 150.854-126.166 0-83.252-64.157-128.741-150.854-128.741" fill="#FFFFFE"/><path d="M212.318 342.266c-44.871 0-85.756-12.418-115.123-34.967-33.189-25.482-50.731-62.205-50.731-106.199 0-44.463 16.761-81.547 48.472-107.243 29.465-23.877 70.055-36.498 117.382-36.498S300.235 69.98 329.7 93.857c31.711 25.696 48.472 62.78 48.472 107.243 0 43.994-17.543 80.717-50.732 106.199-29.367 22.549-70.252 34.967-115.122 34.967zm0-254.907c-65.676 0-135.854 29.882-135.854 113.741 0 82.052 73.184 111.166 135.854 111.166 62.67 0 135.854-29.114 135.854-111.166 0-83.859-70.178-113.741-135.854-113.741" fill="#3B3C3A"/><path d="M272.148 159.993c0 6.436-5.215 11.653-11.65 11.653-6.434 0-11.653-5.217-11.653-11.653 0-6.435 5.219-11.65 11.653-11.65 6.435 0 11.65 5.215 11.65 11.65m-97.656 0c0 6.436-5.215 11.653-11.652 11.653-6.434 0-11.651-5.217-11.651-11.653 0-6.435 5.217-11.65 11.651-11.65 6.437 0 11.652 5.215 11.652 11.65m37.826 46.687h-51.404s3.597 33.431 51.404 33.431c47.805 0 51.404-33.431 51.404-33.431h-51.404" fill="#3B3C3A"/><path d="M212.318 249.268c-28.27 0-43.175-10.907-50.7-20.055-8.373-10.179-9.686-20.419-9.808-21.553a9.156 9.156 0 0 1 9.104-10.136h102.808a9.153 9.153 0 0 1 9.104 10.137c-.122 1.133-1.435 11.374-9.808 21.552-7.526 9.148-22.432 20.055-50.7 20.055zm-37.882-33.431c.561.8 1.19 1.611 1.896 2.416 7.376 8.429 19.483 12.703 35.986 12.703 22.266 0 32.879-8.095 37.897-15.119h-75.779" fill="#3B3C3A"/><path d="M240.218 37.04c-8.638-13.08-27.236-31.52-36.078-26.052-8.844 5.466-10.545 18.9-8.873 27.493 1.672 8.593.986 15.352-4.146 20.145-5.129 4.797-12.6 20.002-6.983 28.39 5.615 8.39 37.895 1.226 45.772-7.349 7.875-8.572 16.158-33.77 10.308-42.627" fill="#E46C79"/><path d="M195.772 100.755h-.001c-9.602 0-16.311-2.751-19.943-8.176-9.141-13.65.498-33.808 8.462-41.256.837-.783 2.783-2.6 1.162-10.932-2.477-12.729.67-30.022 13.43-37.91C201.544.835 204.555 0 207.832 0c19.68 0 40.522 31.213 40.731 31.53 9.459 14.321-1.82 44.595-11.289 54.901-7.871 8.569-27.814 14.324-41.502 14.324zm-3.657-20.293c.72.144 1.892.293 3.656.293 10.417.002 24.056-4.893 26.774-7.854 6.105-6.644 11.354-25.825 9.275-30.432-7.74-11.685-18.836-21.027-23.278-22.323-3.368 3.088-4.554 10.795-3.458 16.427.923 4.75 3.737 19.207-7.138 29.361-3.177 2.971-6.305 11.153-5.831 14.528" fill="#3B3C3A"/><path d="M281.722 47.767c13.897-7.255 39.1-14.377 44.186-5.311 5.088 9.067.066 21.643-5.557 28.35-5.627 6.708-8.301 12.953-6.135 19.633 2.164 6.68 1.331 23.601-7.646 28.217-8.977 4.617-33.744-17.288-36.48-28.604-2.737-11.317 2.228-37.371 11.632-42.285" fill="#E46C79"/><path d="M303.682 129.285c-15.613 0-39.871-22.653-43.312-36.882-3.289-13.605 1.509-45.552 16.721-53.5 10.214-5.332 25.944-10.712 38.067-10.712 11.748 0 17.073 5.097 19.471 9.373 7.339 13.077 1.716 29.729-6.615 39.667-5.458 6.506-4.636 9.041-4.285 10.122 3.361 10.378 2.029 32.681-12.587 40.196-2.239 1.152-4.75 1.736-7.46 1.736zm-17.242-72.7c-4.05 3.024-8.751 22.347-6.631 31.116.372 1.541 3.401 6.754 10.386 13.052 5.743 5.177 10.403 7.609 12.566 8.313 2.055-2.715 3.285-11.398 1.942-15.546-4.589-14.152 4.877-25.433 7.987-29.141 3.671-4.378 6.361-11.66 4.945-15.997-.505-.096-1.302-.191-2.477-.191-8.18 0-20.874 4.316-28.718 8.394" fill="#3B3C3A"/><path d="M261.205 37.977c-2.764-8.468-17.528-14.322-22.85-4.682-5.32 9.641-15.283 41.343-13.012 51.721 2.272 10.381 17.457 11.855 21.692 6.422 2.863 8.084 16.498 12.83 21.461 5.953 4.961-6.878 15.543-43.723 15.064-52.822-.478-9.099-16.066-13.129-22.355-6.592" fill="#E46C79"/><path d="M261.292 110.701h-.001c-6.321 0-12.601-2.584-17.25-6.684a24.73 24.73 0 0 1-5.081.515c-11.53 0-21.147-7.146-23.385-17.377-3.137-14.33 8.475-48.636 14.025-58.692 3.565-6.455 9.897-10.158 17.373-10.158 6.459 0 12.825 2.723 17.472 7.031a25.09 25.09 0 0 1 5.419-.578c11.142 0 23.048 7.214 23.682 19.285.589 11.199-10.651 50.478-16.94 59.199-3.422 4.74-9.003 7.459-15.314 7.459zm-14.258-29.263a10.002 10.002 0 0 1 9.427 6.661c.347.892 2.575 2.388 4.44 2.581 3.946-7.304 12.421-37.214 12.676-44.885-.628-.429-2.011-1.037-3.713-1.037-.845 0-1.368.165-1.546.249a10 10 0 0 1-16.62-3.927c-.365-1.009-2.809-2.75-4.685-2.775-5.24 9.666-13.306 38.15-11.901 44.573.207.948 2.203 1.654 3.848 1.654.394 0 .704-.038.919-.079a9.999 9.999 0 0 1 7.155-3.015" fill="#3B3C3A"/></svg>