<svg xmlns="http://www.w3.org/2000/svg" width="438.569" height="433.063" viewBox="0, 0, 438.569, 433.063"><path d="M418.321 406.329c0 14.766-91.814 26.734-205.074 26.734-113.26 0-205.076-11.968-205.076-26.734 0-14.769 91.816-26.74 205.076-26.74 113.26 0 205.074 11.971 205.074 26.74" fill="#D6D5D0"/><path d="M395.257 159.973c-23.95-15.94-81.823-42.547-174.6-42.547-92.775 0-150.65 26.607-174.598 42.547-23.949 15.938-6.443 53.436 16.176 39.537 22.619-13.901 94.072-35.076 158.422-35.076 64.352 0 135.803 21.175 158.422 35.076 22.621 13.899 40.127-23.599 16.178-39.537" fill="#C2D54A"/><path d="M388.884 217.541h-.003c-6.044 0-11.985-1.767-17.656-5.252-18.658-11.465-86.813-32.855-150.568-32.855-63.755 0-131.91 21.39-150.568 32.855-5.672 3.485-11.613 5.252-17.657 5.252-14.087 0-26.593-10.057-31.12-25.026-5.212-17.24 1.24-34.916 16.437-45.029 15.881-10.571 76.006-45.06 182.908-45.06 106.899 0 167.028 34.489 182.91 45.06 15.198 10.114 21.651 27.791 16.437 45.031-4.526 14.968-17.032 25.024-31.12 25.024zm-168.227-85.115c-98.484 0-152.177 30.642-166.286 40.034-4.587 3.052-5.081 7.015-4.687 9.803.457 3.24 2.173 5.093 2.78 5.285.185-.007.873-.177 1.918-.82 24.803-15.242 98.289-37.294 166.275-37.294s141.472 22.052 166.275 37.294c1.045.643 1.734.813 1.952.813h.005c.571-.184 2.286-2.034 2.744-5.272.395-2.79-.098-6.755-4.687-9.808-14.111-9.392-67.807-40.035-166.289-40.035" fill="#3B3C3A"/><path d="M252.182 45.267c0 16.863-13.671 30.534-30.535 30.534-16.863 0-30.533-13.671-30.533-30.534 0-16.864 13.67-30.535 30.533-30.535 16.864 0 30.535 13.671 30.535 30.535" fill="#70B7D3"/><path d="M221.647 90.533c-24.96 0-45.265-20.306-45.265-45.266C176.382 20.307 196.687 0 221.647 0c24.961 0 45.268 20.307 45.268 45.267 0 24.96-20.307 45.266-45.268 45.266zm0-61.069c-8.713 0-15.8 7.09-15.8 15.803 0 8.712 7.087 15.801 15.8 15.801 8.714 0 15.803-7.089 15.803-15.801 0-8.713-7.089-15.803-15.803-15.803" fill="#3B3C3A"/><path d="M268.847 352.189c0 29.025-23.53 52.551-52.551 52.551-29.022 0-52.549-23.526-52.549-52.551 0-29.022 23.527-52.55 52.549-52.55 29.021 0 52.551 23.528 52.551 52.55" fill="#F6D729"/><path d="M216.296 419.74c-37.246 0-67.549-30.303-67.549-67.551 0-37.246 30.303-67.55 67.549-67.55 37.248 0 67.551 30.304 67.551 67.55 0 37.248-30.303 67.551-67.551 67.551zm0-105.101c-20.704 0-37.549 16.846-37.549 37.55 0 20.706 16.845 37.551 37.549 37.551 20.705 0 37.551-16.845 37.551-37.551 0-20.704-16.846-37.55-37.551-37.55M80.798 181.603h20v106.145h-20z" fill="#3B3C3A"/><path d="M206.296 164.47h20v137.503h-20zm130.886 17.133h20v120.369h-20z" fill="#3B3C3A"/><path d="M310.956 243.646c-.258 20.223 10.033 41.366 23.797 48.886 15.906 8.689 37.047 12.26 54.465 5.706 11.259-4.238 21.074-1.242 19.093 9.708-4.177 23.098-45.464 61.607-100.574 32.602-53.303-28.056-29.697-81.356-22.295-93 9.692-15.244 25.731-20.961 25.514-3.902" fill="#70B7D3"/><path d="M304.082 233.221c4.087-.001 6.967 3.129 6.874 10.425-.258 20.224 10.033 41.367 23.797 48.885 10.261 5.607 22.705 9.083 34.92 9.083 6.717 0 13.364-1.051 19.545-3.377 3.25-1.222 6.381-1.844 9.142-1.844 6.802 0 11.36 3.764 9.951 11.552-3.114 17.217-26.846 42.996-61.55 42.996-11.856 0-24.991-3.007-39.024-10.393-53.303-28.055-29.697-81.356-22.295-93 5.546-8.723 13.172-14.326 18.64-14.327zm.001-30h-.006c-16.283.003-32.714 10.556-43.951 28.233-1.918 3.016-8.504 14.113-12.737 30.274-4.553 17.384-4.773 34.049-.654 49.535 4.386 16.486 16.106 39.556 47.029 55.832 17.458 9.187 35.288 13.846 52.997 13.846 22.285 0 44.11-7.702 61.454-21.688 15.85-12.783 26.645-29.537 29.618-45.969 2.228-12.32-.645-24.013-8.09-32.925-7.522-9.006-18.668-13.966-31.383-13.966-6.437 0-13.068 1.268-19.709 3.766-2.564.965-5.585 1.455-8.979 1.455-6.732 0-14.186-1.957-20.463-5.371-2.56-1.734-8.395-11.285-8.255-22.216.195-15.394-5.959-24.899-11.155-30.163-6.778-6.863-15.91-10.643-25.716-10.643" fill="#3B3C3A"/><path d="M69.454 333.818s10.684 32.298 21.344 32.298c10.658 0 21.343-32.298 21.343-32.298.001 0 40.284-.522 39.438-10.44-.846-9.918-25.09-30.277-25.09-30.277s9.902-37.583 0-42.803c-9.902-5.221-35.691 23.142-35.691 23.142s-25.789-28.363-35.694-23.142c-9.902 5.22 0 42.803 0 42.803s-24.242 20.359-25.09 30.277c-.845 9.918 39.44 10.44 39.44 10.44" fill="#E46C79"/><path d="M123.672 249.656c1.034.001 1.983.202 2.817.642 9.902 5.22 0 42.803 0 42.803s24.244 20.359 25.09 30.277c.846 9.918-39.438 10.44-39.438 10.44.001 0-10.685 32.298-21.343 32.298-10.66 0-21.344-32.298-21.344-32.298s-40.285-.522-39.44-10.44c.848-9.918 25.09-30.277 25.09-30.277s-9.902-37.583 0-42.803c.835-.44 1.783-.642 2.818-.642 11.251 0 32.876 23.784 32.876 23.784s21.626-23.787 32.874-23.784zm-.002-30c-10.511 0-20.89 4.111-32.873 13.162-11.984-9.051-22.364-13.162-32.875-13.162-5.988 0-11.642 1.379-16.807 4.103-6.539 3.447-17.835 12.211-20.012 32.178-.67 6.15-.503 13.146.513 21.387.221 1.797.473 3.565.74 5.277-.321.324-.643.652-.967.984C7.495 297.846 1.136 308.983.124 320.823c-.803 9.416 2.31 18.522 8.767 25.646 8.082 8.915 20.05 13.716 39.96 16.012.132.272.265.542.4.813 3.392 6.843 6.854 12.364 10.583 16.879 10.883 13.178 22.845 15.943 30.964 15.943s20.081-2.765 30.963-15.943c3.728-4.515 7.19-10.036 10.583-16.879.134-.271.268-.541.399-.813 19.909-2.296 31.877-7.097 39.959-16.012 6.457-7.124 9.57-16.23 8.768-25.64-1.009-11.843-7.369-22.982-21.266-37.244-.323-.332-.646-.66-.967-.985.268-1.712.52-3.479.74-5.276 1.016-8.241 1.184-15.237.513-21.387-2.177-19.967-13.473-28.731-20.012-32.178-5.088-2.683-10.897-4.102-16.799-4.103h-.009" fill="#3B3C3A"/></svg>