<svg xmlns="http://www.w3.org/2000/svg" width="413.939" height="444.09" viewBox="0, 0, 413.939, 444.09"><path d="M410.149 417.357c0 14.765-91.815 26.734-205.075 26.734C91.814 444.091 0 432.122 0 417.357c0-14.77 91.814-26.741 205.074-26.741 113.26 0 205.075 11.971 205.075 26.741" fill="#D6D5D0"/><path d="M22.988 296.708v66.841c0 15.92 41.714 38.576 187.976 38.576 146.261 0 187.975-22.656 187.975-38.576v-66.841H22.988" fill="#FFFFFE"/><path d="M210.964 417.125c-66.916 0-118.29-4.651-152.701-13.823-33.36-8.894-50.275-22.27-50.275-39.753v-66.841c0-8.284 6.716-15 15-15h375.951c8.284 0 15 6.716 15 15v66.841c0 17.483-16.915 30.859-50.275 39.753-34.41 9.172-85.785 13.823-152.7 13.823zM37.988 361.989c1.791 1.918 9.777 8.614 37.949 14.712 31.949 6.917 77.379 10.424 135.027 10.424 57.647 0 103.077-3.507 135.026-10.424 28.172-6.098 36.158-12.794 37.949-14.712v-50.281H37.988v50.281" fill="#3B3C3A"/><path d="M378.14 179.548H43.787c-6.323 30.069-20.799 64.157-20.799 117.16 0 53.002 121.476 55.938 187.976 55.938s187.975-2.936 187.975-55.938c0-53.003-14.475-87.091-20.799-117.16" fill="#C2D54A"/><path d="M210.964 367.646c-36.224 0-82.795-.95-121.729-8.358-23.279-4.429-40.991-10.559-54.149-18.743-22.397-13.927-27.098-31.526-27.098-43.837 0-40.991 8.326-71.562 15.017-96.125 2.325-8.537 4.521-16.6 6.103-24.122a15.002 15.002 0 0 1 14.679-11.913H378.14a15.002 15.002 0 0 1 14.679 11.913c1.582 7.522 3.778 15.585 6.103 24.122 6.691 24.563 15.017 55.134 15.017 96.125 0 12.311-4.701 29.91-27.097 43.837-13.159 8.184-30.871 14.314-54.15 18.743-38.934 7.408-85.505 8.358-121.728 8.358zm-155.3-173.098c-1.159 4.54-2.417 9.16-3.713 13.919-6.545 24.028-13.963 51.262-13.963 88.241 0 19.396 35.621 29.069 56.853 33.109 36.472 6.938 81.216 7.829 116.123 7.829 34.906 0 79.65-.891 116.122-7.829 21.232-4.04 56.853-13.713 56.853-33.109 0-36.979-7.418-64.213-13.963-88.241-1.296-4.759-2.554-9.379-3.713-13.919H55.664" fill="#3B3C3A"/><path d="M210.964 133.617c-106.298 0-167.5 1-167.5 52s99.855 48 118.109 48c18.253 0 32.211 14 49.391 14 17.179 0 31.137-14 49.39-14 18.254 0 118.11 3 118.11-48s-61.203-52-167.5-52" fill="#FFFFFE"/><path d="M210.964 262.617c-11.628 0-21.388-4.315-29.999-8.122-7.134-3.155-13.295-5.878-19.392-5.878-.791 0-1.74.006-2.831.012-1.551.011-3.376.021-5.435.021-28.337 0-51.231-2.422-69.989-7.408-45.338-12.049-54.854-36.899-54.854-55.625 0-16.531 5.287-30.104 15.713-40.343 9.125-8.961 22.14-15.304 39.789-19.395 29.156-6.756 69.213-7.262 126.998-7.262 57.784 0 97.841.506 126.998 7.262 17.648 4.091 30.663 10.434 39.788 19.395 10.426 10.239 15.714 23.812 15.714 40.343 0 18.727-9.518 43.577-54.857 55.626-18.756 4.985-41.648 7.407-69.983 7.407h-.003c-2.058 0-3.883-.01-5.434-.021-1.093-.006-2.042-.012-2.833-.012-6.097 0-12.258 2.723-19.392 5.878-8.611 3.807-18.37 8.122-29.998 8.122zm-49.391-44c12.433 0 22.575 4.484 31.522 8.441 6.748 2.982 12.577 5.559 17.869 5.559 5.291 0 11.12-2.577 17.868-5.559 8.947-3.957 19.09-8.441 31.522-8.441.842 0 1.854.006 3.017.012a705.4 705.4 0 0 0 5.249.021c25.344 0 46.299-2.153 62.282-6.401 32.562-8.652 32.562-22.185 32.562-26.632 0-14.22-5.4-24.284-32.275-30.513-27.996-6.487-72.796-6.487-120.225-6.487-47.43 0-92.23 0-120.226 6.487-26.875 6.229-32.274 16.293-32.274 30.513 0 29.814 66.327 33.033 94.843 33.033 1.99 0 3.752-.01 5.251-.021 1.162-.006 2.172-.012 3.015-.012" fill="#3B3C3A"/><path d="M111.964 181.334h198-198" fill="#FFFFFE"/><path d="M309.964 196.334h-198c-8.285 0-15-6.716-15-15 0-8.284 6.715-15 15-15h198c8.284 0 15 6.716 15 15 0 8.284-6.716 15-15 15" fill="#3B3C3A"/><path d="M128.559 179.668h163.333s27.186-26.594 24.519-67.927c-2.756-42.708 2.148-60.073 16.971-77.407L209.874 15s-31.779 23.334-26.88 63.334c4.898 40-67.088 47.509-54.435 101.334" fill="#FFFFFE"/><path d="M291.892 194.667H128.559a14.998 14.998 0 0 1-14.601-11.566c-9.03-38.409 15.678-59.306 33.719-74.562 15.06-12.736 21.544-19.27 20.428-28.382-5.898-48.163 31.304-76.083 32.891-77.248A14.997 14.997 0 0 1 212.194.181l123.509 19.334a15.001 15.001 0 0 1 9.08 24.568c-11.386 13.313-16.023 26.102-13.403 66.692 3.075 47.658-27.688 78.333-28.998 79.615a15.001 15.001 0 0 1-10.49 4.277zm-149.701-30h142.884c6.268-8.027 18-26.654 16.367-51.96-1.972-30.56-.154-50.621 7.063-67.085l-94.001-14.715c-6.93 6.945-19.404 22.883-16.621 45.604 3.202 26.151-15.669 42.11-30.834 54.933-14.333 12.123-23.663 20.71-24.858 33.223" fill="#3B3C3A"/></svg>