<svg xmlns="http://www.w3.org/2000/svg" width="419.859" height="412.667" viewBox="0, 0, 419.859, 412.667"><path d="M410.149 385.932c0 14.765-91.815 26.735-205.075 26.735C91.814 412.667 0 400.697 0 385.932c0-14.77 91.814-26.741 205.074-26.741 113.26 0 205.075 11.971 205.075 26.741" fill="#D6D5D0"/><path d="M105.492 285.022c0 19.018-5.68 69.159 67.572 88.338v-88.338h-67.572" fill="#F6D729"/><path d="M173.063 388.36c-1.269 0-2.545-.161-3.799-.489-80.126-20.979-79.174-77.833-78.815-99.237.021-1.305.043-2.514.043-3.612 0-8.284 6.716-15 15-15h67.572c8.284 0 15 6.716 15 15v88.338a14.998 14.998 0 0 1-15.001 15zm-52.556-88.338c.791 17.172 6.266 38.643 37.557 52.405v-52.405h-37.557" fill="#3B3C3A"/><path d="M316.435 285.022c0 19.018 5.68 69.159-67.571 88.338v-88.338h67.571" fill="#F6D729"/><path d="M248.865 388.36a14.998 14.998 0 0 1-15.001-15v-88.338c0-8.284 6.716-15 15-15h67.571c8.284 0 15 6.716 15 15 0 1.098.022 2.307.043 3.612.358 21.404 1.311 78.258-78.814 99.237a15.012 15.012 0 0 1-3.799.489zm14.999-88.338v52.405c31.29-13.762 36.765-35.233 37.556-52.405h-37.556" fill="#3B3C3A"/><path d="M400.41 35.562c-11.413-.78-68.194-20.561-92.599-20.561-23.198 20.799-58.198 25.943-96.848 25.943-38.649 0-73.649-5.144-96.847-25.943-24.405 0-81.186 19.781-92.599 20.561-11.412.78.797 101.58 17.797 99.287 17-2.293 41-4.707 66.178-8.707v158.88c36.322 9.018 54.322 42.018 59.977 74.77 3.318 19.212 17.845 18.897 45.494 18.897 27.65 0 42.177.315 45.495-18.897 5.655-32.752 23.655-65.752 59.977-74.77v-158.88c25.178 4 49.178 6.414 66.178 8.707 17 2.293 29.21-98.507 17.797-99.287" fill="#FFFFFE"/><path d="M213.553 393.69h-5.179c-13.501 0-25.161 0-34.8-3.267-12.713-4.309-20.412-13.756-22.886-28.079-2.747-15.909-13.003-53.874-48.81-62.763a15 15 0 0 1-11.386-14.559V143.519c-10.693 1.472-20.869 2.7-30.23 3.83-6.876.83-13.371 1.613-18.943 2.365a19.33 19.33 0 0 1-2.576.173c-17.404 0-24.773-20.369-29.248-38.115-3.96-15.701-6.767-35.617-7.326-51.977-.275-8.054.017-14.723.868-19.821 2.769-16.601 13.13-19.082 17.457-19.377 3.015-.265 15.006-3.594 24.639-6.267C68.134 7.946 96.76.001 114.116.001a15 15 0 0 1 10.014 3.832c17.055 15.292 43.836 22.111 86.833 22.111s69.779-6.819 86.834-22.111A14.998 14.998 0 0 1 307.811.001c17.356 0 45.981 7.945 68.982 14.329 9.634 2.673 21.624 6.002 24.666 6.268 4.301.294 14.665 2.776 17.433 19.383.851 5.102 1.142 11.775.866 19.834-.56 16.359-3.368 36.273-7.327 51.968-4.475 17.74-11.847 38.102-29.245 38.104h-.004c-.857 0-1.723-.058-2.574-.173-5.572-.752-12.066-1.535-18.943-2.365-9.361-1.13-19.537-2.358-30.23-3.83v141.503a15 15 0 0 1-11.386 14.559c-35.807 8.889-46.063 46.854-48.81 62.763-2.474 14.324-10.173 23.771-22.884 28.079-9.638 3.267-21.299 3.267-34.802 3.267zm-2.59-30.001l2.59.001c9.94 0 20.218 0 25.172-1.679 1.598-.542 2.26-.766 2.951-4.771 7.09-41.061 28.598-70.704 59.759-83.12V126.142a15 15 0 0 1 17.354-14.815c16.494 2.621 32.42 4.543 46.469 6.238 4.62.558 9.07 1.094 13.226 1.62 2.43-5.309 6.137-16.857 8.883-35.279 2.384-16.006 2.732-28.341 2.345-35.085-5.142-1.216-11.879-3.069-20.942-5.584-16.838-4.674-41.31-11.465-55.889-12.945-29.179 22.628-69.501 25.652-101.918 25.652s-72.738-3.024-101.917-25.652c-14.58 1.48-39.051 8.271-55.889 12.945-9.063 2.515-15.799 4.368-20.943 5.583-.384 6.745-.038 19.081 2.348 35.085 2.745 18.423 6.452 29.97 8.883 35.28 4.155-.526 8.604-1.062 13.224-1.62 14.049-1.695 29.975-3.617 46.469-6.238a15 15 0 0 1 17.354 14.815V274.12c31.161 12.416 52.669 42.059 59.759 83.12.691 4.004 1.353 4.228 2.952 4.77 4.955 1.68 15.232 1.68 25.171 1.68l2.589-.001" fill="#3B3C3A"/><path d="M210.963 40.944c-38.649 0-73.649-5.144-96.847-25.943 0 44.539 41.497 76.328 96.847 76.328 55.351 0 96.848-31.789 96.848-76.328-23.198 20.799-58.198 25.943-96.848 25.943" fill="#F6D729"/><path d="M210.963 106.329c-30.233 0-58.083-8.752-78.416-24.643-21.558-16.848-33.431-40.53-33.431-66.685A15 15 0 0 1 124.13 3.833c17.055 15.292 43.836 22.111 86.833 22.111s69.779-6.819 86.834-22.111a15 15 0 0 1 25.014 11.168c0 26.155-11.873 49.837-33.431 66.685-20.333 15.891-48.183 24.643-78.417 24.643zm-71.348-59.876c13.665 18.311 39.592 29.876 71.348 29.876 31.757 0 57.684-11.565 71.349-29.876-23.43 8.084-49.228 9.491-71.349 9.491-22.12 0-47.918-1.407-71.348-9.491m66.322 300.524a8.103 8.103 0 0 1-8.103 8.102 8.103 8.103 0 1 1 8.103-8.102m26.26 0a8.103 8.103 0 0 1-8.104 8.102 8.103 8.103 0 1 1 0-16.205 8.103 8.103 0 0 1 8.104 8.103" fill="#3B3C3A"/><path d="M105.499 218.475a14.965 14.965 0 0 1-11.39-5.231c-5.396-6.287-4.673-15.757 1.614-21.152L229.978 76.874c6.286-5.395 15.757-4.672 21.151 1.614 5.396 6.286 4.673 15.757-1.614 21.152L115.26 214.857a14.936 14.936 0 0 1-9.761 3.618" fill="#3B3C3A"/><path d="M199.795 150.741c3.905 3.906 3.905 10.237 0 14.143l-12.257 12.257c-3.907 3.905-10.237 3.905-14.143 0l-36.151-36.152a9.998 9.998 0 0 1 0-14.142l12.257-12.257c3.906-3.905 10.236-3.905 14.142 0l36.152 36.151" fill="#FFFFFE"/><path d="M180.466 195.07c-6.676 0-12.954-2.6-17.676-7.321l-36.153-36.153c-9.746-9.748-9.746-25.608-.001-35.355l12.258-12.258c4.724-4.722 11.001-7.322 17.678-7.322 6.677 0 12.954 2.6 17.677 7.321l36.152 36.153c9.746 9.748 9.746 25.607.001 35.354l-12.258 12.258c-4.724 4.723-11.001 7.323-17.678 7.323zm-29.081-61.153l29.081 29.082 5.187-5.186-29.081-29.081-5.187 5.185" fill="#3B3C3A"/></svg>