<svg xmlns="http://www.w3.org/2000/svg" width="417.491" height="361.464" viewBox="0, 0, 417.491, 361.464"><path d="M410.15 334.731c0 14.765-91.815 26.734-205.075 26.734C91.815 361.465 0 349.496 0 334.731c0-14.77 91.815-26.741 205.075-26.741 113.26 0 205.075 11.971 205.075 26.741" fill="#D6D5D0"/><path d="M183.783 18.917c-34.279 9.115-162.658 98.758-162.352 134.435.307 35.677 74.457 63.383 172.891 63.383 118.476 0 162.461-15.41 163.162-69.119.563-42.957-27.932-121.012-35.803-127.092-7.873-6.081-114.31-7.878-137.898-1.607" fill="#FFFFFE"/><path d="M194.322 231.734c-49.174 0-94.785-6.831-128.433-19.238-48.878-18.023-59.311-42.041-59.457-59.016-.108-12.616 7.644-26.942 24.398-45.081C43.076 95.141 60.245 79.89 80.48 64.292c32.906-25.36 77.632-54.071 99.448-59.872C194.391.575 227.662 0 246.207 0c18.083 0 35.885.534 50.128 1.502 25.658 1.746 30.653 4.165 34.515 7.151 3.66 2.825 7.375 7.711 13.624 22.371 4.141 9.717 8.611 22.051 12.584 34.73 5.915 18.871 15.784 54.627 15.425 82.058-.435 33.363-15.727 55.734-46.747 68.393-26.677 10.886-65.979 15.529-131.414 15.529zM246.207 30c-33.758 0-52.65 1.84-58.57 3.413-13.149 3.497-50.8 25.339-88.699 54.529-51.008 39.29-62.502 60.832-62.508 65.281.088 10.171 15.353 22.098 39.838 31.125 30.407 11.213 72.333 17.387 118.054 17.387 124.649 0 147.693-18.29 148.163-54.316.212-16.149-4.501-41.317-12.929-69.049-6.928-22.798-13.806-38.913-17.129-45.079-8.803-1.535-33.419-3.291-66.22-3.291" fill="#3B3C3A"/><path d="M321.681 20.524c-7.355-5.681-100.74-7.623-132.218-2.739 15.396 40.209 114.062 49.979 132.218 2.739" fill="#70B7D3"/><path d="M260.668 67.115h-.008c-32.93-.003-73.64-13.762-85.205-43.965a14.997 14.997 0 0 1 11.708-20.187C203.763.387 231.286.001 246.215.001c18.082 0 35.881.534 50.123 1.503 25.655 1.744 30.649 4.163 34.512 7.148a15 15 0 0 1 4.833 17.253c-9.918 25.802-37.964 41.21-75.015 41.21zm-35.872-36.824c10.161 4.244 22.818 6.823 35.866 6.824h.006c10.149 0 21.334-1.711 30.424-5.882-11.751-.717-27.113-1.232-44.877-1.232-7.543 0-14.753.101-21.419.29" fill="#3B3C3A"/><path d="M21.502 155.031c2.58 34.864 75.937 61.703 172.82 61.703 112.486 0 157.816-13.896 162.715-61.267-84.717 17.449-252.326 14.479-335.535-.436" fill="#70B7D3"/><path d="M194.322 231.734c-48.34 0-93.389-6.627-126.851-18.663-48.157-17.32-59.713-40.52-60.928-56.931a15 15 0 0 1 17.605-15.872c42.452 7.608 107.653 12.151 174.413 12.151 63.788 0 118.994-4.134 155.449-11.643a15.004 15.004 0 0 1 13.089 3.567 15.004 15.004 0 0 1 4.859 12.667c-3.079 29.776-19.708 49.717-50.836 60.963-26.344 9.518-65.45 13.761-126.8 13.761zM56.174 175.133c24.752 14.114 72.101 26.601 138.148 26.601 57.717 0 93.679-3.693 116.606-11.977 10.932-3.948 18.597-8.786 23.634-15.248-36.403 5.138-83.526 7.91-136.001 7.91-51.214 0-101.727-2.643-142.387-7.286m109.978-97.587a14.961 14.961 0 0 1-11.529-5.396l-28.856-34.615c-5.304-6.364-4.446-15.823 1.917-21.127 6.365-5.305 15.822-4.446 21.126 1.918l28.856 34.616c5.304 6.363 4.446 15.822-1.917 21.127a14.94 14.94 0 0 1-9.597 3.477m-37.316 25.093a14.965 14.965 0 0 1-11.53-5.396L88.449 62.626c-5.305-6.364-4.446-15.821 1.917-21.126 6.362-5.305 15.821-4.446 21.126 1.917l28.857 34.617c5.305 6.364 4.447 15.822-1.917 21.126a14.937 14.937 0 0 1-9.596 3.479" fill="#3B3C3A"/><path d="M228.781 119.784C194.502 128.9 66.123 218.541 66.429 254.219c.307 35.677 74.457 63.384 172.891 63.384 118.476 0 162.461-15.41 163.162-69.119.563-42.958-27.932-121.013-35.803-127.093-7.873-6.081-114.31-7.879-137.898-1.607" fill="#FFFFFE"/><path d="M239.32 332.603c-49.174 0-94.785-6.833-128.433-19.24-48.878-18.023-59.311-42.041-59.457-59.015-.108-12.618 7.644-26.944 24.398-45.082 12.246-13.259 29.415-28.51 49.65-44.106 32.906-25.362 77.632-54.072 99.448-59.872 14.463-3.846 47.734-4.42 66.279-4.42 18.083 0 35.885.533 50.128 1.502 25.658 1.744 30.653 4.165 34.515 7.15 3.659 2.825 7.375 7.711 13.624 22.371 4.141 9.717 8.611 22.051 12.584 34.731 5.915 18.871 15.784 54.626 15.425 82.057-.435 33.362-15.726 55.735-46.747 68.393-26.677 10.885-65.978 15.531-131.414 15.531zm51.885-201.735c-33.758 0-52.65 1.839-58.57 3.412-13.149 3.496-50.8 25.34-88.699 54.531-51.008 39.289-62.502 60.83-62.508 65.279.088 10.17 15.353 22.097 39.838 31.125 30.408 11.212 72.333 17.388 118.054 17.388 124.649 0 147.693-18.292 148.163-54.316.212-16.151-4.501-41.319-12.929-69.051-6.928-22.797-13.806-38.913-17.128-45.078-8.804-1.535-33.419-3.29-66.221-3.29" fill="#3B3C3A"/><path d="M366.679 121.391c-7.355-5.682-100.74-7.623-132.218-2.74 15.396 40.211 114.062 49.979 132.218 2.74" fill="#70B7D3"/><path d="M305.666 167.981h-.003c-32.935-.002-73.645-13.76-85.21-43.965a15 15 0 0 1 11.708-20.186c16.6-2.577 44.123-2.961 59.052-2.961 18.082 0 35.881.532 50.123 1.501 25.655 1.745 30.649 4.165 34.512 7.149a14.998 14.998 0 0 1 4.833 17.252c-9.918 25.804-37.964 41.21-75.015 41.21zm-35.871-36.823c10.16 4.244 22.817 6.822 35.865 6.823h.006c10.149 0 21.334-1.71 30.424-5.881-11.751-.717-27.113-1.231-44.877-1.231-7.542 0-14.753.099-21.418.289" fill="#3B3C3A"/><path d="M66.5 255.9c2.58 34.862 75.937 61.703 172.82 61.703 112.486 0 157.816-13.897 162.715-61.268-84.717 17.449-252.326 14.48-335.535-.435" fill="#70B7D3"/><path d="M239.32 332.603c-48.34 0-93.389-6.628-126.851-18.663-48.157-17.322-59.713-40.521-60.928-56.933a15.002 15.002 0 0 1 17.605-15.872c42.452 7.609 107.653 12.152 174.413 12.152 63.788 0 118.994-4.135 155.449-11.643a15.001 15.001 0 0 1 17.948 16.234c-3.079 29.776-19.708 49.716-50.836 60.962-26.344 9.519-65.45 13.763-126.8 13.763zm-138.148-56.602c24.753 14.113 72.101 26.602 138.148 26.602 57.717 0 93.679-3.695 116.606-11.978 10.932-3.949 18.597-8.787 23.634-15.248-36.403 5.137-83.526 7.91-136.001 7.91-51.214 0-101.727-2.642-142.387-7.286m109.978-97.587a14.972 14.972 0 0 1-11.529-5.395l-28.856-34.617c-5.304-6.363-4.446-15.822 1.917-21.127 6.364-5.305 15.822-4.445 21.126 1.918l28.856 34.617c5.304 6.362 4.446 15.821-1.917 21.126a14.946 14.946 0 0 1-9.597 3.478m-37.316 25.091a14.97 14.97 0 0 1-11.53-5.394l-28.857-34.618c-5.305-6.364-4.446-15.822 1.917-21.126 6.361-5.306 15.821-4.447 21.126 1.917l28.857 34.616c5.305 6.364 4.447 15.823-1.917 21.126a14.931 14.931 0 0 1-9.596 3.479" fill="#3B3C3A"/></svg>