<svg xmlns="http://www.w3.org/2000/svg" width="410.149" height="441.756" viewBox="0, 0, 410.149, 441.756"><path d="M410.149 415.022c0 14.766-91.815 26.734-205.075 26.734C91.814 441.756 0 429.788 0 415.022c0-14.77 91.814-26.74 205.074-26.74 113.26 0 205.075 11.97 205.075 26.74" fill="#D6D5D0"/><path d="M40.668 90.586c7.13 28.02 19.808 87.991 23.986 101.229 4.178 13.236-52.371 34.943-31.598 84.928 15.016 36.128 50.617 48.705 112.733 32.199 81.816-21.74 108.109-69.897 115.287-92.865 7.175-22.967 4.039-53.95-9.905-102.567-13.941-48.617-17.972-68.301-26.464-89.338-13.51-33.47-192.555 32.955-184.039 66.414" fill="#C2D54A"/><path d="M98.034 331.1h-.005c-48.456-.004-69.61-26.433-78.824-48.602-17.726-42.65 9.4-69.925 23.973-84.581 1.904-1.914 4.29-4.313 5.869-6.106-2.66-9.844-6.748-27.842-11.371-48.188-4.132-18.189-8.404-36.998-11.545-49.337-1.486-5.84-1.503-15.057 6.86-25.815C58.18 36.066 154.699 0 201.106 0c24.811 0 34.093 10.092 37.51 18.557 6.027 14.93 9.77 28.632 15.971 51.332 3.02 11.052 6.443 23.582 11.003 39.486 14.942 52.096 17.874 85.346 9.803 111.174-3.354 10.735-12.151 31.897-33.386 53.047-22.984 22.895-54.061 39.664-92.366 49.842-19.13 5.083-36.493 7.662-51.607 7.662zM55.586 88.395c3.189 12.682 7.333 30.921 11.345 48.582 4.869 21.432 9.904 43.594 12.028 50.322 4.117 13.045-5.352 22.567-14.509 31.774-16.154 16.243-26.867 29.474-17.542 51.912 8.538 20.543 24.781 30.113 51.12 30.115h.006c12.514 0 27.284-2.24 43.902-6.656 33.15-8.809 59.695-22.973 78.9-42.102 16.665-16.599 23.394-32.651 25.922-40.74 6.11-19.551 3.024-48.529-10.005-93.957-4.613-16.086-8.212-29.264-11.105-39.851-5.694-20.842-9.214-33.73-14.263-46.534-1.238-.463-4.247-1.26-10.279-1.26-20.654 0-55.506 9.092-88.788 23.165-37.745 15.96-53.967 30.035-56.732 35.23" fill="#3B3C3A"/><path d="M36.736 228.544c-7.807 12.294-12.108 27.919-3.68 48.199 12.629 30.388 39.832 44.107 85.117 37.88-12.767-44.166-49.646-74.652-81.437-86.079" fill="#FFFFFE"/><path d="M98.039 331.094h-.008c-48.46-.004-69.614-26.427-78.826-48.596-9.056-21.789-7.417-42.648 4.869-61.994a15.002 15.002 0 0 1 17.735-6.076c32.44 11.66 75.677 43.805 90.775 96.029a15.005 15.005 0 0 1-1.833 12.34 15.004 15.004 0 0 1-10.535 6.686c-7.77 1.068-15.233 1.611-22.177 1.611zm-53.744-82.857c-1.701 7.154-.813 14.506 2.613 22.748 8.403 20.223 24.279 29.807 49.907 30.101-12.107-24.16-32.61-42.455-52.52-52.849" fill="#3B3C3A"/><path d="M200.587 286.594c39.805-23.541 55.248-53.744 60.489-70.517 5.158-16.512 4.986-37.167-.698-65.538-46.164 20.026-76.054 75.092-59.791 136.055" fill="#FFFFFE"/><path d="M200.586 301.594a14.998 14.998 0 0 1-14.492-11.135c-8.662-32.468-6.103-64.841 7.4-93.617 12.78-27.236 34.414-48.568 60.915-60.064a14.995 14.995 0 0 1 12.922.469 15.003 15.003 0 0 1 7.755 10.345c6.158 30.737 6.255 53.918.307 72.957-4.52 14.469-20.113 51.125-67.17 78.955a14.986 14.986 0 0 1-7.637 2.09zm48.39-127.113c-23.565 17.787-40.426 48.803-37.633 86.41 23.879-19.535 32.566-40.168 35.415-49.287 3.084-9.875 3.83-21.934 2.218-37.123" fill="#3B3C3A"/><path d="M193.027 165.219c.557 28.908-.77 90.19.281 104.031 1.051 13.842-58.959 22.086-50.123 75.493 6.385 38.599 38.184 58.959 102.424 57.046 84.619-2.519 121.197-43.414 133.42-64.142 12.222-20.729 16.232-51.61 13.736-102.125-2.492-50.514-1.933-70.6-5.406-93.02-5.524-35.668-194.996-11.8-194.332 22.717" fill="#C2D54A"/><path d="M237.499 416.912h-.016c-32.078-.001-56.566-5.568-74.865-17.021-18.885-11.816-30.403-29.549-34.232-52.701-7.539-45.57 25.09-65.946 42.619-76.891 2.291-1.43 5.162-3.222 7.109-4.609-.347-10.192-.226-28.649-.089-49.514.123-18.65.25-37.937.005-50.668-.097-5.014 1.343-12.572 8.747-20.119 23.792-24.256 99.561-35.555 143.277-35.555 17.732 0 32.389 1.584 43.566 4.709 21.243 5.942 27.257 17.235 28.562 25.663 2.466 15.917 2.987 30.119 3.853 53.648.421 11.445.897 24.416 1.712 40.928 2.675 54.127-2.05 87.17-15.797 110.484-5.711 9.686-19.1 28.285-44.598 44.041-27.598 17.051-61.679 26.295-101.297 27.475-2.898.088-5.777.13-8.556.13zm-29.447-250.41c.215 13.073.092 31.768-.027 49.871-.144 21.979-.294 44.706.24 51.741 1.035 13.64-10.354 20.754-21.37 27.632-19.431 12.133-32.878 22.573-28.911 46.547 3.168 19.155 14.856 44.618 79.5 44.619h.011c2.484 0 5.064-.038 7.668-.117 34.285-1.021 63.361-8.761 86.421-23.01 20.009-12.363 30.219-26.456 34.524-33.757 10.407-17.651 14.008-46.569 11.676-93.766-.825-16.701-1.326-30.344-1.729-41.305-.795-21.627-1.286-34.99-3.289-48.628-3.175-2.203-15.066-6.495-42.712-6.495-24.853 0-54.492 3.539-79.284 9.469-28.772 6.883-40.039 14.221-42.718 17.199" fill="#3B3C3A"/><path d="M157.754 298.652c-10.405 10.189-18.153 24.423-14.569 46.091 5.369 32.466 28.727 52.025 74.242 56.282-2.365-45.914-31.324-84.002-59.673-102.373" fill="#FFFFFE"/><path d="M217.428 416.026c-.465 0-.93-.022-1.398-.067-25.198-2.357-45.38-9.304-59.983-20.652-15.003-11.659-24.309-27.848-27.661-48.118-3.851-23.282 2.498-43.218 18.872-59.253a15 15 0 0 1 18.653-1.872c28.927 18.745 63.7 59.899 66.497 114.19a15.007 15.007 0 0 1-4.598 11.598 15.007 15.007 0 0 1-10.382 4.174zm-56.803-96.479c-3.287 6.579-4.098 13.94-2.641 22.745 2.343 14.167 9.445 32.697 41.731 40.681-6.282-26.285-22.074-48.766-39.09-63.426" fill="#3B3C3A"/><path d="M304.06 392.52c44.123-13.851 66.043-39.736 74.969-54.874 8.787-14.901 13.328-35.053 14.26-63.971-49.514 8.975-91.168 55.779-89.229 118.845" fill="#FFFFFE"/><path d="M304.061 407.52a15.004 15.004 0 0 1-14.994-14.54c-1.033-33.589 8.837-64.527 28.543-89.466 18.653-23.608 44.579-39.446 73.004-44.597a14.999 14.999 0 0 1 17.667 15.242c-1.009 31.327-6.198 53.922-16.331 71.107-7.699 13.056-31.239 45.193-83.398 61.565-1.47.461-2.985.689-4.491.689zm72.669-113.131c-26.999 11.945-50.485 38.3-56.339 75.554 27.703-13.577 40.863-31.686 45.717-39.916 5.255-8.911 8.73-20.485 10.622-35.638" fill="#3B3C3A"/></svg>