<?xml version="1.0" encoding="UTF-8"?>
<!DOCTYPE svg PUBLIC "-//W3C//DTD SVG 1.1//EN" "http://www.w3.org/Graphics/SVG/1.1/DTD/svg11.dtd">
<svg version="1.1" xmlns="http://www.w3.org/2000/svg" xmlns:xlink="http://www.w3.org/1999/xlink" x="0" y="0" width="430.765" height="404.708" viewBox="0, 0, 430.765, 404.708">
  <g id="Layer_1" transform="translate(-1745.051, -5550.506)">
    <g id="bear">
      <path d="M2155.201,5928.479 C2155.201,5943.244 2063.386,5955.215 1950.126,5955.215 C1836.866,5955.215 1745.051,5943.244 1745.051,5928.479 C1745.051,5913.71 1836.866,5901.739 1950.126,5901.739 C2063.386,5901.739 2155.201,5913.71 2155.201,5928.479" fill="#D6D5D0"/>
      <path d="M1776.919,5675.714 C1794.2,5711.682 1831.516,5726.514 1876.407,5704.943 C1921.296,5683.374 1930.608,5643.481 1914.364,5609.673 C1898.118,5575.864 1857.229,5552.211 1812.337,5573.781 C1767.448,5595.35 1759.636,5639.747 1776.919,5675.714" fill="#F6D729"/>
      <path d="M1836.353,5729.97 L1836.347,5729.97 C1804.569,5729.968 1777.98,5712.56 1763.398,5682.21 C1752.897,5660.356 1750.598,5636.521 1756.928,5615.098 C1763.986,5591.208 1780.899,5572.244 1805.84,5560.26 C1819.309,5553.788 1833.128,5550.506 1846.909,5550.506 C1880.725,5550.506 1912.51,5571.181 1927.885,5603.177 C1937.906,5624.035 1939.535,5646.647 1932.47,5666.85 C1924.825,5688.708 1907.685,5706.555 1882.903,5718.463 C1867.015,5726.098 1851.353,5729.97 1836.353,5729.97 z M1846.909,5580.506 C1837.661,5580.506 1828.215,5582.792 1818.833,5587.301 C1780.807,5605.573 1777.173,5641.609 1790.439,5669.218 C1799.966,5689.047 1816.27,5699.968 1836.349,5699.97 L1836.353,5699.97 C1846.819,5699.97 1858.108,5697.095 1869.911,5691.423 C1910.098,5672.112 1912.24,5639.888 1900.844,5616.169 C1890.434,5594.505 1869.263,5580.506 1846.909,5580.506" fill="#3B3C3A"/>
      <path d="M1824.044,5644.729 C1829.466,5656.017 1840.671,5660.913 1853.833,5654.589 C1866.995,5648.264 1869.44,5635.975 1864.343,5625.366 C1859.245,5614.758 1848.122,5608.989 1834.962,5615.311 C1821.8,5621.635 1818.62,5633.444 1824.044,5644.729" fill="#FFFFFE"/>
      <path d="M1842.572,5672.382 L1842.57,5672.382 C1828.867,5672.38 1816.887,5664.472 1810.523,5651.224 C1806.103,5642.03 1805.328,5632.114 1808.34,5623.306 C1811.511,5614.033 1818.47,5606.593 1828.466,5601.791 C1834.137,5599.065 1839.923,5597.683 1845.659,5597.683 C1859.45,5597.683 1871.488,5605.604 1877.863,5618.869 C1882.114,5627.718 1882.964,5637.371 1880.254,5646.053 C1877.299,5655.522 1870.222,5663.355 1860.329,5668.108 C1854.429,5670.943 1848.454,5672.382 1842.572,5672.382 z M1845.659,5627.683 C1844.473,5627.683 1843.02,5628.081 1841.458,5628.832 C1838.91,5630.055 1837.229,5631.541 1836.726,5633.013 C1836.122,5634.781 1836.991,5637.042 1837.563,5638.231 C1839.556,5642.382 1841.747,5642.382 1842.571,5642.382 C1843.901,5642.382 1845.549,5641.928 1847.336,5641.068 C1848.971,5640.283 1851.041,5638.959 1851.616,5637.116 C1852.05,5635.728 1851.76,5633.813 1850.822,5631.863 C1849.906,5629.957 1848.266,5627.683 1845.659,5627.683" fill="#3B3C3A"/>
      <path d="M2152.323,5678.714 C2135.04,5714.682 2097.723,5729.514 2052.833,5707.943 C2007.944,5686.374 1998.632,5646.481 2014.878,5612.673 C2031.124,5578.864 2072.011,5555.211 2116.903,5576.781 C2161.792,5598.35 2169.604,5642.747 2152.323,5678.714" fill="#F6D729"/>
      <path d="M2092.891,5732.97 C2077.888,5732.97 2062.224,5729.098 2046.337,5721.463 C2021.554,5709.555 2004.415,5691.708 1996.77,5669.849 C1989.706,5649.647 1991.335,5627.034 2001.357,5606.176 C2016.732,5574.181 2048.515,5553.506 2082.331,5553.506 C2096.113,5553.506 2109.93,5556.788 2123.399,5563.26 C2148.34,5575.244 2165.254,5594.208 2172.312,5618.098 C2178.641,5639.521 2176.345,5663.355 2165.844,5685.21 C2151.26,5715.562 2124.669,5732.97 2092.891,5732.97 z M2082.331,5583.506 C2059.977,5583.506 2038.807,5597.505 2028.398,5619.169 C2021.841,5632.815 2020.666,5647.297 2025.089,5659.947 C2030.046,5674.119 2041.886,5686.042 2059.329,5694.423 C2071.131,5700.095 2082.423,5702.97 2092.891,5702.97 C2112.97,5702.97 2129.274,5692.048 2138.803,5672.218 C2152.068,5644.609 2148.431,5608.573 2110.406,5590.301 C2101.025,5585.792 2091.579,5583.506 2082.331,5583.506" fill="#3B3C3A"/>
      <path d="M2105.196,5647.729 C2099.774,5659.017 2088.569,5663.913 2075.409,5657.589 C2062.245,5651.264 2059.8,5638.975 2064.897,5628.366 C2069.995,5617.758 2081.118,5611.989 2094.28,5618.311 C2107.442,5624.635 2110.62,5636.444 2105.196,5647.729" fill="#FFFFFE"/>
      <path d="M2086.67,5675.382 C2080.786,5675.382 2074.811,5673.943 2068.912,5671.107 C2059.019,5666.355 2051.942,5658.522 2048.986,5649.053 C2046.276,5640.371 2047.126,5630.718 2051.377,5621.869 C2057.752,5608.604 2069.791,5600.683 2083.582,5600.683 C2089.318,5600.683 2095.102,5602.064 2100.775,5604.791 C2110.772,5609.593 2117.731,5617.034 2120.901,5626.307 C2123.912,5635.114 2123.136,5645.03 2118.716,5654.227 C2112.353,5667.472 2100.373,5675.382 2086.67,5675.382 z M2083.582,5630.683 C2080.973,5630.683 2079.334,5632.957 2078.418,5634.863 C2077.48,5636.813 2077.191,5638.728 2077.624,5640.115 C2078.199,5641.958 2080.269,5643.282 2081.904,5644.067 C2083.693,5644.928 2085.341,5645.382 2086.67,5645.382 C2087.494,5645.382 2089.683,5645.382 2091.676,5641.234 C2092.249,5640.042 2093.119,5637.78 2092.514,5636.012 C2092.012,5634.54 2090.331,5633.055 2087.784,5631.832 C2086.221,5631.081 2084.767,5630.683 2083.582,5630.683" fill="#3B3C3A"/>
      <path d="M1961.337,5625.781 C1855.014,5625.781 1776.337,5678.781 1776.337,5775.781 C1776.337,5872.781 1861.395,5922.781 1961.337,5922.781 C2061.28,5922.781 2146.337,5872.781 2146.337,5775.781 C2146.337,5678.781 2067.659,5625.781 1961.337,5625.781" fill="#F6D729"/>
      <path d="M1961.337,5937.781 C1907.184,5937.781 1857.885,5923.573 1822.518,5897.773 C1782.493,5868.576 1761.337,5826.391 1761.337,5775.781 C1761.337,5675.546 1839.842,5610.781 1961.337,5610.781 C2082.832,5610.781 2161.337,5675.546 2161.337,5775.781 C2161.337,5826.391 2140.18,5868.576 2100.155,5897.773 C2064.79,5923.573 2015.489,5937.781 1961.337,5937.781 z M1961.337,5640.781 C1879.153,5640.781 1791.337,5676.244 1791.337,5775.781 C1791.337,5873.209 1882.915,5907.781 1961.337,5907.781 C2039.759,5907.781 2131.337,5873.209 2131.337,5775.781 C2131.337,5676.244 2043.52,5640.781 1961.337,5640.781" fill="#3B3C3A"/>
      <path d="M2057.837,5807.204 C2057.837,5843.931 2014.632,5873.704 1961.337,5873.704 C1908.042,5873.704 1864.837,5843.931 1864.837,5807.204 C1864.837,5770.478 1878.837,5740.704 1961.337,5740.704 C2043.837,5740.704 2057.837,5770.478 2057.837,5807.204" fill="#FFFFFE"/>
      <path d="M1961.337,5888.704 C1932.551,5888.704 1905.295,5880.847 1884.59,5866.578 C1862.179,5851.136 1849.837,5830.049 1849.837,5807.204 C1849.837,5790.563 1852.165,5766.411 1872.296,5748.873 C1890.189,5733.283 1919.314,5725.704 1961.337,5725.704 C2003.359,5725.704 2032.484,5733.283 2050.378,5748.873 C2070.509,5766.411 2072.837,5790.563 2072.837,5807.204 C2072.837,5830.049 2060.495,5851.136 2038.084,5866.578 C2017.379,5880.847 1990.123,5888.704 1961.337,5888.704 z M1961.337,5755.704 C1879.837,5755.704 1879.837,5785.47 1879.837,5807.204 C1879.837,5835.12 1917.159,5858.704 1961.337,5858.704 C2005.514,5858.704 2042.837,5835.12 2042.837,5807.204 C2042.837,5785.47 2042.837,5755.704 1961.337,5755.704" fill="#3B3C3A"/>
      <path d="M1918.587,5709.204 C1918.587,5715.004 1913.886,5719.704 1908.087,5719.704 C1902.288,5719.704 1897.587,5715.004 1897.587,5709.204 C1897.587,5703.406 1902.288,5698.704 1908.087,5698.704 C1913.886,5698.704 1918.587,5703.406 1918.587,5709.204" fill="#3B3C3A"/>
      <path d="M2025.087,5709.204 C2025.087,5715.004 2020.386,5719.704 2014.587,5719.704 C2008.788,5719.704 2004.087,5715.004 2004.087,5709.204 C2004.087,5703.406 2008.788,5698.704 2014.587,5698.704 C2020.386,5698.704 2025.087,5703.406 2025.087,5709.204" fill="#3B3C3A"/>
      <path d="M1961.337,5788.204 L1911.337,5788.204 C1911.337,5788.204 1914.837,5829.204 1961.337,5829.204 C2007.837,5829.204 2011.337,5788.204 2011.337,5788.204 L1961.337,5788.204" fill="#3B3C3A"/>
      <path d="M1961.337,5839.204 C1932.84,5839.204 1917.975,5825.591 1910.524,5814.168 C1902.688,5802.159 1901.484,5790.361 1901.373,5789.055 C1901.135,5786.265 1902.077,5783.504 1903.971,5781.441 C1905.865,5779.379 1908.537,5778.204 1911.337,5778.204 L2011.337,5778.204 C2014.137,5778.204 2016.808,5779.379 2018.702,5781.441 C2020.596,5783.504 2021.539,5786.265 2021.301,5789.055 C2021.189,5790.361 2019.985,5802.159 2012.149,5814.168 C2004.698,5825.591 1989.834,5839.204 1961.337,5839.204 z M1924.367,5798.204 C1928.575,5807.49 1938.426,5819.204 1961.337,5819.204 C1984.228,5819.204 1994.084,5807.443 1998.293,5798.204 L1924.367,5798.204" fill="#3B3C3A"/>
      <path d="M1959.337,5740.204 L1924.337,5740.204 C1924.337,5740.204 1938.837,5770.704 1959.337,5770.704 C1981.337,5770.704 1994.337,5740.204 1994.337,5740.204 L1959.337,5740.204" fill="#3B3C3A"/>
      <path d="M1959.337,5806.704 C1953.814,5806.704 1949.337,5802.229 1949.337,5796.704 L1949.337,5759.73 C1949.337,5754.208 1953.814,5749.73 1959.337,5749.73 C1964.859,5749.73 1969.337,5754.208 1969.337,5759.73 L1969.337,5796.704 C1969.337,5802.229 1964.859,5806.704 1959.337,5806.704" fill="#3B3C3A"/>
    </g>
  </g>
</svg>
