<?xml version="1.0" encoding="UTF-8"?>
<!DOCTYPE svg PUBLIC "-//W3C//DTD SVG 1.1//EN" "http://www.w3.org/Graphics/SVG/1.1/DTD/svg11.dtd">
<svg version="1.1" xmlns="http://www.w3.org/2000/svg" xmlns:xlink="http://www.w3.org/1999/xlink" x="0" y="0" width="410.15" height="381.462" viewBox="0, 0, 410.15, 381.462">
  <g id="Layer_1" transform="translate(-12.259, -3113.684)">
    <g id="bike">
      <path d="M422.409,3468.411 C422.409,3483.177 330.595,3495.146 217.335,3495.146 C104.075,3495.146 12.259,3483.177 12.259,3468.411 C12.259,3453.641 104.075,3441.671 217.335,3441.671 C330.595,3441.671 422.409,3453.641 422.409,3468.411" fill="#D6D5D0"/>
      <path d="M229.698,3260.75 L403.698,3260.75 L403.698,3383.456 L229.698,3383.456 z" fill="#F6D729"/>
      <path d="M403.698,3398.456 L229.698,3398.456 C221.414,3398.456 214.698,3391.74 214.698,3383.456 L214.698,3260.75 C214.698,3252.466 221.414,3245.75 229.698,3245.75 L403.698,3245.75 C411.982,3245.75 418.698,3252.466 418.698,3260.75 L418.698,3383.456 C418.698,3391.74 411.982,3398.456 403.698,3398.456 z M244.698,3368.456 L388.698,3368.456 L388.698,3275.75 L244.698,3275.75 z" fill="#3B3C3A"/>
      <path d="M175.228,3383.456 C175.228,3419.957 145.639,3449.547 109.138,3449.547 C72.636,3449.547 43.046,3419.957 43.046,3383.456 C43.046,3346.955 72.636,3317.365 109.138,3317.365 C145.639,3317.365 175.228,3346.955 175.228,3383.456" fill="#FFFFFE"/>
      <path d="M109.138,3464.547 C64.424,3464.547 28.046,3428.17 28.046,3383.456 C28.046,3338.742 64.424,3302.365 109.138,3302.365 C153.851,3302.365 190.228,3338.742 190.228,3383.456 C190.228,3428.17 153.851,3464.547 109.138,3464.547 z M109.138,3332.365 C80.966,3332.365 58.046,3355.285 58.046,3383.456 C58.046,3411.627 80.966,3434.547 109.138,3434.547 C137.309,3434.547 160.228,3411.627 160.228,3383.456 C160.228,3355.285 137.309,3332.365 109.138,3332.365" fill="#3B3C3A"/>
      <path d="M392.794,3383.456 C392.794,3419.957 363.204,3449.547 326.703,3449.547 C290.202,3449.547 260.612,3419.957 260.612,3383.456 C260.612,3346.955 290.202,3317.365 326.703,3317.365 C363.204,3317.365 392.794,3346.955 392.794,3383.456" fill="#FFFFFE"/>
      <path d="M326.703,3464.547 C281.989,3464.547 245.612,3428.17 245.612,3383.456 C245.612,3338.742 281.989,3302.365 326.703,3302.365 C371.417,3302.365 407.794,3338.742 407.794,3383.456 C407.794,3428.17 371.417,3464.547 326.703,3464.547 z M326.703,3332.365 C298.531,3332.365 275.612,3355.285 275.612,3383.456 C275.612,3411.627 298.531,3434.547 326.703,3434.547 C354.875,3434.547 377.794,3411.627 377.794,3383.456 C377.794,3355.285 354.875,3332.365 326.703,3332.365" fill="#3B3C3A"/>
      <path d="M353.794,3383.456 C353.794,3398.418 341.665,3410.547 326.703,3410.547 C311.741,3410.547 299.612,3398.418 299.612,3383.456 C299.612,3368.494 311.741,3356.365 326.703,3356.365 C341.665,3356.365 353.794,3368.494 353.794,3383.456" fill="#FFFFFE"/>
      <path d="M326.703,3420.547 C306.251,3420.547 289.612,3403.908 289.612,3383.456 C289.612,3363.004 306.251,3346.365 326.703,3346.365 C347.155,3346.365 363.794,3363.004 363.794,3383.456 C363.794,3403.908 347.155,3420.547 326.703,3420.547 z M326.703,3366.365 C317.279,3366.365 309.612,3374.032 309.612,3383.456 C309.612,3392.88 317.279,3400.547 326.703,3400.547 C336.127,3400.547 343.794,3392.88 343.794,3383.456 C343.794,3374.032 336.127,3366.365 326.703,3366.365" fill="#3B3C3A"/>
      <path d="M169.875,3165.685 C136.023,3165.685 130.138,3184.685 130.138,3212.566 C130.138,3240.448 130.138,3317.365 130.138,3317.365 L91.698,3317.365 C91.698,3288.566 91.698,3245.652 91.698,3212.652 C91.698,3179.652 96.698,3132.652 168.698,3132.652 C187.698,3132.652 187.698,3165.685 169.875,3165.685" fill="#FFFFFE"/>
      <path d="M130.138,3332.365 L91.698,3332.365 C83.414,3332.365 76.698,3325.649 76.698,3317.365 L76.698,3212.652 C76.698,3189.156 76.698,3117.652 168.698,3117.652 C177.923,3117.652 186.021,3121.662 191.502,3128.941 C195.756,3134.592 198.098,3141.916 198.098,3149.564 C198.098,3167.306 185.965,3180.685 169.875,3180.685 C154.162,3180.685 150.762,3185.596 149.643,3187.209 C145.604,3193.042 145.138,3204.475 145.138,3212.566 L145.138,3317.365 C145.138,3325.649 138.422,3332.365 130.138,3332.365 z M106.698,3302.365 L115.138,3302.365 L115.138,3212.566 C115.138,3195.835 115.134,3151.707 168.018,3150.702 C168.168,3149.734 168.104,3148.499 167.846,3147.657 C111.433,3147.993 106.698,3179.937 106.698,3212.652 L106.698,3302.365" fill="#3B3C3A"/>
      <path d="M219.989,3168.685 L174.875,3168.685 C163.829,3168.685 154.875,3159.73 154.875,3148.685 C154.875,3137.639 163.829,3128.684 174.875,3128.684 L219.989,3128.684 C231.035,3128.684 239.989,3137.639 239.989,3148.685 C239.989,3159.73 231.035,3168.685 219.989,3168.685" fill="#FFFFFE"/>
      <path d="M219.989,3183.685 L174.875,3183.685 C155.576,3183.685 139.875,3167.984 139.875,3148.685 C139.875,3129.385 155.576,3113.684 174.875,3113.684 L219.989,3113.684 C239.288,3113.684 254.989,3129.385 254.989,3148.685 C254.989,3167.984 239.288,3183.685 219.989,3183.685 z M174.875,3143.684 C172.118,3143.684 169.875,3145.928 169.875,3148.685 C169.875,3151.441 172.118,3153.685 174.875,3153.685 L219.989,3153.685 C222.746,3153.685 224.989,3151.441 224.989,3148.685 C224.989,3145.928 222.746,3143.684 219.989,3143.684 L174.875,3143.684" fill="#3B3C3A"/>
      <path d="M403.698,3275.75 L130.698,3275.75 C122.414,3275.75 115.698,3269.034 115.698,3260.75 C115.698,3252.466 122.414,3245.75 130.698,3245.75 L403.698,3245.75 C411.982,3245.75 418.698,3252.466 418.698,3260.75 C418.698,3269.034 411.982,3275.75 403.698,3275.75" fill="#3B3C3A"/>
      <path d="M109.138,3398.456 C105.299,3398.456 101.46,3396.992 98.531,3394.063 C92.673,3388.205 92.673,3378.707 98.531,3372.849 L146.285,3325.095 C152.142,3319.236 161.64,3319.237 167.498,3325.094 C173.356,3330.952 173.356,3340.45 167.498,3346.308 L119.744,3394.062 C116.815,3396.992 112.976,3398.456 109.138,3398.456" fill="#3B3C3A"/>
      <path d="M178.432,3351.135 L133.318,3351.135 C122.272,3351.135 113.318,3342.181 113.318,3331.135 C113.318,3320.089 122.272,3311.135 133.318,3311.135 L178.432,3311.135 C189.478,3311.135 198.432,3320.089 198.432,3331.135 C198.432,3342.181 189.478,3351.135 178.432,3351.135" fill="#FFFFFE"/>
      <path d="M178.432,3366.135 L133.318,3366.135 C114.019,3366.135 98.318,3350.434 98.318,3331.135 C98.318,3311.835 114.019,3296.135 133.318,3296.135 L178.432,3296.135 C197.731,3296.135 213.432,3311.835 213.432,3331.135 C213.432,3350.434 197.731,3366.135 178.432,3366.135 z M133.318,3326.135 C130.561,3326.135 128.318,3328.378 128.318,3331.135 C128.318,3333.892 130.561,3336.135 133.318,3336.135 L178.432,3336.135 C181.189,3336.135 183.432,3333.892 183.432,3331.135 C183.432,3328.378 181.189,3326.135 178.432,3326.135 L133.318,3326.135" fill="#3B3C3A"/>
      <path d="M341.698,3260.75 C318.698,3260.75 258.698,3260.75 234.698,3260.75 C210.698,3260.75 214.93,3230.439 234.698,3219.566 C254.698,3208.566 300.447,3194.566 341.698,3204.566 C374.698,3212.566 369.698,3260.75 341.698,3260.75" fill="#F6D729"/>
      <path d="M341.698,3275.75 L234.698,3275.75 C219.406,3275.75 207.746,3267.341 204.269,3253.804 C199.9,3236.793 210.091,3215.982 227.47,3206.423 C244.481,3197.066 276.7,3186.14 311.513,3186.14 C323.353,3186.14 334.698,3187.435 345.232,3189.989 C371.933,3196.462 381.595,3220.341 379.27,3239.789 C376.741,3260.962 361.291,3275.75 341.698,3275.75 z M233.224,3245.65 C233.57,3245.704 234.053,3245.75 234.698,3245.75 L341.698,3245.75 C348.024,3245.75 349.293,3237.819 349.482,3236.23 C349.761,3233.902 350.522,3222.14 338.164,3219.144 C329.942,3217.151 320.975,3216.14 311.513,3216.14 C284.401,3216.14 256.436,3224.729 241.927,3232.709 C235.42,3236.289 233.141,3242.982 233.224,3245.65" fill="#3B3C3A"/>
    </g>
  </g>
</svg>
