<?xml version="1.0" encoding="UTF-8"?>
<!DOCTYPE svg PUBLIC "-//W3C//DTD SVG 1.1//EN" "http://www.w3.org/Graphics/SVG/1.1/DTD/svg11.dtd">
<svg version="1.1" xmlns="http://www.w3.org/2000/svg" xmlns:xlink="http://www.w3.org/1999/xlink" x="0" y="0" width="415.273" height="398.258" viewBox="0, 0, 415.273, 398.258">
  <g id="Layer_1" transform="translate(-582.885, -638.029)">
    <g id="bird">
      <path d="M993.034,1009.552 C993.034,1024.317 901.219,1036.287 787.959,1036.287 C674.699,1036.287 582.885,1024.317 582.885,1009.552 C582.885,994.782 674.699,982.811 787.959,982.811 C901.219,982.811 993.034,994.782 993.034,1009.552" fill="#D6D5D0"/>
      <path d="M662.959,783.098 C634.102,783.098 604.539,775.063 604.539,742.73 C604.539,712.666 638.903,702.364 662.959,702.364 C687.012,702.364 691.813,783.098 662.959,783.098" fill="#FFFFFE"/>
      <path d="M662.959,798.098 C643.559,798.098 627.658,794.761 615.698,788.182 C598.585,778.767 589.539,763.05 589.539,742.73 C589.539,704.69 627.598,687.364 662.959,687.364 C686.925,687.364 697.84,717.479 697.84,745.459 C697.84,754.147 696.77,766.81 691.674,777.801 C685.693,790.7 675.226,798.098 662.959,798.098 z M661.395,717.388 C648.389,717.761 619.539,722.766 619.539,742.73 C619.539,749.651 619.541,768.008 662.643,768.097 C664.246,766.626 667.403,760.093 667.801,747.882 C668.297,732.651 664.179,720.733 661.395,717.388" fill="#3B3C3A"/>
      <path d="M946.657,868.07 L976.289,834.373 L931.919,823.394 L964.607,779.078 C964.607,779.078 931.971,794.566 893.825,794.566 C865.423,794.566 858.711,763.557 858.711,734.076 C858.711,691.33 833.268,653.029 767.838,653.029 C697.514,653.029 646.931,697.524 646.931,796.016 C646.931,894.508 702.603,967.287 811.417,975.293 C925.414,983.681 965.872,930.813 983.158,885.448 C968.547,881.848 946.657,868.07 946.657,868.07" fill="#F6D729"/>
      <path d="M834.714,991.178 C834.714,991.178 834.708,991.178 834.703,991.178 C826.862,991.178 818.657,990.866 810.316,990.252 C754.287,986.13 708.212,965.106 677.072,929.454 C647.541,895.644 631.931,849.502 631.931,796.016 C631.931,744.927 644.722,705.04 669.945,677.464 C693.543,651.665 727.393,638.029 767.838,638.029 C845.898,638.029 873.711,687.644 873.711,734.076 C873.711,764.261 880.478,779.566 893.825,779.566 C927.916,779.566 957.902,765.656 958.201,765.515 C964.414,762.595 971.832,764.259 976.188,769.567 C980.546,774.874 980.755,782.457 976.679,787.982 L957.32,814.227 L979.892,819.812 C984.977,821.071 989.038,824.891 990.603,829.891 C992.169,834.89 991.013,840.344 987.554,844.278 L970.139,864.081 C975.907,867.003 982.049,869.726 986.747,870.884 C990.92,871.912 994.451,874.681 996.445,878.487 C998.439,882.294 998.705,886.773 997.175,890.79 C971.793,957.401 917.13,991.178 834.714,991.178 z M767.838,668.029 C699.543,668.029 661.931,713.482 661.931,796.016 C661.931,893.401 716.818,953.292 812.517,960.334 C820.13,960.894 827.595,961.178 834.704,961.178 C898.2,961.178 940.35,939.159 963.06,893.963 C951.134,888.526 940.342,881.819 938.667,880.765 C934.948,878.424 932.442,874.57 931.812,870.221 C931.181,865.872 932.491,861.465 935.392,858.165 L948.724,843.004 L928.315,837.955 C923.452,836.751 919.511,833.198 917.809,828.485 C916.108,823.772 916.873,818.521 919.848,814.489 L925.712,806.539 C915.938,808.336 905.121,809.566 893.825,809.566 C875.109,809.566 843.711,799.759 843.711,734.076 C843.711,709.41 833.853,668.029 767.838,668.029" fill="#3B3C3A"/>
      <path d="M724.18,730.297 C724.18,735.986 719.568,740.6 713.878,740.6 C708.189,740.6 703.576,735.986 703.576,730.297 C703.576,724.606 708.189,719.996 713.878,719.996 C719.568,719.996 724.18,724.606 724.18,730.297" fill="#3B3C3A"/>
      <path d="M800.711,822.33 C800.711,822.33 854.539,832.329 867.206,835.663 C879.873,838.997 838.78,921.663 774.993,876.33 L800.711,822.33" fill="#F6D729"/>
      <path d="M812.439,904.867 C799.144,904.867 783.48,900.765 766.304,888.557 C759.551,883.758 757.968,874.393 762.767,867.641 C767.565,860.888 776.929,859.304 783.682,864.103 C799.41,875.28 814.203,877.745 827.653,871.425 C839.282,865.96 847.575,855.226 851.65,847.531 C835.361,844.121 809.223,839.168 797.971,837.078 C789.826,835.565 784.45,827.735 785.963,819.59 C787.476,811.445 795.313,806.068 803.45,807.583 C805.671,807.995 857.973,817.722 871.024,821.157 C878.057,823.008 883.125,828.898 884.247,836.526 C886.522,851.992 871.255,880.196 847.418,894.794 C839.685,899.53 827.603,904.867 812.439,904.867" fill="#3B3C3A"/>
    </g>
  </g>
</svg>
