<?xml version="1.0" encoding="UTF-8"?>
<!DOCTYPE svg PUBLIC "-//W3C//DTD SVG 1.1//EN" "http://www.w3.org/Graphics/SVG/1.1/DTD/svg11.dtd">
<svg version="1.1" xmlns="http://www.w3.org/2000/svg" xmlns:xlink="http://www.w3.org/1999/xlink" x="0" y="0" width="410.15" height="411.791" viewBox="0, 0, 410.15, 411.791">
  <g id="Layer_1" transform="translate(-1161.844, -9.598)">
    <g id="book">
      <path d="M1571.994,394.653 C1571.994,409.419 1480.179,421.389 1366.919,421.389 C1253.659,421.389 1161.844,409.419 1161.844,394.653 C1161.844,379.884 1253.659,367.913 1366.919,367.913 C1480.179,367.913 1571.994,379.884 1571.994,394.653" fill="#D6D5D0"/>
      <path d="M1541.661,129.253 C1541.661,145.306 1541.661,266.563 1541.661,331.997 C1541.661,356.793 1531.194,373.574 1495.136,373.574 C1459.075,373.574 1205.949,373.574 1205.949,373.574 L1205.949,87.494 C1205.949,87.494 1470.539,87.494 1499.567,87.494 C1528.595,87.494 1541.661,107.116 1541.661,129.253" fill="#8F8F8F"/>
      <path d="M1495.136,388.574 L1205.949,388.574 C1197.665,388.574 1190.949,381.858 1190.949,373.574 L1190.949,87.494 C1190.949,79.21 1197.665,72.494 1205.949,72.494 L1499.567,72.494 C1533.717,72.494 1556.661,95.304 1556.661,129.253 L1556.661,331.997 C1556.661,369.01 1535.386,388.574 1495.136,388.574 z M1220.949,358.574 L1495.136,358.574 C1524.34,358.574 1526.661,347.056 1526.661,331.997 L1526.661,129.253 C1526.661,119.259 1523.142,102.494 1499.567,102.494 L1220.949,102.494 L1220.949,358.574" fill="#3B3C3A"/>
      <path d="M1495.136,350.716 L1205.949,350.716 C1200.427,350.716 1195.949,346.239 1195.949,340.716 C1195.949,335.193 1200.427,330.716 1205.949,330.716 L1495.136,330.716 C1525.551,330.716 1531.661,318.633 1531.661,299.139 C1531.661,293.616 1536.138,289.139 1541.661,289.139 C1547.183,289.139 1551.661,293.616 1551.661,299.139 C1551.661,333.363 1532.643,350.716 1495.136,350.716" fill="#3B3C3A"/>
      <path d="M1495.136,324.049 L1205.949,324.049 C1200.427,324.049 1195.949,319.572 1195.949,314.049 C1195.949,308.526 1200.427,304.049 1205.949,304.049 L1495.136,304.049 C1525.551,304.049 1531.661,291.966 1531.661,272.472 C1531.661,266.949 1536.138,262.472 1541.661,262.472 C1547.183,262.472 1551.661,266.949 1551.661,272.472 C1551.661,306.696 1532.643,324.049 1495.136,324.049" fill="#3B3C3A"/>
      <path d="M1541.661,66.356 C1541.661,82.41 1541.661,174.519 1541.661,239.951 C1541.661,264.748 1531.194,281.528 1495.136,281.528 C1459.075,281.528 1205.949,281.528 1205.949,281.528 L1205.949,24.598 C1205.949,24.597 1470.539,24.598 1499.567,24.598 C1528.595,24.598 1541.661,44.221 1541.661,66.356" fill="#C2D54A"/>
      <path d="M1495.136,296.528 L1205.949,296.528 C1197.665,296.528 1190.949,289.813 1190.949,281.528 L1190.949,24.598 C1190.949,16.313 1197.665,9.598 1205.949,9.598 L1499.567,9.598 C1533.717,9.598 1556.661,32.407 1556.661,66.356 L1556.661,239.951 C1556.661,276.964 1535.386,296.528 1495.136,296.528 z M1220.949,266.528 L1495.136,266.528 C1524.34,266.528 1526.661,255.01 1526.661,239.951 L1526.661,66.356 C1526.661,56.363 1523.142,39.598 1499.567,39.598 L1220.949,39.598 L1220.949,266.528" fill="#3B3C3A"/>
      <path d="M1272.612,155.689 C1270.039,159.21 1266.921,161.089 1263.254,161.337 C1259.679,161.763 1256.353,160.85 1253.273,158.599 C1250.194,156.348 1248.261,153.527 1247.473,150.142 C1246.522,146.518 1247.306,142.985 1249.824,139.539 L1286.967,88.724 C1283.493,88.546 1280.437,87.495 1277.798,85.565 C1274.35,83.046 1272.387,80.038 1271.911,76.537 C1271.355,72.983 1272.179,69.705 1274.377,66.697 C1278.021,61.71 1282.946,59.742 1289.155,60.792 L1308.729,63.794 C1312.733,64.47 1316.313,65.961 1319.468,68.268 C1326.872,73.679 1327.733,80.273 1322.054,88.046 L1272.612,155.689" fill="#F6D729"/>
      <path d="M1286.031,60.518 C1287.034,60.518 1288.075,60.609 1289.155,60.792 L1308.729,63.794 C1312.733,64.47 1316.313,65.961 1319.468,68.268 C1326.872,73.679 1327.733,80.273 1322.054,88.046 L1272.612,155.689 C1270.039,159.21 1266.921,161.089 1263.254,161.337 C1262.685,161.405 1262.123,161.438 1261.567,161.438 C1258.627,161.438 1255.863,160.492 1253.273,158.599 C1250.194,156.348 1248.261,153.527 1247.473,150.142 C1246.522,146.518 1247.306,142.985 1249.824,139.539 L1286.967,88.724 C1283.493,88.546 1280.437,87.495 1277.798,85.565 C1274.35,83.046 1272.387,80.038 1271.911,76.537 C1271.355,72.983 1272.179,69.705 1274.377,66.697 C1277.388,62.578 1281.271,60.518 1286.031,60.518 z M1286.031,32.307 L1286.031,32.307 C1272.189,32.307 1259.961,38.609 1251.599,50.052 C1245.074,58.98 1242.379,69.83 1243.998,80.631 C1244.662,85.256 1246.133,89.683 1248.328,93.778 L1227.049,122.892 C1219.591,133.096 1217.125,145.161 1220.085,156.908 C1222.465,166.746 1228.178,175.198 1236.624,181.373 C1244.034,186.789 1252.658,189.65 1261.567,189.65 C1263.001,189.65 1264.453,189.575 1265.894,189.427 C1277.602,188.42 1288.053,182.372 1295.388,172.337 L1344.83,104.693 C1353.855,92.342 1354.602,80.976 1353.64,73.615 C1352.631,65.89 1348.77,54.74 1336.113,45.491 C1329.41,40.588 1321.773,37.385 1313.425,35.976 C1313.285,35.953 1313.146,35.93 1313.006,35.909 L1293.599,32.933 C1291.061,32.517 1288.516,32.307 1286.031,32.307" fill="#3B3C3A"/>
      <path d="M1404.04,240.542 C1404.04,243.813 1402.995,246.582 1400.907,248.854 C1398.636,251.307 1395.594,252.531 1391.778,252.531 L1327.609,252.531 C1314.621,252.531 1308.128,247.082 1308.128,236.181 C1308.128,231.823 1309.762,227.735 1313.033,223.921 C1315.302,221.379 1318.98,218.383 1324.068,214.929 L1362.351,189.18 C1369.164,184.458 1372.568,179.78 1372.568,175.147 C1372.568,172.513 1371.251,170.378 1368.618,168.744 C1365.983,167.201 1362.532,166.428 1358.264,166.428 C1349.362,166.428 1340.778,171.016 1332.514,180.188 C1329.061,183.914 1325.518,185.774 1321.887,185.774 C1318.072,185.774 1314.712,184.64 1311.806,182.367 C1308.989,180.188 1307.585,177.374 1307.585,173.921 C1307.585,169.472 1308.807,165.61 1311.262,162.341 C1320.798,149.263 1336.056,142.724 1357.038,142.724 C1368.845,142.724 1378.79,145.494 1386.874,151.032 C1395.774,157.3 1400.227,165.702 1400.227,176.237 C1400.227,183.232 1398.093,189.636 1393.821,195.446 C1390.096,200.444 1384.375,205.483 1376.656,210.57 C1367.39,216.748 1359.307,221.925 1352.404,226.101 C1351.768,226.465 1351.453,226.918 1351.453,227.464 C1351.453,228.371 1351.997,228.826 1353.088,228.826 L1391.778,228.826 C1395.594,228.826 1398.591,230.007 1400.771,232.369 C1402.95,234.731 1404.04,237.456 1404.04,240.542" fill="#E46C79"/>
      <path d="M1357.038,142.724 C1368.845,142.724 1378.79,145.494 1386.874,151.032 C1395.774,157.3 1400.227,165.702 1400.227,176.237 C1400.227,183.232 1398.093,189.636 1393.821,195.446 C1390.096,200.444 1384.375,205.483 1376.656,210.57 C1367.39,216.748 1359.307,221.925 1352.404,226.101 C1351.768,226.465 1351.453,226.918 1351.453,227.464 C1351.453,228.371 1351.997,228.826 1353.088,228.826 L1391.778,228.826 C1395.594,228.826 1398.591,230.007 1400.771,232.369 C1402.95,234.731 1404.04,237.456 1404.04,240.542 C1404.04,243.813 1402.995,246.582 1400.907,248.854 C1398.636,251.307 1395.594,252.531 1391.778,252.531 L1327.609,252.531 C1314.621,252.531 1308.128,247.082 1308.128,236.181 C1308.128,231.823 1309.762,227.735 1313.033,223.921 C1315.302,221.379 1318.98,218.383 1324.068,214.929 L1362.351,189.18 C1369.164,184.458 1372.568,179.78 1372.568,175.147 C1372.568,172.513 1371.251,170.378 1368.618,168.744 C1365.983,167.201 1362.532,166.428 1358.264,166.428 C1349.362,166.428 1340.778,171.016 1332.514,180.188 C1329.061,183.914 1325.518,185.774 1321.887,185.774 C1318.072,185.774 1314.712,184.64 1311.806,182.367 C1308.989,180.188 1307.585,177.374 1307.585,173.921 C1307.585,169.472 1308.807,165.61 1311.262,162.341 C1320.798,149.263 1336.056,142.724 1357.038,142.724 z M1357.038,118.363 C1320.897,118.363 1301.549,134.376 1291.668,147.866 C1286.142,155.293 1283.224,164.298 1283.224,173.921 C1283.224,184.952 1288.064,194.779 1296.855,201.601 C1297.634,202.207 1298.429,202.782 1299.241,203.326 C1297.604,204.799 1296.154,206.249 1294.857,207.701 C1294.75,207.821 1294.644,207.942 1294.539,208.064 C1287.492,216.284 1283.767,226.007 1283.767,236.181 C1283.767,248.778 1288.587,259.76 1297.338,267.104 C1305.076,273.599 1315.262,276.892 1327.609,276.892 L1391.778,276.892 C1402.332,276.892 1411.922,272.813 1418.781,265.405 C1418.802,265.383 1418.822,265.361 1418.842,265.339 C1425.096,258.536 1428.4,249.961 1428.4,240.542 C1428.4,231.287 1425.039,222.75 1418.679,215.854 C1416.894,213.921 1414.92,212.218 1412.785,210.756 C1412.976,210.505 1413.168,210.254 1413.354,210.003 C1413.387,209.96 1413.418,209.918 1413.449,209.875 C1420.84,199.82 1424.588,188.503 1424.588,176.237 C1424.588,157.896 1416.176,141.872 1400.9,131.115 C1400.814,131.054 1400.728,130.995 1400.641,130.935 C1388.465,122.593 1373.794,118.363 1357.038,118.363" fill="#3B3C3A"/>
      <path d="M1518.387,121.186 C1523.212,130.86 1522.51,140.851 1516.286,151.161 C1510.507,160.941 1501.358,168.957 1488.845,175.199 C1480.795,179.212 1472.446,181.699 1463.794,182.667 C1454.408,183.794 1446.326,182.852 1439.547,179.839 C1435.65,178.128 1432.606,175.079 1430.419,170.689 C1428.958,167.763 1429,164.696 1430.548,161.489 C1431.973,158.444 1434.393,156.07 1437.806,154.369 C1441.138,152.707 1445.362,152.529 1450.48,153.833 C1462.622,157.016 1472.632,156.64 1480.518,152.707 C1484.338,150.803 1487.714,148.206 1490.641,144.918 C1494.464,140.781 1495.604,137.168 1494.063,134.077 C1491.47,128.877 1486.638,127.329 1479.569,129.432 C1477.089,130.16 1470.243,133.32 1459.025,138.914 C1455.529,140.658 1452.239,140.98 1449.154,139.879 C1446.27,138.781 1444.059,136.688 1442.518,133.597 C1440.979,130.509 1440.596,127.504 1441.371,124.578 C1442.471,121.289 1444.972,118.672 1448.873,116.726 C1449.929,116.199 1451.841,115.349 1454.603,114.175 C1457.368,112.999 1459.397,112.088 1460.698,111.438 C1469.233,107.181 1472.022,102.087 1469.061,96.153 C1466.429,90.871 1460.233,90.66 1450.48,95.524 C1445.033,98.241 1440.235,103.171 1436.087,110.316 C1434.661,112.755 1433.216,115.247 1431.751,117.804 C1429.921,120.444 1427.866,122.33 1425.593,123.465 C1422.015,125.249 1418.44,125.611 1414.868,124.552 C1411.335,123.572 1408.778,121.499 1407.196,118.328 C1404.683,113.288 1405.156,107.726 1408.615,101.635 C1414.841,90.716 1425.065,81.71 1439.29,74.616 C1450.099,69.225 1460.623,67.227 1470.858,68.616 C1481.742,70.092 1489.272,75.013 1493.448,83.384 C1495.312,87.124 1496.261,91.064 1496.3,95.208 C1496.292,100.081 1494.947,103.898 1492.266,106.658 C1497.789,106.136 1502.927,107.276 1507.677,110.085 C1512.505,112.854 1516.077,116.552 1518.387,121.186" fill="#70B7D3"/>
      <path d="M1464.525,68.189 C1466.648,68.189 1468.76,68.331 1470.858,68.616 C1481.742,70.092 1489.272,75.013 1493.448,83.384 C1495.312,87.124 1496.261,91.064 1496.3,95.208 C1496.292,100.081 1494.947,103.898 1492.266,106.658 C1493.133,106.576 1493.992,106.535 1494.84,106.535 C1499.393,106.535 1503.672,107.717 1507.677,110.085 C1512.505,112.854 1516.077,116.552 1518.387,121.186 C1523.212,130.86 1522.51,140.851 1516.286,151.161 C1510.507,160.941 1501.358,168.957 1488.845,175.199 C1480.795,179.212 1472.446,181.699 1463.794,182.667 C1461.238,182.974 1458.779,183.127 1456.418,183.127 C1450.103,183.127 1444.48,182.031 1439.547,179.839 C1435.65,178.128 1432.606,175.079 1430.419,170.689 C1428.958,167.763 1429,164.696 1430.548,161.489 C1431.973,158.444 1434.393,156.07 1437.806,154.369 C1439.672,153.438 1441.82,152.973 1444.246,152.973 C1446.151,152.973 1448.228,153.26 1450.48,153.833 C1455.91,155.256 1460.914,155.968 1465.492,155.968 C1471.15,155.968 1476.158,154.881 1480.518,152.707 C1484.338,150.803 1487.714,148.206 1490.641,144.918 C1494.464,140.781 1495.604,137.168 1494.063,134.077 C1492.217,130.375 1489.234,128.524 1485.119,128.523 C1483.455,128.523 1481.605,128.826 1479.569,129.432 C1477.089,130.16 1470.243,133.32 1459.025,138.914 C1456.883,139.983 1454.816,140.518 1452.828,140.518 C1451.572,140.518 1450.348,140.305 1449.154,139.879 C1446.27,138.781 1444.059,136.688 1442.518,133.597 C1440.979,130.509 1440.596,127.504 1441.371,124.578 C1442.471,121.289 1444.972,118.672 1448.873,116.726 C1449.929,116.199 1451.841,115.349 1454.603,114.175 C1457.368,112.999 1459.397,112.088 1460.698,111.438 C1469.233,107.181 1472.022,102.087 1469.061,96.153 C1467.69,93.403 1465.353,92.027 1462.052,92.027 C1459.012,92.027 1455.155,93.193 1450.48,95.524 C1445.033,98.241 1440.235,103.171 1436.087,110.316 C1434.661,112.755 1433.216,115.247 1431.751,117.804 C1429.921,120.444 1427.866,122.33 1425.593,123.465 C1423.348,124.584 1421.104,125.144 1418.862,125.144 C1417.53,125.144 1416.199,124.947 1414.868,124.552 C1411.335,123.572 1408.778,121.499 1407.196,118.328 C1404.683,113.288 1405.156,107.726 1408.615,101.635 C1414.841,90.716 1425.065,81.71 1439.29,74.616 C1447.883,70.33 1456.295,68.189 1464.525,68.189 z M1464.525,43.828 C1452.523,43.828 1440.375,46.853 1428.418,52.817 C1409.865,62.068 1396.082,74.434 1387.453,89.569 C1379.955,102.772 1379.23,116.834 1385.394,129.197 C1390.017,138.461 1398.09,145.118 1408.146,147.967 C1408.728,148.136 1409.312,148.292 1409.898,148.433 C1409.418,149.276 1408.969,150.139 1408.551,151.022 C1403.76,161.034 1403.785,171.877 1408.623,181.569 C1413.326,191.008 1420.619,198.12 1429.706,202.124 C1437.737,205.683 1446.724,207.488 1456.418,207.488 C1459.704,207.488 1463.129,207.279 1466.599,206.866 C1478.028,205.576 1489.169,202.257 1499.713,197.001 C1516.406,188.674 1529.017,177.454 1537.202,163.65 C1547.632,146.306 1548.693,127.37 1540.188,110.315 C1535.79,101.495 1529.096,94.406 1520.289,89.238 C1519.587,83.438 1517.9,77.834 1515.251,72.517 C1507.498,56.977 1492.896,47.021 1474.131,44.477 C1470.965,44.046 1467.73,43.828 1464.525,43.828" fill="#3B3C3A"/>
    </g>
  </g>
</svg>
