<?xml version="1.0" encoding="UTF-8"?>
<!DOCTYPE svg PUBLIC "-//W3C//DTD SVG 1.1//EN" "http://www.w3.org/Graphics/SVG/1.1/DTD/svg11.dtd">
<svg version="1.1" xmlns="http://www.w3.org/2000/svg" xmlns:xlink="http://www.w3.org/1999/xlink" x="0" y="0" width="436.783" height="412.503" viewBox="0, 0, 436.783, 412.503">
  <g id="Layer_1" transform="translate(-579.704, -5542.711)">
    <g id="bottle-drink">
      <path d="M997.281,5928.479 C997.281,5943.244 905.466,5955.215 792.206,5955.215 C678.946,5955.215 587.132,5943.244 587.132,5928.479 C587.132,5913.71 678.946,5901.739 792.206,5901.739 C905.466,5901.739 997.281,5913.71 997.281,5928.479" fill="#D6D5D0"/>
      <path d="M673.081,5659.22 C679.831,5626.381 701.794,5581.548 716.437,5566.884 C731.081,5552.22 787.011,5555.998 787.046,5572.109 C787.081,5588.22 796.227,5612.674 828.654,5611.447 C861.081,5610.22 915.445,5612.795 923.081,5659.22 C930.717,5705.646 664.639,5700.29 673.081,5659.22" fill="#C2D54A"/>
      <path d="M803.683,5707.062 C773.731,5707.062 744.175,5704.76 720.459,5700.578 C690.952,5695.377 672.437,5687.733 663.856,5677.209 C658.816,5671.028 656.874,5663.566 658.389,5656.2 C665.488,5621.658 688.098,5574.034 705.823,5556.284 C717.617,5544.474 738.752,5542.711 750.3,5542.711 C761.477,5542.711 772.237,5544.348 780.596,5547.32 C799.226,5553.945 802.032,5565.674 802.046,5572.076 C802.061,5579.417 804.461,5596.491 826.334,5596.491 C826.908,5596.491 827.492,5596.479 828.087,5596.458 C832.091,5596.306 835.799,5596.232 839.425,5596.232 C912.569,5596.232 933.339,5629.161 937.882,5656.785 C939.181,5664.689 936.883,5672.595 931.407,5679.043 C922.737,5689.255 905.633,5696.529 879.115,5701.279 C857.99,5705.062 831.906,5707.062 803.683,5707.062 z M688.402,5659.357 C691.423,5661.549 700.648,5666.595 725.353,5670.979 C747.456,5674.901 775.274,5677.062 803.683,5677.062 C830.737,5677.062 856.331,5675.05 875.751,5671.395 C896.743,5667.445 905.554,5662.478 908.029,5660.18 C906.239,5650.242 899.238,5626.232 839.425,5626.232 C836.18,5626.232 832.843,5626.3 829.221,5626.436 C828.241,5626.473 827.28,5626.491 826.334,5626.491 C791.04,5626.491 773.916,5601.157 772.191,5576.215 C768.634,5574.649 760.807,5572.711 750.3,5572.711 C736.471,5572.711 728.544,5575.989 727.052,5577.482 C715.301,5589.25 695.3,5629.345 688.402,5659.357" fill="#3B3C3A"/>
      <path d="M923.081,5659.22 C923.081,5659.22 847.081,5668.22 798.081,5668.22 C749.081,5668.22 673.081,5659.22 673.081,5659.22 C673.081,5659.22 662.081,5712.22 662.081,5750.22 C662.081,5788.22 662.081,5859.081 667.081,5890.081 C672.081,5921.081 747.081,5923.942 798.081,5923.942 C849.081,5923.942 924.081,5921.081 929.081,5890.081 C934.081,5859.081 934.081,5788.22 934.081,5750.22 C934.081,5712.22 923.081,5659.22 923.081,5659.22" fill="#FFFFFE"/>
      <path d="M798.081,5938.941 C772.793,5938.941 740.235,5938.312 712.698,5933.403 C698.992,5930.96 657.281,5923.524 652.272,5892.47 C647.081,5860.283 647.081,5788.685 647.081,5750.22 C647.081,5711.129 657.931,5658.397 658.394,5656.171 C659.974,5648.554 667.124,5643.411 674.845,5644.324 C675.597,5644.413 750.546,5653.22 798.081,5653.22 C845.616,5653.22 920.565,5644.413 921.317,5644.324 C929.051,5643.411 936.186,5648.555 937.767,5656.171 C938.23,5658.397 949.081,5711.129 949.081,5750.22 C949.081,5788.685 949.081,5860.283 943.889,5892.47 C938.881,5923.524 897.17,5930.96 883.464,5933.403 C855.927,5938.312 823.369,5938.941 798.081,5938.941 z M685.239,5675.667 C682.078,5693.453 677.081,5725.491 677.081,5750.22 C677.081,5787.845 677.081,5857.879 681.889,5887.692 C682.637,5892.322 692.532,5899.335 717.964,5903.869 C743.47,5908.416 775.903,5908.941 798.081,5908.941 C820.259,5908.941 852.692,5908.416 878.198,5903.869 C903.63,5899.335 913.525,5892.322 914.272,5887.692 C919.081,5857.879 919.081,5787.845 919.081,5750.22 C919.081,5725.453 914.086,5693.44 910.926,5675.666 C886.498,5678.271 835.208,5683.22 798.081,5683.22 C760.954,5683.22 709.666,5678.271 685.239,5675.667" fill="#3B3C3A"/>
      <path d="M670.487,5672.913 C636.001,5672.935 593.074,5700.02 594.753,5742.55 C596.431,5785.081 603.431,5808.081 625.431,5803.711 C657.799,5797.282 641.431,5765.564 639.431,5748.823 C637.431,5732.081 643.92,5723.452 663.676,5721.267 C665.387,5706.108 670.487,5672.913 670.487,5672.913" fill="#70B7D3"/>
      <path d="M620.391,5819.238 L620.387,5819.238 C611.681,5819.238 595.811,5815.87 587.34,5793.332 C583.016,5781.831 580.681,5766.352 579.764,5743.142 C578.948,5722.457 586.461,5703.254 601.49,5687.611 C619.073,5669.308 645.508,5657.929 670.477,5657.913 L670.487,5657.913 C674.861,5657.913 679.017,5659.823 681.868,5663.141 C684.72,5666.462 685.978,5670.864 685.313,5675.19 C685.263,5675.52 680.238,5708.263 678.581,5722.949 C677.795,5729.913 672.291,5735.405 665.325,5736.175 C656.632,5737.137 654.874,5739.238 654.803,5739.327 C654.351,5739.896 653.742,5742.161 654.326,5747.042 C654.617,5749.48 655.494,5753.028 656.423,5756.783 C659.625,5769.731 664.01,5787.467 654.795,5801.967 C649.387,5810.475 640.491,5816.012 628.354,5818.423 C625.633,5818.965 622.953,5819.238 620.391,5819.238 z M652.669,5690.678 C641.547,5694.038 630.918,5700.281 623.124,5708.395 C616.679,5715.103 609.126,5726.371 609.741,5741.958 C610.504,5761.285 612.362,5774.637 615.421,5782.775 C617.849,5789.238 619.631,5789.238 620.391,5789.238 L620.392,5789.238 C620.995,5789.238 621.708,5789.158 622.509,5788.999 C626.079,5788.29 628.682,5787.121 629.475,5785.875 C631.806,5782.208 628.985,5770.801 627.3,5763.984 C626.142,5759.303 625.049,5754.882 624.537,5750.602 C623.042,5738.086 625.256,5728.299 631.305,5720.678 C635.751,5715.075 641.965,5711.103 650.14,5708.673 C650.913,5702.902 651.817,5696.531 652.669,5690.678" fill="#3B3C3A"/>
      <path d="M925.704,5672.913 C960.19,5672.935 1003.117,5700.02 1001.438,5742.55 C999.76,5785.081 992.76,5808.081 970.76,5803.711 C938.392,5797.282 954.76,5765.564 956.76,5748.823 C958.76,5732.081 952.271,5723.452 932.516,5721.267 C930.805,5706.108 925.704,5672.913 925.704,5672.913" fill="#70B7D3"/>
      <path d="M975.802,5819.238 C973.239,5819.238 970.559,5818.965 967.837,5818.423 C955.7,5816.012 946.804,5810.475 941.396,5801.967 C932.182,5787.467 936.566,5769.731 939.768,5756.783 C940.697,5753.028 941.574,5749.48 941.865,5747.042 C942.449,5742.161 941.84,5739.896 941.388,5739.327 C941.317,5739.238 939.559,5737.137 930.866,5736.175 C923.9,5735.405 918.396,5729.913 917.61,5722.949 C915.952,5708.259 910.929,5675.52 910.878,5675.19 C910.213,5670.864 911.472,5666.462 914.323,5663.141 C917.173,5659.823 921.33,5657.913 925.704,5657.913 L925.714,5657.913 C950.683,5657.929 977.118,5669.308 994.701,5687.611 C1009.73,5703.254 1017.243,5722.457 1016.427,5743.142 C1015.511,5766.352 1013.175,5781.832 1008.851,5793.332 C1000.38,5815.873 984.509,5819.238 975.802,5819.238 z M946.051,5708.673 C954.226,5711.103 960.44,5715.075 964.887,5720.678 C970.935,5728.299 973.149,5738.086 971.654,5750.602 C971.142,5754.882 970.049,5759.303 968.891,5763.984 C967.206,5770.801 964.386,5782.208 966.716,5785.875 C967.509,5787.121 970.112,5788.29 973.682,5788.999 C974.483,5789.158 975.197,5789.238 975.802,5789.238 C976.561,5789.238 978.342,5789.238 980.77,5782.777 C983.829,5774.638 985.687,5761.285 986.45,5741.958 C987.065,5726.371 979.512,5715.103 973.067,5708.395 C965.273,5700.281 954.644,5694.038 943.522,5690.678 C944.374,5696.531 945.278,5702.902 946.051,5708.673" fill="#3B3C3A"/>
      <path d="M846.924,5729.983 C846.924,5736.419 841.709,5741.635 835.273,5741.635 C828.84,5741.635 823.621,5736.419 823.621,5729.983 C823.621,5723.548 828.84,5718.333 835.273,5718.333 C841.709,5718.333 846.924,5723.548 846.924,5729.983" fill="#3B3C3A"/>
      <path d="M775.919,5729.983 C775.919,5736.419 770.704,5741.635 764.267,5741.635 C757.833,5741.635 752.616,5736.419 752.616,5729.983 C752.616,5723.548 757.833,5718.333 764.267,5718.333 C770.704,5718.333 775.919,5723.548 775.919,5729.983" fill="#3B3C3A"/>
      <path d="M798.745,5759.956 L747.341,5759.956 C747.341,5759.956 750.938,5793.386 798.745,5793.386 C846.55,5793.386 850.149,5759.956 850.149,5759.956 L798.745,5759.956" fill="#3B3C3A"/>
    </g>
  </g>
</svg>
