<?xml version="1.0" encoding="UTF-8"?>
<!DOCTYPE svg PUBLIC "-//W3C//DTD SVG 1.1//EN" "http://www.w3.org/Graphics/SVG/1.1/DTD/svg11.dtd">
<svg version="1.1" xmlns="http://www.w3.org/2000/svg" xmlns:xlink="http://www.w3.org/1999/xlink" x="0" y="0" width="410.15" height="444.196" viewBox="0, 0, 410.15, 444.196">
  <g id="Layer_1" transform="translate(-12.259, -2436.052)">
    <g id="buggy-blue">
      <path d="M422.409,2853.513 C422.409,2868.278 330.595,2880.248 217.335,2880.248 C104.075,2880.248 12.259,2868.278 12.259,2853.513 C12.259,2838.743 104.075,2826.772 217.335,2826.772 C330.595,2826.772 422.409,2838.743 422.409,2853.513" fill="#D6D5D0"/>
      <path d="M360.057,2529.703 L161.258,2730.67 L323.283,2765.39 L360.057,2529.703" fill="#70B7D3"/>
      <path d="M323.283,2780.39 C322.234,2780.39 321.181,2780.28 320.14,2780.057 L158.115,2745.337 C152.756,2744.188 148.45,2740.209 146.884,2734.957 C145.317,2729.706 146.739,2724.017 150.593,2720.121 L349.393,2519.154 C353.97,2514.528 361.007,2513.379 366.815,2516.312 C372.625,2519.244 375.882,2525.586 374.878,2532.016 L338.103,2767.702 C337.468,2771.778 335.181,2775.412 331.783,2777.748 C329.263,2779.482 326.294,2780.39 323.283,2780.39 z M191.187,2721.743 L310.909,2747.397 L338.082,2573.248 L191.187,2721.743" fill="#3B3C3A"/>
      <path d="M369.497,2538.631 L333.567,2820.891 L295.179,2816.002 L331.108,2533.743 L369.497,2538.631" fill="#FFFFFE"/>
      <path d="M333.567,2835.891 C332.937,2835.891 332.305,2835.851 331.673,2835.77 L293.284,2830.882 C285.066,2829.835 279.253,2822.326 280.299,2814.108 L316.228,2531.849 C316.73,2527.902 318.78,2524.317 321.926,2521.882 C325.071,2519.447 329.053,2518.36 333.003,2518.863 L371.391,2523.751 C379.609,2524.797 385.423,2532.307 384.377,2540.525 L348.447,2822.785 C347.945,2826.731 345.895,2830.316 342.749,2832.752 C340.107,2834.797 336.873,2835.891 333.567,2835.891 z M311.953,2803.017 L320.582,2804.116 L352.723,2551.616 L344.094,2550.518 L311.953,2803.017" fill="#3B3C3A"/>
      <path d="M337.599,2585.911 L90.027,2833.484 L62.664,2806.118 L310.235,2558.546 L337.599,2585.911" fill="#FFFFFE"/>
      <path d="M90.027,2848.484 L90.027,2848.484 C86.049,2848.484 82.233,2846.904 79.42,2844.09 L52.057,2816.724 C46.199,2810.866 46.2,2801.369 52.057,2795.512 L299.629,2547.939 C302.441,2545.126 306.257,2543.546 310.235,2543.546 C314.214,2543.546 318.029,2545.126 320.842,2547.939 L348.206,2575.305 C354.064,2581.163 354.064,2590.66 348.206,2596.518 L100.634,2844.091 C97.821,2846.904 94.006,2848.484 90.027,2848.484 z M83.877,2806.119 L90.028,2812.27 L316.387,2585.911 L310.235,2579.759 L83.877,2806.119" fill="#3B3C3A"/>
      <path d="M332.338,2534.873 L217.784,2649.427 L180.087,2499.617 L332.338,2534.873" fill="#70B7D3"/>
      <path d="M217.783,2664.427 C216.452,2664.427 215.109,2664.249 213.791,2663.886 C208.586,2662.448 204.556,2658.324 203.237,2653.087 L165.54,2503.277 C164.264,2498.209 165.72,2492.842 169.38,2489.112 C173.041,2485.381 178.378,2483.825 183.471,2485.004 L335.722,2520.26 C341.032,2521.489 345.258,2525.503 346.758,2530.743 C348.259,2535.983 346.799,2541.625 342.944,2545.479 L228.39,2660.033 C225.54,2662.885 221.708,2664.427 217.783,2664.427 z M200.626,2519.77 L225.877,2620.121 L302.611,2543.386 L200.626,2519.77" fill="#3B3C3A"/>
      <path d="M387.806,2472.527 C404.142,2514.807 400.48,2530.362 341.264,2589.578 C331.965,2580.277 315.171,2563.484 306.567,2554.881 C341.154,2520.294 353.754,2512.625 342.609,2491.639 C324.642,2457.807 371.471,2430.248 387.806,2472.527" fill="#FFFFFE"/>
      <path d="M341.264,2604.578 L341.264,2604.578 C337.286,2604.578 333.471,2602.998 330.657,2600.184 L295.961,2565.487 C290.102,2559.629 290.102,2550.132 295.961,2544.274 C300.438,2539.797 304.593,2535.725 308.258,2532.133 C319.518,2521.095 327.654,2513.121 330.603,2507.682 C331.719,2505.623 332.392,2504.381 329.361,2498.674 C321.593,2484.044 321.606,2468.219 329.4,2455.255 C336.521,2443.411 349.228,2436.052 362.559,2436.052 C379.613,2436.052 394.281,2447.666 401.799,2467.121 C411.046,2491.054 414.845,2509.018 406.895,2530.013 C399.177,2550.4 380.875,2571.181 351.871,2600.185 C349.058,2602.998 345.243,2604.578 341.264,2604.578 z M327.844,2554.943 L341.188,2568.288 C389.478,2518.463 385.723,2508.755 373.814,2477.934 C370.897,2470.383 366.795,2466.052 362.559,2466.052 C359.737,2466.052 356.813,2467.882 355.111,2470.713 C352.841,2474.49 353.105,2479.422 355.857,2484.603 C360.399,2493.157 365.457,2506.337 356.976,2521.98 C351.877,2531.386 342.879,2540.206 329.257,2553.558 C328.794,2554.012 328.322,2554.474 327.844,2554.943" fill="#3B3C3A"/>
      <path d="M150.999,2793.569 C150.999,2821.305 128.514,2843.787 100.781,2843.787 C73.047,2843.787 50.563,2821.305 50.563,2793.569 C50.563,2765.835 73.047,2743.352 100.781,2743.352 C128.514,2743.352 150.999,2765.835 150.999,2793.569" fill="#FFFFFE"/>
      <path d="M100.781,2858.787 C64.82,2858.787 35.563,2829.531 35.563,2793.569 C35.563,2757.608 64.82,2728.352 100.781,2728.352 C136.742,2728.352 165.999,2757.608 165.999,2793.569 C165.999,2829.531 136.742,2858.787 100.781,2858.787 z M100.781,2758.352 C81.362,2758.352 65.563,2774.15 65.563,2793.569 C65.563,2812.988 81.362,2828.787 100.781,2828.787 C120.2,2828.787 135.999,2812.988 135.999,2793.569 C135.999,2774.15 120.2,2758.352 100.781,2758.352" fill="#3B3C3A"/>
      <path d="M369.168,2793.569 C369.168,2821.305 346.683,2843.787 318.95,2843.787 C291.216,2843.787 268.732,2821.305 268.732,2793.569 C268.732,2765.835 291.216,2743.352 318.95,2743.352 C346.683,2743.352 369.168,2765.835 369.168,2793.569" fill="#FFFFFE"/>
      <path d="M318.95,2858.787 C282.989,2858.787 253.732,2829.531 253.732,2793.569 C253.732,2757.608 282.989,2728.352 318.95,2728.352 C354.911,2728.352 384.168,2757.608 384.168,2793.569 C384.168,2829.531 354.911,2858.787 318.95,2858.787 z M318.95,2758.352 C299.531,2758.352 283.732,2774.15 283.732,2793.569 C283.732,2812.988 299.531,2828.787 318.95,2828.787 C338.369,2828.787 354.168,2812.988 354.168,2793.569 C354.168,2774.15 338.369,2758.352 318.95,2758.352" fill="#3B3C3A"/>
    </g>
  </g>
</svg>
