<?xml version="1.0" encoding="UTF-8"?>
<!DOCTYPE svg PUBLIC "-//W3C//DTD SVG 1.1//EN" "http://www.w3.org/Graphics/SVG/1.1/DTD/svg11.dtd">
<svg version="1.1" xmlns="http://www.w3.org/2000/svg" xmlns:xlink="http://www.w3.org/1999/xlink" x="0" y="0" width="420.308" height="403.273" viewBox="0, 0, 420.308, 403.273">
  <g id="Layer_1" transform="translate(-1170.179, -4321.669)">
    <g id="car">
      <path d="M1580.329,4698.209 C1580.329,4712.975 1488.513,4724.943 1375.254,4724.943 C1261.994,4724.943 1170.179,4712.975 1170.179,4698.209 C1170.179,4683.439 1261.994,4671.469 1375.254,4671.469 C1488.513,4671.469 1580.329,4683.439 1580.329,4698.209" fill="#D6D5D0"/>
      <path d="M1509.272,4424.305 C1485.841,4403.457 1467.198,4336.669 1382.139,4336.669 C1297.079,4336.669 1276.704,4403.457 1253.272,4424.305 C1232.28,4442.979 1188.792,4425.457 1188.792,4520.308 C1188.792,4615.162 1298.126,4617.457 1382.139,4617.457 C1466.153,4617.457 1575.487,4615.162 1575.487,4520.308 C1575.487,4425.457 1530.264,4442.979 1509.272,4424.305" fill="#FFFFFE"/>
      <path d="M1382.139,4632.457 C1334.185,4632.457 1287.939,4631.403 1249.278,4618.703 C1199.189,4602.246 1173.792,4569.142 1173.792,4520.308 C1173.792,4485.087 1179.355,4461.05 1191.301,4444.66 C1202.679,4429.048 1217.168,4423.968 1228.809,4419.889 C1234.882,4417.762 1240.126,4415.923 1243.302,4413.098 C1247.688,4409.194 1252.67,4402.183 1258.437,4394.065 C1278.921,4365.235 1309.875,4321.669 1382.139,4321.669 C1454.19,4321.669 1484.269,4365.071 1504.173,4393.791 C1509.893,4402.046 1514.834,4409.173 1519.243,4413.098 C1522.407,4415.912 1527.798,4417.757 1534.04,4419.896 C1545.913,4423.96 1560.688,4429.021 1572.358,4444.55 C1584.726,4461.009 1590.487,4485.082 1590.487,4520.308 C1590.487,4569.142 1565.09,4602.246 1515.001,4618.703 C1476.34,4631.403 1430.094,4632.457 1382.139,4632.457 z M1382.139,4351.669 C1325.361,4351.669 1301.813,4384.812 1282.892,4411.44 C1276.067,4421.048 1270.173,4429.346 1263.243,4435.509 C1255.639,4442.274 1246.657,4445.423 1238.732,4448.201 C1219.984,4454.771 1203.792,4460.446 1203.792,4520.308 C1203.792,4596.173 1288.154,4602.457 1382.139,4602.457 C1476.125,4602.457 1560.487,4596.173 1560.487,4520.308 C1560.487,4492.692 1556.412,4473.268 1548.375,4462.571 C1542.245,4454.416 1533.939,4451.571 1524.321,4448.276 C1516.191,4445.494 1506.976,4442.337 1499.302,4435.512 C1492.217,4429.207 1486.331,4420.714 1479.516,4410.88 C1461.233,4384.5 1438.48,4351.669 1382.139,4351.669" fill="#3B3C3A"/>
      <path d="M1188.973,4526.507 C1193.681,4615.246 1300.001,4617.457 1382.139,4617.457 C1463.464,4617.457 1568.507,4615.303 1575.151,4529.137 C1473.819,4543.815 1272.399,4544.897 1188.973,4526.507" fill="#F6D729"/>
      <path d="M1382.139,4632.457 C1335.404,4632.457 1290.288,4631.473 1252.064,4619.582 C1202.694,4604.225 1176.428,4573.178 1173.995,4527.303 C1173.746,4522.623 1175.698,4518.098 1179.271,4515.068 C1182.845,4512.037 1187.63,4510.85 1192.203,4511.858 C1230.75,4520.354 1299.387,4525.229 1380.515,4525.229 C1453.762,4525.229 1525.72,4521.141 1573.001,4514.291 C1577.508,4513.637 1582.069,4515.068 1585.397,4518.182 C1588.724,4521.292 1590.457,4525.748 1590.107,4530.289 C1586.667,4574.904 1560.054,4605.074 1511.007,4619.962 C1472.994,4631.501 1428.359,4632.457 1382.139,4632.457 z M1207.395,4545.137 C1224.386,4597.708 1299.585,4602.457 1382.139,4602.457 C1463.928,4602.457 1538.529,4597.835 1556.415,4546.662 C1508.897,4552.078 1445.095,4555.229 1380.515,4555.229 C1310.575,4555.229 1249.264,4551.604 1207.395,4545.137" fill="#3B3C3A"/>
      <path d="M1382.139,4386.623 C1343.096,4386.623 1316.229,4407.734 1316.229,4430.734 C1316.229,4453.734 1448.05,4453.734 1448.05,4430.734 C1448.05,4407.734 1421.18,4386.623 1382.139,4386.623" fill="#70B7D3"/>
      <path d="M1382.139,4462.984 C1363.762,4462.984 1346.463,4461.314 1333.428,4458.281 C1312.062,4453.311 1301.229,4444.043 1301.229,4430.734 C1301.229,4397.588 1336.769,4371.623 1382.139,4371.623 C1427.51,4371.623 1463.05,4397.588 1463.05,4430.734 C1463.05,4444.043 1452.217,4453.311 1430.851,4458.281 C1417.816,4461.314 1400.516,4462.984 1382.139,4462.984 z M1331.825,4426.529 C1338.381,4429.219 1355.06,4432.984 1382.139,4432.984 C1409.219,4432.984 1425.898,4429.219 1432.454,4426.529 C1428.886,4413.834 1409.566,4401.623 1382.139,4401.623 C1354.713,4401.623 1335.393,4413.834 1331.825,4426.529" fill="#3B3C3A"/>
      <path d="M1354.575,4604.266 C1354.575,4631.879 1332.19,4654.266 1304.575,4654.266 C1276.962,4654.266 1254.575,4631.879 1254.575,4604.266 C1254.575,4576.65 1276.962,4554.265 1304.575,4554.265 C1332.19,4554.265 1354.575,4576.65 1354.575,4604.266" fill="#FFFFFE"/>
      <path d="M1304.575,4669.266 C1268.734,4669.266 1239.575,4640.105 1239.575,4604.266 C1239.575,4568.424 1268.734,4539.265 1304.575,4539.265 C1340.416,4539.265 1369.575,4568.424 1369.575,4604.266 C1369.575,4640.105 1340.416,4669.266 1304.575,4669.266 z M1304.575,4569.265 C1285.276,4569.265 1269.575,4584.967 1269.575,4604.266 C1269.575,4623.564 1285.276,4639.266 1304.575,4639.266 C1323.874,4639.266 1339.575,4623.564 1339.575,4604.266 C1339.575,4584.967 1323.874,4569.265 1304.575,4569.265" fill="#3B3C3A"/>
      <path d="M1319.645,4604.266 C1319.645,4612.588 1312.899,4619.334 1304.575,4619.334 C1296.253,4619.334 1289.507,4612.588 1289.507,4604.266 C1289.507,4595.943 1296.253,4589.195 1304.575,4589.195 C1312.899,4589.195 1319.645,4595.943 1319.645,4604.266" fill="#3B3C3A"/>
      <path d="M1509.704,4604.266 C1509.704,4631.879 1487.317,4654.266 1459.704,4654.266 C1432.089,4654.266 1409.704,4631.879 1409.704,4604.266 C1409.704,4576.65 1432.089,4554.265 1459.704,4554.265 C1487.317,4554.265 1509.704,4576.65 1509.704,4604.266" fill="#FFFFFE"/>
      <path d="M1459.704,4669.266 C1423.863,4669.266 1394.704,4640.105 1394.704,4604.266 C1394.704,4568.424 1423.863,4539.265 1459.704,4539.265 C1495.545,4539.265 1524.704,4568.424 1524.704,4604.266 C1524.704,4640.105 1495.545,4669.266 1459.704,4669.266 z M1459.704,4569.265 C1440.405,4569.265 1424.704,4584.967 1424.704,4604.266 C1424.704,4623.564 1440.405,4639.266 1459.704,4639.266 C1479.003,4639.266 1494.704,4623.564 1494.704,4604.266 C1494.704,4584.967 1479.003,4569.265 1459.704,4569.265" fill="#3B3C3A"/>
      <path d="M1474.772,4604.266 C1474.772,4612.588 1468.026,4619.334 1459.704,4619.334 C1451.38,4619.334 1444.634,4612.588 1444.634,4604.266 C1444.634,4595.943 1451.38,4589.195 1459.704,4589.195 C1468.026,4589.195 1474.772,4595.943 1474.772,4604.266" fill="#3B3C3A"/>
      <path d="M1244.069,4491.85 C1242.216,4502.178 1234.358,4509.41 1226.52,4508.001 C1218.68,4506.596 1213.831,4497.082 1215.684,4486.754 C1217.538,4476.426 1225.395,4469.193 1233.235,4470.599 C1241.073,4472.008 1245.925,4481.521 1244.069,4491.85" fill="#3B3C3A"/>
    </g>
  </g>
</svg>
