<?xml version="1.0" encoding="UTF-8"?>
<!DOCTYPE svg PUBLIC "-//W3C//DTD SVG 1.1//EN" "http://www.w3.org/Graphics/SVG/1.1/DTD/svg11.dtd">
<svg version="1.1" xmlns="http://www.w3.org/2000/svg" xmlns:xlink="http://www.w3.org/1999/xlink" x="0" y="0" width="415.759" height="439.424" viewBox="0, 0, 415.759, 439.424">
  <g id="Layer_1" transform="translate(-8.171, -6130.688)">
    <g id="cradle">
      <path d="M418.321,6543.378 C418.321,6558.143 326.507,6570.112 213.247,6570.112 C99.987,6570.112 8.171,6558.143 8.171,6543.378 C8.171,6528.608 99.987,6516.637 213.247,6516.637 C326.507,6516.637 418.321,6528.608 418.321,6543.378" fill="#D6D5D0"/>
      <path d="M88.987,6365.022 L88.987,6521.688 L88.987,6365.022" fill="#3B3C3A"/>
      <path d="M73.987,6365.022 L103.987,6365.022 L103.987,6521.688 L73.987,6521.688 z" fill="#3B3C3A"/>
      <path d="M156.987,6365.022 L156.987,6521.688 L156.987,6365.022" fill="#3B3C3A"/>
      <path d="M141.987,6365.022 L171.987,6365.022 L171.987,6521.688 L141.987,6521.688 z" fill="#3B3C3A"/>
      <path d="M128.423,6541.009 C120.628,6541.009 114.159,6540.624 110.099,6540.297 C93.306,6538.951 52.79,6533.661 39.305,6513.681 C34.67,6506.814 36.478,6497.491 43.345,6492.856 C50.21,6488.222 59.534,6490.029 64.168,6496.895 C66.804,6500.62 84.303,6508.445 114.621,6510.553 C145.508,6512.7 174.395,6507.372 183.301,6497.884 C188.97,6491.843 198.464,6491.545 204.504,6497.214 C210.544,6502.883 210.844,6512.377 205.174,6518.417 C187.241,6537.521 151.848,6541.009 128.423,6541.009" fill="#3B3C3A"/>
      <path d="M281.987,6365.022 L281.987,6521.688 L281.987,6365.022" fill="#3B3C3A"/>
      <path d="M266.987,6365.022 L296.987,6365.022 L296.987,6521.688 L266.987,6521.688 z" fill="#3B3C3A"/>
      <path d="M349.987,6365.022 L349.987,6521.688 L349.987,6365.022" fill="#3B3C3A"/>
      <path d="M334.987,6365.022 L364.987,6365.022 L364.987,6521.688 L334.987,6521.688 z" fill="#3B3C3A"/>
      <path d="M321.423,6541.009 C313.628,6541.009 307.159,6540.624 303.099,6540.297 C286.306,6538.951 245.79,6533.661 232.305,6513.681 C227.67,6506.814 229.478,6497.491 236.346,6492.856 C243.21,6488.222 252.534,6490.029 257.168,6496.895 C259.804,6500.62 277.303,6508.445 307.621,6510.553 C338.509,6512.7 367.395,6507.372 376.301,6497.884 C381.971,6491.843 391.463,6491.545 397.504,6497.214 C403.544,6502.883 403.844,6512.377 398.174,6518.417 C380.241,6537.521 344.848,6541.009 321.423,6541.009" fill="#3B3C3A"/>
      <path d="M242.704,6145.688 C292.181,6145.688 386.509,6178.271 386.509,6292.028 C360.181,6292.028 240.245,6292.028 240.245,6292.028 L242.704,6145.688" fill="#F6D729"/>
      <path d="M386.509,6307.028 L240.245,6307.028 C236.223,6307.028 232.37,6305.413 229.55,6302.546 C226.729,6299.678 225.18,6295.798 225.247,6291.776 L227.706,6145.435 C227.844,6137.251 234.517,6130.688 242.704,6130.688 C255.572,6130.688 300.776,6133.104 342.171,6164.207 C369.24,6184.546 401.509,6223.232 401.509,6292.028 C401.509,6300.313 394.793,6307.028 386.509,6307.028 z M255.499,6277.028 L370.895,6277.028 C367.697,6238.964 352.013,6209.127 324.149,6188.191 C302.745,6172.108 277.7,6164.236 257.437,6161.667 L255.499,6277.028" fill="#3B3C3A"/>
      <path d="M52.059,6292.028 L386.508,6292.028 L386.508,6333.688 L52.059,6333.688 z" fill="#FFFFFE"/>
      <path d="M386.509,6348.688 L52.059,6348.688 C43.775,6348.688 37.059,6341.971 37.059,6333.688 L37.059,6292.028 C37.059,6283.743 43.775,6277.028 52.059,6277.028 L386.509,6277.028 C394.793,6277.028 401.509,6283.743 401.509,6292.028 L401.509,6333.688 C401.509,6341.971 394.793,6348.688 386.509,6348.688 z M67.059,6318.688 L371.508,6318.688 L371.508,6307.028 L67.059,6307.028 z" fill="#3B3C3A"/>
      <path d="M197.181,6292.028 L288.181,6292.028 C288.181,6292.028 285.704,6145.688 242.704,6145.688 C199.704,6145.688 197.181,6292.028 197.181,6292.028" fill="#F6D729"/>
      <path d="M288.181,6307.028 L197.181,6307.028 C193.157,6307.028 189.303,6305.411 186.483,6302.543 C183.663,6299.674 182.113,6295.792 182.182,6291.769 C182.209,6290.231 182.903,6253.663 189.015,6216.427 C192.719,6193.868 197.697,6175.659 203.812,6162.307 C215.782,6136.173 231.568,6130.688 242.704,6130.688 C253.841,6130.688 269.628,6136.174 281.59,6162.31 C287.701,6175.663 292.674,6193.873 296.37,6216.432 C302.471,6253.668 303.152,6290.236 303.179,6291.774 C303.246,6295.796 301.696,6299.677 298.877,6302.545 C296.056,6305.413 292.203,6307.028 288.181,6307.028 z M212.804,6277.028 L272.562,6277.028 C271.807,6263.263 270.177,6242.012 266.721,6221.016 C258.575,6171.525 246.622,6160.688 242.704,6160.688 C238.784,6160.688 226.825,6171.526 218.663,6221.021 C215.201,6242.014 213.562,6263.263 212.804,6277.028" fill="#3B3C3A"/>
      <path d="M401.839,6372.291 C383.225,6359.105 385.55,6332.687 385.55,6332.687 L52.372,6332.687 C52.673,6339.856 52.104,6360.995 35.915,6369.853 C20.11,6378.5 37.221,6398.031 54.647,6398.031 C71.387,6398.031 79.72,6385.278 91.026,6385.278 C102.335,6385.278 103.839,6398.844 120.339,6398.844 C137.079,6398.844 145.411,6386.091 156.718,6386.091 C168.026,6386.091 169.53,6399.656 186.03,6399.656 C202.77,6399.656 211.102,6386.903 222.411,6386.903 C233.718,6386.903 235.221,6400.468 251.721,6400.468 C268.464,6400.468 276.794,6387.715 288.102,6387.715 C299.409,6387.715 300.913,6401.281 317.415,6401.281 C333.915,6401.281 335.419,6387.715 346.725,6387.715 C358.034,6387.715 366.364,6400.468 383.104,6400.468 C402.575,6400.468 418.686,6384.226 401.839,6372.291" fill="#F6D729"/>
      <path d="M317.415,6416.281 C302.656,6416.281 294.567,6409.045 289.735,6404.721 C289.04,6404.099 288.156,6403.309 287.538,6402.823 C286.054,6403.274 282.999,6405.037 281.07,6406.15 C274.259,6410.083 264.931,6415.468 251.721,6415.468 C236.964,6415.468 228.876,6408.232 224.043,6403.909 C223.348,6403.288 222.465,6402.497 221.847,6402.011 C220.362,6402.461 217.306,6404.224 215.378,6405.339 C208.566,6409.27 199.237,6414.656 186.03,6414.656 C171.273,6414.656 163.185,6407.421 158.352,6403.097 C157.657,6402.475 156.773,6401.684 156.154,6401.198 C154.671,6401.648 151.616,6403.411 149.687,6404.525 C142.876,6408.458 133.547,6413.844 120.339,6413.844 C105.582,6413.844 97.494,6406.608 92.661,6402.284 C91.966,6401.663 91.082,6400.872 90.463,6400.385 C88.979,6400.836 85.925,6402.599 83.996,6403.713 C77.183,6407.645 67.855,6413.031 54.647,6413.031 C36.957,6413.031 19.386,6400.596 15.478,6385.311 C12.52,6373.745 17.593,6362.779 28.716,6356.694 C37.694,6351.781 37.513,6336.358 37.385,6333.316 C37.214,6329.232 38.717,6325.256 41.546,6322.305 C44.374,6319.355 48.285,6317.687 52.372,6317.687 L385.55,6317.687 C389.794,6317.687 393.85,6319.378 396.694,6322.528 C399.526,6325.666 400.913,6329.745 400.498,6333.948 C400.433,6335.022 399.599,6352.322 410.51,6360.05 C421.795,6368.046 426.348,6379.676 422.692,6391.161 C418.209,6405.245 401.559,6415.468 383.104,6415.468 C369.897,6415.468 360.568,6410.083 353.758,6406.15 C351.829,6405.037 348.774,6403.274 347.29,6402.823 C346.672,6403.309 345.788,6404.1 345.094,6404.721 C340.261,6409.045 332.173,6416.281 317.415,6416.281 z M288.102,6372.715 C298.953,6372.715 305.704,6378.755 309.737,6382.363 C313.28,6385.533 314.238,6386.281 317.415,6386.281 C320.591,6386.281 321.548,6385.533 325.09,6382.364 C329.124,6378.755 335.874,6372.715 346.725,6372.715 C355.847,6372.715 363.005,6376.848 368.758,6380.17 C374.447,6383.454 378.185,6385.468 383.104,6385.468 C386.737,6385.468 389.73,6384.501 391.728,6383.471 C378.503,6373.365 373.415,6358.842 371.527,6347.687 L66.398,6347.687 C63.958,6361.737 57.266,6373.286 47.229,6380.434 C49.164,6381.798 51.865,6383.031 54.647,6383.031 C59.567,6383.031 63.305,6381.017 68.996,6377.731 C74.748,6374.411 81.907,6370.278 91.026,6370.278 C101.879,6370.278 108.63,6376.317 112.663,6379.927 C116.206,6383.095 117.163,6383.844 120.339,6383.844 C125.259,6383.844 128.996,6381.829 134.687,6378.544 C140.439,6375.223 147.598,6371.091 156.718,6371.091 C167.57,6371.091 174.321,6377.13 178.354,6380.739 C181.897,6383.908 182.854,6384.656 186.03,6384.656 C190.95,6384.656 194.687,6382.642 200.379,6379.357 C206.132,6376.036 213.291,6371.903 222.411,6371.903 C233.263,6371.903 240.013,6377.942 244.046,6381.551 C247.589,6384.72 248.546,6385.468 251.721,6385.468 C256.642,6385.468 260.38,6383.454 266.071,6380.169 C271.823,6376.848 278.982,6372.715 288.102,6372.715" fill="#3B3C3A"/>
    </g>
  </g>
</svg>
