<?xml version="1.0" encoding="UTF-8"?>
<!DOCTYPE svg PUBLIC "-//W3C//DTD SVG 1.1//EN" "http://www.w3.org/Graphics/SVG/1.1/DTD/svg11.dtd">
<svg version="1.1" xmlns="http://www.w3.org/2000/svg" xmlns:xlink="http://www.w3.org/1999/xlink" x="0" y="0" width="414.322" height="385.354" viewBox="0, 0, 414.322, 385.354">
  <g id="Layer_1" transform="translate(-1749.138, -3724.691)">
    <g id="crib">
      <path d="M2159.289,4083.31 C2159.289,4098.076 2067.473,4110.044 1954.214,4110.044 C1840.954,4110.044 1749.138,4098.076 1749.138,4083.31 C1749.138,4068.541 1840.954,4056.57 1954.214,4056.57 C2067.473,4056.57 2159.289,4068.541 2159.289,4083.31" fill="#D6D5D0"/>
      <path d="M2088.503,3739.691 L2088.503,3796.434 L1826.009,3796.434 L1826.009,3739.691 L1766.052,3739.691 L1766.052,4024.551 L2148.46,4024.551 L2148.46,3739.691 L2088.503,3739.691" fill="#F6D729"/>
      <path d="M2148.46,4039.551 L1766.052,4039.551 C1757.767,4039.551 1751.052,4032.834 1751.052,4024.551 L1751.052,3739.691 C1751.052,3731.406 1757.767,3724.691 1766.052,3724.691 L1826.009,3724.691 C1834.294,3724.691 1841.009,3731.406 1841.009,3739.691 L1841.009,3781.434 L2073.503,3781.434 L2073.503,3739.691 C2073.503,3731.406 2080.219,3724.691 2088.503,3724.691 L2148.46,3724.691 C2156.744,3724.691 2163.46,3731.406 2163.46,3739.691 L2163.46,4024.551 C2163.46,4032.834 2156.744,4039.551 2148.46,4039.551 z M1781.052,4009.551 L2133.46,4009.551 L2133.46,3754.691 L2103.503,3754.691 L2103.503,3796.434 C2103.503,3804.717 2096.787,3811.434 2088.503,3811.434 L1826.009,3811.434 C1817.724,3811.434 1811.009,3804.717 1811.009,3796.434 L1811.009,3754.691 L1781.052,3754.691 L1781.052,4009.551" fill="#3B3C3A"/>
      <path d="M1832.171,3833.857 L1858.341,3833.857 L1858.341,3987.127 L1832.171,3987.127 z" fill="#3B3C3A"/>
      <path d="M1888.171,3833.857 L1914.341,3833.857 L1914.341,3987.127 L1888.171,3987.127 z" fill="#3B3C3A"/>
      <path d="M1944.171,3833.857 L1970.341,3833.857 L1970.341,3987.127 L1944.171,3987.127 z" fill="#3B3C3A"/>
      <path d="M2000.171,3833.857 L2026.341,3833.857 L2026.341,3987.127 L2000.171,3987.127 z" fill="#3B3C3A"/>
      <path d="M2056.171,3833.857 L2082.341,3833.857 L2082.341,3987.127 L2056.171,3987.127 z" fill="#3B3C3A"/>
      <path d="M2036.608,3847.07 C2036.483,3856.859 2041.464,3867.092 2048.126,3870.732 C2055.824,3874.937 2066.057,3876.666 2074.487,3873.494 C2079.936,3871.443 2084.686,3872.892 2083.729,3878.191 C2081.706,3889.371 2061.723,3908.012 2035.05,3893.973 C2009.251,3880.394 2020.676,3854.596 2024.259,3848.959 C2028.949,3841.58 2036.712,3838.814 2036.608,3847.07" fill="#70B7D3"/>
      <path d="M2033.28,3842.023 C2035.258,3842.023 2036.653,3843.539 2036.608,3847.07 C2036.483,3856.859 2041.464,3867.092 2048.126,3870.732 C2053.093,3873.445 2059.116,3875.127 2065.028,3875.127 C2068.28,3875.127 2071.497,3874.619 2074.487,3873.494 C2076.061,3872.902 2077.577,3872.601 2078.913,3872.601 C2082.204,3872.601 2084.41,3874.422 2083.729,3878.191 C2082.221,3886.523 2070.733,3899.002 2053.936,3899.002 C2048.198,3899.002 2041.842,3897.547 2035.05,3893.973 C2009.251,3880.394 2020.676,3854.596 2024.259,3848.959 C2026.942,3844.736 2030.634,3842.023 2033.28,3842.023 z M2033.28,3822.023 L2033.278,3822.023 C2023.512,3822.023 2013.83,3828.082 2007.38,3838.23 C2006.039,3840.34 1994.444,3859.469 2000.229,3881.209 C2002.634,3890.246 2009.011,3902.869 2025.735,3911.67 C2034.978,3916.535 2044.468,3919.002 2053.936,3919.002 C2080.331,3919.002 2100.167,3899.668 2103.409,3881.754 C2104.782,3874.156 2102.968,3866.904 2098.305,3861.324 C2093.673,3855.781 2086.604,3852.601 2078.913,3852.601 C2075.136,3852.601 2071.276,3853.332 2067.442,3854.775 C2066.84,3855.002 2065.981,3855.127 2065.028,3855.127 C2062.926,3855.127 2060.512,3854.543 2058.429,3853.545 C2057.669,3852.484 2056.574,3849.873 2056.606,3847.326 C2056.723,3837.978 2052.875,3832.094 2049.626,3828.805 C2045.307,3824.431 2039.503,3822.023 2033.28,3822.023" fill="#3B3C3A"/>
      <path d="M1849.755,3903.711 C1849.755,3903.711 1854.927,3919.344 1860.085,3919.344 C1865.244,3919.344 1870.416,3903.711 1870.416,3903.711 C1870.416,3903.711 1889.914,3903.457 1889.505,3898.658 C1889.095,3893.855 1877.36,3884.004 1877.36,3884.004 C1877.36,3884.004 1882.153,3865.812 1877.36,3863.285 C1872.568,3860.758 1860.085,3874.486 1860.085,3874.486 C1860.085,3874.486 1847.602,3860.758 1842.809,3863.285 C1838.016,3865.812 1842.809,3884.004 1842.809,3884.004 C1842.809,3884.004 1831.076,3893.855 1830.666,3898.658 C1830.257,3903.457 1849.755,3903.711 1849.755,3903.711" fill="#E46C79"/>
      <path d="M1875.997,3862.975 C1876.497,3862.975 1876.956,3863.072 1877.36,3863.285 C1882.153,3865.812 1877.36,3884.004 1877.36,3884.004 C1877.36,3884.004 1889.095,3893.855 1889.505,3898.658 C1889.914,3903.457 1870.416,3903.711 1870.416,3903.711 C1870.416,3903.711 1865.244,3919.344 1860.085,3919.344 C1854.927,3919.344 1849.755,3903.711 1849.755,3903.711 C1849.755,3903.711 1830.257,3903.457 1830.666,3898.658 C1831.076,3893.855 1842.809,3884.004 1842.809,3884.004 C1842.809,3884.004 1838.016,3865.812 1842.809,3863.285 C1843.214,3863.072 1843.673,3862.975 1844.173,3862.975 C1849.618,3862.975 1860.085,3874.486 1860.085,3874.486 C1860.085,3874.486 1870.553,3862.972 1875.997,3862.975 z M1876.003,3842.974 C1876.001,3842.974 1875.997,3842.974 1875.997,3842.974 C1870.694,3842.974 1865.591,3844.603 1860.085,3848.141 C1854.579,3844.603 1849.475,3842.974 1844.173,3842.974 C1840.429,3842.974 1836.731,3843.879 1833.481,3845.594 C1829.354,3847.769 1822.233,3853.238 1820.905,3865.42 C1820.534,3868.822 1820.618,3872.623 1821.162,3877.037 C1821.163,3877.039 1821.163,3877.041 1821.163,3877.043 C1816.426,3882.125 1811.436,3888.789 1810.739,3896.955 C1810.22,3903.047 1812.223,3908.926 1816.382,3913.514 C1818.305,3915.635 1822.733,3920.519 1836.247,3922.67 C1842.345,3933.736 1850.354,3939.344 1860.085,3939.344 C1869.815,3939.344 1877.827,3933.736 1883.923,3922.67 C1897.437,3920.519 1901.865,3915.635 1903.789,3913.514 C1907.947,3908.926 1909.952,3903.047 1909.432,3896.959 C1908.735,3888.789 1903.745,3882.123 1899.007,3877.043 C1899.007,3877.041 1899.007,3877.039 1899.008,3877.037 C1899.552,3872.623 1899.636,3868.822 1899.264,3865.42 C1897.936,3853.238 1890.815,3847.769 1886.688,3845.594 C1883.442,3843.881 1879.746,3842.974 1876.003,3842.974" fill="#3B3C3A"/>
      <path d="M1997.328,3919.221 C1997.328,3936.137 1983.614,3949.848 1966.698,3949.848 C1949.782,3949.848 1936.068,3936.137 1936.068,3919.221 C1936.068,3902.303 1949.782,3888.59 1966.698,3888.59 C1983.614,3888.59 1997.328,3902.303 1997.328,3919.221" fill="#F6D729"/>
      <path d="M1966.698,3959.848 C1944.295,3959.848 1926.068,3941.621 1926.068,3919.221 C1926.068,3896.816 1944.295,3878.59 1966.698,3878.59 C1989.101,3878.59 2007.328,3896.816 2007.328,3919.221 C2007.328,3941.621 1989.101,3959.848 1966.698,3959.848 z M1966.698,3898.59 C1955.323,3898.59 1946.068,3907.844 1946.068,3919.221 C1946.068,3930.594 1955.323,3939.847 1966.698,3939.847 C1978.073,3939.847 1987.328,3930.594 1987.328,3919.221 C1987.328,3907.844 1978.073,3898.59 1966.698,3898.59" fill="#3B3C3A"/>
      <path d="M1791.291,4064.269 C1783.007,4064.269 1776.291,4057.553 1776.291,4049.269 L1776.291,4024.551 C1776.291,4016.265 1783.007,4009.551 1791.291,4009.551 C1799.575,4009.551 1806.291,4016.265 1806.291,4024.551 L1806.291,4049.269 C1806.291,4057.553 1799.575,4064.269 1791.291,4064.269" fill="#3B3C3A"/>
      <path d="M1843.291,4064.269 C1835.007,4064.269 1828.291,4057.553 1828.291,4049.269 L1828.291,4024.551 C1828.291,4016.265 1835.007,4009.551 1843.291,4009.551 C1851.575,4009.551 1858.291,4016.265 1858.291,4024.551 L1858.291,4049.269 C1858.291,4057.553 1851.575,4064.269 1843.291,4064.269" fill="#3B3C3A"/>
      <path d="M2070.115,4064.269 C2061.831,4064.269 2055.115,4057.553 2055.115,4049.269 L2055.115,4024.551 C2055.115,4016.265 2061.831,4009.551 2070.115,4009.551 C2078.399,4009.551 2085.115,4016.265 2085.115,4024.551 L2085.115,4049.269 C2085.115,4057.553 2078.399,4064.269 2070.115,4064.269" fill="#3B3C3A"/>
      <path d="M2122.115,4064.269 C2113.831,4064.269 2107.115,4057.553 2107.115,4049.269 L2107.115,4024.551 C2107.115,4016.265 2113.831,4009.551 2122.115,4009.551 C2130.399,4009.551 2137.115,4016.265 2137.115,4024.551 L2137.115,4049.269 C2137.115,4057.553 2130.399,4064.269 2122.115,4064.269" fill="#3B3C3A"/>
    </g>
  </g>
</svg>
