<?xml version="1.0" encoding="UTF-8"?>
<!DOCTYPE svg PUBLIC "-//W3C//DTD SVG 1.1//EN" "http://www.w3.org/Graphics/SVG/1.1/DTD/svg11.dtd">
<svg version="1.1" xmlns="http://www.w3.org/2000/svg" xmlns:xlink="http://www.w3.org/1999/xlink" x="0" y="0" width="410.15" height="447.32" viewBox="0, 0, 410.15, 447.32">
  <g id="Layer_1" transform="translate(-1740.804, -1818.763)">
    <g id="cutlery">
      <path d="M2150.954,2239.349 C2150.954,2254.114 2059.138,2266.083 1945.879,2266.083 C1832.619,2266.083 1740.804,2254.114 1740.804,2239.349 C1740.804,2224.579 1832.619,2212.608 1945.879,2212.608 C2059.138,2212.608 2150.954,2224.579 2150.954,2239.349" fill="#D6D5D0"/>
      <path d="M1945.051,2179.176 C1945.051,2195.744 1931.619,2209.176 1915.051,2209.176 L1854.525,2209.176 C1837.957,2209.176 1824.525,2195.744 1824.525,2179.176 L1824.525,2050.728 C1824.525,2034.159 1837.957,2020.728 1854.525,2020.728 L1915.051,2020.728 C1931.619,2020.728 1945.051,2034.159 1945.051,2050.728 L1945.051,2179.176" fill="#E46C79"/>
      <path d="M1915.051,2224.176 L1854.525,2224.176 C1829.712,2224.176 1809.525,2203.989 1809.525,2179.176 L1809.525,2050.728 C1809.525,2025.915 1829.712,2005.728 1854.525,2005.728 L1915.051,2005.728 C1939.864,2005.728 1960.051,2025.915 1960.051,2050.728 L1960.051,2179.176 C1960.051,2203.989 1939.864,2224.176 1915.051,2224.176 z M1854.525,2035.728 C1846.254,2035.728 1839.525,2042.456 1839.525,2050.728 L1839.525,2179.176 C1839.525,2187.446 1846.254,2194.176 1854.525,2194.176 L1915.051,2194.176 C1923.322,2194.176 1930.051,2187.446 1930.051,2179.176 L1930.051,2050.728 C1930.051,2042.456 1923.322,2035.728 1915.051,2035.728 L1854.525,2035.728" fill="#3B3C3A"/>
      <path d="M2105.98,1860.509 C2099.799,1849.816 2089.06,1853.516 2089.06,1860.509 C2089.06,1867.502 2089.06,1896.166 2089.06,1902.065 C2089.06,1907.964 2068.619,1910.914 2068.619,1902.065 C2068.619,1893.217 2068.619,1868.778 2068.619,1860.772 C2068.619,1852.766 2065.248,1848.763 2055.584,1848.763 C2045.922,1848.763 2042.549,1852.766 2042.549,1860.772 C2042.549,1868.778 2042.549,1893.217 2042.549,1902.065 C2042.549,1910.914 2022.107,1907.964 2022.107,1902.065 C2022.107,1896.166 2022.107,1867.502 2022.107,1860.509 C2022.107,1853.516 2011.369,1849.816 2005.189,1860.509 C1999.008,1871.202 1996.199,1931.899 1996.199,1950.71 C1996.199,1969.519 2020.219,1971.086 2031.277,1971.086 L2031.277,2013.513 L2079.89,2013.513 L2079.89,1971.086 C2090.951,1971.086 2114.969,1969.519 2114.969,1950.71 C2114.969,1931.899 2112.162,1871.202 2105.98,1860.509" fill="#FFFFFE"/>
      <path d="M2055.584,1848.763 C2065.248,1848.763 2068.619,1852.766 2068.619,1860.772 C2068.619,1868.778 2068.619,1893.217 2068.619,1902.065 C2068.619,1906.06 2072.784,1907.649 2077.354,1907.649 C2082.908,1907.649 2089.06,1905.302 2089.06,1902.065 C2089.06,1896.166 2089.06,1867.502 2089.06,1860.509 C2089.06,1856.657 2092.316,1853.806 2096.275,1853.806 C2099.506,1853.806 2103.203,1855.705 2105.98,1860.509 C2112.162,1871.202 2114.969,1931.899 2114.969,1950.71 C2114.969,1969.519 2090.951,1971.086 2079.89,1971.086 L2079.89,2013.513 L2031.277,2013.513 L2031.277,1971.086 C2020.219,1971.086 1996.199,1969.519 1996.199,1950.71 C1996.199,1931.899 1999.008,1871.202 2005.189,1860.509 C2007.967,1855.704 2011.663,1853.806 2014.892,1853.806 C2018.851,1853.806 2022.107,1856.658 2022.107,1860.509 C2022.107,1867.502 2022.107,1896.166 2022.107,1902.065 C2022.107,1905.302 2028.26,1907.649 2033.813,1907.649 C2038.383,1907.649 2042.549,1906.06 2042.549,1902.065 C2042.549,1893.217 2042.549,1868.778 2042.549,1860.772 C2042.549,1852.766 2045.922,1848.763 2055.584,1848.763 z M2055.584,1818.763 C2045.14,1818.763 2036.086,1821.543 2029.014,1826.522 C2024.584,1824.741 2019.799,1823.806 2014.894,1823.806 C2000.404,1823.805 1987.066,1831.914 1979.215,1845.497 C1975.597,1851.757 1971.482,1861.667 1968.468,1900.227 C1966.978,1919.273 1966.199,1940.039 1966.199,1950.71 C1966.199,1971.456 1978.517,1988.415 1999.148,1996.075 C1999.849,1996.336 2000.559,1996.586 2001.277,1996.825 L2001.277,2013.513 C2001.277,2030.081 2014.709,2043.513 2031.277,2043.513 L2079.89,2043.513 C2096.459,2043.513 2109.89,2030.081 2109.89,2013.513 L2109.89,1996.825 C2110.609,1996.586 2111.318,1996.336 2112.019,1996.075 C2132.651,1988.415 2144.969,1971.456 2144.969,1950.71 C2144.969,1940.038 2144.189,1919.27 2142.701,1900.227 C2139.687,1861.667 2135.572,1851.757 2131.953,1845.494 C2124.101,1831.913 2110.763,1823.806 2096.275,1823.806 C2091.369,1823.806 2086.585,1824.741 2082.152,1826.522 C2075.081,1821.542 2066.027,1818.763 2055.584,1818.763" fill="#3B3C3A"/>
      <path d="M2115.847,2179.176 C2115.847,2195.744 2102.416,2209.176 2085.847,2209.176 L2025.322,2209.176 C2008.754,2209.176 1995.322,2195.744 1995.322,2179.176 L1995.322,2050.728 C1995.322,2034.159 2008.754,2020.728 2025.322,2020.728 L2085.847,2020.728 C2102.416,2020.728 2115.847,2034.159 2115.847,2050.728 L2115.847,2179.176" fill="#70B7D3"/>
      <path d="M2085.847,2224.176 L2025.322,2224.176 C2000.509,2224.176 1980.322,2203.989 1980.322,2179.176 L1980.322,2050.728 C1980.322,2025.915 2000.509,2005.728 2025.322,2005.728 L2085.847,2005.728 C2110.661,2005.728 2130.847,2025.915 2130.847,2050.728 L2130.847,2179.176 C2130.847,2203.989 2110.661,2224.176 2085.847,2224.176 z M2025.322,2035.728 C2017.051,2035.728 2010.322,2042.456 2010.322,2050.728 L2010.322,2179.176 C2010.322,2187.446 2017.051,2194.176 2025.322,2194.176 L2085.847,2194.176 C2094.119,2194.176 2100.847,2187.446 2100.847,2179.176 L2100.847,2050.728 C2100.847,2042.456 2094.119,2035.728 2085.847,2035.728 L2025.322,2035.728" fill="#3B3C3A"/>
      <path d="M1884.789,1836.058 C1842.174,1836.058 1804.898,1866.869 1804.898,1910.168 C1804.898,1953.467 1851.66,1972.453 1851.66,1972.453 L1851.898,1974.705 L1851.898,2020.728 L1917.678,2020.728 L1917.678,1974.705 L1917.916,1972.453 C1917.916,1972.453 1964.678,1953.467 1964.678,1910.168 C1964.678,1866.869 1927.402,1836.058 1884.789,1836.058" fill="#FFFFFE"/>
      <path d="M1917.678,2035.728 L1851.898,2035.728 C1843.614,2035.728 1836.898,2029.012 1836.898,2020.728 L1836.898,1981.827 C1820.964,1972.874 1789.898,1950.273 1789.898,1910.168 C1789.898,1885.318 1800.182,1862.424 1818.856,1845.701 C1836.602,1829.809 1860.017,1821.058 1884.789,1821.058 C1909.559,1821.058 1932.973,1829.809 1950.72,1845.702 C1969.393,1862.424 1979.678,1885.318 1979.678,1910.168 C1979.678,1950.273 1948.612,1972.874 1932.678,1981.827 L1932.678,2020.728 C1932.678,2029.012 1925.962,2035.728 1917.678,2035.728 z M1866.898,2005.728 L1902.678,2005.728 L1902.678,1974.705 C1902.678,1974.178 1902.705,1973.651 1902.761,1973.127 L1902.999,1970.875 C1903.581,1965.372 1907.146,1960.637 1912.273,1958.556 C1912.591,1958.423 1949.678,1942.625 1949.678,1910.168 C1949.678,1877.022 1921.175,1851.058 1884.789,1851.058 C1848.401,1851.058 1819.898,1877.022 1819.898,1910.168 C1819.898,1942.988 1856.929,1958.403 1857.303,1958.556 C1862.429,1960.637 1865.995,1965.372 1866.577,1970.875 L1866.815,1973.127 C1866.871,1973.651 1866.898,1974.178 1866.898,1974.705 L1866.898,2005.728" fill="#3B3C3A"/>
    </g>
  </g>
</svg>
