<?xml version="1.0" encoding="UTF-8"?>
<!DOCTYPE svg PUBLIC "-//W3C//DTD SVG 1.1//EN" "http://www.w3.org/Graphics/SVG/1.1/DTD/svg11.dtd">
<svg version="1.1" xmlns="http://www.w3.org/2000/svg" xmlns:xlink="http://www.w3.org/1999/xlink" x="0" y="0" width="416.285" height="410.527" viewBox="0, 0, 416.285, 410.527">
  <g id="Layer_1" transform="translate(-3.924, -1855.556)">
    <g id="firework">
      <path d="M414.074,2239.349 C414.074,2254.114 322.26,2266.083 209,2266.083 C95.74,2266.083 3.924,2254.114 3.924,2239.349 C3.924,2224.579 95.74,2212.608 209,2212.608 C322.26,2212.608 414.074,2224.579 414.074,2239.349" fill="#D6D5D0"/>
      <path d="M125.121,1870.556 C208.852,1870.556 391.46,1929.158 405.209,2193.989 C370.029,2145.129 317.453,2073.646 175.407,2063.316 C154.925,2007.988 124.646,1877.054 124.646,1877.054 L125.121,1870.556" fill="#FFFFFE"/>
      <path d="M405.212,2208.99 C400.485,2208.99 395.913,2206.751 393.036,2202.754 C360.186,2157.13 310.545,2088.184 174.319,2078.276 C168.455,2077.851 163.381,2074.038 161.34,2068.524 C140.762,2012.938 111.277,1885.817 110.032,1880.433 C109.422,1877.794 109.549,1875.157 110.278,1872.737 C110.175,1872.024 110.121,1871.296 110.121,1870.556 C110.121,1862.272 116.837,1855.556 125.121,1855.556 C147.665,1855.556 226.971,1860.304 300.959,1921.394 C334.331,1948.948 361.248,1983.899 380.961,2025.275 C403.681,2072.962 416.879,2129.464 420.188,2193.212 C420.534,2199.856 416.46,2205.934 410.182,2208.141 C408.551,2208.714 406.872,2208.99 405.212,2208.99 z M186.305,2049.173 C247.486,2054.931 297.557,2072.257 339.114,2102.007 C357.618,2115.254 372.652,2129.768 385.181,2143.911 C372.159,2057.411 337.516,1990.483 281.858,1944.527 C236.054,1906.708 182.549,1890.063 142.253,1886.37 C149.851,1918.291 170.409,2002.618 186.305,2049.173" fill="#3B3C3A"/>
      <path d="M162.037,1924.281 C153.538,1882.894 136.465,1870.556 125.121,1870.556 C113.778,1870.556 96.704,1882.894 88.205,1924.281 C46.218,1919.575 29.207,1932.001 25.701,1942.788 C22.196,1953.576 28.655,1973.627 65.389,1994.5 C47.94,2032.977 54.5,2052.996 63.678,2059.664 C72.853,2066.331 93.92,2066.384 125.122,2037.897 C156.324,2066.384 177.39,2066.33 186.567,2059.663 C195.744,2052.996 202.305,2032.977 184.853,1994.499 C221.587,1973.627 228.047,1953.576 224.541,1942.787 C221.036,1932 204.024,1919.575 162.037,1924.281" fill="#F6D729"/>
      <path d="M76.427,2078.315 C68.185,2078.315 60.728,2076.062 54.86,2071.799 C48.175,2066.941 29.211,2048.159 46.679,2000.579 C4.58,1972.355 8.882,1946.013 11.435,1938.153 C14.346,1929.193 21.477,1921.414 31.512,1916.247 C41.808,1910.944 55.093,1908.257 70.999,1908.257 C72.838,1908.257 74.721,1908.293 76.64,1908.366 C90.473,1859.606 116.856,1855.556 125.121,1855.556 C133.386,1855.556 159.768,1859.606 173.601,1908.366 C175.522,1908.293 177.405,1908.257 179.244,1908.257 C195.148,1908.257 208.432,1910.944 218.728,1916.246 C228.765,1921.414 235.896,1929.194 238.806,1938.151 C241.361,1946.012 245.664,1972.354 203.565,2000.579 C221.035,2048.159 202.07,2066.94 195.384,2071.798 C189.515,2076.061 182.057,2078.315 173.817,2078.315 C173.816,2078.315 173.817,2078.315 173.817,2078.315 C158.95,2078.315 142.61,2071.349 125.122,2057.581 C107.634,2071.35 91.293,2078.315 76.427,2078.315 z M70.999,1938.257 C47.707,1938.257 40.595,1945.487 39.967,1947.425 C39.13,1949.999 42.343,1964.151 72.8,1981.458 C79.544,1985.29 82.254,1993.632 79.051,2000.695 C64.582,2032.599 70.303,2045.936 72.494,2047.528 C72.897,2047.821 74.178,2048.315 76.427,2048.315 C80.947,2048.315 93.757,2046.222 115.009,2026.819 C120.737,2021.591 129.507,2021.591 135.235,2026.819 C156.486,2046.221 169.296,2048.315 173.817,2048.315 C176.066,2048.315 177.348,2047.82 177.751,2047.528 C179.942,2045.936 185.662,2032.599 171.192,2000.694 C167.989,1993.63 170.699,1985.289 177.443,1981.458 C207.9,1964.151 211.112,1949.999 210.275,1947.423 C209.646,1945.486 202.536,1938.257 179.244,1938.257 C174.449,1938.257 169.222,1938.569 163.708,1939.189 C156.001,1940.055 148.903,1934.896 147.344,1927.299 C140.297,1892.983 127.829,1885.556 125.121,1885.556 C122.413,1885.556 109.945,1892.983 102.898,1927.299 C101.339,1934.897 94.252,1940.05 86.534,1939.189 C81.02,1938.569 75.794,1938.257 70.999,1938.257" fill="#3B3C3A"/>
      <path d="M147.809,2092.227 C199.159,2088.05 358.578,2081.495 405.209,2193.989 C364.957,2168.513 258.14,2161.189 186.999,2212.837 C173.417,2180.776 147.809,2092.227 147.809,2092.227" fill="#FFFFFE"/>
      <path d="M186.998,2227.837 C185.655,2227.837 184.305,2227.657 182.982,2227.289 C178.577,2226.065 174.971,2222.898 173.187,2218.688 C159.414,2186.177 134.456,2100.046 133.4,2096.394 C132.149,2092.07 132.907,2087.413 135.464,2083.708 C138.02,2080.003 142.106,2077.642 146.593,2077.276 C162.079,2076.017 176.733,2075.405 191.395,2075.405 C238.808,2075.405 280.507,2081.869 315.332,2094.618 C366.119,2113.212 401.02,2144.712 419.065,2188.245 C421.569,2194.286 419.872,2201.253 414.869,2205.464 C409.868,2209.675 402.714,2210.161 397.186,2206.664 C380.292,2195.971 349.53,2189.327 316.907,2189.327 C290.019,2189.327 238.534,2193.959 195.811,2224.976 C193.222,2226.855 190.131,2227.837 186.998,2227.837 z M167.502,2105.979 C174,2127.765 185.286,2164.763 194.368,2190.164 C239.991,2163.612 289.647,2159.327 316.907,2159.327 C335.511,2159.327 353.523,2161.241 369.624,2164.766 C327.255,2116.632 252.164,2105.405 191.395,2105.405 C183.486,2105.405 175.57,2105.595 167.502,2105.979" fill="#3B3C3A"/>
      <path d="M171.354,2126.492 C165.933,2100.097 155.045,2092.227 147.809,2092.227 C140.575,2092.227 129.686,2100.097 124.265,2126.492 C97.487,2123.491 86.638,2131.416 84.401,2138.296 C82.166,2145.177 86.286,2157.965 109.714,2171.277 C98.585,2195.817 102.768,2208.585 108.622,2212.838 C114.474,2217.09 127.91,2217.123 147.81,2198.955 C167.711,2217.123 181.146,2217.089 186.999,2212.837 C192.852,2208.585 197.036,2195.817 185.906,2171.276 C209.334,2157.965 213.454,2145.177 211.218,2138.295 C208.983,2131.416 198.133,2123.491 171.354,2126.492" fill="#C2D54A"/>
      <path d="M116.753,2230.167 C110.343,2230.167 104.482,2228.371 99.805,2224.974 C94.943,2221.44 81.392,2208.317 91.319,2177.254 C65.03,2157.957 68.278,2139.377 70.135,2133.661 C71.869,2128.327 80.065,2110.977 112.898,2110.84 C123.127,2079.88 141.801,2077.227 147.809,2077.227 C153.819,2077.227 172.493,2079.88 182.722,2110.84 C215.559,2110.977 223.752,2128.329 225.484,2133.661 C227.341,2139.375 230.592,2157.956 204.301,2177.253 C214.228,2208.319 200.677,2221.44 195.814,2224.974 C191.139,2228.37 185.278,2230.166 178.868,2230.166 C178.867,2230.166 178.868,2230.166 178.867,2230.166 C169.142,2230.166 158.732,2226.184 147.81,2218.308 C136.888,2226.185 126.477,2230.167 116.753,2230.167 z M99.405,2143.192 C100.862,2146.001 105.539,2151.652 117.125,2158.235 C123.868,2162.067 126.578,2170.409 123.375,2177.473 C117.868,2189.616 117.41,2196.938 117.883,2200.063 C120.518,2199.644 127.066,2197.583 137.697,2187.878 C143.426,2182.647 152.195,2182.647 157.924,2187.878 C168.555,2197.583 175.103,2199.642 177.738,2200.062 C178.211,2196.937 177.753,2189.614 172.245,2177.472 C169.042,2170.407 171.752,2162.066 178.496,2158.234 C190.081,2151.651 194.757,2146.001 196.215,2143.192 C194.368,2142.247 190.28,2140.839 182.327,2140.839 C179.471,2140.839 176.341,2141.027 173.025,2141.399 C165.31,2142.27 158.222,2137.108 156.661,2129.51 C153.973,2116.417 150.026,2110.226 147.809,2107.989 C145.594,2110.226 141.647,2116.417 138.959,2129.51 C137.397,2137.107 130.308,2142.263 122.595,2141.399 C119.279,2141.027 116.149,2140.839 113.293,2140.839 C105.339,2140.839 101.251,2142.247 99.405,2143.192" fill="#3B3C3A"/>
    </g>
  </g>
</svg>
