<?xml version="1.0" encoding="UTF-8"?>
<!DOCTYPE svg PUBLIC "-//W3C//DTD SVG 1.1//EN" "http://www.w3.org/Graphics/SVG/1.1/DTD/svg11.dtd">
<svg version="1.1" xmlns="http://www.w3.org/2000/svg" xmlns:xlink="http://www.w3.org/1999/xlink" x="0" y="0" width="410.149" height="436.619" viewBox="0, 0, 410.149, 436.619">
  <g id="Layer_1" transform="translate(-591.22, -3058.527)">
    <g id="flower">
      <path d="M1001.369,3468.411 C1001.369,3483.177 909.554,3495.146 796.294,3495.146 C683.034,3495.146 591.22,3483.177 591.22,3468.411 C591.22,3453.641 683.034,3441.671 796.294,3441.671 C909.554,3441.671 1001.369,3453.641 1001.369,3468.411" fill="#D6D5D0"/>
      <path d="M810.726,3436.618 C797.471,3400.387 928.354,3368.525 944.066,3410.408 C959.076,3450.421 822.844,3469.746 810.726,3436.618" fill="#C2D54A"/>
      <path d="M857.973,3468.49 C824.724,3468.49 802.941,3459.001 796.638,3441.771 C793.103,3432.108 794.675,3421.751 801.064,3412.611 C817.286,3389.403 863.473,3375.535 898.756,3375.535 C929.869,3375.535 950.949,3386.048 958.11,3405.14 C961.91,3415.267 960.525,3425.861 954.213,3434.972 C937.173,3459.563 887.322,3468.49 857.973,3468.49 z M824.796,3431.401 C826.313,3433.668 836.587,3438.49 857.973,3438.49 C890.77,3438.49 922.814,3427.611 929.554,3417.885 C930.395,3416.671 930.294,3416.4 930.022,3415.677 C927.711,3409.516 915.438,3405.535 898.756,3405.535 C881.958,3405.535 862.546,3409.437 846.83,3415.973 C829.726,3423.086 825.114,3429.906 824.796,3431.401" fill="#3B3C3A"/>
      <path d="M759.582,3436.618 C769.75,3400.387 669.355,3368.525 657.303,3410.408 C645.789,3450.421 750.287,3469.746 759.582,3436.618" fill="#C2D54A"/>
      <path d="M723.346,3468.49 C723.346,3468.489 723.343,3468.49 723.34,3468.49 C698.354,3468.488 664.516,3459.259 649.265,3438.999 C641.895,3429.208 639.63,3417.581 642.888,3406.26 C648.507,3386.733 666.429,3375.535 692.059,3375.535 C720.658,3375.535 752.822,3389.516 766.875,3408.055 C774.548,3418.177 777.086,3429.76 774.024,3440.671 C769.064,3458.349 750.591,3468.49 723.346,3468.49 z M692.059,3405.535 C685.431,3405.535 673.976,3406.706 671.718,3414.556 C671.276,3416.092 670.992,3417.979 673.233,3420.956 C680.51,3430.623 702.988,3438.488 723.342,3438.49 C723.343,3438.49 723.346,3438.49 723.346,3438.49 C737.574,3438.49 744.56,3434.632 745.139,3432.566 C745.318,3431.93 745.861,3429.995 742.968,3426.177 C734.485,3414.988 711.173,3405.535 692.059,3405.535" fill="#3B3C3A"/>
      <path d="M779.725,3462.705 C775.337,3462.705 770.919,3461.269 767.228,3458.31 C758.61,3451.4 757.224,3438.814 764.134,3430.195 C788.296,3400.055 782.735,3349.576 782.677,3349.069 C781.344,3338.104 789.155,3328.16 800.12,3326.827 C811.098,3325.493 821.059,3333.328 822.389,3344.292 C822.723,3347.029 830.136,3411.813 795.343,3455.215 C791.392,3460.142 785.586,3462.705 779.725,3462.705" fill="#C2D54A"/>
      <path d="M779.725,3477.705 C771.804,3477.705 764.034,3474.974 757.846,3470.015 C742.789,3457.941 740.36,3435.87 752.429,3420.813 C772.215,3396.133 767.921,3352.195 767.773,3350.772 C766.678,3341.525 769.236,3332.404 774.985,3325.077 C780.75,3317.731 789.033,3313.064 798.309,3311.937 C799.717,3311.765 801.145,3311.679 802.556,3311.679 C820.22,3311.679 835.148,3324.922 837.28,3342.484 C837.643,3345.473 845.75,3416.318 807.046,3464.597 C800.368,3472.927 790.41,3477.705 779.725,3477.705 z M802.556,3341.679 C802.35,3341.679 802.139,3341.692 801.929,3341.718 C799.193,3342.05 797.236,3344.536 797.567,3347.259 C797.846,3349.67 803.834,3404.653 775.838,3439.578 C774.113,3441.728 774.46,3444.883 776.612,3446.608 C777.743,3447.515 778.93,3447.705 779.725,3447.705 C780.451,3447.705 782.284,3447.522 783.638,3445.833 C814.532,3407.296 807.573,3346.711 807.499,3346.103 C807.193,3343.579 805.068,3341.679 802.556,3341.679" fill="#3B3C3A"/>
      <path d="M909.505,3157.144 C910.172,3143.066 918.62,3118.84 921.564,3105.421 C927.42,3078.731 886.895,3066.142 878.895,3096.142 C869.895,3069.142 837.617,3071.096 832.82,3094.664 C821.262,3066.731 787.878,3066.231 778.965,3094.664 C774.168,3071.096 741.89,3069.142 732.89,3096.142 C724.889,3066.142 684.746,3080.564 691.035,3106.245 C694.484,3120.328 701.613,3143.066 702.28,3157.144 C703.985,3193.109 661.762,3214.231 663.916,3281.453 C666.068,3348.619 735.688,3368.629 805.804,3368.662 C805.834,3368.662 805.863,3368.662 805.892,3368.662 C805.922,3368.662 805.951,3368.662 805.98,3368.662 C876.097,3368.629 945.717,3348.619 947.869,3281.453 C950.023,3214.231 907.8,3193.109 909.505,3157.144" fill="#F6D729"/>
      <path d="M805.987,3383.662 C805.987,3383.662 805.982,3383.662 805.98,3383.662 L805.892,3383.662 C763.521,3383.642 728.798,3376.896 702.592,3363.611 C668.642,3346.402 650.085,3318.158 648.924,3281.933 C647.55,3239.067 662.429,3213.098 674.384,3192.231 C681.888,3179.133 687.815,3168.788 687.297,3157.855 C686.871,3148.867 682.851,3133.904 679.621,3121.881 C678.457,3117.545 677.356,3113.45 676.466,3109.813 C673.756,3098.749 676.06,3087.817 682.954,3079.032 C690.172,3069.833 701.45,3064.341 713.125,3064.341 C720.507,3064.341 727.208,3066.474 732.775,3070.369 C739.692,3064.671 748.22,3061.44 757.365,3061.44 C765.302,3061.44 772.675,3063.926 778.723,3068.266 C785.945,3062.056 794.981,3058.527 804.756,3058.527 C814.961,3058.527 824.519,3062.229 832.306,3068.822 C838.493,3064.138 846.149,3061.44 854.42,3061.44 C863.508,3061.44 871.985,3064.631 878.879,3070.262 C884.689,3066.063 891.754,3063.756 899.56,3063.756 C911.052,3063.756 922.167,3069.045 929.293,3077.904 C936.217,3086.512 938.676,3097.426 936.216,3108.635 C935.141,3113.536 933.476,3119.463 931.715,3125.738 C928.657,3136.626 924.851,3150.177 924.488,3157.854 C923.97,3168.788 929.897,3179.133 937.401,3192.231 C949.356,3213.098 964.235,3239.067 962.861,3281.933 C961.7,3318.158 943.142,3346.402 909.193,3363.611 C882.987,3376.896 848.264,3383.642 805.987,3383.662 z M713.125,3094.341 C710.739,3094.341 708.038,3095.661 706.556,3097.551 C705.392,3099.033 705.099,3100.614 705.604,3102.677 C706.416,3105.989 707.473,3109.928 708.594,3114.097 C712.387,3128.213 716.684,3144.212 717.263,3156.435 C718.196,3176.108 709.558,3191.184 700.414,3207.144 C689.3,3226.544 677.806,3246.603 678.908,3280.973 C679.72,3306.28 691.903,3324.559 716.156,3336.853 C737.814,3347.832 768.816,3353.644 805.811,3353.662 L805.98,3368.662 L805.974,3353.662 C842.969,3353.644 873.972,3347.832 895.629,3336.853 C919.882,3324.559 932.065,3306.28 932.877,3280.973 C933.978,3246.603 922.485,3226.544 911.371,3207.144 C902.226,3191.184 893.589,3176.108 894.521,3156.434 C895.047,3145.35 899.182,3130.621 902.831,3117.627 C904.473,3111.781 906.023,3106.26 906.913,3102.206 C907.571,3099.206 906.66,3097.631 905.917,3096.708 C904.497,3094.942 901.942,3093.756 899.56,3093.756 C898.213,3093.756 895.055,3093.756 893.388,3100.007 C891.682,3106.41 885.976,3110.933 879.354,3111.136 C872.712,3111.315 866.761,3107.172 864.665,3100.886 C862.693,3094.971 858.863,3091.44 854.42,3091.44 C852.726,3091.44 848.661,3092.045 847.518,3097.656 C846.203,3104.119 840.82,3108.964 834.255,3109.595 C827.691,3110.228 821.482,3106.495 818.96,3100.399 C815.338,3091.645 809.247,3088.527 804.756,3088.527 C799.578,3088.527 795.394,3092.399 793.278,3099.151 C791.232,3105.68 785.027,3110.014 778.192,3109.644 C771.359,3109.292 765.631,3104.36 764.267,3097.656 C763.124,3092.045 759.059,3091.44 757.365,3091.44 C752.922,3091.44 749.092,3094.971 747.12,3100.886 C745.024,3107.172 739.088,3111.333 732.43,3111.136 C725.809,3110.933 720.103,3106.41 718.396,3100.007 C716.885,3094.341 714.345,3094.341 713.125,3094.341" fill="#3B3C3A"/>
    </g>
  </g>
</svg>
