<?xml version="1.0" encoding="UTF-8"?>
<!DOCTYPE svg PUBLIC "-//W3C//DTD SVG 1.1//EN" "http://www.w3.org/Graphics/SVG/1.1/DTD/svg11.dtd">
<svg version="1.1" xmlns="http://www.w3.org/2000/svg" xmlns:xlink="http://www.w3.org/1999/xlink" x="0" y="0" width="423.337" height="391.96" viewBox="0, 0, 423.337, 391.96">
  <g id="Layer_1" transform="translate(-586.427, -6793.049)">
    <g id="girl">
      <path d="M997.281,7158.276 C997.281,7173.042 905.466,7185.01 792.206,7185.01 C678.946,7185.01 587.132,7173.042 587.132,7158.276 C587.132,7143.507 678.946,7131.536 792.206,7131.536 C905.466,7131.536 997.281,7143.507 997.281,7158.276" fill="#D6D5D0"/>
      <path d="M657.485,6936.943 L657.485,7030.449 C657.485,7030.449 601.427,7030.449 601.427,6979.783 C601.427,6930.468 657.485,6936.943 657.485,6936.943" fill="#FFFFFE"/>
      <path d="M657.485,7045.449 C655.72,7045.449 639.763,7045.233 623.279,7037.784 C599.514,7027.045 586.427,7006.446 586.427,6979.783 C586.427,6943.933 611.254,6921.663 651.22,6921.663 C655.698,6921.663 658.659,6921.979 659.207,6922.042 C666.775,6922.917 672.485,6929.325 672.485,6936.942 L672.485,7030.449 C672.485,7038.732 665.769,7045.449 657.485,7045.449 z M642.485,6952.253 C637.867,6952.891 632.647,6954.176 628.12,6956.689 C623.1,6959.479 616.427,6964.904 616.427,6979.783 C616.427,6994.525 622.313,7004.169 634.952,7010.131 C637.476,7011.322 640.038,7012.248 642.485,7012.965 L642.485,6952.253" fill="#3B3C3A"/>
      <path d="M936.985,6936.943 L936.985,7030.449 C936.985,7030.449 994.764,7030.449 994.764,6979.783 C994.764,6930.468 936.985,6936.943 936.985,6936.943" fill="#FFFFFE"/>
      <path d="M936.985,7045.449 C928.701,7045.449 921.985,7038.732 921.985,7030.449 L921.985,6936.942 C921.985,6929.305 927.724,6922.888 935.314,6922.037 C935.87,6921.974 938.877,6921.663 943.443,6921.663 C984.351,6921.663 1009.764,6943.933 1009.764,6979.783 C1009.764,7006.523 996.316,7027.146 971.898,7037.854 C955.06,7045.235 938.785,7045.449 936.985,7045.449 z M951.985,6952.112 L951.985,7013.127 C954.739,7012.378 957.651,7011.388 960.519,7010.079 C973.649,7004.085 979.764,6994.458 979.764,6979.783 C979.764,6963.474 970.429,6954.191 951.985,6952.112" fill="#3B3C3A"/>
      <path d="M798.745,6865.408 C712.048,6865.408 647.891,6910.897 647.891,6994.149 C647.891,7077.399 717.249,7120.315 798.745,7120.315 C880.239,7120.315 949.599,7077.399 949.599,6994.149 C949.599,6910.897 885.442,6865.408 798.745,6865.408" fill="#FFFFFE"/>
      <path d="M798.745,7135.315 C753.874,7135.315 712.989,7122.897 683.622,7100.348 C650.433,7074.866 632.891,7038.143 632.891,6994.149 C632.891,6949.686 649.652,6912.602 681.363,6886.906 C710.828,6863.029 751.418,6850.408 798.745,6850.408 C846.072,6850.408 886.662,6863.029 916.127,6886.906 C947.838,6912.602 964.599,6949.686 964.599,6994.149 C964.599,7038.143 947.056,7074.866 913.867,7100.348 C884.5,7122.897 843.615,7135.315 798.745,7135.315 z M798.745,6880.408 C733.069,6880.408 662.891,6910.29 662.891,6994.149 C662.891,7076.201 736.075,7105.315 798.745,7105.315 C861.415,7105.315 934.599,7076.201 934.599,6994.149 C934.599,6910.29 864.421,6880.408 798.745,6880.408" fill="#3B3C3A"/>
      <path d="M858.575,6953.042 C858.575,6959.478 853.36,6964.695 846.925,6964.695 C840.491,6964.695 835.272,6959.478 835.272,6953.042 C835.272,6946.607 840.491,6941.392 846.925,6941.392 C853.36,6941.392 858.575,6946.607 858.575,6953.042" fill="#3B3C3A"/>
      <path d="M760.919,6953.042 C760.919,6959.478 755.704,6964.695 749.267,6964.695 C742.833,6964.695 737.616,6959.478 737.616,6953.042 C737.616,6946.607 742.833,6941.392 749.267,6941.392 C755.704,6941.392 760.919,6946.607 760.919,6953.042" fill="#3B3C3A"/>
      <path d="M798.745,6999.729 L747.341,6999.729 C747.341,6999.729 750.938,7033.16 798.745,7033.16 C846.55,7033.16 850.149,6999.729 850.149,6999.729 L798.745,6999.729" fill="#3B3C3A"/>
      <path d="M798.745,7042.317 C770.475,7042.317 755.57,7031.41 748.045,7022.262 C739.672,7012.083 738.359,7001.843 738.237,7000.709 C737.959,6998.125 738.792,6995.545 740.529,6993.611 C742.265,6991.677 744.742,6990.573 747.341,6990.573 L850.149,6990.573 C852.748,6990.573 855.225,6991.677 856.961,6993.611 C858.698,6995.545 859.531,6998.126 859.253,7000.71 C859.131,7001.843 857.818,7012.084 849.445,7022.262 C841.919,7031.41 827.013,7042.317 798.745,7042.317 z M760.863,7008.886 C761.424,7009.686 762.053,7010.497 762.759,7011.302 C770.135,7019.731 782.242,7024.005 798.745,7024.005 C821.011,7024.005 831.624,7015.91 836.642,7008.886 L760.863,7008.886" fill="#3B3C3A"/>
      <path d="M826.645,6830.089 C818.007,6817.009 799.409,6798.569 790.567,6804.037 C781.723,6809.503 780.022,6822.937 781.694,6831.53 C783.366,6840.123 782.68,6846.882 777.548,6851.675 C772.419,6856.472 764.948,6871.677 770.565,6880.065 C776.18,6888.455 808.46,6881.291 816.337,6872.716 C824.212,6864.144 832.495,6838.946 826.645,6830.089" fill="#E46C79"/>
      <path d="M782.199,6893.804 L782.198,6893.804 C772.596,6893.804 765.887,6891.053 762.255,6885.628 C753.114,6871.978 762.753,6851.82 770.717,6844.372 C771.554,6843.589 773.5,6841.772 771.879,6833.44 C769.402,6820.711 772.549,6803.418 785.309,6795.53 C787.971,6793.884 790.982,6793.049 794.259,6793.049 C813.939,6793.049 834.781,6824.262 834.99,6824.579 C844.449,6838.9 833.17,6869.174 823.701,6879.48 C815.83,6888.049 795.887,6893.804 782.199,6893.804 z M778.542,6873.511 C779.262,6873.655 780.434,6873.804 782.198,6873.804 C792.615,6873.806 806.254,6868.911 808.972,6865.95 C815.077,6859.306 820.326,6840.125 818.247,6835.518 C810.507,6823.833 799.411,6814.491 794.969,6813.195 C791.601,6816.283 790.415,6823.99 791.511,6829.622 C792.434,6834.372 795.248,6848.829 784.373,6858.983 C781.196,6861.954 778.068,6870.136 778.542,6873.511" fill="#3B3C3A"/>
      <path d="M868.149,6840.816 C882.046,6833.561 907.249,6826.439 912.335,6835.505 C917.423,6844.572 912.401,6857.148 906.778,6863.855 C901.151,6870.563 898.477,6876.808 900.643,6883.488 C902.807,6890.168 901.974,6907.089 892.997,6911.705 C884.02,6916.322 859.253,6894.417 856.517,6883.101 C853.78,6871.784 858.745,6845.73 868.149,6840.816" fill="#E46C79"/>
      <path d="M890.109,6922.334 C874.496,6922.334 850.238,6899.681 846.797,6885.452 C843.508,6871.847 848.306,6839.9 863.518,6831.952 C873.732,6826.62 889.462,6821.24 901.585,6821.24 C913.333,6821.24 918.658,6826.337 921.056,6830.613 C928.395,6843.69 922.772,6860.342 914.441,6870.28 C908.983,6876.786 909.805,6879.321 910.156,6880.402 C913.517,6890.78 912.185,6913.083 897.569,6920.598 C895.33,6921.75 892.819,6922.334 890.109,6922.334 z M872.867,6849.634 C868.817,6852.658 864.116,6871.981 866.236,6880.75 C866.608,6882.291 869.637,6887.504 876.622,6893.802 C882.365,6898.979 887.025,6901.411 889.188,6902.115 C891.243,6899.4 892.473,6890.717 891.13,6886.569 C886.541,6872.417 896.007,6861.136 899.117,6857.428 C902.788,6853.05 905.478,6845.768 904.062,6841.431 C903.557,6841.335 902.76,6841.24 901.585,6841.24 C893.405,6841.24 880.711,6845.556 872.867,6849.634" fill="#3B3C3A"/>
      <path d="M847.632,6831.026 C844.868,6822.558 830.104,6816.704 824.782,6826.344 C819.462,6835.985 809.499,6867.687 811.77,6878.065 C814.042,6888.446 829.227,6889.92 833.462,6884.487 C836.325,6892.571 849.96,6897.317 854.923,6890.44 C859.884,6883.562 870.466,6846.717 869.987,6837.618 C869.509,6828.519 853.921,6824.489 847.632,6831.026" fill="#E46C79"/>
      <path d="M847.719,6903.75 L847.718,6903.75 C841.397,6903.75 835.117,6901.166 830.468,6897.066 C828.854,6897.405 827.151,6897.581 825.387,6897.581 C813.857,6897.581 804.24,6890.435 802.002,6880.204 C798.865,6865.874 810.477,6831.568 816.027,6821.512 C819.592,6815.057 825.924,6811.354 833.4,6811.354 C839.859,6811.354 846.225,6814.077 850.872,6818.385 C852.6,6818.003 854.414,6817.807 856.291,6817.807 C867.433,6817.807 879.339,6825.021 879.973,6837.092 C880.562,6848.291 869.322,6887.57 863.033,6896.291 C859.611,6901.031 854.03,6903.75 847.719,6903.75 z M833.461,6874.487 C833.992,6874.487 834.528,6874.529 835.062,6874.616 C838.669,6875.202 841.669,6877.706 842.888,6881.148 C843.235,6882.04 845.463,6883.536 847.328,6883.729 C851.274,6876.425 859.749,6846.515 860.004,6838.844 C859.376,6838.415 857.993,6837.807 856.291,6837.807 C855.446,6837.807 854.923,6837.972 854.745,6838.056 C852.313,6840.517 848.782,6841.549 845.397,6840.773 C841.974,6839.989 839.215,6837.466 838.125,6834.129 C837.76,6833.12 835.316,6831.379 833.44,6831.354 C828.2,6841.02 820.134,6869.504 821.539,6875.927 C821.746,6876.875 823.742,6877.581 825.387,6877.581 C825.781,6877.581 826.091,6877.543 826.306,6877.502 C828.19,6875.57 830.775,6874.487 833.461,6874.487" fill="#3B3C3A"/>
    </g>
  </g>
</svg>
