<?xml version="1.0" encoding="UTF-8"?>
<!DOCTYPE svg PUBLIC "-//W3C//DTD SVG 1.1//EN" "http://www.w3.org/Graphics/SVG/1.1/DTD/svg11.dtd">
<svg version="1.1" xmlns="http://www.w3.org/2000/svg" xmlns:xlink="http://www.w3.org/1999/xlink" x="0" y="0" width="422.922" height="421.389" viewBox="0, 0, 422.922, 421.389">
  <g id="Layer_1" transform="translate(-582.885, 0)">
    <g id="horse">
      <path
              d="M993.034,394.653 C993.034,409.419 901.219,421.389 787.959,421.389 C674.699,421.389 582.885,409.419 582.885,394.653 C582.885,379.884 674.699,367.913 787.959,367.913 C901.219,367.913 993.034,379.884 993.034,394.653" fill="none"/>
      <path d="M898.761,157.375 C916.035,148.579 939.846,131.833 946.452,111.679 C953.057,91.524 992.448,91.267 990.753,120.896 C989.057,150.524 959.847,185.374 929.952,197.449 C900.058,209.524 881.046,166.396 898.761,157.375" fill="#C2D54A"/>
      <path d="M919.602,214.566 C897.856,214.566 882.256,196.971 878.086,179.591 C874.381,164.151 879.825,150.185 891.954,144.008 C907.523,136.081 927.404,121.634 932.198,107.007 C937.009,92.329 951.737,82.466 968.847,82.466 C979.529,82.466 989.528,86.566 996.279,93.714 C1001.034,98.749 1006.532,107.7 1005.728,121.752 C1003.75,156.334 972.276,196.531 935.57,211.357 C930.299,213.486 924.927,214.566 919.602,214.566 z M906.924,170.042 C906.909,171.799 907.667,175.417 910.292,178.996 C911.817,181.076 915.055,184.566 919.602,184.566 C921.058,184.566 922.65,184.221 924.334,183.541 C949.948,173.195 974.468,142.927 975.777,120.039 C975.884,118.172 975.744,115.663 974.469,114.313 C973.393,113.174 971.239,112.466 968.847,112.466 C965.059,112.466 961.408,114.209 960.706,116.351 C951.663,143.942 921.09,162.651 906.924,170.042" fill="#3B3C3A"/>
      <path d="M810.512,126.146 C738.058,126.146 679.623,163.862 679.591,255.991 C679.586,270.156 750.706,273.163 752.057,261.806 C756.283,226.299 776.465,200.984 810.512,200.984 C844.56,200.984 864.742,226.299 868.968,261.806 C870.319,273.163 941.439,270.156 941.434,255.991 C941.402,163.862 882.968,126.146 810.512,126.146" fill="#FFFFFE"/>
      <path d="M896.579,283.753 C896.579,283.753 896.578,283.753 896.576,283.753 C890.528,283.753 881.736,283.391 874.199,281.667 C858.928,278.173 854.825,269.902 854.073,263.578 C852.37,249.268 844.716,215.984 810.512,215.984 C776.309,215.984 768.655,249.268 766.952,263.578 C766.2,269.902 762.097,278.173 746.827,281.667 C739.291,283.391 730.498,283.753 724.448,283.753 C712.498,283.753 700.203,282.399 690.716,280.038 C669.118,274.663 664.588,263.992 664.591,255.986 C664.607,207.977 679.196,170.733 707.953,145.287 C733.193,122.951 768.658,111.146 810.512,111.146 C852.367,111.146 887.832,122.951 913.072,145.287 C941.829,170.733 956.418,207.977 956.434,255.986 C956.437,263.992 951.907,274.664 930.31,280.039 C920.824,282.399 908.529,283.753 896.579,283.753 z M882.786,252.791 C885.71,253.285 890.247,253.753 896.577,253.753 C909.556,253.753 920.722,251.859 926.344,250.031 C923.469,155.474 852.914,141.146 810.512,141.146 C768.111,141.146 697.556,155.473 694.681,250.031 C700.304,251.859 711.471,253.753 724.448,253.753 C730.778,253.753 735.315,253.285 738.239,252.791 C745.666,211.377 772.852,185.984 810.512,185.984 C848.173,185.984 875.359,211.377 882.786,252.791" fill="#3B3C3A"/>
      <path d="M782.52,313.839 C782.52,352.13 751.478,383.172 713.186,383.172 C674.895,383.172 643.853,352.13 643.853,313.839 C643.853,275.547 674.895,244.505 713.186,244.505 C751.478,244.505 782.52,275.547 782.52,313.839" fill="#70B7D3"/>
      <path d="M713.186,398.172 C666.685,398.172 628.853,360.34 628.853,313.839 C628.853,267.337 666.685,229.505 713.186,229.505 C759.688,229.505 797.52,267.337 797.52,313.839 C797.52,360.34 759.688,398.172 713.186,398.172 z M713.186,259.505 C683.227,259.505 658.853,283.879 658.853,313.839 C658.853,343.798 683.227,368.172 713.186,368.172 C743.146,368.172 767.52,343.798 767.52,313.839 C767.52,283.879 743.146,259.505 713.186,259.505" fill="#3B3C3A"/>
      <path d="M974.628,313.839 C974.628,352.13 943.586,383.172 905.294,383.172 C867.003,383.172 835.961,352.13 835.961,313.839 C835.961,275.547 867.003,244.505 905.294,244.505 C943.586,244.505 974.628,275.547 974.628,313.839" fill="#70B7D3"/>
      <path d="M905.294,398.172 C858.793,398.172 820.961,360.34 820.961,313.839 C820.961,267.337 858.793,229.505 905.294,229.505 C951.796,229.505 989.628,267.337 989.628,313.839 C989.628,360.34 951.796,398.172 905.294,398.172 z M905.294,259.505 C875.335,259.505 850.961,283.879 850.961,313.839 C850.961,343.798 875.335,368.172 905.294,368.172 C935.254,368.172 959.628,343.798 959.628,313.839 C959.628,283.879 935.254,259.505 905.294,259.505" fill="#3B3C3A"/>
      <path d="M743.387,19.724 C704.386,24.767 603.195,76.395 630.833,137.288 C647.388,173.763 684.114,171.016 702.723,163.823 C732.72,152.229 764.721,132.211 786.721,116.887 C808.721,101.563 783.387,14.552 743.387,19.724" fill="#C2D54A"/>
      <path d="M678.602,183.252 L678.6,183.252 C650.626,183.251 628.811,169.129 617.174,143.487 C608.101,123.498 609.267,102.225 620.547,81.968 C645.112,37.853 711.308,8.747 741.464,4.848 C743.236,4.618 745.033,4.502 746.804,4.502 C776.124,4.502 795.846,34.048 804.526,61.699 C812.132,85.922 813.7,116.375 795.294,129.195 C777.31,141.722 742.073,164.695 708.131,177.814 C699.058,181.321 688.572,183.252 678.602,183.252 z M746.804,34.502 C746.308,34.502 745.818,34.534 745.311,34.6 C720.978,37.746 665.078,63.661 646.758,96.563 C640.108,108.504 639.367,119.797 644.492,131.089 C651.167,145.794 662.642,153.251 678.6,153.252 L678.602,153.252 C684.871,153.252 691.691,152.005 697.314,149.832 C728.202,137.894 761.005,116.507 777.942,104.721 C780.726,101.148 781.903,81.887 771.609,59.5 C764.626,44.314 754.89,34.502 746.804,34.502" fill="#3B3C3A"/>
      <path d="M810.479,71.073 C822.931,107.86 817.763,142.849 798.935,149.222 C780.106,155.596 754.749,130.939 742.296,94.153 C729.845,57.365 735.012,22.377 753.842,16.004 C772.669,9.631 798.026,34.286 810.479,71.073" fill="#C2D54A"/>
      <path d="M792.743,165.225 C767.487,165.225 741.505,138.597 728.088,98.963 C712.493,52.888 721.498,11.115 749.033,1.796 C752.552,0.604 756.253,-0 760.033,-0 C785.288,-0 811.27,26.63 824.687,66.264 C840.283,112.337 831.279,154.109 803.745,163.43 C800.226,164.621 796.524,165.225 792.743,165.225 z M760.033,30 C759.523,30 759.071,30.07 758.651,30.212 C751.641,32.584 745.502,56.837 756.504,89.344 C766.505,118.886 784.279,135.225 792.743,135.225 C793.253,135.225 793.705,135.156 794.126,135.014 C801.136,132.641 807.274,108.389 796.271,75.883 C786.27,46.34 768.496,30 760.033,30" fill="#3B3C3A"/>
      <path d="M631.572,152.852 C631.572,162.429 623.808,170.192 614.231,170.192 C604.655,170.192 596.891,162.429 596.891,152.852 C596.891,143.274 604.655,135.512 614.231,135.512 C623.808,135.512 631.572,143.274 631.572,152.852" fill="#3B3C3A"/>
      <path d="M705.04,79.849 C705.04,85.538 700.429,90.151 694.738,90.151 C689.05,90.151 684.436,85.538 684.436,79.849 C684.436,74.158 689.05,69.548 694.738,69.548 C700.429,69.548 705.04,74.158 705.04,79.849" fill="#3B3C3A"/>
    </g>
  </g>
</svg>
