<?xml version="1.0" encoding="UTF-8"?>
<!DOCTYPE svg PUBLIC "-//W3C//DTD SVG 1.1//EN" "http://www.w3.org/Graphics/SVG/1.1/DTD/svg11.dtd">
<svg version="1.1" xmlns="http://www.w3.org/2000/svg" xmlns:xlink="http://www.w3.org/1999/xlink" x="0" y="0" width="419.242" height="412.665" viewBox="0, 0, 419.242, 412.665">
  <g id="Layer_1" transform="translate(-2.979, -5542.55)">
    <g id="month">
      <path
              d="M418.321,5928.479 C418.321,5943.244 326.507,5955.215 213.247,5955.215 C99.987,5955.215 8.171,5943.244 8.171,5928.479 C8.171,5913.71 99.987,5901.739 213.247,5901.739 C326.507,5901.739 418.321,5913.71 418.321,5928.479" fill="none"/>
      <path d="M169.462,5664.061 C168.835,5713.389 193.939,5764.962 227.509,5783.302 C266.308,5804.499 317.874,5813.208 360.36,5797.221 C387.825,5786.887 410.038,5793.938 406.932,5820.898 C399.236,5887.722 288.284,5970.081 161.614,5900.422 C32.875,5829.625 89.174,5701.983 107.231,5673.579 C130.87,5636.396 169.992,5622.454 169.462,5664.061" fill="#F6D729"/>
      <path d="M258.717,5941.897 C223.675,5941.897 188.572,5932.366 154.386,5913.565 C108.801,5888.497 80.148,5854.173 69.225,5811.546 C62.132,5783.865 62.762,5753.693 71.097,5721.87 C77.473,5697.53 87.404,5676.807 94.573,5665.532 C110.755,5640.078 133.569,5623.632 152.695,5623.632 C161.056,5623.632 168.431,5626.626 174.025,5632.292 C181.129,5639.487 184.639,5650.239 184.461,5664.251 C183.905,5707.933 205.973,5754.444 234.7,5770.138 C258.683,5783.241 286.38,5790.457 312.686,5790.457 C327.987,5790.457 342.25,5788.009 355.077,5783.182 C364.784,5779.53 374.014,5777.678 382.513,5777.678 C395.346,5777.678 405.918,5781.929 413.088,5789.972 C418.14,5795.64 423.759,5805.904 421.834,5822.614 C418.501,5851.553 399.831,5881.231 370.611,5904.04 C339.333,5928.452 299.596,5941.897 258.717,5941.897 z M152.695,5653.632 C146.642,5653.632 132.031,5662.529 119.889,5681.626 C119.512,5682.221 82.309,5741.75 98.286,5804.098 C107.07,5838.376 130.808,5866.363 168.842,5887.279 C198.549,5903.615 228.787,5911.897 258.717,5911.897 C292.939,5911.897 326.121,5900.708 352.152,5880.39 C374.739,5862.761 389.647,5839.878 392.031,5819.181 C392.533,5814.822 392.046,5811.451 390.693,5809.935 C389.433,5808.521 386.376,5807.678 382.513,5807.678 C377.704,5807.678 371.871,5808.917 365.642,5811.26 C349.426,5817.362 331.609,5820.457 312.686,5820.457 C281.44,5820.457 248.636,5811.936 220.317,5796.465 C201.373,5786.116 184.275,5766.726 172.175,5741.868 C160.421,5717.722 154.131,5690.021 154.463,5663.869 C154.548,5657.199 153.32,5654.44 152.85,5653.635 C152.804,5653.633 152.753,5653.632 152.695,5653.632" fill="#3B3C3A"/>
      <path d="M51.951,5573.748 C79.282,5556.209 149.84,5549.267 172.284,5571.711 C194.728,5594.156 198.282,5633.081 190.95,5660.578 C176.819,5660.578 85.378,5660.578 85.378,5660.578 C106.886,5625.985 109.98,5592.203 57.946,5604.051 C14.69,5613.901 32.842,5586.009 51.951,5573.748" fill="#E46C79"/>
      <path d="M190.95,5675.578 L85.378,5675.578 C79.931,5675.578 74.913,5672.627 72.266,5667.866 C69.621,5663.105 69.764,5657.284 72.639,5652.659 C85.021,5632.743 86.006,5620.863 84.542,5618.229 C84.306,5617.803 81.981,5616.635 76.589,5616.635 C72.379,5616.635 67.226,5617.323 61.276,5618.678 C54.062,5620.32 48.014,5621.118 42.783,5621.118 C23.9,5621.118 18.606,5610.02 17.208,5605.248 C11.941,5587.292 31.477,5569.063 43.851,5561.124 C61.432,5549.841 92.01,5542.55 121.75,5542.55 C141.178,5542.55 167.556,5545.769 182.89,5561.105 C210.07,5588.285 213.635,5633.725 205.443,5664.443 C203.693,5671.01 197.746,5675.578 190.95,5675.578 z M109.824,5645.578 L178.621,5645.578 C181.431,5623.713 176.919,5597.56 161.678,5582.318 C156.955,5577.596 143.986,5572.55 121.75,5572.55 C98.48,5572.55 72.533,5578.364 60.053,5586.373 C58.726,5587.223 57.47,5588.128 56.294,5589.055 C63.767,5587.449 70.587,5586.635 76.589,5586.635 C97.017,5586.635 106.449,5595.891 110.764,5603.656 C117.633,5616.013 115.388,5631.262 109.824,5645.578" fill="#3B3C3A"/>
      <path d="M67.613,5590.381 C67.613,5599.945 59.86,5607.699 50.297,5607.699 C40.733,5607.699 32.979,5599.945 32.979,5590.381 C32.979,5580.817 40.733,5573.064 50.297,5573.064 C59.86,5573.064 67.613,5580.817 67.613,5590.381" fill="#FFFFFE"/>
      <path d="M50.297,5573.064 C59.86,5573.064 67.613,5580.817 67.613,5590.381 C67.613,5599.945 59.86,5607.699 50.297,5607.699 C40.733,5607.699 32.979,5599.945 32.979,5590.381 C32.979,5580.817 40.733,5573.064 50.297,5573.064 z M50.297,5543.064 C24.206,5543.064 2.979,5564.291 2.979,5590.381 C2.979,5616.472 24.206,5637.699 50.297,5637.699 C76.388,5637.699 97.613,5616.472 97.613,5590.381 C97.613,5564.291 76.388,5543.064 50.297,5543.064" fill="#3B3C3A"/>
      <path d="M194.282,5659.245 L75.617,5659.245 C63.834,5659.245 54.283,5668.797 54.283,5680.579 C54.283,5692.362 63.834,5701.912 75.617,5701.912 L194.282,5701.912 C206.065,5701.912 215.616,5692.362 215.616,5680.579 C215.616,5668.797 206.065,5659.245 194.282,5659.245" fill="#FFFFFE"/>
      <path d="M194.282,5716.912 L75.617,5716.912 C55.583,5716.912 39.283,5700.614 39.283,5680.579 C39.283,5660.545 55.583,5644.245 75.617,5644.245 L194.282,5644.245 C214.316,5644.245 230.616,5660.545 230.616,5680.579 C230.616,5700.614 214.316,5716.912 194.282,5716.912 z M75.617,5674.245 C72.125,5674.245 69.283,5677.087 69.283,5680.579 C69.283,5684.072 72.125,5686.912 75.617,5686.912 L194.282,5686.912 C197.774,5686.912 200.616,5684.072 200.616,5680.579 C200.616,5677.087 197.774,5674.245 194.282,5674.245 L75.617,5674.245" fill="#3B3C3A"/>
      <path d="M162.794,5764.226 C162.794,5770.662 157.579,5775.879 151.141,5775.879 C144.708,5775.879 139.491,5770.662 139.491,5764.226 C139.491,5757.791 144.708,5752.576 151.141,5752.576 C157.579,5752.576 162.794,5757.791 162.794,5764.226" fill="#3B3C3A"/>
      <path d="M208.618,5845.562 C207.199,5845.562 205.767,5845.536 204.32,5845.479 C196.042,5845.153 189.595,5838.179 189.92,5829.901 C190.244,5821.625 197.207,5815.182 205.496,5815.501 C230.989,5816.502 251.868,5804.708 267.107,5796.098 C269.456,5794.771 271.676,5793.516 273.792,5792.375 C281.085,5788.445 290.183,5791.172 294.113,5798.464 C298.043,5805.757 295.317,5814.855 288.024,5818.784 C286.173,5819.782 284.08,5820.964 281.866,5822.216 C265.27,5831.594 240.55,5845.562 208.618,5845.562" fill="#3B3C3A"/>
    </g>
  </g>
</svg>
