<?xml version="1.0" encoding="UTF-8"?>
<!DOCTYPE svg PUBLIC "-//W3C//DTD SVG 1.1//EN" "http://www.w3.org/Graphics/SVG/1.1/DTD/svg11.dtd">
<svg version="1.1" xmlns="http://www.w3.org/2000/svg" xmlns:xlink="http://www.w3.org/1999/xlink" x="0" y="0" width="438.569" height="433.063" viewBox="0, 0, 438.569, 433.063">
  <g id="Layer_1" transform="translate(0, -6751.947)">
    <g id="music-mobile">
      <path d="M418.321,7158.276 C418.321,7173.042 326.507,7185.01 213.247,7185.01 C99.987,7185.01 8.171,7173.042 8.171,7158.276 C8.171,7143.507 99.987,7131.536 213.247,7131.536 C326.507,7131.536 418.321,7143.507 418.321,7158.276" fill="#D6D5D0"/>
      <path d="M395.257,6911.92 C371.307,6895.98 313.434,6869.373 220.657,6869.373 C127.882,6869.373 70.007,6895.98 46.059,6911.92 C22.11,6927.858 39.616,6965.356 62.235,6951.457 C84.854,6937.556 156.307,6916.381 220.657,6916.381 C285.009,6916.381 356.46,6937.556 379.079,6951.457 C401.7,6965.356 419.206,6927.858 395.257,6911.92" fill="#C2D54A"/>
      <path d="M388.884,6969.488 L388.881,6969.488 C382.837,6969.488 376.896,6967.721 371.225,6964.236 C352.567,6952.771 284.412,6931.381 220.657,6931.381 C156.902,6931.381 88.747,6952.771 70.089,6964.236 C64.417,6967.721 58.476,6969.488 52.432,6969.488 C38.345,6969.488 25.839,6959.431 21.312,6944.462 C16.1,6927.222 22.552,6909.546 37.749,6899.433 C53.63,6888.862 113.755,6854.373 220.657,6854.373 C327.556,6854.373 387.685,6888.862 403.567,6899.433 C418.765,6909.547 425.218,6927.224 420.004,6944.464 C415.478,6959.432 402.972,6969.488 388.884,6969.488 z M220.657,6884.373 C122.173,6884.373 68.48,6915.015 54.371,6924.407 C49.784,6927.459 49.29,6931.422 49.684,6934.21 C50.141,6937.45 51.857,6939.303 52.464,6939.495 C52.649,6939.488 53.337,6939.318 54.382,6938.675 C79.185,6923.433 152.671,6901.381 220.657,6901.381 C288.643,6901.381 362.129,6923.433 386.932,6938.675 C387.977,6939.318 388.666,6939.488 388.884,6939.488 L388.889,6939.488 C389.46,6939.304 391.175,6937.454 391.633,6934.216 C392.028,6931.426 391.535,6927.461 386.946,6924.408 C372.835,6915.016 319.139,6884.373 220.657,6884.373" fill="#3B3C3A"/>
      <path d="M252.182,6797.214 C252.182,6814.077 238.511,6827.748 221.647,6827.748 C204.784,6827.748 191.114,6814.077 191.114,6797.214 C191.114,6780.35 204.784,6766.679 221.647,6766.679 C238.511,6766.679 252.182,6780.35 252.182,6797.214" fill="#70B7D3"/>
      <path d="M221.647,6842.48 C196.687,6842.48 176.382,6822.174 176.382,6797.214 C176.382,6772.254 196.687,6751.947 221.647,6751.947 C246.608,6751.947 266.915,6772.254 266.915,6797.214 C266.915,6822.174 246.608,6842.48 221.647,6842.48 z M221.647,6781.411 C212.934,6781.411 205.847,6788.501 205.847,6797.214 C205.847,6805.926 212.934,6813.015 221.647,6813.015 C230.361,6813.015 237.45,6805.926 237.45,6797.214 C237.45,6788.501 230.361,6781.411 221.647,6781.411" fill="#3B3C3A"/>
      <path d="M268.847,7104.136 C268.847,7133.161 245.317,7156.687 216.296,7156.687 C187.274,7156.687 163.747,7133.161 163.747,7104.136 C163.747,7075.114 187.274,7051.586 216.296,7051.586 C245.317,7051.586 268.847,7075.114 268.847,7104.136" fill="#F6D729"/>
      <path d="M216.296,7171.687 C179.05,7171.687 148.747,7141.384 148.747,7104.136 C148.747,7066.89 179.05,7036.586 216.296,7036.586 C253.544,7036.586 283.847,7066.89 283.847,7104.136 C283.847,7141.384 253.544,7171.687 216.296,7171.687 z M216.296,7066.586 C195.592,7066.586 178.747,7083.432 178.747,7104.136 C178.747,7124.842 195.592,7141.687 216.296,7141.687 C237.001,7141.687 253.847,7124.842 253.847,7104.136 C253.847,7083.432 237.001,7066.586 216.296,7066.586" fill="#3B3C3A"/>
      <path d="M80.798,6933.55 L100.798,6933.55 L100.798,7039.695 L80.798,7039.695 z" fill="#3B3C3A"/>
      <path d="M206.296,6916.417 L226.296,6916.417 L226.296,7053.92 L206.296,7053.92 z" fill="#3B3C3A"/>
      <path d="M337.182,6933.55 L357.182,6933.55 L357.182,7053.919 L337.182,7053.919 z" fill="#3B3C3A"/>
      <path d="M310.956,6995.593 C310.698,7015.816 320.989,7036.959 334.753,7044.479 C350.659,7053.168 371.8,7056.739 389.218,7050.185 C400.477,7045.947 410.292,7048.943 408.311,7059.893 C404.134,7082.991 362.847,7121.5 307.737,7092.495 C254.434,7064.439 278.04,7011.139 285.442,6999.495 C295.134,6984.251 311.173,6978.534 310.956,6995.593" fill="#70B7D3"/>
      <path d="M304.082,6985.168 C308.169,6985.167 311.049,6988.297 310.956,6995.593 C310.698,7015.817 320.989,7036.96 334.753,7044.478 C345.014,7050.085 357.458,7053.561 369.673,7053.561 C376.39,7053.561 383.037,7052.51 389.218,7050.184 C392.468,7048.962 395.599,7048.34 398.36,7048.34 C405.162,7048.34 409.72,7052.104 408.311,7059.892 C405.197,7077.109 381.465,7102.888 346.761,7102.888 C334.905,7102.888 321.77,7099.881 307.737,7092.495 C254.434,7064.44 278.04,7011.139 285.442,6999.495 C290.988,6990.772 298.614,6985.169 304.082,6985.168 z M304.083,6955.168 L304.077,6955.168 C287.794,6955.171 271.363,6965.724 260.126,6983.401 C258.208,6986.417 251.622,6997.514 247.389,7013.675 C242.836,7031.059 242.616,7047.724 246.735,7063.21 C251.121,7079.696 262.841,7102.766 293.764,7119.042 C311.222,7128.229 329.052,7132.888 346.761,7132.888 C369.046,7132.888 390.871,7125.186 408.215,7111.2 C424.065,7098.417 434.86,7081.663 437.833,7065.231 C440.061,7052.911 437.188,7041.218 429.743,7032.306 C422.221,7023.3 411.075,7018.34 398.36,7018.34 C391.923,7018.34 385.292,7019.608 378.651,7022.106 C376.087,7023.071 373.066,7023.561 369.672,7023.561 C362.94,7023.561 355.486,7021.604 349.209,7018.19 C346.649,7016.456 340.814,7006.905 340.954,6995.974 C341.149,6980.58 334.995,6971.075 329.799,6965.811 C323.021,6958.948 313.889,6955.168 304.083,6955.168" fill="#3B3C3A"/>
      <path d="M69.454,7085.765 C69.454,7085.765 80.138,7118.063 90.798,7118.063 C101.456,7118.063 112.141,7085.765 112.141,7085.765 C112.142,7085.765 152.425,7085.243 151.579,7075.325 C150.733,7065.407 126.489,7045.048 126.489,7045.048 C126.489,7045.048 136.391,7007.465 126.489,7002.245 C116.587,6997.024 90.798,7025.387 90.798,7025.387 C90.798,7025.387 65.009,6997.024 55.104,7002.245 C45.202,7007.465 55.104,7045.048 55.104,7045.048 C55.104,7045.048 30.862,7065.407 30.014,7075.325 C29.169,7085.243 69.454,7085.765 69.454,7085.765" fill="#E46C79"/>
      <path d="M123.672,7001.603 C124.706,7001.604 125.655,7001.805 126.489,7002.245 C136.391,7007.465 126.489,7045.048 126.489,7045.048 C126.489,7045.048 150.733,7065.407 151.579,7075.325 C152.425,7085.243 112.141,7085.765 112.141,7085.765 C112.142,7085.765 101.456,7118.063 90.798,7118.063 C80.138,7118.063 69.454,7085.765 69.454,7085.765 C69.454,7085.765 29.169,7085.243 30.014,7075.325 C30.862,7065.407 55.104,7045.048 55.104,7045.048 C55.104,7045.048 45.202,7007.465 55.104,7002.245 C55.939,7001.805 56.887,7001.603 57.922,7001.603 C69.173,7001.603 90.798,7025.387 90.798,7025.387 C90.798,7025.387 112.424,7001.6 123.672,7001.603 z M123.67,6971.603 C113.159,6971.603 102.78,6975.714 90.797,6984.765 C78.813,6975.714 68.433,6971.603 57.922,6971.603 C51.934,6971.603 46.28,6972.982 41.115,6975.706 C34.576,6979.153 23.28,6987.917 21.103,7007.884 C20.433,7014.034 20.6,7021.03 21.616,7029.271 C21.837,7031.068 22.089,7032.836 22.356,7034.548 C22.035,7034.872 21.713,7035.2 21.389,7035.532 C7.495,7049.793 1.136,7060.93 0.124,7072.77 C-0.679,7082.186 2.434,7091.292 8.891,7098.416 C16.973,7107.331 28.941,7112.132 48.851,7114.428 C48.983,7114.7 49.116,7114.97 49.251,7115.241 C52.643,7122.084 56.105,7127.605 59.834,7132.12 C70.717,7145.298 82.679,7148.063 90.798,7148.063 C98.917,7148.063 110.879,7145.298 121.761,7132.12 C125.489,7127.605 128.951,7122.084 132.344,7115.241 C132.478,7114.97 132.612,7114.7 132.743,7114.428 C152.652,7112.132 164.62,7107.331 172.702,7098.416 C179.159,7091.292 182.272,7082.186 181.47,7072.776 C180.461,7060.933 174.101,7049.794 160.204,7035.532 C159.881,7035.2 159.558,7034.872 159.237,7034.547 C159.505,7032.835 159.757,7031.068 159.977,7029.271 C160.993,7021.03 161.161,7014.034 160.49,7007.884 C158.313,6987.917 147.017,6979.153 140.478,6975.706 C135.39,6973.023 129.581,6971.604 123.679,6971.603 C123.676,6971.603 123.673,6971.603 123.67,6971.603" fill="#3B3C3A"/>
    </g>
  </g>
</svg>
