<?xml version="1.0" encoding="UTF-8"?>
<!DOCTYPE svg PUBLIC "-//W3C//DTD SVG 1.1//EN" "http://www.w3.org/Graphics/SVG/1.1/DTD/svg11.dtd">
<svg version="1.1" xmlns="http://www.w3.org/2000/svg" xmlns:xlink="http://www.w3.org/1999/xlink" x="0" y="0" width="413.939" height="444.09" viewBox="0, 0, 413.939, 444.09">
  <g id="Layer_1" transform="translate(-587.132, -6126.021)">
    <g id="napkins">
      <path d="M997.281,6543.378 C997.281,6558.143 905.466,6570.112 792.206,6570.112 C678.946,6570.112 587.132,6558.143 587.132,6543.378 C587.132,6528.608 678.946,6516.637 792.206,6516.637 C905.466,6516.637 997.281,6528.608 997.281,6543.378" fill="#D6D5D0"/>
      <path d="M610.12,6422.729 C610.12,6447.57 610.12,6473.65 610.12,6489.57 C610.12,6505.49 651.834,6528.146 798.096,6528.146 C944.357,6528.146 986.071,6505.49 986.071,6489.57 C986.071,6473.65 986.071,6447.57 986.071,6422.729 L610.12,6422.729" fill="#FFFFFE"/>
      <path d="M798.096,6543.146 C731.18,6543.146 679.806,6538.495 645.395,6529.323 C612.035,6520.429 595.12,6507.053 595.12,6489.57 L595.12,6422.729 C595.12,6414.445 601.836,6407.729 610.12,6407.729 L986.071,6407.729 C994.355,6407.729 1001.071,6414.445 1001.071,6422.729 L1001.071,6489.57 C1001.071,6507.053 984.156,6520.429 950.796,6529.323 C916.386,6538.495 865.011,6543.146 798.096,6543.146 z M625.12,6488.01 C626.911,6489.928 634.897,6496.624 663.069,6502.722 C695.018,6509.639 740.448,6513.146 798.096,6513.146 C855.743,6513.146 901.173,6509.639 933.122,6502.722 C961.294,6496.624 969.28,6489.928 971.071,6488.01 L971.071,6437.729 L625.12,6437.729 L625.12,6488.01" fill="#3B3C3A"/>
      <path d="M965.272,6305.569 L630.919,6305.569 C624.596,6335.638 610.12,6369.726 610.12,6422.729 C610.12,6475.731 731.596,6478.667 798.096,6478.667 C864.596,6478.667 986.071,6475.731 986.071,6422.729 C986.071,6369.726 971.596,6335.638 965.272,6305.569" fill="#C2D54A"/>
      <path d="M798.096,6493.667 C761.872,6493.667 715.301,6492.717 676.367,6485.309 C653.088,6480.88 635.376,6474.75 622.218,6466.566 C599.821,6452.639 595.12,6435.04 595.12,6422.729 C595.12,6381.738 603.446,6351.167 610.137,6326.604 C612.462,6318.067 614.658,6310.004 616.24,6302.482 C617.7,6295.542 623.824,6290.569 630.919,6290.569 L965.272,6290.569 C972.367,6290.569 978.491,6295.542 979.951,6302.482 C981.533,6310.004 983.729,6318.067 986.054,6326.604 C992.745,6351.167 1001.071,6381.738 1001.071,6422.729 C1001.071,6435.04 996.37,6452.639 973.974,6466.566 C960.815,6474.75 943.103,6480.88 919.824,6485.309 C880.89,6492.717 834.319,6493.667 798.096,6493.667 z M642.796,6320.569 C641.637,6325.109 640.379,6329.729 639.083,6334.488 C632.538,6358.516 625.12,6385.75 625.12,6422.729 C625.12,6442.125 660.741,6451.798 681.973,6455.838 C718.445,6462.776 763.189,6463.667 798.096,6463.667 C833.002,6463.667 877.746,6462.776 914.218,6455.838 C935.45,6451.798 971.071,6442.125 971.071,6422.729 C971.071,6385.75 963.653,6358.516 957.108,6334.488 C955.812,6329.729 954.554,6325.109 953.395,6320.569 L642.796,6320.569" fill="#3B3C3A"/>
      <path d="M798.096,6259.638 C691.798,6259.638 630.596,6260.638 630.596,6311.638 C630.596,6362.638 730.451,6359.638 748.705,6359.638 C766.958,6359.638 780.916,6373.638 798.096,6373.638 C815.275,6373.638 829.233,6359.638 847.486,6359.638 C865.74,6359.638 965.596,6362.638 965.596,6311.638 C965.596,6260.638 904.393,6259.638 798.096,6259.638" fill="#FFFFFE"/>
      <path d="M798.096,6388.638 C786.468,6388.638 776.708,6384.323 768.097,6380.516 C760.963,6377.361 754.802,6374.638 748.705,6374.638 C747.914,6374.638 746.965,6374.644 745.874,6374.65 C744.323,6374.661 742.498,6374.671 740.439,6374.671 C712.102,6374.671 689.208,6372.249 670.45,6367.263 C625.112,6355.214 615.596,6330.364 615.596,6311.638 C615.596,6295.107 620.883,6281.534 631.309,6271.295 C640.434,6262.334 653.449,6255.991 671.098,6251.9 C700.254,6245.144 740.311,6244.638 798.096,6244.638 C855.88,6244.638 895.937,6245.144 925.094,6251.9 C942.742,6255.991 955.757,6262.334 964.882,6271.295 C975.308,6281.534 980.596,6295.107 980.596,6311.638 C980.596,6330.365 971.078,6355.215 925.739,6367.264 C906.983,6372.249 884.091,6374.671 855.756,6374.671 C855.754,6374.671 855.753,6374.671 855.753,6374.671 C853.695,6374.671 851.87,6374.661 850.319,6374.65 C849.226,6374.644 848.277,6374.638 847.486,6374.638 C841.389,6374.638 835.228,6377.361 828.094,6380.516 C819.483,6384.323 809.724,6388.638 798.096,6388.638 z M748.705,6344.638 C761.138,6344.638 771.28,6349.122 780.227,6353.079 C786.975,6356.061 792.804,6358.638 798.096,6358.638 C803.387,6358.638 809.216,6356.061 815.964,6353.079 C824.911,6349.122 835.054,6344.638 847.486,6344.638 C848.328,6344.638 849.34,6344.644 850.503,6344.65 C852.002,6344.661 853.764,6344.671 855.752,6344.671 C881.096,6344.671 902.051,6342.518 918.034,6338.27 C950.596,6329.618 950.596,6316.085 950.596,6311.638 C950.596,6297.418 945.196,6287.354 918.321,6281.125 C890.325,6274.638 845.525,6274.638 798.096,6274.638 C750.666,6274.638 705.866,6274.638 677.87,6281.125 C650.995,6287.354 645.596,6297.418 645.596,6311.638 C645.596,6341.452 711.923,6344.671 740.439,6344.671 C742.429,6344.671 744.191,6344.661 745.69,6344.65 C746.852,6344.644 747.862,6344.638 748.705,6344.638" fill="#3B3C3A"/>
      <path d="M699.096,6307.355 L897.096,6307.355 L699.096,6307.355" fill="#FFFFFE"/>
      <path d="M897.096,6322.355 L699.096,6322.355 C690.811,6322.355 684.096,6315.639 684.096,6307.355 C684.096,6299.071 690.811,6292.355 699.096,6292.355 L897.096,6292.355 C905.38,6292.355 912.096,6299.071 912.096,6307.355 C912.096,6315.639 905.38,6322.355 897.096,6322.355" fill="#3B3C3A"/>
      <path d="M715.691,6305.689 L879.024,6305.689 C879.024,6305.689 906.21,6279.095 903.543,6237.762 C900.787,6195.054 905.691,6177.689 920.514,6160.355 L797.006,6141.021 C797.006,6141.021 765.227,6164.355 770.126,6204.355 C775.024,6244.355 703.038,6251.864 715.691,6305.689" fill="#FFFFFE"/>
      <path d="M879.024,6320.688 L715.691,6320.688 C708.729,6320.688 702.682,6315.898 701.09,6309.122 C692.06,6270.713 716.768,6249.816 734.809,6234.56 C749.869,6221.824 756.353,6215.29 755.237,6206.178 C749.339,6158.015 786.541,6130.095 788.128,6128.93 C791.347,6126.565 795.38,6125.584 799.326,6126.202 L922.835,6145.536 C928.205,6146.376 932.7,6150.056 934.584,6155.155 C936.469,6160.253 935.447,6165.972 931.915,6170.104 C920.529,6183.417 915.892,6196.206 918.512,6236.796 C921.587,6284.454 890.824,6315.129 889.514,6316.411 C886.711,6319.153 882.945,6320.688 879.024,6320.688 z M729.323,6290.688 L872.207,6290.688 C878.475,6282.661 890.207,6264.034 888.574,6238.728 C886.602,6208.168 888.42,6188.107 895.637,6171.643 L801.636,6156.928 C794.706,6163.873 782.232,6179.811 785.015,6202.532 C788.217,6228.683 769.346,6244.642 754.181,6257.465 C739.848,6269.588 730.518,6278.175 729.323,6290.688" fill="#3B3C3A"/>
    </g>
  </g>
</svg>
