<?xml version="1.0" encoding="UTF-8"?>
<!DOCTYPE svg PUBLIC "-//W3C//DTD SVG 1.1//EN" "http://www.w3.org/Graphics/SVG/1.1/DTD/svg11.dtd">
<svg version="1.1" xmlns="http://www.w3.org/2000/svg" xmlns:xlink="http://www.w3.org/1999/xlink" x="0" y="0" width="410.151" height="438.447" viewBox="0, 0, 410.151, 438.447">
  <g id="Layer_1" transform="translate(-1749.138, -4286.496)">
    <g id="nipple">
      <path d="M2159.289,4698.209 C2159.289,4712.975 2067.473,4724.943 1954.214,4724.943 C1840.954,4724.943 1749.138,4712.975 1749.138,4698.209 C1749.138,4683.439 1840.954,4671.469 1954.214,4671.469 C2067.473,4671.469 2159.289,4683.439 2159.289,4698.209" fill="#D6D5D0"/>
      <path d="M1995.275,4416.951 C1977.867,4412.096 1979.061,4378.471 1983.09,4357.629 C1989.736,4323.262 1985.734,4301.496 1943.945,4301.496 C1902.158,4301.496 1898.156,4323.262 1904.801,4357.629 C1908.832,4378.471 1910.025,4412.096 1892.615,4416.951 C1875.207,4421.807 1852.365,4428.648 1852.365,4445.834 L2035.527,4445.834 C2035.527,4428.648 2012.686,4421.807 1995.275,4416.951" fill="#FFFFFE"/>
      <path d="M2035.527,4460.834 L1852.365,4460.834 C1844.081,4460.834 1837.365,4454.117 1837.365,4445.834 C1837.365,4416.848 1870.552,4407.531 1888.477,4402.531 C1891.437,4400.014 1894.547,4383.605 1890.074,4360.476 C1886.32,4341.06 1884.223,4319.105 1897.135,4303.459 C1906.554,4292.045 1921.865,4286.496 1943.945,4286.496 C1966.026,4286.496 1981.339,4292.045 1990.758,4303.459 C2003.669,4319.105 2001.571,4341.062 1997.817,4360.476 C1993.346,4383.603 1996.455,4400.014 1999.414,4402.533 C2017.34,4407.531 2050.527,4416.846 2050.527,4445.834 C2050.527,4454.117 2043.811,4460.834 2035.527,4460.834 z M1898.458,4430.834 L1989.432,4430.834 C1980.018,4427.574 1969.036,4418.625 1966.248,4395.047 C1964.305,4378.627 1967.08,4361.418 1968.362,4354.781 C1971.665,4337.703 1971.422,4327.162 1967.618,4322.553 C1964.348,4318.59 1956.163,4316.496 1943.945,4316.496 C1931.728,4316.496 1923.544,4318.59 1920.274,4322.553 C1916.47,4327.162 1916.226,4337.703 1919.528,4354.781 C1920.811,4361.416 1923.587,4378.623 1921.644,4395.047 C1918.856,4418.625 1907.873,4427.574 1898.458,4430.834" fill="#3B3C3A"/>
      <path d="M2111.893,4487.578 C2111.893,4504.146 2098.461,4517.578 2081.893,4517.578 L1806.003,4517.578 C1789.434,4517.578 1776.003,4504.146 1776.003,4487.578 L1776.003,4475.834 C1776.003,4459.266 1789.434,4445.834 1806.003,4445.834 L2081.893,4445.834 C2098.461,4445.834 2111.893,4459.266 2111.893,4475.834 L2111.893,4487.578" fill="#E46C79"/>
      <path d="M2081.893,4532.578 L1806.003,4532.578 C1781.188,4532.578 1761.003,4512.391 1761.003,4487.578 L1761.003,4475.834 C1761.003,4451.02 1781.188,4430.834 1806.003,4430.834 L2081.893,4430.834 C2106.707,4430.834 2126.893,4451.02 2126.893,4475.834 L2126.893,4487.578 C2126.893,4512.391 2106.707,4532.578 2081.893,4532.578 z M1806.003,4460.834 C1797.73,4460.834 1791.003,4467.562 1791.003,4475.834 L1791.003,4487.578 C1791.003,4495.85 1797.73,4502.578 1806.003,4502.578 L2081.893,4502.578 C2090.165,4502.578 2096.893,4495.85 2096.893,4487.578 L2096.893,4475.834 C2096.893,4467.562 2090.165,4460.834 2081.893,4460.834 L1806.003,4460.834" fill="#3B3C3A"/>
      <path d="M1943.947,4517.578 C1943.947,4517.578 1908.087,4517.578 1875.088,4517.578 C1876.588,4560.068 1899.087,4596.582 1943.947,4596.582 C1988.807,4596.582 2011.306,4560.068 2012.806,4517.578 C1979.807,4517.578 1943.947,4517.578 1943.947,4517.578" fill="#E46C79"/>
      <path d="M1943.947,4611.582 C1918.229,4611.582 1896.633,4601.463 1881.492,4582.318 C1868.393,4565.756 1860.995,4543.553 1860.097,4518.107 C1859.954,4514.039 1861.469,4510.088 1864.296,4507.16 C1867.122,4504.232 1871.017,4502.578 1875.088,4502.578 L2012.806,4502.578 C2016.877,4502.578 2020.772,4504.232 2023.598,4507.16 C2026.426,4510.088 2027.94,4514.039 2027.797,4518.107 C2026.899,4543.553 2019.501,4565.756 2006.402,4582.318 C1991.262,4601.463 1969.665,4611.582 1943.947,4611.582 z M1891.794,4532.578 C1896.704,4558.381 1912.215,4581.582 1943.947,4581.582 C1975.679,4581.582 1991.19,4558.381 1996.1,4532.578 L1891.794,4532.578" fill="#3B3C3A"/>
      <path d="M2012.806,4517.578 C2009.126,4531.021 2001.725,4562.117 2001.725,4562.117 C2012.126,4565.021 2022.544,4574.294 2022.544,4598.844 C2022.544,4630.021 1992.083,4639.576 1943.947,4639.576 C1895.811,4639.576 1865.35,4630.021 1865.35,4598.844 C1865.35,4574.294 1875.768,4565.021 1886.169,4562.117 C1886.169,4562.117 1878.768,4531.021 1875.088,4517.578 C1843.407,4526.132 1820.667,4545.294 1820.667,4601.207 C1820.667,4668.021 1882.768,4682.473 1943.947,4682.473 C2008.768,4682.473 2067.227,4668.021 2067.227,4601.207 C2067.227,4545.294 2044.487,4526.132 2012.806,4517.578" fill="#FFFFFE"/>
      <path d="M1943.947,4697.473 C1904.882,4697.473 1874.963,4691.83 1852.483,4680.223 C1821.855,4664.41 1805.667,4637.086 1805.667,4601.207 C1805.667,4571.494 1811.664,4549.062 1824.001,4532.629 C1834.639,4518.455 1850.071,4508.795 1871.178,4503.096 C1879.155,4500.939 1887.373,4505.646 1889.555,4513.617 C1893.26,4527.146 1900.457,4557.363 1900.762,4558.645 C1902.627,4566.484 1897.965,4574.396 1890.203,4576.564 C1883.665,4578.391 1880.35,4585.885 1880.35,4598.844 C1880.35,4606.543 1880.35,4624.576 1943.947,4624.576 C2007.544,4624.576 2007.544,4606.543 2007.544,4598.844 C2007.544,4585.885 2004.229,4578.391 1997.691,4576.564 C1989.929,4574.396 1985.267,4566.484 1987.133,4558.645 C1987.437,4557.363 1994.635,4527.146 1998.339,4513.617 C2000.52,4505.646 2008.734,4500.939 2016.717,4503.096 C2037.823,4508.795 2053.255,4518.455 2063.893,4532.629 C2076.23,4549.062 2082.227,4571.494 2082.227,4601.207 C2082.227,4637.754 2066.972,4664.32 2036.886,4680.166 C2014.775,4691.81 1984.375,4697.473 1943.947,4697.473 z M1864.651,4537.164 C1848.957,4544.756 1835.667,4560.344 1835.667,4601.207 C1835.667,4629.654 1846.891,4667.473 1943.947,4667.473 C1979.384,4667.473 2005.211,4662.941 2022.905,4653.623 C2042.91,4643.088 2052.227,4626.432 2052.227,4601.207 C2052.227,4560.344 2038.937,4544.756 2023.243,4537.164 C2021.791,4542.978 2020.305,4549.055 2019.085,4554.09 C2028.573,4561.039 2037.544,4574.14 2037.544,4598.844 C2037.544,4619.687 2027.181,4635.482 2007.577,4644.523 C1992.703,4651.381 1972.484,4654.576 1943.947,4654.576 C1915.41,4654.576 1895.191,4651.381 1880.317,4644.523 C1860.713,4635.482 1850.35,4619.687 1850.35,4598.844 C1850.35,4574.14 1859.321,4561.039 1868.809,4554.09 C1867.589,4549.055 1866.103,4542.978 1864.651,4537.164" fill="#3B3C3A"/>
    </g>
  </g>
</svg>
