<?xml version="1.0" encoding="UTF-8"?>
<!DOCTYPE svg PUBLIC "-//W3C//DTD SVG 1.1//EN" "http://www.w3.org/Graphics/SVG/1.1/DTD/svg11.dtd">
<svg version="1.1" xmlns="http://www.w3.org/2000/svg" xmlns:xlink="http://www.w3.org/1999/xlink" x="0" y="0" width="419.46" height="447.346" viewBox="0, 0, 419.46, 447.346">
  <g id="Layer_1" transform="translate(-1745.051, -4892.97)">
    <g id="orbs">
      <path d="M2155.201,5313.581 C2155.201,5328.346 2063.386,5340.316 1950.126,5340.316 C1836.866,5340.316 1745.051,5328.346 1745.051,5313.581 C1745.051,5298.811 1836.866,5286.841 1950.126,5286.841 C2063.386,5286.841 2155.201,5298.811 2155.201,5313.581" fill="#D6D5D0"/>
      <path d="M2045.637,5200.259 C2053.522,5181.315 2028.96,5153.765 2028.96,5153.765 L1966.706,5136.051 C1966.706,5136.051 1936.589,5145.55 1928.05,5166.797 C1920.554,5185.449 1947.266,5202.175 1963.468,5186.846 C1965.946,5195.65 1970.403,5206.265 1979.626,5208.89 C1990.577,5212.006 1998.393,5208.623 2004.97,5198.655 C2010.673,5220.217 2037.915,5218.816 2045.637,5200.259" fill="#C2D54A"/>
      <path d="M2024.613,5229.502 L2024.609,5229.502 C2016.001,5229.501 2008.219,5226.578 2002.139,5221.43 C1994.408,5225.404 1985.365,5226.119 1975.52,5223.318 C1967.376,5221 1960.76,5215.582 1955.74,5207.147 C1953.429,5207.61 1951.063,5207.846 1948.674,5207.846 C1936.23,5207.846 1924.247,5201.553 1917.4,5191.422 C1911.258,5182.333 1910.066,5171.319 1914.132,5161.203 C1925.001,5134.158 1958.419,5122.936 1962.194,5121.745 C1964.993,5120.863 1967.987,5120.821 1970.811,5121.624 L2033.065,5139.339 C2035.803,5140.117 2038.262,5141.659 2040.156,5143.784 C2040.897,5144.615 2047.566,5152.208 2053.36,5162.61 C2062.549,5179.107 2064.609,5193.714 2059.486,5206.023 C2053.551,5220.284 2039.862,5229.502 2024.613,5229.502 z M2004.967,5183.655 C2005.771,5183.655 2006.583,5183.72 2007.393,5183.852 C2013.229,5184.807 2017.959,5189.103 2019.471,5194.819 C2020.327,5198.057 2021.913,5199.502 2024.612,5199.502 L2024.613,5199.502 C2026.963,5199.502 2030.251,5198.191 2031.789,5194.495 C2033.947,5189.31 2027.876,5176.539 2020.39,5166.923 L1967.332,5151.825 C1959.458,5155.132 1945.932,5162.527 1941.968,5172.391 C1941.701,5173.054 1941.566,5173.602 1942.256,5174.623 C1943.339,5176.224 1945.89,5177.846 1948.674,5177.846 C1950.366,5177.846 1951.791,5177.243 1953.158,5175.95 C1956.973,5172.341 1962.398,5170.99 1967.459,5172.387 C1972.521,5173.784 1976.483,5177.727 1977.906,5182.782 C1980.794,5193.037 1983.706,5194.456 1983.732,5194.464 C1984.988,5194.821 1986.11,5195.01 1986.976,5195.01 C1987.825,5195.01 1989.404,5195.01 1992.449,5190.395 C1995.253,5186.145 1999.981,5183.655 2004.967,5183.655" fill="#3B3C3A"/>
      <path d="M2064.018,4914.505 C2021.651,4902.45 1950.274,4897.094 1923.458,4991.337 C1896.639,5085.581 1965.247,5156.509 1992.915,5164.381 C2020.583,5172.255 2116.253,5148.074 2143.073,5053.83 C2169.889,4959.585 2106.386,4926.562 2064.018,4914.505" fill="#C2D54A"/>
      <path d="M2004.954,5180.768 C2004.95,5180.768 2004.95,5180.768 2004.95,5180.768 C1998.805,5180.767 1993.377,5180.109 1988.809,5178.808 C1968.112,5172.92 1941.749,5147.764 1924.699,5117.637 C1908.679,5089.327 1892.956,5043.722 1909.03,4987.233 C1931.199,4909.324 1982.045,4892.97 2020.795,4892.97 C2035.625,4892.97 2051.549,4895.362 2068.124,4900.078 C2100.034,4909.159 2124.569,4923.865 2141.048,4943.787 C2165.207,4972.993 2170.742,5011.399 2157.501,5057.935 C2143.104,5108.52 2111.251,5137.907 2087.063,5153.652 C2056.35,5173.644 2024.511,5180.768 2004.954,5180.768 z M2020.795,4922.97 C1978.882,4922.97 1951.762,4946.677 1937.886,4995.443 C1924.648,5041.96 1937.607,5079.533 1950.808,5102.861 C1966.428,5130.462 1987.617,5147.279 1997.02,5149.954 C1998.089,5150.259 2000.538,5150.768 2004.949,5150.768 C2035.925,5150.771 2106.918,5126.076 2128.646,5049.724 C2146.328,4987.583 2123.203,4946.943 2059.913,4928.933 C2046.009,4924.977 2032.847,4922.97 2020.795,4922.97" fill="#3B3C3A"/>
      <path d="M1991.569,5216.858 C1989.391,5196.458 1954.618,5184.083 1954.618,5184.083 L1891.503,5198.432 C1891.503,5198.432 1869.645,5221.225 1872.356,5243.963 C1874.735,5263.924 1906.198,5265.77 1913.05,5244.544 C1919.452,5251.078 1928.458,5258.25 1937.807,5256.124 C1948.911,5253.6 1954.143,5246.878 1955.126,5234.978 C1970.481,5251.154 1993.704,5236.846 1991.569,5216.858" fill="#F6D729"/>
      <path d="M1891.823,5274.712 C1873.915,5274.712 1859.463,5262.527 1857.462,5245.739 C1854.012,5216.797 1877.936,5190.907 1880.677,5188.051 C1882.708,5185.932 1885.315,5184.456 1888.178,5183.805 L1951.293,5169.456 C1954.067,5168.825 1956.967,5168.997 1959.647,5169.951 C1960.697,5170.324 1970.192,5173.783 1980.268,5180.127 C1996.249,5190.187 2005.069,5202.01 2006.484,5215.267 C2007.637,5226.051 2004.178,5236.819 1996.997,5244.808 C1990.045,5252.541 1980.316,5256.976 1970.305,5256.976 L1970.304,5256.976 C1968.033,5256.976 1965.785,5256.747 1963.581,5256.299 C1957.68,5265.025 1948.852,5268.996 1941.133,5270.751 C1938.932,5271.252 1936.665,5271.506 1934.396,5271.506 C1928.232,5271.506 1922.145,5269.724 1916.021,5266.105 C1909.507,5271.579 1901.074,5274.712 1891.823,5274.712 z M1899.626,5211.969 C1894.306,5218.65 1885.992,5231.632 1887.251,5242.188 C1887.537,5244.591 1891.11,5244.712 1891.823,5244.712 C1893.45,5244.712 1897.384,5244.247 1898.775,5239.937 C1900.388,5234.939 1904.497,5231.149 1909.608,5229.945 C1914.72,5228.74 1920.089,5230.296 1923.763,5234.047 C1930.989,5241.421 1934.261,5241.506 1934.396,5241.506 C1938.126,5240.67 1939.634,5240.327 1940.177,5233.743 C1940.663,5227.85 1944.567,5222.793 1950.144,5220.829 C1955.723,5218.866 1961.933,5220.362 1966.005,5224.651 C1967.47,5226.194 1968.916,5226.976 1970.304,5226.976 C1971.796,5226.976 1973.433,5226.145 1974.685,5224.753 C1975.567,5223.771 1976.995,5221.648 1976.654,5218.451 C1976.058,5212.868 1964.601,5204.581 1953.418,5199.739 L1899.626,5211.969" fill="#3B3C3A"/>
      <path d="M1870.499,4957.37 C1827.546,4967.137 1762.362,4996.707 1784.087,5092.254 C1805.809,5187.801 1900.046,5217.079 1928.096,5210.701 C1956.147,5204.324 2028.46,5137.179 2006.737,5041.633 C1985.012,4946.086 1913.452,4947.605 1870.499,4957.37" fill="#F6D729"/>
      <path d="M1919.452,5226.537 C1901.105,5226.536 1868.616,5218.779 1837.432,5196.917 C1813.048,5179.823 1781.461,5148.365 1769.46,5095.578 C1758.732,5048.399 1766.319,5010.346 1792.01,4982.477 C1809.533,4963.468 1834.822,4950.099 1867.174,4942.743 C1881.077,4939.583 1894.506,4937.979 1907.087,4937.979 C1933.329,4937.979 1955.977,4944.852 1974.404,4958.405 C1997.346,4975.279 2013.145,5002.161 2021.364,5038.307 C2034.385,5095.577 2016.237,5140.272 1998.721,5167.682 C1980.081,5196.853 1952.406,5220.557 1931.423,5225.328 C1927.896,5226.13 1923.869,5226.537 1919.452,5226.537 z M1907.087,4967.979 C1896.74,4967.979 1885.549,4969.332 1873.824,4971.998 C1847.504,4977.981 1827.399,4988.348 1814.067,5002.811 C1795.473,5022.982 1790.307,5051.957 1798.714,5088.928 C1817.38,5171.033 1893.746,5196.536 1919.452,5196.537 C1922.313,5196.537 1924.012,5196.248 1924.771,5196.075 C1934.304,5193.908 1956.365,5178.25 1973.442,5151.528 C1987.877,5128.94 2002.832,5092.118 1992.11,5044.958 C1980.333,4993.159 1952.521,4967.979 1907.087,4967.979" fill="#3B3C3A"/>
      <path d="M1937.807,5256.124 C1937.141,5272.124 1965.124,5303.272 2047.124,5303.272 L1937.807,5256.124" fill="#FFFFFE"/>
      <path d="M2047.124,5318.272 C1978.181,5318.272 1947.806,5297.34 1935.837,5284.861 C1927.037,5275.687 1922.415,5265.26 1922.82,5255.5 C1923.165,5247.223 1930.12,5240.793 1938.431,5241.137 C1946.685,5241.48 1953.103,5248.432 1952.797,5256.679 C1953.173,5261.672 1971.925,5288.272 2047.124,5288.272 C2055.408,5288.272 2062.124,5294.989 2062.124,5303.272 C2062.124,5311.557 2055.408,5318.272 2047.124,5318.272" fill="#3B3C3A"/>
    </g>
  </g>
</svg>
