<?xml version="1.0" encoding="UTF-8"?>
<!DOCTYPE svg PUBLIC "-//W3C//DTD SVG 1.1//EN" "http://www.w3.org/Graphics/SVG/1.1/DTD/svg11.dtd">
<svg version="1.1" xmlns="http://www.w3.org/2000/svg" xmlns:xlink="http://www.w3.org/1999/xlink" x="0" y="0" width="163.861" height="206.184" viewBox="0, 0, 163.861, 206.184">
  <g id="Layer_1" transform="translate(-438.131, -496.099)">
    <path d="M505.717,686.21 L508.754,653.118 L508.784,652.776 L500.146,652.776 L499.469,685.423 C494.969,686.784 484.839,690.278 487.226,694.342 C487.678,695.116 488.488,695.511 489.631,695.511 C491.815,695.511 495.19,693.988 497.86,692.569 C497.027,695.369 496.398,698.821 497.515,700.745 C498.096,701.769 499.127,702.283 500.047,702.283 C502.07,702.283 503.407,699.172 504.021,693.038 C506.694,695.813 510.187,698.871 512.567,698.872 C513.28,698.872 513.877,698.632 514.346,698.152 C514.828,697.654 515.04,697.033 514.974,696.315 C514.703,693.223 508.523,688.298 505.717,686.21" fill="#DF4E66"/>
    <path d="M540.653,685.423 L539.989,653.58 L539.975,652.776 L531.339,652.776 L534.407,686.21 C531.599,688.298 525.419,693.223 525.152,696.315 C525.089,697.043 525.298,697.661 525.779,698.154 C526.244,698.632 526.842,698.872 527.555,698.872 C529.934,698.871 533.429,695.81 536.107,693.038 C536.416,696.159 537.234,702.593 540.358,702.259 C541.36,702.122 542.116,701.614 542.606,700.748 C543.729,698.81 543.096,695.365 542.26,692.572 C544.935,693.99 548.312,695.511 550.493,695.511 C551.634,695.511 552.443,695.119 552.898,694.342 C555.287,690.28 545.159,686.784 540.653,685.423" fill="#DF4E66"/>
    <path d="M565.805,581.568 L520.065,574.259 L474.321,581.568 C474.321,581.568 458.232,597.415 460.18,628.367 C462.132,659.322 490.246,674.435 520.065,674.435 C549.879,674.435 577.991,659.322 579.943,628.367 C581.894,597.415 565.805,581.568 565.805,581.568" fill="#EFA67F"/>
    <path d="M481.353,630.291 C482.52,630.995 483.559,631.552 484.609,631.902 C485.654,632.257 486.68,632.42 487.706,632.42 C488.735,632.42 489.762,632.257 490.803,631.902 C491.857,631.556 492.893,630.994 494.062,630.292 L494.312,630.651 C493.782,632.374 492.796,633.774 491.624,634.733 C490.449,635.692 489.076,636.202 487.706,636.199 C486.337,636.202 484.968,635.692 483.789,634.733 C482.622,633.774 481.628,632.372 481.105,630.651 L481.353,630.291" fill="#FFFFFE"/>
    <path d="M502.922,630.291 C504.091,630.995 505.124,631.552 506.179,631.902 C507.218,632.257 508.249,632.42 509.275,632.42 C510.303,632.42 511.334,632.257 512.376,631.902 C513.423,631.556 514.464,630.994 515.63,630.292 L515.878,630.651 C515.35,632.374 514.361,633.774 513.195,634.733 C512.019,635.692 510.644,636.202 509.275,636.199 C507.909,636.202 506.531,635.692 505.36,634.733 C504.191,633.774 503.2,632.372 502.672,630.651 L502.922,630.291" fill="#FFFFFE"/>
    <path d="M524.489,630.291 C525.66,630.995 526.699,631.552 527.744,631.902 C528.79,632.257 529.817,632.42 530.845,632.42 C531.876,632.42 532.903,632.257 533.94,631.902 C534.993,631.556 536.028,630.994 537.197,630.292 L537.45,630.651 C536.922,632.374 535.93,633.774 534.764,634.733 C533.586,635.692 532.216,636.202 530.845,636.199 C529.475,636.202 528.104,635.692 526.931,634.733 C525.761,633.774 524.769,632.372 524.245,630.651 L524.489,630.291" fill="#FFFFFE"/>
    <path d="M546.06,630.291 C547.231,630.995 548.265,631.552 549.315,631.902 C550.359,632.257 551.388,632.42 552.414,632.42 C553.441,632.42 554.47,632.257 555.515,631.902 C556.563,631.556 557.602,630.994 558.767,630.292 L559.018,630.651 C558.491,632.374 557.498,633.774 556.334,634.733 C555.154,635.692 553.784,636.202 552.414,636.199 C551.045,636.202 549.671,635.692 548.501,634.733 C547.332,633.774 546.336,632.372 545.816,630.651 L546.06,630.291" fill="#FFFFFE"/>
    <path d="M492.136,646.878 C493.306,647.581 494.345,648.14 495.396,648.485 C496.438,648.844 497.469,649.015 498.493,649.015 C499.524,649.015 500.554,648.844 501.592,648.485 C502.634,648.142 503.674,647.581 504.845,646.878 L505.096,647.232 C504.568,648.961 503.575,650.356 502.408,651.319 C501.233,652.279 499.863,652.786 498.493,652.784 C497.122,652.786 495.75,652.279 494.576,651.319 C493.411,650.356 492.414,648.96 491.895,647.232 L492.136,646.878" fill="#FFFFFE"/>
    <path d="M513.703,646.878 C514.878,647.581 515.914,648.14 516.961,648.485 C518.005,648.844 519.034,649.015 520.06,649.015 C521.088,649.015 522.117,648.844 523.16,648.485 C524.206,648.142 525.245,647.581 526.417,646.878 L526.665,647.232 C526.137,648.961 525.146,650.356 523.974,651.319 C522.803,652.279 521.429,652.786 520.06,652.784 C518.692,652.786 517.319,652.279 516.146,651.319 C514.976,650.356 513.983,648.96 513.462,647.232 L513.703,646.878" fill="#FFFFFE"/>
    <path d="M535.274,646.878 C536.445,647.581 537.482,648.14 538.534,648.485 C539.573,648.844 540.599,649.015 541.63,649.015 C542.656,649.015 543.683,648.844 544.724,648.485 C545.778,648.142 546.817,647.581 547.985,646.878 L548.231,647.232 C547.706,648.961 546.72,650.356 545.549,651.319 C544.377,652.279 542.998,652.786 541.63,652.784 C540.259,652.786 538.89,652.279 537.71,651.319 C536.548,650.356 535.554,648.96 535.028,647.232 L535.274,646.878" fill="#FFFFFE"/>
    <path d="M573.144,521.731 C579.324,520.974 590.322,518.756 588.515,515.783 C586.815,512.99 577.666,514.934 577.666,514.934 C577.666,514.934 589.417,509.41 586.5,505.921 C584.741,503.813 573.295,510.403 573.295,510.403 C574.102,509.644 584.597,499.639 581.43,496.664 C577.966,493.408 570.528,505.065 563.802,510.118 C553.695,517.721 486.556,517.815 476.318,510.118 C469.597,505.065 462.155,493.408 458.69,496.664 C455.525,499.639 466.02,509.644 466.826,510.403 C466.826,510.403 455.383,503.813 453.622,505.921 C450.703,509.41 462.458,514.934 462.458,514.934 C462.458,514.934 453.307,512.99 451.61,515.783 C449.802,518.756 460.797,520.974 466.979,521.731 C466.979,521.731 437.497,555.85 457.785,588.007 C471.185,609.242 503.553,612.157 520.06,612.157 C536.572,612.157 568.937,609.242 582.335,588.007 C602.626,555.85 573.144,521.731 573.144,521.731" fill="#EFA67F"/>
    <path d="M578.039,559.083 C578.039,570.905 568.452,580.489 556.635,580.489 C544.815,580.489 535.232,570.905 535.232,559.083 C535.232,547.262 544.815,537.677 556.635,537.677 C568.452,537.677 578.039,547.262 578.039,559.083" fill="#FFFFFE"/>
    <path d="M569.507,558.629 C569.507,563.982 565.17,568.326 559.815,568.326 C554.463,568.326 550.121,563.982 550.121,558.629 C550.121,553.271 554.463,548.93 559.815,548.93 C565.17,548.93 569.507,553.271 569.507,558.629" fill="#1A1919"/>
    <path d="M566.631,555.719 C566.631,557.021 565.574,558.075 564.266,558.075 C562.972,558.075 561.908,557.021 561.908,555.719 C561.908,554.416 562.972,553.361 564.266,553.361 C565.574,553.361 566.631,554.416 566.631,555.719" fill="#FFFFFE"/>
    <path d="M581.237,567.218 C580.155,566.825 579.571,565.706 579.816,564.683 C580.071,563.67 581.116,562.954 582.257,563.116 C583.394,563.273 584.174,564.438 583.863,565.685 C583.553,566.94 582.319,567.611 581.237,567.218" fill="#FFFFFE"/>
    <path d="M577.208,574.749 C576.312,574.03 576.116,572.773 576.691,571.894 C577.266,571.01 578.484,570.68 579.513,571.203 C580.535,571.729 580.884,573.081 580.182,574.157 C579.486,575.244 578.106,575.47 577.208,574.749" fill="#FFFFFE"/>
    <path d="M570.958,580.573 C570.344,579.598 570.558,578.354 571.388,577.698 C572.215,577.05 573.482,577.132 574.283,577.955 C575.079,578.785 574.972,580.179 573.967,580.97 C572.952,581.769 571.57,581.546 570.958,580.573" fill="#FFFFFE"/>
    <path d="M563.154,584.051 C562.889,582.923 563.506,581.818 564.498,581.475 C565.489,581.124 566.654,581.608 567.146,582.659 C567.63,583.691 567.084,584.986 565.867,585.412 C564.65,585.833 563.415,585.166 563.154,584.051" fill="#FFFFFE"/>
    <path d="M554.638,584.795 C554.749,583.644 555.692,582.794 556.74,582.79 C557.801,582.782 558.748,583.628 558.866,584.773 C558.989,585.917 558.052,586.949 556.759,586.957 C555.476,586.961 554.526,585.935 554.638,584.795" fill="#FFFFFE"/>
    <path d="M546.343,582.745 C546.824,581.696 547.987,581.201 548.979,581.54 C549.975,581.872 550.602,582.981 550.349,584.104 C550.096,585.22 548.871,585.897 547.649,585.484 C546.428,585.065 545.861,583.79 546.343,582.745" fill="#FFFFFE"/>
    <path d="M539.165,578.109 C539.963,577.273 541.227,577.179 542.06,577.826 C542.887,578.469 543.122,579.714 542.519,580.691 C541.909,581.665 540.529,581.904 539.511,581.116 C538.49,580.336 538.374,578.942 539.165,578.109" fill="#FFFFFE"/>
    <path d="M533.881,571.398 C534.902,570.863 536.124,571.184 536.706,572.062 C537.28,572.943 537.104,574.196 536.212,574.921 C535.321,575.657 533.94,575.437 533.232,574.359 C532.523,573.284 532.863,571.926 533.881,571.398" fill="#FFFFFE"/>
    <path d="M531.071,563.327 C532.203,563.163 533.259,563.865 533.514,564.881 C533.78,565.903 533.201,567.028 532.119,567.431 C531.038,567.828 529.807,567.163 529.481,565.923 C529.163,564.675 529.93,563.498 531.071,563.327" fill="#FFFFFE"/>
    <path d="M531.019,554.788 C532.148,554.985 532.923,555.996 532.843,557.046 C532.766,558.09 531.846,558.973 530.69,558.999 C529.542,559.025 528.592,558.003 528.69,556.723 C528.792,555.44 529.891,554.58 531.019,554.788" fill="#FFFFFE"/>
    <path d="M533.749,546.689 C534.754,547.256 535.152,548.451 534.732,549.422 C534.313,550.382 533.165,550.911 532.067,550.563 C530.972,550.219 530.399,548.938 530.909,547.761 C531.42,546.573 532.75,546.12 533.749,546.689" fill="#FFFFFE"/>
    <path d="M538.96,539.921 C539.729,540.781 539.722,542.049 539.011,542.821 C538.301,543.599 537.035,543.726 536.114,543.046 C535.191,542.358 535.062,540.965 535.93,540.019 C536.807,539.063 538.201,539.063 538.96,539.921" fill="#FFFFFE"/>
    <path d="M546.089,535.206 C546.536,536.268 546.11,537.463 545.19,537.963 C544.271,538.472 543.03,538.19 542.384,537.236 C541.727,536.287 542.056,534.922 543.183,534.312 C544.319,533.697 545.648,534.142 546.089,535.206" fill="#FFFFFE"/>
    <path d="M554.356,533.065 C554.437,534.217 553.643,535.204 552.604,535.394 C551.574,535.557 550.502,534.886 550.191,533.778 C549.888,532.669 550.638,531.489 551.91,531.277 C553.181,531.059 554.283,531.92 554.356,533.065" fill="#FFFFFE"/>
    <path d="M562.886,533.726 C562.58,534.837 561.515,535.517 560.477,535.354 C559.443,535.178 558.642,534.201 558.708,533.05 C558.773,531.908 559.868,531.028 561.143,531.237 C562.409,531.447 563.181,532.615 562.886,533.726" fill="#FFFFFE"/>
    <path d="M570.72,537.112 C570.078,538.067 568.845,538.365 567.922,537.874 C566.988,537.372 566.56,536.181 566.992,535.115 C567.431,534.049 568.755,533.592 569.889,534.201 C571.025,534.804 571.372,536.163 570.72,537.112" fill="#FFFFFE"/>
    <path d="M577.041,542.866 C576.118,543.565 574.856,543.442 574.134,542.673 C573.426,541.896 573.396,540.634 574.163,539.768 C574.914,538.904 576.316,538.894 577.193,539.844 C578.073,540.777 577.954,542.175 577.041,542.866" fill="#FFFFFE"/>
    <path d="M581.148,550.357 C580.052,550.716 578.898,550.198 578.47,549.231 C578.043,548.273 578.437,547.065 579.432,546.493 C580.43,545.919 581.759,546.371 582.277,547.539 C582.806,548.718 582.244,550.001 581.148,550.357" fill="#FFFFFE"/>
    <path d="M582.595,558.779 C581.438,558.766 580.521,557.889 580.426,556.849 C580.339,555.795 581.098,554.781 582.231,554.564 C583.354,554.354 584.47,555.208 584.575,556.486 C584.69,557.769 583.739,558.794 582.595,558.779" fill="#FFFFFE"/>
    <path d="M504.894,559.083 C504.894,570.905 495.31,580.489 483.487,580.489 C471.667,580.489 462.085,570.905 462.085,559.083 C462.085,547.262 471.667,537.677 483.487,537.677 C495.31,537.677 504.894,547.262 504.894,559.083" fill="#FFFFFE"/>
    <path d="M496.364,558.629 C496.364,563.982 492.026,568.326 486.672,568.326 C481.316,568.326 476.977,563.982 476.977,558.629 C476.977,553.271 481.316,548.93 486.672,548.93 C492.026,548.93 496.364,553.271 496.364,558.629" fill="#1A1919"/>
    <path d="M493.484,555.719 C493.484,557.021 492.429,558.075 491.123,558.075 C489.825,558.075 488.766,557.021 488.766,555.719 C488.766,554.416 489.825,553.361 491.123,553.361 C492.429,553.361 493.484,554.416 493.484,555.719" fill="#FFFFFE"/>
    <path d="M508.091,567.218 C507.011,566.825 506.424,565.706 506.668,564.683 C506.926,563.67 507.972,562.954 509.11,563.116 C510.249,563.273 511.028,564.438 510.718,565.685 C510.407,566.94 509.175,567.611 508.091,567.218" fill="#FFFFFE"/>
    <path d="M504.065,574.749 C503.164,574.03 502.973,572.773 503.547,571.894 C504.117,571.01 505.34,570.68 506.365,571.203 C507.39,571.729 507.738,573.081 507.034,574.157 C506.34,575.244 504.959,575.47 504.065,574.749" fill="#FFFFFE"/>
    <path d="M497.81,580.573 C497.197,579.598 497.413,578.354 498.243,577.698 C499.067,577.05 500.336,577.132 501.139,577.955 C501.933,578.785 501.824,580.179 500.822,580.97 C499.81,581.769 498.423,581.546 497.81,580.573" fill="#FFFFFE"/>
    <path d="M490.009,584.051 C489.743,582.923 490.362,581.818 491.353,581.475 C492.346,581.124 493.51,581.608 494.002,582.659 C494.484,583.691 493.938,584.986 492.72,585.412 C491.507,585.833 490.271,585.166 490.009,584.051" fill="#FFFFFE"/>
    <path d="M481.494,584.795 C481.604,583.644 482.547,582.794 483.598,582.79 C484.656,582.782 485.604,583.628 485.723,584.773 C485.844,585.917 484.904,586.949 483.612,586.957 C482.331,586.961 481.381,585.935 481.494,584.795" fill="#FFFFFE"/>
    <path d="M473.197,582.745 C473.68,581.696 474.842,581.201 475.835,581.54 C476.831,581.872 477.458,582.981 477.201,584.104 C476.953,585.22 475.727,585.897 474.504,585.484 C473.283,585.065 472.716,583.79 473.197,582.745" fill="#FFFFFE"/>
    <path d="M466.02,578.109 C466.816,577.273 468.083,577.179 468.918,577.826 C469.742,578.469 469.977,579.714 469.37,580.691 C468.765,581.665 467.382,581.904 466.365,581.116 C465.346,580.336 465.228,578.942 466.02,578.109" fill="#FFFFFE"/>
    <path d="M460.737,571.398 C461.756,570.863 462.978,571.184 463.561,572.062 C464.139,572.943 463.959,574.196 463.067,574.921 C462.176,575.657 460.792,575.437 460.086,574.359 C459.379,573.284 459.716,571.926 460.737,571.398" fill="#FFFFFE"/>
    <path d="M457.925,563.327 C459.06,563.163 460.114,563.865 460.371,564.881 C460.637,565.903 460.056,567.028 458.974,567.431 C457.892,567.828 456.662,567.163 456.336,565.923 C456.018,564.675 456.783,563.498 457.925,563.327" fill="#FFFFFE"/>
    <path d="M457.875,554.788 C459.003,554.985 459.777,555.996 459.698,557.046 C459.619,558.09 458.7,558.973 457.544,558.999 C456.397,559.025 455.447,558.003 455.545,556.723 C455.646,555.44 456.745,554.58 457.875,554.788" fill="#FFFFFE"/>
    <path d="M460.603,546.689 C461.608,547.256 462.006,548.451 461.589,549.422 C461.167,550.382 460.021,550.911 458.922,550.563 C457.825,550.219 457.251,548.938 457.765,547.761 C458.275,546.573 459.608,546.12 460.603,546.689" fill="#FFFFFE"/>
    <path d="M465.819,539.921 C466.585,540.781 466.577,542.049 465.866,542.821 C465.156,543.599 463.891,543.726 462.968,543.046 C462.046,542.358 461.918,540.965 462.787,540.019 C463.66,539.063 465.058,539.063 465.819,539.921" fill="#FFFFFE"/>
    <path d="M472.942,535.206 C473.39,536.268 472.963,537.463 472.043,537.963 C471.124,538.472 469.885,538.19 469.24,537.236 C468.58,536.287 468.911,534.922 470.039,534.312 C471.177,533.697 472.499,534.142 472.942,535.206" fill="#FFFFFE"/>
    <path d="M481.215,533.065 C481.294,534.217 480.501,535.204 479.458,535.394 C478.429,535.557 477.356,534.886 477.045,533.778 C476.74,532.669 477.491,531.489 478.765,531.277 C480.036,531.059 481.139,531.92 481.215,533.065" fill="#FFFFFE"/>
    <path d="M489.741,533.726 C489.435,534.837 488.369,535.517 487.33,535.354 C486.296,535.178 485.495,534.201 485.564,533.05 C485.627,531.908 486.722,531.028 487.995,531.237 C489.266,531.447 490.035,532.615 489.741,533.726" fill="#FFFFFE"/>
    <path d="M497.574,537.112 C496.934,538.067 495.698,538.365 494.773,537.874 C493.846,537.372 493.417,536.181 493.852,535.115 C494.284,534.049 495.61,533.592 496.743,534.201 C497.88,534.804 498.227,536.163 497.574,537.112" fill="#FFFFFE"/>
    <path d="M503.896,542.866 C502.973,543.565 501.709,543.442 500.99,542.673 C500.28,541.896 500.254,540.634 501.016,539.768 C501.769,538.904 503.172,538.894 504.049,539.844 C504.925,540.777 504.81,542.175 503.896,542.866" fill="#FFFFFE"/>
    <path d="M508.004,550.357 C506.904,550.716 505.751,550.198 505.324,549.231 C504.898,548.273 505.291,547.065 506.287,546.493 C507.285,545.919 508.612,546.371 509.131,547.539 C509.662,548.718 509.1,550.001 508.004,550.357" fill="#FFFFFE"/>
    <path d="M509.446,558.779 C508.296,558.766 507.379,557.889 507.284,556.849 C507.192,555.795 507.955,554.781 509.084,554.564 C510.208,554.354 511.324,555.208 511.431,556.486 C511.547,557.769 510.593,558.794 509.446,558.779" fill="#FFFFFE"/>
    <path d="M530.71,577.794 L520.062,569.96 L509.412,577.794 L520.062,589.513 L530.71,577.794" fill="#DF4E66"/>
    <path d="M470.417,602.022 C470.417,602.022 431.17,615.301 439.219,626.19 C443.353,631.781 454.544,622.905 454.544,622.905 C454.544,622.905 444.724,638.05 453.326,639.498 C461.39,640.858 464.701,625.652 464.701,625.652 C464.701,625.652 466.536,643.954 472.397,640.291 C478.764,636.313 476.004,617.08 470.417,602.022" fill="#DF4E66"/>
    <path d="M569.706,602.022 C569.706,602.022 608.954,615.301 600.904,626.19 C596.768,631.781 585.581,622.905 585.581,622.905 C585.581,622.905 595.4,638.05 586.796,639.498 C578.731,640.858 575.423,625.652 575.423,625.652 C575.423,625.652 573.588,643.954 567.727,640.291 C561.362,636.313 564.119,617.08 569.706,602.022" fill="#DF4E66"/>
    <path d="M535.006,595.864 C530.798,596.802 526.644,599.371 523.195,602.106 C522.378,601.331 521.276,600.853 520.062,600.853 C518.848,600.853 517.746,601.331 516.929,602.106 C513.481,599.371 509.326,596.802 505.122,595.864 C502.783,600.199 502.049,603.794 502.776,610.102 C507.091,610.663 511.636,609.994 515.648,608.384 C512.062,611.716 508.959,615.212 507.153,619.774 C508.663,619.505 510.176,619.308 511.687,619.183 C512.53,620.326 513.328,621.491 514.08,622.679 C516.046,618.087 517.927,614.126 520.024,609.987 C520.071,609.987 520.088,609.987 520.099,609.987 C522.197,614.126 524.076,618.087 526.043,622.679 C526.794,621.491 527.596,620.326 528.435,619.183 C529.943,619.308 531.459,619.505 532.969,619.774 C531.163,615.21 528.062,611.71 524.471,608.384 C528.486,609.994 533.032,610.663 537.348,610.102 C538.074,603.794 537.342,600.199 535.006,595.864" fill="#DF4E66"/>
  </g>
</svg>
