<?xml version="1.0" encoding="UTF-8"?>
<!DOCTYPE svg PUBLIC "-//W3C//DTD SVG 1.1//EN" "http://www.w3.org/Graphics/SVG/1.1/DTD/svg11.dtd">
<svg version="1.1" xmlns="http://www.w3.org/2000/svg" xmlns:xlink="http://www.w3.org/1999/xlink" x="0" y="0" width="154.575" height="186.64" viewBox="0, 0, 154.575, 186.64">
  <g id="Layer_1" transform="translate(-2.414, -5.555)">
    <path d="M67.36,179.065 L69.927,151.08 L63.211,151.08 L62.641,178.476 C60.259,179.186 53.223,181.478 52.196,184.021 C51.969,184.585 52.007,185.131 52.309,185.647 C52.64,186.214 53.243,186.502 54.104,186.502 C56.102,186.502 59.4,184.886 61.47,183.754 C60.772,185.92 59.959,189.303 60.962,191.041 C61.336,191.69 61.907,192.072 62.667,192.182 C62.733,192.188 62.799,192.195 62.865,192.195 C64.85,192.195 65.665,187.895 65.998,184.086 C67.986,186.194 71.296,189.329 73.397,189.329 C73.924,189.329 74.363,189.152 74.703,188.803 C75.051,188.444 75.205,187.993 75.157,187.46 C74.931,184.871 69.258,180.468 67.36,179.065" fill="#E0642A"/>
    <path d="M107.206,184.021 C106.183,181.479 99.143,179.186 96.763,178.476 L96.2,151.496 L96.192,151.08 L89.477,151.08 L92.044,179.065 C90.144,180.468 84.472,184.87 84.245,187.46 C84.2,187.995 84.353,188.446 84.699,188.803 C85.04,189.152 85.48,189.329 86.006,189.329 C88.106,189.329 91.418,186.194 93.405,184.086 C93.737,187.895 94.555,192.195 96.538,192.195 C96.602,192.195 96.669,192.19 96.738,192.182 C97.494,192.074 98.066,191.69 98.442,191.041 C99.444,189.301 98.632,185.92 97.933,183.755 C100.002,184.886 103.302,186.502 105.3,186.502 C106.16,186.502 106.764,186.214 107.096,185.647 C107.397,185.133 107.434,184.585 107.206,184.021" fill="#E0642A"/>
    <path d="M79.702,68.384 C71.171,68.384 14.613,67.187 14.613,116.806 C14.613,166.421 71.171,165.227 79.702,165.227 C88.231,165.227 144.79,166.421 144.79,116.806 C144.79,67.187 88.231,68.384 79.702,68.384" fill="#254A69"/>
    <path d="M46.731,129.039 C43.974,129.039 41.485,127.513 40.232,125.058 L42.169,124.072 C43.059,125.822 44.766,126.866 46.731,126.866 C48.694,126.866 50.398,125.822 51.29,124.072 L53.225,125.058 C51.974,127.513 49.486,129.039 46.731,129.039" fill="#FFFFFE"/>
    <path d="M68.711,129.039 C65.954,129.039 63.465,127.513 62.214,125.058 L64.151,124.072 C65.041,125.822 66.747,126.866 68.711,126.866 C70.676,126.866 72.38,125.822 73.271,124.072 L75.206,125.058 C73.957,127.513 71.468,129.039 68.711,129.039" fill="#FFFFFE"/>
    <path d="M90.691,129.039 C87.936,129.039 85.447,127.513 84.196,125.058 L86.131,124.072 C87.023,125.822 88.73,126.866 90.691,126.866 C92.657,126.866 94.361,125.822 95.253,124.072 L97.19,125.058 C95.938,127.513 93.449,129.039 90.691,129.039" fill="#FFFFFE"/>
    <path d="M112.674,129.039 C109.917,129.039 107.43,127.513 106.178,125.058 L108.113,124.072 C109.005,125.822 110.709,126.866 112.673,126.866 C114.639,126.866 116.343,125.822 117.234,124.072 L119.171,125.058 C117.919,127.513 115.43,129.039 112.674,129.039" fill="#FFFFFE"/>
    <path d="M46.731,144.359 C43.974,144.359 41.485,142.833 40.232,140.377 L42.169,139.391 C43.059,141.142 44.766,142.188 46.731,142.186 C48.694,142.186 50.398,141.142 51.29,139.391 L53.225,140.377 C51.974,142.833 49.486,144.359 46.731,144.359" fill="#FFFFFE"/>
    <path d="M68.711,144.359 C65.954,144.359 63.465,142.833 62.214,140.377 L64.151,139.391 C65.041,141.142 66.747,142.186 68.711,142.186 C70.676,142.186 72.38,141.142 73.271,139.391 L75.206,140.377 C73.957,142.833 71.468,144.359 68.711,144.359" fill="#FFFFFE"/>
    <path d="M90.691,144.359 C87.936,144.359 85.447,142.833 84.196,140.377 L86.131,139.391 C87.023,141.142 88.73,142.188 90.691,142.186 C92.657,142.186 94.361,141.142 95.253,139.391 L97.19,140.377 C95.938,142.833 93.449,144.359 90.691,144.359" fill="#FFFFFE"/>
    <path d="M112.674,144.359 C109.917,144.359 107.43,142.833 106.178,140.377 L108.113,139.391 C109.005,141.142 110.709,142.186 112.673,142.186 C114.639,142.186 116.343,141.142 117.234,139.391 L119.171,140.377 C117.919,142.833 115.43,144.359 112.674,144.359" fill="#FFFFFE"/>
    <path d="M79.702,9.149 C70.392,9.149 8.666,7.965 8.666,57.191 C8.666,106.417 70.392,105.231 79.702,105.231 C89.011,105.231 150.737,106.417 150.737,57.191 C150.737,7.965 89.011,9.149 79.702,9.149" fill="#254A69"/>
    <path d="M37.921,18.45 C30.239,14.571 22.989,10.25 16.211,5.555 C16.88,14.446 17.759,23.339 18.845,32.227 C25.643,27.94 32.006,23.327 37.921,18.45" fill="#254A69"/>
    <path d="M121.481,18.45 C129.165,14.571 136.414,10.25 143.193,5.555 C142.522,14.446 141.644,23.339 140.56,32.227 C133.761,27.94 127.398,23.327 121.481,18.45" fill="#254A69"/>
    <path d="M91.36,74.939 L79.702,67.463 L68.044,74.939 L79.702,88.865 L91.36,74.939" fill="#E0642A"/>
    <path d="M155.87,140.118 C155.987,140.431 141.037,130.934 132.013,119.279 C122.628,107.783 119.171,94.129 133.873,89.791 C152.071,82.718 160.137,124.182 155.87,140.118" fill="#38B39C"/>
    <path d="M3.533,140.118 C3.416,140.431 18.366,130.934 27.39,119.279 C36.774,107.783 40.232,94.129 25.53,89.791 C7.332,82.718 -0.735,124.182 3.533,140.118" fill="#38B39C"/>
    <path d="M64.511,54.771 C64.511,66.608 54.912,76.205 43.074,76.205 C31.236,76.205 21.644,66.608 21.644,54.771 C21.644,42.933 31.236,33.336 43.074,33.336 C54.912,33.336 64.511,42.933 64.511,54.771" fill="#FFFFFE"/>
    <path d="M58.741,54.315 C58.741,60.165 54.004,64.908 48.155,64.908 C42.303,64.908 37.562,60.165 37.562,54.315 C37.562,48.464 42.303,43.722 48.155,43.722 C54.004,43.722 58.741,48.464 58.741,54.315" fill="#1A1919"/>
    <path d="M55.595,51.139 C55.595,52.56 54.44,53.713 53.015,53.713 C51.599,53.713 50.44,52.56 50.44,51.139 C50.44,49.711 51.599,48.562 53.015,48.562 C54.44,48.562 55.595,49.711 55.595,51.139" fill="#FFFFFE"/>
    <path d="M67.711,62.916 C66.63,62.525 66.043,61.402 66.288,60.378 C66.546,59.361 67.591,58.646 68.732,58.808 C69.871,58.966 70.652,60.134 70.341,61.382 C70.031,62.636 68.795,63.307 67.711,62.916" fill="#FFFFFE"/>
    <path d="M63.68,70.459 C62.781,69.737 62.584,68.481 63.16,67.599 C63.733,66.713 64.957,66.384 65.986,66.905 C67.011,67.432 67.359,68.786 66.655,69.866 C65.957,70.954 64.575,71.178 63.68,70.459" fill="#FFFFFE"/>
    <path d="M57.418,76.29 C56.803,75.314 57.019,74.065 57.848,73.414 C58.677,72.764 59.944,72.844 60.749,73.668 C61.546,74.499 61.437,75.894 60.433,76.688 C59.417,77.486 58.032,77.262 57.418,76.29" fill="#FFFFFE"/>
    <path d="M49.606,79.771 C49.339,78.642 49.959,77.536 50.949,77.19 C51.943,76.842 53.11,77.329 53.602,78.379 C54.087,79.413 53.54,80.706 52.32,81.132 C51.102,81.555 49.866,80.889 49.606,79.771" fill="#FFFFFE"/>
    <path d="M41.079,80.519 C41.19,79.368 42.132,78.513 43.184,78.51 C44.246,78.503 45.192,79.351 45.314,80.497 C45.434,81.639 44.493,82.675 43.2,82.682 C41.917,82.687 40.966,81.659 41.079,80.519" fill="#FFFFFE"/>
    <path d="M32.771,78.467 C33.254,77.414 34.417,76.916 35.41,77.255 C36.409,77.588 37.036,78.699 36.78,79.823 C36.53,80.945 35.302,81.62 34.078,81.207 C32.857,80.788 32.289,79.511 32.771,78.467" fill="#FFFFFE"/>
    <path d="M25.582,73.823 C26.381,72.989 27.647,72.892 28.483,73.539 C29.314,74.182 29.545,75.428 28.94,76.408 C28.331,77.384 26.947,77.626 25.932,76.835 C24.907,76.054 24.793,74.656 25.582,73.823" fill="#FFFFFE"/>
    <path d="M20.293,67.104 C21.314,66.567 22.538,66.888 23.121,67.767 C23.697,68.65 23.519,69.903 22.627,70.63 C21.734,71.366 20.352,71.147 19.641,70.068 C18.932,68.99 19.27,67.628 20.293,67.104" fill="#FFFFFE"/>
    <path d="M17.477,59.022 C18.614,58.857 19.671,59.557 19.926,60.577 C20.192,61.601 19.61,62.729 18.527,63.128 C17.446,63.527 16.212,62.862 15.888,61.618 C15.569,60.367 16.336,59.191 17.477,59.022" fill="#FFFFFE"/>
    <path d="M17.428,50.47 C18.557,50.668 19.332,51.68 19.253,52.73 C19.176,53.778 18.253,54.66 17.097,54.687 C15.946,54.712 14.996,53.691 15.093,52.406 C15.194,51.12 16.297,50.259 17.428,50.47" fill="#FFFFFE"/>
    <path d="M20.159,42.357 C21.165,42.927 21.564,44.126 21.145,45.097 C20.725,46.059 19.574,46.588 18.477,46.242 C17.378,45.895 16.804,44.614 17.316,43.433 C17.829,42.245 19.161,41.792 20.159,42.357" fill="#FFFFFE"/>
    <path d="M25.38,35.582 C26.148,36.442 26.139,37.714 25.43,38.486 C24.718,39.267 23.452,39.394 22.525,38.712 C21.604,38.023 21.477,36.628 22.345,35.679 C23.221,34.725 24.618,34.723 25.38,35.582" fill="#FFFFFE"/>
    <path d="M32.518,30.861 C32.963,31.924 32.536,33.12 31.614,33.623 C30.694,34.13 29.455,33.848 28.805,32.896 C28.147,31.945 28.479,30.578 29.607,29.965 C30.745,29.349 32.071,29.797 32.518,30.861" fill="#FFFFFE"/>
    <path d="M40.798,28.717 C40.877,29.871 40.083,30.858 39.042,31.048 C38.008,31.211 36.935,30.542 36.625,29.428 C36.319,28.322 37.072,27.139 38.346,26.928 C39.619,26.708 40.723,27.572 40.798,28.717" fill="#FFFFFE"/>
    <path d="M49.336,29.379 C49.03,30.492 47.963,31.171 46.924,31.009 C45.888,30.835 45.086,29.856 45.153,28.701 C45.216,27.558 46.315,26.681 47.588,26.89 C48.86,27.096 49.63,28.267 49.336,29.379" fill="#FFFFFE"/>
    <path d="M57.181,32.772 C56.54,33.728 55.302,34.025 54.375,33.534 C53.446,33.03 53.016,31.841 53.451,30.77 C53.888,29.704 55.216,29.243 56.349,29.856 C57.487,30.459 57.832,31.82 57.181,32.772" fill="#FFFFFE"/>
    <path d="M63.511,38.532 C62.586,39.232 61.323,39.109 60.601,38.338 C59.89,37.563 59.863,36.295 60.625,35.429 C61.384,34.565 62.787,34.555 63.663,35.502 C64.542,36.44 64.426,37.841 63.511,38.532" fill="#FFFFFE"/>
    <path d="M67.624,46.034 C66.522,46.393 65.369,45.872 64.94,44.905 C64.516,43.945 64.908,42.738 65.905,42.162 C66.905,41.588 68.232,42.039 68.754,43.212 C69.282,44.392 68.721,45.679 67.624,46.034" fill="#FFFFFE"/>
    <path d="M69.071,54.464 C67.916,54.452 66.995,53.577 66.901,52.533 C66.813,51.477 67.573,50.462 68.707,50.248 C69.832,50.033 70.948,50.889 71.058,52.171 C71.17,53.454 70.217,54.483 69.071,54.464" fill="#FFFFFE"/>
    <path d="M137.762,54.771 C137.762,66.608 128.164,76.205 116.326,76.205 C104.488,76.205 94.894,66.608 94.894,54.771 C94.894,42.933 104.488,33.336 116.326,33.336 C128.164,33.336 137.762,42.933 137.762,54.771" fill="#FFFFFE"/>
    <path d="M131.991,54.315 C131.991,60.165 127.255,64.908 121.405,64.908 C115.554,64.908 110.814,60.165 110.814,54.315 C110.814,48.464 115.554,43.722 121.405,43.722 C127.255,43.722 131.991,48.464 131.991,54.315" fill="#1A1919"/>
    <path d="M128.847,51.139 C128.847,52.56 127.691,53.713 126.266,53.713 C124.851,53.713 123.691,52.56 123.691,51.139 C123.691,49.711 124.851,48.562 126.266,48.562 C127.691,48.562 128.847,49.711 128.847,51.139" fill="#FFFFFE"/>
    <path d="M140.962,62.916 C139.88,62.525 139.294,61.402 139.54,60.378 C139.797,59.361 140.842,58.646 141.984,58.808 C143.123,58.966 143.902,60.134 143.592,61.382 C143.282,62.636 142.046,63.307 140.962,62.916" fill="#FFFFFE"/>
    <path d="M136.931,70.459 C136.032,69.737 135.834,68.481 136.411,67.599 C136.983,66.713 138.208,66.384 139.236,66.905 C140.261,67.432 140.61,68.786 139.906,69.866 C139.208,70.954 137.826,71.178 136.931,70.459" fill="#FFFFFE"/>
    <path d="M130.669,76.29 C130.054,75.314 130.269,74.065 131.099,73.414 C131.928,72.764 133.195,72.844 133.999,73.668 C134.797,74.499 134.689,75.894 133.682,76.688 C132.667,77.486 131.282,77.262 130.669,76.29" fill="#FFFFFE"/>
    <path d="M122.856,79.771 C122.589,78.642 123.209,77.536 124.2,77.19 C125.194,76.842 126.361,77.329 126.852,78.379 C127.338,79.413 126.79,80.706 125.571,81.132 C124.354,81.555 123.118,80.889 122.856,79.771" fill="#FFFFFE"/>
    <path d="M114.329,80.519 C114.44,79.368 115.384,78.513 116.435,78.51 C117.498,78.503 118.442,79.351 118.564,80.497 C118.685,81.639 117.744,82.675 116.451,82.682 C115.166,82.687 114.218,81.659 114.329,80.519" fill="#FFFFFE"/>
    <path d="M106.023,78.467 C106.504,77.414 107.668,76.916 108.661,77.255 C109.661,77.588 110.286,78.699 110.031,79.823 C109.78,80.945 108.554,81.62 107.33,81.207 C106.107,80.788 105.541,79.511 106.023,78.467" fill="#FFFFFE"/>
    <path d="M98.833,73.823 C99.632,72.989 100.898,72.892 101.735,73.539 C102.564,74.182 102.797,75.428 102.189,76.408 C101.581,77.384 100.198,77.626 99.182,76.835 C98.158,76.054 98.044,74.656 98.833,73.823" fill="#FFFFFE"/>
    <path d="M93.544,67.104 C94.565,66.567 95.789,66.888 96.373,67.767 C96.948,68.65 96.771,69.903 95.878,70.63 C94.985,71.366 93.602,71.147 92.892,70.068 C92.183,68.99 92.522,67.628 93.544,67.104" fill="#FFFFFE"/>
    <path d="M90.727,59.022 C91.865,58.857 92.922,59.557 93.177,60.577 C93.443,61.601 92.86,62.729 91.778,63.128 C90.697,63.527 89.463,62.862 89.138,61.618 C88.819,60.367 89.586,59.191 90.727,59.022" fill="#FFFFFE"/>
    <path d="M90.679,50.47 C91.808,50.668 92.583,51.68 92.505,52.73 C92.427,53.778 91.504,54.66 90.347,54.687 C89.196,54.712 88.247,53.691 88.344,52.406 C88.445,51.12 89.549,50.259 90.679,50.47" fill="#FFFFFE"/>
    <path d="M93.409,42.357 C94.416,42.927 94.815,44.126 94.396,45.097 C93.975,46.059 92.827,46.588 91.727,46.242 C90.629,45.895 90.055,44.614 90.566,43.433 C91.08,42.245 92.411,41.792 93.409,42.357" fill="#FFFFFE"/>
    <path d="M98.632,35.582 C99.398,36.442 99.39,37.714 98.681,38.486 C97.97,39.267 96.703,39.394 95.776,38.712 C94.854,38.023 94.727,36.628 95.596,35.679 C96.472,34.725 97.868,34.723 98.632,35.582" fill="#FFFFFE"/>
    <path d="M105.768,30.861 C106.214,31.924 105.788,33.12 104.867,33.623 C103.945,34.13 102.705,33.848 102.056,32.896 C101.4,31.945 101.729,30.578 102.857,29.965 C103.997,29.349 105.322,29.797 105.768,30.861" fill="#FFFFFE"/>
    <path d="M114.048,28.717 C114.129,29.871 113.334,30.858 112.292,31.048 C111.259,31.211 110.186,30.542 109.874,29.428 C109.569,28.322 110.323,27.139 111.596,26.928 C112.87,26.708 113.974,27.572 114.048,28.717" fill="#FFFFFE"/>
    <path d="M122.587,29.379 C122.281,30.492 121.213,31.171 120.174,31.009 C119.139,30.835 118.337,29.856 118.403,28.701 C118.467,27.558 119.566,26.681 120.839,26.89 C122.111,27.096 122.88,28.267 122.587,29.379" fill="#FFFFFE"/>
    <path d="M130.432,32.772 C129.79,33.728 128.553,34.025 127.628,33.534 C126.696,33.03 126.267,31.841 126.701,30.77 C127.139,29.704 128.466,29.243 129.599,29.856 C130.738,30.459 131.083,31.82 130.432,32.772" fill="#FFFFFE"/>
    <path d="M136.761,38.532 C135.838,39.232 134.572,39.109 133.852,38.338 C133.143,37.563 133.114,36.295 133.877,35.429 C134.634,34.565 136.037,34.555 136.914,35.502 C137.793,36.44 137.677,37.841 136.761,38.532" fill="#FFFFFE"/>
    <path d="M140.876,46.034 C139.773,46.393 138.621,45.872 138.192,44.905 C137.767,43.945 138.16,42.738 139.157,42.162 C140.156,41.588 141.482,42.039 142.006,43.212 C142.534,44.392 141.972,45.679 140.876,46.034" fill="#FFFFFE"/>
    <path d="M142.322,54.464 C141.166,54.452 140.247,53.577 140.153,52.533 C140.064,51.477 140.824,50.462 141.958,50.248 C143.082,50.033 144.198,50.889 144.308,52.171 C144.423,53.454 143.468,54.483 142.322,54.464" fill="#FFFFFE"/>
    <path d="M94.66,91.273 C90.449,92.21 86.289,94.783 82.839,97.523 C82.02,96.747 80.918,96.268 79.701,96.268 C78.485,96.268 77.383,96.747 76.565,97.523 C73.113,94.783 68.954,92.21 64.745,91.273 C62.403,95.614 61.669,99.211 62.395,105.526 C66.717,106.088 71.264,105.417 75.284,103.806 C71.692,107.141 68.586,110.642 66.777,115.207 C68.29,114.941 69.805,114.742 71.317,114.615 C72.164,115.761 72.961,116.927 73.714,118.116 C75.681,113.52 77.562,109.556 79.664,105.413 C81.839,109.556 83.723,113.52 85.689,118.116 C86.441,116.927 87.241,115.761 88.086,114.615 C89.595,114.742 91.112,114.941 92.625,115.207 C90.817,110.642 87.711,107.137 84.116,103.806 C88.138,105.417 92.688,106.088 97.007,105.526 C97.734,99.211 97.001,95.614 94.66,91.273" fill="#DA2D5F"/>
  </g>
</svg>
