<?xml version="1.0" encoding="UTF-8"?>
<!DOCTYPE svg PUBLIC "-//W3C//DTD SVG 1.1//EN" "http://www.w3.org/Graphics/SVG/1.1/DTD/svg11.dtd">
<svg version="1.1" xmlns="http://www.w3.org/2000/svg" xmlns:xlink="http://www.w3.org/1999/xlink" x="0" y="0" width="151.292" height="202.187" viewBox="0, 0, 151.292, 202.187">
  <g id="Layer_1" transform="translate(-4.056, -496.076)">
    <path d="M66.384,684.09 L69.154,653.895 L61.908,653.895 L61.291,683.458 C58.722,684.223 51.129,686.695 50.022,689.44 C49.775,690.05 49.816,690.637 50.143,691.196 C50.5,691.807 51.15,692.117 52.081,692.117 C54.235,692.117 57.797,690.373 60.028,689.151 C59.275,691.492 58.397,695.137 59.481,697.015 C59.885,697.715 60.501,698.127 61.32,698.244 C61.391,698.256 61.464,698.263 61.535,698.263 C63.677,698.263 64.556,693.621 64.915,689.51 C67.06,691.784 70.633,695.17 72.897,695.17 C73.467,695.17 73.941,694.977 74.31,694.598 C74.683,694.213 74.849,693.725 74.8,693.152 C74.557,690.359 68.434,685.606 66.384,684.09" fill="#E0642A"/>
    <path d="M109.382,689.44 C108.276,686.697 100.682,684.223 98.112,683.458 L97.507,654.342 L97.497,653.895 L90.251,653.895 L93.021,684.09 C90.97,685.606 84.848,690.357 84.606,693.152 C84.556,693.727 84.722,694.215 85.094,694.598 C85.463,694.977 85.937,695.17 86.507,695.17 C88.771,695.17 92.344,691.784 94.49,689.51 C94.849,693.621 95.727,698.263 97.87,698.263 C97.941,698.263 98.012,698.256 98.088,698.244 C98.901,698.127 99.518,697.715 99.924,697.015 C101.007,695.137 100.13,691.492 99.374,689.151 C101.606,690.373 105.168,692.117 107.323,692.117 C108.253,692.117 108.904,691.807 109.263,691.196 C109.587,690.639 109.627,690.05 109.382,689.44" fill="#E0642A"/>
    <path d="M79.702,575.754 C71.352,575.754 15.996,574.586 15.996,623.148 C15.996,671.711 71.352,670.539 79.702,670.539 C88.051,670.539 143.408,671.711 143.408,623.148 C143.408,574.586 88.051,575.754 79.702,575.754" fill="#6E2B6E"/>
    <path d="M48.075,636.068 C45.434,636.068 43.046,634.602 41.844,632.247 L43.7,631.299 C44.556,632.98 46.192,633.981 48.075,633.981 C49.959,633.981 51.596,632.98 52.45,631.299 L54.306,632.247 C53.106,634.602 50.721,636.068 48.075,636.068" fill="#FFFFFE"/>
    <path d="M69.16,636.068 C66.517,636.068 64.128,634.602 62.928,632.247 L64.786,631.299 C65.64,632.98 67.275,633.981 69.16,633.981 C71.045,633.981 72.678,632.98 73.535,631.299 L75.392,632.247 C74.191,634.602 71.804,636.068 69.16,636.068" fill="#FFFFFE"/>
    <path d="M90.244,636.068 C87.602,636.068 85.214,634.602 84.012,632.247 L85.87,631.299 C86.725,632.98 88.359,633.981 90.244,633.981 C92.128,633.981 93.764,632.98 94.619,631.299 L96.474,632.247 C95.275,634.602 92.889,636.068 90.244,636.068" fill="#FFFFFE"/>
    <path d="M111.328,636.068 C108.685,636.068 106.298,634.602 105.099,632.247 L106.953,631.299 C107.81,632.98 109.443,633.981 111.327,633.981 C113.212,633.981 114.849,632.98 115.704,631.299 L117.56,632.247 C116.359,634.602 113.972,636.068 111.328,636.068" fill="#FFFFFE"/>
    <path d="M48.075,650.76 C45.434,650.76 43.046,649.298 41.844,646.942 L43.7,645.998 C44.556,647.673 46.192,648.676 48.075,648.676 C49.959,648.676 51.596,647.673 52.45,645.998 L54.306,646.942 C53.106,649.298 50.721,650.76 48.075,650.76" fill="#FFFFFE"/>
    <path d="M69.16,650.76 C66.517,650.76 64.128,649.298 62.928,646.942 L64.786,645.998 C65.64,647.673 67.275,648.676 69.16,648.676 C71.045,648.676 72.678,647.673 73.535,645.998 L75.392,646.942 C74.191,649.298 71.804,650.76 69.16,650.76" fill="#FFFFFE"/>
    <path d="M90.244,650.76 C87.602,650.76 85.214,649.298 84.012,646.942 L85.87,645.998 C86.725,647.673 88.359,648.676 90.244,648.676 C92.128,648.676 93.764,647.673 94.619,645.998 L96.474,646.942 C95.275,649.298 92.889,650.76 90.244,650.76" fill="#FFFFFE"/>
    <path d="M111.328,650.76 C108.685,650.76 106.298,649.298 105.099,646.942 L106.953,645.998 C107.81,647.673 109.443,648.676 111.327,648.676 C113.212,648.676 114.849,647.673 115.704,645.998 L117.56,646.942 C116.359,649.298 113.972,650.76 111.328,650.76" fill="#FFFFFE"/>
    <path d="M154.253,645.963 C154.366,646.269 139.734,636.976 130.902,625.57 C121.716,614.317 118.332,600.953 132.722,596.705 C150.534,589.784 158.429,630.369 154.253,645.963" fill="#A88EB4"/>
    <path d="M5.151,645.963 C5.035,646.269 19.669,636.976 28.5,625.57 C37.686,614.317 41.071,600.953 26.68,596.705 C8.869,589.784 0.974,630.369 5.151,645.963" fill="#A88EB4"/>
    <path d="M140.549,496.076 L131.693,512.713 C81.288,508.729 78.149,508.729 27.713,512.713 L18.852,496.076 C-14.935,579.861 15.053,603.89 79.702,603.89 C144.341,603.89 174.343,579.869 140.549,496.076" fill="#6E2B6E"/>
    <path d="M79.699,592.138 C115.363,592.138 146.989,588.042 146.989,552.966 C146.989,534.806 131.206,520.082 111.721,520.082 C97.52,520.082 85.286,527.913 79.699,539.196 C74.116,527.913 61.877,520.082 47.679,520.082 C28.195,520.082 12.414,534.806 12.414,552.966 C12.414,588.026 44.008,592.138 79.699,592.138" fill="#A88EB4"/>
    <path d="M79.704,568.42 C73.747,568.42 71.108,570.636 71.065,572.778 C70.873,582.236 79.704,587.274 79.704,587.274 C79.704,587.274 88.528,582.236 88.34,572.778 C88.293,570.636 85.659,568.42 79.704,568.42" fill="#E0642A"/>
    <path d="M69.334,561.838 C68.255,561.449 67.67,560.329 67.915,559.306 C68.171,558.29 69.213,557.576 70.356,557.735 C71.491,557.896 72.27,559.061 71.96,560.31 C71.65,561.56 70.417,562.229 69.334,561.838" fill="#6E2B6E"/>
    <path d="M65.31,569.367 C64.414,568.649 64.219,567.393 64.794,566.511 C65.364,565.628 66.585,565.301 67.613,565.821 C68.635,566.348 68.982,567.699 68.281,568.774 C67.584,569.859 66.207,570.088 65.31,569.367" fill="#6E2B6E"/>
    <path d="M59.06,575.189 C58.447,574.215 58.663,572.967 59.49,572.317 C60.318,571.667 61.582,571.747 62.385,572.57 C63.182,573.399 63.074,574.794 62.068,575.584 C61.057,576.382 59.673,576.157 59.06,575.189" fill="#6E2B6E"/>
    <path d="M51.265,578.662 C50.997,577.535 51.614,576.433 52.604,576.086 C53.598,575.737 54.761,576.224 55.252,577.272 C55.736,578.303 55.187,579.594 53.973,580.021 C52.758,580.443 51.523,579.776 51.265,578.662" fill="#6E2B6E"/>
    <path d="M42.751,579.409 C42.864,578.258 43.805,577.406 44.852,577.402 C45.912,577.398 46.858,578.24 46.979,579.386 C47.098,580.526 46.161,581.56 44.871,581.566 C43.59,581.571 42.641,580.544 42.751,579.409" fill="#6E2B6E"/>
    <path d="M34.462,577.359 C34.945,576.31 36.104,575.813 37.098,576.151 C38.093,576.484 38.72,577.592 38.463,578.715 C38.213,579.832 36.987,580.507 35.767,580.096 C34.546,579.676 33.98,578.402 34.462,577.359" fill="#6E2B6E"/>
    <path d="M27.287,572.725 C28.084,571.893 29.348,571.796 30.181,572.438 C31.01,573.079 31.242,574.328 30.635,575.304 C30.03,576.279 28.648,576.522 27.632,575.731 C26.612,574.949 26.498,573.553 27.287,572.725" fill="#6E2B6E"/>
    <path d="M22.008,566.019 C23.026,565.482 24.249,565.805 24.831,566.682 C25.404,567.562 25.227,568.814 24.335,569.538 C23.445,570.273 22.064,570.055 21.353,568.979 C20.648,567.898 20.985,566.544 22.008,566.019" fill="#6E2B6E"/>
    <path d="M19.194,557.951 C20.33,557.788 21.386,558.486 21.64,559.503 C21.908,560.525 21.324,561.65 20.242,562.05 C19.164,562.449 17.934,561.785 17.61,560.543 C17.293,559.294 18.058,558.12 19.194,557.951" fill="#6E2B6E"/>
    <path d="M19.147,549.416 C20.274,549.615 21.047,550.624 20.969,551.672 C20.891,552.718 19.969,553.598 18.815,553.627 C17.669,553.649 16.718,552.631 16.814,551.35 C16.917,550.064 18.018,549.204 19.147,549.416" fill="#6E2B6E"/>
    <path d="M21.873,541.319 C22.879,541.885 23.275,543.086 22.857,544.053 C22.438,545.014 21.288,545.543 20.192,545.195 C19.1,544.849 18.524,543.572 19.034,542.392 C19.549,541.207 20.876,540.754 21.873,541.319" fill="#6E2B6E"/>
    <path d="M27.085,534.558 C27.85,535.413 27.842,536.685 27.135,537.456 C26.424,538.233 25.159,538.361 24.236,537.682 C23.316,536.991 23.188,535.599 24.055,534.654 C24.928,533.7 26.324,533.699 27.085,534.558" fill="#6E2B6E"/>
    <path d="M34.208,529.845 C34.652,530.903 34.228,532.102 33.307,532.602 C32.389,533.106 31.153,532.823 30.502,531.875 C29.846,530.929 30.177,529.563 31.304,528.95 C32.439,528.333 33.762,528.782 34.208,529.845" fill="#6E2B6E"/>
    <path d="M42.474,527.704 C42.551,528.859 41.758,529.843 40.72,530.03 C39.69,530.194 38.617,529.526 38.306,528.413 C38.002,527.309 38.755,526.13 40.024,525.918 C41.296,525.701 42.397,526.562 42.474,527.704" fill="#6E2B6E"/>
    <path d="M50.994,528.366 C50.69,529.477 49.623,530.154 48.588,529.993 C47.551,529.817 46.752,528.842 46.82,527.688 C46.882,526.547 47.978,525.671 49.251,525.883 C50.521,526.087 51.287,527.252 50.994,528.366" fill="#6E2B6E"/>
    <path d="M58.825,531.752 C58.185,532.704 56.949,533.003 56.025,532.509 C55.097,532.008 54.668,530.822 55.103,529.754 C55.539,528.69 56.862,528.229 57.994,528.84 C59.131,529.447 59.475,530.799 58.825,531.752" fill="#6E2B6E"/>
    <path d="M65.14,537.5 C64.22,538.199 62.958,538.075 62.237,537.309 C61.528,536.532 61.501,535.269 62.263,534.407 C63.02,533.542 64.421,533.529 65.294,534.476 C66.172,535.413 66.056,536.81 65.14,537.5" fill="#6E2B6E"/>
    <path d="M69.248,544.987 C68.148,545.345 66.999,544.826 66.568,543.857 C66.145,542.901 66.537,541.698 67.531,541.122 C68.531,540.552 69.854,541 70.376,542.169 C70.902,543.348 70.342,544.633 69.248,544.987" fill="#6E2B6E"/>
    <path d="M70.69,553.402 C69.539,553.389 68.621,552.518 68.528,551.476 C68.439,550.418 69.199,549.41 70.33,549.195 C71.452,548.98 72.565,549.833 72.676,551.113 C72.787,552.394 71.835,553.421 70.69,553.402" fill="#6E2B6E"/>
    <path d="M65.2,553.709 C65.2,565.005 56.042,574.164 44.749,574.164 C33.448,574.164 24.293,565.005 24.293,553.709 C24.293,542.411 33.448,533.252 44.749,533.252 C56.042,533.252 65.2,542.411 65.2,553.709" fill="#FFFFFE"/>
    <path d="M54.925,553.709 C54.925,559.33 50.368,563.887 44.749,563.887 C39.125,563.887 34.571,559.33 34.571,553.709 C34.571,548.087 39.125,543.531 44.749,543.531 C50.368,543.531 54.925,548.087 54.925,553.709" fill="#1A1919"/>
    <path d="M51.898,550.654 C51.898,552.021 50.79,553.13 49.42,553.13 C48.058,553.13 46.944,552.021 46.944,550.654 C46.944,549.285 48.058,548.18 49.42,548.18 C50.79,548.18 51.898,549.285 51.898,550.654" fill="#FFFFFE"/>
    <path d="M139.246,561.838 C138.165,561.449 137.582,560.329 137.826,559.306 C138.083,558.29 139.126,557.576 140.269,557.735 C141.405,557.896 142.183,559.061 141.872,560.31 C141.562,561.56 140.33,562.229 139.246,561.838" fill="#6E2B6E"/>
    <path d="M135.225,569.367 C134.328,568.649 134.131,567.393 134.706,566.511 C135.277,565.628 136.497,565.301 137.524,565.821 C138.549,566.348 138.897,567.699 138.193,568.774 C137.496,569.859 136.118,570.088 135.225,569.367" fill="#6E2B6E"/>
    <path d="M128.974,575.189 C128.36,574.215 128.576,572.967 129.402,572.317 C130.23,571.667 131.494,571.747 132.297,572.57 C133.094,573.399 132.985,574.794 131.98,575.584 C130.969,576.382 129.585,576.157 128.974,575.189" fill="#6E2B6E"/>
    <path d="M121.176,578.662 C120.909,577.535 121.527,576.433 122.517,576.086 C123.51,575.737 124.674,576.224 125.166,577.272 C125.649,578.303 125.102,579.594 123.886,580.021 C122.672,580.443 121.435,579.776 121.176,578.662" fill="#6E2B6E"/>
    <path d="M112.662,579.409 C112.777,578.258 113.716,577.406 114.768,577.402 C115.826,577.398 116.77,578.24 116.893,579.386 C117.012,580.526 116.074,581.56 114.785,581.566 C113.5,581.571 112.552,580.544 112.662,579.409" fill="#6E2B6E"/>
    <path d="M104.374,577.359 C104.859,576.31 106.015,575.813 107.009,576.151 C108.007,576.484 108.632,577.592 108.376,578.715 C108.124,579.832 106.899,580.507 105.678,580.096 C104.459,579.676 103.891,578.402 104.374,577.359" fill="#6E2B6E"/>
    <path d="M97.198,572.725 C97.996,571.893 99.262,571.796 100.093,572.438 C100.921,573.079 101.154,574.328 100.549,575.304 C99.941,576.279 98.56,576.522 97.546,575.731 C96.524,574.949 96.411,573.553 97.198,572.725" fill="#6E2B6E"/>
    <path d="M91.92,566.019 C92.937,565.482 94.16,565.805 94.743,566.682 C95.317,567.562 95.138,568.814 94.248,569.538 C93.357,570.273 91.977,570.055 91.267,568.979 C90.56,567.898 90.898,566.544 91.92,566.019" fill="#6E2B6E"/>
    <path d="M89.108,557.951 C90.241,557.788 91.297,558.486 91.553,559.503 C91.82,560.525 91.238,561.65 90.158,562.05 C89.076,562.449 87.847,561.785 87.522,560.543 C87.204,559.294 87.97,558.12 89.108,557.951" fill="#6E2B6E"/>
    <path d="M89.059,549.416 C90.188,549.615 90.959,550.624 90.88,551.672 C90.802,552.718 89.883,553.598 88.727,553.627 C87.582,553.649 86.63,552.631 86.727,551.35 C86.829,550.064 87.931,549.204 89.059,549.416" fill="#6E2B6E"/>
    <path d="M91.784,541.319 C92.79,541.885 93.187,543.086 92.77,544.053 C92.35,545.014 91.203,545.543 90.106,545.195 C89.011,544.849 88.439,543.572 88.947,542.392 C89.46,541.207 90.79,540.754 91.784,541.319" fill="#6E2B6E"/>
    <path d="M96.998,534.558 C97.765,535.413 97.754,536.685 97.047,537.456 C96.335,538.233 95.072,538.361 94.149,537.682 C93.228,536.991 93.1,535.599 93.968,534.654 C94.84,533.7 96.235,533.699 96.998,534.558" fill="#6E2B6E"/>
    <path d="M104.119,529.845 C104.567,530.903 104.139,532.102 103.22,532.602 C102.299,533.106 101.064,532.823 100.414,531.875 C99.76,530.929 100.091,529.563 101.217,528.95 C102.353,528.333 103.675,528.782 104.119,529.845" fill="#6E2B6E"/>
    <path d="M112.385,527.704 C112.463,528.859 111.67,529.843 110.632,530.03 C109.602,530.194 108.531,529.526 108.22,528.413 C107.914,527.309 108.666,526.13 109.936,525.918 C111.209,525.701 112.311,526.562 112.385,527.704" fill="#6E2B6E"/>
    <path d="M120.907,528.366 C120.604,529.477 119.536,530.154 118.5,529.993 C117.465,529.817 116.664,528.842 116.733,527.688 C116.795,526.547 117.892,525.671 119.164,525.883 C120.433,526.087 121.199,527.252 120.907,528.366" fill="#6E2B6E"/>
    <path d="M128.739,531.752 C128.099,532.704 126.861,533.003 125.937,532.509 C125.007,532.008 124.58,530.822 125.015,529.754 C125.453,528.69 126.774,528.229 127.906,528.84 C129.043,529.447 129.385,530.799 128.739,531.752" fill="#6E2B6E"/>
    <path d="M135.054,537.5 C134.134,538.199 132.869,538.075 132.15,537.309 C131.44,536.532 131.413,535.269 132.176,534.407 C132.931,533.542 134.334,533.529 135.206,534.476 C136.084,535.413 135.969,536.81 135.054,537.5" fill="#6E2B6E"/>
    <path d="M139.161,544.987 C138.061,545.345 136.909,544.826 136.481,543.857 C136.058,542.901 136.45,541.698 137.443,541.122 C138.442,540.552 139.767,541 140.287,542.169 C140.816,543.348 140.256,544.633 139.161,544.987" fill="#6E2B6E"/>
    <path d="M140.606,553.402 C139.451,553.389 138.535,552.518 138.439,551.476 C138.352,550.418 139.11,549.41 140.241,549.195 C141.364,548.98 142.479,549.833 142.586,551.113 C142.698,552.394 141.748,553.421 140.606,553.402" fill="#6E2B6E"/>
    <path d="M135.11,553.709 C135.11,565.005 125.954,574.164 114.66,574.164 C103.36,574.164 94.205,565.005 94.205,553.709 C94.205,542.411 103.36,533.252 114.66,533.252 C125.954,533.252 135.11,542.411 135.11,553.709" fill="#FFFFFE"/>
    <path d="M124.837,553.709 C124.837,559.33 120.28,563.887 114.66,563.887 C109.037,563.887 104.482,559.33 104.482,553.709 C104.482,548.087 109.037,543.531 114.66,543.531 C120.28,543.531 124.837,548.087 124.837,553.709" fill="#1A1919"/>
    <path d="M121.809,550.654 C121.809,552.021 120.701,553.13 119.334,553.13 C117.97,553.13 116.857,552.021 116.857,550.654 C116.857,549.285 117.97,548.18 119.334,548.18 C120.701,548.18 121.809,549.285 121.809,550.654" fill="#FFFFFE"/>
    <path d="M94.351,597.315 C90.227,598.232 86.154,600.752 82.774,603.438 C81.973,602.675 80.894,602.205 79.701,602.205 C78.512,602.205 77.431,602.675 76.63,603.438 C73.25,600.752 69.178,598.232 65.056,597.315 C62.764,601.565 62.043,605.089 62.756,611.273 C66.986,611.823 71.439,611.167 75.376,609.588 C71.86,612.856 68.817,616.283 67.047,620.75 C68.528,620.493 70.012,620.298 71.491,620.173 C72.32,621.294 73.102,622.44 73.839,623.601 C75.763,619.102 77.607,615.221 79.664,611.164 C79.713,611.164 79.727,611.164 79.739,611.164 C81.796,615.221 83.642,619.102 85.565,623.601 C86.303,622.44 87.086,621.294 87.911,620.173 C89.391,620.298 90.874,620.493 92.356,620.75 C90.585,616.283 87.543,612.852 84.025,609.588 C87.962,611.167 92.418,611.823 96.647,611.273 C97.361,605.089 96.642,601.565 94.351,597.315" fill="#A88EB4"/>
  </g>
</svg>
