<?xml version="1.0" encoding="UTF-8"?>
<!DOCTYPE svg PUBLIC "-//W3C//DTD SVG 1.1//EN" "http://www.w3.org/Graphics/SVG/1.1/DTD/svg11.dtd">
<svg version="1.1" xmlns="http://www.w3.org/2000/svg" xmlns:xlink="http://www.w3.org/1999/xlink" x="0" y="0" width="143.839" height="197.618" viewBox="0, 0, 143.839, 197.618">
  <g id="Layer_1" transform="translate(-887.658, -500.088)">
    <path d="M925.169,514.32 C925.169,514.32 908.892,497.692 905.521,500.383 C902.94,502.443 907.84,524.388 907.84,524.388 L925.169,514.32" fill="#BF2534"/>
    <path d="M993.984,514.32 C993.984,514.32 1010.262,497.692 1013.633,500.383 C1016.213,502.443 1011.313,524.388 1011.313,524.388 L993.984,514.32" fill="#BF2534"/>
    <path d="M980.318,668.651 L980.646,683.554 C980.646,683.554 993.006,689.203 991.547,691.803 C989.1,696.158 981.588,689.191 981.588,689.191 C981.588,689.191 984.798,697.273 981.155,697.693 C977.861,698.073 977.452,690.017 977.452,690.017 C977.452,690.017 973.16,697.801 969.688,695.541 C966.964,693.762 976.431,683.93 976.431,683.93 L975.135,668.651 L980.318,668.651" fill="#E0642A"/>
    <path d="M938.839,668.651 L938.506,683.554 C938.506,683.554 926.151,689.203 927.607,691.803 C930.057,696.158 937.567,689.191 937.567,689.191 C937.567,689.191 934.356,697.273 937.999,697.693 C941.295,698.073 941.705,690.017 941.705,690.017 C941.705,690.017 945.997,697.801 949.467,695.541 C952.193,693.762 942.725,683.93 942.725,683.93 L944.021,668.651 L938.839,668.651" fill="#E0642A"/>
    <path d="M1028.396,561.421 C1028.396,508.486 974.229,505.751 959.578,505.751 C944.926,505.751 890.759,508.486 890.759,561.421 C890.759,585.568 914.301,595.833 914.301,595.833 C914.301,595.833 862.239,674.899 959.578,674.899 C1056.918,674.899 1004.855,595.833 1004.855,595.833 C1004.855,595.833 1028.396,585.568 1028.396,561.421" fill="#BF2534"/>
    <path d="M1000.271,667.406 C1005.718,648.548 1005.295,621.956 959.578,621.956 C913.866,621.956 913.438,648.548 918.885,667.406 C927.976,672.035 941.069,674.899 959.578,674.899 C978.087,674.899 991.184,672.035 1000.271,667.406" fill="#DF5161"/>
    <path d="M1013.163,535.143 C1000.1,516.452 968.499,526.651 959.577,531.428 C950.653,526.651 919.057,516.452 905.991,535.143 C896.897,548.158 887.757,587.173 959.577,587.173 C1031.398,587.173 1022.257,548.158 1013.163,535.143" fill="#FFFFFE"/>
    <path d="M959.577,556.873 L949.648,562.279 L959.577,575.624 L969.505,562.279 L959.577,556.873" fill="#E0642A"/>
    <path d="M891.013,648.828 C891.013,648.828 933.194,619.975 923.869,602.616 C914.546,585.26 876.229,604.981 891.013,648.828" fill="#DF5161"/>
    <path d="M1028.143,648.828 C1028.143,648.828 985.959,619.975 995.284,602.616 C1004.61,585.26 1042.925,604.981 1028.143,648.828" fill="#DF5161"/>
    <path d="M975.021,634.193 C975.021,635.126 977.513,638.342 980.521,638.342 C983.527,638.342 985.912,635.126 985.912,634.193 C985.912,633.268 983.527,636.55 980.521,636.55 C977.513,636.55 975.021,633.268 975.021,634.193" fill="#FFFFFE"/>
    <path d="M954.137,634.193 C954.137,635.126 956.626,638.342 959.63,638.342 C962.641,638.342 965.019,635.126 965.019,634.193 C965.019,633.268 962.641,636.55 959.63,636.55 C956.626,636.55 954.137,633.268 954.137,634.193" fill="#FFFFFE"/>
    <path d="M933.243,634.193 C933.243,635.126 935.739,638.342 938.747,638.342 C941.752,638.342 944.14,635.126 944.14,634.193 C944.14,633.268 941.752,636.55 938.747,636.55 C935.739,636.55 933.243,633.268 933.243,634.193" fill="#FFFFFE"/>
    <path d="M975.021,644.398 C975.021,645.327 977.513,648.548 980.521,648.548 C983.527,648.548 985.912,645.327 985.912,644.398 C985.912,643.474 983.527,646.757 980.521,646.757 C977.513,646.757 975.021,643.474 975.021,644.398" fill="#FFFFFE"/>
    <path d="M954.137,644.398 C954.137,645.327 956.626,648.548 959.63,648.548 C962.641,648.548 965.019,645.327 965.019,644.398 C965.019,643.474 962.641,646.757 959.63,646.757 C956.626,646.757 954.137,643.474 954.137,644.398" fill="#FFFFFE"/>
    <path d="M933.243,644.398 C933.243,645.327 935.739,648.548 938.747,648.548 C941.752,648.548 944.14,645.327 944.14,644.398 C944.14,643.474 941.752,646.757 938.747,646.757 C935.739,646.757 933.243,643.474 933.243,644.398" fill="#FFFFFE"/>
    <path d="M975.021,654.608 C975.021,655.532 977.513,658.752 980.521,658.752 C983.527,658.752 985.912,655.532 985.912,654.608 C985.912,653.676 983.527,656.957 980.521,656.957 C977.513,656.957 975.021,653.676 975.021,654.608" fill="#FFFFFE"/>
    <path d="M954.137,654.608 C954.137,655.532 956.626,658.752 959.63,658.752 C962.641,658.752 965.019,655.532 965.019,654.608 C965.019,653.676 962.641,656.957 959.63,656.957 C956.626,656.957 954.137,653.676 954.137,654.608" fill="#FFFFFE"/>
    <path d="M933.243,654.608 C933.243,655.532 935.739,658.752 938.747,658.752 C941.752,658.752 944.14,655.532 944.14,654.608 C944.14,653.676 941.752,656.957 938.747,656.957 C935.739,656.957 933.243,653.676 933.243,654.608" fill="#FFFFFE"/>
    <path d="M939.6,550.361 C935.832,547.008 932.021,545.31 928.271,545.31 C924.093,545.31 920.396,547.424 917.456,550.364 L917.538,552.33 C920.625,550.814 923.972,549.938 928.17,549.938 C932.094,549.938 935.958,550.706 939.713,552.015 L939.638,550.396 L939.6,550.361" fill="#1A1919"/>
    <path d="M990.88,545.31 C986.597,545.31 982.683,547.545 979.513,550.396 L979.44,552.015 C983.176,550.713 987.041,549.938 990.981,549.938 C995.161,549.938 998.538,550.811 1001.611,552.33 L1001.698,550.364 C998.758,547.424 995.057,545.31 990.88,545.31" fill="#1A1919"/>
    <path d="M973.294,595.04 C969.432,595.901 965.619,598.26 962.452,600.771 C961.703,600.06 960.693,599.62 959.577,599.62 C958.463,599.62 957.452,600.06 956.702,600.771 C953.536,598.26 949.724,595.901 945.864,595.04 C943.719,599.019 943.044,602.321 943.711,608.109 C947.671,608.625 951.843,608.013 955.527,606.535 C952.234,609.592 949.387,612.801 947.729,616.987 C949.114,616.742 950.503,616.562 951.89,616.444 C952.666,617.495 953.396,618.565 954.088,619.655 C955.891,615.44 957.615,611.805 959.543,608.008 C959.587,608.008 959.6,608.008 959.613,608.008 C961.539,611.805 963.264,615.44 965.067,619.655 C965.756,618.565 966.493,617.495 967.266,616.444 C968.648,616.562 970.039,616.742 971.426,616.987 C969.77,612.799 966.921,609.586 963.625,606.535 C967.312,608.013 971.485,608.625 975.443,608.109 C976.111,602.321 975.437,599.019 973.294,595.04" fill="#FFFFFE"/>
  </g>
</svg>
