<?xml version="1.0" encoding="UTF-8"?>
<!DOCTYPE svg PUBLIC "-//W3C//DTD SVG 1.1//EN" "http://www.w3.org/Graphics/SVG/1.1/DTD/svg11.dtd">
<svg version="1.1" xmlns="http://www.w3.org/2000/svg" xmlns:xlink="http://www.w3.org/1999/xlink" x="0" y="0" width="171.954" height="198.134" viewBox="0, 0, 171.954, 198.134">
  <g id="Layer_1" transform="translate(-873.602, -3.608)">
    <path d="M948.414,171.444 L939.951,170.96 L938.357,186.6 C935.519,187.548 926.205,190.812 927.347,193.47 C928.38,195.882 934.778,193.878 937.285,193.036 C936.507,195.998 935.458,201.096 937.273,201.662 C939.937,202.495 941.824,196.566 942.531,193.88 C944.109,195.591 948.045,199.596 949.896,198.179 C952.497,196.184 947.166,190.307 944.86,188.003 L948.414,171.444" fill="#ECA333"/>
    <path d="M980.799,186.6 L979.204,170.96 L970.743,171.444 L974.295,188.003 C971.982,190.315 966.66,196.185 969.262,198.18 C971.109,199.595 975.046,195.594 976.627,193.88 C977.336,196.58 979.222,202.495 981.885,201.662 C983.697,201.096 982.648,195.998 981.871,193.036 C984.387,193.882 990.774,195.88 991.81,193.47 C992.951,190.807 983.653,187.553 980.799,186.6" fill="#ECA333"/>
    <path d="M990.648,97.764 C990.648,97.764 1012.028,91.98 1020.607,117.961 C1029.182,143.945 1041.823,140.375 1045.556,134.674 C1045.556,134.674 1041.069,167.261 1003.31,153.428 L990.648,97.764" fill="#ECA333"/>
    <path d="M928.508,97.764 C928.508,97.764 907.127,91.98 898.548,117.961 C889.975,143.945 877.332,140.375 873.602,134.674 C873.602,134.674 878.088,167.261 915.846,153.428 L928.508,97.764" fill="#ECA333"/>
    <path d="M1006.265,83.007 L912.892,83.007 C910.609,93.534 901.109,153.669 911.179,164.506 C921.577,175.702 949.994,177.198 959.578,177.198 C969.162,177.198 997.58,175.702 1007.981,164.506 C1018.045,153.669 1008.548,93.534 1006.265,83.007" fill="#E0642A"/>
    <path d="M938.586,134.024 C938.586,136.445 936.337,138.41 936.337,138.41 C936.337,138.41 934.089,136.445 934.089,134.024 C934.089,131.6 936.337,129.636 936.337,129.636 C936.337,129.636 938.586,131.6 938.586,134.024" fill="#FFFFFE"/>
    <path d="M950.209,134.024 C950.209,136.445 947.958,138.41 947.958,138.41 C947.958,138.41 945.708,136.445 945.708,134.024 C945.708,131.6 947.958,129.636 947.958,129.636 C947.958,129.636 950.209,131.6 950.209,134.024" fill="#FFFFFE"/>
    <path d="M961.828,134.024 C961.828,136.445 959.578,138.41 959.578,138.41 C959.578,138.41 957.329,136.445 957.329,134.024 C957.329,131.6 959.578,129.636 959.578,129.636 C959.578,129.636 961.828,131.6 961.828,134.024" fill="#FFFFFE"/>
    <path d="M973.449,134.024 C973.449,136.445 971.198,138.41 971.198,138.41 C971.198,138.41 968.947,136.445 968.947,134.024 C968.947,131.6 971.198,129.636 971.198,129.636 C971.198,129.636 973.449,131.6 973.449,134.024" fill="#FFFFFE"/>
    <path d="M985.066,134.024 C985.066,136.445 982.818,138.41 982.818,138.41 C982.818,138.41 980.57,136.445 980.57,134.024 C980.57,131.6 982.818,129.636 982.818,129.636 C982.818,129.636 985.066,131.6 985.066,134.024" fill="#FFFFFE"/>
    <path d="M938.586,149.666 C938.586,152.087 936.337,154.051 936.337,154.051 C936.337,154.051 934.089,152.087 934.089,149.666 C934.089,147.242 936.337,145.278 936.337,145.278 C936.337,145.278 938.586,147.242 938.586,149.666" fill="#FFFFFE"/>
    <path d="M950.209,149.666 C950.209,152.087 947.958,154.051 947.958,154.051 C947.958,154.051 945.708,152.087 945.708,149.666 C945.708,147.242 947.958,145.278 947.958,145.278 C947.958,145.278 950.209,147.242 950.209,149.666" fill="#FFFFFE"/>
    <path d="M961.828,149.666 C961.828,152.087 959.578,154.051 959.578,154.051 C959.578,154.051 957.329,152.087 957.329,149.666 C957.329,147.242 959.578,145.278 959.578,145.278 C959.578,145.278 961.828,147.242 961.828,149.666" fill="#FFFFFE"/>
    <path d="M973.449,149.666 C973.449,152.087 971.198,154.051 971.198,154.051 C971.198,154.051 968.947,152.087 968.947,149.666 C968.947,147.242 971.198,145.278 971.198,145.278 C971.198,145.278 973.449,147.242 973.449,149.666" fill="#FFFFFE"/>
    <path d="M985.066,149.666 C985.066,152.087 982.818,154.051 982.818,154.051 C982.818,154.051 980.57,152.087 980.57,149.666 C980.57,147.242 982.818,145.278 982.818,145.278 C982.818,145.278 985.066,147.242 985.066,149.666" fill="#FFFFFE"/>
    <path d="M906.026,3.724 L902.609,28.412 L924.518,16.985 L906.026,3.724" fill="#ECA333"/>
    <path d="M1013.074,3.608 L1016.547,28.29 L994.615,16.911 L1013.074,3.608" fill="#ECA333"/>
    <path d="M884.031,60.289 C884.06,85.505 903.183,104.487 926.75,104.462 C939.976,104.448 951.792,97.995 959.607,87.877 C967.445,97.978 979.274,104.405 992.501,104.391 C1016.065,104.365 1035.152,85.343 1035.124,60.126 C1035.054,-6.731 883.96,-6.563 884.031,60.289" fill="#ECA333"/>
    <path d="M971.964,86.502 L959.597,102.822 L947.192,86.539 L959.579,77.548 L971.964,86.502" fill="#D3232E"/>
    <path d="M950.337,67.099 C949.313,66.8 948.708,65.797 948.898,64.839 C949.093,63.883 950.04,63.194 951.1,63.316 C952.155,63.436 952.905,64.468 952.676,65.602 C952.45,66.737 951.356,67.397 950.337,67.099" fill="#FFFFFE"/>
    <path d="M947.429,73.81 C946.525,73.244 946.209,72.114 946.656,71.245 C947.104,70.378 948.202,69.972 949.189,70.376 C950.172,70.778 950.614,71.977 950.084,73.004 C949.556,74.034 948.327,74.373 947.429,73.81" fill="#FFFFFE"/>
    <path d="M942.812,79.485 C942.097,78.7 942.098,77.525 942.759,76.807 C943.428,76.093 944.595,75.999 945.436,76.654 C946.273,77.307 946.375,78.578 945.588,79.425 C944.802,80.274 943.53,80.273 942.812,79.485" fill="#FFFFFE"/>
    <path d="M936.846,83.715 C936.365,82.762 936.687,81.638 937.515,81.122 C938.346,80.609 939.501,80.837 940.131,81.692 C940.766,82.548 940.518,83.794 939.535,84.404 C938.552,85.013 937.322,84.663 936.846,83.715" fill="#FFFFFE"/>
    <path d="M929.957,86.172 C929.754,85.125 930.365,84.127 931.305,83.858 C932.242,83.593 933.287,84.118 933.669,85.115 C934.046,86.108 933.474,87.249 932.359,87.565 C931.244,87.882 930.158,87.213 929.957,86.172" fill="#FFFFFE"/>
    <path d="M922.659,86.674 C922.742,85.61 923.601,84.815 924.58,84.807 C925.558,84.805 926.424,85.595 926.519,86.657 C926.612,87.714 925.752,88.656 924.597,88.661 C923.441,88.669 922.575,87.732 922.659,86.674" fill="#FFFFFE"/>
    <path d="M915.494,85.2 C915.864,84.2 916.905,83.665 917.848,83.919 C918.788,84.177 919.409,85.177 919.217,86.222 C919.022,87.271 917.944,87.94 916.827,87.636 C915.708,87.332 915.126,86.196 915.494,85.2" fill="#FFFFFE"/>
    <path d="M908.998,81.838 C909.625,80.974 910.771,80.743 911.61,81.244 C912.444,81.748 912.773,82.875 912.302,83.831 C911.835,84.784 910.611,85.139 909.62,84.544 C908.626,83.949 908.376,82.696 908.998,81.838" fill="#FFFFFE"/>
    <path d="M903.647,76.85 C904.479,76.189 905.653,76.268 906.324,76.979 C906.991,77.691 907.008,78.861 906.297,79.657 C905.588,80.447 904.312,80.466 903.521,79.623 C902.727,78.78 902.812,77.513 903.647,76.85" fill="#FFFFFE"/>
    <path d="M899.837,70.607 C900.818,70.194 901.922,70.588 902.377,71.452 C902.83,72.315 902.525,73.451 901.63,74.023 C900.732,74.597 899.505,74.267 898.966,73.244 C898.426,72.219 898.856,71.019 899.837,70.607" fill="#FFFFFE"/>
    <path d="M897.857,63.565 C898.916,63.434 899.87,64.114 900.076,65.069 C900.276,66.023 899.677,67.032 898.656,67.34 C897.64,67.649 896.545,66.999 896.305,65.867 C896.063,64.734 896.806,63.696 897.857,63.565" fill="#FFFFFE"/>
    <path d="M897.85,56.25 C898.903,56.407 899.646,57.317 899.586,58.292 C899.522,59.267 898.67,60.079 897.608,60.101 C896.543,60.124 895.668,59.205 895.739,58.051 C895.81,56.897 896.798,56.093 897.85,56.25" fill="#FFFFFE"/>
    <path d="M899.812,49.205 C900.783,49.641 901.251,50.717 900.929,51.64 C900.606,52.559 899.569,53.111 898.537,52.846 C897.507,52.582 896.908,51.458 897.292,50.366 C897.674,49.272 898.842,48.768 899.812,49.205" fill="#FFFFFE"/>
    <path d="M903.611,42.954 C904.431,43.637 904.582,44.796 904.026,45.6 C903.468,46.4 902.317,46.648 901.397,46.114 C900.476,45.579 900.207,44.337 900.869,43.39 C901.53,42.44 902.797,42.273 903.611,42.954" fill="#FFFFFE"/>
    <path d="M908.95,37.954 C909.554,38.83 909.396,39.993 908.641,40.614 C907.884,41.23 906.716,41.169 905.969,40.404 C905.229,39.645 905.297,38.369 906.192,37.638 C907.087,36.903 908.348,37.078 908.95,37.954" fill="#FFFFFE"/>
    <path d="M915.438,34.577 C915.784,35.583 915.315,36.661 914.423,37.055 C913.528,37.446 912.419,37.067 911.907,36.133 C911.398,35.2 911.808,33.994 912.868,33.529 C913.93,33.062 915.096,33.571 915.438,34.577" fill="#FFFFFE"/>
    <path d="M922.6,33.088 C922.659,34.149 921.915,35.06 920.947,35.198 C919.984,35.332 919.018,34.663 918.778,33.627 C918.542,32.589 919.266,31.543 920.41,31.381 C921.558,31.221 922.541,32.024 922.6,33.088" fill="#FFFFFE"/>
    <path d="M929.898,33.574 C929.67,34.615 928.712,35.292 927.742,35.165 C926.776,35.034 926.023,34.137 926.071,33.073 C926.122,32.012 927.102,31.191 928.246,31.345 C929.394,31.496 930.127,32.537 929.898,33.574" fill="#FFFFFE"/>
    <path d="M936.793,36.017 C936.294,36.953 935.185,37.348 934.289,36.962 C933.392,36.573 932.912,35.507 933.247,34.495 C933.58,33.487 934.745,32.961 935.808,33.421 C936.872,33.88 937.295,35.077 936.793,36.017" fill="#FFFFFE"/>
    <path d="M942.771,40.233 C942.035,41.002 940.865,41.079 940.104,40.467 C939.343,39.854 939.172,38.692 939.768,37.81 C940.364,36.928 941.621,36.743 942.521,37.468 C943.424,38.193 943.506,39.465 942.771,40.233" fill="#FFFFFE"/>
    <path d="M947.398,45.898 C946.479,46.443 945.335,46.202 944.764,45.408 C944.197,44.614 944.343,43.449 945.154,42.759 C945.965,42.07 947.229,42.227 947.9,43.167 C948.573,44.109 948.31,45.358 947.398,45.898" fill="#FFFFFE"/>
    <path d="M950.319,52.604 C949.293,52.877 948.249,52.337 947.92,51.419 C947.592,50.5 948.042,49.42 949.011,48.974 C949.976,48.53 951.153,49.021 951.544,50.111 C951.934,51.201 951.35,52.329 950.319,52.604" fill="#FFFFFE"/>
    <path d="M951.319,59.85 C950.252,59.838 949.396,59.034 949.324,58.059 C949.26,57.084 949.985,56.167 951.038,56.002 C952.089,55.835 953.089,56.628 953.169,57.782 C953.252,58.936 952.38,59.862 951.319,59.85" fill="#FFFFFE"/>
    <path d="M946.141,59.97 C946.152,71.947 936.454,81.667 924.479,81.679 C912.5,81.691 902.781,71.994 902.769,60.016 C902.757,48.041 912.454,38.32 924.433,38.308 C936.408,38.295 946.127,47.994 946.141,59.97" fill="#FFFFFE"/>
    <path d="M940.117,61 C940.125,67.024 935.246,71.908 929.226,71.916 C923.205,71.921 918.318,67.048 918.313,61.024 C918.308,55.004 923.184,50.116 929.202,50.11 C935.223,50.104 940.112,54.979 940.117,61" fill="#1A1919"/>
    <path d="M937.684,58.485 C937.685,59.983 936.471,61.199 934.974,61.201 C933.477,61.202 932.26,59.988 932.259,58.491 C932.257,56.994 933.471,55.778 934.968,55.775 C936.467,55.774 937.682,56.987 937.684,58.485" fill="#FFFFFE"/>
    <path d="M1020.585,67.099 C1019.561,66.8 1018.956,65.797 1019.147,64.839 C1019.341,63.883 1020.287,63.194 1021.349,63.316 C1022.403,63.436 1023.153,64.468 1022.923,65.602 C1022.698,66.737 1021.604,67.397 1020.585,67.099" fill="#FFFFFE"/>
    <path d="M1017.676,73.81 C1016.772,73.244 1016.459,72.114 1016.904,71.245 C1017.353,70.378 1018.449,69.972 1019.437,70.376 C1020.418,70.778 1020.862,71.977 1020.332,73.004 C1019.804,74.034 1018.575,74.373 1017.676,73.81" fill="#FFFFFE"/>
    <path d="M1013.061,79.485 C1012.344,78.7 1012.346,77.525 1013.008,76.807 C1013.673,76.093 1014.841,75.999 1015.684,76.654 C1016.521,77.307 1016.623,78.578 1015.836,79.425 C1015.05,80.274 1013.779,80.273 1013.061,79.485" fill="#FFFFFE"/>
    <path d="M1007.095,83.715 C1006.613,82.762 1006.933,81.638 1007.763,81.122 C1008.593,80.609 1009.749,80.837 1010.38,81.692 C1011.013,82.548 1010.767,83.794 1009.785,84.404 C1008.801,85.013 1007.571,84.663 1007.095,83.715" fill="#FFFFFE"/>
    <path d="M1000.204,86.172 C1000.001,85.125 1000.613,84.127 1001.552,83.858 C1002.489,83.593 1003.536,84.118 1003.917,85.115 C1004.292,86.108 1003.722,87.249 1002.607,87.565 C1001.492,87.882 1000.407,87.213 1000.204,86.172" fill="#FFFFFE"/>
    <path d="M992.907,86.674 C992.991,85.61 993.848,84.815 994.827,84.807 C995.804,84.805 996.671,85.595 996.765,86.657 C996.858,87.714 995.999,88.656 994.846,88.661 C993.69,88.669 992.822,87.732 992.907,86.674" fill="#FFFFFE"/>
    <path d="M985.742,85.2 C986.112,84.2 987.154,83.665 988.095,83.919 C989.036,84.177 989.654,85.177 989.463,86.222 C989.269,87.271 988.19,87.94 987.073,87.636 C985.957,87.332 985.376,86.196 985.742,85.2" fill="#FFFFFE"/>
    <path d="M979.246,81.838 C979.873,80.974 981.02,80.743 981.859,81.244 C982.691,81.748 983.021,82.875 982.551,83.831 C982.082,84.784 980.859,85.139 979.87,84.544 C978.876,83.949 978.624,82.696 979.246,81.838" fill="#FFFFFE"/>
    <path d="M973.896,76.85 C974.727,76.189 975.901,76.268 976.571,76.979 C977.239,77.691 977.255,78.861 976.544,79.657 C975.837,80.447 974.56,80.466 973.769,79.623 C972.977,78.78 973.062,77.513 973.896,76.85" fill="#FFFFFE"/>
    <path d="M970.085,70.607 C971.066,70.194 972.17,70.588 972.625,71.452 C973.079,72.315 972.773,73.451 971.878,74.023 C970.981,74.597 969.752,74.267 969.215,73.244 C968.674,72.219 969.105,71.019 970.085,70.607" fill="#FFFFFE"/>
    <path d="M968.106,63.565 C969.165,63.434 970.117,64.114 970.322,65.069 C970.524,66.023 969.924,67.032 968.905,67.34 C967.887,67.649 966.793,66.999 966.554,65.867 C966.31,64.734 967.054,63.696 968.106,63.565" fill="#FFFFFE"/>
    <path d="M968.099,56.25 C969.15,56.407 969.894,57.317 969.833,58.292 C969.771,59.267 968.92,60.079 967.856,60.101 C966.791,60.124 965.916,59.205 965.987,58.051 C966.061,56.897 967.047,56.093 968.099,56.25" fill="#FFFFFE"/>
    <path d="M970.062,49.205 C971.032,49.641 971.498,50.717 971.178,51.64 C970.854,52.559 969.817,53.111 968.786,52.846 C967.755,52.582 967.156,51.458 967.541,50.366 C967.924,49.272 969.09,48.768 970.062,49.205" fill="#FFFFFE"/>
    <path d="M973.86,42.954 C974.678,43.637 974.832,44.796 974.274,45.6 C973.716,46.4 972.565,46.648 971.646,46.114 C970.724,45.579 970.457,44.337 971.117,43.39 C971.778,42.44 973.046,42.273 973.86,42.954" fill="#FFFFFE"/>
    <path d="M979.197,37.954 C979.802,38.83 979.644,39.993 978.888,40.614 C978.131,41.23 976.963,41.169 976.218,40.404 C975.477,39.645 975.545,38.369 976.44,37.638 C977.335,36.903 978.596,37.078 979.197,37.954" fill="#FFFFFE"/>
    <path d="M985.685,34.577 C986.031,35.583 985.562,36.661 984.669,37.055 C983.774,37.446 982.666,37.067 982.156,36.133 C981.646,35.2 982.057,33.994 983.115,33.529 C984.177,33.062 985.343,33.571 985.685,34.577" fill="#FFFFFE"/>
    <path d="M992.847,33.088 C992.907,34.149 992.163,35.06 991.195,35.198 C990.231,35.332 989.265,34.663 989.027,33.627 C988.79,32.589 989.513,31.543 990.657,31.381 C991.804,31.221 992.79,32.024 992.847,33.088" fill="#FFFFFE"/>
    <path d="M1000.146,33.574 C999.919,34.615 998.96,35.292 997.991,35.165 C997.023,35.034 996.271,34.137 996.321,33.073 C996.37,32.012 997.349,31.191 998.494,31.345 C999.642,31.496 1000.374,32.537 1000.146,33.574" fill="#FFFFFE"/>
    <path d="M1007.04,36.017 C1006.54,36.953 1005.434,37.348 1004.535,36.962 C1003.642,36.573 1003.161,35.507 1003.495,34.495 C1003.829,33.487 1004.994,32.961 1006.055,33.421 C1007.118,33.88 1007.544,35.077 1007.04,36.017" fill="#FFFFFE"/>
    <path d="M1013.02,40.233 C1012.281,41.002 1011.112,41.079 1010.35,40.467 C1009.592,39.854 1009.419,38.692 1010.015,37.81 C1010.611,36.928 1011.869,36.743 1012.77,37.468 C1013.672,38.193 1013.752,39.465 1013.02,40.233" fill="#FFFFFE"/>
    <path d="M1017.646,45.898 C1016.727,46.443 1015.583,46.202 1015.012,45.408 C1014.444,44.614 1014.591,43.449 1015.401,42.759 C1016.211,42.07 1017.475,42.227 1018.148,43.167 C1018.82,44.109 1018.558,45.358 1017.646,45.898" fill="#FFFFFE"/>
    <path d="M1020.567,52.604 C1019.542,52.877 1018.497,52.337 1018.168,51.419 C1017.841,50.5 1018.29,49.42 1019.259,48.974 C1020.223,48.53 1021.402,49.021 1021.793,50.111 C1022.184,51.201 1021.598,52.329 1020.567,52.604" fill="#FFFFFE"/>
    <path d="M1021.565,59.85 C1020.499,59.838 1019.646,59.034 1019.572,58.059 C1019.508,57.084 1020.232,56.167 1021.287,56.002 C1022.335,55.835 1023.335,56.628 1023.415,57.782 C1023.5,58.936 1022.628,59.862 1021.565,59.85" fill="#FFFFFE"/>
    <path d="M1016.388,59.97 C1016.398,71.947 1006.704,81.667 994.725,81.679 C982.748,81.691 973.029,71.994 973.017,60.016 C973.004,48.041 982.703,38.32 994.679,38.308 C1006.657,38.295 1016.375,47.994 1016.388,59.97" fill="#FFFFFE"/>
    <path d="M1010.364,61 C1010.372,67.024 1005.494,71.908 999.474,71.916 C993.455,71.921 988.566,67.048 988.559,61.024 C988.554,55.004 993.43,50.116 999.449,50.11 C1005.472,50.104 1010.36,54.979 1010.364,61" fill="#1A1919"/>
    <path d="M1007.931,58.485 C1007.933,59.983 1006.718,61.199 1005.221,61.201 C1003.725,61.202 1002.507,59.988 1002.505,58.491 C1002.503,56.994 1003.72,55.778 1005.216,55.775 C1006.714,55.774 1007.93,56.987 1007.931,58.485" fill="#FFFFFE"/>
  </g>
</svg>
