<?xml version="1.0" encoding="UTF-8"?>
<!DOCTYPE svg PUBLIC "-//W3C//DTD SVG 1.1//EN" "http://www.w3.org/Graphics/SVG/1.1/DTD/svg11.dtd">
<svg version="1.1" xmlns="http://www.w3.org/2000/svg" xmlns:xlink="http://www.w3.org/1999/xlink" x="0" y="0" width="197.239" height="201.457" viewBox="0, 0, 197.239, 201.457">
  <g id="Layer_1" transform="translate(-200.84, -0.291)">
    <path d="M238.865,80.036 C238.865,80.036 206.77,66.039 202.413,77.126 C199.148,85.438 214.564,86.984 214.564,86.984 C214.564,86.984 200.907,87.565 200.841,93.095 C200.778,98.118 205.962,99 217.946,98.485 C217.946,98.485 201.29,100.611 204.33,108.408 C208.497,119.104 239.763,100.091 239.763,100.091 L238.865,80.036" fill="#E0642A"/>
    <path d="M360.057,80.036 C360.057,80.036 392.151,66.039 396.508,77.126 C399.77,85.438 384.36,86.984 384.36,86.984 C384.36,86.984 398.016,87.565 398.079,93.095 C398.14,98.118 392.956,99 380.975,98.485 C380.975,98.485 397.629,100.611 394.591,108.408 C390.423,119.104 359.16,100.091 359.16,100.091 L360.057,80.036" fill="#E0642A"/>
    <path d="M286.247,187.689 L288.996,157.729 L281.807,157.729 L281.195,187.06 C278.644,187.82 271.112,190.272 270.014,192.997 C269.771,193.6 269.81,194.185 270.134,194.737 C270.489,195.344 271.136,195.651 272.056,195.651 C274.196,195.651 277.729,193.923 279.941,192.71 C279.194,195.03 278.324,198.651 279.397,200.512 C279.799,201.206 280.412,201.617 281.224,201.732 C281.294,201.741 281.365,201.748 281.436,201.748 C283.56,201.748 284.434,197.145 284.791,193.065 C286.919,195.322 290.462,198.678 292.712,198.678 C293.274,198.678 293.745,198.489 294.108,198.115 C294.481,197.732 294.646,197.249 294.595,196.678 C294.354,193.906 288.279,189.192 286.247,187.689" fill="#E0642A"/>
    <path d="M328.906,192.997 C327.808,190.273 320.275,187.82 317.725,187.06 L317.124,158.175 L317.116,157.729 L309.927,157.729 L312.675,187.689 C310.64,189.192 304.566,193.905 304.326,196.678 C304.275,197.25 304.439,197.733 304.81,198.115 C305.18,198.489 305.647,198.678 306.211,198.678 C308.458,198.678 312.001,195.322 314.132,193.065 C314.487,197.145 315.36,201.748 317.486,201.748 C317.555,201.748 317.625,201.743 317.699,201.732 C318.507,201.617 319.12,201.206 319.522,200.512 C320.596,198.651 319.726,195.03 318.979,192.712 C321.193,193.923 324.726,195.651 326.863,195.651 C327.784,195.651 328.432,195.344 328.787,194.737 C329.108,194.186 329.149,193.6 328.906,192.997" fill="#E0642A"/>
    <path d="M299.461,24.868 C273.95,24.868 250.937,15.428 234.565,0.291 L229.06,152.694 C249.529,163.916 273.64,170.395 299.461,170.395 C325.28,170.395 349.391,163.916 369.86,152.694 L364.355,0.291 C347.983,15.428 324.969,24.868 299.461,24.868" fill="#F5BD2A"/>
    <path d="M299.459,170.395 C322.907,170.395 344.937,165.036 364.119,155.65 C360.384,125.533 332.869,102.144 299.459,102.144 C266.051,102.144 238.536,125.533 234.802,155.65 C253.983,165.036 276.011,170.395 299.459,170.395" fill="#ECA333"/>
    <path d="M286.278,94.43 C285.896,93.386 286.368,92.25 287.31,91.834 C288.254,91.424 289.41,91.845 289.916,92.834 C290.423,93.825 289.991,95.059 288.927,95.522 C287.861,95.992 286.664,95.471 286.278,94.43" fill="#E0642A"/>
    <path d="M279.556,96.246 C279.373,95.146 280.05,94.117 281.059,93.892 C282.065,93.66 283.12,94.298 283.431,95.369 C283.737,96.433 283.082,97.558 281.949,97.82 C280.815,98.073 279.738,97.341 279.556,96.246" fill="#E0642A"/>
    <path d="M272.612,96.782 C272.633,95.671 273.488,94.785 274.522,94.743 C275.555,94.708 276.476,95.527 276.581,96.631 C276.686,97.741 275.833,98.726 274.675,98.766 C273.514,98.813 272.592,97.895 272.612,96.782" fill="#E0642A"/>
    <path d="M265.69,96.04 C265.913,94.952 266.919,94.236 267.941,94.389 C268.961,94.539 269.717,95.513 269.617,96.623 C269.519,97.727 268.5,98.539 267.351,98.372 C266.2,98.2 265.46,97.128 265.69,96.04" fill="#E0642A"/>
    <path d="M259.025,94.014 C259.453,92.989 260.572,92.475 261.547,92.815 C262.522,93.154 263.079,94.252 262.774,95.325 C262.472,96.393 261.318,97 260.221,96.618 C259.123,96.233 258.596,95.042 259.025,94.014" fill="#E0642A"/>
    <path d="M252.87,90.758 C253.486,89.831 254.682,89.547 255.573,90.064 C256.463,90.582 256.802,91.764 256.3,92.759 C255.799,93.75 254.551,94.128 253.545,93.543 C252.537,92.957 252.252,91.681 252.87,90.758" fill="#E0642A"/>
    <path d="M247.459,86.374 C248.246,85.586 249.474,85.537 250.247,86.218 C251.015,86.901 251.119,88.125 250.436,89.002 C249.753,89.878 248.451,90.009 247.582,89.234 C246.705,88.464 246.675,87.158 247.459,86.374" fill="#E0642A"/>
    <path d="M243.03,80.998 C243.958,80.389 245.175,80.585 245.79,81.407 C246.408,82.225 246.264,83.448 245.42,84.171 C244.575,84.897 243.277,84.761 242.573,83.83 C241.873,82.894 242.1,81.609 243.03,80.998" fill="#E0642A"/>
    <path d="M239.809,74.826 C240.848,74.426 241.985,74.875 242.422,75.803 C242.851,76.729 242.461,77.893 241.482,78.429 C240.51,78.962 239.263,78.563 238.771,77.5 C238.272,76.44 238.772,75.226 239.809,74.826" fill="#E0642A"/>
    <path d="M237.98,68.111 C239.085,67.943 240.103,68.628 240.322,69.625 C240.539,70.624 239.912,71.672 238.843,71.987 C237.778,72.3 236.643,71.643 236.393,70.5 C236.138,69.35 236.886,68.275 237.98,68.111" fill="#E0642A"/>
    <path d="M237.656,61.157 C238.767,61.232 239.617,62.119 239.612,63.143 C239.617,64.166 238.767,65.054 237.656,65.129 C236.546,65.203 235.591,64.315 235.587,63.143 C235.591,61.97 236.546,61.082 237.656,61.157" fill="#E0642A"/>
    <path d="M238.843,54.3 C239.912,54.614 240.539,55.662 240.322,56.662 C240.103,57.659 239.085,58.342 237.98,58.175 C236.886,58.011 236.138,56.935 236.393,55.79 C236.643,54.642 237.778,53.986 238.843,54.3" fill="#E0642A"/>
    <path d="M241.482,47.857 C242.461,48.393 242.851,49.556 242.422,50.485 C241.986,51.41 240.848,51.86 239.809,51.458 C238.772,51.059 238.274,49.845 238.771,48.787 C239.263,47.722 240.511,47.325 241.482,47.857" fill="#E0642A"/>
    <path d="M245.42,42.114 C246.263,42.837 246.409,44.061 245.79,44.878 C245.175,45.7 243.958,45.896 243.029,45.287 C242.1,44.675 241.875,43.393 242.572,42.456 C243.277,41.525 244.575,41.39 245.42,42.114" fill="#E0642A"/>
    <path d="M250.436,37.284 C251.119,38.16 251.016,39.384 250.246,40.068 C249.475,40.748 248.246,40.699 247.459,39.913 C246.675,39.128 246.706,37.822 247.581,37.051 C248.453,36.276 249.753,36.407 250.436,37.284" fill="#E0642A"/>
    <path d="M256.3,33.525 C256.802,34.521 256.465,35.704 255.572,36.224 C254.682,36.738 253.486,36.455 252.87,35.526 C252.252,34.604 252.538,33.329 253.545,32.744 C254.552,32.158 255.799,32.535 256.3,33.525" fill="#E0642A"/>
    <path d="M262.774,30.96 C263.079,32.034 262.522,33.13 261.546,33.469 C260.573,33.811 259.453,33.296 259.025,32.27 C258.596,31.244 259.123,30.053 260.22,29.669 C261.318,29.287 262.472,29.893 262.774,30.96" fill="#E0642A"/>
    <path d="M269.617,29.663 C269.717,30.773 268.962,31.747 267.94,31.898 C266.919,32.049 265.915,31.333 265.69,30.247 C265.462,29.157 266.2,28.084 267.35,27.914 C268.5,27.746 269.519,28.56 269.617,29.663" fill="#E0642A"/>
    <path d="M276.581,29.654 C276.476,30.759 275.557,31.579 274.522,31.544 C273.49,31.501 272.633,30.614 272.612,29.504 C272.592,28.391 273.515,27.473 274.674,27.519 C275.833,27.56 276.686,28.545 276.581,29.654" fill="#E0642A"/>
    <path d="M283.431,30.919 C283.12,31.989 282.065,32.625 281.058,32.394 C280.05,32.168 279.373,31.14 279.556,30.039 C279.738,28.946 280.815,28.214 281.948,28.465 C283.082,28.729 283.737,29.853 283.431,30.919" fill="#E0642A"/>
    <path d="M289.916,33.452 C289.41,34.44 288.255,34.863 287.309,34.452 C286.368,34.036 285.896,32.9 286.278,31.856 C286.664,30.815 287.861,30.294 288.925,30.763 C289.992,31.228 290.423,32.461 289.916,33.452" fill="#E0642A"/>
    <path d="M295.795,37.184 C295.105,38.057 293.891,38.245 293.045,37.659 C292.201,37.071 291.957,35.865 292.536,34.915 C293.111,33.967 294.389,33.689 295.344,34.355 C296.303,35.018 296.485,36.313 295.795,37.184" fill="#E0642A"/>
    <path d="M306.386,34.915 C306.964,35.865 306.724,37.071 305.877,37.66 C305.03,38.245 303.816,38.057 303.127,37.184 C302.437,36.313 302.618,35.018 303.575,34.356 C304.533,33.687 305.809,33.966 306.386,34.915" fill="#E0642A"/>
    <path d="M312.644,31.855 C313.028,32.9 312.552,34.036 311.61,34.452 C310.667,34.862 309.511,34.44 309.002,33.452 C308.497,32.46 308.926,31.228 309.994,30.763 C311.06,30.294 312.258,30.815 312.644,31.855" fill="#E0642A"/>
    <path d="M319.365,30.039 C319.549,31.14 318.871,32.168 317.862,32.394 C316.856,32.625 315.802,31.989 315.492,30.917 C315.185,29.853 315.84,28.729 316.972,28.465 C318.106,28.214 319.184,28.946 319.365,30.039" fill="#E0642A"/>
    <path d="M326.309,29.504 C326.289,30.614 325.433,31.501 324.397,31.544 C323.366,31.579 322.445,30.759 322.341,29.654 C322.233,28.545 323.087,27.56 324.246,27.519 C325.405,27.473 326.331,28.391 326.309,29.504" fill="#E0642A"/>
    <path d="M333.231,30.247 C333.007,31.333 332.003,32.049 330.98,31.898 C329.96,31.747 329.206,30.773 329.304,29.663 C329.404,28.56 330.422,27.746 331.57,27.914 C332.723,28.084 333.462,29.157 333.231,30.247" fill="#E0642A"/>
    <path d="M339.896,32.27 C339.468,33.296 338.35,33.811 337.375,33.469 C336.401,33.13 335.841,32.034 336.146,30.96 C336.449,29.893 337.603,29.287 338.699,29.669 C339.802,30.053 340.323,31.244 339.896,32.27" fill="#E0642A"/>
    <path d="M346.053,35.527 C345.435,36.455 344.24,36.738 343.347,36.223 C342.459,35.704 342.12,34.521 342.62,33.525 C343.121,32.535 344.372,32.158 345.375,32.744 C346.382,33.329 346.67,34.604 346.053,35.527" fill="#E0642A"/>
    <path d="M351.461,39.913 C350.675,40.699 349.447,40.748 348.673,40.068 C347.906,39.385 347.803,38.16 348.485,37.284 C349.168,36.407 350.469,36.277 351.34,37.051 C352.217,37.822 352.246,39.128 351.461,39.913" fill="#E0642A"/>
    <path d="M355.891,45.287 C354.963,45.896 353.746,45.7 353.133,44.877 C352.514,44.061 352.656,42.837 353.502,42.114 C354.345,41.39 355.644,41.525 356.348,42.455 C357.048,43.393 356.821,44.675 355.891,45.287" fill="#E0642A"/>
    <path d="M359.11,51.458 C358.072,51.86 356.935,51.41 356.499,50.484 C356.069,49.557 356.461,48.393 357.438,47.857 C358.409,47.325 359.656,47.723 360.149,48.784 C360.649,49.846 360.148,51.059 359.11,51.458" fill="#E0642A"/>
    <path d="M360.94,58.175 C359.836,58.342 358.817,57.659 358.598,56.661 C358.38,55.662 359.007,54.614 360.076,54.3 C361.142,53.986 362.279,54.643 362.528,55.789 C362.78,56.935 362.034,58.011 360.94,58.175" fill="#E0642A"/>
    <path d="M361.264,65.129 C360.155,65.054 359.303,64.166 359.309,63.143 C359.303,62.121 360.155,61.232 361.263,61.157 C362.376,61.082 363.33,61.97 363.335,63.142 C363.33,64.316 362.376,65.203 361.264,65.129" fill="#E0642A"/>
    <path d="M360.076,71.987 C359.007,71.672 358.38,70.624 358.6,69.624 C358.817,68.628 359.836,67.943 360.94,68.111 C362.035,68.275 362.78,69.351 362.528,70.496 C362.279,71.643 361.142,72.3 360.076,71.987" fill="#E0642A"/>
    <path d="M357.438,78.429 C356.461,77.893 356.069,76.731 356.499,75.8 C356.935,74.875 358.073,74.426 359.11,74.826 C360.148,75.226 360.649,76.44 360.15,77.499 C359.656,78.563 358.41,78.962 357.438,78.429" fill="#E0642A"/>
    <path d="M353.502,84.171 C352.657,83.448 352.514,82.225 353.135,81.407 C353.746,80.585 354.963,80.389 355.892,80.998 C356.821,81.609 357.048,82.894 356.348,83.83 C355.644,84.761 354.345,84.897 353.502,84.171" fill="#E0642A"/>
    <path d="M348.485,89.002 C347.803,88.125 347.906,86.901 348.675,86.217 C349.447,85.538 350.675,85.586 351.461,86.373 C352.248,87.158 352.217,88.464 351.34,89.232 C350.469,90.009 349.168,89.878 348.485,89.002" fill="#E0642A"/>
    <path d="M342.62,92.759 C342.12,91.764 342.459,90.582 343.348,90.062 C344.239,89.547 345.435,89.831 346.054,90.758 C346.67,91.681 346.382,92.957 345.376,93.542 C344.372,94.128 343.123,93.75 342.62,92.759" fill="#E0642A"/>
    <path d="M336.146,95.325 C335.841,94.252 336.401,93.154 337.375,92.815 C338.35,92.475 339.468,92.989 339.896,94.014 C340.324,95.042 339.8,96.233 338.702,96.618 C337.603,97 336.449,96.393 336.146,95.325" fill="#E0642A"/>
    <path d="M329.304,96.623 C329.206,95.513 329.96,94.539 330.981,94.389 C332.003,94.236 333.007,94.952 333.232,96.04 C333.462,97.128 332.721,98.201 331.572,98.371 C330.422,98.539 329.404,97.727 329.304,96.623" fill="#E0642A"/>
    <path d="M322.341,96.631 C322.446,95.527 323.366,94.708 324.398,94.743 C325.433,94.785 326.289,95.672 326.309,96.782 C326.331,97.895 325.405,98.813 324.247,98.766 C323.087,98.726 322.233,97.741 322.341,96.631" fill="#E0642A"/>
    <path d="M315.492,95.369 C315.802,94.298 316.856,93.66 317.862,93.892 C318.87,94.117 319.549,95.146 319.365,96.246 C319.184,97.341 318.106,98.073 316.975,97.82 C315.84,97.558 315.185,96.433 315.492,95.369" fill="#E0642A"/>
    <path d="M309.004,92.834 C309.513,91.846 310.667,91.424 311.61,91.834 C312.552,92.25 313.028,93.386 312.644,94.43 C312.258,95.471 311.06,95.992 309.998,95.522 C308.926,95.059 308.498,93.825 309.004,92.834" fill="#E0642A"/>
    <path d="M324.986,34.791 C314.24,34.791 304.817,40.056 299.461,47.981 C294.103,40.056 284.678,34.791 273.935,34.791 C257.249,34.791 243.722,47.483 243.722,63.142 C243.722,78.8 257.249,91.494 273.935,91.494 C284.678,91.494 294.103,86.228 299.461,78.304 C304.817,86.228 314.24,91.494 324.986,91.494 C341.671,91.494 355.198,78.8 355.198,63.142 C355.198,47.483 341.671,34.791 324.986,34.791" fill="#FFFFFE"/>
    <path d="M286.933,64.031 C286.933,73.067 279.607,80.392 270.572,80.392 C261.535,80.392 254.209,73.067 254.209,64.031 C254.209,54.993 261.535,47.667 270.572,47.667 C279.607,47.667 286.933,54.993 286.933,64.031" fill="#72B843"/>
    <path d="M344.713,64.031 C344.713,73.067 337.387,80.392 328.35,80.392 C319.315,80.392 311.988,73.067 311.988,64.031 C311.988,54.993 319.315,47.667 328.35,47.667 C337.387,47.667 344.713,54.993 344.713,64.031" fill="#72B843"/>
    <path d="M283.967,64.03 C283.967,69.67 279.389,74.247 273.747,74.247 C268.107,74.247 263.53,69.67 263.53,64.03 C263.53,58.386 268.107,53.813 273.747,53.813 C279.389,53.813 283.967,58.386 283.967,64.03" fill="#1A1919"/>
    <path d="M281.55,60.841 C281.55,62.27 280.39,63.43 278.959,63.43 C277.53,63.43 276.371,62.27 276.371,60.841 C276.371,59.41 277.53,58.252 278.959,58.252 C280.39,58.252 281.55,59.41 281.55,60.841" fill="#FFFFFE"/>
    <path d="M341.744,64.03 C341.744,69.67 337.17,74.247 331.526,74.247 C325.885,74.247 321.31,69.67 321.31,64.03 C321.31,58.386 325.885,53.813 331.526,53.813 C337.17,53.813 341.744,58.386 341.744,64.03" fill="#1A1919"/>
    <path d="M339.329,60.841 C339.329,62.27 338.17,63.43 336.737,63.43 C335.309,63.43 334.149,62.27 334.149,60.841 C334.149,59.41 335.309,58.252 336.737,58.252 C338.17,58.252 339.329,59.41 339.329,60.841" fill="#FFFFFE"/>
    <path d="M311.854,83.718 L299.458,75.23 L287.066,83.718 L299.461,97.356 L311.854,83.718" fill="#E0642A"/>
    <path d="M259.798,125.631 C260.998,126.356 262.061,126.921 263.136,127.278 C264.204,127.646 265.254,127.818 266.31,127.82 C267.361,127.818 268.415,127.646 269.483,127.278 C270.558,126.923 271.622,126.353 272.819,125.633 L273.073,125.997 C272.533,127.767 271.521,129.197 270.323,130.184 C269.119,131.165 267.714,131.687 266.31,131.683 C264.906,131.687 263.501,131.165 262.298,130.184 C261.098,129.198 260.082,127.764 259.546,126 L259.798,125.631" fill="#FFFFFE"/>
    <path d="M281.898,125.631 C283.099,126.356 284.161,126.921 285.236,127.278 C286.303,127.646 287.356,127.818 288.41,127.82 C289.464,127.818 290.517,127.646 291.584,127.278 C292.658,126.923 293.723,126.353 294.921,125.633 L295.175,125.997 C294.636,127.767 293.619,129.197 292.423,130.184 C291.217,131.165 289.815,131.687 288.41,131.683 C287.007,131.687 285.599,131.165 284.397,130.184 C283.2,129.198 282.184,127.764 281.647,126 L281.898,125.631" fill="#FFFFFE"/>
    <path d="M303.998,125.631 C305.2,126.356 306.261,126.921 307.337,127.278 C308.404,127.646 309.456,127.818 310.51,127.82 C311.565,127.818 312.616,127.646 313.685,127.278 C314.76,126.923 315.823,126.353 317.023,125.633 L317.275,125.997 C316.736,127.767 315.722,129.197 314.523,130.184 C313.32,131.165 311.913,131.687 310.51,131.683 C309.106,131.687 307.703,131.165 306.499,130.184 C305.301,129.198 304.283,127.764 303.748,126 L303.998,125.631" fill="#FFFFFE"/>
    <path d="M326.099,125.631 C327.299,126.356 328.359,126.921 329.436,127.278 C330.505,127.646 331.558,127.818 332.61,127.82 C333.664,127.818 334.716,127.646 335.785,127.278 C336.858,126.923 337.924,126.353 339.12,125.633 L339.374,125.997 C338.836,127.767 337.821,129.197 336.623,130.184 C335.42,131.165 334.015,131.687 332.61,131.683 C331.206,131.687 329.801,131.165 328.598,130.184 C327.401,129.198 326.382,127.764 325.847,126 L326.099,125.631" fill="#FFFFFE"/>
    <path d="M270.848,142.625 C272.049,143.352 273.11,143.917 274.185,144.275 C275.255,144.642 276.306,144.816 277.358,144.816 C278.414,144.816 279.468,144.642 280.535,144.275 C281.609,143.919 282.673,143.349 283.87,142.629 L284.124,142.992 C283.584,144.763 282.569,146.193 281.373,147.179 C280.168,148.161 278.763,148.683 277.358,148.68 C275.954,148.683 274.552,148.161 273.346,147.179 C272.149,146.193 271.135,144.76 270.597,142.995 L270.848,142.625" fill="#FFFFFE"/>
    <path d="M292.948,142.625 C294.147,143.352 295.209,143.917 296.286,144.275 C297.355,144.642 298.406,144.816 299.459,144.816 C300.515,144.816 301.565,144.642 302.634,144.275 C303.71,143.919 304.776,143.349 305.97,142.629 L306.224,142.992 C305.685,144.763 304.671,146.193 303.472,147.179 C302.269,148.161 300.864,148.683 299.459,148.68 C298.057,148.683 296.65,148.161 295.448,147.179 C294.249,146.193 293.232,144.76 292.695,142.995 L292.948,142.625" fill="#FFFFFE"/>
    <path d="M315.049,142.625 C316.249,143.352 317.31,143.917 318.388,144.275 C319.454,144.642 320.508,144.816 321.56,144.816 C322.613,144.816 323.666,144.642 324.735,144.275 C325.81,143.919 326.874,143.349 328.069,142.629 L328.324,142.992 C327.784,144.763 326.772,146.193 325.574,147.179 C324.371,148.161 322.967,148.683 321.56,148.68 C320.156,148.683 318.752,148.161 317.547,147.179 C316.352,146.193 315.334,144.76 314.797,142.995 L315.049,142.625" fill="#FFFFFE"/>
  </g>
</svg>
