<?xml version="1.0" encoding="UTF-8"?>
<!DOCTYPE svg PUBLIC "-//W3C//DTD SVG 1.1//EN" "http://www.w3.org/Graphics/SVG/1.1/DTD/svg11.dtd">
<svg version="1.1" xmlns="http://www.w3.org/2000/svg" xmlns:xlink="http://www.w3.org/1999/xlink" x="0" y="0" width="157.682" height="188.274" viewBox="0, 0, 157.682, 188.274">
  <g id="Layer_1" transform="translate(-441.221, -5.17)">
    <path d="M507.47,180.047 L510.089,151.501 L503.24,151.501 L502.656,179.448 C500.227,180.171 493.051,182.508 492.004,185.104 C491.772,185.679 491.81,186.236 492.117,186.763 C492.457,187.341 493.073,187.633 493.951,187.633 C495.989,187.633 499.352,185.987 501.462,184.83 C500.75,187.042 499.924,190.491 500.944,192.265 C501.326,192.926 501.91,193.316 502.686,193.428 C502.751,193.436 502.819,193.444 502.886,193.444 C504.911,193.444 505.743,189.057 506.082,185.17 C508.11,187.319 511.487,190.518 513.629,190.518 C514.166,190.518 514.617,190.337 514.961,189.981 C515.316,189.616 515.473,189.156 515.427,188.613 C515.195,185.971 509.406,181.479 507.47,180.047" fill="#E0642A"/>
    <path d="M548.119,185.104 C547.074,182.51 539.894,180.171 537.465,179.448 L536.885,151.501 L530.032,151.501 L532.652,180.047 C530.715,181.479 524.926,185.97 524.698,188.613 C524.65,189.157 524.806,189.617 525.159,189.981 C525.507,190.337 525.956,190.518 526.494,190.518 C528.637,190.518 532.013,187.319 534.041,185.17 C534.38,189.057 535.213,193.444 537.236,193.444 C537.303,193.444 537.369,193.437 537.438,193.428 C538.211,193.318 538.794,192.926 539.177,192.265 C540.199,190.491 539.372,187.042 538.66,184.833 C540.771,185.987 544.135,187.633 546.175,187.633 C547.05,187.633 547.667,187.341 548.007,186.763 C548.313,186.237 548.352,185.679 548.119,185.104" fill="#E0642A"/>
    <path d="M520.062,69.261 C511.36,69.261 453.667,68.042 453.667,118.656 C453.667,169.271 511.36,168.052 520.062,168.052 C528.763,168.052 586.457,169.271 586.457,118.656 C586.457,68.042 528.763,69.261 520.062,69.261" fill="#B9D03A"/>
    <path d="M486.429,125.591 C483.617,125.591 481.076,124.034 479.799,121.529 L481.776,120.524 C482.685,122.309 484.424,123.374 486.429,123.374 C488.431,123.374 490.169,122.309 491.078,120.524 L493.054,121.529 C491.775,124.034 489.238,125.591 486.429,125.591" fill="#FFFFFE"/>
    <path d="M508.849,125.591 C506.037,125.591 503.498,124.034 502.224,121.529 L504.197,120.524 C505.11,122.309 506.845,123.374 508.849,123.374 C510.853,123.374 512.593,122.309 513.501,120.524 L515.477,121.529 C514.203,124.034 511.661,125.591 508.849,125.591" fill="#FFFFFE"/>
    <path d="M531.275,125.591 C528.463,125.591 525.923,124.034 524.646,121.529 L526.62,120.524 C527.53,122.309 529.271,123.374 531.275,123.374 C533.278,123.374 535.018,122.309 535.926,120.524 L537.902,121.529 C536.626,124.034 534.087,125.591 531.275,125.591" fill="#FFFFFE"/>
    <path d="M553.698,125.591 C550.886,125.591 548.349,124.034 547.071,121.529 L549.045,120.524 C549.954,122.309 551.693,123.374 553.696,123.374 C555.7,123.374 557.442,122.309 558.349,120.524 L560.325,121.529 C559.047,124.034 556.509,125.591 553.698,125.591" fill="#FFFFFE"/>
    <path d="M486.429,141.217 C483.617,141.218 481.076,139.664 479.799,137.158 L481.776,136.152 C482.685,137.937 484.424,139.003 486.429,139.002 C488.431,139.002 490.169,137.937 491.078,136.152 L493.054,137.158 C491.775,139.663 489.238,141.217 486.429,141.217" fill="#FFFFFE"/>
    <path d="M508.849,141.217 C506.037,141.217 503.498,139.663 502.224,137.158 L504.197,136.152 C505.11,137.937 506.845,139.002 508.849,139.002 C510.853,139.002 512.593,137.937 513.501,136.152 L515.477,137.158 C514.203,139.663 511.661,141.217 508.849,141.217" fill="#FFFFFE"/>
    <path d="M531.275,141.217 C528.463,141.218 525.923,139.664 524.646,137.158 L526.62,136.152 C527.53,137.937 529.271,139.003 531.275,139.002 C533.278,139.002 535.018,137.937 535.926,136.152 L537.902,137.158 C536.626,139.663 534.087,141.217 531.275,141.217" fill="#FFFFFE"/>
    <path d="M553.698,141.217 C550.886,141.217 548.349,139.663 547.071,137.158 L549.045,136.152 C549.954,137.937 551.693,139.002 553.696,139.002 C555.7,139.002 557.442,137.937 558.349,136.152 L560.325,137.158 C559.047,139.663 556.509,141.217 553.698,141.217" fill="#FFFFFE"/>
    <path d="M520.062,8.837 C510.565,8.837 447.599,7.627 447.599,57.843 C447.599,108.059 510.565,106.85 520.062,106.85 C529.557,106.85 592.524,108.059 592.524,57.843 C592.524,7.627 529.557,8.837 520.062,8.837" fill="#B9D03A"/>
    <path d="M477.441,18.323 C469.604,14.367 462.21,9.958 455.294,5.17 C455.979,14.241 456.875,23.312 457.98,32.378 C464.915,28.003 471.408,23.297 477.441,18.323" fill="#B9D03A"/>
    <path d="M562.682,18.323 C570.521,14.367 577.914,9.958 584.83,5.17 C584.146,14.241 583.249,23.312 582.143,32.378 C575.209,28.003 568.715,23.297 562.682,18.323" fill="#B9D03A"/>
    <path d="M532.021,75.472 L520.062,66.675 L508.102,75.472 L520.062,88.631 L532.021,75.472" fill="#E0642A"/>
    <path d="M597.761,142.438 C597.882,142.756 582.629,133.069 573.427,121.177 C563.854,109.453 560.324,95.524 575.32,91.098 C593.886,83.882 602.117,126.182 597.761,142.438" fill="#38B39C"/>
    <path d="M442.364,142.438 C442.243,142.756 457.493,133.069 466.698,121.177 C476.272,109.453 479.799,95.524 464.802,91.098 C446.237,83.882 438.008,126.182 442.364,142.438" fill="#38B39C"/>
    <path d="M502.966,56.96 C502.966,68.631 493.508,78.093 481.834,78.093 C470.159,78.093 460.697,68.631 460.697,56.96 C460.697,45.286 470.159,35.822 481.834,35.822 C493.508,35.822 502.966,45.286 502.966,56.96" fill="#FFFFFE"/>
    <path d="M494.852,59.199 C493.544,57.019 491.766,55.209 489.761,53.908 C487.341,52.355 484.591,51.538 481.834,51.525 C479.075,51.504 476.313,52.313 473.892,53.875 C471.886,55.167 470.109,56.972 468.806,59.169 L468.806,60.846 C470.925,59.405 472.978,58.237 475.096,57.467 C477.311,56.656 479.568,56.238 481.834,56.225 C484.096,56.216 486.361,56.612 488.584,57.432 C490.7,58.2 492.756,59.367 494.852,60.845 L494.852,59.199" fill="#1A1919"/>
    <path d="M506.855,65.231 C505.757,64.835 505.162,63.695 505.411,62.654 C505.671,61.62 506.733,60.895 507.895,61.057 C509.051,61.219 509.846,62.404 509.526,63.673 C509.213,64.947 507.957,65.628 506.855,65.231" fill="#FFFFFE"/>
    <path d="M502.761,72.894 C501.849,72.161 501.65,70.883 502.233,69.99 C502.817,69.089 504.058,68.754 505.102,69.284 C506.146,69.819 506.498,71.195 505.784,72.291 C505.075,73.396 503.669,73.626 502.761,72.894" fill="#FFFFFE"/>
    <path d="M496.4,78.817 C495.776,77.826 495.996,76.556 496.837,75.895 C497.681,75.236 498.967,75.316 499.784,76.154 C500.594,76.997 500.484,78.416 499.461,79.222 C498.431,80.032 497.023,79.804 496.4,78.817" fill="#FFFFFE"/>
    <path d="M488.465,82.354 C488.193,81.207 488.822,80.083 489.829,79.732 C490.839,79.379 492.024,79.873 492.524,80.939 C493.017,81.989 492.459,83.304 491.223,83.736 C489.984,84.167 488.731,83.49 488.465,82.354" fill="#FFFFFE"/>
    <path d="M479.802,83.113 C479.915,81.943 480.872,81.075 481.942,81.072 C483.019,81.066 483.979,81.926 484.104,83.091 C484.227,84.251 483.271,85.305 481.959,85.31 C480.652,85.317 479.687,84.27 479.802,83.113" fill="#FFFFFE"/>
    <path d="M471.363,81.028 C471.856,79.959 473.034,79.454 474.044,79.798 C475.06,80.136 475.697,81.266 475.435,82.407 C475.181,83.546 473.935,84.232 472.69,83.812 C471.45,83.387 470.875,82.09 471.363,81.028" fill="#FFFFFE"/>
    <path d="M464.061,76.312 C464.871,75.464 466.158,75.367 467.007,76.022 C467.849,76.675 468.088,77.941 467.47,78.937 C466.852,79.93 465.447,80.175 464.414,79.371 C463.376,78.578 463.258,77.158 464.061,76.312" fill="#FFFFFE"/>
    <path d="M458.689,69.485 C459.726,68.94 460.968,69.266 461.561,70.16 C462.145,71.057 461.965,72.329 461.058,73.068 C460.15,73.817 458.747,73.593 458.024,72.498 C457.303,71.402 457.649,70.02 458.689,69.485" fill="#FFFFFE"/>
    <path d="M455.826,61.275 C456.983,61.108 458.055,61.819 458.314,62.855 C458.586,63.896 457.994,65.04 456.894,65.446 C455.795,65.853 454.542,65.177 454.212,63.913 C453.886,62.642 454.667,61.447 455.826,61.275" fill="#FFFFFE"/>
    <path d="M455.777,52.588 C456.924,52.79 457.71,53.817 457.63,54.885 C457.551,55.948 456.614,56.843 455.441,56.873 C454.272,56.897 453.306,55.86 453.403,54.556 C453.509,53.249 454.626,52.375 455.777,52.588" fill="#FFFFFE"/>
    <path d="M458.552,44.349 C459.573,44.927 459.979,46.144 459.555,47.13 C459.125,48.107 457.957,48.644 456.841,48.293 C455.726,47.94 455.146,46.639 455.663,45.439 C456.185,44.232 457.538,43.772 458.552,44.349" fill="#FFFFFE"/>
    <path d="M463.855,37.464 C464.635,38.338 464.626,39.63 463.904,40.415 C463.182,41.208 461.897,41.337 460.957,40.644 C460.021,39.944 459.888,38.527 460.772,37.563 C461.66,36.593 463.081,36.592 463.855,37.464" fill="#FFFFFE"/>
    <path d="M471.104,32.669 C471.559,33.749 471.125,34.964 470.19,35.475 C469.254,35.991 467.996,35.702 467.333,34.736 C466.665,33.771 467.002,32.381 468.151,31.76 C469.305,31.132 470.651,31.587 471.104,32.669" fill="#FFFFFE"/>
    <path d="M479.519,30.491 C479.599,31.664 478.789,32.666 477.732,32.858 C476.683,33.024 475.593,32.344 475.277,31.214 C474.967,30.089 475.735,28.887 477.025,28.672 C478.318,28.45 479.44,29.328 479.519,30.491" fill="#FFFFFE"/>
    <path d="M488.19,31.164 C487.88,32.293 486.794,32.983 485.739,32.818 C484.687,32.642 483.875,31.647 483.942,30.475 C484.005,29.314 485.119,28.423 486.415,28.634 C487.708,28.844 488.488,30.033 488.19,31.164" fill="#FFFFFE"/>
    <path d="M496.161,34.61 C495.51,35.58 494.252,35.884 493.311,35.383 C492.365,34.873 491.928,33.664 492.373,32.576 C492.816,31.493 494.163,31.026 495.315,31.646 C496.471,32.262 496.82,33.644 496.161,34.61" fill="#FFFFFE"/>
    <path d="M502.589,40.46 C501.652,41.172 500.367,41.046 499.635,40.265 C498.911,39.477 498.884,38.189 499.658,37.31 C500.43,36.432 501.854,36.421 502.746,37.383 C503.638,38.336 503.517,39.76 502.589,40.46" fill="#FFFFFE"/>
    <path d="M506.77,48.082 C505.649,48.446 504.477,47.917 504.043,46.935 C503.611,45.959 504.01,44.734 505.021,44.149 C506.036,43.566 507.385,44.023 507.915,45.215 C508.452,46.414 507.879,47.721 506.77,48.082" fill="#FFFFFE"/>
    <path d="M508.239,56.647 C507.064,56.632 506.131,55.745 506.034,54.683 C505.943,53.611 506.715,52.582 507.866,52.363 C509.008,52.144 510.144,53.014 510.255,54.315 C510.372,55.62 509.398,56.665 508.239,56.647" fill="#FFFFFE"/>
    <path d="M537.155,56.96 C537.155,68.631 546.617,78.093 558.291,78.093 C569.96,78.093 579.427,68.631 579.427,56.96 C579.427,45.286 569.96,35.822 558.291,35.822 C546.617,35.822 537.155,45.286 537.155,56.96" fill="#FFFFFE"/>
    <path d="M545.269,59.199 C546.578,57.019 548.356,55.209 550.363,53.908 C552.782,52.355 555.53,51.538 558.291,51.525 C561.048,51.504 563.808,52.313 566.229,53.875 C568.235,55.167 570.012,56.972 571.312,59.169 L571.312,60.846 C569.196,59.405 567.146,58.237 565.026,57.467 C562.81,56.656 560.555,56.238 558.291,56.225 C556.027,56.216 553.764,56.612 551.54,57.432 C549.422,58.2 547.367,59.367 545.269,60.845 L545.269,59.199" fill="#1A1919"/>
    <path d="M533.265,65.231 C534.367,64.835 534.962,63.695 534.71,62.654 C534.45,61.62 533.389,60.895 532.224,61.057 C531.072,61.219 530.276,62.404 530.594,63.673 C530.906,64.947 532.163,65.628 533.265,65.231" fill="#FFFFFE"/>
    <path d="M537.358,72.894 C538.274,72.161 538.47,70.883 537.888,69.99 C537.307,69.089 536.065,68.754 535.021,69.284 C533.977,69.819 533.625,71.195 534.337,72.291 C535.047,73.396 536.452,73.626 537.358,72.894" fill="#FFFFFE"/>
    <path d="M543.724,78.817 C544.345,77.826 544.129,76.556 543.284,75.895 C542.441,75.236 541.154,75.316 540.34,76.154 C539.527,76.997 539.642,78.416 540.66,79.222 C541.69,80.032 543.1,79.804 543.724,78.817" fill="#FFFFFE"/>
    <path d="M551.657,82.354 C551.926,81.207 551.303,80.083 550.296,79.732 C549.279,79.379 548.099,79.873 547.598,80.939 C547.106,81.989 547.663,83.304 548.899,83.736 C550.141,84.167 551.394,83.49 551.657,82.354" fill="#FFFFFE"/>
    <path d="M560.321,83.113 C560.203,81.943 559.247,81.075 558.179,81.072 C557.104,81.066 556.14,81.926 556.021,83.091 C555.894,84.251 556.854,85.305 558.163,85.31 C559.473,85.317 560.435,84.27 560.321,83.113" fill="#FFFFFE"/>
    <path d="M568.762,81.028 C568.268,79.959 567.089,79.454 566.075,79.798 C565.065,80.136 564.425,81.266 564.688,82.407 C564.94,83.546 566.187,84.232 567.434,83.812 C568.673,83.387 569.248,82.09 568.762,81.028" fill="#FFFFFE"/>
    <path d="M576.062,76.312 C575.25,75.464 573.967,75.367 573.118,76.022 C572.271,76.675 572.035,77.941 572.655,78.937 C573.267,79.93 574.675,80.175 575.711,79.371 C576.748,78.578 576.864,77.158 576.062,76.312" fill="#FFFFFE"/>
    <path d="M581.433,69.485 C580.396,68.94 579.153,69.266 578.562,70.16 C577.976,71.057 578.159,72.329 579.065,73.068 C579.969,73.817 581.374,73.593 582.102,72.498 C582.819,71.402 582.47,70.02 581.433,69.485" fill="#FFFFFE"/>
    <path d="M584.296,61.275 C583.142,61.108 582.069,61.819 581.807,62.855 C581.536,63.896 582.127,65.04 583.227,65.446 C584.327,65.853 585.582,65.177 585.91,63.913 C586.234,62.642 585.456,61.447 584.296,61.275" fill="#FFFFFE"/>
    <path d="M584.348,52.588 C583.196,52.79 582.413,53.817 582.492,54.885 C582.572,55.948 583.506,56.843 584.68,56.873 C585.849,56.897 586.816,55.86 586.722,54.556 C586.613,53.249 585.497,52.375 584.348,52.588" fill="#FFFFFE"/>
    <path d="M581.568,44.349 C580.55,44.927 580.146,46.144 580.565,47.13 C580.999,48.107 582.164,48.644 583.28,48.293 C584.398,47.94 584.979,46.639 584.458,45.439 C583.938,44.232 582.588,43.772 581.568,44.349" fill="#FFFFFE"/>
    <path d="M576.267,37.464 C575.486,38.338 575.497,39.63 576.219,40.415 C576.94,41.208 578.225,41.337 579.167,40.644 C580.106,39.944 580.231,38.527 579.349,37.563 C578.462,36.593 577.045,36.592 576.267,37.464" fill="#FFFFFE"/>
    <path d="M569.018,32.669 C568.565,33.749 568.995,34.964 569.935,35.475 C570.871,35.991 572.129,35.702 572.789,34.736 C573.457,33.771 573.121,32.381 571.972,31.76 C570.82,31.132 569.473,31.587 569.018,32.669" fill="#FFFFFE"/>
    <path d="M560.604,30.491 C560.523,31.664 561.33,32.666 562.39,32.858 C563.44,33.024 564.53,32.344 564.846,31.214 C565.155,30.089 564.389,28.887 563.099,28.672 C561.803,28.45 560.682,29.328 560.604,30.491" fill="#FFFFFE"/>
    <path d="M551.931,31.164 C552.242,32.293 553.327,32.983 554.378,32.818 C555.438,32.642 556.25,31.647 556.182,30.475 C556.117,29.314 555.001,28.423 553.708,28.634 C552.417,28.844 551.633,30.033 551.931,31.164" fill="#FFFFFE"/>
    <path d="M543.961,34.61 C544.613,35.58 545.873,35.884 546.812,35.383 C547.756,34.873 548.195,33.664 547.752,32.576 C547.307,31.493 545.962,31.026 544.81,31.646 C543.649,32.262 543.304,33.644 543.961,34.61" fill="#FFFFFE"/>
    <path d="M537.534,40.46 C538.47,41.172 539.756,41.046 540.485,40.265 C541.208,39.477 541.239,38.189 540.463,37.31 C539.693,36.432 538.267,36.421 537.376,37.383 C536.482,38.336 536.602,39.76 537.534,40.46" fill="#FFFFFE"/>
    <path d="M533.354,48.082 C534.472,48.446 535.644,47.917 536.082,46.935 C536.511,45.959 536.111,44.734 535.098,44.149 C534.087,43.566 532.74,44.023 532.206,45.215 C531.672,46.414 532.241,47.721 533.354,48.082" fill="#FFFFFE"/>
    <path d="M531.883,56.647 C533.059,56.632 533.989,55.745 534.089,54.683 C534.18,53.611 533.406,52.582 532.256,52.363 C531.111,52.144 529.977,53.014 529.864,54.315 C529.75,55.62 530.723,56.665 531.883,56.647" fill="#FFFFFE"/>
    <path d="M537.551,94.794 C532.502,95.244 527.261,97.595 522.81,100.265 C522.029,99.73 521.078,99.414 520.059,99.414 C519.042,99.414 518.095,99.73 517.312,100.265 C512.864,97.595 507.624,95.244 502.573,94.794 C500.482,100.25 500.173,104.594 501.99,111.902 C507.135,111.902 512.361,110.433 516.826,107.938 C517.688,108.704 518.819,109.172 520.059,109.172 C521.305,109.172 522.437,108.704 523.298,107.938 C527.765,110.433 532.988,111.902 538.13,111.902 C539.952,104.594 539.644,100.25 537.551,94.794" fill="#38B39C"/>
  </g>
</svg>
