<?xml version="1.0" encoding="UTF-8"?>
<!DOCTYPE svg PUBLIC "-//W3C//DTD SVG 1.1//EN" "http://www.w3.org/Graphics/SVG/1.1/DTD/svg11.dtd">
<svg version="1.1" xmlns="http://www.w3.org/2000/svg" xmlns:xlink="http://www.w3.org/1999/xlink" x="0" y="0" width="415.29" height="440.014" viewBox="0, 0, 415.29, 440.014">
  <g id="Layer_1" transform="translate(-1161.844, -1211.171)">
    <g id="pin">
      <path d="M1571.994,1624.451 C1571.994,1639.216 1480.179,1651.185 1366.919,1651.185 C1253.659,1651.185 1161.844,1639.216 1161.844,1624.451 C1161.844,1609.681 1253.659,1597.71 1366.919,1597.71 C1480.179,1597.71 1571.994,1609.681 1571.994,1624.451" fill="#D6D5D0"/>
      <path d="M1228.471,1526.135 L1411.353,1343.252 L1385.898,1317.796 L1203.015,1500.679 L1228.471,1526.135" fill="#FFFFFE"/>
      <path d="M1228.471,1541.135 L1228.471,1541.135 C1224.492,1541.135 1220.677,1539.554 1217.864,1536.741 L1192.409,1511.285 C1186.551,1505.427 1186.551,1495.93 1192.409,1490.072 L1375.292,1307.189 C1378.104,1304.376 1381.92,1302.796 1385.898,1302.796 C1389.877,1302.796 1393.692,1304.376 1396.505,1307.189 L1421.96,1332.645 C1427.818,1338.503 1427.818,1348.001 1421.96,1353.858 L1239.077,1536.741 C1236.264,1539.554 1232.449,1541.135 1228.471,1541.135 z M1224.228,1500.679 L1228.471,1504.922 L1390.14,1343.252 L1385.898,1339.01 L1224.228,1500.679" fill="#3B3C3A"/>
      <path d="M1287.605,1500.679 C1264.246,1477.319 1226.375,1477.32 1203.015,1500.679 C1179.656,1524.038 1179.656,1561.91 1203.015,1585.269 C1226.375,1608.629 1264.248,1608.628 1287.605,1585.269 C1310.965,1561.911 1310.965,1524.038 1287.605,1500.679 z M1228.648,1559.637 C1219.445,1550.433 1219.447,1535.514 1228.648,1526.312 C1237.849,1517.109 1252.769,1517.108 1261.972,1526.312 C1271.176,1535.515 1271.176,1550.435 1261.972,1559.637 C1252.771,1568.839 1237.851,1568.84 1228.648,1559.637" fill="#FFFFFE"/>
      <path d="M1245.316,1617.788 L1245.309,1617.788 C1225.325,1617.787 1206.538,1610.005 1192.409,1595.876 C1163.238,1566.706 1163.238,1519.242 1192.409,1490.072 C1206.54,1475.941 1225.328,1468.159 1245.311,1468.159 C1265.294,1468.159 1284.082,1475.941 1298.212,1490.072 C1312.343,1504.202 1320.125,1522.991 1320.125,1542.974 C1320.125,1562.958 1312.343,1581.746 1298.212,1595.876 C1284.082,1610.007 1265.297,1617.788 1245.316,1617.788 z M1245.311,1498.159 C1233.341,1498.159 1222.087,1502.821 1213.622,1511.286 C1196.149,1528.759 1196.149,1557.189 1213.622,1574.663 C1222.086,1583.126 1233.34,1587.788 1245.312,1587.788 L1245.316,1587.788 C1257.284,1587.789 1268.534,1583.128 1276.999,1574.663 C1285.464,1566.198 1290.125,1554.944 1290.125,1542.974 C1290.125,1531.004 1285.464,1519.75 1276.999,1511.285 C1268.534,1502.821 1257.281,1498.159 1245.311,1498.159 z M1245.31,1581.538 C1235.01,1581.538 1225.326,1577.527 1218.042,1570.243 C1203.007,1555.208 1203.006,1530.742 1218.041,1515.706 C1225.325,1508.422 1235.009,1504.409 1245.31,1504.409 C1255.611,1504.409 1265.295,1508.421 1272.579,1515.705 C1279.863,1522.989 1283.875,1532.674 1283.875,1542.974 C1283.875,1553.276 1279.863,1562.96 1272.579,1570.243 C1265.296,1577.526 1255.612,1581.538 1245.31,1581.538 z M1245.31,1534.409 C1243.023,1534.409 1240.873,1535.3 1239.256,1536.918 C1235.916,1540.257 1235.916,1545.69 1239.255,1549.03 C1240.873,1550.647 1243.023,1551.538 1245.31,1551.538 C1247.597,1551.538 1249.748,1550.647 1251.365,1549.03 C1252.984,1547.412 1253.875,1545.262 1253.875,1542.974 C1253.875,1540.686 1252.984,1538.536 1251.366,1536.918 C1249.748,1535.3 1247.597,1534.409 1245.31,1534.409" fill="#3B3C3A"/>
      <path d="M1287.605,1585.269 L1470.488,1402.387 L1445.033,1376.931 L1262.15,1559.813 L1287.605,1585.269" fill="#FFFFFE"/>
      <path d="M1287.605,1600.269 C1283.766,1600.269 1279.928,1598.806 1276.999,1595.876 C1271.14,1590.019 1271.14,1580.52 1276.999,1574.663 L1449.275,1402.387 L1445.033,1398.144 L1272.757,1570.42 C1266.899,1576.278 1257.401,1576.278 1251.544,1570.42 C1245.685,1564.562 1245.685,1555.065 1251.544,1549.207 L1434.427,1366.324 C1437.239,1363.511 1441.055,1361.931 1445.033,1361.931 C1449.012,1361.931 1452.827,1363.511 1455.639,1366.324 L1481.095,1391.78 C1486.953,1397.639 1486.953,1407.136 1481.095,1412.993 L1298.212,1595.876 C1295.283,1598.806 1291.444,1600.269 1287.605,1600.269" fill="#3B3C3A"/>
      <path d="M1561.344,1355.647 C1566.117,1333.676 1548.219,1295.071 1520.717,1267.568 C1493.213,1240.065 1454.609,1222.168 1432.637,1226.939 C1410.664,1231.712 1389.039,1254.951 1380.008,1270.94 C1371.258,1286.431 1370.715,1302.611 1381.068,1312.965 C1391.42,1323.318 1405.656,1337.554 1428.193,1360.091 C1450.732,1382.629 1464.967,1396.864 1475.32,1407.217 C1485.674,1417.57 1501.853,1417.027 1517.344,1408.276 C1533.334,1399.245 1556.572,1377.62 1561.344,1355.647" fill="#F6D729"/>
      <path d="M1494.704,1429.912 L1494.7,1429.912 C1482.99,1429.911 1472.621,1425.731 1464.714,1417.823 L1370.461,1323.57 C1355.716,1308.825 1354.369,1285.831 1366.947,1263.563 C1376.705,1246.287 1401.404,1218.374 1429.453,1212.281 C1432.847,1211.544 1436.514,1211.171 1440.351,1211.171 C1467.374,1211.171 1503.932,1229.572 1531.323,1256.962 C1558.597,1284.237 1582.703,1327.987 1576.002,1358.832 C1569.911,1386.881 1541.997,1411.58 1524.721,1421.337 C1514.791,1426.947 1504.411,1429.912 1494.704,1429.912 z M1440.351,1241.171 C1438.651,1241.171 1437.126,1241.313 1435.819,1241.598 C1420.323,1244.964 1401.562,1263.278 1393.068,1278.317 C1390.914,1282.131 1384.449,1295.132 1391.675,1302.358 L1485.927,1396.61 C1488.148,1398.831 1491.018,1399.911 1494.702,1399.912 L1494.704,1399.912 C1499.251,1399.912 1504.527,1398.288 1509.966,1395.216 C1525.006,1386.722 1543.32,1367.962 1546.685,1352.464 C1549.936,1337.501 1536.015,1304.081 1510.11,1278.175 C1486.074,1254.14 1456.229,1241.171 1440.351,1241.171" fill="#3B3C3A"/>
    </g>
  </g>
</svg>
