<?xml version="1.0" encoding="UTF-8"?>
<!DOCTYPE svg PUBLIC "-//W3C//DTD SVG 1.1//EN" "http://www.w3.org/Graphics/SVG/1.1/DTD/svg11.dtd">
<svg version="1.1" xmlns="http://www.w3.org/2000/svg" xmlns:xlink="http://www.w3.org/1999/xlink" x="0" y="0" width="428.681" height="418.134" viewBox="0, 0, 428.681, 418.134">
  <g id="Layer_1" transform="translate(-1745.051, -6766.876)">
    <g id="rainbow">
      <path d="M2155.201,7158.276 C2155.201,7173.042 2063.386,7185.01 1950.126,7185.01 C1836.866,7185.01 1745.051,7173.042 1745.051,7158.276 C1745.051,7143.507 1836.866,7131.536 1950.126,7131.536 C2063.386,7131.536 2155.201,7143.507 2155.201,7158.276" fill="#D6D5D0"/>
      <path d="M2158.614,7004.19 C2156.704,6970.223 2129.485,6920.907 2074.77,6936.159 C2074.77,6855.159 1984.305,6862.159 1964.62,6895.041 C1944.934,6862.159 1854.47,6855.159 1854.47,6936.159 C1799.755,6920.907 1772.536,6970.223 1770.626,7004.19 C1768.716,7038.159 1788.86,7086.784 1841.276,7082.159 C1832.796,7133.159 1929.651,7164.543 1964.62,7105.351 C1999.591,7164.543 2096.444,7133.159 2087.964,7082.159 C2140.382,7086.784 2160.524,7038.159 2158.614,7004.19" fill="#FFFFFE"/>
      <path d="M2022.94,7152.49 C2000.014,7152.49 1979.626,7144.319 1964.62,7129.557 C1949.615,7144.319 1929.226,7152.49 1906.301,7152.49 C1879.952,7152.49 1854.272,7141.501 1839.281,7123.812 C1832.483,7115.79 1828.159,7106.648 1826.515,7097.094 C1808.426,7095.379 1792.549,7087.728 1780.242,7074.709 C1760.336,7053.651 1754.486,7024.04 1755.649,7003.349 C1756.722,6984.259 1764.246,6963.788 1775.773,6948.583 C1790.574,6929.06 1811.524,6918.308 1834.764,6918.308 C1836.774,6918.308 1838.807,6918.388 1840.86,6918.544 C1844.474,6896.754 1854.49,6883.26 1863.168,6875.37 C1876.262,6863.464 1894.328,6856.907 1914.038,6856.907 C1933.235,6856.907 1951.65,6863.064 1964.62,6873.142 C1977.59,6863.064 1996.005,6856.907 2015.202,6856.907 C2034.91,6856.907 2052.976,6863.464 2066.072,6875.373 C2074.75,6883.263 2084.765,6896.755 2088.38,6918.544 C2090.432,6918.388 2092.466,6918.308 2094.475,6918.308 C2117.713,6918.308 2138.662,6929.06 2153.465,6948.583 C2164.993,6963.79 2172.517,6984.261 2173.591,7003.349 C2174.754,7024.042 2168.905,7053.657 2149,7074.713 C2136.694,7087.729 2120.815,7095.379 2102.725,7097.095 C2101.081,7106.649 2096.758,7115.792 2089.96,7123.813 C2074.97,7141.502 2049.29,7152.49 2022.94,7152.49 z M1964.62,7090.351 C1969.926,7090.351 1974.836,7093.153 1977.534,7097.72 C1990.267,7119.271 2011.448,7122.49 2022.94,7122.49 C2040.446,7122.49 2057.769,7115.396 2067.073,7104.418 C2072.279,7098.274 2074.331,7091.612 2073.167,7084.62 C2072.406,7080.042 2073.805,7075.372 2076.958,7071.967 C2080.111,7068.562 2084.661,7066.808 2089.282,7067.217 C2091.154,7067.381 2093.011,7067.464 2094.802,7067.464 L2094.804,7067.464 C2107.918,7067.464 2118.817,7062.969 2127.199,7054.104 C2140.574,7039.957 2144.415,7018.827 2143.637,7005.033 C2142.313,6981.479 2126.185,6948.308 2094.475,6948.308 C2089.548,6948.308 2084.272,6949.082 2078.798,6950.607 C2074.281,6951.868 2069.433,6950.94 2065.699,6948.104 C2061.964,6945.268 2059.77,6940.848 2059.77,6936.159 C2059.77,6891.707 2028.602,6886.907 2015.202,6886.907 C1996.866,6886.907 1982.087,6895.067 1977.49,6902.745 C1974.781,6907.27 1969.894,6910.041 1964.62,6910.041 C1959.346,6910.041 1954.459,6907.27 1951.75,6902.745 C1947.153,6895.067 1932.374,6886.907 1914.038,6886.907 C1900.637,6886.907 1869.47,6891.707 1869.47,6936.159 C1869.47,6940.848 1867.276,6945.268 1863.541,6948.104 C1859.805,6950.94 1854.958,6951.866 1850.442,6950.607 C1844.968,6949.082 1839.692,6948.308 1834.764,6948.308 C1803.054,6948.308 1786.927,6981.479 1785.602,7005.033 C1784.827,7018.824 1788.667,7039.952 1802.043,7054.1 C1811.57,7064.178 1824.356,7068.592 1839.958,7067.217 C1844.572,7066.809 1849.13,7068.562 1852.282,7071.967 C1855.434,7075.372 1856.834,7080.042 1856.073,7084.62 C1854.91,7091.611 1856.961,7098.271 1862.168,7104.417 C1871.472,7115.396 1888.796,7122.49 1906.301,7122.49 C1917.793,7122.49 1938.973,7119.271 1951.706,7097.72 C1954.404,7093.153 1959.314,7090.351 1964.62,7090.351" fill="#3B3C3A"/>
      <path d="M1982.057,6948.452 C1992.571,6946.411 2005.001,6947.611 2014.387,6951.997 C2014.387,6951.993 2014.387,6951.992 2014.387,6951.989 C2014.387,6905.259 2057.376,6875.6 2090.71,6875.6 C2090.71,6875.6 2090.71,6861.817 2090.71,6843.388 C2006.776,6843.388 1982.823,6911.819 1982.057,6948.452" fill="#E46C79"/>
      <path d="M2014.381,6961.995 C2012.942,6961.995 2011.499,6961.685 2010.154,6961.056 C2005.227,6958.755 1998.934,6957.487 1992.434,6957.487 C1989.488,6957.487 1986.638,6957.751 1983.963,6958.269 C1980.996,6958.845 1977.929,6958.048 1975.615,6956.101 C1973.304,6954.154 1971.997,6951.265 1972.059,6948.243 C1972.257,6938.796 1974.657,6905.671 1997.251,6876.11 C2012.147,6856.62 2040.453,6833.388 2090.71,6833.388 C2096.232,6833.388 2100.71,6837.866 2100.71,6843.388 L2100.71,6875.6 C2100.71,6881.125 2096.232,6885.6 2090.71,6885.6 C2063.015,6885.6 2024.387,6910.857 2024.387,6951.989 C2024.387,6955.407 2022.641,6958.593 2019.758,6960.429 C2018.126,6961.468 2016.257,6961.995 2014.381,6961.995 z M1992.99,6937.489 C1997.214,6937.524 2001.417,6937.951 2005.444,6938.738 C2008.51,6919.727 2018.172,6902.337 2033.405,6888.796 C2046.995,6876.718 2064.096,6868.688 2080.71,6866.325 L2080.71,6853.76 C2019.826,6858.377 1997.588,6905.095 1992.99,6937.489" fill="#3B3C3A"/>
      <path d="M1946.702,6940.644 C1953.782,6943.542 1959.917,6948.385 1963.757,6955.672 L1965.936,6955.968 C1969.792,6952.211 1975.559,6949.715 1982.057,6948.452 C1982.823,6911.819 2006.776,6843.388 2090.71,6843.388 C2090.71,6834.225 2090.71,6823.916 2090.71,6813.576 C1988.788,6814.656 1948.876,6881.753 1946.702,6940.644" fill="#F6D729"/>
      <path d="M1965.937,6965.968 C1965.488,6965.968 1965.038,6965.938 1964.587,6965.876 L1962.407,6965.58 C1959.208,6965.144 1956.416,6963.189 1954.91,6960.333 C1952.446,6955.659 1948.411,6952.147 1942.915,6949.899 C1939.032,6948.31 1936.554,6944.468 1936.709,6940.275 C1938.005,6905.175 1951.262,6872.601 1974.04,6848.554 C2001.422,6819.646 2041.728,6804.095 2090.603,6803.577 C2090.639,6803.576 2090.675,6803.576 2090.71,6803.576 C2093.343,6803.576 2095.87,6804.614 2097.743,6806.468 C2099.641,6808.346 2100.71,6810.905 2100.71,6813.576 L2100.71,6843.388 C2100.71,6848.911 2096.232,6853.388 2090.71,6853.388 C2014.249,6853.388 1992.744,6915.708 1992.055,6948.661 C1991.957,6953.37 1988.587,6957.372 1983.964,6958.269 C1979.084,6959.218 1975.16,6960.943 1972.915,6963.131 C1971.036,6964.962 1968.526,6965.968 1965.937,6965.968 z M1957.086,6934.698 C1960.899,6937.003 1964.262,6939.801 1967.106,6943.032 C1968.8,6942.158 1970.605,6941.38 1972.513,6940.702 C1973.846,6926.611 1978.855,6900.178 1997.251,6876.11 C2011.129,6857.952 2036.647,6836.548 2080.71,6833.706 L2080.71,6823.921 C1995.994,6828.89 1961.43,6884.599 1957.086,6934.698" fill="#3B3C3A"/>
      <path d="M1910.149,6939.977 C1920.897,6936.383 1935.075,6935.884 1946.702,6940.644 C1948.876,6881.753 1988.788,6814.655 2090.71,6813.575 C2090.71,6802.59 2090.71,6791.574 2090.71,6781.875 C1944.044,6781.875 1910.149,6889.384 1910.149,6939.977" fill="#70B7D3"/>
      <path d="M1946.701,6950.644 C1945.42,6950.644 1944.134,6950.397 1942.915,6949.898 C1938.565,6948.117 1933.375,6947.177 1927.903,6947.177 C1922.831,6947.177 1917.787,6947.967 1913.32,6949.461 C1910.27,6950.48 1906.917,6949.97 1904.305,6948.091 C1901.696,6946.213 1900.149,6943.192 1900.149,6939.977 C1900.149,6881.834 1939.976,6771.875 2090.71,6771.875 C2096.232,6771.875 2100.71,6776.353 2100.71,6781.875 L2100.71,6813.575 C2100.71,6819.057 2096.297,6823.517 2090.816,6823.574 C1994.983,6824.59 1958.672,6887.473 1956.695,6941.012 C1956.575,6944.277 1954.867,6947.277 1952.121,6949.047 C1950.482,6950.104 1948.597,6950.644 1946.701,6950.644 z M1927.903,6927.177 C1931.219,6927.177 1934.494,6927.425 1937.67,6927.908 C1941.281,6897.57 1953.963,6869.75 1974.04,6848.553 C1999.552,6821.622 2036.282,6806.28 2080.71,6803.892 L2080.71,6792.049 C2024.596,6794.031 1981.734,6812.908 1953.211,6848.236 C1932.667,6873.68 1923.268,6903.955 1920.821,6927.545 C1923.167,6927.3 1925.537,6927.177 1927.903,6927.177" fill="#3B3C3A"/>
      <path d="M1965.937,6970.968 C1965.264,6970.968 1964.588,6970.924 1963.912,6970.832 L1961.732,6970.534 C1956.932,6969.881 1952.744,6966.949 1950.486,6962.665 C1945.499,6953.198 1933.038,6952.176 1927.912,6952.176 C1923.433,6952.176 1918.814,6952.896 1914.906,6954.202 C1910.332,6955.733 1905.299,6954.969 1901.385,6952.15 C1897.47,6949.332 1895.149,6944.802 1895.149,6939.978 C1895.149,6925.99 1897.933,6876.903 1933.759,6832.532 C1949.903,6812.536 1970.304,6796.82 1994.391,6785.82 C2021.919,6773.25 2054.325,6766.876 2090.71,6766.876 C2098.994,6766.876 2105.71,6773.592 2105.71,6781.876 L2105.71,6875.6 C2105.71,6883.884 2098.994,6890.6 2090.71,6890.6 C2065.103,6890.6 2029.387,6913.955 2029.387,6951.989 C2029.387,6957.117 2026.768,6961.894 2022.442,6964.647 C2018.116,6967.4 2012.683,6967.757 2008.038,6965.587 C2003.817,6963.614 1998.125,6962.483 1992.422,6962.483 C1984.399,6962.483 1978.494,6964.677 1976.403,6966.714 C1973.584,6969.46 1969.82,6970.968 1965.937,6970.968 z M1927.912,6922.176 C1944.126,6922.176 1958.358,6927.552 1968.225,6937.016 C1975.246,6934.074 1983.542,6932.483 1992.422,6932.483 C1995.447,6932.483 1998.47,6932.673 2001.44,6933.042 C2005.46,6914.814 2015.287,6898.211 2030.083,6885.059 C2043.222,6873.382 2059.518,6865.292 2075.71,6862.108 L2075.71,6797.281 C2023.644,6800.157 1983.793,6818.319 1957.1,6851.378 C1938.891,6873.93 1929.743,6900.39 1926.527,6922.189 C1926.989,6922.18 1927.45,6922.176 1927.912,6922.176" fill="#3B3C3A"/>
      <path d="M1898.044,6946.718 C1911.378,6934.051 1952.53,6930.717 1964.62,6957.384 C1977.378,6942.051 2019.378,6944.626 2027.378,6964.339 L1898.044,6946.718" fill="#FFFFFE"/>
      <path d="M2027.383,6979.344 C2021.457,6979.344 2015.845,6975.809 2013.478,6969.979 C2012.456,6967.457 2007.194,6964.245 1999.123,6962.99 C1987.921,6961.249 1978.428,6964.243 1976.15,6966.979 C1972.847,6970.951 1967.725,6972.941 1962.613,6972.25 C1957.495,6971.559 1953.092,6968.284 1950.959,6963.579 C1948.424,6957.988 1943.203,6954.385 1935.442,6952.87 C1924.089,6950.654 1912.023,6954.128 1908.375,6957.594 C1902.369,6963.298 1892.875,6963.056 1887.168,6957.05 C1881.463,6951.042 1881.707,6941.548 1887.713,6935.843 C1899.465,6924.681 1921.451,6919.575 1941.188,6923.427 C1952.044,6925.545 1961.266,6930.202 1968.262,6936.954 C1979.729,6932.188 1993.261,6931.719 2003.731,6933.347 C2022.22,6936.22 2035.904,6945.462 2041.277,6958.699 C2044.392,6966.375 2040.694,6975.124 2033.018,6978.239 C2031.171,6978.988 2029.261,6979.344 2027.383,6979.344" fill="#3B3C3A"/>
    </g>
  </g>
</svg>
