<?xml version="1.0" encoding="UTF-8"?>
<!DOCTYPE svg PUBLIC "-//W3C//DTD SVG 1.1//EN" "http://www.w3.org/Graphics/SVG/1.1/DTD/svg11.dtd">
<svg version="1.1" xmlns="http://www.w3.org/2000/svg" xmlns:xlink="http://www.w3.org/1999/xlink" x="0" y="0" width="417.491" height="361.464" viewBox="0, 0, 417.491, 361.464">
  <g id="Layer_1" transform="translate(-1166.091, -6208.647)">
    <g id="shoes-boy">
      <path d="M1576.241,6543.378 C1576.241,6558.143 1484.426,6570.112 1371.166,6570.112 C1257.906,6570.112 1166.091,6558.143 1166.091,6543.378 C1166.091,6528.608 1257.906,6516.637 1371.166,6516.637 C1484.426,6516.637 1576.241,6528.608 1576.241,6543.378" fill="#D6D5D0"/>
      <path d="M1349.874,6227.564 C1315.595,6236.679 1187.216,6326.322 1187.522,6361.999 C1187.829,6397.676 1261.979,6425.382 1360.413,6425.382 C1478.889,6425.382 1522.874,6409.972 1523.575,6356.263 C1524.138,6313.306 1495.643,6235.251 1487.772,6229.171 C1479.899,6223.09 1373.462,6221.293 1349.874,6227.564" fill="#FFFFFE"/>
      <path d="M1360.413,6440.381 C1311.239,6440.381 1265.628,6433.55 1231.98,6421.143 C1183.102,6403.12 1172.669,6379.102 1172.523,6362.127 C1172.415,6349.511 1180.167,6335.185 1196.921,6317.046 C1209.167,6303.788 1226.336,6288.537 1246.571,6272.939 C1279.477,6247.579 1324.203,6218.868 1346.019,6213.067 C1360.482,6209.222 1393.753,6208.647 1412.298,6208.647 C1430.381,6208.647 1448.183,6209.181 1462.426,6210.149 C1488.084,6211.895 1493.079,6214.314 1496.941,6217.3 C1500.601,6220.125 1504.316,6225.011 1510.565,6239.671 C1514.706,6249.388 1519.176,6261.722 1523.149,6274.401 C1529.064,6293.272 1538.933,6329.028 1538.574,6356.459 C1538.139,6389.822 1522.847,6412.193 1491.827,6424.852 C1465.15,6435.738 1425.848,6440.381 1360.413,6440.381 z M1412.298,6238.647 C1378.54,6238.647 1359.648,6240.487 1353.728,6242.06 C1340.579,6245.557 1302.928,6267.399 1265.029,6296.589 C1214.021,6335.879 1202.527,6357.421 1202.521,6361.87 C1202.609,6372.041 1217.874,6383.968 1242.359,6392.995 C1272.766,6404.208 1314.692,6410.382 1360.413,6410.382 C1485.062,6410.382 1508.106,6392.092 1508.576,6356.066 C1508.788,6339.917 1504.075,6314.749 1495.647,6287.017 C1488.719,6264.219 1481.841,6248.104 1478.518,6241.938 C1469.715,6240.403 1445.099,6238.647 1412.298,6238.647" fill="#3B3C3A"/>
      <path d="M1487.772,6229.171 C1480.417,6223.49 1387.032,6221.548 1355.554,6226.432 C1370.95,6266.641 1469.616,6276.411 1487.772,6229.171" fill="#70B7D3"/>
      <path d="M1426.759,6275.762 C1426.759,6275.762 1426.756,6275.762 1426.751,6275.762 C1393.821,6275.759 1353.111,6262 1341.546,6231.797 C1339.925,6227.563 1340.304,6222.827 1342.578,6218.907 C1344.851,6214.987 1348.775,6212.304 1353.254,6211.61 C1369.854,6209.034 1397.377,6208.648 1412.306,6208.648 C1430.388,6208.648 1448.187,6209.182 1462.429,6210.151 C1488.084,6211.895 1493.078,6214.314 1496.941,6217.299 C1502.187,6221.35 1504.152,6228.365 1501.774,6234.552 C1491.856,6260.354 1463.81,6275.762 1426.759,6275.762 z M1390.887,6238.938 C1401.048,6243.182 1413.705,6245.761 1426.753,6245.762 L1426.759,6245.762 C1436.908,6245.762 1448.093,6244.051 1457.183,6239.88 C1445.432,6239.163 1430.07,6238.648 1412.306,6238.648 C1404.763,6238.648 1397.553,6238.749 1390.887,6238.938" fill="#3B3C3A"/>
      <path d="M1187.593,6363.678 C1190.173,6398.542 1263.53,6425.381 1360.413,6425.381 C1472.899,6425.381 1518.229,6411.485 1523.128,6364.114 C1438.411,6381.563 1270.802,6378.593 1187.593,6363.678" fill="#70B7D3"/>
      <path d="M1360.413,6440.381 C1312.073,6440.381 1267.024,6433.754 1233.562,6421.718 C1185.405,6404.398 1173.849,6381.198 1172.634,6364.787 C1172.292,6360.163 1174.106,6355.642 1177.549,6352.538 C1180.992,6349.434 1185.678,6348.096 1190.239,6348.915 C1232.691,6356.523 1297.892,6361.066 1364.652,6361.066 C1428.44,6361.066 1483.646,6356.932 1520.101,6349.423 C1524.78,6348.458 1529.644,6349.784 1533.19,6352.99 C1536.735,6356.197 1538.54,6360.902 1538.049,6365.657 C1534.97,6395.433 1518.341,6415.374 1487.213,6426.62 C1460.869,6436.138 1421.763,6440.381 1360.413,6440.381 z M1222.265,6383.78 C1247.017,6397.894 1294.366,6410.381 1360.413,6410.381 C1418.13,6410.381 1454.092,6406.688 1477.019,6398.404 C1487.951,6394.456 1495.616,6389.618 1500.653,6383.156 C1464.25,6388.294 1417.127,6391.066 1364.652,6391.066 C1313.438,6391.066 1262.925,6388.423 1222.265,6383.78" fill="#3B3C3A"/>
      <path d="M1332.243,6286.193 C1327.945,6286.193 1323.68,6284.357 1320.714,6280.797 L1291.858,6246.182 C1286.554,6239.818 1287.412,6230.359 1293.775,6225.055 C1300.14,6219.75 1309.597,6220.609 1314.901,6226.973 L1343.757,6261.589 C1349.061,6267.952 1348.203,6277.411 1341.84,6282.716 C1339.035,6285.054 1335.629,6286.193 1332.243,6286.193" fill="#3B3C3A"/>
      <path d="M1294.927,6311.286 C1290.629,6311.286 1286.364,6309.45 1283.397,6305.89 L1254.54,6271.273 C1249.235,6264.909 1250.094,6255.452 1256.457,6250.147 C1262.819,6244.842 1272.278,6245.701 1277.583,6252.064 L1306.44,6286.681 C1311.745,6293.045 1310.887,6302.503 1304.523,6307.807 C1301.72,6310.145 1298.312,6311.286 1294.927,6311.286" fill="#3B3C3A"/>
      <path d="M1394.872,6328.431 C1360.593,6337.547 1232.214,6427.188 1232.52,6462.866 C1232.827,6498.543 1306.977,6526.25 1405.411,6526.25 C1523.887,6526.25 1567.872,6510.84 1568.573,6457.131 C1569.136,6414.173 1540.641,6336.118 1532.77,6330.038 C1524.897,6323.957 1418.46,6322.159 1394.872,6328.431" fill="#FFFFFE"/>
      <path d="M1405.411,6541.25 C1356.237,6541.25 1310.626,6534.417 1276.978,6522.01 C1228.1,6503.987 1217.667,6479.969 1217.521,6462.995 C1217.413,6450.377 1225.165,6436.051 1241.919,6417.913 C1254.165,6404.654 1271.334,6389.403 1291.569,6373.807 C1324.475,6348.445 1369.201,6319.735 1391.017,6313.935 C1405.48,6310.089 1438.751,6309.515 1457.296,6309.515 C1475.379,6309.515 1493.181,6310.048 1507.424,6311.017 C1533.082,6312.761 1538.077,6315.182 1541.939,6318.167 C1545.598,6320.992 1549.314,6325.878 1555.563,6340.538 C1559.704,6350.255 1564.174,6362.589 1568.147,6375.269 C1574.062,6394.14 1583.931,6429.895 1583.572,6457.326 C1583.137,6490.688 1567.846,6513.061 1536.825,6525.719 C1510.148,6536.604 1470.847,6541.25 1405.411,6541.25 z M1457.296,6339.515 C1423.538,6339.515 1404.646,6341.354 1398.726,6342.927 C1385.577,6346.423 1347.926,6368.267 1310.027,6397.458 C1259.019,6436.747 1247.525,6458.288 1247.519,6462.737 C1247.607,6472.907 1262.872,6484.834 1287.357,6493.862 C1317.765,6505.074 1359.69,6511.25 1405.411,6511.25 C1530.06,6511.25 1553.104,6492.958 1553.574,6456.934 C1553.786,6440.783 1549.073,6415.615 1540.645,6387.883 C1533.717,6365.086 1526.839,6348.97 1523.517,6342.805 C1514.713,6341.27 1490.098,6339.515 1457.296,6339.515" fill="#3B3C3A"/>
      <path d="M1532.77,6330.038 C1525.415,6324.356 1432.03,6322.415 1400.552,6327.298 C1415.948,6367.509 1514.614,6377.277 1532.77,6330.038" fill="#70B7D3"/>
      <path d="M1471.757,6376.628 C1471.753,6376.628 1471.754,6376.628 1471.754,6376.628 C1438.819,6376.626 1398.109,6362.868 1386.544,6332.663 C1384.923,6328.431 1385.303,6323.693 1387.576,6319.773 C1389.849,6315.854 1393.773,6313.171 1398.252,6312.477 C1414.852,6309.9 1442.375,6309.516 1457.304,6309.516 C1475.386,6309.516 1493.185,6310.048 1507.427,6311.017 C1533.082,6312.762 1538.076,6315.182 1541.939,6318.166 C1547.185,6322.217 1549.15,6329.231 1546.772,6335.418 C1536.854,6361.222 1508.808,6376.628 1471.757,6376.628 z M1435.886,6339.805 C1446.046,6344.049 1458.703,6346.627 1471.751,6346.628 L1471.757,6346.628 C1481.906,6346.628 1493.091,6344.918 1502.181,6340.747 C1490.43,6340.03 1475.068,6339.516 1457.304,6339.516 C1449.762,6339.516 1442.551,6339.615 1435.886,6339.805" fill="#3B3C3A"/>
      <path d="M1232.591,6464.547 C1235.171,6499.409 1308.528,6526.25 1405.411,6526.25 C1517.897,6526.25 1563.227,6512.353 1568.126,6464.982 C1483.409,6482.431 1315.8,6479.462 1232.591,6464.547" fill="#70B7D3"/>
      <path d="M1405.411,6541.25 C1357.071,6541.25 1312.022,6534.622 1278.56,6522.587 C1230.403,6505.265 1218.847,6482.066 1217.632,6465.654 C1217.29,6461.031 1219.104,6456.509 1222.547,6453.405 C1225.99,6450.301 1230.672,6448.964 1235.237,6449.782 C1277.689,6457.391 1342.89,6461.934 1409.65,6461.934 C1473.438,6461.934 1528.644,6457.799 1565.099,6450.291 C1569.778,6449.326 1574.642,6450.651 1578.188,6453.858 C1581.733,6457.065 1583.538,6461.77 1583.047,6466.525 C1579.968,6496.301 1563.339,6516.241 1532.211,6527.487 C1505.867,6537.006 1466.761,6541.25 1405.411,6541.25 z M1267.263,6484.648 C1292.016,6498.761 1339.364,6511.25 1405.411,6511.25 C1463.128,6511.25 1499.09,6507.555 1522.017,6499.272 C1532.949,6495.323 1540.614,6490.485 1545.651,6484.024 C1509.248,6489.161 1462.125,6491.934 1409.65,6491.934 C1358.436,6491.934 1307.923,6489.292 1267.263,6484.648" fill="#3B3C3A"/>
      <path d="M1377.241,6387.061 C1372.943,6387.061 1368.679,6385.223 1365.712,6381.666 L1336.856,6347.049 C1331.552,6340.686 1332.41,6331.227 1338.773,6325.922 C1345.137,6320.617 1354.595,6321.477 1359.899,6327.84 L1388.755,6362.457 C1394.059,6368.819 1393.201,6378.278 1386.838,6383.583 C1384.033,6385.92 1380.627,6387.061 1377.241,6387.061" fill="#3B3C3A"/>
      <path d="M1339.925,6412.152 C1335.627,6412.152 1331.362,6410.316 1328.395,6406.758 L1299.538,6372.14 C1294.233,6365.776 1295.092,6356.318 1301.455,6351.014 C1307.816,6345.708 1317.276,6346.567 1322.581,6352.931 L1351.438,6387.547 C1356.743,6393.911 1355.885,6403.37 1349.521,6408.673 C1346.718,6411.012 1343.31,6412.152 1339.925,6412.152" fill="#3B3C3A"/>
    </g>
  </g>
</svg>
