<?xml version="1.0" encoding="UTF-8"?>
<!DOCTYPE svg PUBLIC "-//W3C//DTD SVG 1.1//EN" "http://www.w3.org/Graphics/SVG/1.1/DTD/svg11.dtd">
<svg version="1.1" xmlns="http://www.w3.org/2000/svg" xmlns:xlink="http://www.w3.org/1999/xlink" x="0" y="0" width="426.315" height="408.961" viewBox="0, 0, 426.315, 408.961">
  <g id="Layer_1" transform="translate(-580.69, -1242.224)">
    <g id="shoes-girl">
      <path d="M993.034,1624.451 C993.034,1639.216 901.219,1651.185 787.959,1651.185 C674.699,1651.185 582.885,1639.216 582.885,1624.451 C582.885,1609.681 674.699,1597.71 787.959,1597.71 C901.219,1597.71 993.034,1609.681 993.034,1624.451" fill="#D6D5D0"/>
      <path d="M758.045,1261.139 C723.765,1270.254 595.387,1359.896 595.693,1395.573 C596,1431.251 670.15,1458.957 768.584,1458.957 C887.06,1458.957 931.045,1443.547 931.746,1389.838 C932.308,1346.881 903.814,1268.825 895.943,1262.745 C888.07,1256.664 781.633,1254.867 758.045,1261.139" fill="#FFFFFE"/>
      <path d="M768.584,1473.957 C719.41,1473.957 673.799,1467.124 640.151,1454.718 C591.273,1436.695 580.84,1412.677 580.694,1395.702 C580.586,1383.085 588.338,1368.76 605.092,1350.621 C617.338,1337.363 634.507,1322.11 654.742,1306.515 C687.648,1281.153 732.374,1252.444 754.19,1246.643 C768.653,1242.797 801.924,1242.224 820.469,1242.224 C838.552,1242.224 856.354,1242.757 870.597,1243.725 C896.255,1245.47 901.25,1247.89 905.112,1250.874 C908.771,1253.7 912.487,1258.586 918.736,1273.246 C922.877,1282.962 927.346,1295.297 931.32,1307.977 C937.235,1326.848 947.104,1362.603 946.745,1390.034 C946.309,1423.397 931.018,1445.769 899.998,1458.427 C873.321,1469.312 834.019,1473.957 768.584,1473.957 z M820.469,1272.224 C786.711,1272.224 767.819,1274.062 761.899,1275.636 C748.75,1279.132 711.099,1300.974 673.2,1330.165 C622.192,1369.454 610.698,1390.996 610.692,1395.445 C610.78,1405.615 626.045,1417.542 650.53,1426.57 C680.937,1437.782 722.863,1443.957 768.584,1443.957 C893.233,1443.957 916.277,1425.666 916.747,1389.642 C916.959,1373.491 912.246,1348.323 903.818,1320.592 C896.889,1297.794 890.012,1281.679 886.689,1275.514 C877.886,1273.978 853.27,1272.224 820.469,1272.224" fill="#3B3C3A"/>
      <path d="M834.928,1309.336 C834.898,1309.336 834.874,1309.336 834.845,1309.336 C801.944,1309.315 761.271,1295.549 749.717,1265.37 C746.754,1257.635 750.624,1248.961 758.36,1245.999 C766.098,1243.037 774.77,1246.905 777.732,1254.644 C783.028,1268.473 808.123,1279.319 834.863,1279.336 C834.881,1279.336 834.901,1279.336 834.919,1279.336 C853.58,1279.336 875.715,1273.565 881.941,1257.364 C884.913,1249.63 893.59,1245.772 901.324,1248.743 C909.058,1251.716 912.917,1260.393 909.945,1268.126 C900.026,1293.933 871.983,1309.336 834.928,1309.336" fill="#3B3C3A"/>
      <path d="M772.355,1424.206 C769.257,1424.206 766.148,1424.196 763.013,1424.175 C695.134,1423.72 631.418,1418.513 592.57,1410.245 C584.468,1408.521 579.298,1400.554 581.021,1392.451 C582.746,1384.349 590.701,1379.178 598.816,1380.901 C675.288,1397.178 852.053,1400.22 928.044,1381.03 C936.078,1379.001 944.231,1383.868 946.261,1391.901 C948.288,1399.933 943.421,1408.089 935.39,1410.116 C899.712,1419.126 840.66,1424.206 772.355,1424.206" fill="#3B3C3A"/>
      <path d="M715.051,1258.505 C698.637,1266.121 650.176,1303.589 632.176,1321.46 C614.176,1339.331 639.51,1362.666 652.176,1351.332 C652.674,1373.997 692.174,1378.497 698.176,1354.317 C715.051,1368.347 748.674,1354.497 740.176,1329.998 C758.176,1329.331 757.713,1287.106 737.678,1285.921 C749.508,1273.331 734.824,1249.331 715.051,1258.505" fill="#E46C79"/>
      <path d="M675.659,1380.503 C662.181,1380.503 650.945,1374.053 645.573,1364.282 C645.152,1364.306 644.728,1364.317 644.302,1364.317 C633.371,1364.317 622.575,1356.645 618.048,1345.659 C613.604,1334.877 616.252,1323.178 625.13,1314.364 C643.915,1295.714 693.16,1257.639 710.842,1249.433 C715.09,1247.463 719.435,1246.464 723.76,1246.464 C734.852,1246.464 744.972,1253.286 749.539,1263.846 C751.987,1269.507 752.528,1275.453 751.278,1280.938 C758.724,1286.823 763.347,1297.366 763.209,1309.927 C763.077,1321.813 758.594,1331.388 751.499,1336.335 C751.779,1342.927 749.934,1349.243 746.039,1354.718 C739.364,1364.098 727.345,1369.925 714.672,1369.925 L714.671,1369.925 C710.459,1369.925 706.365,1369.253 702.561,1367.971 C696.622,1375.826 686.977,1380.503 675.659,1380.503 z M652.178,1341.332 C653.522,1341.332 654.876,1341.603 656.156,1342.159 C659.738,1343.713 662.088,1347.209 662.174,1351.112 C662.323,1357.954 670.525,1360.503 675.659,1360.503 C678.164,1360.503 686.491,1359.884 688.471,1351.908 C689.3,1348.567 691.788,1345.889 695.059,1344.815 C698.331,1343.743 701.921,1344.428 704.568,1346.628 C707.847,1349.353 711.872,1349.925 714.672,1349.925 C720.791,1349.925 726.847,1347.191 729.743,1343.122 C731.734,1340.325 732.055,1337.104 730.728,1333.275 C729.689,1330.28 730.132,1326.97 731.922,1324.353 C733.712,1321.735 736.637,1320.122 739.805,1320.005 C740.761,1319.97 743.137,1316.317 743.21,1309.706 C743.28,1303.354 740.782,1296.122 737.087,1295.903 C733.213,1295.675 729.821,1293.224 728.387,1289.618 C726.951,1286.013 727.732,1281.901 730.391,1279.073 C732.828,1276.479 731.757,1273.113 731.182,1271.786 C730.069,1269.214 727.535,1266.464 723.76,1266.464 C722.364,1266.464 720.849,1266.839 719.26,1267.576 C704.887,1274.245 657.761,1310.149 639.221,1328.556 C636.075,1331.681 635.197,1334.782 636.54,1338.038 C638.064,1341.739 641.854,1344.317 644.302,1344.317 C644.901,1344.317 645.198,1344.157 645.508,1343.88 C647.377,1342.208 649.762,1341.332 652.178,1341.332" fill="#3B3C3A"/>
      <path d="M690.756,1273.895 C699.297,1267.991 721.008,1297.383 696.342,1314.716 C671.674,1332.049 646.973,1307.728 657.004,1299.711 C667.035,1291.693 680.996,1280.641 690.756,1273.895" fill="#FFFFFE"/>
      <path d="M678.218,1330.811 C661.757,1330.811 649.228,1320.409 645.798,1310.622 C643.306,1303.512 645.207,1296.338 650.761,1291.899 C661.601,1283.234 675.299,1272.423 685.07,1265.669 C687.478,1264.003 690.326,1263.124 693.306,1263.124 C703.9,1263.124 712.798,1273.73 716.11,1284.208 C720.782,1298.982 715.542,1313.446 702.091,1322.897 C694.723,1328.075 686.468,1330.811 678.218,1330.811 z M665.691,1305.572 C667.598,1307.736 671.99,1310.812 678.218,1310.812 C682.389,1310.812 686.553,1309.372 690.593,1306.534 C695.845,1302.843 698.17,1298.565 697.7,1293.457 C697.312,1289.24 695.197,1285.879 693.569,1284.144 C685.312,1290.054 674.74,1298.359 665.691,1305.572" fill="#3B3C3A"/>
      <path d="M818.293,1389.836 C784.016,1398.951 655.637,1488.594 655.943,1524.27 C656.25,1559.948 730.4,1587.654 828.834,1587.654 C947.308,1587.654 991.295,1572.244 991.996,1518.535 C992.557,1475.578 964.064,1397.522 956.191,1391.442 C948.32,1385.361 841.883,1383.564 818.293,1389.836" fill="#FFFFFE"/>
      <path d="M828.834,1602.654 C779.66,1602.654 734.049,1595.822 700.401,1583.415 C651.523,1565.392 641.09,1541.374 640.944,1524.399 C640.836,1511.782 648.588,1497.456 665.342,1479.318 C677.588,1466.06 694.757,1450.809 714.992,1435.212 C747.897,1409.851 792.622,1381.141 814.438,1375.34 C828.902,1371.494 862.173,1370.921 880.719,1370.921 C898.802,1370.921 916.603,1371.454 930.846,1372.422 C956.505,1374.167 961.499,1376.588 965.362,1379.572 C969.018,1382.395 972.736,1387.282 978.985,1401.943 C983.126,1411.659 987.596,1423.993 991.569,1436.674 C997.484,1455.544 1007.352,1491.298 1006.995,1518.731 C1006.559,1552.094 991.267,1574.466 960.247,1587.124 C933.57,1598.01 894.269,1602.654 828.834,1602.654 z M880.719,1400.921 C846.96,1400.921 828.067,1402.759 822.146,1404.333 C808.998,1407.829 771.348,1429.672 733.45,1458.863 C682.442,1498.151 670.948,1519.694 670.942,1524.142 C671.03,1534.313 686.295,1546.239 710.78,1555.267 C741.187,1566.479 783.113,1572.654 828.834,1572.654 C953.483,1572.654 976.527,1554.363 976.997,1518.339 C977.208,1502.188 972.495,1477.02 964.067,1449.29 C957.138,1426.489 950.261,1410.376 946.938,1404.211 C938.135,1402.676 913.519,1400.921 880.719,1400.921" fill="#3B3C3A"/>
      <path d="M895.177,1438.033 C895.149,1438.033 895.126,1438.033 895.098,1438.033 C862.197,1438.014 821.522,1424.248 809.965,1394.068 C807.002,1386.332 810.872,1377.659 818.608,1374.696 C826.345,1371.735 835.017,1375.603 837.98,1383.34 C843.277,1397.171 868.374,1408.018 895.116,1408.033 C895.134,1408.033 895.152,1408.033 895.169,1408.033 C913.829,1408.033 935.964,1402.264 942.189,1386.062 C945.161,1378.328 953.839,1374.468 961.572,1377.44 C969.304,1380.413 973.165,1389.091 970.193,1396.823 C960.275,1422.63 932.233,1438.033 895.177,1438.033" fill="#3B3C3A"/>
      <path d="M832.605,1552.903 C829.507,1552.903 826.398,1552.894 823.262,1552.872 C755.384,1552.418 691.668,1547.21 652.82,1538.942 C644.718,1537.218 639.548,1529.251 641.271,1521.147 C642.996,1513.046 650.953,1507.874 659.066,1509.599 C735.538,1525.876 912.303,1528.917 988.294,1509.727 C996.327,1507.697 1004.481,1512.566 1006.511,1520.598 C1008.538,1528.63 1003.671,1536.786 995.639,1538.813 C959.962,1547.823 900.91,1552.903 832.605,1552.903" fill="#3B3C3A"/>
      <path d="M775.301,1387.202 C758.885,1394.818 710.424,1432.286 692.424,1450.157 C674.424,1468.028 699.758,1491.363 712.424,1480.029 C712.924,1502.694 752.424,1507.194 758.424,1483.015 C775.301,1497.044 808.924,1483.194 800.424,1458.695 C818.424,1458.028 817.963,1415.804 797.926,1414.618 C809.758,1402.028 795.072,1378.028 775.301,1387.202" fill="#E46C79"/>
      <path d="M735.909,1509.2 C722.429,1509.2 711.194,1502.751 705.821,1492.979 C705.4,1493.003 704.976,1493.015 704.55,1493.015 C693.619,1493.015 682.823,1485.343 678.296,1474.356 C673.852,1463.574 676.5,1451.875 685.378,1443.062 C704.164,1424.409 753.41,1386.335 771.092,1378.131 C775.339,1376.161 779.684,1375.161 784.009,1375.161 C795.102,1375.161 805.221,1381.984 809.788,1392.544 C812.236,1398.205 812.776,1404.151 811.527,1409.636 C818.973,1415.52 823.596,1426.063 823.457,1438.624 C823.326,1450.511 818.843,1460.085 811.748,1465.032 C812.028,1471.624 810.184,1477.94 806.288,1483.415 C799.614,1492.795 787.595,1498.622 774.922,1498.622 L774.921,1498.622 C770.708,1498.622 766.614,1497.951 762.81,1496.668 C756.871,1504.524 747.227,1509.2 735.909,1509.2 z M712.426,1470.029 C713.77,1470.029 715.124,1470.301 716.404,1470.855 C719.985,1472.409 722.335,1475.905 722.421,1479.809 C722.572,1486.65 730.774,1489.2 735.909,1489.2 C738.413,1489.2 746.739,1488.581 748.718,1480.606 C749.547,1477.266 752.036,1474.586 755.306,1473.514 C758.576,1472.438 762.17,1473.124 764.816,1475.325 C768.095,1478.05 772.121,1478.622 774.921,1478.622 C781.041,1478.622 787.098,1475.889 789.992,1471.819 C791.983,1469.022 792.304,1465.802 790.976,1461.974 C789.936,1458.977 790.38,1455.667 792.17,1453.05 C793.96,1450.433 796.885,1448.819 800.054,1448.702 C801.009,1448.667 803.386,1445.014 803.459,1438.403 C803.528,1432.051 801.031,1424.819 797.335,1424.6 C793.461,1424.372 790.069,1421.921 788.634,1418.315 C787.199,1414.708 787.98,1410.598 790.638,1407.771 C793.077,1405.176 792.006,1401.81 791.431,1400.483 C790.318,1397.911 787.784,1395.161 784.009,1395.161 C782.613,1395.161 781.099,1395.535 779.51,1396.273 C765.136,1402.942 718.01,1438.847 699.47,1457.253 C696.323,1460.378 695.445,1463.479 696.788,1466.735 C698.312,1470.437 702.102,1473.015 704.55,1473.015 C705.149,1473.015 705.446,1472.854 705.756,1472.577 C707.625,1470.905 710.01,1470.029 712.426,1470.029" fill="#3B3C3A"/>
      <path d="M751.006,1402.592 C759.545,1396.688 781.258,1426.08 756.59,1443.413 C731.924,1460.746 707.221,1436.426 717.252,1428.408 C727.283,1420.391 741.246,1409.338 751.006,1402.592" fill="#FFFFFE"/>
      <path d="M738.467,1459.509 C722.006,1459.509 709.476,1449.106 706.046,1439.319 C703.554,1432.209 705.455,1425.035 711.009,1420.597 C721.844,1411.937 735.536,1401.128 745.32,1394.366 C747.727,1392.701 750.575,1391.821 753.554,1391.821 C764.149,1391.821 773.047,1402.428 776.359,1412.905 C781.031,1427.681 775.79,1442.143 762.339,1451.595 C754.971,1456.772 746.717,1459.509 738.467,1459.509 z M725.939,1434.268 C727.846,1436.433 732.238,1439.509 738.467,1439.509 C742.637,1439.509 746.801,1438.069 750.841,1435.231 C756.094,1431.54 758.419,1427.263 757.949,1422.155 C757.561,1417.938 755.446,1414.577 753.818,1412.841 C745.554,1418.757 734.984,1427.06 725.939,1434.268" fill="#3B3C3A"/>
    </g>
  </g>
</svg>
