<?xml version="1.0" encoding="UTF-8"?>
<!DOCTYPE svg PUBLIC "-//W3C//DTD SVG 1.1//EN" "http://www.w3.org/Graphics/SVG/1.1/DTD/svg11.dtd">
<svg version="1.1" xmlns="http://www.w3.org/2000/svg" xmlns:xlink="http://www.w3.org/1999/xlink" x="0" y="0" width="419.434" height="429.727" viewBox="0, 0, 419.434, 429.727">
  <g id="Layer_1" transform="translate(-1161.844, -1836.356)">
    <g id="star">
      <path d="M1571.994,2239.349 C1571.994,2254.114 1480.179,2266.083 1366.919,2266.083 C1253.659,2266.083 1161.844,2254.114 1161.844,2239.349 C1161.844,2224.579 1253.659,2212.608 1366.919,2212.608 C1480.179,2212.608 1571.994,2224.579 1571.994,2239.349" fill="#D6D5D0"/>
      <path d="M1444.705,1954.538 C1428.381,1875.054 1395.59,1851.356 1373.804,1851.356 C1352.019,1851.356 1319.228,1875.054 1302.906,1954.538 C1222.267,1945.501 1189.596,1969.364 1182.863,1990.083 C1176.133,2010.802 1188.537,2049.311 1259.088,2089.397 C1225.574,2163.296 1238.174,2201.742 1255.799,2214.548 C1273.422,2227.353 1313.881,2227.454 1373.806,2172.744 C1433.732,2227.453 1474.189,2227.351 1491.816,2214.546 C1509.439,2201.742 1522.039,2163.295 1488.523,2089.396 C1559.072,2049.311 1571.478,2010.801 1564.746,1990.08 C1558.015,1969.362 1525.344,1945.5 1444.705,1954.538" fill="#F6D729"/>
      <path d="M1280.284,2236.561 C1267.392,2236.561 1255.877,2233.145 1246.981,2226.683 C1235.727,2218.506 1203.304,2185.537 1240.09,2095.57 C1157.449,2044.409 1164.3,1998.679 1168.597,1985.448 C1173.056,1971.727 1184.331,1959.63 1200.346,1951.384 C1222.414,1940.021 1253.01,1935.591 1291.163,1938.384 C1314.281,1843.959 1359.892,1836.356 1373.804,1836.356 C1387.717,1836.356 1433.327,1843.959 1456.448,1938.384 C1494.598,1935.589 1525.193,1940.018 1547.262,1951.383 C1563.28,1959.63 1574.555,1971.727 1579.012,1985.445 C1583.31,1998.675 1590.164,2044.406 1507.521,2095.569 C1544.31,2185.537 1511.887,2218.505 1500.633,2226.681 C1491.737,2233.144 1480.219,2236.56 1467.328,2236.56 C1447.91,2236.56 1416.399,2228.679 1373.806,2192.711 C1331.214,2228.68 1299.702,2236.561 1280.284,2236.561 z M1269.862,1967.57 C1222.688,1967.57 1201.198,1982.194 1197.129,1994.719 C1192.829,2007.956 1202.599,2040.048 1266.498,2076.357 C1273.242,2080.187 1275.952,2088.528 1272.749,2095.593 C1242.394,2162.524 1253.354,2194.23 1264.616,2202.413 C1268.299,2205.089 1273.862,2206.561 1280.284,2206.561 C1293.069,2206.561 1320.906,2200.73 1363.693,2161.667 C1369.422,2156.437 1378.191,2156.437 1383.92,2161.667 C1426.706,2200.728 1454.543,2206.56 1467.328,2206.56 C1475.559,2206.56 1480.393,2204.304 1483,2202.41 C1494.261,2194.23 1505.219,2162.524 1474.862,2095.593 C1471.659,2088.528 1474.369,2080.186 1481.113,2076.354 C1545.012,2040.047 1554.781,2007.954 1550.48,1994.716 C1546.412,1982.192 1524.924,1967.569 1477.753,1967.569 C1468.031,1967.569 1457.474,1968.2 1446.376,1969.444 C1438.668,1970.309 1431.572,1965.153 1430.012,1957.556 C1415.226,1885.563 1387.724,1866.356 1373.804,1866.356 C1359.885,1866.356 1332.384,1885.563 1317.599,1957.556 C1316.04,1965.153 1308.955,1970.309 1301.235,1969.444 C1290.138,1968.201 1279.583,1967.57 1269.862,1967.57" fill="#3B3C3A"/>
      <path d="M1423.519,2006.396 C1423.519,2012.832 1418.304,2018.049 1411.869,2018.049 C1405.435,2018.049 1400.217,2012.832 1400.217,2006.396 C1400.217,1999.961 1405.435,1994.746 1411.869,1994.746 C1418.304,1994.746 1423.519,1999.961 1423.519,2006.396" fill="#3B3C3A"/>
      <path d="M1352.514,2006.396 C1352.514,2012.832 1347.3,2018.049 1340.862,2018.049 C1334.429,2018.049 1329.212,2012.832 1329.212,2006.396 C1329.212,1999.961 1334.429,1994.746 1340.862,1994.746 C1347.3,1994.746 1352.514,1999.961 1352.514,2006.396" fill="#3B3C3A"/>
      <path d="M1375.341,2036.368 L1323.936,2036.368 C1323.936,2036.368 1327.534,2069.8 1375.341,2069.8 C1423.145,2069.8 1426.745,2036.368 1426.745,2036.368 L1375.341,2036.368" fill="#3B3C3A"/>
    </g>
  </g>
</svg>
