<?xml version="1.0" encoding="UTF-8"?>
<!DOCTYPE svg PUBLIC "-//W3C//DTD SVG 1.1//EN" "http://www.w3.org/Graphics/SVG/1.1/DTD/svg11.dtd">
<svg version="1.1" xmlns="http://www.w3.org/2000/svg" xmlns:xlink="http://www.w3.org/1999/xlink" x="0" y="0" width="420.287" height="412.727" viewBox="0, 0, 420.287, 412.727">
  <g id="Layer_1" transform="translate(-584.538, -3697.318)">
    <g id="toy-horse">
      <path d="M1001.369,4083.31 C1001.369,4098.076 909.554,4110.044 796.294,4110.044 C683.034,4110.044 591.22,4098.076 591.22,4083.31 C591.22,4068.541 683.034,4056.57 796.294,4056.57 C909.554,4056.57 1001.369,4068.541 1001.369,4083.31" fill="#D6D5D0"/>
      <path d="M794.786,4071.299 C684.54,4071.299 622.125,4033.701 619.522,4032.102 L635.235,4006.545 C635.801,4006.892 692.935,4041.299 794.786,4041.299 C880.074,4041.299 943.298,4013.683 959.045,4001.086 L977.785,4024.512 C968.091,4032.267 945.983,4044.127 913.012,4054.15 C887.278,4061.973 845.878,4071.299 794.786,4071.299" fill="#3B3C3A"/>
      <path d="M720.521,3959.359 L687.003,4042.597 C700.874,4046.322 716.786,4049.703 734.53,4052.178 L764.737,3977.164 L720.521,3959.359" fill="#F6D729"/>
      <path d="M734.538,4067.178 C733.849,4067.178 733.155,4067.131 732.458,4067.033 C715.488,4064.666 698.885,4061.318 683.113,4057.084 C678.968,4055.971 675.497,4053.135 673.581,4049.295 C671.665,4045.453 671.485,4040.976 673.089,4036.994 L706.607,3953.756 C709.701,3946.072 718.44,3942.346 726.124,3945.445 L770.34,3963.25 C774.03,3964.734 776.979,3967.627 778.538,3971.287 C780.096,3974.947 780.137,3979.076 778.651,3982.767 L748.444,4057.781 C746.135,4063.515 740.584,4067.178 734.538,4067.178 z M707.392,4032.119 C713.196,4033.385 719.093,4034.527 725.059,4035.539 L745.22,3985.474 L728.833,3978.877 L707.392,4032.119" fill="#3B3C3A"/>
      <path d="M878.358,3956.859 L834.142,3974.664 L864.583,4050.258 C881.957,4047.209 897.677,4043.25 911.413,4038.945 L878.358,3956.859" fill="#F6D729"/>
      <path d="M864.575,4065.258 C858.545,4065.258 852.985,4061.611 850.669,4055.861 L820.228,3980.267 C818.742,3976.576 818.783,3972.447 820.342,3968.787 C821.9,3965.127 824.85,3962.234 828.54,3960.75 L872.756,3942.945 C880.438,3939.852 889.178,3943.57 892.272,3951.256 L925.327,4033.342 C926.891,4037.223 926.761,4041.582 924.971,4045.363 C923.18,4049.144 919.892,4052.008 915.898,4053.258 C900.389,4058.119 883.996,4062.08 867.176,4065.031 C866.305,4065.184 865.434,4065.258 864.575,4065.258 z M853.66,3982.975 L873.884,4033.199 C879.771,4031.969 885.58,4030.605 891.285,4029.117 L870.047,3976.377 L853.66,3982.975" fill="#3B3C3A"/>
      <path d="M660.985,3772.851 L653.415,3726.299 C653.415,3726.299 710.596,3700.586 751.596,3718.799 C792.597,3737.014 811.062,3799.299 818.415,3853.4 C784.72,3865.4 661.915,3774.201 661.915,3774.201 L660.985,3772.851" fill="#70B7D3"/>
      <path d="M811.164,3869.558 C795.934,3869.558 770.107,3861.847 719.717,3831.105 C684.625,3809.695 654.248,3787.191 652.972,3786.242 C651.376,3785.059 650.083,3783.617 649.108,3782.018 C647.631,3780.105 646.595,3777.81 646.179,3775.258 L638.609,3728.705 C637.519,3722.002 641.069,3715.402 647.264,3712.617 C649.847,3711.455 711.093,3684.392 757.686,3705.09 C806.69,3726.861 825.842,3796.66 833.278,3851.381 C834.234,3858.41 830.132,3865.15 823.447,3867.531 C820.195,3868.689 816.276,3869.557 811.164,3869.558 z M674.927,3765.129 C684.332,3771.935 708.82,3789.324 735.505,3805.596 C769.807,3826.51 789.69,3834.687 800.77,3837.768 C790.659,3781.734 770.886,3743.781 745.507,3732.506 C722.202,3722.154 689.261,3729.389 670.17,3735.879 L674.927,3765.129" fill="#3B3C3A"/>
      <path d="M721.805,3758.102 C678.767,3764.043 595.915,3782.996 599.665,3847.648 C603.415,3912.299 686.069,3905.043 686.069,3905.043 C688.136,3938.439 699.462,3991.615 792.438,3991.615 C885.415,3991.615 915.682,3949.682 915.682,3916.094 C915.682,3859.93 860.107,3845.094 823.406,3851.094 C792.263,3856.185 777.107,3846.707 770.804,3823.781 C764.804,3801.955 753.506,3753.725 721.805,3758.102" fill="#FFFFFE"/>
      <path d="M792.438,4006.615 C747.088,4006.615 713.863,3994.469 693.689,3970.515 C680.118,3954.4 674.781,3935.812 672.514,3920.152 C660.602,3919.643 642.779,3917.461 626.419,3909.875 C600.758,3897.976 586.328,3876.76 584.69,3848.516 C581.475,3793.098 629.442,3755.709 719.755,3743.242 C721.772,3742.963 723.801,3742.822 725.782,3742.822 C737.961,3742.822 755.344,3748.182 768.998,3773.721 C776.68,3788.088 781.284,3805.101 784.331,3816.359 C784.658,3817.568 784.97,3818.719 785.268,3819.805 C788.891,3832.984 794.732,3837.434 808.415,3837.434 C812.113,3837.434 816.343,3837.049 820.986,3836.289 C826.818,3835.336 832.92,3834.853 839.121,3834.853 C861.817,3834.853 883.155,3841.129 899.204,3852.527 C919.797,3867.152 930.682,3889.133 930.682,3916.094 C930.682,3957.852 894.476,4006.615 792.438,4006.615 z M686.035,3890.045 C689.627,3890.045 693.128,3891.334 695.864,3893.699 C698.914,3896.338 700.792,3900.092 701.041,3904.115 C703.259,3939.967 715.852,3976.615 792.438,3976.615 C872.333,3976.615 900.682,3944.012 900.682,3916.094 C900.682,3867.324 849.401,3864.853 839.121,3864.853 C834.536,3864.853 830.063,3865.203 825.826,3865.896 C819.588,3866.916 813.729,3867.434 808.415,3867.434 C781.099,3867.434 763.579,3854.084 756.341,3827.758 C756.033,3826.635 755.711,3825.445 755.373,3824.197 C751.213,3808.824 741.47,3772.822 725.782,3772.822 C725.169,3772.822 724.521,3772.869 723.857,3772.961 C681.806,3778.766 611.699,3796.074 614.639,3846.779 C615.639,3864.002 623.391,3875.402 639.038,3882.658 C653.353,3889.295 670.052,3890.287 678.731,3890.287 C682.467,3890.287 684.769,3890.1 684.792,3890.098 C685.207,3890.062 685.621,3890.045 686.035,3890.045" fill="#3B3C3A"/>
      <path d="M699.591,3775.018 C683.904,3728.441 737.337,3737.883 759.034,3787.527 L699.591,3775.018" fill="#FFFFFE"/>
      <path d="M759.042,3802.531 C753.261,3802.531 747.753,3799.17 745.29,3793.533 C734.929,3769.828 718.054,3760.545 711.767,3759.742 C711.706,3761.48 711.976,3764.797 713.806,3770.228 C716.45,3778.08 712.229,3786.588 704.379,3789.232 C696.527,3791.873 688.02,3787.656 685.375,3779.805 C676.01,3751.996 686.534,3736.736 699.506,3731.728 C723.404,3722.498 756.952,3745.306 772.778,3781.519 C776.097,3789.111 772.632,3797.953 765.041,3801.271 C763.086,3802.127 761.048,3802.531 759.042,3802.531" fill="#3B3C3A"/>
      <path d="M692.853,3815.5 C692.853,3821.934 687.639,3827.152 681.203,3827.152 C674.769,3827.152 669.551,3821.934 669.551,3815.5 C669.551,3809.062 674.769,3803.85 681.203,3803.85 C687.639,3803.85 692.853,3809.062 692.853,3815.5" fill="#3B3C3A"/>
      <path d="M609.3,3882.562 C608.834,3882.562 608.376,3882.562 607.92,3882.562 L606.735,3882.562 C601.213,3882.562 596.735,3878.084 596.735,3872.562 C596.735,3867.039 601.213,3862.562 606.735,3862.562 L607.929,3862.562 C620.291,3862.588 641.104,3862.578 648.928,3855.908 C653.132,3852.326 659.441,3852.83 663.025,3857.031 C666.608,3861.234 666.105,3867.547 661.902,3871.129 C648.826,3882.275 626.272,3882.562 609.3,3882.562" fill="#3B3C3A"/>
      <path d="M916.563,3887.301 C916.564,3887.3 946.325,3868.775 968.325,3882.787 C990.325,3896.799 989.97,3917.299 985.97,3929.799 C981.97,3942.299 997.825,3953.799 1004.825,3954.299 C1002.325,3968.299 980.497,3976.965 957.167,3967.271 C933.837,3957.578 937.243,3934.16 937.284,3922.869 C937.325,3911.58 929.026,3897.971 920.901,3900.062 C912.776,3902.154 916.563,3887.301 916.563,3887.301" fill="#3B3C3A"/>
      <path d="M826.415,3915.621 C865.479,3919.248 882.304,3894.852 886.065,3861.857 C867.163,3850.545 842.683,3847.943 823.406,3851.094 C808.43,3853.543 797.161,3852.613 788.786,3848.447 C783.415,3872.299 781.415,3911.443 826.415,3915.621" fill="#F6D729"/>
      <path d="M833.888,3930.978 L833.887,3930.978 C831.022,3930.978 828.042,3930.836 825.028,3930.557 C805.665,3928.758 791.119,3921.34 781.792,3908.504 C770.851,3893.447 768.21,3871.541 774.152,3845.152 L778.351,3826.504 L795.467,3835.017 C800.896,3837.715 809.596,3838.152 820.985,3836.289 C826.814,3835.338 832.912,3834.853 839.109,3834.853 C859.13,3834.853 878.541,3839.873 893.768,3848.986 L902.063,3853.951 L900.969,3863.557 C896.085,3906.402 871.632,3930.978 833.888,3930.978 z M801.147,3867.096 C800.542,3877.351 802.198,3885.551 806.061,3890.869 C810.15,3896.496 817.262,3899.707 827.802,3900.685 C829.897,3900.879 831.945,3900.978 833.888,3900.978 C846.466,3900.978 863.155,3897.562 869.445,3870.355 C860.429,3866.775 849.97,3864.853 839.109,3864.853 C834.527,3864.853 830.059,3865.205 825.825,3865.896 C819.6,3866.916 813.75,3867.431 808.44,3867.431 C805.915,3867.431 803.486,3867.32 801.147,3867.096" fill="#3B3C3A"/>
      <path d="M629.354,3789.394 C642.915,3810.799 671.915,3854.488 669.551,3903.529 L629.354,3789.394" fill="#FFFFFE"/>
      <path d="M679.539,3904.01 L659.562,3903.047 C661.69,3858.908 636.137,3818.709 622.409,3797.111 L620.907,3794.746 L637.802,3784.043 L639.288,3786.383 C654.205,3809.852 681.973,3853.533 679.539,3904.01" fill="#3B3C3A"/>
    </g>
  </g>
</svg>
