<?xml version="1.0" encoding="UTF-8"?>
<!DOCTYPE svg PUBLIC "-//W3C//DTD SVG 1.1//EN" "http://www.w3.org/Graphics/SVG/1.1/DTD/svg11.dtd">
<svg version="1.1" xmlns="http://www.w3.org/2000/svg" xmlns:xlink="http://www.w3.org/1999/xlink" x="0" y="0" width="423.63" height="352.197" viewBox="0, 0, 423.63, 352.197">
  <g id="Layer_1" transform="translate(-1170.179, -3757.848)">
    <g id="baby-boy">
      <path d="M1580.329,4083.31 C1580.329,4098.076 1488.513,4110.044 1375.254,4110.044 C1261.994,4110.044 1170.179,4098.076 1170.179,4083.31 C1170.179,4068.541 1261.994,4056.57 1375.254,4056.57 C1488.513,4056.57 1580.329,4068.541 1580.329,4083.31" fill="#D6D5D0"/>
      <path d="M1241.53,3855.76 L1241.53,3949.266 C1241.53,3949.266 1185.472,3949.266 1185.472,3898.6 C1185.472,3849.285 1241.53,3855.76 1241.53,3855.76" fill="#FFFFFE"/>
      <path d="M1241.53,3964.266 C1239.765,3964.266 1223.807,3964.051 1207.324,3956.601 C1183.559,3945.861 1170.472,3925.264 1170.472,3898.6 C1170.472,3862.75 1195.299,3840.478 1235.265,3840.478 C1239.743,3840.478 1242.704,3840.795 1243.252,3840.859 C1250.82,3841.732 1256.53,3848.141 1256.53,3855.76 L1256.53,3949.266 C1256.53,3957.549 1249.814,3964.266 1241.53,3964.266 z M1226.53,3871.07 C1221.912,3871.707 1216.692,3872.992 1212.165,3875.506 C1207.145,3878.295 1200.472,3883.721 1200.472,3898.6 C1200.472,3913.342 1206.358,3922.986 1218.997,3928.949 C1221.521,3930.139 1224.083,3931.064 1226.53,3931.781 L1226.53,3871.07" fill="#3B3C3A"/>
      <path d="M1521.03,3855.76 L1521.03,3949.266 C1521.03,3949.266 1578.809,3949.266 1578.809,3898.6 C1578.809,3849.285 1521.03,3855.76 1521.03,3855.76" fill="#FFFFFE"/>
      <path d="M1521.03,3964.266 C1512.746,3964.266 1506.03,3957.549 1506.03,3949.266 L1506.03,3855.76 C1506.03,3848.121 1511.769,3841.703 1519.359,3840.853 C1519.915,3840.791 1522.922,3840.478 1527.488,3840.478 C1568.396,3840.478 1593.809,3862.75 1593.809,3898.6 C1593.809,3925.34 1580.361,3945.963 1555.943,3956.67 C1539.105,3964.053 1522.83,3964.266 1521.03,3964.266 z M1536.03,3870.93 L1536.03,3931.943 C1538.784,3931.195 1541.696,3930.205 1544.564,3928.896 C1557.694,3922.902 1563.809,3913.275 1563.809,3898.6 C1563.809,3882.291 1554.475,3873.01 1536.03,3870.93" fill="#3B3C3A"/>
      <path d="M1382.79,3772.848 C1296.093,3772.848 1231.936,3818.336 1231.936,3901.588 C1231.936,3984.84 1301.294,4027.754 1382.79,4027.754 C1464.284,4027.754 1533.643,3984.84 1533.643,3901.588 C1533.643,3818.336 1469.487,3772.848 1382.79,3772.848" fill="#FFFFFE"/>
      <path d="M1382.79,4042.754 C1337.919,4042.754 1297.034,4030.336 1267.667,4007.787 C1234.478,3982.305 1216.936,3945.582 1216.936,3901.588 C1216.936,3857.123 1233.697,3820.039 1265.408,3794.344 C1294.873,3770.467 1335.463,3757.848 1382.79,3757.848 C1430.117,3757.848 1470.707,3770.467 1500.172,3794.344 C1531.883,3820.039 1548.643,3857.123 1548.643,3901.588 C1548.643,3945.582 1531.1,3982.305 1497.912,4007.787 C1468.545,4030.336 1427.66,4042.754 1382.79,4042.754 z M1382.79,3787.848 C1317.114,3787.848 1246.936,3817.727 1246.936,3901.588 C1246.936,3983.639 1320.12,4012.754 1382.79,4012.754 C1445.46,4012.754 1518.643,3983.639 1518.643,3901.588 C1518.643,3817.727 1448.466,3787.848 1382.79,3787.848" fill="#3B3C3A"/>
      <path d="M1366.464,3780.383 L1344.337,3804.328 L1366.464,3780.383" fill="#FFFFFE"/>
      <path d="M1344.334,3814.328 C1341.907,3814.328 1339.474,3813.449 1337.55,3811.672 C1333.494,3807.924 1333.244,3801.597 1336.992,3797.541 L1359.119,3773.596 C1362.866,3769.541 1369.192,3769.289 1373.251,3773.037 C1377.306,3776.785 1377.556,3783.113 1373.808,3787.17 L1351.681,3811.115 C1349.711,3813.248 1347.026,3814.328 1344.334,3814.328" fill="#3B3C3A"/>
      <path d="M1398.964,3780.383 L1376.837,3804.328 L1398.964,3780.383" fill="#FFFFFE"/>
      <path d="M1376.834,3814.328 C1374.407,3814.328 1371.973,3813.449 1370.05,3811.672 C1365.994,3807.924 1365.744,3801.597 1369.492,3797.541 L1391.619,3773.596 C1395.366,3769.541 1401.692,3769.289 1405.751,3773.037 C1409.806,3776.785 1410.056,3783.113 1406.308,3787.17 L1384.181,3811.115 C1382.211,3813.248 1379.526,3814.328 1376.834,3814.328" fill="#3B3C3A"/>
      <path d="M1431.464,3780.383 L1409.337,3804.328 L1431.464,3780.383" fill="#FFFFFE"/>
      <path d="M1409.334,3814.328 C1406.907,3814.328 1404.473,3813.449 1402.55,3811.672 C1398.494,3807.924 1398.244,3801.597 1401.992,3797.541 L1424.119,3773.596 C1427.866,3769.541 1434.192,3769.289 1438.251,3773.037 C1442.306,3776.785 1442.556,3783.113 1438.808,3787.17 L1416.681,3811.115 C1414.711,3813.248 1412.026,3814.328 1409.334,3814.328" fill="#3B3C3A"/>
      <path d="M1403.202,3920.484 C1403.202,3927.754 1393.772,3933.646 1382.139,3933.646 C1370.507,3933.646 1361.077,3927.754 1361.077,3920.484 C1361.077,3913.215 1370.507,3907.322 1382.139,3907.322 C1393.772,3907.322 1403.202,3913.215 1403.202,3920.484" fill="#3B3C3A"/>
      <path d="M1321.639,3856.16 C1327.134,3861.594 1340.134,3861.594 1345.639,3856.16 L1321.639,3856.16" fill="#FFFFFE"/>
      <path d="M1333.636,3870.258 C1326.475,3870.258 1319.318,3867.928 1314.607,3863.269 C1310.681,3859.387 1310.645,3853.055 1314.529,3849.127 C1318.415,3845.201 1324.746,3845.168 1328.671,3849.049 C1330.346,3850.639 1336.945,3850.635 1338.616,3849.041 C1342.546,3845.164 1348.877,3845.203 1352.758,3849.135 C1356.637,3853.066 1356.595,3859.398 1352.664,3863.277 C1347.949,3867.93 1340.791,3870.258 1333.636,3870.258" fill="#3B3C3A"/>
      <path d="M1418.64,3856.16 C1424.134,3861.594 1437.134,3861.594 1442.64,3856.16 L1418.64,3856.16" fill="#FFFFFE"/>
      <path d="M1430.636,3870.258 C1423.475,3870.258 1416.318,3867.928 1411.607,3863.269 C1407.68,3859.387 1407.645,3853.055 1411.529,3849.127 C1415.415,3845.201 1421.745,3845.168 1425.671,3849.049 C1427.345,3850.639 1433.944,3850.635 1435.616,3849.041 C1439.546,3845.164 1445.877,3845.203 1449.758,3849.135 C1453.637,3853.066 1453.595,3859.398 1449.664,3863.277 C1444.949,3867.93 1437.791,3870.258 1430.636,3870.258" fill="#3B3C3A"/>
    </g>
  </g>
</svg>
