<?xml version="1.0" encoding="UTF-8"?>
<!DOCTYPE svg PUBLIC "-//W3C//DTD SVG 1.1//EN" "http://www.w3.org/Graphics/SVG/1.1/DTD/svg11.dtd">
<svg version="1.1" xmlns="http://www.w3.org/2000/svg" xmlns:xlink="http://www.w3.org/1999/xlink" x="0" y="0" width="431.238" height="368.636" viewBox="0, 0, 431.238, 368.636">
  <g id="Layer_1" transform="translate(-1740.804, -52.753)">
    <g id="baby-cries">
      <path d="M2150.954,394.653 C2150.954,409.419 2059.138,421.389 1945.879,421.389 C1832.619,421.389 1740.804,409.419 1740.804,394.653 C1740.804,379.884 1832.619,367.913 1945.879,367.913 C2059.138,367.913 2150.954,379.884 2150.954,394.653" fill="#D6D5D0"/>
      <path d="M1819.762,196.646 L1819.762,290.151 C1819.762,290.151 1763.705,290.151 1763.705,239.485 C1763.705,190.171 1819.762,196.646 1819.762,196.646" fill="#FFFFFE"/>
      <path d="M1819.762,305.151 C1817.997,305.151 1802.04,304.937 1785.556,297.487 C1761.793,286.748 1748.705,266.149 1748.705,239.485 C1748.705,203.636 1773.532,181.365 1813.497,181.365 C1817.975,181.365 1820.936,181.681 1821.484,181.745 C1829.053,182.619 1834.762,189.027 1834.762,196.646 L1834.762,290.151 C1834.762,298.436 1828.047,305.151 1819.762,305.151 z M1804.762,211.956 C1800.145,212.594 1794.925,213.879 1790.398,216.393 C1785.379,219.18 1778.705,224.607 1778.705,239.485 C1778.705,254.484 1784.807,264.228 1797.911,270.149 C1800.209,271.187 1802.531,272.01 1804.762,272.663 L1804.762,211.956" fill="#3B3C3A"/>
      <path d="M2099.263,196.646 L2099.263,290.151 C2099.263,290.151 2157.042,290.151 2157.042,239.485 C2157.042,190.171 2099.263,196.646 2099.263,196.646" fill="#FFFFFE"/>
      <path d="M2099.263,305.151 C2090.979,305.151 2084.263,298.436 2084.263,290.151 L2084.263,196.646 C2084.263,189.008 2090.003,182.59 2097.593,181.739 C2098.148,181.677 2101.155,181.365 2105.721,181.365 C2146.63,181.365 2172.042,203.636 2172.042,239.485 C2172.042,266.227 2158.595,286.85 2134.176,297.556 C2117.338,304.938 2101.063,305.151 2099.263,305.151 z M2114.263,211.815 L2114.263,272.83 C2117.017,272.081 2119.929,271.091 2122.798,269.782 C2135.927,263.788 2142.042,254.161 2142.042,239.485 C2142.042,223.177 2132.707,213.895 2114.263,211.815" fill="#3B3C3A"/>
      <path d="M1961.022,113.733 C1874.325,113.733 1810.169,159.222 1810.169,242.474 C1810.169,325.725 1879.527,368.64 1961.022,368.64 C2042.517,368.64 2111.876,325.725 2111.876,242.474 C2111.876,159.222 2047.72,113.733 1961.022,113.733" fill="#FFFFFE"/>
      <path d="M1961.022,383.64 C1916.151,383.64 1875.267,371.222 1845.9,348.673 C1812.712,323.191 1795.169,286.467 1795.169,242.474 C1795.169,198.01 1811.929,160.926 1843.64,135.23 C1873.105,111.354 1913.695,98.733 1961.022,98.733 C2008.349,98.733 2048.939,111.354 2078.404,135.23 C2110.115,160.926 2126.876,198.01 2126.876,242.474 C2126.876,286.467 2109.334,323.191 2076.144,348.673 C2046.777,371.222 2005.893,383.64 1961.022,383.64 z M1961.022,128.733 C1895.346,128.733 1825.169,158.613 1825.169,242.474 C1825.169,324.525 1898.352,353.64 1961.022,353.64 C2023.692,353.64 2096.876,324.525 2096.876,242.474 C2096.876,158.613 2026.698,128.733 1961.022,128.733" fill="#3B3C3A"/>
      <path d="M1988.924,89.793 C1980.284,76.713 1961.687,58.273 1952.845,63.74 C1944.002,69.207 1942.3,82.641 1943.971,91.233 C1945.643,99.825 1944.959,106.586 1939.826,111.379 C1934.696,116.175 1927.226,131.381 1932.844,139.769 C1938.459,148.157 1970.738,140.993 1978.614,132.42 C1986.49,123.847 1994.772,98.649 1988.924,89.793" fill="#E46C79"/>
      <path d="M1944.477,153.508 C1944.477,153.508 1944.477,153.508 1944.476,153.508 C1934.875,153.508 1928.165,150.757 1924.533,145.331 C1915.39,131.678 1925.031,111.521 1932.997,104.074 C1933.831,103.294 1935.777,101.477 1934.156,93.144 C1931.679,80.415 1934.826,63.123 1947.586,55.234 C1950.249,53.588 1953.261,52.753 1956.537,52.753 C1976.216,52.753 1997.059,83.966 1997.267,84.282 C2006.726,98.605 1995.447,128.877 1985.978,139.185 C1978.107,147.753 1958.166,153.508 1944.477,153.508 z M1940.82,133.214 C1941.54,133.358 1942.712,133.508 1944.477,133.508 C1954.893,133.509 1968.532,128.614 1971.25,125.655 C1977.354,119.01 1982.603,99.828 1980.525,95.222 C1972.784,83.537 1961.688,74.195 1957.246,72.899 C1953.879,75.987 1952.692,83.694 1953.788,89.324 C1954.712,94.074 1957.525,108.532 1946.651,118.687 C1943.473,121.659 1940.345,129.84 1940.82,133.214" fill="#3B3C3A"/>
      <path d="M2030.428,100.52 C2044.324,93.263 2069.527,86.142 2074.612,95.208 C2079.7,104.275 2074.679,116.852 2069.056,123.559 C2063.429,130.265 2060.755,136.511 2062.922,143.19 C2065.086,149.871 2064.251,166.792 2055.274,171.408 C2046.299,176.025 2021.531,154.119 2018.794,142.804 C2016.057,131.487 2021.022,105.434 2030.428,100.52" fill="#E46C79"/>
      <path d="M2052.387,182.038 C2036.774,182.038 2012.516,159.384 2009.074,145.155 C2005.785,131.55 2010.585,99.605 2025.797,91.656 C2036.01,86.323 2051.74,80.943 2063.863,80.943 C2075.611,80.943 2080.935,86.04 2083.334,90.316 C2090.673,103.395 2085.05,120.047 2076.72,129.983 C2071.261,136.489 2072.084,139.022 2072.433,140.104 C2075.796,150.482 2074.463,172.785 2059.847,180.301 C2057.607,181.454 2055.097,182.038 2052.387,182.038 z M2035.145,109.337 C2031.095,112.361 2026.393,131.685 2028.513,140.454 C2028.886,141.992 2031.915,147.208 2038.9,153.505 C2044.642,158.682 2049.302,161.115 2051.466,161.818 C2053.52,159.103 2054.752,150.418 2053.408,146.272 C2048.817,132.121 2058.285,120.838 2061.396,117.131 C2065.066,112.753 2067.756,105.471 2066.34,101.133 C2065.835,101.038 2065.037,100.943 2063.863,100.943 C2055.682,100.943 2042.988,105.259 2035.145,109.337" fill="#3B3C3A"/>
      <path d="M2009.91,90.729 C2007.145,82.262 1992.383,76.407 1987.06,86.048 C1981.739,95.689 1971.777,127.39 1974.048,137.77 C1976.32,148.149 1991.506,149.624 1995.74,144.19 C1998.603,152.275 2012.237,157.021 2017.2,150.145 C2022.161,143.266 2032.744,106.422 2032.265,97.321 C2031.787,88.222 2016.198,84.193 2009.91,90.729" fill="#E46C79"/>
      <path d="M2009.997,163.454 C2009.996,163.454 2009.996,163.454 2009.996,163.454 C2003.676,163.454 1997.395,160.869 1992.746,156.77 C1991.132,157.108 1989.429,157.284 1987.666,157.284 C1976.136,157.284 1966.518,150.139 1964.279,139.908 C1961.143,125.573 1972.757,91.27 1978.305,81.216 C1981.869,74.76 1988.201,71.058 1995.678,71.058 C2002.137,71.058 2008.502,73.779 2013.15,78.088 C2014.877,77.707 2016.692,77.51 2018.568,77.51 C2029.712,77.51 2041.617,84.724 2042.252,96.796 C2042.841,107.994 2031.599,147.274 2025.31,155.994 C2021.888,160.736 2016.307,163.454 2009.997,163.454 z M1995.739,134.19 C1996.27,134.19 1996.806,134.233 1997.342,134.319 C2000.947,134.904 2003.947,137.409 2005.168,140.852 C2005.513,141.742 2007.74,143.238 2009.605,143.433 C2013.552,136.128 2022.027,106.218 2022.282,98.548 C2021.654,98.117 2020.27,97.51 2018.568,97.51 C2017.724,97.51 2017.201,97.675 2017.022,97.759 C2014.59,100.22 2011.056,101.252 2007.677,100.477 C2004.254,99.693 2001.494,97.171 2000.404,93.833 C2000.038,92.824 1997.595,91.083 1995.718,91.058 C1990.478,100.723 1982.411,129.207 1983.816,135.633 C1984.023,136.577 1986.019,137.284 1987.666,137.284 C1988.058,137.284 1988.369,137.246 1988.584,137.205 C1990.469,135.273 1993.054,134.19 1995.739,134.19" fill="#3B3C3A"/>
      <path d="M2040.871,267.2 C2047.045,243.389 2017.109,233.73 2000.474,237.657 C1982.682,241.857 1980.736,243.259 1961.022,243.259 C1941.308,243.259 1939.362,241.857 1921.57,237.657 C1904.935,233.73 1879.614,239.055 1881.252,263.6 C1883.538,297.865 1930.03,278.532 1961.022,278.532 C1992.014,278.532 2031.537,303.2 2040.871,267.2" fill="#3B3C3A"/>
      <path d="M1901.043,223.047 C1898.012,223.047 1895.019,221.676 1893.054,219.071 C1889.726,214.663 1890.602,208.392 1895.011,205.065 L1903.182,198.897 L1893.429,191.535 C1889.021,188.208 1888.145,181.938 1891.472,177.529 C1894.8,173.123 1901.07,172.245 1905.478,175.572 L1925.806,190.916 C1928.31,192.806 1929.782,195.761 1929.782,198.897 C1929.782,202.035 1928.31,204.99 1925.806,206.879 L1907.059,221.029 C1905.256,222.39 1903.14,223.047 1901.043,223.047" fill="#3B3C3A"/>
      <path d="M2019.298,223.047 C2017.2,223.048 2015.085,222.39 2013.281,221.029 L1994.534,206.879 C1992.03,204.99 1990.558,202.035 1990.558,198.897 C1990.558,195.761 1992.03,192.806 1994.534,190.916 L2014.862,175.572 C2019.271,172.244 2025.542,173.121 2028.868,177.529 C2032.195,181.938 2031.319,188.208 2026.911,191.535 L2017.158,198.897 L2025.33,205.065 C2029.738,208.392 2030.614,214.663 2027.287,219.071 C2025.321,221.676 2022.328,223.047 2019.298,223.047" fill="#3B3C3A"/>
      <path d="M1871.537,71.532 C1871.537,78.159 1866.164,83.532 1859.537,83.532 C1852.91,83.532 1847.537,78.159 1847.537,71.532 C1847.537,64.905 1852.91,59.532 1859.537,59.532 C1866.164,59.532 1871.537,64.905 1871.537,71.532" fill="#3B3C3A"/>
      <path d="M1817.537,129.532 C1817.537,136.159 1812.164,141.532 1805.537,141.532 C1798.91,141.532 1793.537,136.159 1793.537,129.532 C1793.537,122.905 1798.91,117.532 1805.537,117.532 C1812.164,117.532 1817.537,122.905 1817.537,129.532" fill="#3B3C3A"/>
      <path d="M1793.537,68.532 C1793.537,75.159 1788.164,80.532 1781.537,80.532 C1774.91,80.532 1769.537,75.159 1769.537,68.532 C1769.537,61.905 1774.91,56.532 1781.537,56.532 C1788.164,56.532 1793.537,61.905 1793.537,68.532" fill="#3B3C3A"/>
      <path d="M2149.537,76.532 C2149.537,83.159 2144.164,88.532 2137.537,88.532 C2130.91,88.532 2125.537,83.159 2125.537,76.532 C2125.537,69.905 2130.91,64.532 2137.537,64.532 C2144.164,64.532 2149.537,69.905 2149.537,76.532" fill="#3B3C3A"/>
      <path d="M2123.537,126.532 C2123.537,133.159 2118.164,138.532 2111.537,138.532 C2104.91,138.532 2099.537,133.159 2099.537,126.532 C2099.537,119.905 2104.91,114.532 2111.537,114.532 C2118.164,114.532 2123.537,119.905 2123.537,126.532" fill="#3B3C3A"/>
      <path d="M2099.537,65.532 C2099.537,72.159 2094.164,77.532 2087.537,77.532 C2080.91,77.532 2075.537,72.159 2075.537,65.532 C2075.537,58.905 2080.91,53.532 2087.537,53.532 C2094.164,53.532 2099.537,58.905 2099.537,65.532" fill="#3B3C3A"/>
    </g>
  </g>
</svg>
