<?xml version="1.0" encoding="UTF-8"?>
<!DOCTYPE svg PUBLIC "-//W3C//DTD SVG 1.1//EN" "http://www.w3.org/Graphics/SVG/1.1/DTD/svg11.dtd">
<svg version="1.1" xmlns="http://www.w3.org/2000/svg" xmlns:xlink="http://www.w3.org/1999/xlink" x="0" y="0" width="423.337" height="345.322" viewBox="0, 0, 423.337, 345.322">
  <g id="Layer_1" transform="translate(-1740.22, -2534.926)">
    <g id="baby-smile">
      <path d="M2159.289,2853.513 C2159.289,2868.278 2067.473,2880.248 1954.214,2880.248 C1840.954,2880.248 1749.138,2868.278 1749.138,2853.513 C1749.138,2838.743 1840.954,2826.772 1954.214,2826.772 C2067.473,2826.772 2159.289,2838.743 2159.289,2853.513" fill="#D6D5D0"/>
      <path d="M1811.278,2632.838 L1811.278,2726.344 C1811.278,2726.344 1755.22,2726.344 1755.22,2675.678 C1755.22,2626.363 1811.278,2632.838 1811.278,2632.838" fill="#FFFFFE"/>
      <path d="M1811.278,2741.344 C1809.512,2741.344 1793.555,2741.129 1777.072,2733.68 C1753.307,2722.94 1740.22,2702.341 1740.22,2675.678 C1740.22,2639.828 1765.047,2617.558 1805.012,2617.558 C1809.491,2617.558 1812.452,2617.873 1813,2617.937 C1820.568,2618.811 1826.278,2625.22 1826.278,2632.838 L1826.278,2726.344 C1826.278,2734.628 1819.562,2741.344 1811.278,2741.344 z M1796.278,2648.148 C1791.66,2648.786 1786.44,2650.071 1781.913,2652.585 C1776.893,2655.373 1770.22,2660.8 1770.22,2675.678 C1770.22,2690.421 1776.106,2700.064 1788.745,2706.027 C1791.269,2707.218 1793.831,2708.143 1796.278,2708.86 L1796.278,2648.148" fill="#3B3C3A"/>
      <path d="M2090.778,2632.838 L2090.778,2726.344 C2090.778,2726.344 2148.557,2726.344 2148.557,2675.678 C2148.557,2626.363 2090.778,2632.838 2090.778,2632.838" fill="#FFFFFE"/>
      <path d="M2090.778,2741.344 C2082.494,2741.344 2075.778,2734.628 2075.778,2726.344 L2075.778,2632.838 C2075.778,2625.2 2081.517,2618.782 2089.107,2617.931 C2089.663,2617.869 2092.67,2617.558 2097.236,2617.558 C2138.144,2617.558 2163.557,2639.828 2163.557,2675.678 C2163.557,2702.419 2150.109,2723.042 2125.691,2733.748 C2108.853,2741.13 2092.578,2741.344 2090.778,2741.344 z M2105.778,2648.008 L2105.778,2709.022 C2108.532,2708.273 2111.444,2707.284 2114.312,2705.974 C2127.442,2699.98 2133.557,2690.353 2133.557,2675.678 C2133.557,2659.369 2124.222,2650.087 2105.778,2648.008" fill="#3B3C3A"/>
      <path d="M1952.538,2549.926 C1865.841,2549.926 1801.684,2595.414 1801.684,2678.665 C1801.684,2761.917 1871.042,2804.832 1952.538,2804.832 C2034.032,2804.832 2103.391,2761.917 2103.391,2678.665 C2103.391,2595.414 2039.235,2549.926 1952.538,2549.926" fill="#FFFFFE"/>
      <path d="M1952.538,2819.832 C1907.667,2819.832 1866.782,2807.414 1837.415,2784.866 C1804.226,2759.383 1786.684,2722.66 1786.684,2678.665 C1786.684,2634.203 1803.445,2597.118 1835.156,2571.422 C1864.621,2547.546 1905.211,2534.926 1952.538,2534.926 C1999.865,2534.926 2040.455,2547.546 2069.92,2571.422 C2101.631,2597.118 2118.391,2634.203 2118.391,2678.665 C2118.391,2722.66 2100.848,2759.383 2067.66,2784.866 C2038.294,2807.414 1997.408,2819.832 1952.538,2819.832 z M1952.538,2564.926 C1886.862,2564.926 1816.684,2594.806 1816.684,2678.665 C1816.684,2760.718 1889.868,2789.832 1952.538,2789.832 C2015.208,2789.832 2088.391,2760.718 2088.391,2678.665 C2088.391,2594.806 2018.214,2564.926 1952.538,2564.926" fill="#3B3C3A"/>
      <path d="M2012.368,2637.56 C2012.368,2643.994 2007.153,2649.212 2000.718,2649.212 C1994.284,2649.212 1989.065,2643.994 1989.065,2637.56 C1989.065,2631.123 1994.284,2625.909 2000.718,2625.909 C2007.153,2625.909 2012.368,2631.123 2012.368,2637.56" fill="#3B3C3A"/>
      <path d="M1914.712,2637.56 C1914.712,2643.994 1909.497,2649.212 1903.059,2649.212 C1896.626,2649.212 1891.409,2643.994 1891.409,2637.56 C1891.409,2631.123 1896.626,2625.909 1903.059,2625.909 C1909.497,2625.909 1914.712,2631.123 1914.712,2637.56" fill="#3B3C3A"/>
      <path d="M2017.186,2685.147 C2017.186,2702.543 1987.952,2730.725 1951.891,2730.725 C1915.826,2730.725 1886.593,2702.543 1886.593,2685.147 C1886.593,2667.753 1915.826,2667.733 1951.891,2667.733 C1987.952,2667.733 2017.186,2667.753 2017.186,2685.147" fill="#3B3C3A"/>
      <path d="M1914.082,2591.406 C1911.655,2591.406 1909.221,2590.528 1907.298,2588.75 C1903.242,2585.002 1902.992,2578.675 1906.74,2574.619 L1928.868,2550.674 C1932.617,2546.619 1938.941,2546.367 1943,2550.117 C1947.055,2553.865 1947.305,2560.192 1943.557,2564.248 L1921.429,2588.193 C1919.458,2590.326 1916.774,2591.406 1914.082,2591.406" fill="#3B3C3A"/>
      <path d="M1946.582,2591.406 C1944.155,2591.406 1941.721,2590.528 1939.798,2588.75 C1935.742,2585.002 1935.492,2578.675 1939.24,2574.619 L1961.368,2550.674 C1965.117,2546.619 1971.441,2546.367 1975.5,2550.117 C1979.555,2553.865 1979.805,2560.192 1976.057,2564.248 L1953.929,2588.193 C1951.958,2590.326 1949.274,2591.406 1946.582,2591.406" fill="#3B3C3A"/>
      <path d="M1979.082,2591.406 C1976.655,2591.406 1974.221,2590.528 1972.298,2588.75 C1968.242,2585.002 1967.992,2578.675 1971.74,2574.619 L1993.868,2550.674 C1997.617,2546.619 2003.942,2546.367 2008,2550.117 C2012.055,2553.865 2012.305,2560.192 2008.557,2564.248 L1986.429,2588.193 C1984.458,2590.326 1981.774,2591.406 1979.082,2591.406" fill="#3B3C3A"/>
    </g>
  </g>
</svg>
