<?xml version="1.0" encoding="UTF-8"?>
<!DOCTYPE svg PUBLIC "-//W3C//DTD SVG 1.1//EN" "http://www.w3.org/Graphics/SVG/1.1/DTD/svg11.dtd">
<svg version="1.1" xmlns="http://www.w3.org/2000/svg" xmlns:xlink="http://www.w3.org/1999/xlink" x="0" y="0" width="410.15" height="447.183" viewBox="0, 0, 410.15, 447.183">
  <g id="Layer_1" transform="translate(-1740.804, -589.104)">
    <g id="baby">
      <path d="M2150.954,1009.552 C2150.954,1024.317 2059.138,1036.287 1945.879,1036.287 C1832.619,1036.287 1740.804,1024.317 1740.804,1009.552 C1740.804,994.782 1832.619,982.811 1945.879,982.811 C2059.138,982.811 2150.954,994.782 2150.954,1009.552" fill="#D6D5D0"/>
      <path d="M2101.373,682.103 C2084.373,632.104 2024.373,607.104 1960.373,607.104 C1896.373,607.104 1836.373,632.104 1819.373,682.103 C1802.373,732.104 1799.373,834.103 1810.373,914.104 C1821.373,994.104 1904.373,997.104 1960.373,997.104 C2016.373,997.104 2099.373,994.104 2110.373,914.104 C2121.373,834.103 2118.373,732.104 2101.373,682.103" fill="#C2D54A"/>
      <path d="M1960.373,1012.104 C1929.7,1012.104 1894.373,1011.143 1863.304,999.676 C1823.944,985.148 1801.137,957.045 1795.512,916.147 C1783.765,830.713 1787.918,728.021 1805.172,677.275 C1814.489,649.871 1835.373,627.445 1865.566,612.424 C1892.287,599.13 1925.07,592.104 1960.373,592.104 C1995.676,592.104 2028.459,599.13 2055.179,612.424 C2085.373,627.445 2106.257,649.871 2115.574,677.275 C2132.828,728.021 2136.98,830.713 2125.233,916.147 C2119.609,957.045 2096.802,985.148 2057.442,999.676 C2026.373,1011.143 1991.046,1012.104 1960.373,1012.104 z M1960.373,622.104 C1896.735,622.104 1846.965,647.55 1833.574,686.932 C1817.885,733.08 1814.221,831.968 1825.233,912.06 C1834.12,976.691 1899.649,982.104 1960.373,982.104 C2021.096,982.104 2086.626,976.691 2095.512,912.06 C2106.525,831.968 2102.861,733.08 2087.172,686.932 C2073.781,647.55 2024.011,622.104 1960.373,622.104" fill="#3B3C3A"/>
      <path d="M1960.875,604.104 C1893.826,604.104 1844.209,639.283 1844.209,703.668 C1844.209,768.053 1897.847,801.242 1960.875,801.242 C2023.902,801.242 2077.543,768.053 2077.543,703.668 C2077.543,639.283 2027.926,604.104 1960.875,604.104" fill="#FFFFFE"/>
      <path d="M1960.875,816.242 C1925.428,816.242 1893.074,806.389 1869.771,788.497 C1843.235,768.122 1829.209,738.789 1829.209,703.668 C1829.209,668.221 1842.607,638.627 1867.955,618.087 C1891.354,599.126 1923.486,589.104 1960.875,589.104 C1998.264,589.104 2030.396,599.126 2053.797,618.087 C2079.144,638.627 2092.543,668.221 2092.543,703.668 C2092.543,738.788 2078.516,768.122 2051.979,788.497 C2028.677,806.389 1996.322,816.242 1960.875,816.242 z M1960.875,619.104 C1911.726,619.104 1859.209,641.319 1859.209,703.668 C1859.209,764.616 1913.975,786.242 1960.875,786.242 C2007.775,786.242 2062.543,764.616 2062.543,703.668 C2062.543,641.319 2010.024,619.104 1960.875,619.104" fill="#3B3C3A"/>
      <path d="M1911.203,686.61 C1916.697,692.045 1929.697,692.045 1935.203,686.61 L1911.203,686.61" fill="#FFFFFE"/>
      <path d="M1923.199,700.709 C1916.039,700.709 1908.881,698.379 1904.171,693.72 C1900.244,689.836 1900.21,683.504 1904.094,679.578 C1907.976,675.651 1914.308,675.618 1918.234,679.5 C1919.911,681.091 1926.509,681.086 1928.179,679.492 C1932.109,675.613 1938.441,675.654 1942.32,679.585 C1946.2,683.516 1946.158,689.848 1942.227,693.727 C1937.512,698.381 1930.355,700.709 1923.199,700.709" fill="#3B3C3A"/>
      <path d="M1988.203,686.61 C1993.697,692.045 2006.697,692.045 2012.203,686.61 L1988.203,686.61" fill="#FFFFFE"/>
      <path d="M2000.199,700.709 C1993.039,700.709 1985.881,698.379 1981.171,693.72 C1977.244,689.836 1977.21,683.504 1981.094,679.578 C1984.977,675.651 1991.309,675.618 1995.234,679.5 C1996.912,681.091 2003.51,681.086 2005.179,679.492 C2009.109,675.613 2015.441,675.654 2019.32,679.585 C2023.2,683.516 2023.158,689.848 2019.227,693.727 C2014.512,698.381 2007.355,700.709 2000.199,700.709" fill="#3B3C3A"/>
      <path d="M1942.369,722.295 C1948.947,731.045 1972.697,732.295 1979.037,722.295 L1942.369,722.295" fill="#FFFFFE"/>
      <path d="M1961.675,739.331 C1952.545,739.331 1940.533,736.494 1934.376,728.304 C1931.072,723.909 1931.973,717.72 1936.347,714.388 C1940.721,711.057 1947.003,711.931 1950.361,716.285 C1951.295,717.496 1956.372,719.597 1962.724,719.307 C1967.728,719.077 1970.242,717.492 1970.592,716.94 C1973.547,712.276 1979.725,710.891 1984.391,713.849 C1989.055,716.806 1990.44,722.985 1987.482,727.649 C1983.065,734.618 1974.274,738.863 1963.365,739.298 C1962.814,739.32 1962.25,739.331 1961.675,739.331" fill="#3B3C3A"/>
      <path d="M1884.515,780.6 C1909.06,801.368 2062.051,858.103 2110.373,914.104 L1884.515,780.6" fill="#FFFFFE"/>
      <path d="M2110.38,929.104 C2106.169,929.104 2101.983,927.341 2099.016,923.903 C2069.313,889.48 1994.133,853.207 1939.237,826.721 C1904.41,809.917 1884.247,800.021 1874.826,792.05 C1868.502,786.699 1867.714,777.235 1873.064,770.911 C1878.415,764.587 1887.879,763.797 1894.205,769.149 C1901.175,775.046 1925.996,787.022 1952.274,799.701 C2009.536,827.329 2087.959,865.167 2121.729,904.304 C2127.141,910.576 2126.444,920.048 2120.173,925.46 C2117.339,927.905 2113.85,929.104 2110.38,929.104" fill="#3B3C3A"/>
      <path d="M1926.012,640.72 C1923.688,640.72 1921.355,639.915 1919.463,638.273 C1915.291,634.654 1914.843,628.338 1918.462,624.167 L1930.368,610.443 C1933.989,606.271 1940.304,605.825 1944.474,609.442 C1948.646,613.062 1949.095,619.377 1945.475,623.549 L1933.569,637.273 C1931.592,639.552 1928.808,640.72 1926.012,640.72" fill="#3B3C3A"/>
      <path d="M1958.512,640.72 C1956.188,640.72 1953.855,639.915 1951.963,638.273 C1947.791,634.654 1947.343,628.338 1950.962,624.167 L1962.868,610.443 C1966.489,606.271 1972.804,605.825 1976.974,609.442 C1981.146,613.062 1981.595,619.377 1977.975,623.549 L1966.069,637.273 C1964.092,639.552 1961.308,640.72 1958.512,640.72" fill="#3B3C3A"/>
      <path d="M1991.012,640.72 C1988.688,640.72 1986.355,639.915 1984.463,638.273 C1980.291,634.654 1979.843,628.338 1983.462,624.167 L1995.368,610.443 C1998.989,606.271 2005.304,605.825 2009.474,609.442 C2013.646,613.062 2014.095,619.377 2010.475,623.549 L1998.569,637.273 C1996.592,639.552 1993.808,640.72 1991.012,640.72" fill="#3B3C3A"/>
    </g>
  </g>
</svg>
