<?xml version="1.0" encoding="UTF-8"?>
<!DOCTYPE svg PUBLIC "-//W3C//DTD SVG 1.1//EN" "http://www.w3.org/Graphics/SVG/1.1/DTD/svg11.dtd">
<svg version="1.1" xmlns="http://www.w3.org/2000/svg" xmlns:xlink="http://www.w3.org/1999/xlink" x="0" y="0" width="410.15" height="448.139" viewBox="0, 0, 410.15, 448.139">
  <g id="Layer_1" transform="translate(-1161.844, -588.148)">
    <g id="baby-bottle">
      <path d="M1571.994,1009.552 C1571.994,1024.317 1480.179,1036.287 1366.919,1036.287 C1253.659,1036.287 1161.844,1024.317 1161.844,1009.552 C1161.844,994.782 1253.659,982.811 1366.919,982.811 C1480.179,982.811 1571.994,994.782 1571.994,1009.552" fill="#D6D5D0"/>
      <path d="M1521.763,968.059 C1521.763,984.627 1508.332,998.059 1491.763,998.059 L1257.633,998.059 C1241.064,998.059 1227.633,984.627 1227.633,968.059 L1227.633,814.537 C1227.633,797.969 1241.064,784.537 1257.633,784.537 L1491.763,784.537 C1508.332,784.537 1521.763,797.969 1521.763,814.537 L1521.763,968.059" fill="#FFFFFE"/>
      <path d="M1491.763,1013.059 L1257.633,1013.059 C1232.819,1013.059 1212.633,992.872 1212.633,968.059 L1212.633,814.537 C1212.633,789.724 1232.819,769.537 1257.633,769.537 L1491.763,769.537 C1516.577,769.537 1536.763,789.724 1536.763,814.537 L1536.763,968.059 C1536.763,992.872 1516.577,1013.059 1491.763,1013.059 z M1257.633,799.537 C1249.361,799.537 1242.633,806.266 1242.633,814.537 L1242.633,968.059 C1242.633,976.33 1249.361,983.059 1257.633,983.059 L1491.763,983.059 C1500.035,983.059 1506.763,976.33 1506.763,968.059 L1506.763,814.537 C1506.763,806.266 1500.035,799.537 1491.763,799.537 L1257.633,799.537" fill="#3B3C3A"/>
      <path d="M1268.859,729.148 L1480.535,729.148 L1480.535,784.537 L1268.859,784.537 z" fill="#70B7D3"/>
      <path d="M1480.535,799.537 L1268.859,799.537 C1260.575,799.537 1253.859,792.821 1253.859,784.537 L1253.859,729.148 C1253.859,720.864 1260.575,714.148 1268.859,714.148 L1480.535,714.148 C1488.819,714.148 1495.535,720.864 1495.535,729.148 L1495.535,784.537 C1495.535,792.821 1488.819,799.537 1480.535,799.537 z M1283.859,769.537 L1465.535,769.537 L1465.535,744.148 L1283.859,744.148 z" fill="#3B3C3A"/>
      <path d="M1424.346,686.388 C1407.508,682.148 1408.662,670.344 1412.56,652.148 C1418.988,622.148 1415.117,603.148 1374.697,603.148 C1334.279,603.148 1330.408,622.148 1336.836,652.148 C1340.734,670.344 1341.888,682.148 1325.049,686.388 C1308.211,690.626 1286.117,714.147 1286.117,729.148 L1463.279,729.148 C1463.279,714.147 1441.185,690.626 1424.346,686.388" fill="#FFFFFE"/>
      <path d="M1463.279,744.148 L1286.117,744.148 C1277.833,744.148 1271.117,737.433 1271.117,729.148 C1271.117,714.37 1281.841,700.515 1288.233,693.572 C1298.428,682.5 1310.512,674.578 1321.387,671.841 C1322.911,671.458 1323.762,671.082 1324.177,670.861 C1324.607,668.756 1323.933,663.526 1322.169,655.291 C1318.762,639.39 1316.358,619.273 1328.11,604.737 C1337.135,593.575 1352.373,588.148 1374.697,588.148 C1397.022,588.148 1412.262,593.575 1421.286,604.737 C1433.038,619.274 1430.635,639.39 1427.227,655.291 C1425.463,663.527 1424.789,668.757 1425.22,670.862 C1425.635,671.083 1426.485,671.458 1428.008,671.842 C1438.883,674.578 1450.968,682.499 1461.162,693.572 C1467.554,700.515 1478.279,714.369 1478.279,729.148 C1478.279,737.433 1471.563,744.148 1463.279,744.148 z M1310.069,714.148 L1439.327,714.148 C1439.249,714.063 1439.171,713.978 1439.093,713.892 C1432.2,706.407 1424.881,701.99 1420.684,700.934 C1403.749,696.67 1397.947,686.042 1396.061,677.876 C1393.975,668.844 1395.738,659.066 1397.893,649.006 C1400.758,635.638 1400.778,627.089 1397.956,623.598 C1396.632,621.959 1391.714,618.148 1374.697,618.148 C1357.682,618.148 1352.764,621.959 1351.44,623.597 C1348.617,627.089 1348.638,635.638 1351.503,649.006 C1353.658,659.066 1355.421,668.844 1353.335,677.876 C1351.449,686.042 1345.646,696.67 1328.711,700.934 C1324.515,701.99 1317.196,706.406 1310.304,713.892 C1310.225,713.977 1310.146,714.063 1310.069,714.148" fill="#3B3C3A"/>
      <path d="M1286.117,831.749 L1225.847,831.749 C1220.325,831.749 1215.847,827.272 1215.847,821.749 C1215.847,816.226 1220.325,811.749 1225.847,811.749 L1286.117,811.749 C1291.639,811.749 1296.117,816.226 1296.117,821.749 C1296.117,827.272 1291.639,831.749 1286.117,831.749" fill="#3B3C3A"/>
      <path d="M1266.117,878.114 L1225.847,878.114 C1220.325,878.114 1215.847,873.637 1215.847,868.114 C1215.847,862.591 1220.325,858.114 1225.847,858.114 L1266.117,858.114 C1271.64,858.114 1276.117,862.591 1276.117,868.114 C1276.117,873.637 1271.64,878.114 1266.117,878.114" fill="#3B3C3A"/>
      <path d="M1286.117,924.48 L1225.847,924.48 C1220.325,924.48 1215.847,920.003 1215.847,914.48 C1215.847,908.957 1220.325,904.48 1225.847,904.48 L1286.117,904.48 C1291.639,904.48 1296.117,908.957 1296.117,914.48 C1296.117,920.003 1291.639,924.48 1286.117,924.48" fill="#3B3C3A"/>
      <path d="M1266.117,970.846 L1225.847,970.846 C1220.325,970.846 1215.847,966.369 1215.847,960.846 C1215.847,955.323 1220.325,950.846 1225.847,950.846 L1266.117,950.846 C1271.64,950.846 1276.117,955.323 1276.117,960.846 C1276.117,966.369 1271.64,970.846 1266.117,970.846" fill="#3B3C3A"/>
      <path d="M1421.552,832.238 C1421.552,838.674 1416.337,843.89 1409.901,843.89 C1403.468,843.89 1398.249,838.674 1398.249,832.238 C1398.249,825.802 1403.468,820.588 1409.901,820.588 C1416.337,820.588 1421.552,825.802 1421.552,832.238" fill="#3B3C3A"/>
      <path d="M1350.547,832.238 C1350.547,838.674 1345.332,843.89 1338.894,843.89 C1332.461,843.89 1327.244,838.674 1327.244,832.238 C1327.244,825.802 1332.461,820.588 1338.894,820.588 C1345.332,820.588 1350.547,825.802 1350.547,832.238" fill="#3B3C3A"/>
      <path d="M1373.373,862.21 L1321.969,862.21 C1321.969,862.21 1325.566,895.641 1373.373,895.641 C1421.178,895.641 1424.777,862.21 1424.777,862.21 L1373.373,862.21" fill="#3B3C3A"/>
    </g>
  </g>
</svg>
