<?xml version="1.0" encoding="UTF-8"?>
<!DOCTYPE svg PUBLIC "-//W3C//DTD SVG 1.1//EN" "http://www.w3.org/Graphics/SVG/1.1/DTD/svg11.dtd">
<svg version="1.1" xmlns="http://www.w3.org/2000/svg" xmlns:xlink="http://www.w3.org/1999/xlink" x="0" y="0" width="422.527" height="419.964" viewBox="0, 0, 422.527, 419.964">
  <g id="Layer_1" transform="translate(-3.774, -1.425)">
    <g id="basket">
      <path d="M414.074,394.653 C414.074,409.419 322.26,421.389 209,421.389 C95.74,421.389 3.924,409.419 3.924,394.653 C3.924,379.884 95.74,367.913 209,367.913 C322.26,367.913 414.074,379.884 414.074,394.653" fill="#D6D5D0"/>
      <path d="M48.15,218.411 C48.15,218.411 48.45,271.43 64.183,319.722 C79.917,368.014 153.654,381.745 217.629,381.745 C281.603,381.745 355.341,368.014 371.074,319.722 C386.807,271.43 387.107,218.411 387.107,218.411 L48.15,218.411" fill="#F6D729"/>
      <path d="M217.629,396.745 C190.916,396.745 151.96,394.373 118.071,383.073 C81.576,370.903 58.647,351.152 49.922,324.368 C33.65,274.427 33.163,220.756 33.15,218.496 C33.128,214.503 34.698,210.666 37.513,207.834 C40.329,205.003 44.157,203.411 48.15,203.411 L387.107,203.411 C391.1,203.411 394.929,205.003 397.744,207.834 C400.559,210.666 402.13,214.503 402.107,218.496 C402.095,220.756 401.607,274.427 385.336,324.368 C376.61,351.152 353.681,370.903 317.186,383.073 C283.298,394.373 244.342,396.745 217.629,396.745 z M63.822,233.411 C65.06,251.969 68.565,284.748 78.445,315.075 C88.986,347.429 141.017,366.745 217.629,366.745 C294.24,366.745 346.271,347.429 356.812,315.075 C366.692,284.748 370.196,251.971 371.435,233.411 L63.822,233.411" fill="#3B3C3A"/>
      <path d="M309.578,116.938 L309.578,172.042 C309.578,172.042 343.629,172.042 343.629,142.184 C343.629,113.122 309.578,116.938 309.578,116.938" fill="#FFFFFE"/>
      <path d="M309.578,180.882 C304.696,180.882 300.738,176.924 300.738,172.042 L300.738,116.938 C300.738,112.437 304.12,108.654 308.594,108.153 C308.921,108.116 310.692,107.933 313.384,107.933 C337.492,107.933 352.469,121.057 352.469,142.184 C352.469,157.942 344.543,170.096 330.153,176.405 C320.23,180.756 310.639,180.882 309.578,180.882 z M318.418,125.877 L318.418,161.937 C325.733,159.971 334.789,154.957 334.789,142.184 C334.789,132.573 329.287,127.103 318.418,125.877" fill="#3B3C3A"/>
      <path d="M228.111,67.488 C177.02,67.488 139.212,96.872 139.212,150.65 C139.212,204.429 180.085,232.151 228.111,232.151 C276.138,232.151 317.011,204.429 317.011,150.65 C317.011,96.872 279.203,67.488 228.111,67.488" fill="#FFFFFE"/>
      <path d="M228.111,247.151 C200.075,247.151 174.463,238.59 155.993,223.044 C135.201,205.545 124.212,180.512 124.212,150.65 C124.212,120.542 134.699,95.312 154.541,77.688 C173.101,61.202 198.541,52.488 228.111,52.488 C257.681,52.488 283.122,61.202 301.681,77.688 C321.523,95.312 332.011,120.542 332.011,150.65 C332.011,180.512 321.021,205.545 300.229,223.044 C281.76,238.59 256.147,247.151 228.111,247.151 z M228.111,82.488 C181.838,82.488 154.212,107.969 154.212,150.65 C154.212,199.735 194.021,217.151 228.111,217.151 C262.201,217.151 302.011,199.735 302.011,150.65 C302.011,107.969 274.385,82.488 228.111,82.488" fill="#3B3C3A"/>
      <path d="M204.651,100.823 C204.651,104.663 201.538,107.774 197.702,107.774 C193.862,107.774 190.749,104.663 190.749,100.823 C190.749,96.985 193.862,93.872 197.702,93.872 C201.538,93.872 204.651,96.985 204.651,100.823" fill="#3B3C3A"/>
      <path d="M249.821,100.986 C249.821,104.826 246.709,107.938 242.869,107.938 C239.029,107.938 235.919,104.826 235.919,100.986 C235.919,97.148 239.029,94.035 242.869,94.035 C246.709,94.035 249.821,97.148 249.821,100.986" fill="#3B3C3A"/>
      <path d="M215.166,121.767 L185.628,121.767 C185.628,121.767 187.695,140.977 215.166,140.977 C242.636,140.977 244.702,121.767 244.702,121.767 L215.166,121.767" fill="#3B3C3A"/>
      <path d="M397.436,243.187 C384.142,243.187 53.332,243.187 35.215,243.187 C11.965,243.187 14.665,192.74 35.215,192.74 C55.764,192.74 384.064,192.74 397.436,192.74 C415.961,192.74 415.883,243.187 397.436,243.187" fill="#FFFFFE"/>
      <path d="M397.436,258.187 L35.215,258.187 C24.766,258.187 15.546,252.823 9.918,243.471 C4.84,235.036 3.774,225.576 3.774,219.126 C3.774,195.146 16.997,177.74 35.215,177.74 L397.436,177.74 C407.55,177.74 416.252,183.672 421.312,194.016 C424.529,200.592 426.301,209.082 426.301,217.923 C426.301,241.63 414.431,258.187 397.436,258.187 z M35.73,228.186 L394.597,228.187 C395.381,226.302 396.295,222.769 396.301,217.964 C396.306,213.157 395.398,209.623 394.618,207.74 L36.497,207.74 C35.423,209.291 33.88,213.281 33.779,218.589 C33.681,223.746 34.976,227.039 35.73,228.186" fill="#3B3C3A"/>
      <path d="M393.195,149.412 C387.267,152.649 239.728,233.22 231.648,237.631 C221.279,243.294 198.306,198.361 207.471,193.356 C216.636,188.352 363.055,108.394 369.017,105.138 C382.87,97.572 407.014,141.867 393.195,149.412" fill="#FFFFFE"/>
      <path d="M229.687,253.124 C207.88,253.124 194.006,217.263 191.74,208.386 C187.153,190.417 195.123,183.008 200.281,180.191 L361.829,91.972 C365.109,90.181 368.677,89.272 372.431,89.272 C391.581,89.272 406.697,113.545 410.884,129.95 C416.473,151.854 404.26,160.461 400.384,162.578 C394.457,165.814 246.916,246.385 238.836,250.797 C236.05,252.318 232.886,253.124 229.687,253.124 z M221.291,202.9 C223.119,208.49 227.296,216.428 230.816,220.995 C258.105,206.093 360.459,150.198 382.14,138.358 C381.092,132.993 376.292,124.192 372.349,120.409 L221.291,202.9" fill="#3B3C3A"/>
      <path d="M264.401,216.896 C264.401,242.728 243.461,263.668 217.629,263.668 C191.797,263.668 170.856,242.728 170.856,216.896 C170.856,191.064 191.797,170.123 217.629,170.123 C243.461,170.123 264.401,191.064 264.401,216.896" fill="#FFFFFE"/>
      <path d="M217.629,278.668 C183.567,278.668 155.856,250.957 155.856,216.896 C155.856,182.834 183.567,155.123 217.629,155.123 C251.69,155.123 279.401,182.834 279.401,216.896 C279.401,250.957 251.69,278.668 217.629,278.668 z M217.629,185.123 C200.109,185.123 185.856,199.376 185.856,216.896 C185.856,234.415 200.109,248.668 217.629,248.668 C235.148,248.668 249.401,234.415 249.401,216.896 C249.401,199.376 235.148,185.123 217.629,185.123" fill="#3B3C3A"/>
      <path d="M172.647,54.343 C165.394,54.343 159.016,49.071 157.849,41.681 L154.231,18.768 C152.939,10.584 158.525,2.903 166.708,1.611 C174.889,0.318 182.571,5.905 183.864,14.088 L187.482,37.001 C188.774,45.184 183.188,52.865 175.006,54.157 C174.214,54.282 173.425,54.343 172.647,54.343" fill="#3B3C3A"/>
      <path d="M138.971,73.473 C135.181,73.473 131.39,72.046 128.472,69.185 L111.906,52.946 C105.99,47.147 105.895,37.65 111.694,31.734 C117.494,25.817 126.991,25.724 132.906,31.522 L149.472,47.761 C155.387,53.56 155.482,63.057 149.683,68.973 C146.746,71.97 142.859,73.473 138.971,73.473" fill="#3B3C3A"/>
      <path d="M117.214,105.564 C115.582,105.564 113.923,105.296 112.295,104.731 L90.381,97.127 C82.555,94.411 78.412,85.865 81.128,78.039 C83.843,70.211 92.392,66.07 100.217,68.785 L122.131,76.39 C129.957,79.105 134.099,87.652 131.384,95.478 C129.233,101.677 123.425,105.564 117.214,105.564" fill="#3B3C3A"/>
    </g>
  </g>
</svg>
