<?xml version="1.0" encoding="UTF-8"?>
<!DOCTYPE svg PUBLIC "-//W3C//DTD SVG 1.1//EN" "http://www.w3.org/Graphics/SVG/1.1/DTD/svg11.dtd">
<svg version="1.1" xmlns="http://www.w3.org/2000/svg" xmlns:xlink="http://www.w3.org/1999/xlink" x="0" y="0" width="420.154" height="437.155" viewBox="0, 0, 420.154, 437.155">
  <g id="Layer_1" transform="translate(-1742.918, -3057.991)">
    <g id="beanbag">
      <path d="M2159.289,3468.411 C2159.289,3483.177 2067.473,3495.146 1954.214,3495.146 C1840.954,3495.146 1749.138,3483.177 1749.138,3468.411 C1749.138,3453.641 1840.954,3441.671 1954.214,3441.671 C2067.473,3441.671 2159.289,3453.641 2159.289,3468.411" fill="#D6D5D0"/>
      <path d="M2008.335,3365.881 L1834.386,3191.933 L1876.812,3149.506 L2050.76,3323.454 L2008.335,3365.881" fill="#FFFFFE"/>
      <path d="M2008.335,3380.881 C2004.355,3380.881 2000.54,3379.3 1997.727,3376.487 L1823.779,3202.539 C1817.921,3196.681 1817.921,3187.184 1823.779,3181.326 L1866.206,3138.899 C1869.018,3136.086 1872.834,3134.506 1876.812,3134.506 C1880.791,3134.506 1884.606,3136.086 1887.419,3138.899 L2061.366,3312.848 C2067.224,3318.706 2067.224,3328.203 2061.366,3334.06 L2018.94,3376.487 C2016.128,3379.3 2012.312,3380.881 2008.335,3380.881 z M1855.598,3191.933 L2008.335,3344.667 L2029.547,3323.454 L1876.812,3170.719 L1855.598,3191.933" fill="#3B3C3A"/>
      <path d="M1860.078,3074.76 L1759.639,3175.199 C1762.368,3188.458 1768.279,3201.185 1777.384,3212.166 L1897.044,3092.504 C1886.065,3083.399 1873.336,3077.488 1860.078,3074.76" fill="#F6D729"/>
      <path d="M1777.385,3222.166 C1777.229,3222.166 1777.074,3222.163 1776.919,3222.155 C1774.107,3222.024 1771.481,3220.715 1769.685,3218.549 C1759.822,3206.653 1752.962,3192.36 1749.845,3177.215 C1749.167,3173.921 1750.19,3170.506 1752.568,3168.128 L1853.007,3067.689 C1855.386,3065.31 1858.803,3064.29 1862.094,3064.965 C1877.241,3068.082 1891.534,3074.943 1903.428,3084.806 C1905.594,3086.602 1906.902,3089.228 1907.033,3092.038 C1907.164,3094.85 1906.104,3097.585 1904.115,3099.575 L1784.455,3219.237 C1782.575,3221.117 1780.029,3222.166 1777.385,3222.166 z M1770.679,3178.302 C1772.499,3184.775 1775.194,3190.992 1778.664,3196.743 L1881.622,3093.784 C1875.871,3090.314 1869.655,3087.62 1863.18,3085.799 L1770.679,3178.302" fill="#3B3C3A"/>
      <path d="M1782.766,3097.887 C1761.767,3118.887 1754.071,3148.137 1759.639,3175.199 L1860.078,3074.76 C1833.014,3069.191 1803.764,3076.889 1782.766,3097.887" fill="#E46C79"/>
      <path d="M1759.638,3185.2 C1758.679,3185.2 1757.714,3185.061 1756.768,3184.778 C1753.245,3183.722 1750.586,3180.817 1749.845,3177.214 C1743.375,3145.772 1753.039,3113.473 1775.695,3090.816 C1793.628,3072.883 1817.477,3063.007 1842.85,3063.007 C1849.304,3063.007 1855.779,3063.666 1862.094,3064.965 C1865.696,3065.706 1868.6,3068.365 1869.657,3071.888 C1870.713,3075.412 1869.75,3079.23 1867.149,3081.831 L1766.711,3182.27 C1764.807,3184.173 1762.253,3185.2 1759.638,3185.2 z M1837.503,3083.193 C1819.487,3084.454 1802.725,3092.07 1789.838,3104.958 C1776.89,3117.905 1769.318,3134.846 1768.062,3152.634 L1837.503,3083.193" fill="#3B3C3A"/>
      <path d="M1902.974,3097.887 C1901.065,3095.978 1899.082,3094.192 1897.044,3092.504 L1777.384,3212.166 C1779.072,3214.203 1780.858,3216.186 1782.766,3218.096 C1815.961,3251.29 1869.78,3251.29 1902.974,3218.096 C1936.17,3184.9 1936.17,3131.082 1902.974,3097.887" fill="#C2D54A"/>
      <path d="M1842.87,3252.991 C1817.495,3252.991 1793.638,3243.11 1775.695,3225.167 C1773.656,3223.127 1771.635,3220.9 1769.684,3218.547 C1766.39,3214.573 1766.663,3208.745 1770.312,3205.095 L1889.972,3085.433 C1893.622,3081.782 1899.448,3081.511 1903.424,3084.803 C1905.776,3086.752 1908.003,3088.774 1910.044,3090.814 C1947.086,3127.856 1947.086,3188.126 1910.046,3225.167 C1892.102,3243.11 1868.246,3252.991 1842.87,3252.991 z M1791.27,3212.421 C1805.26,3225.701 1823.505,3232.991 1842.87,3232.991 C1862.904,3232.991 1881.738,3225.19 1895.903,3211.024 C1924.673,3182.255 1925.138,3135.735 1897.3,3106.391 L1791.27,3212.421" fill="#3B3C3A"/>
      <path d="M1842.87,3257.992 C1816.159,3257.992 1791.048,3247.59 1772.16,3228.702 C1733.171,3189.712 1733.171,3126.27 1772.16,3087.28 C1791.048,3068.393 1816.16,3057.991 1842.871,3057.991 C1869.582,3057.991 1894.694,3068.393 1913.581,3087.28 C1932.469,3106.168 1942.871,3131.28 1942.871,3157.991 C1942.871,3184.702 1932.469,3209.814 1913.581,3228.702 C1894.693,3247.59 1869.582,3257.992 1842.87,3257.992 z M1842.871,3087.991 C1824.173,3087.991 1806.595,3095.272 1793.373,3108.494 C1766.081,3135.787 1766.081,3180.196 1793.373,3207.489 C1806.595,3220.71 1824.173,3227.992 1842.87,3227.992 C1861.568,3227.992 1879.146,3220.71 1892.368,3207.489 C1905.59,3194.267 1912.871,3176.689 1912.871,3157.991 C1912.871,3139.293 1905.59,3121.715 1892.368,3108.493 C1879.147,3095.272 1861.568,3087.991 1842.871,3087.991" fill="#3B3C3A"/>
      <path d="M2045.913,3461.471 L2146.351,3361.031 C2143.623,3347.773 2137.712,3335.045 2128.607,3324.064 L2008.947,3443.727 C2019.926,3452.832 2032.655,3458.742 2045.913,3461.471" fill="#F6D729"/>
      <path d="M2045.913,3471.471 C2045.242,3471.471 2044.567,3471.403 2043.897,3471.266 C2028.749,3468.148 2014.456,3461.287 2002.563,3451.425 C2000.397,3449.629 1999.089,3447.003 1998.958,3444.193 C1998.827,3441.382 1999.887,3438.646 2001.876,3436.657 L2121.536,3316.994 C2123.526,3315.003 2126.263,3313.946 2129.073,3314.075 C2131.884,3314.206 2134.51,3315.515 2136.305,3317.682 C2146.169,3329.577 2153.029,3343.869 2156.146,3359.015 C2156.824,3362.31 2155.801,3365.724 2153.423,3368.102 L2052.984,3468.541 C2051.09,3470.436 2048.538,3471.471 2045.913,3471.471 z M2024.369,3442.447 C2030.121,3445.917 2036.335,3448.611 2042.81,3450.431 L2135.311,3357.929 C2133.491,3351.454 2130.797,3345.239 2127.327,3339.487 L2024.369,3442.447" fill="#3B3C3A"/>
      <path d="M2123.224,3438.344 C2144.223,3417.344 2151.92,3388.095 2146.351,3361.031 L2045.913,3461.471 C2072.976,3467.039 2102.226,3459.342 2123.224,3438.344" fill="#E46C79"/>
      <path d="M2063.144,3473.223 L2063.14,3473.223 C2056.684,3473.223 2050.211,3472.564 2043.897,3471.266 C2040.295,3470.524 2037.39,3467.865 2036.335,3464.342 C2035.278,3460.819 2036.241,3457 2038.842,3454.4 L2139.28,3353.96 C2141.881,3351.358 2145.7,3350.397 2149.222,3351.452 C2152.746,3352.508 2155.405,3355.414 2156.146,3359.016 C2162.616,3390.459 2152.952,3422.757 2130.296,3445.415 C2112.363,3463.347 2088.514,3473.223 2063.144,3473.223 z M2137.929,3383.597 L2068.488,3453.037 C2086.505,3451.778 2103.264,3444.162 2116.153,3431.272 C2129.1,3418.325 2136.672,3401.384 2137.929,3383.597" fill="#3B3C3A"/>
      <path d="M2003.016,3438.344 C2004.926,3440.252 2006.909,3442.039 2008.947,3443.727 L2128.607,3324.064 C2126.919,3322.028 2125.133,3320.045 2123.224,3318.136 C2090.03,3284.941 2036.211,3284.941 2003.016,3318.136 C1969.821,3351.33 1969.821,3405.148 2003.016,3438.344" fill="#70B7D3"/>
      <path d="M2008.945,3453.727 C2006.688,3453.727 2004.426,3452.968 2002.567,3451.428 C2000.219,3449.482 1997.991,3447.46 1995.947,3445.416 C1978.003,3427.471 1968.12,3403.615 1968.12,3378.239 C1968.12,3352.864 1978.003,3329.008 1995.945,3311.064 C2013.888,3293.121 2037.745,3283.24 2063.12,3283.24 C2088.496,3283.24 2112.352,3293.121 2130.296,3311.064 C2132.332,3313.102 2134.353,3315.328 2136.304,3317.681 C2139.6,3321.655 2139.329,3327.485 2135.679,3331.135 L2016.018,3450.798 C2014.075,3452.742 2011.514,3453.727 2008.945,3453.727 z M2063.12,3303.24 C2043.087,3303.24 2024.253,3311.041 2010.088,3325.207 C1995.922,3339.372 1988.12,3358.206 1988.12,3378.239 C1988.12,3397.605 1995.41,3415.85 2008.692,3429.84 L2114.72,3323.81 C2100.731,3310.53 2082.486,3303.24 2063.12,3303.24" fill="#3B3C3A"/>
      <path d="M2063.12,3478.24 C2036.409,3478.24 2011.297,3467.838 1992.41,3448.95 C1973.522,3430.062 1963.12,3404.95 1963.12,3378.239 C1963.12,3351.528 1973.522,3326.416 1992.41,3307.529 C2011.298,3288.642 2036.409,3278.24 2063.121,3278.24 C2089.832,3278.24 2114.943,3288.642 2133.831,3307.529 C2172.82,3346.519 2172.82,3409.96 2133.831,3448.95 C2114.943,3467.838 2089.831,3478.24 2063.12,3478.24 z M2063.121,3308.24 C2044.423,3308.24 2026.845,3315.521 2013.623,3328.742 C2000.401,3341.963 1993.12,3359.542 1993.12,3378.239 C1993.12,3396.937 2000.401,3414.515 2013.623,3427.737 C2026.845,3440.958 2044.423,3448.24 2063.12,3448.24 C2081.818,3448.24 2099.396,3440.958 2112.618,3427.737 C2139.91,3400.444 2139.91,3356.035 2112.618,3328.742 C2099.396,3315.521 2081.818,3308.24 2063.121,3308.24" fill="#3B3C3A"/>
    </g>
  </g>
</svg>
