<?xml version="1.0" encoding="UTF-8"?>
<!DOCTYPE svg PUBLIC "-//W3C//DTD SVG 1.1//EN" "http://www.w3.org/Graphics/SVG/1.1/DTD/svg11.dtd">
<svg version="1.1" xmlns="http://www.w3.org/2000/svg" xmlns:xlink="http://www.w3.org/1999/xlink" x="0" y="0" width="410.552" height="388.729" viewBox="0, 0, 410.552, 388.729">
  <g id="Layer_1" transform="translate(-582.885, -1877.354)">
    <g id="boll">
      <path d="M993.034,2239.349 C993.034,2254.114 901.219,2266.083 787.959,2266.083 C674.699,2266.083 582.885,2254.114 582.885,2239.349 C582.885,2224.579 674.699,2212.608 787.959,2212.608 C901.219,2212.608 993.034,2224.579 993.034,2239.349" fill="#D6D5D0"/>
      <path d="M620.298,1989.03 C642.529,1939.703 686.348,1910.946 792.613,1965.333 C792.613,1965.333 788.807,1919.062 753.021,1895.31 C689.932,1904.771 641.14,1936.853 620.298,1989.03" fill="#FFFFFE"/>
      <path d="M620.293,1999.032 C618.988,1999.032 617.663,1998.776 616.387,1998.233 C611.383,1996.107 608.994,1990.371 611.012,1985.321 C632.61,1931.251 682.517,1895.772 751.538,1885.421 C753.989,1885.051 756.487,1885.608 758.552,1886.977 C797.924,1913.11 802.408,1962.427 802.58,1964.513 C802.877,1968.13 801.191,1971.624 798.176,1973.644 C795.162,1975.661 791.289,1975.889 788.057,1974.235 C751.342,1955.444 720.335,1945.915 695.899,1945.915 C665.061,1945.915 643.935,1960.921 629.415,1993.139 C627.749,1996.834 624.11,1999.032 620.293,1999.032 z M695.899,1925.915 C719.44,1925.915 746.583,1932.96 778.446,1947.386 C774.272,1934.432 766.142,1917.504 750.577,1905.821 C727.77,1909.632 707.414,1916.48 689.938,1926.069 C691.895,1925.968 693.882,1925.915 695.899,1925.915" fill="#3B3C3A"/>
      <path d="M620.298,1989.03 C613.129,2006.974 609.26,2027.29 609.26,2049.885 C609.26,2092.826 624.341,2126.996 649.257,2152.16 C641.689,2133.342 638.242,2111.686 638.242,2087.944 C638.242,1990.549 728.145,1965.333 792.613,1965.333 C686.348,1910.946 642.529,1939.703 620.298,1989.03" fill="#70B7D3"/>
      <path d="M649.26,2162.16 C646.662,2162.16 644.086,2161.151 642.15,2159.196 C614.091,2130.857 599.26,2093.058 599.26,2049.885 C599.26,2026.561 603.214,2004.839 611.012,1985.32 C611.065,1985.186 611.122,1985.054 611.181,1984.921 C629.076,1945.217 656.787,1925.915 695.899,1925.915 C723.923,1925.915 757.049,1935.897 797.169,1956.431 C801.282,1958.536 803.418,1963.185 802.335,1967.677 C801.252,1972.168 797.233,1975.333 792.613,1975.333 C771.094,1975.333 729.983,1978.364 696.43,1998.671 C664.455,2018.021 648.242,2048.057 648.242,2087.944 C648.242,2111.095 651.705,2131.445 658.535,2148.429 C660.31,2152.847 658.727,2157.903 654.749,2160.517 C653.069,2161.621 651.158,2162.16 649.26,2162.16 z M629.504,1992.94 C622.706,2010.038 619.26,2029.195 619.26,2049.885 C619.26,2069.182 622.423,2086.882 628.706,2102.878 C628.396,2098.015 628.242,2093.036 628.242,2087.944 C628.242,2006.474 687.195,1968.701 752.827,1958.369 C731.137,1950.093 712.078,1945.915 695.899,1945.915 C665.125,1945.915 644.021,1960.861 629.504,1992.94" fill="#82837F"/>
      <path d="M638.242,2087.944 C638.242,2111.686 641.689,2133.342 649.257,2152.16 C667.76,2170.849 691.687,2184.569 718.892,2193.225 C684.614,2120.593 715.855,1993.371 792.613,1993.371 C792.613,1976.1 792.613,1965.333 792.613,1965.333 C728.145,1965.333 638.242,1990.549 638.242,2087.944" fill="#F6D729"/>
      <path d="M718.892,2203.226 C717.879,2203.226 716.857,2203.072 715.86,2202.755 C686.233,2193.328 661.433,2178.673 642.15,2159.196 C641.214,2158.25 640.475,2157.126 639.978,2155.89 C632.191,2136.524 628.242,2113.663 628.242,2087.944 C628.242,1990.17 713.151,1955.333 792.613,1955.333 C798.136,1955.333 802.613,1959.81 802.613,1965.333 L802.613,1993.371 C802.613,1998.893 798.136,2003.371 792.613,2003.371 C765.49,2003.371 747.927,2022.099 737.969,2037.81 C711.816,2079.071 707.409,2145.463 727.936,2188.958 C729.634,2192.556 729.038,2196.817 726.418,2199.811 C724.486,2202.018 721.726,2203.226 718.892,2203.226 z M657.8,2146.554 C670.027,2158.536 684.788,2168.417 701.867,2176.071 C696.19,2156.229 693.972,2133.737 695.564,2110.745 C697.74,2079.329 706.801,2049.625 721.076,2027.103 C736.814,2002.272 758.392,1987.263 782.613,1984.032 L782.613,1975.546 C759.847,1976.505 725.335,1981.179 696.43,1998.671 C664.455,2018.021 648.242,2048.057 648.242,2087.944 C648.242,2110.249 651.457,2129.954 657.8,2146.554" fill="#3B3C3A"/>
      <path d="M718.892,2193.225 C741.598,2200.451 766.59,2204.141 792.613,2204.256 C792.613,2148.829 792.613,2043.598 792.613,1993.371 C715.855,1993.371 684.614,2120.593 718.892,2193.225" fill="#E46C79"/>
      <path d="M792.613,2214.256 C792.598,2214.256 792.584,2214.256 792.569,2214.256 C765.274,2214.136 739.466,2210.267 715.86,2202.755 C713.213,2201.912 711.035,2200.007 709.848,2197.493 C698.437,2173.313 693.364,2142.505 695.564,2110.745 C697.74,2079.329 706.801,2049.625 721.076,2027.103 C738.95,1998.901 764.356,1983.371 792.613,1983.371 C798.136,1983.371 802.613,1987.848 802.613,1993.371 L802.613,2204.256 C802.613,2206.915 801.554,2209.466 799.669,2211.343 C797.794,2213.208 795.257,2214.256 792.613,2214.256 z M726.16,2184.993 C743.752,2190.175 762.682,2193.203 782.613,2194.027 L782.613,2004.255 C761.095,2008.14 746.645,2024.12 737.969,2037.81 C712.599,2077.837 707.691,2141.513 726.16,2184.993" fill="#3B3C3A"/>
      <path d="M964.929,1989.03 C942.697,1939.703 898.879,1910.946 792.613,1965.333 C792.613,1965.333 796.419,1919.062 832.205,1895.31 C895.294,1904.771 944.086,1936.853 964.929,1989.03" fill="#FFFFFE"/>
      <path d="M964.933,1999.032 C961.115,1999.032 957.477,1996.835 955.811,1993.139 C941.291,1960.921 920.165,1945.915 889.327,1945.915 C864.891,1945.915 833.885,1955.444 797.169,1974.235 C793.937,1975.889 790.066,1975.661 787.051,1973.644 C784.035,1971.624 782.349,1968.13 782.646,1964.513 C782.818,1962.427 787.303,1913.11 826.675,1886.977 C828.739,1885.607 831.237,1885.054 833.688,1885.421 C902.709,1895.772 952.616,1931.251 974.215,1985.321 C976.232,1990.371 973.844,1996.107 968.839,1998.233 C967.564,1998.776 966.238,1999.032 964.933,1999.032 z M834.646,1905.821 C818.974,1917.567 810.854,1934.483 806.713,1947.416 C838.606,1932.97 865.769,1925.915 889.327,1925.915 C891.345,1925.915 893.331,1925.968 895.288,1926.069 C877.812,1916.48 857.454,1909.632 834.646,1905.821" fill="#3B3C3A"/>
      <path d="M620.298,1989.03 C642.529,1939.703 686.348,1910.946 792.613,1965.333 C792.613,1965.333 788.807,1919.062 753.021,1895.31 C689.932,1904.771 641.14,1936.853 620.298,1989.03" fill="#FFFFFE"/>
      <path d="M620.293,1999.032 C618.988,1999.032 617.663,1998.776 616.387,1998.233 C611.383,1996.107 608.994,1990.371 611.012,1985.321 C632.61,1931.251 682.517,1895.772 751.538,1885.421 C753.989,1885.051 756.487,1885.608 758.552,1886.977 C797.924,1913.11 802.408,1962.427 802.58,1964.513 C802.877,1968.13 801.191,1971.624 798.176,1973.644 C795.162,1975.661 791.289,1975.889 788.057,1974.235 C751.342,1955.444 720.335,1945.915 695.899,1945.915 C665.061,1945.915 643.935,1960.921 629.415,1993.139 C627.749,1996.834 624.11,1999.032 620.293,1999.032 z M695.899,1925.915 C719.44,1925.915 746.583,1932.96 778.446,1947.386 C774.272,1934.432 766.142,1917.504 750.577,1905.821 C727.77,1909.632 707.414,1916.48 689.938,1926.069 C691.895,1925.968 693.882,1925.915 695.899,1925.915" fill="#3B3C3A"/>
      <path d="M964.929,1989.03 C942.697,1939.703 898.879,1910.946 792.613,1965.333 C792.613,1965.333 796.419,1919.062 832.205,1895.31 C895.294,1904.771 944.086,1936.853 964.929,1989.03" fill="#FFFFFE"/>
      <path d="M964.933,1999.032 C961.115,1999.032 957.477,1996.835 955.811,1993.139 C941.291,1960.921 920.165,1945.915 889.327,1945.915 C864.891,1945.915 833.885,1955.444 797.169,1974.235 C793.937,1975.889 790.066,1975.661 787.051,1973.644 C784.035,1971.624 782.349,1968.13 782.646,1964.513 C782.818,1962.427 787.303,1913.11 826.675,1886.977 C828.739,1885.607 831.237,1885.054 833.688,1885.421 C902.709,1895.772 952.616,1931.251 974.215,1985.321 C976.232,1990.371 973.844,1996.107 968.839,1998.233 C967.564,1998.776 966.238,1999.032 964.933,1999.032 z M834.646,1905.821 C818.974,1917.567 810.854,1934.483 806.713,1947.416 C838.606,1932.97 865.769,1925.915 889.327,1925.915 C891.345,1925.915 893.331,1925.968 895.288,1926.069 C877.812,1916.48 857.454,1909.632 834.646,1905.821" fill="#3B3C3A"/>
      <path d="M752.908,1895.326 C776.829,1923.193 788.827,1946.721 792.613,1965.333 C792.613,1965.333 808.48,1922.933 832.607,1895 C820.195,1893.245 807.242,1892.355 793.848,1892.355 C779.666,1892.355 765.983,1893.359 752.908,1895.326" fill="#FFFFFE"/>
      <path d="M792.618,1975.333 C792.355,1975.333 792.092,1975.323 791.827,1975.302 C787.38,1974.951 783.703,1971.698 782.814,1967.326 C780.162,1954.288 771.504,1932.343 745.32,1901.839 C742.951,1899.079 742.267,1895.25 743.535,1891.841 C744.804,1888.431 747.823,1885.979 751.421,1885.437 C765.02,1883.392 779.295,1882.354 793.848,1882.354 C807.618,1882.354 821.129,1883.278 834.008,1885.099 C837.631,1885.61 840.684,1888.061 841.97,1891.487 C843.256,1894.913 842.567,1898.768 840.176,1901.536 C817.481,1927.811 802.131,1968.431 801.978,1968.838 C800.509,1972.766 796.758,1975.333 792.618,1975.333 z M772.129,1903.197 C781.271,1915.265 788.477,1926.88 793.711,1937.976 C798.816,1927.517 805.636,1914.942 813.832,1903.062 C800.15,1902.079 785.788,1902.122 772.129,1903.197" fill="#82837F"/>
      <path d="M620.298,1989.03 C642.529,1939.703 686.348,1910.946 792.613,1965.333 C792.613,1965.333 788.807,1919.062 753.021,1895.31 C689.932,1904.771 641.14,1936.853 620.298,1989.03" fill="#E46C79"/>
      <path d="M620.293,1999.032 C618.988,1999.032 617.663,1998.776 616.387,1998.233 C611.383,1996.107 608.994,1990.371 611.012,1985.321 C632.61,1931.251 682.517,1895.772 751.538,1885.421 C753.989,1885.051 756.487,1885.608 758.552,1886.977 C797.924,1913.11 802.408,1962.427 802.58,1964.513 C802.877,1968.13 801.191,1971.624 798.176,1973.644 C795.162,1975.661 791.289,1975.889 788.057,1974.235 C751.342,1955.444 720.335,1945.915 695.899,1945.915 C665.061,1945.915 643.935,1960.921 629.415,1993.139 C627.749,1996.834 624.11,1999.032 620.293,1999.032 z M695.899,1925.915 C719.44,1925.915 746.583,1932.96 778.446,1947.386 C774.272,1934.432 766.142,1917.504 750.577,1905.821 C727.77,1909.632 707.414,1916.48 689.938,1926.069 C691.895,1925.968 693.882,1925.915 695.899,1925.915" fill="#3B3C3A"/>
      <path d="M964.929,1989.03 C942.697,1939.703 898.879,1910.946 792.613,1965.333 C792.613,1965.333 796.419,1919.062 832.205,1895.31 C895.294,1904.771 944.086,1936.853 964.929,1989.03" fill="#F6D729"/>
      <path d="M964.933,1999.032 C961.115,1999.032 957.477,1996.835 955.811,1993.139 C941.291,1960.921 920.165,1945.915 889.327,1945.915 C864.891,1945.915 833.885,1955.444 797.169,1974.235 C793.937,1975.889 790.066,1975.661 787.051,1973.644 C784.035,1971.624 782.349,1968.13 782.646,1964.513 C782.818,1962.427 787.303,1913.11 826.675,1886.977 C828.739,1885.607 831.237,1885.054 833.688,1885.421 C902.709,1895.772 952.616,1931.251 974.215,1985.321 C976.232,1990.371 973.844,1996.107 968.839,1998.233 C967.564,1998.776 966.238,1999.032 964.933,1999.032 z M834.646,1905.821 C818.974,1917.567 810.854,1934.483 806.713,1947.416 C838.606,1932.97 865.769,1925.915 889.327,1925.915 C891.345,1925.915 893.331,1925.968 895.288,1926.069 C877.812,1916.48 857.454,1909.632 834.646,1905.821" fill="#3B3C3A"/>
      <path d="M964.929,1989.03 C972.097,2006.974 975.967,2027.29 975.967,2049.885 C975.967,2092.826 960.886,2126.996 935.97,2152.16 C943.537,2133.342 946.984,2111.686 946.984,2087.944 C946.984,1990.549 857.081,1965.333 792.613,1965.333 C898.879,1910.946 942.697,1939.703 964.929,1989.03" fill="#70B7D3"/>
      <path d="M935.967,2162.16 C934.067,2162.16 932.158,2161.621 930.477,2160.517 C926.499,2157.903 924.916,2152.847 926.691,2148.429 C933.521,2131.445 936.984,2111.095 936.984,2087.944 C936.984,2048.057 920.771,2018.021 888.797,1998.671 C855.243,1978.364 814.133,1975.333 792.613,1975.333 C787.993,1975.333 783.975,1972.168 782.891,1967.677 C781.808,1963.185 783.944,1958.536 788.057,1956.431 C828.178,1935.897 861.304,1925.915 889.327,1925.915 C928.439,1925.915 956.15,1945.217 974.046,1984.921 C974.104,1985.054 974.161,1985.186 974.215,1985.32 C982.013,2004.839 985.967,2026.561 985.967,2049.885 C985.967,2093.058 971.136,2130.857 943.076,2159.196 C941.141,2161.15 938.564,2162.16 935.967,2162.16 z M832.399,1958.369 C898.031,1968.701 956.984,2006.474 956.984,2087.944 C956.984,2093.036 956.83,2098.015 956.52,2102.878 C962.804,2086.882 965.967,2069.182 965.967,2049.885 C965.967,2029.195 962.52,2010.038 955.722,1992.94 C941.205,1960.861 920.101,1945.915 889.327,1945.915 C873.148,1945.915 854.09,1950.093 832.399,1958.369" fill="#3B3C3A"/>
      <path d="M946.984,2087.944 C946.984,2111.686 943.537,2133.342 935.97,2152.16 C917.467,2170.849 893.539,2184.569 866.334,2193.225 C900.612,2120.593 869.371,1993.371 792.613,1993.371 C792.613,1976.1 792.613,1965.333 792.613,1965.333 C857.081,1965.333 946.984,1990.549 946.984,2087.944" fill="#E46C79"/>
      <path d="M866.335,2203.226 C863.499,2203.226 860.74,2202.019 858.808,2199.811 C856.188,2196.817 855.593,2192.556 857.29,2188.958 C877.817,2145.463 873.41,2079.071 847.258,2037.81 C837.3,2022.099 819.736,2003.371 792.613,2003.371 C787.091,2003.371 782.613,1998.893 782.613,1993.371 L782.613,1965.333 C782.613,1959.81 787.091,1955.333 792.613,1955.333 C872.075,1955.333 956.984,1990.17 956.984,2087.944 C956.984,2113.663 953.035,2136.524 945.248,2155.89 C944.751,2157.126 944.012,2158.25 943.076,2159.196 C923.793,2178.673 898.993,2193.328 869.366,2202.755 C868.369,2203.072 867.346,2203.226 866.335,2203.226 z M802.613,1984.032 C826.834,1987.263 848.412,2002.272 864.15,2027.103 C878.426,2049.625 887.486,2079.329 889.662,2110.745 C891.255,2133.737 889.036,2156.229 883.359,2176.071 C900.438,2168.417 915.199,2158.536 927.427,2146.554 C933.769,2129.954 936.984,2110.249 936.984,2087.944 C936.984,2048.057 920.771,2018.021 888.797,1998.671 C859.892,1981.179 825.379,1976.505 802.613,1975.546 L802.613,1984.032" fill="#3B3C3A"/>
      <path d="M866.334,2193.225 C843.628,2200.451 818.637,2204.141 792.613,2204.256 C792.613,2148.829 792.613,2043.598 792.613,1993.371 C869.371,1993.371 900.612,2120.593 866.334,2193.225" fill="#70B7D3"/>
      <path d="M792.613,2214.256 C789.969,2214.256 787.432,2213.208 785.557,2211.343 C783.673,2209.466 782.613,2206.915 782.613,2204.256 L782.613,1993.371 C782.613,1987.848 787.091,1983.371 792.613,1983.371 C820.87,1983.371 846.276,1998.901 864.15,2027.103 C878.426,2049.625 887.486,2079.329 889.662,2110.745 C891.862,2142.505 886.789,2173.313 875.378,2197.493 C874.191,2200.007 872.013,2201.912 869.366,2202.755 C845.761,2210.267 819.952,2214.136 792.657,2214.256 C792.642,2214.256 792.628,2214.256 792.613,2214.256 z M802.613,2004.255 L802.613,2194.027 C822.544,2193.203 841.474,2190.175 859.066,2184.993 C877.535,2141.513 872.628,2077.837 847.258,2037.81 C838.581,2024.12 824.132,2008.14 802.613,2004.255" fill="#3B3C3A"/>
      <path d="M795.348,1932.621 C756.726,1932.621 728.145,1945.999 728.145,1970.482 C728.145,1994.966 759.043,2007.587 795.348,2007.587 C831.652,2007.587 862.552,1994.966 862.552,1970.482 C862.552,1945.999 833.97,1932.621 795.348,1932.621" fill="#C2D54A"/>
      <path d="M795.348,2017.587 C748.449,2017.587 718.145,1999.097 718.145,1970.482 C718.145,1955.085 726.811,1941.97 742.547,1933.553 C755.916,1926.401 774.175,1922.621 795.348,1922.621 C816.522,1922.621 834.781,1926.401 848.15,1933.553 C863.886,1941.971 872.552,1955.085 872.552,1970.482 C872.552,1999.097 842.248,2017.587 795.348,2017.587 z M795.348,1942.621 C766.876,1942.621 738.145,1951.235 738.145,1970.482 C738.145,1989.105 767.798,1997.587 795.348,1997.587 C822.899,1997.587 852.552,1989.105 852.552,1970.482 C852.552,1951.235 823.821,1942.621 795.348,1942.621" fill="#3B3C3A"/>
      <path d="M793.848,2219.266 C739.678,2219.266 690.375,2204.317 655.023,2177.174 C615.271,2146.651 594.26,2102.636 594.26,2049.885 C594.26,1996.524 614.34,1952.048 652.329,1921.265 C687.779,1892.538 736.716,1877.354 793.848,1877.354 C850.981,1877.354 899.918,1892.538 935.368,1921.265 C973.357,1952.048 993.437,1996.524 993.437,2049.885 C993.437,2102.636 972.426,2146.651 932.673,2177.174 C897.32,2204.317 848.018,2219.266 793.848,2219.266 z M793.848,1907.355 C689.242,1907.355 624.26,1961.969 624.26,2049.885 C624.26,2152.763 715.616,2189.266 793.848,2189.266 C872.081,2189.266 963.437,2152.763 963.437,2049.885 C963.437,1961.969 898.455,1907.355 793.848,1907.355" fill="#3B3C3A"/>
    </g>
  </g>
</svg>
