<?xml version="1.0" encoding="UTF-8"?>
<!DOCTYPE svg PUBLIC "-//W3C//DTD SVG 1.1//EN" "http://www.w3.org/Graphics/SVG/1.1/DTD/svg11.dtd">
<svg version="1.1" xmlns="http://www.w3.org/2000/svg" xmlns:xlink="http://www.w3.org/1999/xlink" x="0" y="0" width="425.976" height="341.962" viewBox="0, 0, 425.976, 341.962">
  <g id="Layer_1" transform="translate(-1165.065, -4998.354)">
    <g id="bow">
      <path d="M1576.241,5313.581 C1576.241,5328.346 1484.426,5340.316 1371.166,5340.316 C1257.906,5340.316 1166.091,5328.346 1166.091,5313.581 C1166.091,5298.811 1257.906,5286.841 1371.166,5286.841 C1484.426,5286.841 1576.241,5298.811 1576.241,5313.581" fill="#D6D5D0"/>
      <path d="M1315.479,5067.08 C1281.507,5036.419 1215.479,4997.886 1194.479,5019.798 C1173.479,5041.709 1178.479,5080.919 1189.479,5103.984 C1200.479,5127.049 1203.479,5146.654 1192.479,5163.952 C1181.479,5181.251 1171.479,5229.687 1193.479,5249.293 C1215.479,5268.898 1301.479,5225.074 1317.479,5195.09 C1333.479,5165.106 1338.479,5087.839 1315.479,5067.08" fill="#FFFFFE"/>
      <path d="M1209.921,5269.173 C1209.921,5269.173 1209.916,5269.173 1209.914,5269.173 C1198.849,5269.172 1189.963,5266.25 1183.5,5260.491 C1154.514,5234.659 1165.865,5177.851 1179.822,5155.904 C1184.851,5147.993 1188.324,5136.407 1175.94,5110.441 C1164.039,5085.485 1156.27,5037.987 1183.65,5009.419 C1188.487,5004.37 1197.404,4998.354 1212.408,4998.354 C1248.587,4998.354 1299.88,5032.795 1325.529,5055.945 C1344.099,5072.704 1346.39,5108.186 1346.102,5127.845 C1345.681,5156.679 1339.784,5185.152 1330.713,5202.152 C1314.669,5232.22 1248.066,5269.173 1209.921,5269.173 z M1203.459,5238.095 C1203.459,5238.095 1204.983,5239.172 1209.917,5239.173 C1238.851,5239.176 1294.119,5207.006 1304.246,5188.029 C1310.995,5175.381 1315.761,5151.019 1316.106,5127.407 C1316.5,5100.438 1311.027,5083.268 1305.429,5078.216 C1278.749,5054.136 1235.004,5028.354 1212.408,5028.354 C1210.409,5028.354 1206.829,5028.591 1205.309,5030.177 C1189.461,5046.713 1194.429,5079.515 1203.018,5097.527 C1212.121,5116.613 1222.244,5145.098 1205.137,5172.001 C1196.103,5186.207 1189.626,5225.766 1203.459,5238.095" fill="#3B3C3A"/>
      <path d="M1256.479,5102.94 L1316.479,5122.94 L1256.479,5102.94" fill="#FFFFFE"/>
      <path d="M1316.481,5137.945 C1314.909,5137.945 1313.309,5137.696 1311.736,5137.172 L1251.736,5117.172 C1243.877,5114.552 1239.63,5106.057 1242.249,5098.198 C1244.87,5090.339 1253.363,5086.091 1261.222,5088.711 L1321.222,5108.711 C1329.082,5111.331 1333.329,5119.825 1330.71,5127.684 C1328.614,5133.97 1322.762,5137.945 1316.481,5137.945" fill="#3B3C3A"/>
      <path d="M1257.479,5174.94 L1319.479,5160.94 L1257.479,5174.94" fill="#FFFFFE"/>
      <path d="M1257.466,5189.944 C1250.609,5189.944 1244.422,5185.213 1242.847,5178.244 C1241.023,5170.164 1246.095,5162.134 1254.176,5160.309 L1316.176,5146.309 C1324.262,5144.482 1332.285,5149.557 1334.111,5157.637 C1335.935,5165.717 1330.864,5173.748 1322.783,5175.573 L1260.783,5189.573 C1259.671,5189.824 1258.559,5189.944 1257.466,5189.944" fill="#3B3C3A"/>
      <path d="M1440.626,5067.08 C1474.598,5036.419 1540.626,4997.886 1561.626,5019.798 C1582.626,5041.709 1577.626,5080.919 1566.626,5103.984 C1555.626,5127.049 1552.626,5146.654 1563.626,5163.952 C1574.626,5181.251 1584.626,5229.687 1562.626,5249.293 C1540.626,5268.898 1454.626,5225.074 1438.626,5195.09 C1422.626,5165.106 1417.626,5087.839 1440.626,5067.08" fill="#FFFFFE"/>
      <path d="M1546.189,5269.173 C1508.044,5269.173 1441.435,5232.218 1425.392,5202.152 C1416.321,5185.152 1410.424,5156.679 1410.003,5127.845 C1409.715,5108.186 1412.006,5072.704 1430.576,5055.945 C1456.225,5032.795 1507.518,4998.354 1543.697,4998.354 C1558.701,4998.354 1567.618,5004.37 1572.456,5009.419 C1599.835,5037.987 1592.066,5085.485 1580.165,5110.441 C1567.781,5136.407 1571.254,5147.993 1576.283,5155.904 C1590.24,5177.851 1601.592,5234.659 1572.605,5260.491 C1566.141,5266.251 1557.254,5269.173 1546.189,5269.173 z M1543.697,5028.354 C1521.101,5028.354 1477.356,5054.136 1450.676,5078.216 C1445.078,5083.268 1439.605,5100.438 1439.999,5127.407 C1440.345,5151.019 1445.11,5175.381 1451.859,5188.028 C1461.984,5207.003 1517.253,5239.173 1546.189,5239.173 C1551.125,5239.173 1552.646,5238.093 1552.66,5238.082 C1566.479,5225.766 1560.002,5186.207 1550.969,5172.001 C1533.861,5145.098 1543.984,5116.613 1553.087,5097.527 C1561.677,5079.515 1566.644,5046.713 1550.797,5030.177 C1549.276,5028.591 1545.696,5028.354 1543.697,5028.354" fill="#3B3C3A"/>
      <path d="M1499.626,5102.94 L1439.626,5122.94 L1499.626,5102.94" fill="#FFFFFE"/>
      <path d="M1439.624,5137.945 C1433.343,5137.945 1427.491,5133.97 1425.395,5127.684 C1422.776,5119.825 1427.023,5111.331 1434.883,5108.711 L1494.883,5088.711 C1502.74,5086.091 1511.236,5090.339 1513.856,5098.198 C1516.475,5106.057 1512.228,5114.552 1504.369,5117.172 L1444.369,5137.172 C1442.796,5137.696 1441.196,5137.945 1439.624,5137.945" fill="#3B3C3A"/>
      <path d="M1498.626,5174.94 L1436.626,5160.94 L1498.626,5174.94" fill="#FFFFFE"/>
      <path d="M1498.639,5189.944 C1497.545,5189.944 1496.434,5189.824 1495.322,5189.573 L1433.322,5175.573 C1425.241,5173.748 1420.17,5165.718 1421.994,5157.637 C1423.818,5149.556 1431.851,5144.484 1439.93,5146.309 L1501.929,5160.309 C1510.011,5162.135 1515.082,5170.164 1513.258,5178.244 C1511.684,5185.212 1505.495,5189.944 1498.639,5189.944" fill="#3B3C3A"/>
      <path d="M1375.479,5054.394 C1361.479,5032.482 1315.479,5026.717 1307.479,5057.854 C1299.479,5088.992 1294.479,5185.864 1308.479,5213.542 C1322.479,5241.22 1366.479,5234.301 1374.479,5215.848 C1388.479,5236.606 1430.479,5240.066 1439.479,5217.001 C1448.479,5193.937 1451.479,5082.073 1443.479,5056.701 C1435.479,5031.329 1388.479,5031.329 1375.479,5054.394" fill="#F1D12B"/>
      <path d="M1410.952,5247.904 L1410.947,5247.904 C1397.877,5247.903 1385.155,5243.94 1375.2,5237.185 C1366.35,5243.379 1354.488,5247.037 1341.687,5247.037 C1320.976,5247.037 1303.559,5237.047 1295.095,5220.312 C1278.227,5186.968 1284.949,5085.267 1292.951,5054.121 C1298.165,5033.827 1315.544,5021.221 1338.305,5021.221 C1351.674,5021.221 1364.961,5025.637 1375.2,5032.973 C1384.595,5026.227 1396.925,5022.374 1410.326,5022.374 C1433.445,5022.374 1452.074,5034.077 1457.785,5052.19 C1464.025,5071.981 1463.239,5122.951 1462.849,5138.102 C1462.46,5153.239 1460.632,5204.057 1453.453,5222.454 C1447.235,5238.389 1431.346,5247.904 1410.952,5247.904 z M1374.482,5200.848 C1379.437,5200.848 1384.111,5203.303 1386.916,5207.461 C1390.996,5213.512 1401.103,5217.904 1410.949,5217.904 L1410.952,5217.904 C1416.789,5217.904 1423.677,5216.235 1425.506,5211.549 C1428.402,5204.126 1431.858,5176.248 1432.859,5137.331 C1433.912,5096.402 1431.686,5069.181 1429.174,5061.212 C1427.259,5055.139 1418.061,5052.374 1410.326,5052.374 C1400.617,5052.374 1391.661,5056.234 1388.547,5061.76 C1385.961,5066.347 1381.158,5069.243 1375.894,5069.388 C1370.613,5069.534 1365.675,5066.908 1362.84,5062.47 C1358.742,5056.057 1348.194,5051.221 1338.305,5051.221 C1329.258,5051.221 1323.774,5054.709 1322.008,5061.587 C1313.815,5093.471 1310.775,5184.848 1321.864,5206.771 C1326.383,5215.703 1336.223,5217.037 1341.687,5217.037 C1352.144,5217.037 1359.635,5212.379 1360.717,5209.882 C1362.896,5204.855 1367.643,5201.416 1373.099,5200.911 C1373.561,5200.869 1374.023,5200.848 1374.482,5200.848" fill="#3B3C3A"/>
    </g>
  </g>
</svg>
