<?xml version="1.0" encoding="UTF-8"?>
<!DOCTYPE svg PUBLIC "-//W3C//DTD SVG 1.1//EN" "http://www.w3.org/Graphics/SVG/1.1/DTD/svg11.dtd">
<svg version="1.1" xmlns="http://www.w3.org/2000/svg" xmlns:xlink="http://www.w3.org/1999/xlink" x="0" y="0" width="414.194" height="445.528" viewBox="0, 0, 414.194, 445.528">
  <g id="Layer_1" transform="translate(-3.924, -590.759)">
    <g id="buggy-red">
      <path d="M414.074,1009.552 C414.074,1024.317 322.26,1036.287 209,1036.287 C95.74,1036.287 3.924,1024.317 3.924,1009.552 C3.924,994.782 95.74,982.811 209,982.811 C322.26,982.811 414.074,994.782 414.074,1009.552" fill="#D6D5D0"/>
      <path d="M142.368,978.903 C138.529,978.903 134.69,977.439 131.762,974.51 C125.903,968.652 125.903,959.155 131.762,953.297 L208.299,876.76 C214.156,870.901 223.654,870.901 229.512,876.76 C235.37,882.618 235.37,892.115 229.512,897.973 L152.974,974.51 C150.046,977.439 146.207,978.903 142.368,978.903" fill="#3B3C3A"/>
      <path d="M291.346,978.903 C287.507,978.903 283.668,977.439 280.739,974.51 L204.202,897.973 C198.344,892.115 198.344,882.618 204.202,876.76 C210.059,870.901 219.557,870.901 225.415,876.76 L301.952,953.297 C307.81,959.155 307.81,968.652 301.952,974.51 C299.023,977.439 295.184,978.903 291.346,978.903" fill="#3B3C3A"/>
      <path d="M223.903,646.074 C255.903,646.074 276.55,657.102 298.226,675.769 C283.689,690.306 223.903,752.051 223.903,752.051 L223.903,646.074" fill="#E46C79"/>
      <path d="M223.9,767.051 C222.008,767.051 220.098,766.693 218.275,765.955 C212.61,763.662 208.903,758.162 208.903,752.051 L208.903,646.074 C208.903,637.79 215.619,631.074 223.903,631.074 C263.81,631.074 287.913,647.093 308.014,664.403 C311.176,667.126 313.06,671.042 313.216,675.211 C313.371,679.381 311.783,683.426 308.833,686.376 C294.547,700.661 235.276,761.869 234.679,762.485 C231.797,765.462 227.886,767.051 223.9,767.051 z M238.903,662.107 L238.903,715.035 C251.138,702.434 265.324,687.849 275.781,677.171 C264.839,669.501 253.384,664.223 238.903,662.107" fill="#3B3C3A"/>
      <path d="M204.236,626.408 C193.375,626.408 184.57,635.213 184.57,646.074 L184.57,787.632 C184.57,798.493 193.375,807.298 204.236,807.298 C215.098,807.298 223.903,798.493 223.903,787.632 L223.903,646.074 C223.903,635.213 215.098,626.408 204.236,626.408" fill="#FFFFFE"/>
      <path d="M204.236,822.298 C185.121,822.298 169.57,806.747 169.57,787.632 L169.57,646.074 C169.57,626.959 185.121,611.408 204.236,611.408 C223.351,611.408 238.903,626.959 238.903,646.074 L238.903,787.632 C238.903,806.747 223.351,822.298 204.236,822.298 z M204.236,641.408 C201.663,641.408 199.57,643.501 199.57,646.074 L199.57,787.632 C199.57,790.205 201.663,792.298 204.236,792.298 C206.809,792.298 208.903,790.205 208.903,787.632 L208.903,646.074 C208.903,643.501 206.809,641.408 204.236,641.408" fill="#3B3C3A"/>
      <path d="M237.146,886.811 C212.946,886.811 157.801,886.811 117.006,886.811 L276.033,727.784 C276.033,727.784 276.033,821.736 276.033,850.777 C276.033,873.061 262.179,886.811 237.146,886.811" fill="#E46C79"/>
      <path d="M237.146,901.811 L117.006,901.811 C110.938,901.811 105.47,898.157 103.147,892.552 C100.826,886.947 102.109,880.495 106.399,876.205 L265.427,717.178 C269.717,712.888 276.172,711.605 281.773,713.926 C287.379,716.248 291.033,721.717 291.033,727.784 L291.033,850.777 C291.033,881.779 269.882,901.811 237.146,901.811 z M153.218,871.811 L237.146,871.811 C258.556,871.811 261.033,859.807 261.033,850.777 L261.033,763.998 L153.218,871.811" fill="#3B3C3A"/>
      <path d="M317.092,714.484 L54.32,977.257 L26.957,949.89 L289.727,687.119 L317.092,714.484" fill="#FFFFFE"/>
      <path d="M54.32,992.257 C54.32,992.257 54.32,992.257 54.319,992.257 C50.342,992.257 46.526,990.676 43.713,987.863 L16.349,960.496 C10.492,954.638 10.493,945.141 16.35,939.283 L279.121,676.513 C281.933,673.7 285.749,672.119 289.727,672.119 C293.706,672.119 297.521,673.7 300.334,676.513 L327.698,703.878 C333.556,709.736 333.556,719.233 327.698,725.091 L64.927,987.863 C62.114,990.676 58.299,992.257 54.32,992.257 z M48.17,949.891 L54.321,956.043 L295.879,714.484 L289.727,708.333 L48.17,949.891" fill="#3B3C3A"/>
      <path d="M370.971,673.938 L323.757,721.151 L283.059,680.454 L330.273,633.238 L370.971,673.938" fill="#3B3C3A"/>
      <path d="M323.757,736.151 C319.918,736.151 316.079,734.687 313.15,731.758 L272.453,691.061 C266.595,685.203 266.595,675.706 272.453,669.848 L319.667,622.632 C322.479,619.819 326.295,618.238 330.273,618.238 C334.252,618.238 338.067,619.819 340.88,622.632 L381.577,663.331 C387.435,669.189 387.435,678.686 381.577,684.544 L334.363,731.758 C331.434,734.687 327.596,736.151 323.757,736.151 z M304.272,680.454 L323.757,699.938 L349.758,673.937 L330.273,654.452 L304.272,680.454" fill="#3B3C3A"/>
      <path d="M382.439,713.984 L290.225,621.769 L306.236,605.759 C306.236,605.759 345.19,622.006 370.531,647.346 C395.872,672.686 403.118,693.307 403.118,693.307 L382.439,713.984" fill="#3B3C3A"/>
      <path d="M382.439,728.984 C378.6,728.984 374.762,727.52 371.833,724.591 L279.619,632.376 C273.761,626.518 273.761,617.021 279.619,611.163 L295.63,595.152 C299.929,590.852 306.398,589.575 312.011,591.915 C313.713,592.625 354.013,609.615 381.138,636.739 C408.577,664.177 416.928,687.36 417.269,688.334 C419.182,693.777 417.804,699.834 413.724,703.914 L393.046,724.591 C390.117,727.519 386.277,728.984 382.439,728.984 z M317.707,628.037 L382.439,692.771 L384.993,690.218 C380.85,682.833 373.096,671.123 359.925,657.953 C347.166,645.194 330.239,634.778 317.707,628.037" fill="#3B3C3A"/>
      <path d="M179.914,963.903 C179.914,984.64 163.102,1001.449 142.368,1001.449 C121.632,1001.449 104.822,984.64 104.822,963.903 C104.822,943.168 121.632,926.357 142.368,926.357 C163.102,926.357 179.914,943.168 179.914,963.903" fill="#FFFFFE"/>
      <path d="M142.368,1016.449 C113.394,1016.449 89.822,992.877 89.822,963.903 C89.822,934.929 113.394,911.357 142.368,911.357 C171.342,911.357 194.914,934.929 194.914,963.903 C194.914,992.877 171.342,1016.449 142.368,1016.449 z M142.368,941.357 C129.936,941.357 119.822,951.472 119.822,963.903 C119.822,976.335 129.936,986.449 142.368,986.449 C154.8,986.449 164.914,976.335 164.914,963.903 C164.914,951.472 154.8,941.357 142.368,941.357" fill="#3B3C3A"/>
      <path d="M328.891,963.903 C328.891,984.64 312.081,1001.449 291.346,1001.449 C270.61,1001.449 253.8,984.64 253.8,963.903 C253.8,943.168 270.61,926.357 291.346,926.357 C312.081,926.357 328.891,943.168 328.891,963.903" fill="#FFFFFE"/>
      <path d="M291.346,1016.449 C262.372,1016.449 238.8,992.877 238.8,963.903 C238.8,934.929 262.372,911.357 291.346,911.357 C320.319,911.357 343.891,934.929 343.891,963.903 C343.891,992.877 320.319,1016.449 291.346,1016.449 z M291.346,941.357 C278.914,941.357 268.8,951.472 268.8,963.903 C268.8,976.335 278.914,986.449 291.346,986.449 C303.777,986.449 313.891,976.335 313.891,963.903 C313.891,951.472 303.777,941.357 291.346,941.357" fill="#3B3C3A"/>
    </g>
  </g>
</svg>
