<?xml version="1.0" encoding="UTF-8"?>
<!DOCTYPE svg PUBLIC "-//W3C//DTD SVG 1.1//EN" "http://www.w3.org/Graphics/SVG/1.1/DTD/svg11.dtd">
<svg version="1.1" xmlns="http://www.w3.org/2000/svg" xmlns:xlink="http://www.w3.org/1999/xlink" x="0" y="0" width="410.15" height="434.34" viewBox="0, 0, 410.15, 434.34">
  <g id="Layer_1" transform="translate(-1166.091, -6750.67)">
    <g id="buggy-yellow">
      <path d="M1576.241,7158.276 C1576.241,7173.042 1484.426,7185.01 1371.166,7185.01 C1257.906,7185.01 1166.091,7173.042 1166.091,7158.276 C1166.091,7143.507 1257.906,7131.536 1371.166,7131.536 C1484.426,7131.536 1576.241,7143.507 1576.241,7158.276" fill="#D6D5D0"/>
      <path d="M1380.637,6869.842 C1380.637,6869.842 1256.874,6869.842 1204.852,6869.842 C1204.852,6984.212 1301.519,7004.137 1380.637,7004.137 C1459.756,7004.137 1556.423,6984.212 1556.423,6869.842 C1504.401,6869.842 1380.637,6869.842 1380.637,6869.842" fill="#F6D729"/>
      <path d="M1380.637,7019.137 C1327.71,7019.137 1286.839,7010.566 1255.686,6992.933 C1212.002,6968.206 1189.852,6926.792 1189.852,6869.842 C1189.852,6861.558 1196.568,6854.842 1204.852,6854.842 L1556.423,6854.842 C1564.707,6854.842 1571.423,6861.558 1571.423,6869.842 C1571.423,6926.792 1549.273,6968.206 1505.589,6992.933 C1474.436,7010.566 1433.565,7019.137 1380.637,7019.137 z M1220.484,6884.842 C1223.804,6922.812 1240.245,6949.718 1270.465,6966.824 C1296.621,6981.631 1333.688,6989.137 1380.637,6989.137 C1427.587,6989.137 1464.654,6981.631 1490.81,6966.824 C1521.03,6949.718 1537.471,6922.812 1540.791,6884.842 L1220.484,6884.842" fill="#3B3C3A"/>
      <path d="M1347.951,7080.362 C1347.951,7118.653 1316.909,7149.695 1278.617,7149.695 C1240.326,7149.695 1209.284,7118.653 1209.284,7080.362 C1209.284,7042.07 1240.326,7011.028 1278.617,7011.028 C1316.909,7011.028 1347.951,7042.07 1347.951,7080.362" fill="#FFFFFE"/>
      <path d="M1278.617,7164.695 C1232.116,7164.695 1194.284,7126.863 1194.284,7080.362 C1194.284,7033.86 1232.116,6996.028 1278.617,6996.028 C1325.119,6996.028 1362.951,7033.86 1362.951,7080.362 C1362.951,7126.863 1325.119,7164.695 1278.617,7164.695 z M1278.617,7026.028 C1248.658,7026.028 1224.284,7050.402 1224.284,7080.362 C1224.284,7110.321 1248.658,7134.695 1278.617,7134.695 C1308.577,7134.695 1332.951,7110.321 1332.951,7080.362 C1332.951,7050.402 1308.577,7026.028 1278.617,7026.028" fill="#3B3C3A"/>
      <path d="M1551.991,7080.362 C1551.991,7118.653 1520.949,7149.695 1482.657,7149.695 C1444.366,7149.695 1413.324,7118.653 1413.324,7080.362 C1413.324,7042.07 1444.366,7011.028 1482.657,7011.028 C1520.949,7011.028 1551.991,7042.07 1551.991,7080.362" fill="#FFFFFE"/>
      <path d="M1482.657,7164.695 C1436.156,7164.695 1398.324,7126.863 1398.324,7080.362 C1398.324,7033.86 1436.156,6996.028 1482.657,6996.028 C1529.159,6996.028 1566.991,7033.86 1566.991,7080.362 C1566.991,7126.863 1529.159,7164.695 1482.657,7164.695 z M1482.657,7026.028 C1452.698,7026.028 1428.324,7050.402 1428.324,7080.362 C1428.324,7110.321 1452.698,7134.695 1482.657,7134.695 C1512.617,7134.695 1536.991,7110.321 1536.991,7080.362 C1536.991,7050.402 1512.617,7026.028 1482.657,7026.028" fill="#3B3C3A"/>
      <path d="M1278.605,7095.364 C1275.64,7095.364 1272.647,7094.488 1270.032,7092.663 C1263.239,7087.92 1261.576,7078.57 1266.318,7071.777 L1368.338,6925.633 C1373.081,6918.84 1382.43,6917.178 1389.223,6921.919 C1396.016,6926.661 1397.679,6936.013 1392.937,6942.805 L1290.918,7088.949 C1288.001,7093.126 1283.341,7095.364 1278.605,7095.364" fill="#3B3C3A"/>
      <path d="M1482.67,7095.364 C1477.934,7095.364 1473.274,7093.127 1470.357,7088.949 L1368.338,6942.805 C1363.596,6936.013 1365.259,6926.661 1372.052,6921.919 C1378.845,6917.178 1388.195,6918.841 1392.937,6925.633 L1494.957,7071.777 C1499.699,7078.57 1498.036,7087.92 1491.243,7092.663 C1488.629,7094.488 1485.634,7095.364 1482.67,7095.364" fill="#3B3C3A"/>
      <path d="M1380.651,6949.22 C1375.812,6949.22 1371.063,6946.883 1368.171,6942.56 L1292.22,6829.041 C1291.609,6828.176 1282.487,6815.626 1267.304,6815.626 L1199.681,6815.626 C1191.397,6815.626 1184.681,6808.91 1184.681,6800.626 C1184.681,6792.342 1191.397,6785.626 1199.681,6785.626 L1267.304,6785.626 C1298.969,6785.626 1316.392,6811.216 1317.118,6812.305 L1393.104,6925.878 C1397.711,6932.762 1395.864,6942.08 1388.978,6946.686 C1386.417,6948.399 1383.518,6949.22 1380.651,6949.22" fill="#3B3C3A"/>
      <path d="M1409.643,6934.219 C1409.643,6950.238 1396.657,6963.226 1380.637,6963.226 C1364.618,6963.226 1351.632,6950.238 1351.632,6934.219 C1351.632,6918.198 1364.618,6905.212 1380.637,6905.212 C1396.657,6905.212 1409.643,6918.198 1409.643,6934.219" fill="#FFFFFE"/>
      <path d="M1380.637,6978.226 C1356.373,6978.226 1336.632,6958.484 1336.632,6934.219 C1336.632,6909.954 1356.373,6890.212 1380.637,6890.212 C1404.902,6890.212 1424.643,6909.954 1424.643,6934.219 C1424.643,6958.484 1404.902,6978.226 1380.637,6978.226 z M1380.637,6920.212 C1372.915,6920.212 1366.632,6926.495 1366.632,6934.219 C1366.632,6941.942 1372.915,6948.226 1380.637,6948.226 C1388.36,6948.226 1394.643,6941.942 1394.643,6934.219 C1394.643,6926.495 1388.36,6920.212 1380.637,6920.212" fill="#3B3C3A"/>
      <path d="M1384.179,6869.842 L1551.991,6869.842 L1528.46,6840.071 L1547.304,6809.294 L1508.137,6803.46 L1499.375,6765.67 L1384.179,6869.842" fill="#FFFFFE"/>
      <path d="M1551.991,6884.842 L1384.179,6884.842 C1377.975,6884.842 1372.411,6881.022 1370.181,6875.232 C1367.952,6869.442 1369.516,6862.878 1374.119,6858.717 L1489.314,6754.545 C1493.257,6750.979 1498.793,6749.767 1503.863,6751.357 C1508.935,6752.947 1512.787,6757.104 1513.987,6762.283 L1520.443,6790.127 L1549.515,6794.458 C1554.493,6795.2 1558.767,6798.388 1560.896,6802.95 C1563.025,6807.511 1562.725,6812.834 1560.097,6817.127 L1546.717,6838.979 L1563.759,6860.541 C1567.325,6865.051 1567.998,6871.205 1565.491,6876.379 C1562.985,6881.556 1557.741,6884.842 1551.991,6884.842 z M1423.131,6854.842 L1521.015,6854.842 L1516.692,6849.374 C1512.794,6844.44 1512.385,6837.601 1515.667,6832.238 L1522.677,6820.792 L1505.927,6818.297 C1499.834,6817.389 1494.916,6812.849 1493.524,6806.848 L1490.522,6793.899 L1423.131,6854.842" fill="#3B3C3A"/>
    </g>
  </g>
</svg>
