<?xml version="1.0" encoding="UTF-8"?>
<!DOCTYPE svg PUBLIC "-//W3C//DTD SVG 1.1//EN" "http://www.w3.org/Graphics/SVG/1.1/DTD/svg11.dtd">
<svg version="1.1" xmlns="http://www.w3.org/2000/svg" xmlns:xlink="http://www.w3.org/1999/xlink" x="0" y="0" width="410.15" height="431.231" viewBox="0, 0, 410.15, 431.231">
  <g id="Layer_1" transform="translate(-1166.091, -5523.983)">
    <g id="candies">
      <path d="M1576.241,5928.479 C1576.241,5943.244 1484.426,5955.215 1371.166,5955.215 C1257.906,5955.215 1166.091,5943.244 1166.091,5928.479 C1166.091,5913.71 1257.906,5901.739 1371.166,5901.739 C1484.426,5901.739 1576.241,5913.71 1576.241,5928.479" fill="#D6D5D0"/>
      <path d="M1256.266,5734.573 C1235.081,5750.481 1197.438,5791.06 1211.491,5810.155 C1222.956,5825.735 1235.52,5818.282 1248.061,5817.673 C1258.145,5817.183 1263.001,5823.877 1273.726,5822.337 C1283.54,5820.927 1292.128,5813.376 1299.938,5812.365 C1307.749,5811.357 1314.065,5820.379 1324.497,5818.372 C1334.929,5816.366 1341.264,5807.84 1349.54,5806.539 C1357.815,5805.237 1368.954,5812.195 1379.542,5803 C1398.448,5786.574 1355.757,5746.123 1335.311,5729.087 C1314.866,5712.052 1280.169,5716.628 1256.266,5734.573" fill="#70B7D3"/>
      <path d="M1270.569,5837.566 C1263.717,5837.566 1258.467,5835.599 1254.634,5834.162 C1251.78,5833.091 1250.363,5832.578 1248.789,5832.655 C1246.827,5832.75 1244.47,5833.161 1241.974,5833.595 C1238.239,5834.247 1234.006,5834.984 1229.41,5834.984 C1217.286,5834.984 1207.192,5829.621 1199.41,5819.044 C1175.986,5787.217 1227.401,5737.488 1247.26,5722.577 C1263.457,5710.417 1283.804,5703.443 1303.084,5703.443 C1319.363,5703.443 1333.827,5708.326 1344.913,5717.562 C1351.986,5723.456 1365.603,5735.361 1377.347,5748.886 C1391.963,5765.717 1399.13,5779.869 1399.256,5792.15 C1399.346,5800.963 1395.931,5808.63 1389.38,5814.323 C1382.866,5819.979 1375.115,5822.845 1366.34,5822.845 L1366.338,5822.845 C1362.504,5822.845 1359.016,5822.315 1356.215,5821.889 C1354.54,5821.633 1352.807,5821.37 1351.87,5821.37 L1351.81,5821.371 C1350.821,5821.636 1348.205,5823.336 1346.461,5824.469 C1341.891,5827.438 1335.631,5831.506 1327.329,5833.102 C1325.391,5833.475 1323.418,5833.665 1321.467,5833.665 C1313.642,5833.665 1307.531,5830.646 1303.487,5828.648 C1302.708,5828.264 1301.725,5827.778 1301.016,5827.47 C1299.455,5828.014 1296.814,5829.345 1294.955,5830.283 C1289.819,5832.874 1283.428,5836.097 1275.858,5837.184 C1274.088,5837.438 1272.308,5837.566 1270.569,5837.566 z M1249.114,5802.647 C1256.032,5802.647 1261.31,5804.626 1265.165,5806.071 C1267.787,5807.053 1269.218,5807.566 1270.569,5807.566 C1270.891,5807.566 1271.226,5807.542 1271.594,5807.488 C1274.303,5807.099 1277.933,5805.268 1281.445,5803.497 C1286.276,5801.061 1291.752,5798.298 1298.013,5797.489 C1299.057,5797.354 1300.12,5797.286 1301.175,5797.286 C1307.733,5797.286 1312.958,5799.866 1316.772,5801.75 C1318.407,5802.558 1320.646,5803.665 1321.467,5803.665 C1321.502,5803.665 1321.56,5803.662 1321.663,5803.642 C1324.205,5803.153 1326.944,5801.374 1330.117,5799.312 C1334.554,5796.429 1340.076,5792.842 1347.212,5791.72 C1348.709,5791.484 1350.234,5791.37 1351.87,5791.37 C1355.078,5791.37 1358.08,5791.827 1360.728,5792.23 C1362.809,5792.547 1364.774,5792.845 1366.34,5792.845 C1367.671,5792.845 1368.394,5792.668 1369.221,5792.065 C1368.996,5790.188 1367.346,5783.406 1355.719,5769.745 C1344.812,5756.929 1331.098,5745.102 1325.709,5740.61 C1318.6,5734.687 1309.481,5733.443 1303.084,5733.443 C1290.353,5733.443 1276.219,5738.35 1265.272,5746.568 C1255.939,5753.577 1242.308,5766.585 1232.898,5779.848 C1222.855,5794.002 1223.107,5800.632 1223.572,5801.262 C1226.31,5804.984 1227.747,5804.984 1229.41,5804.984 C1231.412,5804.984 1234.042,5804.525 1236.826,5804.042 C1239.961,5803.495 1243.515,5802.876 1247.335,5802.69 C1247.937,5802.661 1248.532,5802.647 1249.114,5802.647" fill="#3B3C3A"/>
      <path d="M1322.069,5626.978 C1343.253,5611.072 1381.557,5575.752 1369.501,5555.677 C1357.13,5535.08 1342.813,5543.27 1330.274,5543.878 C1320.19,5544.368 1315.335,5537.675 1304.61,5539.215 C1294.796,5540.624 1286.208,5548.178 1278.397,5549.186 C1270.587,5550.195 1264.268,5541.173 1253.839,5543.179 C1243.405,5545.186 1237.069,5553.712 1228.796,5555.013 C1220.518,5556.314 1212.145,5552.411 1201.558,5561.606 C1182.647,5578.032 1222.579,5615.428 1243.024,5632.464 C1263.47,5649.5 1298.167,5644.924 1322.069,5626.978" fill="#70B7D3"/>
      <path d="M1275.253,5658.107 L1275.252,5658.107 C1258.972,5658.106 1244.508,5653.224 1233.422,5643.986 C1199.234,5615.5 1181.802,5591.551 1181.609,5572.808 C1181.517,5563.896 1185.015,5556.106 1191.721,5550.281 C1201.964,5541.386 1211.744,5540.245 1219.121,5540.245 C1220.089,5540.245 1221.047,5540.265 1221.998,5540.283 C1222.725,5540.299 1223.446,5540.316 1224.164,5540.316 C1224.819,5540.316 1225.772,5540.303 1226.467,5540.194 C1227.401,5539.987 1230.091,5538.239 1231.871,5537.083 C1236.442,5534.113 1242.703,5530.045 1251.006,5528.448 C1252.944,5528.075 1254.917,5527.886 1256.868,5527.886 C1264.692,5527.886 1270.803,5530.904 1274.846,5532.901 C1275.627,5533.287 1276.61,5533.772 1277.319,5534.08 C1278.883,5533.537 1281.523,5532.206 1283.383,5531.267 C1288.518,5528.677 1294.909,5525.453 1302.478,5524.366 C1304.248,5524.112 1306.027,5523.983 1307.766,5523.983 C1314.619,5523.983 1319.868,5525.952 1323.701,5527.389 C1326.557,5528.459 1327.973,5528.97 1329.546,5528.896 C1331.226,5528.813 1333.381,5528.454 1335.661,5528.073 C1339.338,5527.46 1343.506,5526.765 1348.095,5526.765 C1362.387,5526.765 1373.915,5533.894 1382.359,5547.953 C1391.232,5562.727 1387.054,5581.007 1369.939,5602.291 C1356.2,5619.377 1338.184,5633.635 1331.076,5638.973 C1314.88,5651.133 1294.532,5658.107 1275.253,5658.107 z M1211.59,5572.761 C1211.647,5577.658 1221.337,5594.868 1252.627,5620.939 C1259.736,5626.863 1268.854,5628.107 1275.252,5628.107 C1287.981,5628.107 1302.117,5623.2 1313.063,5614.982 C1317.902,5611.348 1334.623,5598.336 1346.56,5583.49 C1356.983,5570.529 1357.157,5564.257 1356.641,5563.399 C1352.657,5556.765 1350.127,5556.765 1348.095,5556.765 C1345.991,5556.765 1343.373,5557.2 1340.6,5557.665 C1337.71,5558.146 1334.433,5558.693 1331.001,5558.86 C1323.253,5559.234 1317.349,5557.046 1313.17,5555.479 C1310.549,5554.497 1309.117,5553.983 1307.766,5553.983 C1307.444,5553.983 1307.109,5554.009 1306.742,5554.062 C1304.034,5554.45 1300.404,5556.282 1296.893,5558.052 C1292.06,5560.49 1286.583,5563.253 1280.317,5564.062 C1279.278,5564.196 1278.216,5564.264 1277.161,5564.264 C1270.602,5564.264 1265.378,5561.685 1261.563,5559.8 C1259.928,5558.993 1257.688,5557.886 1256.868,5557.886 C1256.834,5557.886 1256.775,5557.889 1256.673,5557.908 C1254.129,5558.397 1251.388,5560.177 1248.216,5562.239 C1243.78,5565.122 1238.259,5568.709 1231.126,5569.831 C1228.356,5570.266 1225.826,5570.316 1224.164,5570.316 C1223.238,5570.316 1222.307,5570.298 1221.368,5570.277 C1220.626,5570.262 1219.877,5570.245 1219.121,5570.245 C1215.904,5570.245 1214.283,5570.478 1211.59,5572.761" fill="#3B3C3A"/>
      <path d="M1374.35,5677.711 C1376.919,5716.924 1359.214,5750.01 1297.206,5754.072 C1243.114,5757.616 1213.325,5727.641 1210.757,5688.428 C1208.186,5649.215 1229.852,5615.869 1287.901,5612.066 C1347.268,5608.176 1371.78,5638.497 1374.35,5677.711" fill="#70B7D3"/>
      <path d="M1288.668,5769.357 C1261.824,5769.357 1238.875,5761.428 1222.3,5746.426 C1206.46,5732.092 1197.293,5712.376 1195.789,5689.408 C1194.164,5664.62 1200.963,5643.015 1215.451,5626.929 C1231.424,5609.196 1255.47,5599.159 1286.921,5597.097 C1290.653,5596.853 1294.346,5596.729 1297.897,5596.729 C1326.518,5596.729 1349.161,5604.586 1365.196,5620.082 C1379.451,5633.857 1387.792,5653.445 1389.318,5676.73 C1390.992,5702.277 1384.939,5723.193 1371.33,5738.897 C1355.874,5756.731 1331.265,5766.873 1298.186,5769.04 C1294.977,5769.25 1291.775,5769.357 1288.668,5769.357 z M1297.897,5626.729 C1294.998,5626.729 1291.965,5626.832 1288.882,5627.034 C1265.506,5628.565 1248.3,5635.285 1237.742,5647.007 C1226.441,5659.554 1224.97,5675.924 1225.724,5687.447 C1227.853,5719.951 1251.384,5739.357 1288.668,5739.357 C1291.124,5739.357 1293.666,5739.272 1296.226,5739.104 C1356.125,5735.18 1360.958,5702.745 1359.383,5678.691 C1357.123,5644.212 1336.435,5626.729 1297.897,5626.729" fill="#3B3C3A"/>
      <path d="M1372.034,5801.262 C1344.741,5807.112 1290.804,5829.284 1295.804,5853.758 C1299.884,5873.725 1315.194,5872.152 1327.458,5877.113 C1337.319,5881.101 1339.005,5889.648 1349.942,5892.915 C1359.952,5895.905 1371.503,5892.477 1379.421,5894.965 C1387.335,5897.451 1389.389,5908.871 1400.253,5911.564 C1411.116,5914.255 1420.944,5908.901 1429.434,5911.314 C1437.925,5913.727 1445.503,5925.304 1459.69,5921.189 C1485.036,5913.837 1462.083,5856.28 1450.058,5830.95 C1438.034,5805.62 1402.825,5794.662 1372.034,5801.262" fill="#E46C79"/>
      <path d="M1453.778,5937.064 L1453.778,5937.064 C1442.778,5937.064 1434.772,5931.773 1429.475,5928.272 C1428.026,5927.315 1426.046,5926.007 1425.272,5925.723 L1425.271,5925.724 C1425.253,5925.724 1424.972,5925.67 1424.36,5925.67 C1422.855,5925.67 1420.716,5925.979 1418.45,5926.306 C1415.089,5926.792 1411.279,5927.341 1406.988,5927.341 C1403.337,5927.341 1399.953,5926.943 1396.646,5926.125 C1385.795,5923.435 1380.046,5916.312 1376.242,5911.6 C1375.59,5910.792 1374.754,5909.757 1374.175,5909.133 C1373.598,5909.06 1372.649,5908.989 1371.127,5908.989 C1369.785,5908.989 1368.288,5909.042 1366.704,5909.094 C1364.839,5909.159 1362.91,5909.224 1360.859,5909.224 C1357.114,5909.224 1351.463,5909.023 1345.65,5907.287 C1336.14,5904.448 1330.874,5899.116 1327.028,5895.223 C1324.691,5892.856 1323.494,5891.689 1321.833,5891.018 C1319.87,5890.224 1317.411,5889.569 1314.807,5888.875 C1304.073,5886.014 1286.106,5881.227 1281.107,5856.761 C1272.902,5816.602 1343.51,5792.034 1368.89,5786.595 C1375.749,5785.125 1382.848,5784.379 1389.993,5784.379 C1423.138,5784.379 1452.034,5800.135 1463.608,5824.518 C1467.757,5833.257 1475.5,5850.616 1480.739,5868.688 C1487.224,5891.054 1487.835,5907.575 1482.608,5919.196 C1478.899,5927.444 1472.42,5933.115 1463.869,5935.595 C1460.506,5936.571 1457.11,5937.064 1453.778,5937.064 z M1424.36,5895.67 C1427.659,5895.67 1430.66,5896.068 1433.535,5896.885 C1438.549,5898.31 1442.515,5900.931 1446.015,5903.244 C1449.612,5905.621 1451.93,5907.064 1453.778,5907.064 C1454.215,5907.064 1454.711,5906.993 1455.257,5906.852 C1455.854,5905.425 1457.86,5898.572 1452.552,5879.258 C1447.791,5861.938 1439.745,5844.204 1436.507,5837.384 C1429.975,5823.625 1411.283,5814.379 1389.993,5814.379 C1384.958,5814.379 1379.973,5814.901 1375.178,5815.929 C1363.092,5818.519 1344.211,5824.968 1329.272,5833.537 C1312.871,5842.946 1310.266,5849.61 1310.5,5850.754 C1311.733,5856.79 1312.998,5857.346 1322.532,5859.887 C1325.748,5860.743 1329.393,5861.715 1333.083,5863.208 C1340.559,5866.23 1345.075,5870.803 1348.372,5874.14 C1351.132,5876.934 1352.19,5877.931 1354.235,5878.542 C1356.282,5879.154 1358.996,5879.224 1360.859,5879.224 C1362.396,5879.224 1363.99,5879.169 1365.677,5879.112 C1367.444,5879.052 1369.271,5878.989 1371.127,5878.989 C1374.614,5878.989 1379.219,5879.179 1383.916,5880.654 C1391.82,5883.137 1396.308,5888.697 1399.586,5892.757 C1401.772,5895.465 1402.906,5896.767 1403.86,5897.003 C1406.425,5897.638 1410.134,5897.196 1414.166,5896.614 C1417.23,5896.172 1420.703,5895.67 1424.36,5895.67" fill="#3B3C3A"/>
      <path d="M1482.52,5727.438 C1509.813,5721.589 1562.059,5704.74 1559.399,5680.208 C1556.671,5655.044 1539.358,5656.549 1527.097,5651.588 C1517.235,5647.599 1515.552,5639.052 1504.612,5635.785 C1494.602,5632.796 1483.052,5636.223 1475.136,5633.737 C1467.22,5631.25 1465.165,5619.828 1454.302,5617.137 C1443.438,5614.446 1433.61,5619.8 1425.12,5617.387 C1416.63,5614.973 1410.346,5607.539 1396.157,5611.654 C1370.811,5619.006 1392.475,5672.421 1404.499,5697.75 C1416.522,5723.079 1451.729,5734.038 1482.52,5727.438" fill="#E46C79"/>
      <path d="M1464.564,5744.321 C1464.562,5744.321 1464.562,5744.321 1464.562,5744.321 C1431.417,5744.32 1402.522,5728.565 1390.948,5704.182 C1370.947,5662.048 1364.861,5631.666 1372.86,5613.881 C1376.612,5605.538 1383.223,5599.787 1391.978,5597.248 C1396.124,5596.046 1400.213,5595.436 1404.133,5595.436 C1413.333,5595.436 1419.947,5598.663 1424.777,5601.02 C1426.556,5601.888 1428.095,5602.638 1429.222,5602.959 C1429.222,5602.959 1429.486,5603.03 1430.192,5603.03 C1431.697,5603.03 1433.837,5602.721 1436.102,5602.394 C1439.464,5601.909 1443.274,5601.36 1447.565,5601.36 C1451.218,5601.36 1454.601,5601.758 1457.909,5602.577 C1468.759,5605.265 1474.508,5612.387 1478.312,5617.099 C1478.965,5617.908 1479.802,5618.944 1480.381,5619.568 C1480.956,5619.641 1481.905,5619.712 1483.427,5619.712 C1484.767,5619.712 1486.264,5619.66 1487.848,5619.606 C1489.715,5619.542 1491.643,5619.476 1493.694,5619.476 C1497.44,5619.476 1503.092,5619.677 1508.905,5621.413 C1518.415,5624.253 1523.682,5629.585 1527.527,5633.479 C1529.864,5635.845 1531.06,5637.011 1532.721,5637.682 C1534.407,5638.365 1536.649,5638.979 1539.022,5639.63 C1550.212,5642.697 1571.039,5648.406 1574.312,5678.593 C1576.229,5696.274 1564.302,5711.64 1538.86,5724.265 C1518.249,5734.493 1494.792,5740.149 1485.665,5742.105 C1478.807,5743.575 1471.706,5744.321 1464.564,5744.321 z M1400.277,5626.077 C1399.782,5627.117 1397.608,5633.165 1402.571,5651.278 C1406.551,5665.805 1413.185,5681.07 1418.05,5691.318 C1424.581,5705.076 1443.272,5714.32 1464.561,5714.321 L1464.563,5714.321 C1469.597,5714.321 1474.581,5713.8 1479.377,5712.771 C1485.636,5711.43 1507.462,5706.356 1525.524,5697.392 C1541.52,5689.454 1544.651,5683.342 1544.487,5681.826 C1543.415,5671.94 1541.049,5671.292 1531.092,5668.562 C1528.135,5667.752 1524.784,5666.834 1521.471,5665.493 C1513.996,5662.47 1509.48,5657.898 1506.183,5654.56 C1503.425,5651.766 1502.366,5650.769 1500.321,5650.159 C1498.271,5649.547 1495.557,5649.476 1493.694,5649.476 C1492.157,5649.476 1490.563,5649.531 1488.876,5649.589 C1487.108,5649.649 1485.281,5649.712 1483.427,5649.712 C1479.941,5649.712 1475.337,5649.523 1470.639,5648.047 C1462.736,5645.564 1458.247,5640.004 1454.97,5635.944 C1452.783,5633.235 1451.648,5631.933 1450.694,5631.697 C1448.129,5631.061 1444.422,5631.505 1440.387,5632.087 C1437.323,5632.529 1433.851,5633.03 1430.194,5633.03 C1426.895,5633.03 1423.894,5632.633 1421.019,5631.816 C1417.331,5630.767 1414.298,5629.287 1411.622,5627.982 C1408.193,5626.309 1406.304,5625.436 1404.133,5625.436 C1403.041,5625.436 1401.763,5625.646 1400.335,5626.06 C1400.314,5626.066 1400.295,5626.072 1400.277,5626.077" fill="#3B3C3A"/>
      <path d="M1510.102,5799.067 C1495.227,5837.706 1463.669,5861.524 1402.569,5838.003 C1349.27,5817.486 1334.028,5775.653 1348.901,5737.013 C1363.776,5698.374 1399.235,5676.057 1456.434,5698.075 C1514.933,5720.595 1524.976,5760.427 1510.102,5799.067" fill="#E46C79"/>
      <path d="M1446.44,5862.344 C1431.581,5862.344 1415.008,5858.864 1397.18,5852.001 C1368.396,5840.921 1347.47,5823.223 1336.661,5800.822 C1326.476,5779.713 1325.851,5755.138 1334.902,5731.625 C1348.906,5695.248 1377.96,5674.385 1414.613,5674.385 C1429.233,5674.385 1445.117,5677.646 1461.823,5684.077 C1493.143,5696.134 1514.214,5713.718 1524.449,5736.343 C1533.594,5756.555 1533.472,5780.107 1524.101,5804.454 C1509.521,5842.327 1482.667,5862.344 1446.44,5862.344 z M1414.613,5704.385 C1383.968,5704.385 1369.576,5725.058 1362.899,5742.401 C1349.612,5776.921 1366.878,5808.19 1407.958,5824.004 C1422.333,5829.538 1435.28,5832.344 1446.44,5832.344 C1469.843,5832.344 1486.088,5819.695 1496.104,5793.678 C1510.398,5756.542 1495.238,5729.086 1451.046,5712.074 C1437.792,5706.972 1425.534,5704.385 1414.613,5704.385" fill="#3B3C3A"/>
    </g>
  </g>
</svg>
