<?xml version="1.0" encoding="UTF-8"?>
<!DOCTYPE svg PUBLIC "-//W3C//DTD SVG 1.1//EN" "http://www.w3.org/Graphics/SVG/1.1/DTD/svg11.dtd">
<svg version="1.1" xmlns="http://www.w3.org/2000/svg" xmlns:xlink="http://www.w3.org/1999/xlink" x="0" y="0" width="418.531" height="358.066" viewBox="0, 0, 418.531, 358.066">
  <g id="Layer_1" transform="translate(-587.132, -4982.25)">
    <g id="heart">
      <path d="M997.281,5313.581 C997.281,5328.346 905.466,5340.316 792.206,5340.316 C678.946,5340.316 587.132,5328.346 587.132,5313.581 C587.132,5298.811 678.946,5286.841 792.206,5286.841 C905.466,5286.841 997.281,5298.811 997.281,5313.581" fill="#D6D5D0"/>
      <path d="M987.054,5091.825 C962.559,4965.854 842.419,4987.357 798.095,5032.848 C753.77,4987.357 633.632,4965.854 609.137,5091.825 C584.643,5217.797 690.784,5256.29 731.61,5269.119 C772.434,5281.95 785.264,5298.279 798.095,5311.11 C810.927,5298.279 823.757,5281.95 864.581,5269.119 C905.405,5256.29 1011.548,5217.797 987.054,5091.825" fill="#FAD916"/>
      <path d="M798.095,5326.111 C798.095,5326.111 798.095,5326.111 798.094,5326.111 C794.116,5326.111 790.301,5324.531 787.487,5321.718 C786.185,5320.416 784.884,5319.078 783.554,5317.715 C772.137,5305.992 760.332,5293.869 727.113,5283.429 C702.04,5275.551 665.273,5261.833 635.583,5233.809 C617.903,5217.121 605.246,5197.534 597.963,5175.594 C589.429,5149.884 588.235,5120.737 594.413,5088.963 C601.441,5052.817 616.302,5025.131 638.582,5006.674 C657.869,4990.695 682.376,4982.25 709.453,4982.25 C740.981,4982.25 774.284,4993.928 798.095,5012.733 C821.905,4993.928 855.208,4982.25 886.737,4982.25 C913.811,4982.25 938.318,4990.696 957.608,5006.677 C979.889,5025.136 994.75,5052.821 1001.778,5088.963 C1007.956,5120.737 1006.762,5149.884 998.227,5175.594 C990.945,5197.534 978.288,5217.121 960.607,5233.809 C930.918,5261.833 894.151,5275.55 869.078,5283.43 C835.861,5293.869 824.054,5305.991 812.637,5317.713 C811.306,5319.078 810.004,5320.416 808.701,5321.718 C805.887,5324.531 802.072,5326.111 798.095,5326.111 z M709.453,5012.25 C683.473,5012.25 637.808,5022.96 623.862,5094.688 C608.468,5173.86 645.183,5226.236 736.107,5254.81 C769.577,5265.328 786.17,5278.258 798.096,5289.794 C810.021,5278.258 826.614,5265.328 860.084,5254.81 C951.008,5226.235 987.723,5173.859 972.329,5094.688 C958.383,5022.96 912.717,5012.25 886.737,5012.25 C858.249,5012.25 826.944,5024.734 808.838,5043.316 C806.015,5046.214 802.14,5047.848 798.095,5047.848 C794.049,5047.848 790.175,5046.214 787.351,5043.316 C769.245,5024.734 737.94,5012.25 709.453,5012.25" fill="#3B3C3A"/>
      <path d="M846.924,5107.887 C846.924,5114.323 841.709,5119.539 835.273,5119.539 C828.84,5119.539 823.621,5114.323 823.621,5107.887 C823.621,5101.451 828.84,5096.237 835.273,5096.237 C841.709,5096.237 846.924,5101.451 846.924,5107.887" fill="#3B3C3A"/>
      <path d="M775.919,5107.887 C775.919,5114.323 770.704,5119.539 764.267,5119.539 C757.833,5119.539 752.616,5114.323 752.616,5107.887 C752.616,5101.451 757.833,5096.237 764.267,5096.237 C770.704,5096.237 775.919,5101.451 775.919,5107.887" fill="#3B3C3A"/>
      <path d="M798.745,5137.859 L747.341,5137.859 C747.341,5137.859 750.938,5171.29 798.745,5171.29 C846.55,5171.29 850.149,5137.859 850.149,5137.859 L798.745,5137.859" fill="#3B3C3A"/>
    </g>
  </g>
</svg>
