<?xml version="1.0" encoding="UTF-8"?>
<!DOCTYPE svg PUBLIC "-//W3C//DTD SVG 1.1//EN" "http://www.w3.org/Graphics/SVG/1.1/DTD/svg11.dtd">
<svg version="1.1" xmlns="http://www.w3.org/2000/svg" xmlns:xlink="http://www.w3.org/1999/xlink" x="0" y="0" width="418.936" height="431.054" viewBox="0, 0, 418.936, 431.054">
  <g id="Layer_1" transform="translate(-12.259, -4293.889)">
    <g id="jellyfish">
      <path d="M422.409,4698.209 C422.409,4712.975 330.595,4724.943 217.335,4724.943 C104.075,4724.943 12.259,4712.975 12.259,4698.209 C12.259,4683.439 104.075,4671.469 217.335,4671.469 C330.595,4671.469 422.409,4683.439 422.409,4698.209" fill="#D6D5D0"/>
      <path d="M187.156,4624.225 C187.156,4624.225 171.822,4648.225 188.489,4660.891 C207.314,4675.199 228.488,4655.559 228.488,4655.559 C228.488,4655.559 234.669,4674.076 256.488,4676.89 C277.155,4679.559 282.488,4659.557 282.488,4659.557 C282.488,4659.557 294.488,4680.224 314.488,4680.224 C334.488,4680.224 341.155,4657.557 341.155,4657.557 C341.155,4657.557 366.462,4674.719 381.156,4660.891 C392.491,4650.224 393.821,4635.557 381.156,4622.89 C368.491,4610.226 421.044,4575.633 415.824,4518.223 C410.491,4459.557 357.823,4419.557 290.49,4419.557 C223.157,4419.557 169.823,4456.223 159.824,4510.223 C149.825,4564.223 202.657,4596.891 187.156,4624.225" fill="#FFFFFE"/>
      <path d="M314.488,4695.224 C302.242,4695.224 291.848,4690.035 283.927,4683.615 C278.119,4688.515 270.304,4692.135 260.187,4692.135 C258.352,4692.135 256.462,4692.012 254.567,4691.767 C240.682,4689.977 230.71,4683.424 224.047,4676.227 C218.348,4678.918 211.34,4681.111 203.625,4681.111 C203.624,4681.111 203.623,4681.111 203.622,4681.111 C194.784,4681.109 186.639,4678.324 179.412,4672.832 C167.887,4664.074 163.347,4650.078 166.957,4634.433 C168.977,4625.678 172.977,4618.666 174.201,4616.654 C176.903,4611.512 172.275,4602.375 164.372,4588.023 C153.568,4568.404 138.771,4541.533 145.075,4507.49 C150.629,4477.496 168.402,4450.795 195.121,4432.305 C221.353,4414.152 254.331,4404.557 290.49,4404.557 C326.592,4404.557 360.378,4415.389 385.625,4435.056 C411.79,4455.439 427.819,4484.492 430.763,4516.863 C434.306,4555.836 415.255,4584.967 402.649,4604.244 C400.159,4608.051 396.989,4612.898 395.278,4616.146 C401.902,4624.182 405.302,4633.256 405.159,4642.65 C404.997,4653.281 400.123,4663.639 391.435,4671.814 C384.857,4678.004 376.311,4681.277 366.722,4681.277 C359.865,4681.277 353.238,4679.592 347.675,4677.517 C340.892,4686.83 330.064,4695.224 314.488,4695.224 z M295.428,4651.967 C295.931,4652.764 303.998,4665.224 314.488,4665.224 C322.566,4665.224 326.46,4654.215 326.785,4653.25 C328.073,4648.611 331.471,4645.015 335.989,4643.344 C340.532,4641.66 345.564,4642.424 349.574,4645.141 C351.928,4646.705 360.263,4651.277 366.722,4651.277 C369.484,4651.277 370.425,4650.393 370.877,4649.967 C372.806,4648.15 375.114,4645.33 375.162,4642.195 C375.213,4638.869 372.681,4635.629 370.549,4633.496 C366.588,4629.535 360.817,4620.766 366.688,4606.547 C369.075,4600.769 372.998,4594.771 377.541,4587.824 C389.099,4570.15 403.483,4548.154 400.885,4519.58 C396.335,4469.519 350.938,4434.557 290.49,4434.557 C229.84,4434.557 183.256,4466.062 174.573,4512.953 C170.222,4536.453 180.607,4555.314 190.651,4573.553 C200.941,4592.238 211.581,4611.561 200.204,4631.623 C200.042,4631.91 199.977,4632.025 199.797,4632.301 C199.798,4632.301 197.115,4636.68 196.081,4641.67 C194.98,4646.982 196.536,4648.166 197.565,4648.947 C199.533,4650.443 201.402,4651.111 203.624,4651.111 C209.874,4651.111 216.886,4645.861 218.286,4644.562 C222.102,4641.021 227.391,4639.424 232.406,4640.814 C237.381,4642.195 241.205,4645.75 242.681,4650.686 C243.302,4652.219 247.181,4660.564 258.407,4662.014 C259.033,4662.094 259.632,4662.135 260.187,4662.135 C265.298,4662.135 267.343,4657.672 268.019,4655.584 C269.422,4649.582 274.235,4645.221 280.344,4644.334 C286.46,4643.441 292.383,4646.582 295.428,4651.967" fill="#3B3C3A"/>
      <path d="M59.156,4513.558 C59.156,4513.558 43.822,4537.557 60.489,4550.225 C79.314,4564.531 100.488,4544.89 100.488,4544.89 C100.488,4544.89 106.669,4563.408 128.488,4566.224 C149.155,4568.89 154.488,4548.891 154.488,4548.891 C154.488,4548.891 166.488,4569.557 186.488,4569.557 C206.488,4569.557 213.155,4546.891 213.155,4546.891 C213.155,4546.891 238.462,4564.051 253.156,4550.225 C264.491,4539.558 265.821,4524.889 253.156,4512.224 C240.491,4499.559 293.044,4464.965 287.824,4407.557 C282.491,4348.889 229.823,4308.889 162.49,4308.889 C95.157,4308.889 41.823,4345.557 31.824,4399.557 C21.825,4453.557 74.657,4486.225 59.156,4513.558" fill="#FFFFFE"/>
      <path d="M186.488,4584.557 C174.244,4584.557 163.848,4579.365 155.928,4572.949 C150.119,4577.849 142.305,4581.469 132.185,4581.469 C130.351,4581.469 128.462,4581.346 126.569,4581.101 C112.681,4579.308 102.71,4572.758 96.046,4565.559 C90.348,4568.25 83.338,4570.443 75.622,4570.443 C75.621,4570.443 75.622,4570.443 75.621,4570.443 C66.784,4570.443 58.639,4567.658 51.413,4562.166 C39.887,4553.406 35.346,4539.41 38.957,4523.767 C40.977,4515.012 44.977,4508.002 46.201,4505.988 C48.903,4500.846 44.275,4491.709 36.372,4477.357 C25.568,4457.738 10.771,4430.867 17.075,4396.824 C22.629,4366.83 40.402,4340.129 67.121,4321.639 C93.353,4303.484 126.331,4293.889 162.49,4293.889 C198.592,4293.889 232.378,4304.721 257.626,4324.389 C283.79,4344.771 299.82,4373.824 302.763,4406.199 C306.306,4445.168 287.256,4474.299 274.649,4493.574 C272.16,4497.383 268.989,4502.232 267.278,4505.48 C273.901,4513.512 277.302,4522.586 277.159,4531.982 C276.997,4542.615 272.124,4552.973 263.435,4561.148 C256.857,4567.338 248.311,4570.609 238.723,4570.609 C231.865,4570.609 225.237,4568.926 219.675,4566.85 C212.892,4576.162 202.064,4584.557 186.488,4584.557 z M167.428,4541.301 C167.931,4542.098 175.998,4554.557 186.488,4554.557 C194.567,4554.557 198.46,4543.547 198.785,4542.584 C200.073,4537.945 203.471,4534.349 207.989,4532.678 C212.532,4530.994 217.564,4531.758 221.573,4534.475 C223.928,4536.039 232.262,4540.609 238.723,4540.609 C241.485,4540.609 242.426,4539.725 242.877,4539.299 C244.806,4537.484 247.115,4534.664 247.162,4531.527 C247.213,4528.203 244.681,4524.963 242.55,4522.832 C238.587,4518.867 232.817,4510.097 238.689,4495.881 C241.075,4490.103 244.999,4484.103 249.542,4477.156 C261.099,4459.482 275.483,4437.486 272.886,4408.914 C268.335,4358.852 222.938,4323.889 162.49,4323.889 C101.84,4323.889 55.257,4355.394 46.573,4402.287 C42.221,4425.787 52.607,4444.648 62.651,4462.887 C72.941,4481.572 83.581,4500.895 72.204,4520.957 C72.042,4521.244 71.977,4521.359 71.797,4521.635 C71.798,4521.635 69.115,4526.014 68.081,4531.004 C66.98,4536.316 68.536,4537.5 69.566,4538.281 C71.533,4539.777 73.4,4540.443 75.622,4540.443 C81.583,4540.443 88.339,4535.619 90.321,4533.859 C94.109,4530.254 99.328,4528.678 104.379,4530.033 C109.404,4531.385 113.194,4535.041 114.681,4540.018 C115.302,4541.551 119.181,4549.898 130.408,4551.347 C131.032,4551.428 131.63,4551.469 132.185,4551.469 C137.298,4551.469 139.343,4547.006 140.019,4544.918 C141.421,4538.916 146.234,4534.555 152.343,4533.668 C158.463,4532.767 164.381,4535.916 167.428,4541.301" fill="#3B3C3A"/>
      <path d="M209.436,4378.68 C209.436,4385.115 204.222,4390.332 197.786,4390.332 C191.352,4390.332 186.134,4385.115 186.134,4378.68 C186.134,4372.244 191.352,4367.029 197.786,4367.029 C204.222,4367.029 209.436,4372.244 209.436,4378.68" fill="#3B3C3A"/>
      <path d="M138.431,4378.68 C138.431,4385.115 133.217,4390.332 126.779,4390.332 C120.345,4390.332 115.129,4385.115 115.129,4378.68 C115.129,4372.244 120.345,4367.029 126.779,4367.029 C133.217,4367.029 138.431,4372.244 138.431,4378.68" fill="#3B3C3A"/>
      <path d="M161.258,4408.651 L109.853,4408.651 C109.853,4408.651 113.451,4442.083 161.258,4442.083 C209.062,4442.083 212.662,4408.651 212.662,4408.651 L161.258,4408.651" fill="#3B3C3A"/>
    </g>
  </g>
</svg>
