<?xml version="1.0" encoding="UTF-8"?>
<!DOCTYPE svg PUBLIC "-//W3C//DTD SVG 1.1//EN" "http://www.w3.org/Graphics/SVG/1.1/DTD/svg11.dtd">
<svg version="1.1" xmlns="http://www.w3.org/2000/svg" xmlns:xlink="http://www.w3.org/1999/xlink" x="0" y="0" width="420.601" height="374.774" viewBox="0, 0, 420.601, 374.774">
  <g id="Layer_1" transform="translate(-3.924, -1276.411)">
    <g id="nappy">
      <path d="M414.074,1624.451 C414.074,1639.216 322.26,1651.185 209,1651.185 C95.74,1651.185 3.924,1639.216 3.924,1624.451 C3.924,1609.681 95.74,1597.71 209,1597.71 C322.26,1597.71 414.074,1609.681 414.074,1624.451" fill="#D6D5D0"/>
      <path d="M215.037,1291.411 C57.795,1291.411 20.549,1306.587 20.549,1336.746 C20.549,1364.809 20.549,1426.738 20.549,1448.038 C20.549,1469.343 37.587,1480.362 65.556,1487.414 C102.462,1496.72 142.408,1525.701 151.381,1553.274 C160.353,1580.848 186.35,1578.922 215.037,1578.922 C243.723,1578.922 269.721,1580.848 278.693,1553.274 C287.666,1525.701 327.612,1496.72 364.518,1487.414 C392.487,1480.362 409.525,1469.343 409.525,1448.038 C409.525,1426.738 409.525,1364.809 409.525,1336.746 C409.525,1306.587 372.279,1291.411 215.037,1291.411" fill="#FFFFFE"/>
      <path d="M225.437,1593.951 C223.725,1593.951 221.997,1593.944 220.255,1593.936 C216.802,1593.922 213.272,1593.922 209.819,1593.936 C208.078,1593.944 206.349,1593.951 204.637,1593.951 C191.89,1593.951 178.459,1593.589 166.657,1589.271 C152.093,1583.942 142.153,1573.393 137.117,1557.916 C130.132,1536.451 94.978,1510.302 61.889,1501.959 C47.954,1498.446 5.549,1487.754 5.549,1448.038 L5.549,1336.746 C5.549,1301.179 42.797,1291.452 55.037,1288.255 C85.983,1280.175 136.825,1276.411 215.037,1276.411 C293.249,1276.411 344.091,1280.175 375.037,1288.255 C387.277,1291.452 424.525,1301.179 424.525,1336.746 L424.525,1448.038 C424.525,1487.754 382.12,1498.446 368.185,1501.959 C335.096,1510.302 299.942,1536.451 292.957,1557.916 C281.231,1593.951 247.655,1593.951 225.437,1593.951 z M215.037,1563.922 C216.83,1563.922 218.612,1563.929 220.38,1563.936 C222.08,1563.944 223.766,1563.951 225.437,1563.951 C252.77,1563.951 260.423,1560.944 264.43,1548.633 C275.847,1513.548 322.42,1482.56 360.851,1472.869 C394.525,1464.379 394.525,1453.749 394.525,1448.038 L394.525,1336.746 C394.525,1332.414 394.525,1324.35 367.457,1317.282 C339.054,1309.866 290.621,1306.411 215.037,1306.411 C139.453,1306.411 91.02,1309.866 62.617,1317.282 C35.549,1324.35 35.549,1332.414 35.549,1336.746 L35.549,1448.038 C35.549,1453.749 35.549,1464.379 69.223,1472.869 C107.654,1482.56 154.227,1513.548 165.644,1548.633 C169.651,1560.944 177.304,1563.951 204.637,1563.951 C206.308,1563.951 207.994,1563.944 209.694,1563.936 C211.462,1563.929 213.244,1563.922 215.037,1563.922" fill="#3B3C3A"/>
      <path d="M20.549,1364.412 L63.619,1364.412 L63.619,1423.357 L20.549,1423.357 z" fill="#C2D54A"/>
      <path d="M63.619,1438.357 L20.549,1438.357 C12.264,1438.357 5.549,1431.642 5.549,1423.357 L5.549,1364.412 C5.549,1356.128 12.264,1349.412 20.549,1349.412 L63.619,1349.412 C71.903,1349.412 78.619,1356.128 78.619,1364.412 L78.619,1423.357 C78.619,1431.642 71.903,1438.357 63.619,1438.357 z M35.549,1408.357 L48.619,1408.357 L48.619,1379.412 L35.549,1379.412 z" fill="#3B3C3A"/>
      <path d="M365.794,1364.412 L409.526,1364.412 L409.526,1423.357 L365.794,1423.357 z" fill="#C2D54A"/>
      <path d="M409.525,1438.357 L365.794,1438.357 C357.51,1438.357 350.794,1431.642 350.794,1423.357 L350.794,1364.412 C350.794,1356.128 357.51,1349.412 365.794,1349.412 L409.525,1349.412 C417.809,1349.412 424.525,1356.128 424.525,1364.412 L424.525,1423.357 C424.525,1431.642 417.809,1438.357 409.525,1438.357 z M380.794,1408.357 L394.526,1408.357 L394.526,1379.412 L380.794,1379.412 z" fill="#3B3C3A"/>
      <path d="M58.001,1492.749 C56.726,1492.749 55.431,1492.505 54.18,1491.986 C49.077,1489.874 46.652,1484.024 48.765,1478.922 L59.994,1451.802 C62.106,1446.699 67.955,1444.275 73.058,1446.388 C78.161,1448.501 80.586,1454.35 78.473,1459.452 L67.244,1486.572 C65.649,1490.425 61.926,1492.749 58.001,1492.749" fill="#3B3C3A"/>
      <path d="M94.125,1505.38 C92.85,1505.38 91.555,1505.136 90.304,1504.617 C85.201,1502.505 82.776,1496.655 84.889,1491.553 L96.118,1464.433 C98.23,1459.33 104.081,1456.905 109.182,1459.018 C114.285,1461.132 116.71,1466.98 114.597,1472.083 L103.368,1499.203 C101.773,1503.056 98.05,1505.38 94.125,1505.38" fill="#3B3C3A"/>
      <path d="M122.159,1523.39 C120.121,1523.39 118.065,1522.77 116.29,1521.481 C111.822,1518.235 110.83,1511.981 114.076,1507.514 L130.384,1485.06 C133.628,1480.591 139.881,1479.601 144.351,1482.845 C148.819,1486.091 149.811,1492.345 146.565,1496.813 L130.258,1519.266 C128.302,1521.96 125.252,1523.39 122.159,1523.39" fill="#3B3C3A"/>
      <path d="M146.466,1552.082 C143.632,1552.082 140.816,1550.884 138.838,1548.554 C135.264,1544.345 135.778,1538.034 139.988,1534.459 L159.711,1517.713 C163.922,1514.139 170.23,1514.653 173.806,1518.864 C177.381,1523.073 176.866,1529.385 172.656,1532.959 L152.933,1549.705 C151.053,1551.302 148.753,1552.082 146.466,1552.082" fill="#3B3C3A"/>
      <path d="M365.798,1492.749 C361.873,1492.749 358.149,1490.425 356.555,1486.572 L345.326,1459.452 C343.213,1454.35 345.638,1448.501 350.74,1446.388 C355.845,1444.275 361.692,1446.699 363.805,1451.802 L375.033,1478.922 C377.146,1484.024 374.722,1489.874 369.619,1491.986 C368.368,1492.505 367.072,1492.749 365.798,1492.749" fill="#3B3C3A"/>
      <path d="M329.674,1505.38 C325.749,1505.38 322.025,1503.056 320.431,1499.203 L309.202,1472.083 C307.089,1466.98 309.514,1461.132 314.616,1459.018 C319.721,1456.905 325.568,1459.33 327.681,1464.433 L338.909,1491.553 C341.022,1496.655 338.598,1502.505 333.495,1504.617 C332.244,1505.136 330.948,1505.38 329.674,1505.38" fill="#3B3C3A"/>
      <path d="M301.639,1523.39 C298.547,1523.39 295.497,1521.96 293.541,1519.266 L277.233,1496.813 C273.987,1492.345 274.979,1486.091 279.447,1482.845 C283.914,1479.601 290.169,1480.59 293.415,1485.06 L309.723,1507.514 C312.969,1511.981 311.976,1518.235 307.509,1521.481 C305.734,1522.77 303.678,1523.39 301.639,1523.39" fill="#3B3C3A"/>
      <path d="M277.333,1552.082 C275.045,1552.082 272.746,1551.302 270.865,1549.705 L251.142,1532.959 C246.932,1529.385 246.418,1523.073 249.992,1518.864 C253.565,1514.653 259.877,1514.139 264.088,1517.713 L283.81,1534.459 C288.02,1538.034 288.535,1544.345 284.961,1548.554 C282.983,1550.884 280.167,1552.082 277.333,1552.082" fill="#3B3C3A"/>
      <path d="M58.005,1334.56 C52.387,1334.56 47.832,1330.005 47.832,1324.387 L47.832,1298.695 C47.832,1293.077 52.387,1288.522 58.005,1288.522 C63.623,1288.522 68.178,1293.077 68.178,1298.695 L68.178,1324.387 C68.178,1330.005 63.623,1334.56 58.005,1334.56" fill="#3B3C3A"/>
      <path d="M97.262,1332.56 C91.644,1332.56 87.09,1328.005 87.09,1322.387 L87.09,1296.695 C87.09,1291.077 91.644,1286.522 97.262,1286.522 C102.881,1286.522 107.435,1291.077 107.435,1296.695 L107.435,1322.387 C107.435,1328.005 102.881,1332.56 97.262,1332.56" fill="#3B3C3A"/>
      <path d="M136.52,1330.559 C130.902,1330.559 126.348,1326.005 126.348,1320.387 L126.348,1294.695 C126.348,1289.077 130.902,1284.522 136.52,1284.522 C142.139,1284.522 146.693,1289.077 146.693,1294.695 L146.693,1320.387 C146.693,1326.005 142.139,1330.559 136.52,1330.559" fill="#3B3C3A"/>
      <path d="M175.779,1328.56 C170.161,1328.56 165.606,1324.005 165.606,1318.387 L165.606,1292.695 C165.606,1287.077 170.161,1282.522 175.779,1282.522 C181.397,1282.522 185.952,1287.077 185.952,1292.695 L185.952,1318.387 C185.952,1324.005 181.397,1328.56 175.779,1328.56" fill="#3B3C3A"/>
      <path d="M215.037,1326.56 C209.419,1326.56 204.864,1322.005 204.864,1316.387 L204.864,1290.695 C204.864,1285.077 209.419,1280.522 215.037,1280.522 C220.655,1280.522 225.21,1285.077 225.21,1290.695 L225.21,1316.387 C225.21,1322.005 220.655,1326.56 215.037,1326.56" fill="#3B3C3A"/>
      <path d="M254.295,1328.56 C248.677,1328.56 244.122,1324.005 244.122,1318.387 L244.122,1292.695 C244.122,1287.077 248.677,1282.522 254.295,1282.522 C259.913,1282.522 264.468,1287.077 264.468,1292.695 L264.468,1318.387 C264.468,1324.005 259.913,1328.56 254.295,1328.56" fill="#3B3C3A"/>
      <path d="M293.554,1330.559 C287.935,1330.559 283.381,1326.005 283.381,1320.387 L283.381,1294.695 C283.381,1289.077 287.935,1284.522 293.554,1284.522 C299.172,1284.522 303.726,1289.077 303.726,1294.695 L303.726,1320.387 C303.726,1326.005 299.172,1330.559 293.554,1330.559" fill="#3B3C3A"/>
      <path d="M332.811,1332.56 C327.193,1332.56 322.639,1328.005 322.639,1322.387 L322.639,1296.695 C322.639,1291.077 327.193,1286.522 332.811,1286.522 C338.43,1286.522 342.984,1291.077 342.984,1296.695 L342.984,1322.387 C342.984,1328.005 338.43,1332.56 332.811,1332.56" fill="#3B3C3A"/>
      <path d="M372.069,1334.56 C366.451,1334.56 361.896,1330.005 361.896,1324.387 L361.896,1298.695 C361.896,1293.077 366.451,1288.522 372.069,1288.522 C377.687,1288.522 382.242,1293.077 382.242,1298.695 L382.242,1324.387 C382.242,1330.005 377.687,1334.56 372.069,1334.56" fill="#3B3C3A"/>
      <path d="M259.93,1375.944 C259.93,1382.38 254.715,1387.597 248.28,1387.597 C241.846,1387.597 236.627,1382.38 236.627,1375.944 C236.627,1369.509 241.846,1364.294 248.28,1364.294 C254.715,1364.294 259.93,1369.509 259.93,1375.944" fill="#3B3C3A"/>
      <path d="M188.925,1375.944 C188.925,1382.38 183.71,1387.597 177.273,1387.597 C170.839,1387.597 165.622,1382.38 165.622,1375.944 C165.622,1369.509 170.839,1364.294 177.273,1364.294 C183.71,1364.294 188.925,1369.509 188.925,1375.944" fill="#3B3C3A"/>
      <path d="M211.751,1405.917 L160.347,1405.917 C160.347,1405.917 163.945,1439.347 211.751,1439.347 C259.556,1439.347 263.156,1405.917 263.156,1405.917 L211.751,1405.917" fill="#3B3C3A"/>
    </g>
  </g>
</svg>
