<?xml version="1.0" encoding="UTF-8"?>
<!DOCTYPE svg PUBLIC "-//W3C//DTD SVG 1.1//EN" "http://www.w3.org/Graphics/SVG/1.1/DTD/svg11.dtd">
<svg version="1.1" xmlns="http://www.w3.org/2000/svg" xmlns:xlink="http://www.w3.org/1999/xlink" x="0" y="0" width="419.569" height="443.091" viewBox="0, 0, 419.569, 443.091">
  <g id="Layer_1" transform="translate(-1745.051, -6127.021)">
    <g id="rabbit">
      <path d="M2155.201,6543.378 C2155.201,6558.143 2063.386,6570.112 1950.126,6570.112 C1836.866,6570.112 1745.051,6558.143 1745.051,6543.378 C1745.051,6528.608 1836.866,6516.637 1950.126,6516.637 C2063.386,6516.637 2155.201,6528.608 2155.201,6543.378" fill="#D6D5D0"/>
      <path d="M1941.421,6266.452 C1941.421,6266.452 1941.421,6196.693 1941.421,6180.172 C1941.421,6163.65 1934.337,6142.021 1893.479,6142.021 C1852.624,6142.021 1834.948,6158.89 1834.948,6197.352 C1834.948,6235.813 1834.948,6278.166 1834.948,6278.166 L1941.421,6266.452" fill="#FFFFFE"/>
      <path d="M1834.947,6293.166 C1831.272,6293.166 1827.703,6291.814 1824.938,6289.336 C1821.762,6286.492 1819.948,6282.429 1819.948,6278.166 L1819.948,6197.352 C1819.948,6173.579 1826.042,6156.25 1838.576,6144.375 C1850.901,6132.697 1868.86,6127.021 1893.479,6127.021 C1950.288,6127.021 1956.421,6164.191 1956.421,6180.172 L1956.421,6266.452 C1956.421,6274.102 1950.665,6280.525 1943.061,6281.362 L1836.589,6293.076 C1836.041,6293.135 1835.493,6293.166 1834.947,6293.166 z M1893.479,6157.021 C1860.932,6157.021 1849.948,6167.197 1849.948,6197.352 L1849.948,6261.423 L1926.421,6253.012 L1926.421,6180.172 C1926.421,6172.082 1926.421,6157.021 1893.479,6157.021" fill="#3B3C3A"/>
      <path d="M1871.776,6259.855 C1871.776,6259.855 1871.776,6214.855 1871.776,6203.855 C1871.776,6180.98 1908.682,6181.98 1908.682,6203.855 C1908.682,6220.855 1908.682,6259.855 1908.682,6259.855 L1871.776,6259.855" fill="#E46C77"/>
      <path d="M1908.682,6269.855 L1871.776,6269.855 C1866.254,6269.855 1861.776,6265.378 1861.776,6259.855 L1861.776,6203.855 C1861.776,6188.336 1873.612,6177.072 1889.92,6177.072 C1906.317,6177.072 1918.682,6188.587 1918.682,6203.855 L1918.682,6259.855 C1918.682,6265.378 1914.206,6269.855 1908.682,6269.855 z M1881.776,6249.855 L1898.682,6249.855 L1898.682,6203.855 C1898.682,6197.262 1890.817,6197.072 1889.92,6197.072 C1887.471,6197.072 1881.776,6197.733 1881.776,6203.855 L1881.776,6249.855" fill="#3B3C3A"/>
      <path d="M1987.821,6266.452 C1987.821,6266.452 1987.821,6196.693 1987.821,6180.172 C1987.821,6163.65 1994.905,6142.021 2035.761,6142.021 C2076.618,6142.021 2094.292,6158.89 2094.292,6197.352 C2094.292,6235.813 2094.292,6278.166 2094.292,6278.166 L1987.821,6266.452" fill="#FFFFFE"/>
      <path d="M2094.293,6293.166 C2093.747,6293.166 2093.199,6293.135 2092.651,6293.076 L1986.18,6281.362 C1978.577,6280.525 1972.821,6274.102 1972.821,6266.452 L1972.821,6180.172 C1972.821,6164.191 1978.954,6127.021 2035.761,6127.021 C2060.381,6127.021 2078.34,6132.697 2090.665,6144.375 C2103.199,6156.25 2109.292,6173.579 2109.292,6197.352 L2109.292,6278.166 C2109.292,6282.429 2107.477,6286.492 2104.302,6289.336 C2101.537,6291.814 2097.967,6293.166 2094.293,6293.166 z M2002.821,6253.012 L2079.292,6261.423 L2079.292,6197.352 C2079.292,6167.197 2068.307,6157.021 2035.761,6157.021 C2002.821,6157.021 2002.821,6172.082 2002.821,6180.172 L2002.821,6253.012" fill="#3B3C3A"/>
      <path d="M2057.464,6259.855 C2057.464,6259.855 2057.464,6214.855 2057.464,6203.855 C2057.464,6180.98 2020.557,6181.98 2020.557,6203.855 C2020.557,6220.855 2020.557,6259.855 2020.557,6259.855 L2057.464,6259.855" fill="#E46C77"/>
      <path d="M2057.464,6269.855 L2020.557,6269.855 C2015.035,6269.855 2010.557,6265.378 2010.557,6259.855 L2010.557,6203.855 C2010.557,6188.587 2022.923,6177.072 2039.32,6177.072 C2055.628,6177.072 2067.464,6188.336 2067.464,6203.855 L2067.464,6259.855 C2067.464,6265.378 2062.986,6269.855 2057.464,6269.855 z M2030.557,6249.855 L2047.464,6249.855 L2047.464,6203.855 C2047.464,6197.733 2041.768,6197.072 2039.32,6197.072 C2038.423,6197.072 2030.557,6197.262 2030.557,6203.855 L2030.557,6249.855" fill="#3B3C3A"/>
      <path d="M1964.62,6235.984 C1858.298,6235.984 1779.62,6288.984 1779.62,6385.985 C1779.62,6482.985 1864.679,6532.985 1964.62,6532.985 C2064.563,6532.985 2149.62,6482.985 2149.62,6385.985 C2149.62,6288.984 2070.942,6235.984 1964.62,6235.984" fill="#FFFFFE"/>
      <path d="M1964.62,6547.985 C1910.468,6547.985 1861.168,6533.777 1825.802,6507.978 C1785.776,6478.781 1764.62,6436.596 1764.62,6385.985 C1764.62,6285.751 1843.125,6220.984 1964.62,6220.984 C2086.115,6220.984 2164.62,6285.751 2164.62,6385.985 C2164.62,6436.596 2143.464,6478.781 2103.438,6507.978 C2068.073,6533.777 2018.772,6547.985 1964.62,6547.985 z M1964.62,6250.984 C1882.436,6250.984 1794.62,6286.449 1794.62,6385.985 C1794.62,6483.415 1886.198,6517.985 1964.62,6517.985 C2043.042,6517.985 2134.62,6483.415 2134.62,6385.985 C2134.62,6286.449 2046.804,6250.984 1964.62,6250.984" fill="#3B3C3A"/>
      <path d="M1921.87,6316.059 C1921.87,6321.857 1917.169,6326.559 1911.37,6326.559 C1905.571,6326.559 1900.87,6321.857 1900.87,6316.059 C1900.87,6310.26 1905.571,6305.559 1911.37,6305.559 C1917.169,6305.559 1921.87,6310.26 1921.87,6316.059" fill="#3B3C3A"/>
      <path d="M2028.37,6316.059 C2028.37,6321.857 2023.669,6326.559 2017.87,6326.559 C2012.071,6326.559 2007.37,6321.857 2007.37,6316.059 C2007.37,6310.26 2012.071,6305.559 2017.87,6305.559 C2023.669,6305.559 2028.37,6310.26 2028.37,6316.059" fill="#3B3C3A"/>
      <path d="M1964.62,6393.059 L1914.62,6393.059 C1914.62,6393.059 1918.12,6434.059 1964.62,6434.059 C2011.12,6434.059 2014.62,6393.059 2014.62,6393.059 L1964.62,6393.059" fill="#3B3C3A"/>
      <path d="M1964.62,6444.059 C1936.123,6444.059 1921.259,6430.445 1913.807,6419.023 C1905.971,6407.013 1904.767,6395.215 1904.656,6393.909 C1904.418,6391.12 1905.36,6388.357 1907.255,6386.295 C1909.148,6384.232 1911.82,6383.059 1914.62,6383.059 L2014.62,6383.059 C2017.42,6383.059 2020.092,6384.232 2021.985,6386.295 C2023.88,6388.357 2024.822,6391.12 2024.584,6393.909 C2024.472,6395.215 2023.268,6407.013 2015.432,6419.023 C2007.981,6430.445 1993.117,6444.059 1964.62,6444.059 z M1927.65,6403.059 C1931.858,6412.344 1941.709,6424.059 1964.62,6424.059 C1987.512,6424.059 1997.367,6412.298 2001.576,6403.059 L1927.65,6403.059" fill="#3B3C3A"/>
      <path d="M1962.62,6384.254 C1943.821,6384.254 1931.665,6367.353 1930.34,6365.426 C1927.212,6360.874 1928.366,6354.648 1932.917,6351.52 C1937.456,6348.402 1943.66,6349.541 1946.796,6354.06 C1948.8,6356.902 1955.534,6364.254 1962.62,6364.254 C1971.824,6364.254 1978.123,6354.551 1978.185,6354.452 C1981.082,6349.75 1987.222,6348.319 1991.924,6351.216 C1996.627,6354.113 1998.07,6360.305 1995.173,6365.007 C1994.689,6365.793 1983.081,6384.254 1962.62,6384.254" fill="#3B3C3A"/>
      <path d="M1962.62,6425.559 C1957.097,6425.559 1952.62,6421.083 1952.62,6415.559 L1952.62,6378.585 C1952.62,6373.062 1957.097,6368.585 1962.62,6368.585 C1968.142,6368.585 1972.62,6373.062 1972.62,6378.585 L1972.62,6415.559 C1972.62,6421.083 1968.142,6425.559 1962.62,6425.559" fill="#3B3C3A"/>
      <path d="M1962.62,6393.059 L1941.325,6393.059 C1941.325,6393.059 1941.325,6403.604 1941.325,6408.354 C1941.325,6413.104 1951.325,6415.559 1962.62,6415.559 C1973.915,6415.559 1983.915,6413.104 1983.915,6408.354 C1983.915,6403.604 1983.915,6393.059 1983.915,6393.059 L1962.62,6393.059" fill="#FFFFFE"/>
    </g>
  </g>
</svg>
