<?xml version="1.0" encoding="UTF-8"?>
<!DOCTYPE svg PUBLIC "-//W3C//DTD SVG 1.1//EN" "http://www.w3.org/Graphics/SVG/1.1/DTD/svg11.dtd">
<svg version="1.1" xmlns="http://www.w3.org/2000/svg" xmlns:xlink="http://www.w3.org/1999/xlink" x="0" y="0" width="419.859" height="412.667" viewBox="0, 0, 419.859, 412.667">
  <g id="Layer_1" transform="translate(-591.22, -2467.581)">
    <g id="shirt">
      <path d="M1001.369,2853.513 C1001.369,2868.278 909.554,2880.248 796.294,2880.248 C683.034,2880.248 591.22,2868.278 591.22,2853.513 C591.22,2838.743 683.034,2826.772 796.294,2826.772 C909.554,2826.772 1001.369,2838.743 1001.369,2853.513" fill="#D6D5D0"/>
      <path d="M696.712,2752.603 C696.712,2771.621 691.032,2821.762 764.284,2840.941 C764.284,2810.621 764.284,2752.603 764.284,2752.603 L696.712,2752.603" fill="#F6D729"/>
      <path d="M764.283,2855.941 C763.014,2855.941 761.738,2855.78 760.484,2855.452 C680.358,2834.473 681.31,2777.619 681.669,2756.215 C681.69,2754.91 681.712,2753.701 681.712,2752.603 C681.712,2744.319 688.428,2737.603 696.712,2737.603 L764.284,2737.603 C772.568,2737.603 779.284,2744.319 779.284,2752.603 L779.284,2840.941 C779.284,2845.59 777.129,2849.975 773.449,2852.815 C770.796,2854.864 767.565,2855.941 764.283,2855.941 z M711.727,2767.603 C712.518,2784.775 717.993,2806.246 749.284,2820.008 L749.284,2767.603 L711.727,2767.603" fill="#3B3C3A"/>
      <path d="M907.655,2752.603 C907.655,2771.621 913.335,2821.762 840.084,2840.941 C840.084,2810.621 840.084,2752.603 840.084,2752.603 L907.655,2752.603" fill="#F6D729"/>
      <path d="M840.085,2855.941 C836.803,2855.941 833.572,2854.864 830.919,2852.815 C827.239,2849.975 825.084,2845.59 825.084,2840.941 L825.084,2752.603 C825.084,2744.319 831.8,2737.603 840.084,2737.603 L907.655,2737.603 C915.939,2737.603 922.655,2744.319 922.655,2752.603 C922.655,2753.701 922.677,2754.91 922.698,2756.215 C923.056,2777.619 924.009,2834.473 843.884,2855.452 C842.63,2855.78 841.353,2855.941 840.085,2855.941 z M855.084,2767.603 L855.084,2820.008 C886.374,2806.246 891.849,2784.775 892.64,2767.603 L855.084,2767.603" fill="#3B3C3A"/>
      <path d="M991.63,2503.143 C980.217,2502.363 923.436,2482.582 899.031,2482.582 C875.833,2503.381 840.833,2508.525 802.183,2508.525 C763.534,2508.525 728.534,2503.381 705.336,2482.582 C680.931,2482.582 624.15,2502.363 612.737,2503.143 C601.325,2503.923 613.534,2604.723 630.534,2602.43 C647.534,2600.137 671.534,2597.723 696.712,2593.723 C696.712,2593.723 696.712,2720.121 696.712,2752.603 C733.034,2761.621 751.034,2794.621 756.689,2827.373 C760.007,2846.585 774.534,2846.27 802.183,2846.27 C829.833,2846.27 844.36,2846.585 847.678,2827.373 C853.333,2794.621 871.333,2761.621 907.655,2752.603 C907.655,2720.121 907.655,2593.723 907.655,2593.723 C932.833,2597.723 956.833,2600.137 973.833,2602.43 C990.833,2604.723 1003.043,2503.923 991.63,2503.143" fill="#FFFFFE"/>
      <path d="M804.773,2861.271 L799.594,2861.271 C786.093,2861.271 774.433,2861.271 764.794,2858.004 C752.081,2853.695 744.382,2844.248 741.908,2829.925 C739.161,2814.016 728.905,2776.051 693.098,2767.162 C686.408,2765.501 681.712,2759.496 681.712,2752.603 L681.712,2611.1 C671.019,2612.572 660.843,2613.8 651.482,2614.93 C644.606,2615.76 638.111,2616.543 632.539,2617.295 C631.687,2617.41 630.82,2617.468 629.963,2617.468 C612.559,2617.468 605.19,2597.099 600.715,2579.353 C596.755,2563.652 593.948,2543.736 593.389,2527.376 C593.114,2519.322 593.406,2512.653 594.257,2507.555 C597.026,2490.954 607.387,2488.473 611.714,2488.178 C614.729,2487.913 626.72,2484.584 636.353,2481.911 C659.354,2475.527 687.98,2467.582 705.336,2467.582 C709.032,2467.582 712.597,2468.946 715.35,2471.414 C732.405,2486.706 759.186,2493.525 802.183,2493.525 C845.18,2493.525 871.962,2486.706 889.017,2471.414 C891.769,2468.946 895.335,2467.582 899.031,2467.582 C916.387,2467.582 945.012,2475.527 968.013,2481.911 C977.647,2484.584 989.637,2487.913 992.679,2488.179 C996.98,2488.473 1007.344,2490.955 1010.112,2507.562 C1010.963,2512.664 1011.254,2519.337 1010.978,2527.396 C1010.418,2543.755 1007.61,2563.669 1003.651,2579.364 C999.176,2597.104 991.804,2617.466 974.406,2617.468 L974.402,2617.468 C973.545,2617.468 972.679,2617.41 971.828,2617.295 C966.256,2616.543 959.762,2615.76 952.885,2614.93 C943.524,2613.8 933.348,2612.572 922.655,2611.1 L922.655,2752.603 C922.655,2759.496 917.959,2765.501 911.269,2767.162 C875.462,2776.051 865.206,2814.016 862.459,2829.925 C859.985,2844.249 852.286,2853.696 839.575,2858.004 C829.937,2861.271 818.276,2861.271 804.773,2861.271 z M802.183,2831.27 L804.773,2831.271 C814.713,2831.271 824.991,2831.271 829.945,2829.592 C831.543,2829.05 832.205,2828.826 832.896,2824.821 C839.986,2783.76 861.494,2754.117 892.655,2741.701 L892.655,2593.723 C892.655,2589.332 894.578,2585.164 897.916,2582.314 C901.254,2579.465 905.669,2578.219 910.009,2578.908 C926.503,2581.529 942.429,2583.451 956.478,2585.146 C961.098,2585.704 965.548,2586.24 969.704,2586.766 C972.134,2581.457 975.841,2569.909 978.587,2551.487 C980.971,2535.481 981.319,2523.146 980.932,2516.402 C975.79,2515.186 969.053,2513.333 959.99,2510.818 C943.152,2506.144 918.68,2499.353 904.101,2497.873 C874.922,2520.501 834.6,2523.525 802.183,2523.525 C769.766,2523.525 729.445,2520.501 700.266,2497.873 C685.686,2499.353 661.215,2506.144 644.377,2510.818 C635.314,2513.333 628.578,2515.186 623.434,2516.401 C623.05,2523.146 623.396,2535.482 625.782,2551.486 C628.527,2569.909 632.234,2581.456 634.665,2586.766 C638.82,2586.24 643.269,2585.704 647.889,2585.146 C661.938,2583.451 677.864,2581.529 694.358,2578.908 C698.693,2578.218 703.112,2579.464 706.451,2582.314 C709.789,2585.164 711.712,2589.332 711.712,2593.723 L711.712,2741.701 C742.873,2754.117 764.381,2783.76 771.471,2824.821 C772.162,2828.825 772.824,2829.049 774.423,2829.591 C779.378,2831.271 789.655,2831.271 799.594,2831.271 L802.183,2831.27" fill="#3B3C3A"/>
      <path d="M802.183,2508.525 C763.534,2508.525 728.534,2503.381 705.336,2482.582 C705.336,2527.121 746.833,2558.91 802.183,2558.91 C857.534,2558.91 899.031,2527.121 899.031,2482.582 C875.833,2503.381 840.833,2508.525 802.183,2508.525" fill="#F6D729"/>
      <path d="M802.183,2573.91 C771.95,2573.91 744.1,2565.158 723.767,2549.267 C702.209,2532.419 690.336,2508.737 690.336,2482.582 C690.336,2476.664 693.816,2471.298 699.221,2468.885 C704.625,2466.472 710.941,2467.462 715.35,2471.414 C732.405,2486.706 759.186,2493.525 802.183,2493.525 C845.18,2493.525 871.962,2486.706 889.017,2471.414 C893.425,2467.463 899.744,2466.474 905.146,2468.885 C910.551,2471.298 914.031,2476.664 914.031,2482.582 C914.031,2508.737 902.158,2532.419 880.6,2549.267 C860.267,2565.158 832.417,2573.91 802.183,2573.91 z M730.835,2514.034 C744.5,2532.345 770.427,2543.91 802.183,2543.91 C833.94,2543.91 859.867,2532.345 873.532,2514.034 C850.102,2522.118 824.304,2523.525 802.183,2523.525 C780.063,2523.525 754.265,2522.118 730.835,2514.034" fill="#3B3C3A"/>
      <path d="M797.157,2814.558 C797.157,2819.033 793.528,2822.66 789.054,2822.66 C784.579,2822.66 780.95,2819.033 780.95,2814.558 C780.95,2810.082 784.579,2806.455 789.054,2806.455 C793.528,2806.455 797.157,2810.082 797.157,2814.558" fill="#3B3C3A"/>
      <path d="M823.417,2814.558 C823.417,2819.033 819.788,2822.66 815.313,2822.66 C810.839,2822.66 807.21,2819.033 807.21,2814.558 C807.21,2810.082 810.839,2806.455 815.313,2806.455 C819.788,2806.455 823.417,2810.082 823.417,2814.558" fill="#3B3C3A"/>
      <path d="M696.719,2686.056 C692.494,2686.056 688.296,2684.282 685.329,2680.825 C679.933,2674.538 680.656,2665.068 686.943,2659.673 L821.198,2544.455 C827.484,2539.06 836.955,2539.783 842.349,2546.069 C847.745,2552.355 847.022,2561.826 840.735,2567.221 L706.48,2682.438 C703.651,2684.867 700.176,2686.056 696.719,2686.056" fill="#3B3C3A"/>
      <path d="M791.015,2618.322 C794.92,2622.228 794.92,2628.559 791.015,2632.465 L778.758,2644.722 C774.851,2648.627 768.521,2648.627 764.615,2644.722 L728.464,2608.57 C724.558,2604.664 724.558,2598.334 728.464,2594.428 L740.721,2582.171 C744.627,2578.266 750.957,2578.266 754.863,2582.171 L791.015,2618.322" fill="#FFFFFE"/>
      <path d="M771.686,2662.651 C765.01,2662.651 758.732,2660.051 754.01,2655.33 L717.857,2619.177 C708.111,2609.429 708.111,2593.569 717.856,2583.822 L730.114,2571.564 C734.838,2566.842 741.115,2564.242 747.792,2564.242 C754.469,2564.242 760.746,2566.842 765.469,2571.563 L801.621,2607.716 C811.367,2617.464 811.367,2633.323 801.622,2643.07 L789.364,2655.328 C784.64,2660.051 778.363,2662.651 771.686,2662.651 z M742.605,2601.498 L771.686,2630.58 L776.873,2625.394 L747.792,2596.313 L742.605,2601.498" fill="#3B3C3A"/>
    </g>
  </g>
</svg>
