<?xml version="1.0" encoding="UTF-8"?>
<!DOCTYPE svg PUBLIC "-//W3C//DTD SVG 1.1//EN" "http://www.w3.org/Graphics/SVG/1.1/DTD/svg11.dtd">
<svg version="1.1" xmlns="http://www.w3.org/2000/svg" xmlns:xlink="http://www.w3.org/1999/xlink" x="0" y="0" width="410.149" height="441.756" viewBox="0, 0, 410.149, 441.756">
  <g id="Layer_1" transform="translate(-591.22, -4283.187)">
    <g id="socks">
      <path d="M1001.369,4698.209 C1001.369,4712.975 909.554,4724.943 796.294,4724.943 C683.034,4724.943 591.22,4712.975 591.22,4698.209 C591.22,4683.439 683.034,4671.469 796.294,4671.469 C909.554,4671.469 1001.369,4683.439 1001.369,4698.209" fill="#D6D5D0"/>
      <path d="M631.888,4373.773 C639.018,4401.793 651.696,4461.764 655.874,4475.002 C660.052,4488.238 603.503,4509.945 624.276,4559.93 C639.292,4596.058 674.893,4608.635 737.009,4592.129 C818.825,4570.389 845.118,4522.232 852.296,4499.264 C859.471,4476.297 856.335,4445.314 842.391,4396.697 C828.45,4348.08 824.419,4328.396 815.927,4307.359 C802.417,4273.889 623.372,4340.314 631.888,4373.773" fill="#C2D54A"/>
      <path d="M689.254,4614.287 C689.251,4614.287 689.249,4614.287 689.249,4614.287 C640.793,4614.283 619.639,4587.854 610.425,4565.685 C592.699,4523.035 619.825,4495.76 634.398,4481.104 C636.302,4479.19 638.688,4476.791 640.267,4474.998 C637.607,4465.154 633.519,4447.156 628.896,4426.81 C624.764,4408.621 620.492,4389.812 617.351,4377.473 C615.865,4371.633 615.848,4362.416 624.211,4351.658 C649.4,4319.253 745.919,4283.187 792.326,4283.187 C817.137,4283.187 826.419,4293.279 829.836,4301.744 C835.863,4316.674 839.606,4330.376 845.807,4353.076 C848.827,4364.128 852.25,4376.658 856.81,4392.562 C871.752,4444.658 874.684,4477.908 866.613,4503.736 C863.259,4514.471 854.462,4535.633 833.227,4556.783 C810.243,4579.678 779.166,4596.447 740.861,4606.625 C721.731,4611.708 704.368,4614.287 689.254,4614.287 z M646.806,4371.582 C649.995,4384.264 654.139,4402.503 658.151,4420.164 C663.02,4441.596 668.055,4463.758 670.179,4470.486 C674.296,4483.531 664.827,4493.053 655.67,4502.26 C639.516,4518.503 628.803,4531.734 638.128,4554.172 C646.666,4574.715 662.909,4584.285 689.248,4584.287 L689.254,4584.287 C701.768,4584.287 716.538,4582.047 733.156,4577.631 C766.306,4568.822 792.851,4554.658 812.056,4535.529 C828.721,4518.93 835.45,4502.878 837.978,4494.789 C844.088,4475.238 841.002,4446.26 827.973,4400.832 C823.36,4384.746 819.761,4371.568 816.868,4360.981 C811.174,4340.139 807.654,4327.251 802.605,4314.447 C801.367,4313.984 798.358,4313.187 792.326,4313.187 C771.672,4313.187 736.82,4322.279 703.538,4336.352 C665.793,4352.312 649.571,4366.387 646.806,4371.582" fill="#3B3C3A"/>
      <path d="M627.956,4511.731 C620.149,4524.025 615.848,4539.65 624.276,4559.93 C636.905,4590.318 664.108,4604.037 709.393,4597.81 C696.626,4553.644 659.747,4523.158 627.956,4511.731" fill="#FFFFFE"/>
      <path d="M689.259,4614.281 C689.259,4614.281 689.254,4614.281 689.251,4614.281 C640.791,4614.277 619.637,4587.854 610.425,4565.685 C601.369,4543.896 603.008,4523.037 615.294,4503.691 C619.056,4497.766 626.427,4495.242 633.029,4497.615 C665.469,4509.275 708.706,4541.42 723.804,4593.644 C725.013,4597.828 724.344,4602.332 721.971,4605.984 C719.596,4609.637 715.752,4612.076 711.436,4612.67 C703.666,4613.738 696.203,4614.281 689.259,4614.281 z M635.515,4531.424 C633.814,4538.578 634.702,4545.93 638.128,4554.172 C646.531,4574.395 662.407,4583.979 688.035,4584.273 C675.928,4560.113 655.425,4541.818 635.515,4531.424" fill="#3B3C3A"/>
      <path d="M791.807,4569.781 C831.612,4546.24 847.055,4516.037 852.296,4499.264 C857.454,4482.752 857.282,4462.097 851.598,4433.726 C805.434,4453.752 775.544,4508.818 791.807,4569.781" fill="#FFFFFE"/>
      <path d="M791.806,4584.781 C789.886,4584.781 787.958,4584.412 786.133,4583.666 C781.787,4581.891 778.524,4578.182 777.314,4573.646 C768.652,4541.178 771.211,4508.805 784.714,4480.029 C797.494,4452.793 819.128,4431.461 845.629,4419.965 C849.787,4418.16 854.535,4418.334 858.551,4420.434 C862.565,4422.535 865.416,4426.336 866.306,4430.779 C872.464,4461.516 872.561,4484.697 866.613,4503.736 C862.093,4518.205 846.5,4554.861 799.443,4582.691 C797.1,4584.078 794.459,4584.781 791.806,4584.781 z M840.196,4457.668 C816.631,4475.455 799.77,4506.471 802.563,4544.078 C826.442,4524.543 835.129,4503.91 837.978,4494.791 C841.062,4484.916 841.808,4472.857 840.196,4457.668" fill="#3B3C3A"/>
      <path d="M784.247,4448.406 C784.804,4477.314 783.477,4538.596 784.528,4552.437 C785.579,4566.279 725.569,4574.523 734.405,4627.93 C740.79,4666.529 772.589,4686.889 836.829,4684.976 C921.448,4682.457 958.026,4641.562 970.249,4620.834 C982.471,4600.105 986.481,4569.224 983.985,4518.709 C981.493,4468.195 982.052,4448.109 978.579,4425.689 C973.055,4390.021 783.583,4413.889 784.247,4448.406" fill="#C2D54A"/>
      <path d="M828.719,4700.099 L828.703,4700.099 C796.625,4700.098 772.137,4694.531 753.838,4683.078 C734.953,4671.262 723.435,4653.529 719.606,4630.377 C712.067,4584.807 744.696,4564.431 762.225,4553.486 C764.516,4552.056 767.387,4550.264 769.334,4548.877 C768.987,4538.685 769.108,4520.228 769.245,4499.363 C769.368,4480.713 769.495,4461.426 769.25,4448.695 C769.153,4443.681 770.593,4436.123 777.997,4428.576 C801.789,4404.32 877.558,4393.021 921.274,4393.021 C939.006,4393.021 953.663,4394.605 964.84,4397.73 C986.083,4403.672 992.097,4414.965 993.402,4423.393 C995.868,4439.31 996.389,4453.512 997.255,4477.041 C997.676,4488.486 998.152,4501.457 998.967,4517.969 C1001.642,4572.096 996.917,4605.139 983.17,4628.453 C977.459,4638.139 964.07,4656.738 938.572,4672.494 C910.974,4689.545 876.893,4698.789 837.275,4699.969 C834.377,4700.057 831.498,4700.099 828.719,4700.099 z M799.272,4449.689 C799.487,4462.762 799.364,4481.457 799.245,4499.56 C799.101,4521.539 798.951,4544.266 799.485,4551.301 C800.52,4564.941 789.131,4572.055 778.115,4578.933 C758.684,4591.066 745.237,4601.506 749.204,4625.48 C752.372,4644.635 764.06,4670.098 828.704,4670.099 C828.704,4670.099 828.711,4670.099 828.715,4670.099 C831.199,4670.099 833.779,4670.061 836.383,4669.982 C870.668,4668.961 899.744,4661.221 922.804,4646.972 C942.813,4634.609 953.023,4620.516 957.328,4613.215 C967.735,4595.564 971.336,4566.646 969.004,4519.449 C968.179,4502.748 967.678,4489.105 967.275,4478.144 C966.48,4456.517 965.989,4443.154 963.986,4429.516 C960.811,4427.313 948.92,4423.021 921.274,4423.021 C896.421,4423.021 866.782,4426.56 841.99,4432.49 C813.218,4439.373 801.951,4446.711 799.272,4449.689" fill="#3B3C3A"/>
      <path d="M748.974,4581.839 C738.569,4592.028 730.821,4606.262 734.405,4627.93 C739.774,4660.396 763.132,4679.955 808.647,4684.212 C806.282,4638.298 777.323,4600.21 748.974,4581.839" fill="#FFFFFE"/>
      <path d="M808.648,4699.213 C808.183,4699.213 807.718,4699.191 807.25,4699.146 C782.052,4696.789 761.87,4689.842 747.267,4678.494 C732.264,4666.835 722.958,4650.646 719.606,4630.376 C715.755,4607.094 722.104,4587.158 738.478,4571.123 C743.492,4566.213 751.241,4565.433 757.131,4569.251 C786.058,4587.996 820.831,4629.15 823.628,4683.441 C823.851,4687.791 822.174,4692.022 819.03,4695.039 C816.225,4697.728 812.499,4699.213 808.648,4699.213 z M751.845,4602.734 C748.558,4609.313 747.747,4616.674 749.204,4625.479 C751.547,4639.646 758.649,4658.176 790.935,4666.16 C784.653,4639.875 768.861,4617.394 751.845,4602.734" fill="#3B3C3A"/>
      <path d="M895.28,4675.707 C939.403,4661.856 961.323,4635.971 970.249,4620.833 C979.036,4605.932 983.577,4585.78 984.509,4556.862 C934.995,4565.837 893.341,4612.641 895.28,4675.707" fill="#FFFFFE"/>
      <path d="M895.281,4690.707 C892.202,4690.707 889.159,4689.759 886.59,4687.932 C882.764,4685.212 880.432,4680.858 880.287,4676.167 C879.254,4642.578 889.124,4611.64 908.83,4586.701 C927.483,4563.093 953.409,4547.255 981.834,4542.104 C986.291,4541.296 990.877,4542.544 994.307,4545.505 C997.738,4548.464 999.646,4552.815 999.501,4557.346 C998.492,4588.673 993.303,4611.268 983.17,4628.453 C975.471,4641.509 951.931,4673.646 899.772,4690.018 C898.302,4690.479 896.787,4690.707 895.281,4690.707 z M967.95,4577.576 C940.951,4589.521 917.465,4615.876 911.611,4653.13 C939.314,4639.553 952.474,4621.444 957.328,4613.214 C962.583,4604.303 966.058,4592.729 967.95,4577.576" fill="#3B3C3A"/>
    </g>
  </g>
</svg>
