<?xml version="1.0" encoding="UTF-8"?>
<!DOCTYPE svg PUBLIC "-//W3C//DTD SVG 1.1//EN" "http://www.w3.org/Graphics/SVG/1.1/DTD/svg11.dtd">
<svg version="1.1" xmlns="http://www.w3.org/2000/svg" xmlns:xlink="http://www.w3.org/1999/xlink" x="0" y="0" width="426.353" height="427.954" viewBox="0, 0, 426.353, 427.954">
  <g id="Layer_1" transform="translate(-1740.804, -1223.231)">
    <g id="syringe">
      <path d="M2150.954,1624.451 C2150.954,1639.216 2059.138,1651.185 1945.879,1651.185 C1832.619,1651.185 1740.804,1639.216 1740.804,1624.451 C1740.804,1609.681 1832.619,1597.71 1945.879,1597.71 C2059.138,1597.71 2150.954,1609.681 2150.954,1624.451" fill="#D6D5D0"/>
      <path d="M2018.33,1355.451 L1901.662,1472.118 L1806.209,1376.665 C1794.494,1364.95 1794.494,1345.954 1806.209,1334.239 L1880.451,1259.998 C1892.166,1248.282 1911.16,1248.282 1922.877,1259.998 L2018.33,1355.451" fill="#FFFFFE"/>
      <path d="M1901.662,1487.118 C1897.823,1487.118 1893.984,1485.653 1891.055,1482.725 L1795.602,1387.271 C1778.056,1369.726 1778.056,1341.179 1795.602,1323.633 L1869.845,1249.392 C1878.343,1240.892 1889.643,1236.212 1901.663,1236.212 C1913.682,1236.212 1924.983,1240.892 1933.483,1249.391 L2028.936,1344.845 C2031.75,1347.657 2033.33,1351.474 2033.33,1355.451 C2033.33,1359.43 2031.75,1363.245 2028.936,1366.058 L1912.268,1482.725 C1909.34,1485.653 1905.5,1487.118 1901.662,1487.118 z M1901.663,1266.212 C1897.657,1266.212 1893.89,1267.771 1891.058,1270.604 L1816.815,1344.846 C1810.967,1350.694 1810.967,1360.21 1816.815,1366.058 L1901.662,1450.905 L1997.117,1355.451 L1912.27,1270.604 C1909.437,1267.771 1905.67,1266.212 1901.663,1266.212" fill="#3B3C3A"/>
      <path d="M2072.951,1342.193 C2084.373,1353.615 2084.373,1372.135 2072.949,1383.558 L1929.767,1526.74 C1918.345,1538.161 1899.826,1538.162 1888.404,1526.74 C1876.982,1515.317 1876.982,1496.798 1888.404,1485.376 L2031.586,1342.194 C2043.01,1330.771 2061.527,1330.77 2072.951,1342.193" fill="#E46C79"/>
      <path d="M1909.085,1550.306 C1897.266,1550.306 1886.154,1545.704 1877.798,1537.347 C1860.546,1520.093 1860.546,1492.021 1877.798,1474.77 L2020.979,1331.588 C2029.338,1323.229 2040.45,1318.627 2052.269,1318.627 C2064.088,1318.627 2075.199,1323.229 2083.557,1331.587 C2091.915,1339.944 2096.517,1351.056 2096.517,1362.876 C2096.516,1374.695 2091.914,1385.807 2083.555,1394.165 L1940.374,1537.347 C1932.016,1545.704 1920.904,1550.306 1909.085,1550.306 z M2052.269,1348.627 C2048.463,1348.627 2044.885,1350.109 2042.192,1352.802 L1899.011,1495.982 C1893.455,1501.538 1893.456,1510.578 1899.012,1516.135 C1901.701,1518.824 1905.279,1520.306 1909.085,1520.306 C1912.891,1520.306 1916.47,1518.824 1919.161,1516.134 L2062.343,1372.951 C2065.035,1370.26 2066.517,1366.681 2066.517,1362.874 C2066.517,1359.069 2065.035,1355.491 2062.345,1352.8 C2059.653,1350.109 2056.075,1348.627 2052.269,1348.627" fill="#3B3C3A"/>
      <path d="M2145.508,1455.627 C2154.398,1464.519 2154.398,1478.936 2145.506,1487.829 L2034.039,1599.296 C2025.148,1608.188 2010.73,1608.188 2001.838,1599.296 C1992.945,1590.403 1992.945,1575.986 2001.838,1567.094 L2113.304,1455.627 C2122.197,1446.735 2136.613,1446.734 2145.508,1455.627" fill="#FFFFFE"/>
      <path d="M2017.939,1620.965 C2007.85,1620.965 1998.366,1617.036 1991.231,1609.903 C1976.505,1595.176 1976.505,1571.214 1991.231,1556.487 L2102.698,1445.02 C2109.834,1437.886 2119.317,1433.958 2129.406,1433.958 C2139.494,1433.958 2148.978,1437.886 2156.113,1445.019 C2170.84,1459.749 2170.838,1483.71 2156.112,1498.436 L2044.645,1609.902 C2037.512,1617.036 2028.028,1620.965 2017.939,1620.965 z M2129.406,1463.958 C2127.33,1463.958 2125.379,1464.766 2123.911,1466.234 L2012.444,1577.7 C2009.415,1580.73 2009.415,1585.659 2012.444,1588.689 C2013.912,1590.156 2015.863,1590.965 2017.939,1590.965 C2020.014,1590.965 2021.965,1590.157 2023.431,1588.69 L2134.899,1477.223 C2137.929,1474.192 2137.929,1469.263 2134.9,1466.232 C2133.433,1464.766 2131.481,1463.958 2129.406,1463.958" fill="#3B3C3A"/>
      <path d="M2088.679,1480.252 L2026.463,1542.469 L1970.25,1486.257 L2032.469,1424.039 L2088.679,1480.252" fill="#FFFFFE"/>
      <path d="M2026.463,1557.469 C2022.625,1557.469 2018.785,1556.005 2015.856,1553.076 L1959.643,1496.864 C1956.83,1494.051 1955.25,1490.235 1955.25,1486.257 C1955.25,1482.278 1956.83,1478.464 1959.643,1475.65 L2021.862,1413.433 C2024.675,1410.62 2028.49,1409.039 2032.469,1409.039 C2036.447,1409.039 2040.262,1410.62 2043.075,1413.433 L2099.286,1469.646 C2105.144,1475.503 2105.144,1485.001 2099.286,1490.858 L2037.069,1553.075 C2034.14,1556.005 2030.302,1557.469 2026.463,1557.469 z M1991.463,1486.257 L2026.463,1521.256 L2067.467,1480.252 L2032.469,1445.253 L1991.463,1486.257" fill="#3B3C3A"/>
      <path d="M1809.736,1238.231 L1768.572,1244.935 L1832.043,1308.405 L1855.976,1284.473 L1809.736,1238.231" fill="#FFFFFE"/>
      <path d="M1832.043,1323.405 C1828.204,1323.405 1824.365,1321.94 1821.436,1319.012 L1757.966,1255.541 C1753.985,1251.562 1752.568,1245.688 1754.297,1240.33 C1756.024,1234.974 1760.605,1231.034 1766.161,1230.13 L1807.325,1223.427 C1812.087,1222.65 1816.93,1224.212 1820.343,1227.625 L1866.584,1273.866 C1869.396,1276.679 1870.976,1280.495 1870.976,1284.473 C1870.976,1288.451 1869.396,1292.267 1866.584,1295.08 L1842.649,1319.013 C1839.721,1321.94 1835.881,1323.405 1832.043,1323.405 z M1799.884,1255.033 L1832.043,1287.192 L1834.763,1284.472 L1804.563,1254.271 L1799.884,1255.033" fill="#3B3C3A"/>
      <path d="M1814.978,1395.435 C1812.419,1395.435 1809.86,1394.458 1807.907,1392.506 C1804.002,1388.6 1804.002,1382.269 1807.907,1378.363 L1850.524,1335.746 C1854.43,1331.841 1860.761,1331.841 1864.668,1335.746 C1868.572,1339.651 1868.572,1345.983 1864.668,1349.889 L1822.05,1392.506 C1820.096,1394.458 1817.538,1395.435 1814.978,1395.435" fill="#3B3C3A"/>
      <path d="M1834.65,1415.105 C1832.091,1415.105 1829.532,1414.13 1827.579,1412.177 C1823.674,1408.271 1823.674,1401.939 1827.579,1398.034 L1856.054,1369.559 C1859.96,1365.654 1866.29,1365.654 1870.196,1369.559 C1874.101,1373.465 1874.101,1379.797 1870.196,1383.702 L1841.721,1412.177 C1839.768,1414.13 1837.21,1415.105 1834.65,1415.105" fill="#3B3C3A"/>
      <path d="M1854.32,1434.777 C1851.761,1434.777 1849.202,1433.802 1847.249,1431.849 C1843.344,1427.943 1843.344,1421.611 1847.249,1417.706 L1889.866,1375.089 C1893.772,1371.184 1900.102,1371.184 1904.009,1375.089 C1907.914,1378.994 1907.914,1385.326 1904.009,1389.231 L1861.391,1431.849 C1859.438,1433.802 1856.88,1434.777 1854.32,1434.777" fill="#3B3C3A"/>
      <path d="M1873.992,1454.448 C1871.432,1454.448 1868.874,1453.472 1866.921,1451.52 C1863.015,1447.614 1863.015,1441.282 1866.921,1437.377 L1895.395,1408.902 C1899.302,1404.997 1905.632,1404.997 1909.538,1408.902 C1913.443,1412.808 1913.443,1419.14 1909.538,1423.045 L1881.063,1451.52 C1879.11,1453.472 1876.552,1454.448 1873.992,1454.448" fill="#3B3C3A"/>
    </g>
  </g>
</svg>
