<?xml version="1.0" encoding="UTF-8"?>
<!DOCTYPE svg PUBLIC "-//W3C//DTD SVG 1.1//EN" "http://www.w3.org/Graphics/SVG/1.1/DTD/svg11.dtd">
<svg version="1.1" xmlns="http://www.w3.org/2000/svg" xmlns:xlink="http://www.w3.org/1999/xlink" x="0" y="0" width="414.828" height="446.138" viewBox="0, 0, 414.828, 446.138">
  <g id="Layer_1" transform="translate(-1170.179, -2434.11)">
    <g id="toy">
      <path d="M1580.329,2853.513 C1580.329,2868.278 1488.513,2880.248 1375.254,2880.248 C1261.994,2880.248 1170.179,2868.278 1170.179,2853.513 C1170.179,2838.743 1261.994,2826.772 1375.254,2826.772 C1488.513,2826.772 1580.329,2838.743 1580.329,2853.513" fill="#D6D5D0"/>
      <path d="M1421.796,2483.592 C1338.231,2413.185 1260.335,2465.894 1260.335,2506.58 C1213.995,2515.514 1190.253,2540.994 1194.833,2585.27 C1199.97,2634.935 1266.985,2648.887 1266.985,2648.887 C1247.485,2675.617 1234.171,2728.856 1234.171,2759.286 C1234.171,2789.717 1254.387,2802.943 1282.97,2802.943 C1311.552,2802.943 1486.97,2802.943 1517.97,2802.943 C1548.97,2802.943 1570.007,2793.961 1570.007,2740.312 C1570.007,2630.918 1505.36,2553.998 1421.796,2483.592" fill="#C2D54A"/>
      <path d="M1517.97,2817.943 L1282.97,2817.943 C1264.48,2817.943 1249.455,2813.286 1238.311,2804.102 C1229.58,2796.904 1219.171,2783.287 1219.171,2759.286 C1219.171,2731.262 1228.942,2688.207 1244.361,2657.568 C1220.865,2648.558 1184.175,2628.028 1179.912,2586.813 C1177.227,2560.857 1183.01,2539.357 1197.097,2522.913 C1208.518,2509.581 1225.234,2499.969 1246.884,2494.26 C1250.318,2480.514 1259.35,2467.15 1272.801,2456.322 C1290.594,2441.998 1313.798,2434.11 1338.138,2434.11 C1369.677,2434.11 1401.946,2447.254 1431.461,2472.121 C1507.387,2536.092 1585.007,2617.982 1585.007,2740.312 C1585.007,2770.079 1579.003,2789.826 1566.112,2802.459 C1552.108,2816.184 1533.028,2817.943 1517.97,2817.943 z M1338.138,2464.11 C1300.384,2464.11 1275.335,2489.672 1275.335,2506.58 C1275.335,2513.769 1270.233,2519.948 1263.175,2521.309 C1243.145,2525.17 1228.579,2532.276 1219.88,2542.431 C1211.235,2552.522 1207.923,2566.03 1209.753,2583.727 C1213.687,2621.767 1269.513,2634.088 1270.076,2634.208 C1275.048,2635.268 1279.162,2638.776 1280.978,2643.524 C1282.794,2648.272 1282.099,2653.62 1279.103,2657.727 C1261.972,2681.211 1249.171,2730.714 1249.171,2759.286 C1249.171,2767.123 1249.171,2787.943 1282.97,2787.943 L1517.97,2787.943 C1532.054,2787.943 1540.172,2785.876 1545.114,2781.033 C1551.679,2774.6 1555.007,2760.899 1555.007,2740.312 C1555.007,2630.277 1482.782,2554.589 1412.131,2495.063 C1388.096,2474.813 1362.511,2464.11 1338.138,2464.11" fill="#3B3C3A"/>
      <path d="M1373.346,2520.769 C1373.346,2540.529 1357.327,2556.549 1337.567,2556.549 C1317.807,2556.549 1301.788,2540.529 1301.788,2520.769 C1301.788,2501.01 1317.807,2484.992 1337.567,2484.992 C1357.327,2484.992 1373.346,2501.01 1373.346,2520.769" fill="#FFFFFE"/>
      <path d="M1337.567,2566.549 C1312.324,2566.549 1291.788,2546.012 1291.788,2520.769 C1291.788,2495.528 1312.324,2474.992 1337.567,2474.992 C1362.81,2474.992 1383.346,2495.528 1383.346,2520.769 C1383.346,2546.012 1362.81,2566.549 1337.567,2566.549 z M1337.567,2494.992 C1323.352,2494.992 1311.788,2506.556 1311.788,2520.769 C1311.788,2534.984 1323.352,2546.549 1337.567,2546.549 C1351.782,2546.549 1363.346,2534.984 1363.346,2520.769 C1363.346,2506.556 1351.782,2494.992 1337.567,2494.992" fill="#3B3C3A"/>
      <path d="M1229.085,2643.424 C1225.14,2643.424 1221.414,2643.35 1217.98,2643.202 C1212.463,2642.963 1208.183,2638.296 1208.423,2632.779 C1208.66,2627.261 1213.325,2622.983 1218.846,2623.22 C1251.345,2624.628 1299.664,2618.956 1309.544,2612.574 C1314.185,2609.579 1320.375,2610.91 1323.37,2615.549 C1326.366,2620.188 1325.034,2626.378 1320.395,2629.375 C1306.017,2638.662 1260.712,2643.424 1229.085,2643.424" fill="#3B3C3A"/>
      <path d="M1336.827,2643.768 C1326.221,2643.769 1315.887,2637.781 1308.934,2627.295 C1300.267,2614.224 1299.361,2598.151 1306.679,2587.301 C1309.767,2582.722 1315.982,2581.513 1320.561,2584.602 C1325.139,2587.69 1326.349,2593.905 1323.261,2598.484 C1320.505,2602.57 1321.489,2610.039 1325.603,2616.242 C1328.406,2620.47 1333.24,2624.624 1338.399,2623.615 C1343.821,2622.553 1349.074,2626.084 1350.137,2631.504 C1351.199,2636.924 1347.667,2642.178 1342.247,2643.241 C1340.443,2643.595 1338.631,2643.768 1336.827,2643.768" fill="#3B3C3A"/>
      <path d="M1340.149,2520.769 C1340.149,2526.568 1335.448,2531.269 1329.649,2531.269 C1323.85,2531.269 1319.149,2526.568 1319.149,2520.769 C1319.149,2514.971 1323.85,2510.269 1329.649,2510.269 C1335.448,2510.269 1340.149,2514.971 1340.149,2520.769" fill="#3B3C3A"/>
      <path d="M1416.313,2812.943 C1398.169,2812.943 1383.767,2809.876 1373.509,2803.827 C1362.839,2797.535 1356.963,2788.13 1356.963,2777.344 C1356.963,2765.254 1364.437,2753.217 1377.469,2744.317 C1386.255,2738.316 1397.025,2734.156 1408.774,2732.119 C1400.601,2716.911 1396.447,2702.352 1396.399,2688.681 C1396.343,2672.622 1402.059,2657.962 1412.93,2646.287 C1423.714,2634.706 1439.09,2626.499 1456.226,2623.178 C1472.892,2619.946 1488.976,2621.894 1500.347,2628.522 C1505.12,2631.302 1506.734,2637.425 1503.954,2642.197 C1501.173,2646.968 1495.051,2648.584 1490.279,2645.802 C1475.722,2637.322 1444.505,2641.727 1427.567,2659.916 C1410.628,2678.109 1412.841,2704.088 1433.968,2735.047 C1436.057,2738.109 1436.282,2742.076 1434.55,2745.354 C1432.818,2748.632 1429.415,2750.684 1425.708,2750.684 C1395.952,2750.684 1376.963,2766.474 1376.963,2777.344 C1376.963,2780.862 1379.219,2783.976 1383.668,2786.599 C1388.576,2789.493 1398.223,2792.943 1416.313,2792.943 C1421.836,2792.943 1426.313,2797.42 1426.313,2802.943 C1426.313,2808.466 1421.836,2812.943 1416.313,2812.943" fill="#3B3C3A"/>
      <path d="M1304.611,2812.101 C1304.231,2812.101 1303.849,2812.079 1303.463,2812.035 C1297.975,2811.407 1294.036,2806.451 1294.663,2800.963 C1299.414,2759.415 1312.034,2704.39 1322.796,2678.302 C1324.9,2673.197 1330.748,2670.763 1335.853,2672.871 C1340.959,2674.977 1343.391,2680.823 1341.284,2685.929 C1331.282,2710.175 1319.032,2763.895 1314.534,2803.236 C1313.95,2808.336 1309.625,2812.101 1304.611,2812.101" fill="#3B3C3A"/>
      <path d="M1523.341,2799.042 C1523.341,2822.457 1504.36,2841.439 1480.944,2841.439 C1457.528,2841.439 1438.546,2822.457 1438.546,2799.042 C1438.546,2775.627 1457.528,2756.644 1480.944,2756.644 C1504.36,2756.644 1523.341,2775.627 1523.341,2799.042" fill="#FFFFFE"/>
      <path d="M1480.944,2856.439 C1449.295,2856.439 1423.546,2830.691 1423.546,2799.042 C1423.546,2767.393 1449.295,2741.644 1480.944,2741.644 C1512.593,2741.644 1538.341,2767.393 1538.341,2799.042 C1538.341,2830.691 1512.593,2856.439 1480.944,2856.439 z M1480.944,2771.644 C1465.837,2771.644 1453.546,2783.935 1453.546,2799.042 C1453.546,2814.149 1465.837,2826.439 1480.944,2826.439 C1496.051,2826.439 1508.341,2814.149 1508.341,2799.042 C1508.341,2783.935 1496.051,2771.644 1480.944,2771.644" fill="#3B3C3A"/>
      <path d="M1496.192,2799.042 C1496.192,2807.464 1489.364,2814.29 1480.944,2814.29 C1472.522,2814.29 1465.696,2807.464 1465.696,2799.042 C1465.696,2790.62 1472.522,2783.794 1480.944,2783.794 C1489.364,2783.794 1496.192,2790.62 1496.192,2799.042" fill="#3B3C3A"/>
      <path d="M1356.118,2799.042 C1356.118,2822.457 1337.137,2841.439 1313.722,2841.439 C1290.305,2841.439 1271.323,2822.457 1271.323,2799.042 C1271.323,2775.627 1290.305,2756.644 1313.722,2756.644 C1337.137,2756.644 1356.118,2775.627 1356.118,2799.042" fill="#FFFFFE"/>
      <path d="M1313.722,2856.439 C1282.072,2856.439 1256.323,2830.691 1256.323,2799.042 C1256.323,2767.393 1282.072,2741.644 1313.722,2741.644 C1345.37,2741.644 1371.118,2767.393 1371.118,2799.042 C1371.118,2830.691 1345.37,2856.439 1313.722,2856.439 z M1313.722,2771.644 C1298.614,2771.644 1286.323,2783.935 1286.323,2799.042 C1286.323,2814.149 1298.614,2826.439 1313.722,2826.439 C1328.828,2826.439 1341.118,2814.149 1341.118,2799.042 C1341.118,2783.935 1328.828,2771.644 1313.722,2771.644" fill="#3B3C3A"/>
      <path d="M1328.97,2799.042 C1328.97,2807.464 1322.142,2814.29 1313.722,2814.29 C1305.3,2814.29 1298.473,2807.464 1298.473,2799.042 C1298.473,2790.62 1305.3,2783.794 1313.722,2783.794 C1322.142,2783.794 1328.97,2790.62 1328.97,2799.042" fill="#3B3C3A"/>
    </g>
  </g>
</svg>
